<?xml version="1.0" encoding="UTF-8" standalone="no"?>
<!DOCTYPE svg PUBLIC "-//W3C//DTD SVG 1.1//EN" "http://www.w3.org/Graphics/SVG/1.1/DTD/svg11.dtd">
<!-- Created with Vectornator (http://vectornator.io/) -->
<svg height="100%" stroke-miterlimit="10" style="fill-rule:nonzero;clip-rule:evenodd;stroke-linecap:round;stroke-linejoin:round;" version="1.1" viewBox="104.292 466.102 208.523 127.782" width="100%" xml:space="preserve" xmlns="http://www.w3.org/2000/svg" xmlns:vectornator="http://vectornator.io" xmlns:xlink="http://www.w3.org/1999/xlink">
<defs/>
<clipPath id="ArtboardFrame">
<rect height="127.782" width="208.523" x="104.292" y="466.102"/>
</clipPath>
<g clip-path="url(#ArtboardFrame)" id="Layer" vectornator:layerName="Layer">
<g opacity="1" vectornator:layerName="Group 1">
<path d="M114.715 536.238C114.715 520.481 128.665 507.708 145.873 507.708L270.564 507.708C287.773 507.708 301.722 520.481 301.722 536.238L301.722 544.237C301.722 559.994 287.773 572.767 270.564 572.767L145.873 572.767C128.665 572.767 114.715 559.994 114.715 544.237L114.715 536.238Z" fill="#d1bef9" fill-rule="nonzero" opacity="1" stroke="#463174" stroke-linecap="butt" stroke-linejoin="round" stroke-width="2.16483" vectornator:layerName="Rectangle 1"/>
<path d="M114.649 521.969C114.652 452.299 136.815 468.709 210.754 468.709C284.693 468.709 303.594 454.86 301.657 521.969C300.988 545.111 254.905 545.121 208.153 545.121C161.401 545.121 114.648 545.542 114.649 521.969Z" fill="#d1bef9" fill-rule="nonzero" opacity="1" stroke="#463174" stroke-linecap="butt" stroke-linejoin="round" stroke-width="1.84828" vectornator:layerName="Curve 1"/>
<path d="M266.812 592.802" fill="none" opacity="1" stroke="#463174" stroke-linecap="butt" stroke-linejoin="round" stroke-width="2.16483" vectornator:layerName="Curve 2"/>
<path d="M105.374 543.123C105.374 532.613 113.729 524.093 124.036 524.093L124.036 524.093C134.342 524.093 142.697 532.613 142.697 543.123L142.697 551.784C142.697 562.294 134.342 570.814 124.036 570.814L124.036 570.814C113.729 570.814 105.374 562.294 105.374 551.784L105.374 543.123Z" fill="#d1bef9" fill-rule="nonzero" opacity="1" stroke="#463174" stroke-linecap="butt" stroke-linejoin="round" stroke-width="2.16483" vectornator:layerName="Rectangle 6"/>
<path d="M140.588 576.552C142.251 573.672 145.391 572.371 147.602 573.647L147.602 573.647C149.812 574.923 150.255 578.293 148.592 581.174L147.221 583.548C145.558 586.428 142.418 587.729 140.208 586.453L140.208 586.453C137.997 585.177 137.554 581.807 139.217 578.926L140.588 576.552Z" fill="#d1bef9" fill-rule="nonzero" opacity="1" stroke="#463174" stroke-linecap="butt" stroke-linejoin="round" stroke-width="2.16483" vectornator:layerName="Rectangle 7"/>
<path d="M271.393 581.174C269.73 578.293 270.173 574.923 272.384 573.647L272.384 573.647C274.594 572.371 277.734 573.672 279.397 576.552L280.768 578.926C282.431 581.807 281.988 585.177 279.777 586.453L279.777 586.453C277.567 587.729 274.427 586.428 272.764 583.548L271.393 581.174Z" fill="#d1bef9" fill-rule="nonzero" opacity="1" stroke="#463174" stroke-linecap="butt" stroke-linejoin="round" stroke-width="2.16483" vectornator:layerName="Rectangle 5"/>
<path d="M274.411 543.123C274.411 532.613 282.765 524.093 293.072 524.093L293.072 524.093C303.378 524.093 311.733 532.613 311.733 543.123L311.733 551.784C311.733 562.294 303.378 570.814 293.072 570.814L293.072 570.814C282.765 570.814 274.411 562.294 274.411 551.784L274.411 543.123Z" fill="#d1bef9" fill-rule="nonzero" opacity="1" stroke="#463174" stroke-linecap="butt" stroke-linejoin="round" stroke-width="2.16483" vectornator:layerName="Rectangle 4"/>
<path d="M166.498 504.308C166.498 504.308 172.202 496.13 179.437 504.5" fill="none" opacity="1" stroke="#463174" stroke-linecap="square" stroke-linejoin="round" stroke-width="2.16483" vectornator:layerName="Curve 5"/>
<path d="M242.173 504.308C242.173 504.308 247.877 496.13 255.112 504.5" fill="none" opacity="1" stroke="#463174" stroke-linecap="square" stroke-linejoin="round" stroke-width="2.16483" vectornator:layerName="Curve 4"/>
<path d="M189.244 532.871C191.066 545.842 201.286 542.986 211.286 542.973C221.286 542.96 228.703 545.311 230.324 534.718C231.995 523.794 228.51 503.882 210.469 503.593C192.427 503.304 188.063 524.466 189.244 532.871Z" fill="#ffffff" fill-rule="nonzero" opacity="1" stroke="#463174" stroke-linecap="butt" stroke-linejoin="round" stroke-width="2.16483" vectornator:layerName="Curve 1"/>
<path d="M181.082 530.073C182.822 524.82 188.444 523.686 192.873 525.113C197.301 526.539 203.094 528.497 201.355 533.748C199.566 539.15 191.673 542.486 187.268 540.988C182.864 539.489 179.342 535.327 181.082 530.073Z" fill="#d1bef9" fill-rule="nonzero" opacity="1" stroke="none" vectornator:layerName="Oval 2"/>
<path d="M238.68 530.073C236.94 524.82 231.317 523.686 226.888 525.113C222.46 526.539 216.667 528.497 218.406 533.748C220.195 539.15 228.088 542.486 232.493 540.988C236.897 539.489 240.42 535.327 238.68 530.073Z" fill="#d1bef9" fill-rule="nonzero" opacity="1" stroke="none" vectornator:layerName="Oval 1"/>
<path d="M199.768 517.386C199.768 517.386 200.598 521.759 204.029 518.43" fill="none" opacity="1" stroke="#463174" stroke-linecap="butt" stroke-linejoin="round" stroke-width="1.18" vectornator:layerName="Curve 4"/>
<path d="M216.186 517.386C216.186 517.386 217.017 521.759 220.447 518.43" fill="none" opacity="1" stroke="#463174" stroke-linecap="butt" stroke-linejoin="round" stroke-width="1.18" vectornator:layerName="Curve 3"/>
<path d="M208.601 522.347C208.799 521.608 209.56 521.169 210.299 521.367C211.039 521.565 211.478 522.325 211.279 523.065C211.081 523.804 210.321 524.243 209.582 524.045C208.842 523.847 208.403 523.087 208.601 522.347Z" fill="#463174" fill-rule="nonzero" opacity="1" stroke="none" vectornator:layerName="Oval 1"/>
</g>
</g>
</svg>
