<?xml version="1.0" encoding="UTF-8" standalone="no"?>
<!DOCTYPE svg PUBLIC "-//W3C//DTD SVG 1.1//EN" "http://www.w3.org/Graphics/SVG/1.1/DTD/svg11.dtd">
<!-- Created with Vectornator (http://vectornator.io/) -->
<svg height="100%" stroke-miterlimit="10" style="fill-rule:nonzero;clip-rule:evenodd;stroke-linecap:round;stroke-linejoin:round;" version="1.1" viewBox="185.204 458.709 51.4532 64.8936" width="100%" xml:space="preserve" xmlns="http://www.w3.org/2000/svg" xmlns:vectornator="http://vectornator.io" xmlns:xlink="http://www.w3.org/1999/xlink">
<defs/>
<clipPath id="ArtboardFrame">
<rect height="64.8936" width="51.4532" x="185.204" y="458.709"/>
</clipPath>
<g clip-path="url(#ArtboardFrame)" id="Layer" vectornator:layerName="Layer">
<g opacity="1" vectornator:layerName="Group 1">
<g opacity="1" vectornator:layerName="Group 1">
<g opacity="1" vectornator:layerName="Group 1">
<path d="M214.765 480.929C214.566 478.864 215.349 478.39 215.346 477.849C215.528 477.908 215.507 478.548 215.507 478.548C216.435 478.363 216.816 477.703 216.816 477.703C216.75 478.057 216.411 478.775 216.411 478.775C217.468 478.952 218.077 478.185 218.077 478.185L217.339 479.242C218.969 479.472 220.288 478.206 221.317 477.562C223.547 476.167 222.721 472.821 222.107 470.97C221.295 468.523 220.325 466.126 219.242 463.786C218.805 462.841 218.271 461.915 217.563 461.151C216.204 459.685 214.072 458.569 212.079 458.724C210.42 458.853 208.801 459.361 207.226 459.9C206.643 460.099 206.099 460.461 205.679 460.912C204.972 461.671 204.258 462.493 203.901 463.467C202.893 466.218 202.231 469.091 201.628 471.958C201.261 473.704 200.977 477.515 202.732 478.585C203.308 478.936 204.144 479.131 204.144 479.131C204.047 478.763 204.114 478.6 204.485 478.375L204.952 478.889C205.633 478.529 205.482 477.932 205.525 478.063C205.661 478.472 205.589 478.881 205.589 478.881C206.156 478.699 206.546 478.561 206.916 477.532C207.169 477.995 206.828 478.544 206.828 478.544C207.469 478.897 208.477 477.716 208.412 477.921C208.203 478.585 208.819 479.401 208.222 480.786C208.222 480.786 214.813 481.42 214.765 480.929Z" fill="#ffffff" fill-rule="nonzero" opacity="1" stroke="none"/>
</g>
</g>
<path d="M220.15 507.282C215.525 492.926 218.459 481 218.459 481C217.233 480.933 213.698 480.114 211.396 478.195C209.164 480.416 206.806 480.697 205.072 481.007C205.072 481.007 207.557 492.902 201.968 506.976C201.632 510.469 200.763 511.333 200.07 512.611C198.724 515.093 222.704 516.858 220.841 512.518C220.26 511.163 219.736 508.031 220.15 507.282Z" fill="#ffffff" fill-rule="nonzero" opacity="1" stroke="none" vectornator:layerName="Curve 1"/>
<path d="M199.879 511.627C197.919 508.929 194.593 508.63 191.517 507.342C190.687 506.994 189.676 507.17 188.819 507.446C186.633 508.15 185.867 510.215 185.31 512.231C185.164 512.762 185.145 513.396 185.406 513.881C186.326 515.589 187.258 517.409 188.76 518.637C190.146 519.771 192.071 520.002 193.726 520.684C193.592 520.836 199.045 523.521 207.583 523.6C209.049 523.614 212.58 523.576 214 523.503C221.007 523.143 227.923 521.019 227.923 521.019C228.592 520.867 232.927 519.291 234.106 518.213C235.211 517.203 236.272 515.934 236.591 514.47C236.931 512.904 235.886 510.549 235.208 509.284C234.755 508.439 233.51 507.921 232.618 507.909C231.644 507.895 230.611 507.858 229.714 508.236C226.825 509.455 224.583 511.098 221.23 511.794C221.23 511.794 221.082 510.59 220.577 510.56C220.577 510.56 216.747 511.337 210.382 511.669C205.009 511.949 200.887 510.188 200.887 510.188C199.985 510.234 199.985 511.774 199.879 511.627Z" fill="#c0a3ff" fill-rule="nonzero" opacity="1" stroke="none" vectornator:layerName="Curve 2"/>
<path d="M202.483 481.535C195.186 482.453 197.618 492.475 198.706 498.986C198.937 500.37 198.296 503.526 203.586 508.5C205.482 509.881 206.217 481.066 202.483 481.535Z" fill="#ffffff" fill-rule="nonzero" opacity="1" stroke="none" vectornator:layerName="Curve 4"/>
<path d="M219.647 481.277C226.944 482.195 224.512 492.217 223.424 498.728C223.193 500.112 223.834 503.268 218.544 508.242C216.647 509.623 215.912 480.807 219.647 481.277Z" fill="#ffffff" fill-rule="nonzero" opacity="1" stroke="none" vectornator:layerName="Curve 3"/>
<path d="M220.995 507.657C221.118 507.386 220.292 503.74 220.362 499.513C220.431 495.286 221.34 493.484 220.88 491.004C218.127 486.489 219.519 481.072 219.519 481.072C217.79 481.009 217.235 480.702 217.235 480.702C217.235 480.702 217.542 482.545 211.614 482.879C206.866 483.147 205.762 480.768 205.762 480.768C205.762 480.768 204.007 481.311 202.743 481.35C202.743 481.35 204.351 488.208 201.6 491.117C200.882 493.291 201.952 497.658 201.649 500.254C201.354 502.787 200.624 507.123 200.922 507.488C202.222 509.082 204.54 507.544 209.657 507.43C213.889 507.336 220.181 509.457 220.995 507.657Z" fill="#593f92" fill-rule="nonzero" opacity="1" stroke="none"/>
</g>
</g>
</svg>
