<?xml version="1.0" encoding="UTF-8"?>
<!DOCTYPE svg PUBLIC "-//W3C//DTD SVG 1.1//EN" "http://www.w3.org/Graphics/SVG/1.1/DTD/svg11.dtd">
<svg xmlns="http://www.w3.org/2000/svg" version="1.1" width="1042px" height="1042px" style="shape-rendering:geometricPrecision; text-rendering:geometricPrecision; image-rendering:optimizeQuality; fill-rule:evenodd; clip-rule:evenodd" xmlns:xlink="http://www.w3.org/1999/xlink">
<g><path style="opacity:1" fill="#fefefe" d="M -0.5,-0.5 C 346.833,-0.5 694.167,-0.5 1041.5,-0.5C 1041.5,346.833 1041.5,694.167 1041.5,1041.5C 694.167,1041.5 346.833,1041.5 -0.5,1041.5C -0.5,694.167 -0.5,346.833 -0.5,-0.5 Z"/></g>
<g><path style="opacity:1" fill="#af9fd7" d="M 249.5,172.5 C 236.833,172.5 224.167,172.5 211.5,172.5C 211.5,235.167 211.5,297.833 211.5,360.5C 210.501,297.669 210.168,234.669 210.5,171.5C 223.677,171.171 236.677,171.505 249.5,172.5 Z"/></g>
<g><path style="opacity:1" fill="#9f89cf" d="M 249.5,172.5 C 249.333,201.502 249.5,230.502 250,259.5C 266.088,243.859 284.588,240.359 305.5,249C 319.19,253.894 327.69,263.394 331,277.5C 331.5,305.165 331.667,332.831 331.5,360.5C 318.5,360.5 305.5,360.5 292.5,360.5C 292.667,336.831 292.5,313.164 292,289.5C 284.845,275.005 274.012,271.505 259.5,279C 254.748,282.414 251.581,286.914 250,292.5C 249.5,315.164 249.333,337.831 249.5,360.5C 236.833,360.5 224.167,360.5 211.5,360.5C 211.5,297.833 211.5,235.167 211.5,172.5C 224.167,172.5 236.833,172.5 249.5,172.5 Z"/></g>
<g><path style="opacity:1" fill="#dad3eb" d="M 179.5,206.5 C 166.833,206.5 154.167,206.5 141.5,206.5C 141.5,220.5 141.5,234.5 141.5,248.5C 136.167,248.5 130.833,248.5 125.5,248.5C 130.305,247.513 135.305,247.179 140.5,247.5C 140.5,233.5 140.5,219.5 140.5,205.5C 153.677,205.171 166.677,205.505 179.5,206.5 Z"/></g>
<g><path style="opacity:1" fill="#9f89cf" d="M 179.5,206.5 C 180.496,219.99 180.829,233.656 180.5,247.5C 187.982,248.492 195.648,248.825 203.5,248.5C 203.5,258.167 203.5,267.833 203.5,277.5C 195.833,277.5 188.167,277.5 180.5,277.5C 180.333,292.504 180.5,307.504 181,322.5C 183.354,328.095 187.521,329.928 193.5,328C 195.081,327.293 196.581,326.46 198,325.5C 201.698,335.113 204.865,344.946 207.5,355C 207.167,355.833 206.833,356.667 206.5,357.5C 193.369,363.542 179.703,365.042 165.5,362C 151.177,355.99 143.344,345.157 142,329.5C 141.5,312.17 141.333,294.837 141.5,277.5C 136.167,277.5 130.833,277.5 125.5,277.5C 125.5,267.833 125.5,258.167 125.5,248.5C 130.833,248.5 136.167,248.5 141.5,248.5C 141.5,234.5 141.5,220.5 141.5,206.5C 154.167,206.5 166.833,206.5 179.5,206.5 Z"/></g>
<g><path style="opacity:1" fill="#9f89cf" d="M 387.5,244.5 C 411.081,242.078 430.914,249.412 447,266.5C 455.62,279.528 459.12,293.861 457.5,309.5C 430.5,309.5 403.5,309.5 376.5,309.5C 376.201,321.383 381.868,328.883 393.5,332C 407.196,334.546 418.696,330.712 428,320.5C 437.098,325.299 446.264,329.965 455.5,334.5C 444.796,352.01 429.13,361.51 408.5,363C 378.531,366.599 356.031,355.432 341,329.5C 328.554,293.157 339.387,266.324 373.5,249C 378.343,247.602 383.01,246.102 387.5,244.5 Z"/></g>
<g><path style="opacity:1" fill="#faf9fc" d="M 393.5,269.5 C 405.35,268.337 413.85,273.004 419,283.5C 419.494,285.134 419.66,286.801 419.5,288.5C 405.5,288.5 391.5,288.5 377.5,288.5C 378.495,278.506 383.828,272.172 393.5,269.5 Z"/></g>
<g><path style="opacity:1" fill="#d9d1ea" d="M 180.5,247.5 C 188.5,247.5 196.5,247.5 204.5,247.5C 204.827,257.681 204.494,267.681 203.5,277.5C 203.5,267.833 203.5,258.167 203.5,248.5C 195.648,248.825 187.982,248.492 180.5,247.5 Z"/></g>
<g><path style="opacity:1" fill="#453173" d="M 182.5,466.5 C 190.984,467.493 199.651,467.826 208.5,467.5C 208.5,477.167 208.5,486.833 208.5,496.5C 206.901,496.232 205.568,496.566 204.5,497.5C 197.167,497.5 189.833,497.5 182.5,497.5C 182.5,526.167 182.5,554.833 182.5,583.5C 169.167,583.5 155.833,583.5 142.5,583.5C 142.5,554.833 142.5,526.167 142.5,497.5C 136.833,497.5 131.167,497.5 125.5,497.5C 125.5,487.167 125.5,476.833 125.5,466.5C 131.167,466.5 136.833,466.5 142.5,466.5C 142.333,453.163 142.5,439.829 143,426.5C 150.571,391.626 171.737,378.459 206.5,387C 211.839,388.824 216.506,391.657 220.5,395.5C 216.162,404.846 211.329,413.846 206,422.5C 200.334,420.511 194.5,420.011 188.5,421C 184.953,423.594 183.119,427.094 183,431.5C 182.5,443.162 182.333,454.829 182.5,466.5 Z"/></g>
<g><path style="opacity:1" fill="#453173" d="M 720.5,388.5 C 733.5,388.5 746.5,388.5 759.5,388.5C 759.5,453.5 759.5,518.5 759.5,583.5C 746.5,583.5 733.5,583.5 720.5,583.5C 720.666,579.154 720.499,574.821 720,570.5C 705.949,584.228 689.116,589.395 669.5,586C 643.776,578.27 628.609,561.103 624,534.5C 621.14,502.71 633.973,479.877 662.5,466C 676.246,462.523 689.913,462.856 703.5,467C 709.186,469.206 714.186,472.372 718.5,476.5C 718.56,477.043 718.893,477.376 719.5,477.5C 720.5,447.841 720.833,418.174 720.5,388.5 Z"/></g>
<g><path style="opacity:1" fill="#5d4b86" d="M 720.5,388.5 C 720.5,388.167 720.5,387.833 720.5,387.5C 733.833,387.5 747.167,387.5 760.5,387.5C 760.832,453.002 760.499,518.335 759.5,583.5C 759.5,518.5 759.5,453.5 759.5,388.5C 746.5,388.5 733.5,388.5 720.5,388.5 Z"/></g>
<g><path style="opacity:1" fill="#453173" d="M 775.5,387.5 C 788.833,387.5 802.167,387.5 815.5,387.5C 815.5,413.833 815.5,440.167 815.5,466.5C 830.17,466.333 844.837,466.5 859.5,467C 869.953,486.742 880.786,506.242 892,525.5C 901.423,506.319 910.59,486.985 919.5,467.5C 934.833,466.167 950.167,466.167 965.5,467.5C 935.549,525.903 905.216,584.069 874.5,642C 859.156,642.833 843.822,642.666 828.5,641.5C 841.833,616.167 855.167,590.833 868.5,565.5C 850.747,534.328 833.247,502.995 816,471.5C 815.5,508.832 815.333,546.165 815.5,583.5C 802.167,583.5 788.833,583.5 775.5,583.5C 775.5,518.167 775.5,452.833 775.5,387.5 Z"/></g>
<g><path style="opacity:1" fill="#463274" d="M 325.5,394.5 C 346.238,393.406 356.071,403.073 355,423.5C 350.455,437.353 340.955,443.52 326.5,442C 310.022,435.203 304.855,423.37 311,406.5C 314.541,400.78 319.374,396.78 325.5,394.5 Z"/></g>
<g><path style="opacity:1" fill="#afa4ca" d="M 720.5,387.5 C 720.5,387.833 720.5,388.167 720.5,388.5C 720.833,418.174 720.5,447.841 719.5,477.5C 718.893,477.376 718.56,477.043 718.5,476.5C 719.167,446.833 719.833,417.167 720.5,387.5 Z"/></g>
<g><path style="opacity:1" fill="#453172" d="M 309.5,469.5 C 310.833,470.833 310.833,472.167 309.5,473.5C 304.428,483.882 299.262,494.216 294,504.5C 285.684,498.855 276.517,497.022 266.5,499C 257.495,502.007 251.995,508.173 250,517.5C 249.5,539.497 249.333,561.497 249.5,583.5C 236.167,583.5 222.833,583.5 209.5,583.5C 209.5,554.833 209.5,526.167 209.5,497.5C 209.5,487.5 209.5,477.5 209.5,467.5C 222.833,467.5 236.167,467.5 249.5,467.5C 249.334,472.844 249.501,478.177 250,483.5C 265.909,462.398 285.743,457.732 309.5,469.5 Z"/></g>
<g><path style="opacity:1" fill="#453173" d="M 486.5,530.5 C 458.167,530.5 429.833,530.5 401.5,530.5C 401.205,532.735 401.539,534.735 402.5,536.5C 404.573,545.741 410.24,551.574 419.5,554C 429.008,555.644 438.008,554.311 446.5,550C 449.678,547.486 452.844,544.986 456,542.5C 465.57,547.035 475.07,551.702 484.5,556.5C 469.816,578.027 449.316,588.027 423,586.5C 395.34,585.493 375.673,572.493 364,547.5C 353.699,511.597 365.199,485.097 398.5,468C 422.167,459.91 444.5,462.576 465.5,476C 481.824,490.458 488.824,508.624 486.5,530.5 Z"/></g>
<g><path style="opacity:1" fill="#453172" d="M 561.5,463.5 C 580.819,462.103 597.319,468.103 611,481.5C 614.422,486.345 616.755,491.678 618,497.5C 618.5,526.165 618.667,554.831 618.5,583.5C 605.167,583.5 591.833,583.5 578.5,583.5C 578.667,559.498 578.5,535.498 578,511.5C 573.128,497.814 563.628,492.648 549.5,496C 541.911,499.255 536.744,504.755 534,512.5C 533.5,536.164 533.333,559.831 533.5,583.5C 520.167,583.5 506.833,583.5 493.5,583.5C 493.5,544.5 493.5,505.5 493.5,466.5C 506.833,466.5 520.167,466.5 533.5,466.5C 533.334,470.514 533.501,474.514 534,478.5C 541.744,470.714 550.911,465.714 561.5,463.5 Z"/></g>
<g><path style="opacity:1" fill="#64538b" d="M 182.5,466.5 C 205.006,466.169 227.34,466.503 249.5,467.5C 236.167,467.5 222.833,467.5 209.5,467.5C 209.5,477.5 209.5,487.5 209.5,497.5C 207.833,497.5 206.167,497.5 204.5,497.5C 205.568,496.566 206.901,496.232 208.5,496.5C 208.5,486.833 208.5,477.167 208.5,467.5C 199.651,467.826 190.984,467.493 182.5,466.5 Z"/></g>
<g><path style="opacity:1" fill="#453172" d="M 311.5,466.5 C 324.833,466.5 338.167,466.5 351.5,466.5C 351.5,505.5 351.5,544.5 351.5,583.5C 338.167,583.5 324.833,583.5 311.5,583.5C 311.5,544.5 311.5,505.5 311.5,466.5 Z"/></g>
<g><path style="opacity:1" fill="#c2bcd1" d="M 311.5,466.5 C 311.5,505.5 311.5,544.5 311.5,583.5C 310.833,546.833 310.167,510.167 309.5,473.5C 310.833,472.167 310.833,470.833 309.5,469.5C 310.167,468.5 310.833,467.5 311.5,466.5 Z"/></g>
<g><path style="opacity:1" fill="#fcfcfd" d="M 446.5,506.5 C 432.343,507.496 418.01,507.829 403.5,507.5C 403.5,506.5 403.5,505.5 403.5,504.5C 406.564,494.535 413.397,489.535 424,489.5C 436.289,488.968 443.789,494.635 446.5,506.5 Z"/></g>
<g><path style="opacity:1" fill="#fcfcfd" d="M 687.5,497.5 C 703.18,495.751 714.013,502.084 720,516.5C 723.748,534.184 717.248,546.017 700.5,552C 683.417,554.713 672.25,547.88 667,531.5C 664.596,514.438 671.429,503.105 687.5,497.5 Z"/></g>
<g><path style="opacity:1" fill="#ded8ea" d="M 403.5,504.5 C 403.5,505.5 403.5,506.5 403.5,507.5C 418.01,507.829 432.343,507.496 446.5,506.5C 447.043,506.56 447.376,506.893 447.5,507.5C 432.515,508.499 417.515,508.833 402.5,508.5C 402.232,506.901 402.566,505.568 403.5,504.5 Z"/></g>
<g><path style="opacity:1" fill="#e4dfef" d="M 486.5,530.5 C 458.672,531.498 430.672,531.831 402.5,531.5C 402.5,533.167 402.5,534.833 402.5,536.5C 401.539,534.735 401.205,532.735 401.5,530.5C 429.833,530.5 458.167,530.5 486.5,530.5 Z"/></g>
<g><path style="opacity:1" fill="#9f89cf" d="M 616.5,618.5 C 616.167,646.841 616.5,675.175 617.5,703.5C 618.107,703.376 618.44,703.043 618.5,702.5C 637.023,687.12 657.023,685.286 678.5,697C 688.173,702.841 694.007,711.341 696,722.5C 696.5,748.831 696.667,775.165 696.5,801.5C 683.833,801.5 671.167,801.5 658.5,801.5C 658.667,778.831 658.5,756.164 658,733.5C 651.943,718.891 641.776,715.058 627.5,722C 622.454,725.712 618.954,730.546 617,736.5C 616.5,758.164 616.333,779.831 616.5,801.5C 604.167,801.5 591.833,801.5 579.5,801.5C 579.5,740.5 579.5,679.5 579.5,618.5C 591.833,618.5 604.167,618.5 616.5,618.5 Z"/></g>
<g><path style="opacity:1" fill="#dbd4eb" d="M 616.5,618.5 C 617.167,646.5 617.833,674.5 618.5,702.5C 618.44,703.043 618.107,703.376 617.5,703.5C 616.5,675.175 616.167,646.841 616.5,618.5 Z"/></g>
<g><path style="opacity:1" fill="#9f89cf" d="M 176.5,689.5 C 189.159,688.522 201.492,690.022 213.5,694C 217.165,695.497 220.498,697.497 223.5,700C 219.368,708.436 214.868,716.602 210,724.5C 190.497,715.443 176.164,720.443 167,739.5C 164.29,755.745 170.457,766.912 185.5,773C 193.887,774.331 201.887,773.164 209.5,769.5C 210.478,769.977 211.311,770.643 212,771.5C 215.38,779.091 218.88,786.591 222.5,794C 222.241,795.261 221.574,796.261 220.5,797C 185.744,812.603 156.911,805.436 134,775.5C 119.328,744.509 125.828,719.009 153.5,699C 160.824,694.661 168.49,691.494 176.5,689.5 Z"/></g>
<g><path style="opacity:1" fill="#9f89cf" d="M 277.5,689.5 C 302.438,687.061 323.272,695.061 340,713.5C 350.516,728.683 353.516,745.35 349,763.5C 344.061,777.564 335.228,788.398 322.5,796C 296.465,807.956 270.798,807.29 245.5,794C 224.518,778.744 216.684,758.244 222,732.5C 227.973,713.859 240.139,701.026 258.5,694C 264.774,691.68 271.107,690.18 277.5,689.5 Z"/></g>
<g><path style="opacity:1" fill="#9f89cf" d="M 527.5,689.5 C 540.159,688.522 552.492,690.022 564.5,694C 568.165,695.497 571.498,697.497 574.5,700C 570.368,708.436 565.868,716.602 561,724.5C 541.497,715.443 527.164,720.443 518,739.5C 515.29,755.745 521.457,766.912 536.5,773C 544.887,774.331 552.887,773.164 560.5,769.5C 561.478,769.977 562.311,770.643 563,771.5C 566.38,779.091 569.88,786.591 573.5,794C 573.241,795.261 572.574,796.261 571.5,797C 536.749,812.604 507.916,805.437 485,775.5C 470.326,744.522 476.826,719.022 504.5,699C 511.824,694.661 519.49,691.494 527.5,689.5 Z"/></g>
<g><path style="opacity:1" fill="#9f89cf" d="M 355.5,692.5 C 367.833,692.5 380.167,692.5 392.5,692.5C 392.333,711.836 392.5,731.17 393,750.5C 394.612,771.238 405.445,778.405 425.5,772C 432.236,767.359 435.403,760.859 435,752.5C 435.5,732.503 435.667,712.503 435.5,692.5C 448.167,692.5 460.833,692.5 473.5,692.5C 473.667,715.502 473.5,738.502 473,761.5C 470.872,785.294 458.038,799.127 434.5,803C 422.198,804.451 409.865,804.785 397.5,804C 373.615,801.775 359.782,788.942 356,765.5C 355.5,741.169 355.333,716.836 355.5,692.5 Z"/></g>
<g><path style="opacity:1" fill="#fdfdfe" d="M 278.5,721.5 C 295.072,719.189 305.906,725.856 311,741.5C 311.296,765.783 299.462,775.616 275.5,771C 265.043,766.265 260.043,758.098 260.5,746.5C 260.21,737.913 263.544,731.079 270.5,726C 273.391,724.726 276.058,723.226 278.5,721.5 Z"/></g>
</svg>
