<?xml version="1.0" encoding="UTF-8" standalone="no"?><!DOCTYPE svg PUBLIC "-//W3C//DTD SVG 1.1//EN" "http://www.w3.org/Graphics/SVG/1.1/DTD/svg11.dtd"><svg width="100%" height="100%" viewBox="0 0 378 343" version="1.1" xmlns="http://www.w3.org/2000/svg" xmlns:xlink="http://www.w3.org/1999/xlink" xml:space="preserve" xmlns:serif="http://www.serif.com/" style="fill-rule:evenodd;clip-rule:evenodd;stroke-linejoin:round;stroke-miterlimit:10;"><g id="Layer"><g><path d="M302.145,58.458c-95.796,-112.791 -190.996,-41.5 -253.529,38.917c-62.534,80.417 -76.775,245.375 26.384,244.292c77.359,-0.834 200.146,10.916 258.333,-37.5c80.43,-66.875 36.399,-166.125 -31.188,-245.709Z" style="fill:#c0a3ff;fill-rule:nonzero;"/><g><path d="M108.87,227.583c0,-43.708 34.833,-79.166 77.804,-79.166c42.971,0 77.804,35.458 77.804,79.166c0,43.75 0,75.125 -77.804,79.209c-77.717,4.041 -77.804,-35.459 -77.804,-79.209Z" style="fill:#fff;fill-rule:nonzero;stroke:#463174;stroke-width:4.92px;"/><g><g><path d="M147.207,230.542c0,-5.625 4.179,-10.167 9.333,-10.167c5.155,0 9.334,4.542 9.334,10.167c0,5.625 -4.179,10.166 -9.334,10.166c-5.154,0 -9.333,-4.541 -9.333,-10.166Z" style="fill:#463174;fill-rule:nonzero;"/><path d="M152.524,226.875c0,-2.042 1.796,-3.667 4.016,-3.667c2.217,0 4.017,1.625 4.017,3.667c0,2.042 -1.8,3.667 -4.017,3.667c-2.22,0 -4.016,-1.625 -4.016,-3.667Z" style="fill:#fff;fill-rule:nonzero;"/></g><g><path d="M211.053,230.542c0,-5.625 4.179,-10.167 9.333,-10.167c5.154,0 9.334,4.542 9.334,10.167c0,5.625 -4.18,10.166 -9.334,10.166c-5.154,0 -9.333,-4.541 -9.333,-10.166Z" style="fill:#463174;fill-rule:nonzero;"/><path d="M216.37,226.875c0,-2.042 1.795,-3.667 4.016,-3.667c2.217,0 4.017,1.625 4.017,3.667c0,2.042 -1.8,3.667 -4.017,3.667c-2.221,0 -4.016,-1.625 -4.016,-3.667Z" style="fill:#fff;fill-rule:nonzero;"/></g></g></g><g><g><path d="M189.836,141.167l-3.546,-2.334c-4.895,-3.166 -47.812,-31.75 -47.812,-58.666c0,-17.125 14.408,-31.042 32.117,-31.042c6.979,0 13.729,2.25 19.266,6.333c5.538,-4.083 12.288,-6.333 19.271,-6.333c17.708,0 32.113,13.917 32.113,31.042c0,27.375 -42.95,55.583 -47.846,58.708l-3.563,2.292Z" style="fill:#463174;fill-rule:nonzero;"/><path d="M176.853,76.333c-2.492,0.459 -4.704,2.084 -5.988,4.417c-1.645,2.917 -1.687,6.667 -0.187,10.583c1.442,-0.666 3.346,-1.25 5.6,-1.25c4.183,0 6.917,1.834 7.029,1.917c0.404,0.25 0.504,0.792 0.229,1.167c-0.275,0.416 -0.821,0.5 -1.225,0.25c-0.021,0 -2.421,-1.584 -6.033,-1.584c-2.35,0 -4.275,0.75 -5.579,1.417c-0.938,1.583 -1.259,3.5 -0.809,5.208c0.488,1.875 1.805,3.334 3.759,4.209c-0.746,1.708 -0.7,3.416 0.154,4.875c1.071,1.875 3.262,3.125 5.7,3.291c1.296,3.5 5.137,3.5 6.829,3.5c1.017,0 1.921,-0.291 2.65,-0.833l0,-41.792c-0.671,-0.416 -1.542,-0.666 -2.65,-0.666c-5.412,0 -8.508,3 -9.479,5.291Zm5.95,29.334c-0.488,0 -0.879,-0.375 -0.879,-0.834l0,-0.041c0,-1.959 -0.592,-5.417 -4.559,-6.042c-0.483,-0.083 -0.804,-0.542 -0.725,-1c0.08,-0.458 0.53,-0.792 1.013,-0.708c3.833,0.625 6.033,3.458 6.033,7.75c0,0.5 -0.396,0.875 -0.883,0.875Zm-3.521,-20.75c-0.487,0 -0.879,-0.417 -0.879,-0.875c0,-0.5 0.392,-0.875 0.879,-0.875c3.596,0 4.404,-1.917 4.404,-2.584c0,-0.5 0.396,-0.875 0.879,-0.875c0.488,0 0.884,0.375 0.884,0.875c0,1.209 -1.109,4.334 -6.167,4.334Zm20.279,12.125c-0.487,0 -0.883,-0.417 -0.883,-0.875c0,-0.5 0.396,-0.875 0.883,-0.875c5.888,0 8.504,-2.584 9.459,-3.875c1.525,-3.959 1.495,-7.709 -0.159,-10.667c-1.287,-2.333 -3.5,-3.917 -5.991,-4.417c-0.971,-2.291 -4.063,-5.291 -9.48,-5.291c-1.108,0 -1.979,0.25 -2.645,0.666l0,41.792c0.725,0.5 1.625,0.833 2.641,0.833l0.034,0c1.883,0 4.745,-0.875 6.233,-3.208c-2.725,-1.333 -5.383,-4 -5.383,-8.042c0,-0.458 0.395,-0.875 0.883,-0.875c0.483,0 0.879,0.417 0.879,0.875c0,4.417 3.763,6.292 5.188,6.834c2.262,-0.292 3.929,-1.125 4.77,-2.459c0.805,-1.291 0.817,-2.875 0.042,-4.75c2.063,-0.916 3.438,-2.458 3.913,-4.416c0.366,-1.542 0.116,-3.167 -0.625,-4.584c-1.655,1.542 -4.642,3.334 -9.759,3.334Zm-3.529,-14.75c0,-0.459 0.396,-0.834 0.883,-0.834c0.488,0 0.88,0.375 0.88,0.834c0,1.416 1.508,4.333 6.17,4.333c0.488,0 0.884,0.417 0.884,0.875c0,0.5 -0.396,0.875 -0.884,0.875c-5.991,0 -7.933,-4.083 -7.933,-6.083Z" style="fill:#fff;fill-rule:nonzero;"/></g></g></g></g></svg>