<?xml version="1.0" encoding="UTF-8" standalone="no"?><!DOCTYPE svg PUBLIC "-//W3C//DTD SVG 1.1//EN" "http://www.w3.org/Graphics/SVG/1.1/DTD/svg11.dtd"><svg width="100%" height="100%" viewBox="0 0 1575 1430" version="1.1" xmlns="http://www.w3.org/2000/svg" xmlns:xlink="http://www.w3.org/1999/xlink" xml:space="preserve" xmlns:serif="http://www.serif.com/" style="fill-rule:evenodd;clip-rule:evenodd;stroke-linejoin:round;stroke-miterlimit:10;"><g id="Layer"><g><path d="M1258.94,243.575c-399.151,-469.963 -795.817,-172.917 -1056.37,162.154c-260.559,335.071 -319.896,1022.4 109.933,1017.88c322.329,-3.475 833.942,45.483 1076.39,-156.25c335.125,-278.646 151.662,-692.188 -129.95,-1023.79Z" style="fill:#c0a3ff;fill-rule:nonzero;"/><g><path d="M453.625,948.263c0,-182.117 145.138,-329.859 324.183,-329.859c179.046,0 324.184,147.742 324.184,329.859c0,182.291 0,313.02 -324.184,330.037c-323.82,16.838 -324.183,-147.746 -324.183,-330.037Z" style="fill:#fff;fill-rule:nonzero;stroke:#463174;stroke-width:20.5px;"/><g><g><path d="M613.363,960.592c0,-23.438 17.412,-42.363 38.887,-42.363c21.479,0 38.892,18.925 38.892,42.363c0,23.437 -17.413,42.358 -38.892,42.358c-21.475,0 -38.887,-18.921 -38.887,-42.358Z" style="fill:#463174;fill-rule:nonzero;"/><path d="M635.517,945.313c0,-8.509 7.483,-15.28 16.733,-15.28c9.238,0 16.737,6.771 16.737,15.28c0,8.508 -7.5,15.279 -16.737,15.279c-9.25,0 -16.733,-6.771 -16.733,-15.279Z" style="fill:#fff;fill-rule:nonzero;"/></g><g><path d="M879.388,960.592c0,-23.438 17.412,-42.363 38.887,-42.363c21.475,0 38.892,18.925 38.892,42.363c0,23.437 -17.417,42.358 -38.892,42.358c-21.475,0 -38.888,-18.921 -38.888,-42.358Z" style="fill:#463174;fill-rule:nonzero;"/><path d="M901.542,945.313c0,-8.509 7.479,-15.28 16.733,-15.28c9.238,0 16.738,6.771 16.738,15.28c0,8.508 -7.5,15.279 -16.738,15.279c-9.254,0 -16.733,-6.771 -16.733,-15.279Z" style="fill:#fff;fill-rule:nonzero;"/></g></g></g><g><g><path d="M790.983,588.196l-14.775,-9.725c-20.395,-13.192 -199.216,-132.292 -199.216,-244.442c0,-71.354 60.033,-129.341 133.82,-129.341c29.08,0 57.205,9.375 80.275,26.387c23.075,-17.012 51.2,-26.387 80.296,-26.387c73.784,0 133.804,57.987 133.804,129.341c0,114.063 -178.958,231.596 -199.358,244.617l-14.846,9.55Z" style="fill:#463174;fill-rule:nonzero;"/><path d="M736.888,318.054c-10.384,1.913 -19.601,8.683 -24.95,18.404c-6.855,12.154 -7.03,27.779 -0.78,44.096c6.009,-2.775 13.942,-5.208 23.334,-5.208c17.429,0 28.821,7.642 29.287,7.987c1.683,1.042 2.1,3.3 0.954,4.863c-1.145,1.733 -3.42,2.083 -5.104,1.041c-0.087,0 -10.087,-6.599 -25.137,-6.599c-9.792,0 -17.813,3.125 -23.246,5.904c-3.908,6.596 -5.246,14.583 -3.371,21.7c2.033,7.812 7.521,13.891 15.663,17.537c-3.109,7.117 -2.917,14.234 0.641,20.313c4.463,7.812 13.592,13.021 23.75,13.712c5.4,14.584 21.404,14.584 28.454,14.584c4.238,0 8.005,-1.213 11.042,-3.471l0,-174.134c-2.796,-1.733 -6.425,-2.775 -11.042,-2.775c-22.55,0 -35.45,12.5 -39.495,22.046Zm24.791,122.225c-2.033,0 -3.662,-1.562 -3.662,-3.475l0,-0.171c0,-8.162 -2.467,-22.57 -18.996,-25.175c-2.013,-0.345 -3.35,-2.258 -3.021,-4.166c0.333,-1.909 2.208,-3.3 4.221,-2.95c15.971,2.604 25.137,14.408 25.137,32.291c0,2.084 -1.65,3.646 -3.679,3.646Zm-14.671,-86.458c-2.029,0 -3.662,-1.738 -3.662,-3.646c0,-2.083 1.633,-3.646 3.662,-3.646c14.984,0 18.35,-7.987 18.35,-10.766c0,-2.084 1.65,-3.646 3.663,-3.646c2.033,0 3.683,1.562 3.683,3.646c0,5.037 -4.621,18.058 -25.696,18.058Zm84.496,50.521c-2.029,0 -3.679,-1.738 -3.679,-3.646c0,-2.083 1.65,-3.646 3.679,-3.646c24.534,0 35.434,-10.767 39.413,-16.146c6.354,-16.496 6.229,-32.121 -0.663,-44.446c-5.362,-9.72 -14.583,-16.32 -24.962,-18.404c-4.046,-9.546 -16.929,-22.046 -39.5,-22.046c-4.617,0 -8.246,1.042 -11.021,2.775l0,174.134c3.021,2.083 6.771,3.471 11.004,3.471l0.142,0c7.846,0 19.77,-3.646 25.971,-13.367c-11.355,-5.554 -22.43,-16.667 -22.43,-33.508c0,-1.909 1.646,-3.646 3.679,-3.646c2.013,0 3.663,1.737 3.663,3.646c0,18.404 15.679,26.216 21.617,28.475c9.425,-1.217 16.37,-4.688 19.875,-10.246c3.354,-5.38 3.404,-11.979 0.175,-19.792c8.595,-3.817 14.325,-10.242 16.304,-18.4c1.525,-6.425 0.483,-13.196 -2.604,-19.1c-6.896,6.425 -19.342,13.892 -40.663,13.892Zm-14.704,-61.459c0,-1.912 1.65,-3.475 3.679,-3.475c2.034,0 3.667,1.563 3.667,3.475c0,5.9 6.283,18.054 25.708,18.054c2.034,0 3.684,1.738 3.684,3.646c0,2.084 -1.65,3.646 -3.684,3.646c-24.962,0 -33.054,-17.012 -33.054,-25.346Z" style="fill:#fff;fill-rule:nonzero;"/></g></g></g></g></svg>