<?xml version="1.0" encoding="UTF-8" standalone="no"?><!DOCTYPE svg PUBLIC "-//W3C//DTD SVG 1.1//EN" "http://www.w3.org/Graphics/SVG/1.1/DTD/svg11.dtd"><svg width="100%" height="100%" viewBox="0 0 373 341" version="1.1" xmlns="http://www.w3.org/2000/svg" xmlns:xlink="http://www.w3.org/1999/xlink" xml:space="preserve" xmlns:serif="http://www.serif.com/" style="fill-rule:evenodd;clip-rule:evenodd;stroke-linejoin:round;stroke-miterlimit:10;"><g id="Layer"><g><path d="M162.5,12.5c143.113,-39.542 207.134,58.042 210.317,145.833c3.184,87.834 -100.938,233.877 -218.65,154.167c-132.794,-89.922 -143.697,-100.879 -150,-141.667c-12.986,-84.025 55.833,-130 158.333,-158.333Z" style="fill:#c0a3ff;fill-rule:nonzero;"/><g><rect x="144.096" y="77.458" width="68.85" height="120.042" style="fill:#6d589c;fill-rule:nonzero;"/><rect x="63.071" y="195.292" width="225.638" height="2.208" style="fill:#6d589c;fill-rule:nonzero;"/><rect x="149.296" y="83.917" width="58.45" height="113.583" style="fill:#fff;fill-rule:nonzero;"/><rect x="149.296" y="83.917" width="58.45" height="113.583" style="fill:#fff;fill-rule:nonzero;"/><path d="M163.933,92.542l43.813,-8.625l0,113.583l-43.813,-6.333l0,-98.625Z" style="fill:#463174;fill-rule:nonzero;"/><path d="M166.933,141.083c0,-0.625 0.45,-1.083 1.009,-1.083c0.554,0 1.004,0.458 1.004,1.083c0,0.625 -0.45,1.125 -1.004,1.125c-0.559,0 -1.009,-0.5 -1.009,-1.125Z" style="fill:#fff;fill-rule:nonzero;"/></g><g><g><path d="M191.042,266.042c0,-5.209 21.862,-9.459 48.833,-9.459c26.971,0 48.833,4.25 48.833,9.459c0,5.208 -21.862,9.416 -48.833,9.416c-26.971,0 -48.833,-4.208 -48.833,-9.416Z" style="fill:#7451c2;fill-rule:nonzero;"/><g><path d="M217.025,234.5c2.671,-15.625 17.304,-26.208 32.683,-23.583c15.38,2.625 25.68,17.458 23.009,33.125c-2.671,15.625 -4.588,26.875 -32.684,23.583c-28.062,-3.292 -25.679,-17.458 -23.008,-33.125Z" style="fill:#fff;fill-rule:nonzero;stroke:#463174;stroke-width:3.12px;"/></g></g><g><path d="M225.95,226c0.329,-2.208 2.383,-3.75 4.587,-3.417c2.205,0.334 3.721,2.375 3.392,4.584c-0.329,2.208 -2.379,3.75 -4.583,3.416c-2.208,-0.333 -3.725,-2.375 -3.396,-4.583Z" style="fill:#463174;fill-rule:nonzero;"/><path d="M227.167,224.542c0.145,-0.959 1.046,-1.625 2.012,-1.5c0.967,0.166 1.629,1.041 1.488,2.041c-0.146,0.959 -1.046,1.625 -2.013,1.5c-0.962,-0.166 -1.629,-1.083 -1.487,-2.041Z" style="fill:#fff;fill-rule:nonzero;"/></g></g></g></g></svg>