<?xml version="1.0" encoding="UTF-8" standalone="no"?>
<!DOCTYPE svg PUBLIC "-//W3C//DTD SVG 1.1//EN" "http://www.w3.org/Graphics/SVG/1.1/DTD/svg11.dtd">
<!-- Created with Vectornator (http://vectornator.io/) -->
<svg height="100%" stroke-miterlimit="10" style="fill-rule:nonzero;clip-rule:evenodd;stroke-linecap:round;stroke-linejoin:round;" version="1.1" viewBox="32.8056 154.214 58.5296 19.1298" width="100%" xml:space="preserve" xmlns="http://www.w3.org/2000/svg" xmlns:vectornator="http://vectornator.io" xmlns:xlink="http://www.w3.org/1999/xlink">
<defs/>
<clipPath id="ArtboardFrame">
<rect height="19.1298" width="58.5296" x="32.8056" y="154.214"/>
</clipPath>
<g clip-path="url(#ArtboardFrame)" id="Layer" vectornator:layerName="Layer">
<g opacity="1" vectornator:layerName="Group 5">
<path d="M42.8393 158.344L32.8056 158.344L32.8056 156.723L47.7294 156.723L47.7294 158.344L44.7142 158.344L44.7142 171.368L45.7531 172.052L44.4609 173.344L34.6046 166.883L34.6046 165.185C36.0742 163.716 39.7988 161.233 42.8393 160.245L42.8393 158.344ZM42.8393 162.094C40.7616 162.854 37.6704 164.805 36.4542 166.022L42.9406 170.253L43.042 170.253C42.8899 168.555 42.8393 166.807 42.8393 165.16L42.8393 162.094Z" fill="#463174" fill-rule="nonzero" opacity="1" stroke="none"/>
<path d="M49.7817 154.949C49.7817 156.393 50.0604 157.407 50.1365 157.609L50.0098 157.609C49.8071 157.331 49.3003 156.723 48.0334 156.723L46.7159 156.723L46.7159 158.344L47.7294 158.344C49.0723 158.344 49.7564 159.003 49.7564 160.447L49.7564 172.989L51.606 172.989L51.606 158.344L54.6465 158.344L54.6465 156.723L51.606 156.723L51.606 154.214L49.7817 154.214L49.7817 154.949Z" fill="#463174" fill-rule="nonzero" opacity="1" stroke="none"/>
<path d="M55.0519 167.187L62.8052 173.243L64.0974 172.305L56.7749 166.022L55.0519 167.187ZM59.6633 158.091C58.3965 158.091 57.535 159.079 57.5097 160.245C57.5097 161.587 58.3965 162.55 59.7394 162.55C60.9809 162.55 61.8424 161.587 61.8424 160.397C61.8424 159.155 60.9556 158.091 59.6633 158.091ZM59.6887 164.045C57.5097 164.045 55.7614 162.601 55.7614 160.397C55.7614 158.268 57.5603 156.596 59.6887 156.596C61.8677 156.596 63.616 158.066 63.616 160.27C63.616 162.398 61.8424 164.045 59.6887 164.045Z" fill="#463174" fill-rule="nonzero" opacity="1" stroke="none"/>
<path d="M73.5229 170.177C72.9655 170.354 72.3574 170.456 71.724 170.456C68.7342 170.456 66.6565 168.53 66.6565 165.464C66.6565 162.652 68.6328 160.954 70.8372 160.954C72.8642 160.954 73.8523 162.246 74.0804 163.032L74.1817 163.032C74.3844 162.069 75.3472 160.878 77.0195 160.878C78.3877 160.878 79.1732 161.663 79.4266 161.968L79.5279 161.968L79.5279 158.344L64.7055 158.344L64.7055 156.723L84.4181 156.723L84.4181 158.344L81.3776 158.344L81.3776 172.989L79.5279 172.989L79.5279 164.121C79.3252 163.488 78.4891 162.601 77.2222 162.601C75.9807 162.601 74.9925 163.513 74.9925 165.084L74.9925 166.072L73.1936 166.072L73.1936 165.109C73.1936 163.488 72.2054 162.702 70.9132 162.702C69.697 162.702 68.5061 163.665 68.5061 165.464C68.5061 167.592 69.9504 168.783 71.7493 168.783C72.2561 168.783 72.7882 168.682 73.2442 168.479L73.5229 170.177Z" fill="#463174" fill-rule="nonzero" opacity="1" stroke="none"/>
<path d="M86.4704 154.949C86.4704 156.393 86.7491 157.407 86.8251 157.609L86.6984 157.609C86.4957 157.331 85.989 156.723 84.7221 156.723L83.4046 156.723L83.4046 158.344L84.4181 158.344C85.7609 158.344 86.4451 159.003 86.4451 160.447L86.4451 172.989L88.2947 172.989L88.2947 158.344L91.3352 158.344L91.3352 156.723L88.2947 156.723L88.2947 154.214L86.4704 154.214L86.4704 154.949Z" fill="#463174" fill-rule="nonzero" opacity="1" stroke="none"/>
</g>
</g>
</svg>
