<?xml version="1.0" encoding="UTF-8" standalone="no"?>
<!DOCTYPE svg PUBLIC "-//W3C//DTD SVG 1.1//EN" "http://www.w3.org/Graphics/SVG/1.1/DTD/svg11.dtd">
<svg width="100%" height="100%" viewBox="0 0 1042 834" version="1.1" xmlns="http://www.w3.org/2000/svg" xmlns:xlink="http://www.w3.org/1999/xlink" xml:space="preserve" xmlns:serif="http://www.serif.com/" style="fill-rule:evenodd;clip-rule:evenodd;stroke-linejoin:round;stroke-miterlimit:2;">
    <g transform="matrix(1.02338,0,0,1.02338,-13.291,-12.7843)">
        <g transform="matrix(160.906,0,0,160.906,182.332,476.685)">
            <path d="M0.487,-0.36C0.528,-0.351 0.56,-0.331 0.585,-0.3C0.61,-0.268 0.622,-0.232 0.622,-0.191C0.622,-0.132 0.602,-0.086 0.561,-0.052C0.52,-0.017 0.462,0 0.389,0L0.062,0L0.062,-0.702L0.378,-0.702C0.449,-0.702 0.505,-0.686 0.546,-0.653C0.586,-0.62 0.606,-0.576 0.606,-0.52C0.606,-0.479 0.595,-0.444 0.574,-0.417C0.552,-0.39 0.523,-0.371 0.487,-0.36ZM0.233,-0.418L0.345,-0.418C0.373,-0.418 0.395,-0.424 0.41,-0.437C0.425,-0.449 0.432,-0.467 0.432,-0.491C0.432,-0.515 0.425,-0.533 0.41,-0.546C0.395,-0.559 0.373,-0.565 0.345,-0.565L0.233,-0.565L0.233,-0.418ZM0.359,-0.138C0.388,-0.138 0.41,-0.145 0.426,-0.158C0.441,-0.17 0.449,-0.189 0.449,-0.214C0.449,-0.239 0.441,-0.258 0.425,-0.272C0.408,-0.286 0.386,-0.293 0.357,-0.293L0.233,-0.293L0.233,-0.138L0.359,-0.138Z" style="fill:rgb(70,49,116);fill-rule:nonzero;"/>
        </g>
        <g transform="matrix(160.906,0,0,160.906,288.369,476.685)">
            <path d="M0.233,-0.565L0.233,-0.423L0.462,-0.423L0.462,-0.291L0.233,-0.291L0.233,-0.137L0.492,-0.137L0.492,0L0.062,0L0.062,-0.702L0.492,-0.702L0.492,-0.565L0.233,-0.565Z" style="fill:rgb(70,49,116);fill-rule:nonzero;"/>
        </g>
        <g transform="matrix(160.906,0,0,160.906,375.419,476.685)">
            <path d="M0.69,0L0.519,0L0.233,-0.433L0.233,0L0.062,0L0.062,-0.702L0.233,-0.702L0.519,-0.267L0.519,-0.702L0.69,-0.702L0.69,0Z" style="fill:rgb(70,49,116);fill-rule:nonzero;"/>
        </g>
        <g transform="matrix(160.906,0,0,160.906,496.421,476.685)">
            <path d="M0.528,-0.48C0.515,-0.503 0.497,-0.521 0.474,-0.534C0.45,-0.546 0.422,-0.552 0.39,-0.552C0.335,-0.552 0.29,-0.534 0.257,-0.498C0.224,-0.461 0.207,-0.413 0.207,-0.352C0.207,-0.287 0.225,-0.237 0.26,-0.201C0.295,-0.164 0.343,-0.146 0.404,-0.146C0.446,-0.146 0.482,-0.157 0.511,-0.178C0.54,-0.199 0.561,-0.23 0.574,-0.27L0.357,-0.27L0.357,-0.396L0.729,-0.396L0.729,-0.237C0.716,-0.194 0.695,-0.155 0.665,-0.118C0.634,-0.081 0.596,-0.052 0.549,-0.029C0.502,-0.006 0.45,0.005 0.391,0.005C0.322,0.005 0.26,-0.01 0.206,-0.041C0.151,-0.071 0.109,-0.113 0.079,-0.167C0.048,-0.221 0.033,-0.283 0.033,-0.352C0.033,-0.421 0.048,-0.483 0.079,-0.538C0.109,-0.592 0.151,-0.634 0.205,-0.665C0.259,-0.695 0.321,-0.71 0.39,-0.71C0.474,-0.71 0.545,-0.69 0.603,-0.649C0.66,-0.608 0.698,-0.552 0.717,-0.48L0.528,-0.48Z" style="fill:rgb(70,49,116);fill-rule:nonzero;"/>
        </g>
        <g transform="matrix(160.906,0,0,160.906,619.031,476.685)">
            <path d="M0.499,-0.124L0.237,-0.124L0.195,0L0.016,0L0.27,-0.702L0.468,-0.702L0.722,0L0.541,0L0.499,-0.124ZM0.455,-0.256L0.368,-0.513L0.282,-0.256L0.455,-0.256Z" style="fill:rgb(70,49,116);fill-rule:nonzero;"/>
        </g>
        <g transform="matrix(160.906,0,0,160.906,737.619,476.685)">
            <path d="M0.233,-0.132L0.457,-0.132L0.457,0L0.062,0L0.062,-0.702L0.233,-0.702L0.233,-0.132Z" style="fill:rgb(70,49,116);fill-rule:nonzero;"/>
        </g>
        <g transform="matrix(160.906,0,0,160.906,814.371,476.685)">
            <rect x="0.062" y="-0.702" width="0.171" height="0.702" style="fill:rgb(70,49,116);fill-rule:nonzero;"/>
        </g>
    </g>
</svg>
