<?xml version="1.0" encoding="UTF-8" standalone="no"?><!DOCTYPE svg PUBLIC "-//W3C//DTD SVG 1.1//EN" "http://www.w3.org/Graphics/SVG/1.1/DTD/svg11.dtd"><svg width="100%" height="100%" viewBox="0 0 228 133" version="1.1" xmlns="http://www.w3.org/2000/svg" xmlns:xlink="http://www.w3.org/1999/xlink" xml:space="preserve" xmlns:serif="http://www.serif.com/" style="fill-rule:evenodd;clip-rule:evenodd;stroke-linejoin:round;stroke-miterlimit:10;"><g><g><path d="M0,84.983c0,-26.362 50.921,-47.729 113.733,-47.729c62.813,0 113.734,21.367 113.734,47.729c0,26.359 -50.921,47.729 -113.734,47.729c-62.812,0 -113.733,-21.37 -113.733,-47.729Z" style="fill:#463174;fill-rule:nonzero;"/><g><path d="M112.083,48.458c0,-25.325 20.675,-45.854 46.179,-45.854c25.505,0 46.18,20.529 46.18,45.854c0,25.321 0,43.492 -46.18,45.85c-46.125,2.354 -46.179,-20.529 -46.179,-45.85Z" style="fill:#fff;fill-rule:nonzero;stroke:#463174;stroke-width:4.92px;"/><g><g><path d="M153.858,64.008c0,-3.025 2.079,-1.933 5.759,-1.933c3.675,0 5.875,-1.158 5.875,1.933c0,3.088 -2.542,5.192 -5.754,5.192c-3.213,0 -5.88,-2.171 -5.88,-5.192Z" style="fill:#463174;fill-rule:nonzero;"/></g><path d="M154.858,66.963c-0.7,-1.021 2.146,-2.559 4.755,-2.659c2.604,-0.1 5.633,1.408 4.945,2.588c-0.795,1.358 -2.846,2.3 -4.816,2.3c-1.971,0 -3.95,-0.88 -4.884,-2.229Z" style="fill:#7451c2;fill-opacity:0.45;fill-rule:nonzero;"/></g><g><g><path d="M134.837,50.162c0,-3.254 2.48,-5.891 5.538,-5.891c3.063,0 5.542,2.637 5.542,5.891c0,3.255 -2.48,5.892 -5.542,5.892c-3.058,0 -5.538,-2.637 -5.538,-5.892Z" style="fill:#463174;fill-rule:nonzero;"/><path d="M135.329,50.704c0,-1.175 1.067,-2.125 2.383,-2.125c1.317,0 2.384,0.95 2.384,2.125c0,1.171 -1.067,2.125 -2.384,2.125c-1.316,0 -2.383,-0.954 -2.383,-2.125Z" style="fill:#fff;fill-rule:nonzero;"/></g><g><path d="M172.729,50.162c0,-3.254 2.483,-5.891 5.542,-5.891c3.058,0 5.537,2.637 5.537,5.891c0,3.255 -2.479,5.892 -5.537,5.892c-3.059,0 -5.542,-2.637 -5.542,-5.892Z" style="fill:#463174;fill-rule:nonzero;"/><path d="M173.317,50.517c0,-1.175 1.066,-2.125 2.383,-2.125c1.317,0 2.383,0.95 2.383,2.125c0,1.175 -1.066,2.125 -2.383,2.125c-1.317,0 -2.383,-0.95 -2.383,-2.125Z" style="fill:#fff;fill-rule:nonzero;"/></g></g></g><g><path d="M25.467,48.308c0,-25.325 20.675,-45.85 46.179,-45.85c25.504,0 46.179,20.525 46.179,45.85c0,25.325 0,43.496 -46.179,45.854c-46.125,2.355 -46.179,-20.529 -46.179,-45.854Z" style="fill:#fff;fill-rule:nonzero;stroke:#463174;stroke-width:4.92px;"/><g><g><path d="M67.354,64.283c0,-3.021 2.079,-1.929 5.759,-1.929c3.679,0 5.875,-1.158 5.875,1.929c0,3.092 -2.542,5.196 -5.755,5.196c-3.212,0 -5.879,-2.175 -5.879,-5.196Z" style="fill:#463174;fill-rule:nonzero;"/></g><path d="M68.358,67.242c-0.704,-1.021 2.142,-2.559 4.75,-2.659c2.609,-0.1 5.634,1.404 4.946,2.588c-0.792,1.358 -2.846,2.3 -4.816,2.3c-1.971,0 -3.95,-0.879 -4.88,-2.229Z" style="fill:#7451c2;fill-opacity:0.45;fill-rule:nonzero;"/></g><g><g><path d="M48.221,50.012c0,-3.254 2.479,-5.891 5.542,-5.891c3.058,0 5.537,2.637 5.537,5.891c0,3.255 -2.479,5.892 -5.537,5.892c-3.063,0 -5.542,-2.637 -5.542,-5.892Z" style="fill:#463174;fill-rule:nonzero;"/><path d="M53.763,50.012c0,-1.17 1.066,-2.125 2.383,-2.125c1.317,0 2.383,0.955 2.383,2.125c0,1.175 -1.066,2.125 -2.383,2.125c-1.317,0 -2.383,-0.95 -2.383,-2.125Z" style="fill:#fff;fill-rule:nonzero;"/></g><g><path d="M86.117,50.012c0,-3.254 2.479,-5.891 5.537,-5.891c3.063,0 5.542,2.637 5.542,5.891c0,3.255 -2.479,5.892 -5.542,5.892c-3.058,0 -5.537,-2.637 -5.537,-5.892Z" style="fill:#463174;fill-rule:nonzero;"/><path d="M91.654,50.012c0,-1.17 1.067,-2.125 2.384,-2.125c1.316,0 2.383,0.955 2.383,2.125c0,1.175 -1.067,2.125 -2.383,2.125c-1.317,0 -2.384,-0.95 -2.384,-2.125Z" style="fill:#fff;fill-rule:nonzero;"/></g></g></g></g></g></svg>