<?xml version="1.0" encoding="UTF-8" standalone="no"?>
<!DOCTYPE svg PUBLIC "-//W3C//DTD SVG 1.1//EN" "http://www.w3.org/Graphics/SVG/1.1/DTD/svg11.dtd">
<svg width="100%" height="100%" viewBox="0 0 46 45" version="1.1" xmlns="http://www.w3.org/2000/svg" xmlns:xlink="http://www.w3.org/1999/xlink" xml:space="preserve" xmlns:serif="http://www.serif.com/" style="fill-rule:evenodd;clip-rule:evenodd;stroke-linejoin:round;stroke-miterlimit:2;">
    <g transform="matrix(1,0,0,1,-23.907,-34.715)">
        <g transform="matrix(1,0,0,1,-152.7,-593.601)">
            <g>
                <path d="M176.607,650.757C176.607,638.363 186.726,628.316 199.208,628.316C211.69,628.316 221.809,638.363 221.809,650.757C221.809,663.15 221.809,673.043 199.208,673.197C176.605,673.351 176.607,663.15 176.607,650.757Z" style="fill:white;fill-rule:nonzero;"/>
                <g>
                    <g>
                        <path d="M197.108,658.576C197.108,657.097 198.505,656.75 199.929,656.75C201.352,656.75 202.801,657.064 202.801,658.576C202.801,660.087 201.501,661.117 199.929,661.117C198.357,661.117 197.108,660.054 197.108,658.576Z" style="fill:rgb(70,49,116);fill-rule:nonzero;"/>
                    </g>
                    <path d="M197.598,660.022C197.254,659.523 198.647,658.77 199.923,658.721C201.199,658.672 202.681,659.41 202.344,659.988C201.956,660.653 200.952,661.114 199.987,661.114C199.023,661.114 198.054,660.684 197.598,660.022Z" style="fill:rgb(116,81,194);fill-opacity:0.45;fill-rule:nonzero;"/>
                </g>
                <g>
                    <g>
                        <path d="M187.743,651.591C187.743,649.998 188.957,648.707 190.455,648.707C191.952,648.707 193.166,649.998 193.166,651.591C193.166,653.184 191.952,654.475 190.455,654.475C188.957,654.475 187.743,653.184 187.743,651.591Z" style="fill:rgb(70,49,116);fill-rule:nonzero;"/>
                        <path d="M189.652,650.53C189.652,649.955 190.175,649.49 190.819,649.49C191.463,649.49 191.986,649.955 191.986,650.53C191.986,651.104 191.463,651.57 190.819,651.57C190.175,651.57 189.652,651.104 189.652,650.53Z" style="fill:white;fill-rule:nonzero;"/>
                    </g>
                    <g>
                        <path d="M206.289,651.591C206.289,649.998 207.503,648.707 209,648.707C210.498,648.707 211.711,649.998 211.711,651.591C211.711,653.184 210.498,654.475 209,654.475C207.503,654.475 206.289,653.184 206.289,651.591Z" style="fill:rgb(70,49,116);fill-rule:nonzero;"/>
                        <path d="M207.593,650.447C207.593,649.872 208.115,649.407 208.76,649.407C209.404,649.407 209.926,649.872 209.926,650.447C209.926,651.021 209.404,651.487 208.76,651.487C208.115,651.487 207.593,651.021 207.593,650.447Z" style="fill:white;fill-rule:nonzero;"/>
                    </g>
                </g>
            </g>
        </g>
    </g>
</svg>
