<?xml version="1.0" encoding="UTF-8" standalone="no"?>
<!DOCTYPE svg PUBLIC "-//W3C//DTD SVG 1.1//EN" "http://www.w3.org/Graphics/SVG/1.1/DTD/svg11.dtd">
<!-- Created with Vectornator (http://vectornator.io/) -->
<svg height="100%" stroke-miterlimit="10" style="fill-rule:nonzero;clip-rule:evenodd;stroke-linecap:round;stroke-linejoin:round;" version="1.1" viewBox="825.189 928.465 134.811 70.4631" width="100%" xml:space="preserve" xmlns="http://www.w3.org/2000/svg" xmlns:vectornator="http://vectornator.io" xmlns:xlink="http://www.w3.org/1999/xlink">
<defs/>
<clipPath id="ArtboardFrame">
<rect height="70.4631" width="134.811" x="825.189" y="928.465"/>
</clipPath>
<g clip-path="url(#ArtboardFrame)" id="Layer" vectornator:layerName="Layer">
<g opacity="1" vectornator:layerName="Group 21">
<path d="M874.004 929.891C874.004 930.679 874.648 931.317 875.443 931.317C876.238 931.317 876.882 930.679 876.882 929.891C876.882 929.104 876.238 928.465 875.443 928.465C874.648 928.465 874.004 929.104 874.004 929.891Z" fill="#ffffff" fill-rule="nonzero" opacity="1" stroke="none" vectornator:layerName="ellipse 16"/>
<path d="M944.549 954.326C944.549 955.114 945.193 955.752 945.988 955.752C946.782 955.752 947.426 955.114 947.426 954.326C947.426 953.539 946.782 952.901 945.988 952.901C945.193 952.901 944.549 953.539 944.549 954.326Z" fill="#ffffff" fill-rule="nonzero" opacity="1" stroke="none" vectornator:layerName="ellipse 19"/>
<path d="M856.879 983.879C856.879 984.29 857.216 984.624 857.631 984.624C858.046 984.624 858.383 984.29 858.383 983.879C858.383 983.467 858.046 983.133 857.631 983.133C857.216 983.133 856.879 983.467 856.879 983.879Z" fill="#ffffff" fill-rule="nonzero" opacity="1" stroke="none" vectornator:layerName="ellipse 20"/>
<path d="M915.527 965.736C915.527 966.147 915.864 966.481 916.279 966.481C916.694 966.481 917.031 966.147 917.031 965.736C917.031 965.324 916.694 964.99 916.279 964.99C915.864 964.99 915.527 965.324 915.527 965.736Z" fill="#ffffff" fill-rule="nonzero" opacity="1" stroke="none" vectornator:layerName="ellipse 21"/>
<path d="M919.337 988.397C919.337 988.809 919.674 989.142 920.089 989.142C920.504 989.142 920.841 988.809 920.841 988.397C920.841 987.985 920.504 987.652 920.089 987.652C919.674 987.652 919.337 987.985 919.337 988.397Z" fill="#ffffff" fill-rule="nonzero" opacity="1" stroke="none" vectornator:layerName="ellipse 22"/>
<path d="M872.5 960.215C872.5 960.627 872.837 960.961 873.252 960.961C873.668 960.961 874.004 960.627 874.004 960.215C874.004 959.804 873.668 959.47 873.252 959.47C872.837 959.47 872.5 959.804 872.5 960.215Z" fill="#ffffff" fill-rule="nonzero" opacity="1" stroke="none" vectornator:layerName="ellipse 18"/>
<path d="M825.189 981.708C825.189 982.495 825.833 983.133 826.628 983.133C827.422 983.133 828.067 982.495 828.067 981.708C828.067 980.92 827.422 980.282 826.628 980.282C825.833 980.282 825.189 980.92 825.189 981.708Z" fill="#ffffff" fill-rule="nonzero" opacity="1" stroke="none" vectornator:layerName="ellipse 7"/>
<path d="M918.502 944.029C919.775 943.337 920.089 941.451 920.089 941.451C920.089 941.451 918.337 940.688 917.064 941.381C915.791 942.073 915.477 943.958 915.477 943.958C915.477 943.958 917.229 944.721 918.502 944.029Z" fill="#ffffff" fill-rule="nonzero" opacity="1" stroke="none" vectornator:layerName="path 26"/>
<path d="M846.504 949.353C847.777 948.662 848.09 946.776 848.09 946.776C848.09 946.776 846.339 946.013 845.066 946.706C843.792 947.397 843.479 949.282 843.479 949.282C843.479 949.282 845.23 950.045 846.504 949.353Z" fill="#ffffff" fill-rule="nonzero" opacity="1" stroke="none" vectornator:layerName="path 27"/>
<path d="M957.314 985.819C958.248 986.753 959.979 986.539 959.979 986.539C959.979 986.539 960.193 984.81 959.257 983.876C958.323 982.941 956.593 983.154 956.593 983.154C956.593 983.154 956.379 984.884 957.314 985.819Z" fill="#ffffff" fill-rule="nonzero" opacity="1" stroke="none" vectornator:layerName="path 24"/>
<path d="M866.556 994.895C866.556 992.667 875.898 990.862 887.422 990.862C898.946 990.862 908.288 992.667 908.288 994.895C908.288 997.123 898.946 998.928 887.422 998.928C875.898 998.928 866.556 997.123 866.556 994.895Z" fill="#593f92" fill-rule="nonzero" opacity="1" stroke="none" vectornator:layerName="Oval 2"/>
<g opacity="1" vectornator:layerName="g">
<g opacity="1" vectornator:layerName="g">
<path d="M839.127 983.996C839.127 983.996 839.127 983.996 839.127 983.996C838.739 983.883 838.351 983.769 837.963 983.655C837.85 983.622 837.737 983.589 837.624 983.556C838.125 983.703 838.626 983.85 839.127 983.996Z" fill="#e6e6e6" fill-rule="nonzero" opacity="1" stroke="none" vectornator:layerName="path"/>
<g opacity="1" vectornator:layerName="g">
<path d="M838.168 988.725C839.086 988.9 840.003 989.076 840.921 989.251C841.162 987.717 841.465 986.229 841.827 984.787C840.927 984.523 840.027 984.26 839.127 983.996C838.744 985.524 838.423 987.1 838.168 988.725Z" fill="#f2f2f2" fill-rule="nonzero" opacity="1" stroke="none" vectornator:layerName="path"/>
<path d="M836.905 983.346C836.905 983.346 836.905 983.346 836.905 983.346C836.869 983.336 836.833 983.325 836.797 983.315C836.396 984.916 836.06 986.568 835.793 988.271C836.585 988.422 837.376 988.574 838.168 988.725C838.423 987.1 838.744 985.524 839.127 983.996C838.626 983.85 838.125 983.703 837.624 983.556C837.384 983.486 837.145 983.416 836.905 983.346Z" fill="#e6e6e6" fill-rule="nonzero" opacity="1" stroke="none" vectornator:layerName="path"/>
<path d="M833.652 987.643C833.653 987.643 833.654 987.643 833.655 987.644C833.928 985.944 834.267 984.293 834.668 982.692C834.668 982.692 834.668 982.692 834.668 982.692C834.668 982.691 834.668 982.691 834.668 982.691C834.668 982.691 834.667 982.691 834.666 982.69C834.264 984.292 833.925 985.943 833.652 987.643Z" fill="#cccccc" fill-rule="nonzero" opacity="1" stroke="none" vectornator:layerName="path"/>
<path d="M833.655 987.644C833.655 987.644 833.655 987.644 833.655 987.644C833.928 985.944 834.267 984.293 834.668 982.692C834.668 982.692 834.668 982.692 834.668 982.692C834.267 984.293 833.928 985.944 833.655 987.644Z" fill="#cccccc" fill-rule="nonzero" opacity="1" stroke="none" vectornator:layerName="path"/>
<path d="M833.655 987.644C833.655 987.644 833.655 987.644 833.655 987.644C833.928 985.944 834.267 984.293 834.669 982.692C834.669 982.692 834.669 982.692 834.668 982.692C834.267 984.293 833.928 985.944 833.655 987.644Z" fill="#cccccc" fill-rule="nonzero" opacity="1" stroke="none" vectornator:layerName="path"/>
<path d="M833.655 987.644C833.655 987.644 833.655 987.644 833.655 987.644C833.929 985.944 834.268 984.294 834.67 982.692C834.67 982.692 834.669 982.692 834.669 982.692C834.267 984.293 833.928 985.944 833.655 987.644Z" fill="#cccccc" fill-rule="nonzero" opacity="1" stroke="none" vectornator:layerName="path"/>
<path d="M834.67 982.692C834.264 984.311 833.921 985.98 833.646 987.7C833.638 987.752 833.63 987.804 833.622 987.856C834.345 987.994 835.069 988.132 835.792 988.271C836.06 986.568 836.396 984.916 836.797 983.315C836.088 983.107 835.379 982.9 834.67 982.692Z" fill="#cccccc" fill-rule="nonzero" opacity="1" stroke="none" vectornator:layerName="path"/>
<path d="M835.792 988.271C835.792 988.271 835.793 988.271 835.793 988.271C836.06 986.568 836.396 984.916 836.797 983.315C836.797 983.315 836.797 983.315 836.797 983.315C836.396 984.916 836.06 986.568 835.792 988.271Z" fill="#cccccc" fill-rule="nonzero" opacity="1" stroke="none" vectornator:layerName="path"/>
</g>
<path d="M833.508 988.608C833.428 989.162 833.356 989.72 833.29 990.284C833.29 990.284 833.29 990.285 833.29 990.285C833.267 990.475 833.246 990.666 833.225 990.857C833.034 992.635 832.913 994.463 832.865 996.34C832.856 996.715 832.897 997.065 832.974 997.356C833.102 997.839 833.328 998.155 833.583 998.155C833.583 998.155 833.583 998.155 833.583 998.155C835.559 998.155 837.534 998.155 839.51 998.155C839.791 998.154 840.034 997.818 840.166 997.333C840.211 997.166 840.243 996.982 840.26 996.786C840.265 996.721 840.269 996.654 840.271 996.586C840.272 996.529 840.274 996.472 840.275 996.415C840.345 993.925 840.566 991.538 840.925 989.252C840.925 989.252 840.925 989.252 840.925 989.252C840.924 989.252 840.924 989.252 840.924 989.252C840.923 989.252 840.922 989.251 840.921 989.251C840.003 989.076 839.086 988.9 838.168 988.725C837.376 988.574 836.585 988.422 835.793 988.271C835.793 988.271 835.792 988.271 835.792 988.271C835.069 988.132 834.345 987.994 833.622 987.856C833.622 987.856 833.622 987.856 833.622 987.856C833.622 987.856 833.622 987.856 833.622 987.856C833.582 988.105 833.545 988.356 833.508 988.608Z" fill="#593f92" fill-rule="nonzero" opacity="1" stroke="none" vectornator:layerName="path"/>
<path d="M836.905 983.346C836.869 983.336 836.833 983.325 836.797 983.315C836.833 983.325 836.869 983.336 836.905 983.346C836.905 983.346 836.905 983.346 836.905 983.346Z" fill="#db923b" fill-rule="nonzero" opacity="1" stroke="none" vectornator:layerName="path"/>
</g>
<g opacity="1" vectornator:layerName="g">
<path d="M938.768 985.661C938.978 985.192 939.272 984.871 939.644 984.775C940.007 984.682 940.395 984.819 940.764 985.145C940.394 984.816 940.006 984.677 939.643 984.771C939.271 984.866 938.977 985.189 938.768 985.661Z" fill="#fbb03b" fill-rule="nonzero" opacity="1" stroke="none" vectornator:layerName="path"/>
<g opacity="1" vectornator:layerName="g">
<path d="M938.432 998.146C937.863 996.184 937.208 994.343 936.482 992.62C936.842 991.717 937.377 991.102 938.039 991.006C938.699 990.912 939.365 991.369 939.884 992.236C940.345 989.926 940.686 987.612 940.902 985.302C940.892 985.284 940.882 985.266 940.873 985.249C940.837 985.212 940.8 985.178 940.764 985.145C940.395 984.819 940.007 984.682 939.644 984.775C939.272 984.871 938.978 985.192 938.768 985.661C938.756 985.687 938.744 985.714 938.733 985.742C938.733 985.743 938.733 985.743 938.733 985.744C938.728 985.755 938.723 985.767 938.718 985.778C938.714 985.788 938.71 985.798 938.706 985.808C938.706 985.808 938.706 985.808 938.706 985.808C938.706 985.808 938.706 985.808 938.706 985.808C938.703 985.804 938.7 985.801 938.697 985.798C938.669 985.763 938.64 985.732 938.61 985.7C938.61 985.699 938.61 985.699 938.61 985.699C938.61 985.697 938.61 985.696 938.609 985.694C938.583 985.665 938.558 985.636 938.531 985.608C938.025 985.075 937.47 984.839 936.956 984.976C936.406 985.124 935.998 985.664 935.747 986.428C935.37 986.108 934.966 985.975 934.584 986.073C934.584 986.073 934.584 986.073 934.584 986.074C934.202 986.172 933.896 986.484 933.676 986.933C933.671 986.97 933.666 987.007 933.661 987.045C935.563 990.208 937.197 993.889 938.432 998.147C938.432 998.147 938.432 998.147 938.432 998.146Z" fill="#ffffff" fill-rule="nonzero" opacity="1" stroke="none" vectornator:layerName="path"/>
<path d="M936.482 992.62C937.209 994.346 937.864 996.189 938.434 998.155C939.004 996.189 939.488 994.214 939.884 992.236C939.365 991.369 938.7 990.912 938.039 991.006C937.376 991.102 936.842 991.717 936.482 992.62Z" fill="#593f92" fill-rule="nonzero" opacity="1" stroke="none" vectornator:layerName="path"/>
</g>
<path d="M936.22 985.495C936.027 985.741 935.869 986.058 935.747 986.428C935.37 986.108 934.966 985.975 934.584 986.073C934.584 986.073 934.584 986.074 934.584 986.074C934.202 986.172 933.896 986.484 933.676 986.933C933.667 986.951 933.659 986.968 933.65 986.986C933.417 985.838 933.148 984.718 932.845 983.624C932.843 983.617 932.84 983.61 932.839 983.603C932.639 982.883 932.423 982.174 932.194 981.477C930.324 975.795 927.497 970.906 923.982 966.809C923.84 966.645 923.695 966.482 923.549 966.317C908.381 949.182 880.966 946.345 861.741 957.806C859.685 959.032 857.722 960.422 855.878 961.975C850.177 966.777 845.612 973.144 842.921 981.074C842.921 981.074 842.921 981.074 842.922 981.074C842.513 982.277 842.148 983.517 841.829 984.792L841.828 984.792C841.829 984.791 841.829 984.789 841.83 984.788C841.829 984.787 841.828 984.787 841.827 984.787C840.927 984.523 840.028 984.26 839.127 983.996L839.127 983.996C839.127 983.996 839.127 983.996 839.127 983.996L839.127 983.996C839.443 982.736 839.801 981.509 840.2 980.315C840.199 980.315 840.198 980.315 840.198 980.314C852.674 942.893 904.401 938.094 926.945 965.917C928.234 967.509 929.429 969.208 930.514 971.013C932.25 973.899 933.709 977.058 934.839 980.49C935.192 981.563 935.513 982.662 935.8 983.787C935.944 984.354 936.081 984.927 936.208 985.508C936.211 985.503 936.216 985.498 936.22 985.493C936.22 985.494 936.22 985.495 936.22 985.495Z" fill="#593f92" fill-rule="nonzero" opacity="1" stroke="none" vectornator:layerName="path"/>
<path d="M938.61 985.699C938.611 985.699 938.61 985.699 938.61 985.7C938.639 985.732 938.669 985.763 938.697 985.798C938.668 985.762 938.639 985.728 938.609 985.694C938.61 985.696 938.61 985.697 938.61 985.699Z" fill="#db923b" fill-rule="nonzero" opacity="1" stroke="none" vectornator:layerName="path"/>
<path d="M940.896 985.27C940.896 985.271 940.896 985.271 940.896 985.271C940.888 985.263 940.881 985.256 940.873 985.249C940.836 985.212 940.8 985.178 940.764 985.145C940.394 984.816 940.006 984.678 939.643 984.771C939.271 984.867 938.977 985.189 938.768 985.66C938.756 985.687 938.744 985.714 938.733 985.742C938.55 984.844 938.348 983.962 938.127 983.095C937.826 981.915 937.49 980.763 937.12 979.639C936.773 978.584 936.396 977.554 935.99 976.548C935.011 974.118 933.867 971.832 932.577 969.689C911.58 934.812 851.996 937.98 838.009 979.192C838.009 979.192 838.009 979.192 838.01 979.192C837.784 979.859 837.569 980.536 837.367 981.223C837.165 981.91 836.975 982.607 836.798 983.314C836.797 983.314 836.797 983.315 836.797 983.315L836.797 983.315C836.088 983.107 835.379 982.9 834.67 982.692C834.67 982.692 834.669 982.692 834.669 982.692C834.669 982.692 834.669 982.692 834.668 982.692C834.668 982.692 834.668 982.692 834.668 982.691L834.668 982.691C835.013 981.314 835.405 979.974 835.839 978.67C835.839 978.67 835.839 978.67 835.838 978.67C851.489 931.721 923.708 931.785 939.205 978.862C939.879 980.909 940.446 983.045 940.896 985.27Z" fill="#c0a3ff" fill-rule="nonzero" opacity="1" stroke="none" vectornator:layerName="path"/>
<path d="M938.718 985.778C938.715 985.786 938.711 985.795 938.708 985.803C938.707 985.805 938.707 985.806 938.706 985.807C938.706 985.807 938.706 985.807 938.706 985.808C938.706 985.808 938.706 985.808 938.706 985.808C938.71 985.798 938.714 985.788 938.718 985.778Z" fill="#db923b" fill-rule="nonzero" opacity="1" stroke="none" vectornator:layerName="path"/>
<path d="M938.733 985.742C938.733 985.742 938.733 985.742 938.733 985.742L938.733 985.744C938.728 985.755 938.723 985.767 938.718 985.778C938.715 985.787 938.711 985.795 938.708 985.803C938.707 985.805 938.706 985.806 938.706 985.807C938.706 985.807 938.706 985.807 938.706 985.808C938.706 985.808 938.706 985.808 938.706 985.808C938.703 985.804 938.7 985.801 938.698 985.798C938.668 985.762 938.639 985.728 938.609 985.694C938.584 985.665 938.557 985.636 938.531 985.608C938.024 985.07 937.468 984.832 936.954 984.969C936.665 985.046 936.416 985.236 936.208 985.508C936.081 984.927 935.944 984.354 935.8 983.787C935.513 982.662 935.192 981.563 934.839 980.49C933.709 977.058 932.25 973.899 930.514 971.013C929.429 969.208 928.234 967.509 926.945 965.917C904.452 938.156 852.906 942.871 840.282 980.063C840.283 980.063 840.284 980.063 840.284 980.064C839.852 981.336 839.465 982.647 839.127 983.996C838.739 983.882 838.351 983.769 837.963 983.655C837.849 983.622 837.736 983.589 837.624 983.556C837.384 983.486 837.145 983.416 836.905 983.346C836.869 983.336 836.833 983.325 836.797 983.315C836.797 983.315 836.797 983.314 836.798 983.314C837.129 981.993 837.504 980.707 837.921 979.455C837.921 979.455 837.92 979.455 837.92 979.455C851.742 937.993 911.536 934.738 932.577 969.689C933.867 971.832 935.011 974.118 935.99 976.548C936.396 977.554 936.773 978.584 937.12 979.639C937.49 980.763 937.826 981.915 938.127 983.095C938.348 983.962 938.551 984.844 938.733 985.742Z" fill="#d1bef9" fill-rule="nonzero" opacity="1" stroke="none" vectornator:layerName="path"/>
</g>
</g>
<g opacity="1" vectornator:layerName="Group 14">
<path d="M871.061 980.925C871.061 972.125 878.246 964.99 887.11 964.99C895.973 964.99 903.158 972.125 903.158 980.925C903.158 989.725 903.249 996.859 887.11 996.859C871.059 996.86 871.061 989.725 871.061 980.925Z" fill="#ffffff" fill-rule="nonzero" opacity="1" stroke="none" vectornator:layerName="Oval 2"/>
<g opacity="1" vectornator:layerName="Group 6">
<g opacity="1" vectornator:layerName="Group 5">
<path d="M885.618 986.477C885.618 985.427 886.611 985.181 887.621 985.181C888.632 985.181 889.661 985.403 889.661 986.477C889.661 987.55 888.738 988.281 887.621 988.281C886.505 988.281 885.618 987.527 885.618 986.477Z" fill="#463174" fill-rule="nonzero" opacity="1" stroke="none" vectornator:layerName="Oval 4"/>
</g>
<path d="M885.966 987.504C885.722 987.15 886.711 986.615 887.617 986.58C888.523 986.546 889.575 987.069 889.336 987.48C889.061 987.952 888.348 988.279 887.663 988.279C886.978 988.279 886.29 987.974 885.966 987.504Z" fill="#7451c2" fill-rule="nonzero" opacity="0.453846" stroke="none" vectornator:layerName="Oval 5"/>
</g>
<g opacity="1" vectornator:layerName="Group 4">
<g opacity="1" vectornator:layerName="Group 2">
<path d="M878.969 981.517C878.969 980.386 879.831 979.469 880.894 979.469C881.957 979.469 882.819 980.386 882.819 981.517C882.819 982.648 881.957 983.565 880.894 983.565C879.831 983.565 878.969 982.648 878.969 981.517Z" fill="#463174" fill-rule="nonzero" opacity="1" stroke="none" vectornator:layerName="Oval 4"/>
<path d="M880.152 980.641C880.152 980.233 880.523 979.902 880.98 979.902C881.438 979.902 881.809 980.233 881.809 980.641C881.809 981.048 881.438 981.379 880.98 981.379C880.523 981.379 880.152 981.048 880.152 980.641Z" fill="#ffffff" fill-rule="nonzero" opacity="1" stroke="none" vectornator:layerName="Oval 7"/>
</g>
<g opacity="1" vectornator:layerName="Group 1">
<path d="M892.138 981.517C892.138 980.386 893 979.469 894.063 979.469C895.126 979.469 895.988 980.386 895.988 981.517C895.988 982.648 895.126 983.565 894.063 983.565C893 983.565 892.138 982.648 892.138 981.517Z" fill="#463174" fill-rule="nonzero" opacity="1" stroke="none" vectornator:layerName="Oval 4"/>
<path d="M893.433 980.434C893.433 980.026 893.804 979.696 894.261 979.696C894.719 979.696 895.089 980.026 895.089 980.434C895.089 980.842 894.719 981.172 894.261 981.172C893.804 981.172 893.433 980.842 893.433 980.434Z" fill="#ffffff" fill-rule="nonzero" opacity="1" stroke="none" vectornator:layerName="Oval 7"/>
</g>
</g>
</g>
</g>
</g>
</svg>
