<?xml version="1.0" encoding="UTF-8" standalone="no"?><!DOCTYPE svg PUBLIC "-//W3C//DTD SVG 1.1//EN" "http://www.w3.org/Graphics/SVG/1.1/DTD/svg11.dtd"><svg width="100%" height="100%" viewBox="0 0 628 821" version="1.1" xmlns="http://www.w3.org/2000/svg" xmlns:xlink="http://www.w3.org/1999/xlink" xml:space="preserve" xmlns:serif="http://www.serif.com/" style="fill-rule:evenodd;clip-rule:evenodd;stroke-linejoin:round;stroke-miterlimit:2;"><g id="Layer"><g><path d="M75.363,91.158l-4.921,0c-1.192,0 -2.15,-0.97 -2.15,-2.15l0,-4.92c0,-1.192 0.966,-2.15 2.15,-2.15l4.921,0c1.183,0.004 2.145,0.962 2.15,2.15l0,4.92c0,0.571 -0.225,1.117 -0.63,1.521c-0.404,0.404 -0.95,0.629 -1.52,0.629Zm-17.067,0l-4.925,0c-1.184,-0.008 -2.142,-0.966 -2.146,-2.15l0,-4.92c0,-1.192 0.967,-2.15 2.146,-2.15l4.925,0c1.183,0.004 2.142,0.962 2.15,2.15l0,4.92c-0.008,1.184 -0.967,2.146 -2.15,2.15Zm-17.079,0l-4.925,0c-1.184,-0.008 -2.142,-0.966 -2.146,-2.15l0,-4.92c0,-1.192 0.967,-2.15 2.146,-2.15l4.925,0c1.187,0.004 2.146,0.962 2.15,2.15l0,4.92c0,0.571 -0.225,1.117 -0.629,1.521c-0.405,0.404 -0.95,0.629 -1.521,0.629Zm-17.067,0l-4.925,0c-1.183,-0.008 -2.142,-0.966 -2.146,-2.15l0,-4.92c0,-1.192 0.967,-2.15 2.146,-2.15l4.925,0c1.188,0 2.15,0.958 2.158,2.15l0,4.92c-0.012,1.184 -0.975,2.142 -2.158,2.15Zm-17.071,0l-4.921,0c-1.191,0 -2.158,-0.97 -2.158,-2.15l0,-4.92c0,-1.192 0.967,-2.15 2.158,-2.15l4.921,0c1.188,0.004 2.146,0.962 2.15,2.15l0,4.92c-0.004,1.184 -0.962,2.142 -2.15,2.15Zm50.588,-18.612l-4.921,0c-1.184,-0.004 -2.142,-0.963 -2.15,-2.15l0,-4.933c0,-1.18 0.971,-2.146 2.15,-2.146l4.921,0c1.187,0 2.15,0.962 2.15,2.146l0,4.925c0.004,0.57 -0.221,1.12 -0.625,1.529c-0.404,0.404 -0.95,0.629 -1.525,0.629Zm-17.067,0l-4.921,0c-1.187,-0.004 -2.146,-0.963 -2.15,-2.15l0,-4.933c0,-1.18 0.967,-2.146 2.15,-2.146l4.921,0c1.183,0.004 2.146,0.962 2.15,2.146l0,4.925c0.004,0.57 -0.221,1.12 -0.625,1.529c-0.404,0.404 -0.954,0.629 -1.525,0.629Zm-17.067,0l-4.925,0c-1.187,0 -2.158,-0.967 -2.158,-2.15l0,-4.933c0.008,-1.188 0.971,-2.146 2.158,-2.146l4.925,0c1.184,0.004 2.142,0.962 2.15,2.146l0,4.925c0,1.191 -0.97,2.158 -2.15,2.158Zm17.684,38.604l-4.925,0c-1.179,0 -2.146,-0.967 -2.146,-2.146l0,-4.925c0,-1.191 0.967,-2.146 2.146,-2.146l4.925,0c1.187,0.005 2.146,0.963 2.15,2.146l0,4.925c0,0.567 -0.225,1.117 -0.629,1.521c-0.405,0.4 -0.95,0.625 -1.521,0.625Zm-17.067,0l-4.925,0c-1.179,0 -2.146,-0.967 -2.146,-2.146l0,-4.925c0,-1.191 0.967,-2.146 2.146,-2.146l4.925,0c1.188,0 2.15,0.959 2.158,2.146l0,4.925c-0.016,1.184 -0.975,2.138 -2.158,2.146Z" style="fill:#fff;"/><path d="M493.921,319.046l4.921,0c1.191,0 2.15,0.971 2.15,2.15l0,4.921c0,1.191 -0.971,2.15 -2.15,2.15l-4.921,0c-1.188,-0.004 -2.146,-0.963 -2.15,-2.15l0,-4.921c0,-0.571 0.225,-1.117 0.629,-1.521c0.4,-0.404 0.95,-0.629 1.521,-0.629Zm17.067,0l4.92,0c1.188,0.004 2.146,0.967 2.15,2.15l0,4.921c0,1.191 -0.966,2.15 -2.15,2.15l-4.92,0c-1.184,-0.004 -2.146,-0.963 -2.151,-2.15l0,-4.921c0.005,-1.188 0.963,-2.146 2.151,-2.15Zm17.075,0l4.925,0c1.183,0.004 2.145,0.967 2.15,2.15l0,4.921c0,1.191 -0.971,2.15 -2.15,2.15l-4.925,0c-1.184,-0.004 -2.142,-0.963 -2.146,-2.15l0,-4.921c-0.005,-0.571 0.225,-1.117 0.625,-1.521c0.404,-0.404 0.95,-0.629 1.521,-0.629Zm17.07,0l4.921,0c1.188,0.004 2.146,0.967 2.15,2.15l0,4.921c0,1.191 -0.966,2.15 -2.15,2.15l-4.921,0c-1.187,0 -2.154,-0.959 -2.158,-2.15l0,-4.921c0.013,-1.188 0.975,-2.142 2.158,-2.15Zm17.067,0l4.925,0c1.192,0 2.158,0.971 2.158,2.15l0,4.921c0,1.191 -0.966,2.15 -2.158,2.15l-4.925,0c-1.183,-0.004 -2.142,-0.963 -2.146,-2.15l0,-4.921c0.004,-1.183 0.963,-2.146 2.146,-2.15Zm-50.587,18.612l4.924,0c1.184,0.005 2.142,0.963 2.146,2.15l0,4.934c0,1.179 -0.966,2.146 -2.145,2.146l-4.925,0c-1.188,0 -2.146,-0.963 -2.15,-2.146l0,-4.925c0,-0.575 0.225,-1.121 0.629,-1.529c0.4,-0.405 0.95,-0.634 1.521,-0.63Zm17.07,0l4.921,0c1.183,0.005 2.142,0.963 2.146,2.15l0,4.934c0,1.179 -0.967,2.146 -2.146,2.146l-4.921,0c-1.187,-0.005 -2.146,-0.963 -2.15,-2.146l0,-4.925c-0.004,-0.575 0.221,-1.121 0.625,-1.529c0.404,-0.405 0.95,-0.634 1.525,-0.63Zm17.067,0l4.921,0c1.191,0 2.158,0.967 2.158,2.15l0,4.934c-0.004,1.187 -0.971,2.146 -2.158,2.146l-4.921,0c-1.183,-0.005 -2.146,-0.963 -2.15,-2.146l0,-4.925c0,-1.192 0.971,-2.159 2.15,-2.159Zm-17.688,-38.604l4.925,0c1.18,0 2.151,0.967 2.151,2.146l0,4.925c0,1.188 -0.971,2.146 -2.15,2.146l-4.925,0c-1.184,-0.004 -2.142,-0.963 -2.146,-2.146l0,-4.925c-0.005,-0.571 0.225,-1.117 0.625,-1.521c0.404,-0.4 0.95,-0.629 1.52,-0.625Zm17.071,0l4.921,0c1.183,0 2.15,0.967 2.15,2.146l0,4.925c0,1.188 -0.967,2.146 -2.15,2.146l-4.921,0c-1.187,0 -2.154,-0.958 -2.158,-2.146l0,-4.925c0.013,-1.183 0.975,-2.137 2.158,-2.146Z" style="fill:#fff;"/><path d="M153.075,11.154c0,6.159 5.042,11.15 11.254,11.15c6.217,0 11.254,-4.991 11.254,-11.15c0,-6.158 -5.037,-11.154 -11.254,-11.154c-6.212,0 -11.254,4.996 -11.254,11.154Z" style="fill:#fff;fill-rule:nonzero;"/><path d="M0,458.958c0,6.159 5.038,11.15 11.25,11.15c6.217,0 11.254,-4.991 11.254,-11.15c0,-6.162 -5.037,-11.154 -11.254,-11.154c-6.212,0 -11.25,4.992 -11.25,11.154Z" style="fill:#fff;fill-rule:nonzero;"/><path d="M519.275,160.342c0,6.158 5.038,11.154 11.25,11.154c6.217,0 11.254,-4.996 11.254,-11.154c0,-6.159 -5.037,-11.15 -11.254,-11.15c-6.212,0 -11.25,4.991 -11.25,11.15Z" style="fill:#fff;fill-rule:nonzero;"/><path d="M26.563,282.429c19.391,8.221 43.67,-5.283 43.67,-5.283c0,0 -7.175,-26.821 -26.575,-35.025c-19.391,-8.221 -43.658,5.271 -43.658,5.271c0,0 7.175,26.821 26.563,35.037Z" style="fill:#fff;fill-rule:nonzero;"/><path d="M342.763,41.079c-10.967,8.084 -11.459,26.046 -11.459,26.046c0,0 17.292,4.846 28.254,-3.242c10.967,-8.083 11.463,-26.033 11.463,-26.033c0,0 -17.292,-4.85 -28.259,3.229Z" style="fill:url(#_Linear1);fill-rule:nonzero;"/><path d="M183.842,501.621c-10.967,8.079 -11.459,26.041 -11.459,26.041c0,0 17.292,4.851 28.255,-3.241c10.966,-8.079 11.462,-26.033 11.462,-26.033c0,0 -17.292,-4.85 -28.258,3.233Z" style="fill:url(#_Linear2);fill-rule:nonzero;"/><g><g><path d="M333.846,677.779l-2.863,8.334l-45.312,131.641l8.983,0l55.338,-124.087l7.162,-15.888l-23.308,0Z" style="fill:#d1bef9;fill-rule:nonzero;"/><path d="M479.95,682.317l18.358,41.404l43.1,96.617l8.984,0l-32.942,-95.967l-14.454,-42.054l-23.046,0Z" style="fill:#d1bef9;fill-rule:nonzero;"/><path d="M420.033,798.279l9,0l8.805,-120.312l-23.838,0l6.033,120.312Z" style="fill:#b9a6e1;fill-rule:nonzero;"/><path d="M291.267,682.85l0.808,0c-0.279,0 -0.546,-0.029 -0.821,-0.037c0.004,0.012 0.013,0.037 0.013,0.037Z" style="fill:#f6922c;fill-rule:nonzero;"/><path d="M294.979,637.363c-0.083,0.241 -0.129,0.379 -0.129,0.379l-0.846,1.404c1.004,-0.338 2.088,-0.688 3.263,-1.046c-0.763,0 -1.525,0.013 -2.288,0.013l0,-0.75Z" style="fill:#f6922c;fill-rule:nonzero;"/><path d="M548.375,429.863c-0.329,0.004 -0.65,0.016 -0.975,0.02c-7.233,0.225 -14.317,0.7 -21.321,1.5c-7.121,0.85 -14.054,2.071 -20.725,3.613c-6.612,1.45 -13,3.262 -19.2,5.237c-12.466,3.646 -24.346,8.271 -35.871,13.763c-11.5,5.479 -22.737,11.921 -33.433,19.071c-21.571,14.275 -40.204,31.504 -55.812,49.504c-15.605,18.004 -28.184,36.771 -37.867,53.946c-11.383,20.183 -19.167,37.783 -23.65,48.866c5.683,-7.25 12.171,-12.854 22.137,-14.85c16.463,-3.287 33.492,-0.641 50.1,-1.862c13.396,-0.984 25.496,-4.075 36.017,-9.808c10.513,-5.73 19.45,-14.105 26.517,-25.663c8.058,-13.729 16.941,-26.8 26.846,-38.908c9.608,-12.146 20.12,-23.038 31.804,-32.25c12.308,-9.709 24.162,-17.313 36.921,-22.15c12.266,-4.792 25.5,-7.142 40.883,-6.234c8.916,-5.1 17.071,-9.712 23.979,-13.629c3.383,-1.962 6.438,-3.592 9.125,-4.933c0.896,-0.45 1.75,-0.863 2.562,-1.246c1.634,-0.771 3.105,-1.421 4.413,-1.992c1.35,-0.608 2.546,-1.137 3.525,-1.562c1.967,-0.846 2.975,-1.196 2.975,-1.196c-1.554,0.938 -3.112,1.9 -4.608,2.808c-1.48,0.9 -2.875,1.734 -4.246,2.559c-1.371,0.825 -2.729,1.658 -4.088,2.504c-6.779,4.216 -13.537,8.621 -19.983,12.942c-10.317,6.925 -19.85,13.245 -28.367,19.845c-8.508,6.53 -16.05,13.692 -22.758,21.304c-15.433,17.059 -26.946,36.351 -35.846,55.655c-9.567,19.237 -15.858,38.541 -19.912,55.741c-4.867,20.609 -9.896,39.63 -5.359,42.684c10.225,6.879 27.259,-1.429 40.771,-7.904c23.617,-11.321 45.067,-27.742 62.733,-48.192c17.663,-20.463 30.646,-45.029 38.592,-72.533c7.946,-27.5 11.533,-57.875 10.642,-89.925c-1.45,-2.321 -3.404,-4.642 -6.021,-6.342c-1.579,-1.025 -9.483,-6.454 -49.313,-10.271l-0.025,0c-3.366,-0.133 -6.725,-0.221 -10.037,-0.225c-3.792,0 -7.5,0.042 -11.125,0.113Z" style="fill:#d1bef9;fill-rule:nonzero;"/><path d="M512.413,519.663c9.591,-11.025 19.433,-20.042 29.2,-27.396c9.716,-7.367 19.487,-13.188 28.583,-18.292c0.183,-0.108 0.367,-0.208 0.55,-0.312c-15.383,-0.913 -28.617,1.437 -40.888,6.229c-12.754,4.837 -24.608,12.446 -36.916,22.154c-11.684,9.208 -22.196,20.1 -31.804,32.246c-9.905,12.108 -18.788,25.179 -26.846,38.908c-7.067,11.558 -16.004,19.933 -26.521,25.663c-10.517,5.733 -22.617,8.824 -36.017,9.808c-16.604,1.221 -33.637,-1.425 -50.096,1.867c-9.966,1.991 -20.604,9.991 -22.137,14.845c-2.625,6.496 62.05,-1.67 159.542,-3.754l0,0.004c3.645,-13.691 8.075,-26.225 13.133,-37.683c11.671,-26.742 25.837,-47.758 40.217,-64.287Z" style="fill:#593f92;fill-rule:nonzero;"/><path d="M292.075,642.213l162.304,0c1.367,-7.138 2.934,-13.992 4.688,-20.58l-0.004,-0.004c-97.492,2.084 -142.08,10.484 -161.792,16.471c-1.179,0.358 -2.263,0.708 -3.267,1.046l-1.1,1.825c-2.946,0.246 -5.929,1.079 -8.654,2.304c-0.983,0.575 -1.458,0.95 -1.604,1.071c2.837,-1.367 6.042,-2.133 9.429,-2.133Z" style="fill:#b9a6e1;fill-rule:nonzero;"/><path d="M539.079,428.913c-6.421,0.133 -13.854,0.491 -21.875,1.304c-4,0.433 -8.125,1.025 -12.367,1.691c-4.249,0.667 -8.591,1.421 -13.02,2.346c-4.438,0.913 -8.892,1.875 -13.542,2.992c-4.65,1.116 -9.458,2.35 -14.325,3.779c-9.812,2.829 -20.146,6.529 -30.858,11.325c-10.938,4.775 -22.184,10.762 -33.463,17.971c-22.562,14.425 -110.454,99.567 -126.696,171.092c-8.483,37.383 19.279,43.412 24.613,45.574c23.55,9.546 173.704,24.146 242.187,-4.166c106.43,-44 87.604,-232.317 85.154,-236.2c0.892,32.054 -2.737,62.342 -10.674,89.846c-7.946,27.5 -20.884,52.062 -38.542,72.525c-17.667,20.454 -97.421,59.804 -102.738,54.687c-4.262,-4.108 14.917,-77.766 24.479,-97.004c8.9,-19.304 20.375,-38.542 35.809,-55.6c6.708,-7.612 14.279,-14.821 22.787,-21.354c8.513,-6.596 18.071,-12.867 28.384,-19.792c6.45,-4.325 13.145,-8.675 19.925,-12.891c1.354,-0.842 2.791,-1.78 4.166,-2.605c1.371,-0.825 2.692,-1.57 4.167,-2.47c1.496,-0.913 3.129,-1.925 4.688,-2.867c0,0 -1.03,0.325 -2.996,1.171c-0.98,0.425 -2.167,0.95 -3.517,1.562c-1.308,0.571 -2.792,1.313 -4.425,2.084c-0.813,0.387 -1.713,0.729 -2.604,1.175c-2.688,1.345 -5.738,2.987 -9.117,4.945c-6.908,3.917 -15.037,8.571 -23.958,13.671c-0.184,0.109 -0.338,0.159 -0.521,0.263c-9.092,5.108 -18.929,10.991 -28.646,18.358c-9.767,7.354 -19.579,16.321 -29.167,27.346c-14.379,16.529 -28.558,37.579 -40.233,64.321c-5.058,11.454 -9.504,23.937 -13.15,37.629c-15.133,0 -31.275,14.375 -7.425,47.267c0,0 -105.371,-23.746 -151.429,-27.734c0.687,-4.533 1.721,-9.191 1.95,-13.283c0.925,-16.313 17.271,-44.517 21.096,-51.3c9.683,-17.171 22.287,-36.033 37.891,-54.038c15.605,-18 34.155,-35.204 55.73,-49.479c10.691,-7.15 21.962,-13.529 33.462,-19.008c11.525,-5.492 23.467,-10.163 35.938,-13.804c6.2,-1.975 12.525,-3.754 19.141,-5.209c6.671,-1.537 13.579,-2.795 20.7,-3.645c7.004,-0.8 14.121,-1.338 21.354,-1.563c0.117,0 0.28,0.004 0.392,0c0.208,-0.004 0.313,0.004 0.521,0c3.625,-0.071 7.408,-0.129 11.2,-0.129c3.312,0.004 6.658,0.125 10.025,0.258c-0.688,-0.071 -0.667,-0.15 -1.954,-0.258c-2.654,-0.225 -6.538,-0.442 -11.459,-0.521c-2.42,-0.062 -5.087,-0.225 -7.941,-0.262c-2.859,-0.042 -5.875,-0.042 -9.117,0Z" style="fill:#9f89cf;fill-rule:nonzero;"/><path d="M452.663,669.237c-1.792,-0.149 -8.692,-12.333 -7.092,-24.241c1.604,-11.904 13.496,-23.384 13.496,-23.384c-84.834,-1.974 -106.309,-12.004 -154.425,-1.783c-14.05,2.988 -14.588,19.429 -13.854,25.042c1.495,11.458 7.954,20.225 19.537,22.504c17.671,3.471 25.8,1.4 51.842,1.379c26.041,-0.021 90.496,0.483 90.496,0.483Z" style="fill:#d1bef9;fill-rule:nonzero;"/></g><g><path d="M114.342,192.008c0,-26.645 21.6,-48.245 48.25,-48.245l191.654,0c26.646,0 48.25,21.6 48.25,48.245l0,199.592c0,26.65 -21.604,48.25 -48.25,48.25l-191.654,0c-26.65,0 -48.25,-21.6 -48.25,-48.25l0,-199.592Z" style="fill:#fff;fill-rule:nonzero;"/><path d="M184.4,384.408c0,-15.079 12.221,-27.304 27.304,-27.304l89.425,0c15.079,0 27.304,12.225 27.304,27.304c0,15.08 -12.225,27.305 -27.304,27.305l-89.425,0c-15.083,0 -27.304,-12.225 -27.304,-27.305Z" style="fill:#463174;fill-rule:nonzero;"/><g><path d="M235.559,392.816l-3.878,0l-1.542,-4.011l-7.058,0l-1.458,4.011l-3.782,0l6.878,-17.658l3.77,0l7.07,17.658Zm-6.564,-6.986l-2.433,-6.553l-2.385,6.553l4.818,0Z" style="fill:#fff;fill-rule:nonzero;"/><path d="M237.45,392.816l0,-17.658l5.721,0c2.168,0 3.582,0.088 4.24,0.265c1.012,0.265 1.859,0.841 2.542,1.728c0.682,0.888 1.023,2.034 1.023,3.439c0,1.084 -0.196,1.996 -0.59,2.734c-0.393,0.739 -0.893,1.319 -1.499,1.741c-0.607,0.421 -1.223,0.701 -1.849,0.837c-0.851,0.169 -2.084,0.253 -3.698,0.253l-2.325,0l0,6.661l-3.565,0Zm3.565,-14.671l0,5.011l1.952,0c1.405,0 2.344,-0.093 2.818,-0.277c0.474,-0.185 0.845,-0.474 1.114,-0.867c0.269,-0.394 0.404,-0.852 0.404,-1.374c0,-0.642 -0.189,-1.172 -0.566,-1.589c-0.378,-0.418 -0.856,-0.679 -1.434,-0.783c-0.425,-0.081 -1.281,-0.121 -2.565,-0.121l-1.723,0Z" style="fill:#fff;fill-rule:nonzero;"/><path d="M253.903,392.816l0,-17.658l5.722,0c2.168,0 3.581,0.088 4.239,0.265c1.012,0.265 1.859,0.841 2.542,1.728c0.682,0.888 1.024,2.034 1.024,3.439c0,1.084 -0.197,1.996 -0.591,2.734c-0.393,0.739 -0.893,1.319 -1.499,1.741c-0.606,0.421 -1.223,0.701 -1.849,0.837c-0.851,0.169 -2.084,0.253 -3.698,0.253l-2.325,0l0,6.661l-3.565,0Zm3.565,-14.671l0,5.011l1.952,0c1.405,0 2.344,-0.093 2.818,-0.277c0.474,-0.185 0.845,-0.474 1.114,-0.867c0.269,-0.394 0.404,-0.852 0.404,-1.374c0,-0.642 -0.189,-1.172 -0.566,-1.589c-0.378,-0.418 -0.855,-0.679 -1.434,-0.783c-0.425,-0.081 -1.28,-0.121 -2.565,-0.121l-1.723,0Z" style="fill:#fff;fill-rule:nonzero;"/><path d="M270.453,392.816l0,-17.513l3.565,0l0,14.538l8.865,0l0,2.975l-12.43,0Z" style="fill:#fff;fill-rule:nonzero;"/><path d="M287.797,392.816l0,-7.432l-6.468,-10.226l4.18,0l4.155,6.986l4.071,-6.986l4.108,0l-6.492,10.25l0,7.408l-3.554,0Z" style="fill:#fff;fill-rule:nonzero;"/></g><g id="text"><path d="M168.163,213.163c0,-14.03 11.375,-25.405 25.404,-25.405c14.029,0 25.404,11.375 25.404,25.405c0,14.033 -11.375,25.408 -25.404,25.408c-14.029,0 -25.404,-11.375 -25.404,-25.409Z" style="fill:#d1bef9;fill-rule:nonzero;"/><path d="M153.183,253.979c0,-1.5 1.625,-2.712 3.63,-2.712l199.208,0c2.004,0 3.629,1.212 3.629,2.712c0,1.496 -1.625,2.713 -3.629,2.713l-199.208,0c-2.005,0 -3.63,-1.217 -3.63,-2.713Z" style="fill:#d1bef9;fill-rule:nonzero;"/><path d="M153.183,275.025c0,-1.5 1.625,-2.713 3.63,-2.713l199.208,0c2.004,0 3.629,1.213 3.629,2.713c0,1.496 -1.625,2.713 -3.629,2.713l-199.208,0c-2.005,0 -3.63,-1.217 -3.63,-2.713Z" style="fill:#d1bef9;fill-rule:nonzero;"/><path d="M153.183,296.071c0,-1.5 1.625,-2.713 3.63,-2.713l199.208,0c2.004,0 3.629,1.213 3.629,2.713c0,1.496 -1.625,2.712 -3.629,2.712l-199.208,0c-2.005,0 -3.63,-1.216 -3.63,-2.712Z" style="fill:#d1bef9;fill-rule:nonzero;"/><path d="M153.183,317.117c0,-1.5 1.625,-2.713 3.63,-2.713l199.208,0c2.004,0 3.629,1.213 3.629,2.713c0,1.496 -1.625,2.712 -3.629,2.712l-199.208,0c-2.005,0 -3.63,-1.216 -3.63,-2.712Z" style="fill:#d1bef9;fill-rule:nonzero;"/><path d="M238.533,211.888c0,-1.705 0.955,-3.084 2.13,-3.084l116.858,0c1.175,0 2.129,1.379 2.129,3.084c0,1.7 -0.954,3.079 -2.129,3.079l-116.858,0c-1.175,0 -2.13,-1.379 -2.13,-3.079Z" style="fill:#d1bef9;fill-rule:nonzero;"/><path d="M238.533,190.842c0,-1.704 0.955,-3.084 2.13,-3.084l116.858,0c1.175,0 2.129,1.38 2.129,3.084c0,1.7 -0.954,3.079 -2.129,3.079l-116.858,0c-1.175,0 -2.13,-1.379 -2.13,-3.079Z" style="fill:#d1bef9;fill-rule:nonzero;"/><path d="M238.533,232.933c0,-1.704 0.955,-3.083 2.13,-3.083l116.858,0c1.175,0 2.129,1.379 2.129,3.083c0,1.7 -0.954,3.08 -2.129,3.08l-116.858,0c-1.175,0 -2.13,-1.38 -2.13,-3.08Z" style="fill:#d1bef9;fill-rule:nonzero;"/></g></g></g></g></g><defs><linearGradient id="_Linear1" x1="0" y1="0" x2="1" y2="0" gradientUnits="userSpaceOnUse" gradientTransform="matrix(116.846,-53.0677,53.0677,116.846,304.53,74.1071)"><stop offset="0" style="stop-color:#fff;stop-opacity:1"/><stop offset="1" style="stop-color:#eee;stop-opacity:1"/></linearGradient><linearGradient id="_Linear2" x1="0" y1="0" x2="1" y2="0" gradientUnits="userSpaceOnUse" gradientTransform="matrix(116.846,-53.0677,53.0677,116.846,145.609,534.649)"><stop offset="0" style="stop-color:#fff;stop-opacity:1"/><stop offset="1" style="stop-color:#eee;stop-opacity:1"/></linearGradient></defs></svg>