<?xml version="1.0" encoding="UTF-8" standalone="no"?><!DOCTYPE svg PUBLIC "-//W3C//DTD SVG 1.1//EN" "http://www.w3.org/Graphics/SVG/1.1/DTD/svg11.dtd"><svg width="100%" height="100%" viewBox="0 0 1260 829" version="1.1" xmlns="http://www.w3.org/2000/svg" xmlns:xlink="http://www.w3.org/1999/xlink" xml:space="preserve" xmlns:serif="http://www.serif.com/" style="fill-rule:evenodd;clip-rule:evenodd;stroke-linejoin:round;stroke-miterlimit:2;"><g id="Layer-30"><g><g><g><path d="M836.233,148.883l0,10.579c0,2.392 3.708,2.392 3.708,0l0,-10.579c0,-2.391 -3.708,-2.391 -3.708,0Z" style="fill:#d1bef9;fill-rule:nonzero;"/><path d="M802.67,138.908l-5.604,9.075c-1.258,2.042 1.95,3.9 3.204,1.871l5.6,-9.075c1.263,-2.037 -1.945,-3.9 -3.2,-1.871Z" style="fill:#d1bef9;fill-rule:nonzero;"/><path d="M778.037,112.975l-9.179,5.471c-2.05,1.221 -0.188,4.429 1.875,3.2l9.175,-5.467c2.054,-1.225 0.187,-4.429 -1.871,-3.204Z" style="fill:#d1bef9;fill-rule:nonzero;"/><path d="M769.666,78.775l-10.416,0c-2.392,0 -2.392,3.708 0,3.708l10.416,0c2.392,0 2.392,-3.708 0,-3.708Z" style="fill:#d1bef9;fill-rule:nonzero;"/><path d="M780.041,44.783l-9.308,-5.175c-2.092,-1.162 -3.963,2.042 -1.875,3.204l9.312,5.171c2.092,1.163 3.963,-2.037 1.871,-3.2Z" style="fill:#d1bef9;fill-rule:nonzero;"/><path d="M805.337,20.383l-5.071,-8.979c-1.175,-2.083 -4.379,-0.212 -3.2,1.871l5.071,8.979c1.175,2.079 4.379,0.213 3.2,-1.871Z" style="fill:#d1bef9;fill-rule:nonzero;"/><path d="M839.941,12.233l0,-10.441c0,-2.392 -3.708,-2.392 -3.708,0l0,10.441c0,2.392 3.708,2.392 3.708,0Z" style="fill:#d1bef9;fill-rule:nonzero;"/><path d="M874.1,22.55l5.004,-9.275c1.137,-2.104 -2.067,-3.975 -3.2,-1.871l-5.004,9.275c-1.138,2.104 2.066,3.975 3.2,1.871Z" style="fill:#d1bef9;fill-rule:nonzero;"/><path d="M898.129,48.279l9.179,-5.471c2.05,-1.221 0.187,-4.429 -1.871,-3.2l-9.179,5.471c-2.05,1.221 -0.188,4.429 1.871,3.2Z" style="fill:#d1bef9;fill-rule:nonzero;"/><path d="M906.316,82.483l10.609,0c2.387,0 2.387,-3.708 0,-3.708l-10.609,0c-2.387,0 -2.387,3.708 0,3.708Z" style="fill:#d1bef9;fill-rule:nonzero;"/><path d="M896.395,116.483l9.046,5.163c2.079,1.187 3.946,-2.017 1.871,-3.2l-9.046,-5.167c-2.079,-1.187 -3.946,2.017 -1.871,3.204Z" style="fill:#d1bef9;fill-rule:nonzero;"/><path d="M870.633,140.475l5.271,9.379c1.171,2.083 4.375,0.213 3.2,-1.871l-5.271,-9.379c-1.171,-2.083 -4.375,-0.216 -3.2,1.871Z" style="fill:#d1bef9;fill-rule:nonzero;"/></g></g></g></g></svg>