<?xml version="1.0" encoding="UTF-8" standalone="no"?>
<!DOCTYPE svg PUBLIC "-//W3C//DTD SVG 1.1//EN" "http://www.w3.org/Graphics/SVG/1.1/DTD/svg11.dtd">
<!-- Created with Vectornator (http://vectornator.io/) -->
<svg height="100%" stroke-miterlimit="10" style="fill-rule:nonzero;clip-rule:evenodd;stroke-linecap:round;stroke-linejoin:round;" version="1.1" viewBox="152.7 593.601 88.3914 87.5316" width="100%" xml:space="preserve" xmlns="http://www.w3.org/2000/svg" xmlns:vectornator="http://vectornator.io" xmlns:xlink="http://www.w3.org/1999/xlink">
<defs/>
<clipPath id="ArtboardFrame">
<rect height="87.5316" width="88.3914" x="152.7" y="593.601"/>
</clipPath>
<g clip-path="url(#ArtboardFrame)" id="Layer" vectornator:layerName="Layer">
<g opacity="1" vectornator:layerName="Group 24">
<path d="M161.389 672.8C161.389 668.198 178.117 664.467 198.751 664.467C219.386 664.467 236.113 668.198 236.113 672.8C236.113 677.402 219.386 681.132 198.751 681.132C178.117 681.132 161.389 677.402 161.389 672.8Z" fill="#593f92" fill-rule="nonzero" opacity="1" stroke="none" vectornator:layerName="Oval 1"/>
<g opacity="1" vectornator:layerName="Group 11">
<path d="M176.607 650.757C176.607 638.363 186.726 628.316 199.208 628.316C211.69 628.316 221.809 638.363 221.809 650.757C221.809 663.15 221.809 672.043 199.208 673.197C176.634 674.35 176.607 663.15 176.607 650.757Z" fill="#ffffff" fill-rule="nonzero" opacity="1" stroke="none" vectornator:layerName="Oval 2"/>
<g opacity="1" vectornator:layerName="Group 6">
<g opacity="1" vectornator:layerName="Group 5">
<path d="M197.108 658.576C197.108 657.097 198.505 656.75 199.929 656.75C201.352 656.75 202.801 657.064 202.801 658.576C202.801 660.087 201.501 661.117 199.929 661.117C198.357 661.117 197.108 660.054 197.108 658.576Z" fill="#463174" fill-rule="nonzero" opacity="1" stroke="none" vectornator:layerName="Oval 4"/>
</g>
<path d="M197.598 660.022C197.254 659.523 198.647 658.77 199.923 658.721C201.199 658.672 202.681 659.41 202.344 659.988C201.956 660.653 200.952 661.114 199.987 661.114C199.023 661.114 198.054 660.684 197.598 660.022Z" fill="#7451c2" fill-rule="nonzero" opacity="0.453846" stroke="none" vectornator:layerName="Oval 5"/>
</g>
<g opacity="1" vectornator:layerName="Group 4">
<g opacity="1" vectornator:layerName="Group 2">
<path d="M187.743 651.591C187.743 649.998 188.957 648.707 190.455 648.707C191.952 648.707 193.166 649.998 193.166 651.591C193.166 653.184 191.952 654.475 190.455 654.475C188.957 654.475 187.743 653.184 187.743 651.591Z" fill="#463174" fill-rule="nonzero" opacity="1" stroke="none" vectornator:layerName="Oval 4"/>
<path d="M189.652 650.53C189.652 649.955 190.175 649.49 190.819 649.49C191.463 649.49 191.986 649.955 191.986 650.53C191.986 651.104 191.463 651.57 190.819 651.57C190.175 651.57 189.652 651.104 189.652 650.53Z" fill="#ffffff" fill-rule="nonzero" opacity="1" stroke="none" vectornator:layerName="Oval 7"/>
</g>
<g opacity="1" vectornator:layerName="Group 1">
<path d="M206.289 651.591C206.289 649.998 207.503 648.707 209 648.707C210.498 648.707 211.711 649.998 211.711 651.591C211.711 653.184 210.498 654.475 209 654.475C207.503 654.475 206.289 653.184 206.289 651.591Z" fill="#463174" fill-rule="nonzero" opacity="1" stroke="none" vectornator:layerName="Oval 4"/>
<path d="M207.593 650.447C207.593 649.872 208.115 649.407 208.76 649.407C209.404 649.407 209.926 649.872 209.926 650.447C209.926 651.021 209.404 651.487 208.76 651.487C208.115 651.487 207.593 651.021 207.593 650.447Z" fill="#ffffff" fill-rule="nonzero" opacity="1" stroke="none" vectornator:layerName="Oval 7"/>
</g>
</g>
</g>
<g opacity="1" vectornator:layerName="Group 12">
<path d="M176.607 650.757C176.607 638.363 186.726 628.316 199.208 628.316C211.69 628.316 221.809 638.363 221.809 650.757C221.809 663.15 221.809 672.043 199.208 673.197C176.634 674.35 176.607 663.15 176.607 650.757Z" fill="#ffffff" fill-rule="nonzero" opacity="1" stroke="none" vectornator:layerName="Oval 2"/>
<g opacity="1" vectornator:layerName="Group 6">
<g opacity="1" vectornator:layerName="Group 5">
<path d="M197.108 658.576C197.108 657.097 198.505 656.75 199.929 656.75C201.352 656.75 202.801 657.064 202.801 658.576C202.801 660.087 201.501 661.117 199.929 661.117C198.357 661.117 197.108 660.054 197.108 658.576Z" fill="#463174" fill-rule="nonzero" opacity="1" stroke="none" vectornator:layerName="Oval 4"/>
</g>
<path d="M197.598 660.022C197.254 659.523 198.647 658.77 199.923 658.721C201.199 658.672 202.681 659.41 202.344 659.988C201.956 660.653 200.952 661.114 199.987 661.114C199.023 661.114 198.054 660.684 197.598 660.022Z" fill="#7451c2" fill-rule="nonzero" opacity="0.453846" stroke="none" vectornator:layerName="Oval 5"/>
</g>
<g opacity="1" vectornator:layerName="Group 4">
<g opacity="1" vectornator:layerName="Group 2">
<path d="M187.743 651.591C187.743 649.998 188.957 648.707 190.455 648.707C191.952 648.707 193.166 649.998 193.166 651.591C193.166 653.184 191.952 654.475 190.455 654.475C188.957 654.475 187.743 653.184 187.743 651.591Z" fill="#463174" fill-rule="nonzero" opacity="1" stroke="none" vectornator:layerName="Oval 4"/>
<path d="M189.652 650.53C189.652 649.955 190.175 649.49 190.819 649.49C191.463 649.49 191.986 649.955 191.986 650.53C191.986 651.104 191.463 651.57 190.819 651.57C190.175 651.57 189.652 651.104 189.652 650.53Z" fill="#ffffff" fill-rule="nonzero" opacity="1" stroke="none" vectornator:layerName="Oval 7"/>
</g>
<g opacity="1" vectornator:layerName="Group 1">
<path d="M206.289 651.591C206.289 649.998 207.503 648.707 209 648.707C210.498 648.707 211.711 649.998 211.711 651.591C211.711 653.184 210.498 654.475 209 654.475C207.503 654.475 206.289 653.184 206.289 651.591Z" fill="#463174" fill-rule="nonzero" opacity="1" stroke="none" vectornator:layerName="Oval 4"/>
<path d="M207.593 650.447C207.593 649.872 208.115 649.407 208.76 649.407C209.404 649.407 209.926 649.872 209.926 650.447C209.926 651.021 209.404 651.487 208.76 651.487C208.115 651.487 207.593 651.021 207.593 650.447Z" fill="#ffffff" fill-rule="nonzero" opacity="1" stroke="none" vectornator:layerName="Oval 7"/>
</g>
</g>
</g>
<path d="M219.249 594.113C218.967 594.113 218.738 594.342 218.738 594.624C218.738 594.907 218.967 595.136 219.249 595.136C219.532 595.136 219.761 594.907 219.761 594.624C219.761 594.342 219.532 594.113 219.249 594.113Z" fill="#ffffff" fill-rule="nonzero" opacity="1" stroke="none" vectornator:layerName="path"/>
<path d="M220.785 605.298C220.22 605.298 219.761 605.757 219.761 606.322C219.761 606.887 220.22 607.346 220.785 607.346C221.35 607.346 221.809 606.887 221.809 606.322C221.809 605.757 221.35 605.298 220.785 605.298Z" fill="#ffffff" fill-rule="nonzero" opacity="1" stroke="none" vectornator:layerName="path 12"/>
<path d="M240.068 625.196C239.503 625.196 239.044 625.655 239.044 626.22C239.044 626.786 239.503 627.244 240.068 627.244C240.633 627.244 241.092 626.786 241.092 626.22C241.092 625.655 240.633 625.196 240.068 625.196Z" fill="#ffffff" fill-rule="nonzero" opacity="1" stroke="none" vectornator:layerName="path"/>
<path d="M162.413 655.673C161.847 655.673 161.389 656.131 161.389 656.696C161.389 657.262 161.847 657.72 162.413 657.72C162.978 657.72 163.436 657.262 163.436 656.696C163.436 656.131 162.978 655.673 162.413 655.673Z" fill="#ffffff" fill-rule="nonzero" opacity="1" stroke="none" vectornator:layerName="path 1"/>
<path d="M237.137 655.077C236.572 655.077 236.113 655.535 236.113 656.101C236.113 656.666 236.572 657.124 237.137 657.124C237.703 657.124 238.161 656.666 238.161 656.101C238.161 655.535 237.703 655.077 237.137 655.077Z" fill="#ffffff" fill-rule="nonzero" opacity="1" stroke="none" vectornator:layerName="path 3"/>
<path d="M172.502 624.496C171.795 624.496 171.222 625.068 171.222 625.775C171.222 626.482 171.795 627.055 172.502 627.055C173.209 627.055 173.782 626.482 173.782 625.775C173.782 625.068 173.209 624.496 172.502 624.496Z" fill="#ffffff" fill-rule="nonzero" opacity="1" stroke="none" vectornator:layerName="path 14"/>
<path d="M187.317 622.067C187.034 622.067 186.805 622.297 186.805 622.579C186.805 622.862 187.034 623.091 187.317 623.091C187.599 623.091 187.829 622.862 187.829 622.579C187.829 622.297 187.599 622.067 187.317 622.067Z" fill="#ffffff" fill-rule="nonzero" opacity="1" stroke="none" vectornator:layerName="path 8"/>
<path d="M182.963 593.601C182.68 593.601 182.451 593.83 182.451 594.113C182.451 594.395 182.68 594.624 182.963 594.624C183.245 594.624 183.474 594.395 183.474 594.113C183.474 593.83 183.245 593.601 182.963 593.601Z" fill="#ffffff" fill-rule="nonzero" opacity="1" stroke="none" vectornator:layerName="path 5"/>
<path d="M168.054 643.76C167.771 643.76 167.542 643.989 167.542 644.272C167.542 644.554 167.771 644.783 168.054 644.783C168.337 644.783 168.566 644.554 168.566 644.272C168.566 643.989 168.337 643.76 168.054 643.76Z" fill="#ffffff" fill-rule="nonzero" opacity="1" stroke="none" vectornator:layerName="path 6"/>
<path d="M160.877 634.321C160.594 634.321 160.365 634.55 160.365 634.833C160.365 635.116 160.594 635.345 160.877 635.345C161.16 635.345 161.389 635.116 161.389 634.833C161.389 634.55 161.16 634.321 160.877 634.321Z" fill="#ffffff" fill-rule="nonzero" opacity="1" stroke="none" vectornator:layerName="path"/>
<path d="M209.162 612.043C208.879 612.043 208.65 612.272 208.65 612.554C208.65 612.837 208.879 613.066 209.162 613.066C209.444 613.066 209.674 612.837 209.674 612.554C209.674 612.272 209.444 612.043 209.162 612.043Z" fill="#ffffff" fill-rule="nonzero" opacity="1" stroke="none" vectornator:layerName="path 10"/>
<path d="M229.403 637.164C229.12 637.164 228.891 637.393 228.891 637.676C228.891 637.958 229.12 638.188 229.403 638.188C229.685 638.188 229.915 637.958 229.915 637.676C229.915 637.393 229.685 637.164 229.403 637.164Z" fill="#ffffff" fill-rule="nonzero" opacity="1" stroke="none" vectornator:layerName="path 16"/>
<path d="M160.877 614.751C160.594 614.751 160.365 614.98 160.365 615.263C160.365 615.545 160.594 615.775 160.877 615.775C161.16 615.775 161.389 615.545 161.389 615.263C161.389 614.98 161.16 614.751 160.877 614.751Z" fill="#ffffff" fill-rule="nonzero" opacity="1" stroke="none" vectornator:layerName="path 17"/>
<path d="M191.62 608.665C191.337 608.665 191.108 608.894 191.108 609.177C191.108 609.459 191.337 609.689 191.62 609.689C191.903 609.689 192.132 609.459 192.132 609.177C192.132 608.894 191.903 608.665 191.62 608.665Z" fill="#ffffff" fill-rule="nonzero" opacity="1" stroke="none" vectornator:layerName="path 19"/>
<path d="M175.428 608C175.145 608 174.916 608.229 174.916 608.511C174.916 608.794 175.145 609.023 175.428 609.023C175.711 609.023 175.94 608.794 175.94 608.511C175.94 608.229 175.711 608 175.428 608Z" fill="#ffffff" fill-rule="nonzero" opacity="1" stroke="none" vectornator:layerName="path 20"/>
<path d="M201.24 598.536C200.958 598.536 200.728 598.765 200.728 599.047C200.728 599.33 200.958 599.559 201.24 599.559C201.523 599.559 201.752 599.33 201.752 599.047C201.752 598.765 201.523 598.536 201.24 598.536Z" fill="#ffffff" fill-rule="nonzero" opacity="1" stroke="none" vectornator:layerName="path 18"/>
<path d="M232.591 611.056C232.309 611.056 232.079 611.285 232.079 611.568C232.079 611.85 232.309 612.08 232.591 612.08C232.874 612.08 233.103 611.85 233.103 611.568C233.103 611.285 232.874 611.056 232.591 611.056Z" fill="#ffffff" fill-rule="nonzero" opacity="1" stroke="none" vectornator:layerName="path 11"/>
<path d="M240.58 643.76C240.297 643.76 240.068 643.989 240.068 644.272C240.068 644.554 240.297 644.783 240.58 644.783C240.862 644.783 241.092 644.554 241.092 644.272C241.092 643.989 240.862 643.76 240.58 643.76Z" fill="#ffffff" fill-rule="nonzero" opacity="1" stroke="none" vectornator:layerName="path 21"/>
<path d="M153.212 643.974C152.929 643.974 152.7 644.203 152.7 644.486C152.7 644.769 152.929 644.998 153.212 644.998C153.495 644.998 153.724 644.769 153.724 644.486C153.724 644.203 153.495 643.974 153.212 643.974Z" fill="#ffffff" fill-rule="nonzero" opacity="1" stroke="none" vectornator:layerName="path 9"/>
<path d="M214.87 626.11C214.587 626.11 214.358 626.34 214.358 626.622C214.358 626.905 214.587 627.134 214.87 627.134C215.152 627.134 215.381 626.905 215.381 626.622C215.381 626.34 215.152 626.11 214.87 626.11Z" fill="#ffffff" fill-rule="nonzero" opacity="1" stroke="none" vectornator:layerName="path"/>
</g>
</g>
</svg>
