<?xml version="1.0" encoding="UTF-8" standalone="no"?><!DOCTYPE svg PUBLIC "-//W3C//DTD SVG 1.1//EN" "http://www.w3.org/Graphics/SVG/1.1/DTD/svg11.dtd"><svg width="100%" height="100%" viewBox="0 0 659 839" version="1.1" xmlns="http://www.w3.org/2000/svg" xmlns:xlink="http://www.w3.org/1999/xlink" xml:space="preserve" xmlns:serif="http://www.serif.com/" style="fill-rule:evenodd;clip-rule:evenodd;stroke-linejoin:round;stroke-miterlimit:2;"><g id="Layer"><g><g><g><g><g><path d="M111.625,125.879c0,-4.729 -35.875,-12.333 22.458,-12.333l220.709,0c12.333,0 22.333,10.012 22.333,22.367l0,59.358c0,12.35 -10,22.362 -22.333,22.362l-220.709,0c-12.375,0 -22.375,-10.012 -22.375,-22.362l0,-65.575l-0.083,-3.817Z" style="fill:#fff;fill-rule:nonzero;"/><path d="M129.042,164.483c0,-1.129 0.916,-2.045 2.041,-2.045l58.417,0c1.125,0 2.042,0.916 2.042,2.045c0,1.129 -0.917,2.046 -2.042,2.046l-58.417,0c-1.125,0 -2.041,-0.917 -2.041,-2.046Z" style="fill:#ddd;fill-rule:nonzero;"/><path d="M129.042,179.308c0,-1.129 0.916,-2.045 2.041,-2.045l100.084,0c1.125,0 2.041,0.916 2.041,2.045c0,1.13 -0.916,2.046 -2.041,2.046l-100.084,0c-1.125,0 -2.041,-0.916 -2.041,-2.046Z" style="fill:#ddd;fill-rule:nonzero;"/><path d="M253.708,164.483c0,-1.129 0.917,-2.045 2.042,-2.045l100.083,0c1.125,0 2.042,0.916 2.042,2.045c0,1.129 -0.917,2.046 -2.042,2.046l-100.083,0c-1.125,0 -2.042,-0.917 -2.042,-2.046Z" style="fill:#ddd;fill-rule:nonzero;"/><path d="M253.708,193.808c0,-1.133 0.917,-2.045 2.042,-2.045l100.083,0c1.125,0 2.042,0.912 2.042,2.045c0,1.13 -0.917,2.042 -2.042,2.042l-100.083,0c-1.125,0 -2.042,-0.912 -2.042,-2.042Z" style="fill:#ddd;fill-rule:nonzero;"/><path d="M337.042,179.308c0,-1.129 0.916,-2.045 2.041,-2.045l16.75,0c1.125,0 2.042,0.916 2.042,2.045c0,1.13 -0.917,2.046 -2.042,2.046l-16.75,0c-1.125,0 -2.041,-0.916 -2.041,-2.046Z" style="fill:#ddd;fill-rule:nonzero;"/><path d="M297,179.308c0,-1.129 0.917,-2.045 2.042,-2.045l16.75,0c1.125,0 2.041,0.916 2.041,2.045c0,1.13 -0.916,2.046 -2.041,2.046l-16.75,0c-1.125,0 -2.042,-0.916 -2.042,-2.046Z" style="fill:#ddd;fill-rule:nonzero;"/><path d="M194.958,164.446c0,-1.15 0.917,-2.083 2.084,-2.083c1.125,0 2.083,0.933 2.083,2.083c0,1.15 -0.958,2.083 -2.083,2.083c-1.167,0 -2.084,-0.933 -2.084,-2.083Z" style="fill:#ddd;fill-rule:nonzero;"/><path d="M246.167,164.521c0,-1.15 0.958,-2.083 2.083,-2.083c1.167,0 2.083,0.933 2.083,2.083c0,1.15 -0.916,2.083 -2.083,2.083c-1.125,0 -2.083,-0.933 -2.083,-2.083Z" style="fill:#ddd;fill-rule:nonzero;"/><path d="M289.708,179.346c0,-1.15 0.917,-2.083 2.084,-2.083c1.125,0 2.083,0.933 2.083,2.083c0,1.15 -0.958,2.083 -2.083,2.083c-1.167,0 -2.084,-0.933 -2.084,-2.083Z" style="fill:#ddd;fill-rule:nonzero;"/><path d="M321.083,179.346c0,-1.15 0.959,-2.083 2.084,-2.083c1.166,0 2.083,0.933 2.083,2.083c0,1.15 -0.917,2.083 -2.083,2.083c-1.125,0 -2.084,-0.933 -2.084,-2.083Z" style="fill:#ddd;fill-rule:nonzero;"/><path d="M329.167,179.346c0,-1.15 0.958,-2.083 2.083,-2.083c1.167,0 2.083,0.933 2.083,2.083c0,1.15 -0.916,2.083 -2.083,2.083c-1.125,0 -2.083,-0.933 -2.083,-2.083Z" style="fill:#ddd;fill-rule:nonzero;"/><path d="M236.833,179.346c0,-1.15 0.917,-2.083 2.084,-2.083c1.125,0 2.083,0.933 2.083,2.083c0,1.15 -0.958,2.083 -2.083,2.083c-1.167,0 -2.084,-0.933 -2.084,-2.083Z" style="fill:#ddd;fill-rule:nonzero;"/><path d="M218.208,193.846c0,-1.15 0.917,-2.083 2.084,-2.083c1.166,0 2.083,0.933 2.083,2.083c0,1.15 -0.917,2.083 -2.083,2.083c-1.167,0 -2.084,-0.933 -2.084,-2.083Z" style="fill:#ddd;fill-rule:nonzero;"/><path d="M172.042,193.808c0,-1.154 0.958,-2.083 2.083,-2.083c1.167,0 2.083,0.929 2.083,2.083c0,1.15 -0.916,2.084 -2.083,2.084c-1.125,0 -2.083,-0.934 -2.083,-2.084Z" style="fill:#ddd;fill-rule:nonzero;"/><path d="M247.625,193.846c0,-1.15 0.917,-2.083 2.083,-2.083c1.167,0 2.084,0.933 2.084,2.083c0,1.15 -0.917,2.083 -2.084,2.083c-1.166,0 -2.083,-0.933 -2.083,-2.083Z" style="fill:#ddd;fill-rule:nonzero;"/><path d="M225.333,193.808c0,-1.133 0.917,-2.045 2.042,-2.045l16.75,0c1.125,0 2.042,0.912 2.042,2.045c0,1.13 -0.917,2.042 -2.042,2.042l-16.75,0c-1.125,0 -2.042,-0.912 -2.042,-2.042Z" style="fill:#ddd;fill-rule:nonzero;"/><path d="M129.042,193.808c0,-1.133 0.916,-2.045 2.041,-2.045l37.584,0c1.125,0 2.041,0.912 2.041,2.045c0,1.13 -0.916,2.042 -2.041,2.042l-37.584,0c-1.125,0 -2.041,-0.912 -2.041,-2.042Z" style="fill:#ddd;fill-rule:nonzero;"/><path d="M245.083,179.308c0,-1.129 0.917,-2.045 2.042,-2.045l37.542,0c1.166,0 2.083,0.916 2.083,2.045c0,1.13 -0.917,2.046 -2.083,2.046l-37.542,0c-1.125,0 -2.042,-0.916 -2.042,-2.046Z" style="fill:#ddd;fill-rule:nonzero;"/><path d="M201.542,164.483c0,-1.129 0.916,-2.045 2.041,-2.045l37.584,0c1.125,0 2.041,0.916 2.041,2.045c0,1.129 -0.916,2.046 -2.041,2.046l-37.584,0c-1.125,0 -2.041,-0.917 -2.041,-2.046Z" style="fill:#ddd;fill-rule:nonzero;"/><path d="M177.5,193.808c0,-1.133 0.917,-2.045 2.042,-2.045l34.208,0c1.125,0 2.042,0.912 2.042,2.045c0,1.13 -0.917,2.042 -2.042,2.042l-34.208,0c-1.125,0 -2.042,-0.912 -2.042,-2.042Z" style="fill:#ddd;fill-rule:nonzero;"/><path d="M132.083,139.608c0,-5.754 4.667,-10.416 10.417,-10.416c5.75,0 10.417,4.662 10.417,10.416c0,5.755 -4.667,10.417 -10.417,10.417c-5.75,0 -10.417,-4.662 -10.417,-10.417Z" style="fill:#593f92;fill-rule:nonzero;"/><g><path d="M161.437,134.051l0,1.51l-2.486,0l0,7.818l-1.871,0l0,-7.818l-2.486,0l0,-1.51l6.843,0Z" style="fill:#593f92;fill-rule:nonzero;"/><path d="M166.969,135.869c0.562,0 1.061,0.122 1.497,0.367c0.437,0.245 0.777,0.606 1.022,1.083c0.245,0.476 0.368,1.049 0.368,1.717l0,4.343l-1.871,0l0,-4.089c0,-0.588 -0.147,-1.04 -0.441,-1.357c-0.294,-0.316 -0.695,-0.474 -1.203,-0.474c-0.516,0 -0.924,0.158 -1.223,0.474c-0.298,0.317 -0.447,0.769 -0.447,1.357l0,4.089l-1.871,0l0,-9.889l1.871,0l0,3.408c0.24,-0.321 0.561,-0.573 0.962,-0.755c0.401,-0.183 0.846,-0.274 1.336,-0.274Z" style="fill:#593f92;fill-rule:nonzero;"/><path d="M178.516,139.517c0,0.267 -0.018,0.508 -0.054,0.722l-5.412,0c0.045,0.534 0.232,0.953 0.561,1.256c0.33,0.303 0.735,0.454 1.216,0.454c0.695,0 1.19,-0.298 1.484,-0.895l2.018,0c-0.214,0.713 -0.624,1.298 -1.23,1.757c-0.606,0.459 -1.349,0.688 -2.231,0.688c-0.713,0 -1.352,-0.158 -1.918,-0.474c-0.566,-0.316 -1.007,-0.764 -1.323,-1.343c-0.317,-0.579 -0.475,-1.247 -0.475,-2.005c0,-0.766 0.156,-1.439 0.468,-2.018c0.312,-0.579 0.748,-1.024 1.31,-1.336c0.561,-0.312 1.207,-0.468 1.938,-0.468c0.703,0 1.334,0.152 1.891,0.455c0.556,0.303 0.988,0.732 1.296,1.289c0.307,0.557 0.461,1.196 0.461,1.918Zm-1.938,-0.535c-0.009,-0.481 -0.183,-0.866 -0.521,-1.156c-0.339,-0.289 -0.753,-0.434 -1.243,-0.434c-0.463,0 -0.853,0.14 -1.169,0.421c-0.317,0.281 -0.51,0.67 -0.582,1.169l3.515,0Z" style="fill:#593f92;fill-rule:nonzero;"/><path d="M188.82,134.051l0,1.51l-3.889,0l0,2.392l2.98,0l0,1.484l-2.98,0l0,3.942l-1.871,0l0,-9.328l5.76,0Z" style="fill:#593f92;fill-rule:nonzero;"/><path d="M192.014,137.125c0.24,-0.392 0.554,-0.7 0.942,-0.922c0.387,-0.223 0.83,-0.334 1.329,-0.334l0,1.964l-0.494,0c-0.588,0 -1.031,0.138 -1.33,0.414c-0.298,0.277 -0.447,0.758 -0.447,1.444l0,3.688l-1.871,0l0,-7.403l1.871,0l0,1.149Z" style="fill:#593f92;fill-rule:nonzero;"/><path d="M196.49,135.093c-0.329,0 -0.603,-0.104 -0.821,-0.314c-0.219,-0.209 -0.328,-0.47 -0.328,-0.781c0,-0.312 0.109,-0.573 0.328,-0.782c0.218,-0.21 0.492,-0.314 0.821,-0.314c0.33,0 0.604,0.104 0.822,0.314c0.219,0.209 0.328,0.47 0.328,0.782c0,0.311 -0.109,0.572 -0.328,0.781c-0.218,0.21 -0.492,0.314 -0.822,0.314Zm0.923,0.883l0,7.403l-1.871,0l0,-7.403l1.871,0Z" style="fill:#593f92;fill-rule:nonzero;"/><path d="M206.139,139.517c0,0.267 -0.018,0.508 -0.053,0.722l-5.413,0c0.045,0.534 0.232,0.953 0.562,1.256c0.329,0.303 0.735,0.454 1.216,0.454c0.695,0 1.189,-0.298 1.483,-0.895l2.018,0c-0.214,0.713 -0.623,1.298 -1.229,1.757c-0.606,0.459 -1.35,0.688 -2.232,0.688c-0.713,0 -1.352,-0.158 -1.918,-0.474c-0.566,-0.316 -1.007,-0.764 -1.323,-1.343c-0.316,-0.579 -0.474,-1.247 -0.474,-2.005c0,-0.766 0.156,-1.439 0.467,-2.018c0.312,-0.579 0.749,-1.024 1.31,-1.336c0.561,-0.312 1.207,-0.468 1.938,-0.468c0.704,0 1.334,0.152 1.891,0.455c0.557,0.303 0.989,0.732 1.296,1.289c0.308,0.557 0.461,1.196 0.461,1.918Zm-1.938,-0.535c-0.008,-0.481 -0.182,-0.866 -0.521,-1.156c-0.338,-0.289 -0.753,-0.434 -1.243,-0.434c-0.463,0 -0.853,0.14 -1.169,0.421c-0.316,0.281 -0.51,0.67 -0.581,1.169l3.514,0Z" style="fill:#593f92;fill-rule:nonzero;"/><path d="M211.605,135.869c0.882,0 1.595,0.278 2.138,0.835c0.544,0.557 0.816,1.334 0.816,2.332l0,4.343l-1.871,0l0,-4.089c0,-0.588 -0.147,-1.04 -0.441,-1.357c-0.294,-0.316 -0.695,-0.474 -1.203,-0.474c-0.517,0 -0.924,0.158 -1.223,0.474c-0.298,0.317 -0.448,0.769 -0.448,1.357l0,4.089l-1.871,0l0,-7.403l1.871,0l0,0.922c0.25,-0.321 0.568,-0.573 0.956,-0.755c0.387,-0.183 0.813,-0.274 1.276,-0.274Z" style="fill:#593f92;fill-rule:nonzero;"/><path d="M215.855,139.651c0,-0.749 0.149,-1.413 0.448,-1.992c0.298,-0.579 0.706,-1.024 1.222,-1.336c0.517,-0.312 1.092,-0.468 1.724,-0.468c0.481,0 0.94,0.105 1.377,0.314c0.436,0.21 0.784,0.488 1.042,0.836l0,-3.515l1.898,0l0,9.889l-1.898,0l0,-1.096c-0.231,0.366 -0.557,0.66 -0.975,0.882c-0.419,0.223 -0.905,0.334 -1.457,0.334c-0.624,0 -1.194,-0.16 -1.711,-0.481c-0.516,-0.32 -0.924,-0.773 -1.222,-1.356c-0.299,-0.584 -0.448,-1.254 -0.448,-2.011Zm5.827,0.026c0,-0.454 -0.089,-0.844 -0.268,-1.169c-0.178,-0.325 -0.418,-0.575 -0.721,-0.748c-0.303,-0.174 -0.628,-0.261 -0.976,-0.261c-0.347,0 -0.668,0.085 -0.962,0.254c-0.294,0.169 -0.532,0.416 -0.715,0.742c-0.183,0.325 -0.274,0.71 -0.274,1.156c0,0.445 0.091,0.835 0.274,1.169c0.183,0.334 0.423,0.59 0.722,0.768c0.298,0.179 0.617,0.268 0.955,0.268c0.348,0 0.673,-0.087 0.976,-0.261c0.303,-0.174 0.543,-0.423 0.721,-0.748c0.179,-0.326 0.268,-0.715 0.268,-1.17Z" style="fill:#593f92;fill-rule:nonzero;"/><rect x="225.397" y="133.49" width="1.871" height="9.889" style="fill:#593f92;fill-rule:nonzero;"/><path d="M236.195,135.976l-4.584,10.905l-1.991,0l1.603,-3.689l-2.966,-7.216l2.098,0l1.911,5.171l1.938,-5.171l1.991,0Z" style="fill:#593f92;fill-rule:nonzero;"/><path d="M239.923,138.702c0,-0.918 0.208,-1.74 0.622,-2.466c0.414,-0.726 0.98,-1.292 1.697,-1.697c0.717,-0.405 1.521,-0.608 2.412,-0.608c1.043,0 1.956,0.267 2.74,0.802c0.784,0.534 1.332,1.274 1.644,2.218l-2.152,0c-0.214,-0.445 -0.514,-0.779 -0.902,-1.002c-0.388,-0.223 -0.835,-0.334 -1.343,-0.334c-0.544,0 -1.027,0.127 -1.45,0.381c-0.423,0.253 -0.753,0.612 -0.989,1.075c-0.236,0.464 -0.354,1.007 -0.354,1.631c0,0.615 0.118,1.156 0.354,1.623c0.236,0.468 0.566,0.829 0.989,1.083c0.423,0.254 0.906,0.381 1.45,0.381c0.508,0 0.955,-0.114 1.343,-0.341c0.388,-0.227 0.688,-0.563 0.902,-1.009l2.152,0c-0.312,0.953 -0.858,1.695 -1.637,2.225c-0.78,0.53 -1.695,0.795 -2.747,0.795c-0.891,0 -1.695,-0.202 -2.412,-0.608c-0.717,-0.405 -1.283,-0.969 -1.697,-1.69c-0.414,-0.722 -0.622,-1.542 -0.622,-2.459Z" style="fill:#593f92;fill-rule:nonzero;"/><path d="M253.929,143.499c-0.713,0 -1.354,-0.158 -1.924,-0.474c-0.571,-0.316 -1.018,-0.764 -1.344,-1.343c-0.325,-0.579 -0.487,-1.247 -0.487,-2.005c0,-0.757 0.167,-1.425 0.501,-2.004c0.334,-0.579 0.79,-1.027 1.37,-1.343c0.579,-0.317 1.225,-0.475 1.937,-0.475c0.713,0 1.359,0.158 1.938,0.475c0.579,0.316 1.036,0.764 1.37,1.343c0.334,0.579 0.501,1.247 0.501,2.004c0,0.758 -0.171,1.426 -0.514,2.005c-0.343,0.579 -0.807,1.027 -1.39,1.343c-0.584,0.316 -1.236,0.474 -1.958,0.474Zm0,-1.63c0.338,0 0.657,-0.082 0.955,-0.247c0.299,-0.165 0.537,-0.412 0.715,-0.742c0.179,-0.33 0.268,-0.73 0.268,-1.203c0,-0.703 -0.185,-1.245 -0.555,-1.623c-0.37,-0.379 -0.822,-0.568 -1.356,-0.568c-0.535,0 -0.983,0.189 -1.343,0.568c-0.361,0.378 -0.542,0.92 -0.542,1.623c0,0.704 0.176,1.245 0.528,1.624c0.352,0.379 0.795,0.568 1.33,0.568Z" style="fill:#593f92;fill-rule:nonzero;"/><path d="M266.157,135.976l0,7.403l-1.884,0l0,-0.935c-0.241,0.32 -0.555,0.572 -0.942,0.755c-0.388,0.182 -0.809,0.274 -1.263,0.274c-0.58,0 -1.092,-0.123 -1.537,-0.368c-0.446,-0.245 -0.795,-0.606 -1.049,-1.082c-0.254,-0.477 -0.381,-1.045 -0.381,-1.704l0,-4.343l1.871,0l0,4.076c0,0.588 0.147,1.04 0.441,1.356c0.294,0.316 0.695,0.474 1.203,0.474c0.516,0 0.922,-0.158 1.216,-0.474c0.294,-0.316 0.441,-0.768 0.441,-1.356l0,-4.076l1.884,0Z" style="fill:#593f92;fill-rule:nonzero;"/><path d="M267.52,139.677c0,-0.766 0.156,-1.436 0.468,-2.011c0.312,-0.575 0.744,-1.02 1.296,-1.336c0.553,-0.317 1.185,-0.475 1.898,-0.475c0.918,0 1.677,0.23 2.278,0.688c0.602,0.459 1.005,1.103 1.21,1.932l-2.018,0c-0.107,-0.321 -0.287,-0.573 -0.541,-0.755c-0.254,-0.183 -0.568,-0.274 -0.943,-0.274c-0.534,0 -0.957,0.193 -1.269,0.581c-0.312,0.387 -0.468,0.938 -0.468,1.65c0,0.704 0.156,1.25 0.468,1.637c0.312,0.388 0.735,0.582 1.269,0.582c0.758,0 1.252,-0.339 1.484,-1.016l2.018,0c-0.205,0.802 -0.61,1.439 -1.216,1.911c-0.606,0.472 -1.363,0.708 -2.272,0.708c-0.713,0 -1.345,-0.158 -1.898,-0.474c-0.552,-0.316 -0.984,-0.762 -1.296,-1.336c-0.312,-0.575 -0.468,-1.245 -0.468,-2.012Z" style="fill:#593f92;fill-rule:nonzero;"/><path d="M280.216,135.869c0.561,0 1.06,0.122 1.497,0.367c0.436,0.245 0.777,0.606 1.022,1.083c0.245,0.476 0.368,1.049 0.368,1.717l0,4.343l-1.871,0l0,-4.089c0,-0.588 -0.147,-1.04 -0.441,-1.357c-0.294,-0.316 -0.695,-0.474 -1.203,-0.474c-0.517,0 -0.925,0.158 -1.223,0.474c-0.298,0.317 -0.448,0.769 -0.448,1.357l0,4.089l-1.871,0l0,-9.889l1.871,0l0,3.408c0.241,-0.321 0.562,-0.573 0.963,-0.755c0.4,-0.183 0.846,-0.274 1.336,-0.274Z" style="fill:#593f92;fill-rule:nonzero;"/></g></g><g><path d="M414.917,256.213c0,-4.725 35.875,-12.33 -22.459,-12.33l-220.708,0c-12.333,0 -22.333,10.013 -22.333,22.363l0,59.362c0,12.35 10,22.363 22.333,22.363l220.708,0c12.375,0 22.375,-10.013 22.375,-22.363l0,-65.575l0.084,-3.82Z" style="fill:#fff;fill-rule:nonzero;"/><path d="M397.5,294.821c0,-1.129 -0.917,-2.046 -2.083,-2.046l-58.375,0c-1.125,0 -2.042,0.917 -2.042,2.046c0,1.129 0.917,2.046 2.042,2.046l58.375,0c1.166,0 2.083,-0.917 2.083,-2.046Z" style="fill:#ddd;fill-rule:nonzero;"/><path d="M397.5,309.646c0,-1.129 -0.917,-2.046 -2.083,-2.046l-100.042,0c-1.125,0 -2.042,0.917 -2.042,2.046c0,1.129 0.917,2.046 2.042,2.046l100.042,0c1.166,0 2.083,-0.917 2.083,-2.046Z" style="fill:#ddd;fill-rule:nonzero;"/><path d="M272.833,294.821c0,-1.129 -0.916,-2.046 -2.041,-2.046l-100.084,0c-1.125,0 -2.041,0.917 -2.041,2.046c0,1.129 0.916,2.046 2.041,2.046l100.084,0c1.125,0 2.041,-0.917 2.041,-2.046Z" style="fill:#ddd;fill-rule:nonzero;"/><path d="M272.833,324.142c0,-1.129 -0.916,-2.042 -2.041,-2.042l-100.084,0c-1.125,0 -2.041,0.913 -2.041,2.042c0,1.129 0.916,2.046 2.041,2.046l100.084,0c1.125,0 2.041,-0.917 2.041,-2.046Z" style="fill:#ddd;fill-rule:nonzero;"/><path d="M189.5,309.646c0,-1.129 -0.917,-2.046 -2.042,-2.046l-16.75,0c-1.125,0 -2.041,0.917 -2.041,2.046c0,1.129 0.916,2.046 2.041,2.046l16.75,0c1.125,0 2.042,-0.917 2.042,-2.046Z" style="fill:#ddd;fill-rule:nonzero;"/><path d="M229.542,309.646c0,-1.129 -0.917,-2.046 -2.042,-2.046l-16.75,0c-1.125,0 -2.042,0.917 -2.042,2.046c0,1.129 0.917,2.046 2.042,2.046l16.75,0c1.125,0 2.042,-0.917 2.042,-2.046Z" style="fill:#ddd;fill-rule:nonzero;"/><path d="M331.583,294.783c0,-1.15 -0.916,-2.083 -2.083,-2.083c-1.125,0 -2.083,0.933 -2.083,2.083c0,1.15 0.958,2.084 2.083,2.084c1.167,0 2.083,-0.934 2.083,-2.084Z" style="fill:#ddd;fill-rule:nonzero;"/><path d="M280.375,294.858c0,-1.15 -0.958,-2.083 -2.083,-2.083c-1.167,0 -2.084,0.933 -2.084,2.083c0,1.15 0.917,2.084 2.084,2.084c1.125,0 2.083,-0.934 2.083,-2.084Z" style="fill:#ddd;fill-rule:nonzero;"/><path d="M236.833,309.683c0,-1.15 -0.916,-2.083 -2.083,-2.083c-1.125,0 -2.083,0.933 -2.083,2.083c0,1.15 0.958,2.084 2.083,2.084c1.167,0 2.083,-0.934 2.083,-2.084Z" style="fill:#ddd;fill-rule:nonzero;"/><path d="M205.417,309.683c0,-1.15 -0.917,-2.083 -2.084,-2.083c-1.125,0 -2.083,0.933 -2.083,2.083c0,1.15 0.958,2.084 2.083,2.084c1.167,0 2.084,-0.934 2.084,-2.084Z" style="fill:#ddd;fill-rule:nonzero;"/><path d="M197.375,309.683c0,-1.15 -0.958,-2.083 -2.083,-2.083c-1.167,0 -2.084,0.933 -2.084,2.083c0,1.15 0.917,2.084 2.084,2.084c1.125,0 2.083,-0.934 2.083,-2.084Z" style="fill:#ddd;fill-rule:nonzero;"/><path d="M289.708,309.683c0,-1.15 -0.916,-2.083 -2.083,-2.083c-1.125,0 -2.083,0.933 -2.083,2.083c0,1.15 0.958,2.084 2.083,2.084c1.167,0 2.083,-0.934 2.083,-2.084Z" style="fill:#ddd;fill-rule:nonzero;"/><path d="M308.333,324.183c0,-1.154 -0.916,-2.083 -2.083,-2.083c-1.167,0 -2.083,0.929 -2.083,2.083c0,1.15 0.916,2.084 2.083,2.084c1.167,0 2.083,-0.934 2.083,-2.084Z" style="fill:#ddd;fill-rule:nonzero;"/><path d="M354.5,324.142c0,-1.15 -0.958,-2.084 -2.083,-2.084c-1.167,0 -2.084,0.934 -2.084,2.084c0,1.15 0.917,2.083 2.084,2.083c1.125,0 2.083,-0.933 2.083,-2.083Z" style="fill:#ddd;fill-rule:nonzero;"/><path d="M278.917,324.183c0,-1.154 -0.917,-2.083 -2.084,-2.083c-1.166,0 -2.083,0.929 -2.083,2.083c0,1.15 0.917,2.084 2.083,2.084c1.167,0 2.084,-0.934 2.084,-2.084Z" style="fill:#ddd;fill-rule:nonzero;"/><path d="M301.208,324.142c0,-1.129 -0.916,-2.042 -2.041,-2.042l-16.75,0c-1.125,0 -2.042,0.913 -2.042,2.042c0,1.129 0.917,2.046 2.042,2.046l16.75,0c1.125,0 2.041,-0.917 2.041,-2.046Z" style="fill:#ddd;fill-rule:nonzero;"/><path d="M397.5,324.142c0,-1.129 -0.917,-2.042 -2.083,-2.042l-37.542,0c-1.125,0 -2.042,0.913 -2.042,2.042c0,1.129 0.917,2.046 2.042,2.046l37.542,0c1.166,0 2.083,-0.917 2.083,-2.046Z" style="fill:#ddd;fill-rule:nonzero;"/><path d="M281.458,309.646c0,-1.129 -0.916,-2.046 -2.041,-2.046l-37.584,0c-1.125,0 -2.041,0.917 -2.041,2.046c0,1.129 0.916,2.046 2.041,2.046l37.584,0c1.125,0 2.041,-0.917 2.041,-2.046Z" style="fill:#ddd;fill-rule:nonzero;"/><path d="M325,294.821c0,-1.129 -0.917,-2.046 -2.042,-2.046l-37.583,0c-1.125,0 -2.042,0.917 -2.042,2.046c0,1.129 0.917,2.046 2.042,2.046l37.583,0c1.125,0 2.042,-0.917 2.042,-2.046Z" style="fill:#ddd;fill-rule:nonzero;"/><path d="M349.042,324.142c0,-1.129 -0.917,-2.042 -2.042,-2.042l-34.208,0c-1.125,0 -2.042,0.913 -2.042,2.042c0,1.129 0.917,2.046 2.042,2.046l34.208,0c1.125,0 2.042,-0.917 2.042,-2.046Z" style="fill:#ddd;fill-rule:nonzero;"/><path d="M394.458,269.946c0,-5.754 -4.666,-10.417 -10.416,-10.417c-5.75,0 -10.417,4.663 -10.417,10.417c0,5.75 4.667,10.417 10.417,10.417c5.75,0 10.416,-4.667 10.416,-10.417Z" style="fill:#463174;fill-rule:nonzero;"/><g><path d="M335.767,264.633l-4.025,7.76l0,4.145l-2.387,0l0,-4.145l-4.042,-7.76l2.694,0l2.559,5.441l2.541,-5.441l2.66,0Z" style="fill:#593f92;fill-rule:nonzero;"/><path d="M341.344,276.691c-0.909,0 -1.728,-0.202 -2.456,-0.605c-0.727,-0.404 -1.299,-0.975 -1.714,-1.714c-0.415,-0.74 -0.622,-1.592 -0.622,-2.559c0,-0.966 0.213,-1.819 0.639,-2.558c0.427,-0.739 1.009,-1.31 1.748,-1.714c0.739,-0.404 1.564,-0.605 2.473,-0.605c0.91,0 1.734,0.201 2.473,0.605c0.739,0.404 1.322,0.975 1.748,1.714c0.427,0.739 0.64,1.592 0.64,2.558c0,0.967 -0.219,1.819 -0.657,2.559c-0.437,0.739 -1.029,1.31 -1.773,1.714c-0.745,0.403 -1.578,0.605 -2.499,0.605Zm0,-2.081c0.432,0 0.839,-0.105 1.22,-0.315c0.381,-0.211 0.685,-0.526 0.912,-0.947c0.227,-0.42 0.341,-0.932 0.341,-1.535c0,-0.898 -0.236,-1.589 -0.708,-2.072c-0.471,-0.483 -1.049,-0.725 -1.731,-0.725c-0.682,0 -1.253,0.242 -1.714,0.725c-0.46,0.483 -0.69,1.174 -0.69,2.072c0,0.899 0.224,1.589 0.673,2.072c0.449,0.484 1.015,0.725 1.697,0.725Z" style="fill:#593f92;fill-rule:nonzero;"/><path d="M356.949,267.089l0,9.449l-2.404,0l0,-1.194c-0.307,0.409 -0.708,0.73 -1.203,0.963c-0.494,0.233 -1.032,0.35 -1.611,0.35c-0.739,0 -1.393,-0.156 -1.962,-0.469c-0.568,-0.313 -1.014,-0.773 -1.339,-1.382c-0.324,-0.608 -0.486,-1.333 -0.486,-2.174l0,-5.543l2.388,0l0,5.202c0,0.75 0.188,1.327 0.563,1.731c0.375,0.404 0.887,0.605 1.535,0.605c0.659,0 1.177,-0.201 1.552,-0.605c0.375,-0.404 0.563,-0.981 0.563,-1.731l0,-5.202l2.404,0Z" style="fill:#593f92;fill-rule:nonzero;"/></g></g></g><g><g><path d="M111.625,391.946c0,-4.729 -35.875,-12.333 22.458,-12.333l220.709,0c12.333,0 22.333,10.012 22.333,22.366l0,59.359c0,12.35 -10,22.362 -22.333,22.362l-220.709,0c-12.375,0 -22.375,-10.012 -22.375,-22.362l0,-65.575l-0.083,-3.817Z" style="fill:#fff;fill-rule:nonzero;"/><path d="M129.042,430.55c0,-1.129 0.916,-2.046 2.041,-2.046l58.417,0c1.125,0 2.042,0.917 2.042,2.046c0,1.129 -0.917,2.046 -2.042,2.046l-58.417,0c-1.125,0 -2.041,-0.917 -2.041,-2.046Z" style="fill:#ddd;fill-rule:nonzero;"/><path d="M129.042,445.375c0,-1.129 0.916,-2.046 2.041,-2.046l100.084,0c1.125,0 2.041,0.917 2.041,2.046c0,1.129 -0.916,2.046 -2.041,2.046l-100.084,0c-1.125,0 -2.041,-0.917 -2.041,-2.046Z" style="fill:#ddd;fill-rule:nonzero;"/><path d="M253.708,430.55c0,-1.129 0.917,-2.046 2.042,-2.046l100.083,0c1.125,0 2.042,0.917 2.042,2.046c0,1.129 -0.917,2.046 -2.042,2.046l-100.083,0c-1.125,0 -2.042,-0.917 -2.042,-2.046Z" style="fill:#ddd;fill-rule:nonzero;"/><path d="M253.708,459.875c0,-1.129 0.917,-2.046 2.042,-2.046l100.083,0c1.125,0 2.042,0.917 2.042,2.046c0,1.129 -0.917,2.042 -2.042,2.042l-100.083,0c-1.125,0 -2.042,-0.913 -2.042,-2.042Z" style="fill:#ddd;fill-rule:nonzero;"/><path d="M337.042,445.375c0,-1.129 0.916,-2.046 2.041,-2.046l16.75,0c1.125,0 2.042,0.917 2.042,2.046c0,1.129 -0.917,2.046 -2.042,2.046l-16.75,0c-1.125,0 -2.041,-0.917 -2.041,-2.046Z" style="fill:#ddd;fill-rule:nonzero;"/><path d="M297,445.375c0,-1.129 0.917,-2.046 2.042,-2.046l16.75,0c1.125,0 2.041,0.917 2.041,2.046c0,1.129 -0.916,2.046 -2.041,2.046l-16.75,0c-1.125,0 -2.042,-0.917 -2.042,-2.046Z" style="fill:#ddd;fill-rule:nonzero;"/><path d="M194.958,430.513c0,-1.15 0.917,-2.084 2.084,-2.084c1.125,0 2.083,0.934 2.083,2.084c0,1.149 -0.958,2.083 -2.083,2.083c-1.167,0 -2.084,-0.934 -2.084,-2.084Z" style="fill:#ddd;fill-rule:nonzero;"/><path d="M246.167,430.588c0,-1.151 0.958,-2.084 2.083,-2.084c1.167,0 2.083,0.933 2.083,2.084c0,1.154 -0.916,2.083 -2.083,2.083c-1.125,0 -2.083,-0.929 -2.083,-2.083Z" style="fill:#ddd;fill-rule:nonzero;"/><path d="M289.708,445.413c0,-1.15 0.917,-2.084 2.084,-2.084c1.125,0 2.083,0.934 2.083,2.084c0,1.154 -0.958,2.083 -2.083,2.083c-1.167,0 -2.084,-0.929 -2.084,-2.084Z" style="fill:#ddd;fill-rule:nonzero;"/><path d="M321.083,445.413c0,-1.15 0.959,-2.084 2.084,-2.084c1.166,0 2.083,0.934 2.083,2.084c0,1.154 -0.917,2.083 -2.083,2.083c-1.125,0 -2.084,-0.929 -2.084,-2.084Z" style="fill:#ddd;fill-rule:nonzero;"/><path d="M329.167,445.413c0,-1.15 0.958,-2.084 2.083,-2.084c1.167,0 2.083,0.934 2.083,2.084c0,1.154 -0.916,2.083 -2.083,2.083c-1.125,0 -2.083,-0.929 -2.083,-2.084Z" style="fill:#ddd;fill-rule:nonzero;"/><path d="M236.833,445.413c0,-1.15 0.917,-2.084 2.084,-2.084c1.125,0 2.083,0.934 2.083,2.084c0,1.154 -0.958,2.083 -2.083,2.083c-1.167,0 -2.084,-0.929 -2.084,-2.084Z" style="fill:#ddd;fill-rule:nonzero;"/><path d="M218.208,459.913c0,-1.15 0.917,-2.084 2.084,-2.084c1.166,0 2.083,0.934 2.083,2.084c0,1.15 -0.917,2.083 -2.083,2.083c-1.167,0 -2.084,-0.933 -2.084,-2.084Z" style="fill:#ddd;fill-rule:nonzero;"/><path d="M172.042,459.875c0,-1.15 0.958,-2.083 2.083,-2.083c1.167,0 2.083,0.933 2.083,2.083c0,1.15 -0.916,2.083 -2.083,2.083c-1.125,0 -2.083,-0.933 -2.083,-2.083Z" style="fill:#ddd;fill-rule:nonzero;"/><path d="M247.625,459.913c0,-1.15 0.917,-2.084 2.083,-2.084c1.167,0 2.084,0.934 2.084,2.084c0,1.15 -0.917,2.083 -2.084,2.083c-1.166,0 -2.083,-0.933 -2.083,-2.084Z" style="fill:#ddd;fill-rule:nonzero;"/><path d="M225.333,459.875c0,-1.129 0.917,-2.046 2.042,-2.046l16.75,0c1.125,0 2.042,0.917 2.042,2.046c0,1.129 -0.917,2.042 -2.042,2.042l-16.75,0c-1.125,0 -2.042,-0.913 -2.042,-2.042Z" style="fill:#ddd;fill-rule:nonzero;"/><path d="M129.042,459.875c0,-1.129 0.916,-2.046 2.041,-2.046l37.584,0c1.125,0 2.041,0.917 2.041,2.046c0,1.129 -0.916,2.042 -2.041,2.042l-37.584,0c-1.125,0 -2.041,-0.913 -2.041,-2.042Z" style="fill:#ddd;fill-rule:nonzero;"/><path d="M245.083,445.375c0,-1.129 0.917,-2.046 2.042,-2.046l37.542,0c1.166,0 2.083,0.917 2.083,2.046c0,1.129 -0.917,2.046 -2.083,2.046l-37.542,0c-1.125,0 -2.042,-0.917 -2.042,-2.046Z" style="fill:#ddd;fill-rule:nonzero;"/><path d="M201.542,430.55c0,-1.129 0.916,-2.046 2.041,-2.046l37.584,0c1.125,0 2.041,0.917 2.041,2.046c0,1.129 -0.916,2.046 -2.041,2.046l-37.584,0c-1.125,0 -2.041,-0.917 -2.041,-2.046Z" style="fill:#ddd;fill-rule:nonzero;"/><path d="M177.5,459.875c0,-1.129 0.917,-2.046 2.042,-2.046l34.208,0c1.125,0 2.042,0.917 2.042,2.046c0,1.129 -0.917,2.042 -2.042,2.042l-34.208,0c-1.125,0 -2.042,-0.913 -2.042,-2.042Z" style="fill:#ddd;fill-rule:nonzero;"/><path d="M132.083,405.675c0,-5.754 4.667,-10.417 10.417,-10.417c5.75,0 10.417,4.663 10.417,10.417c0,5.754 -4.667,10.417 -10.417,10.417c-5.75,0 -10.417,-4.663 -10.417,-10.417Z" style="fill:#593f92;fill-rule:nonzero;"/><g><path d="M161.437,400.118l0,1.51l-2.486,0l0,7.818l-1.871,0l0,-7.818l-2.486,0l0,-1.51l6.843,0Z" style="fill:#593f92;fill-rule:nonzero;"/><path d="M166.969,401.935c0.562,0 1.061,0.123 1.497,0.368c0.437,0.245 0.777,0.606 1.022,1.082c0.245,0.477 0.368,1.049 0.368,1.718l0,4.343l-1.871,0l0,-4.09c0,-0.588 -0.147,-1.04 -0.441,-1.356c-0.294,-0.316 -0.695,-0.474 -1.203,-0.474c-0.516,0 -0.924,0.158 -1.223,0.474c-0.298,0.316 -0.447,0.768 -0.447,1.356l0,4.09l-1.871,0l0,-9.89l1.871,0l0,3.408c0.24,-0.32 0.561,-0.572 0.962,-0.755c0.401,-0.182 0.846,-0.274 1.336,-0.274Z" style="fill:#593f92;fill-rule:nonzero;"/><path d="M178.516,405.584c0,0.267 -0.018,0.507 -0.054,0.721l-5.412,0c0.045,0.535 0.232,0.954 0.561,1.257c0.33,0.302 0.735,0.454 1.216,0.454c0.695,0 1.19,-0.299 1.484,-0.896l2.018,0c-0.214,0.713 -0.624,1.299 -1.23,1.758c-0.606,0.459 -1.349,0.688 -2.231,0.688c-0.713,0 -1.352,-0.158 -1.918,-0.474c-0.566,-0.317 -1.007,-0.764 -1.323,-1.343c-0.317,-0.58 -0.475,-1.248 -0.475,-2.005c0,-0.766 0.156,-1.439 0.468,-2.018c0.312,-0.579 0.748,-1.025 1.31,-1.336c0.561,-0.312 1.207,-0.468 1.938,-0.468c0.703,0 1.334,0.151 1.891,0.454c0.556,0.303 0.988,0.733 1.296,1.29c0.307,0.557 0.461,1.196 0.461,1.918Zm-1.938,-0.535c-0.009,-0.481 -0.183,-0.866 -0.521,-1.156c-0.339,-0.289 -0.753,-0.434 -1.243,-0.434c-0.463,0 -0.853,0.14 -1.169,0.421c-0.317,0.28 -0.51,0.67 -0.582,1.169l3.515,0Z" style="fill:#593f92;fill-rule:nonzero;"/><path d="M188.82,400.118l0,1.51l-3.889,0l0,2.392l2.98,0l0,1.483l-2.98,0l0,3.943l-1.871,0l0,-9.328l5.76,0Z" style="fill:#593f92;fill-rule:nonzero;"/><path d="M192.014,403.191c0.24,-0.392 0.554,-0.699 0.942,-0.922c0.387,-0.222 0.83,-0.334 1.329,-0.334l0,1.965l-0.494,0c-0.588,0 -1.031,0.138 -1.33,0.414c-0.298,0.276 -0.447,0.757 -0.447,1.443l0,3.689l-1.871,0l0,-7.404l1.871,0l0,1.149Z" style="fill:#593f92;fill-rule:nonzero;"/><path d="M196.49,401.16c-0.329,0 -0.603,-0.105 -0.821,-0.314c-0.219,-0.209 -0.328,-0.47 -0.328,-0.782c0,-0.312 0.109,-0.572 0.328,-0.781c0.218,-0.21 0.492,-0.315 0.821,-0.315c0.33,0 0.604,0.105 0.822,0.315c0.219,0.209 0.328,0.469 0.328,0.781c0,0.312 -0.109,0.573 -0.328,0.782c-0.218,0.209 -0.492,0.314 -0.822,0.314Zm0.923,0.882l0,7.404l-1.871,0l0,-7.404l1.871,0Z" style="fill:#593f92;fill-rule:nonzero;"/><path d="M206.139,405.584c0,0.267 -0.018,0.507 -0.053,0.721l-5.413,0c0.045,0.535 0.232,0.954 0.562,1.257c0.329,0.302 0.735,0.454 1.216,0.454c0.695,0 1.189,-0.299 1.483,-0.896l2.018,0c-0.214,0.713 -0.623,1.299 -1.229,1.758c-0.606,0.459 -1.35,0.688 -2.232,0.688c-0.713,0 -1.352,-0.158 -1.918,-0.474c-0.566,-0.317 -1.007,-0.764 -1.323,-1.343c-0.316,-0.58 -0.474,-1.248 -0.474,-2.005c0,-0.766 0.156,-1.439 0.467,-2.018c0.312,-0.579 0.749,-1.025 1.31,-1.336c0.561,-0.312 1.207,-0.468 1.938,-0.468c0.704,0 1.334,0.151 1.891,0.454c0.557,0.303 0.989,0.733 1.296,1.29c0.308,0.557 0.461,1.196 0.461,1.918Zm-1.938,-0.535c-0.008,-0.481 -0.182,-0.866 -0.521,-1.156c-0.338,-0.289 -0.753,-0.434 -1.243,-0.434c-0.463,0 -0.853,0.14 -1.169,0.421c-0.316,0.28 -0.51,0.67 -0.581,1.169l3.514,0Z" style="fill:#593f92;fill-rule:nonzero;"/><path d="M211.605,401.935c0.882,0 1.595,0.279 2.138,0.836c0.544,0.556 0.816,1.334 0.816,2.332l0,4.343l-1.871,0l0,-4.09c0,-0.588 -0.147,-1.04 -0.441,-1.356c-0.294,-0.316 -0.695,-0.474 -1.203,-0.474c-0.517,0 -0.924,0.158 -1.223,0.474c-0.298,0.316 -0.448,0.768 -0.448,1.356l0,4.09l-1.871,0l0,-7.404l1.871,0l0,0.922c0.25,-0.32 0.568,-0.572 0.956,-0.755c0.387,-0.182 0.813,-0.274 1.276,-0.274Z" style="fill:#593f92;fill-rule:nonzero;"/><path d="M215.855,405.717c0,-0.748 0.149,-1.412 0.448,-1.991c0.298,-0.579 0.706,-1.025 1.222,-1.336c0.517,-0.312 1.092,-0.468 1.724,-0.468c0.481,0 0.94,0.105 1.377,0.314c0.436,0.209 0.784,0.488 1.042,0.835l0,-3.515l1.898,0l0,9.89l-1.898,0l0,-1.096c-0.231,0.365 -0.557,0.659 -0.975,0.882c-0.419,0.223 -0.905,0.334 -1.457,0.334c-0.624,0 -1.194,-0.16 -1.711,-0.481c-0.516,-0.321 -0.924,-0.773 -1.222,-1.356c-0.299,-0.584 -0.448,-1.254 -0.448,-2.012Zm5.827,0.027c0,-0.454 -0.089,-0.844 -0.268,-1.169c-0.178,-0.326 -0.418,-0.575 -0.721,-0.749c-0.303,-0.173 -0.628,-0.26 -0.976,-0.26c-0.347,0 -0.668,0.084 -0.962,0.254c-0.294,0.169 -0.532,0.416 -0.715,0.741c-0.183,0.325 -0.274,0.711 -0.274,1.156c0,0.446 0.091,0.836 0.274,1.17c0.183,0.334 0.423,0.59 0.722,0.768c0.298,0.178 0.617,0.267 0.955,0.267c0.348,0 0.673,-0.087 0.976,-0.26c0.303,-0.174 0.543,-0.423 0.721,-0.749c0.179,-0.325 0.268,-0.715 0.268,-1.169Z" style="fill:#593f92;fill-rule:nonzero;"/><rect x="225.397" y="399.556" width="1.871" height="9.889" style="fill:#593f92;fill-rule:nonzero;"/><path d="M236.195,402.042l-4.584,10.905l-1.991,0l1.603,-3.688l-2.966,-7.217l2.098,0l1.911,5.172l1.938,-5.172l1.991,0Z" style="fill:#593f92;fill-rule:nonzero;"/><path d="M239.923,404.768c0,-0.917 0.208,-1.739 0.622,-2.465c0.414,-0.726 0.98,-1.292 1.697,-1.697c0.717,-0.406 1.521,-0.609 2.412,-0.609c1.043,0 1.956,0.268 2.74,0.802c0.784,0.535 1.332,1.274 1.644,2.219l-2.152,0c-0.214,-0.446 -0.514,-0.78 -0.902,-1.003c-0.388,-0.222 -0.835,-0.334 -1.343,-0.334c-0.544,0 -1.027,0.127 -1.45,0.381c-0.423,0.254 -0.753,0.613 -0.989,1.076c-0.236,0.463 -0.354,1.007 -0.354,1.63c0,0.615 0.118,1.156 0.354,1.624c0.236,0.468 0.566,0.829 0.989,1.083c0.423,0.254 0.906,0.381 1.45,0.381c0.508,0 0.955,-0.114 1.343,-0.341c0.388,-0.227 0.688,-0.564 0.902,-1.009l2.152,0c-0.312,0.953 -0.858,1.695 -1.637,2.225c-0.78,0.53 -1.695,0.795 -2.747,0.795c-0.891,0 -1.695,-0.203 -2.412,-0.608c-0.717,-0.405 -1.283,-0.969 -1.697,-1.691c-0.414,-0.721 -0.622,-1.541 -0.622,-2.459Z" style="fill:#593f92;fill-rule:nonzero;"/><path d="M253.929,409.566c-0.713,0 -1.354,-0.158 -1.924,-0.474c-0.571,-0.317 -1.018,-0.764 -1.344,-1.343c-0.325,-0.58 -0.487,-1.248 -0.487,-2.005c0,-0.757 0.167,-1.425 0.501,-2.005c0.334,-0.579 0.79,-1.026 1.37,-1.343c0.579,-0.316 1.225,-0.474 1.937,-0.474c0.713,0 1.359,0.158 1.938,0.474c0.579,0.317 1.036,0.764 1.37,1.343c0.334,0.58 0.501,1.248 0.501,2.005c0,0.757 -0.171,1.425 -0.514,2.005c-0.343,0.579 -0.807,1.026 -1.39,1.343c-0.584,0.316 -1.236,0.474 -1.958,0.474Zm0,-1.63c0.338,0 0.657,-0.083 0.955,-0.248c0.299,-0.164 0.537,-0.412 0.715,-0.741c0.179,-0.33 0.268,-0.731 0.268,-1.203c0,-0.704 -0.185,-1.245 -0.555,-1.624c-0.37,-0.378 -0.822,-0.568 -1.356,-0.568c-0.535,0 -0.983,0.19 -1.343,0.568c-0.361,0.379 -0.542,0.92 -0.542,1.624c0,0.704 0.176,1.245 0.528,1.624c0.352,0.378 0.795,0.568 1.33,0.568Z" style="fill:#593f92;fill-rule:nonzero;"/><path d="M266.157,402.042l0,7.404l-1.884,0l0,-0.936c-0.241,0.321 -0.555,0.573 -0.942,0.755c-0.388,0.183 -0.809,0.274 -1.263,0.274c-0.58,0 -1.092,-0.122 -1.537,-0.367c-0.446,-0.245 -0.795,-0.606 -1.049,-1.083c-0.254,-0.476 -0.381,-1.044 -0.381,-1.704l0,-4.343l1.871,0l0,4.076c0,0.588 0.147,1.04 0.441,1.357c0.294,0.316 0.695,0.474 1.203,0.474c0.516,0 0.922,-0.158 1.216,-0.474c0.294,-0.317 0.441,-0.769 0.441,-1.357l0,-4.076l1.884,0Z" style="fill:#593f92;fill-rule:nonzero;"/><path d="M267.52,405.744c0,-0.766 0.156,-1.437 0.468,-2.011c0.312,-0.575 0.744,-1.02 1.296,-1.337c0.553,-0.316 1.185,-0.474 1.898,-0.474c0.918,0 1.677,0.229 2.278,0.688c0.602,0.459 1.005,1.103 1.21,1.931l-2.018,0c-0.107,-0.32 -0.287,-0.572 -0.541,-0.755c-0.254,-0.182 -0.568,-0.274 -0.943,-0.274c-0.534,0 -0.957,0.194 -1.269,0.582c-0.312,0.387 -0.468,0.937 -0.468,1.65c0,0.704 0.156,1.25 0.468,1.637c0.312,0.388 0.735,0.581 1.269,0.581c0.758,0 1.252,-0.338 1.484,-1.015l2.018,0c-0.205,0.802 -0.61,1.439 -1.216,1.911c-0.606,0.472 -1.363,0.708 -2.272,0.708c-0.713,0 -1.345,-0.158 -1.898,-0.474c-0.552,-0.317 -0.984,-0.762 -1.296,-1.337c-0.312,-0.574 -0.468,-1.245 -0.468,-2.011Z" style="fill:#593f92;fill-rule:nonzero;"/><path d="M280.216,401.935c0.561,0 1.06,0.123 1.497,0.368c0.436,0.245 0.777,0.606 1.022,1.082c0.245,0.477 0.368,1.049 0.368,1.718l0,4.343l-1.871,0l0,-4.09c0,-0.588 -0.147,-1.04 -0.441,-1.356c-0.294,-0.316 -0.695,-0.474 -1.203,-0.474c-0.517,0 -0.925,0.158 -1.223,0.474c-0.298,0.316 -0.448,0.768 -0.448,1.356l0,4.09l-1.871,0l0,-9.89l1.871,0l0,3.408c0.241,-0.32 0.562,-0.572 0.963,-0.755c0.4,-0.182 0.846,-0.274 1.336,-0.274Z" style="fill:#593f92;fill-rule:nonzero;"/></g></g><g><path d="M414.917,522.279c0,-4.725 35.875,-12.329 -22.459,-12.329l-220.708,0c-12.333,0 -22.333,10.013 -22.333,22.367l0,59.358c0,12.35 10,22.363 22.333,22.363l220.708,0c12.375,0 22.375,-10.013 22.375,-22.363l0,-65.575l0.084,-3.821Z" style="fill:#fff;fill-rule:nonzero;"/><path d="M397.5,560.888c0,-1.13 -0.917,-2.046 -2.083,-2.046l-58.375,0c-1.125,0 -2.042,0.916 -2.042,2.046c0,1.129 0.917,2.045 2.042,2.045l58.375,0c1.166,0 2.083,-0.916 2.083,-2.045Z" style="fill:#ddd;fill-rule:nonzero;"/><path d="M397.5,575.713c0,-1.13 -0.917,-2.046 -2.083,-2.046l-100.042,0c-1.125,0 -2.042,0.916 -2.042,2.046c0,1.129 0.917,2.045 2.042,2.045l100.042,0c1.166,0 2.083,-0.916 2.083,-2.045Z" style="fill:#ddd;fill-rule:nonzero;"/><path d="M272.833,560.888c0,-1.13 -0.916,-2.046 -2.041,-2.046l-100.084,0c-1.125,0 -2.041,0.916 -2.041,2.046c0,1.129 0.916,2.045 2.041,2.045l100.084,0c1.125,0 2.041,-0.916 2.041,-2.045Z" style="fill:#ddd;fill-rule:nonzero;"/><path d="M272.833,590.208c0,-1.129 -0.916,-2.041 -2.041,-2.041l-100.084,0c-1.125,0 -2.041,0.912 -2.041,2.041c0,1.13 0.916,2.046 2.041,2.046l100.084,0c1.125,0 2.041,-0.916 2.041,-2.046Z" style="fill:#ddd;fill-rule:nonzero;"/><path d="M189.5,575.713c0,-1.13 -0.917,-2.046 -2.042,-2.046l-16.75,0c-1.125,0 -2.041,0.916 -2.041,2.046c0,1.129 0.916,2.045 2.041,2.045l16.75,0c1.125,0 2.042,-0.916 2.042,-2.045Z" style="fill:#ddd;fill-rule:nonzero;"/><path d="M229.542,575.713c0,-1.13 -0.917,-2.046 -2.042,-2.046l-16.75,0c-1.125,0 -2.042,0.916 -2.042,2.046c0,1.129 0.917,2.045 2.042,2.045l16.75,0c1.125,0 2.042,-0.916 2.042,-2.045Z" style="fill:#ddd;fill-rule:nonzero;"/><path d="M331.583,560.85c0,-1.15 -0.916,-2.083 -2.083,-2.083c-1.125,0 -2.083,0.933 -2.083,2.083c0,1.15 0.958,2.083 2.083,2.083c1.167,0 2.083,-0.933 2.083,-2.083Z" style="fill:#ddd;fill-rule:nonzero;"/><path d="M280.375,560.925c0,-1.15 -0.958,-2.083 -2.083,-2.083c-1.167,0 -2.084,0.933 -2.084,2.083c0,1.15 0.917,2.083 2.084,2.083c1.125,0 2.083,-0.933 2.083,-2.083Z" style="fill:#ddd;fill-rule:nonzero;"/><path d="M236.833,575.75c0,-1.15 -0.916,-2.083 -2.083,-2.083c-1.125,0 -2.083,0.933 -2.083,2.083c0,1.15 0.958,2.083 2.083,2.083c1.167,0 2.083,-0.933 2.083,-2.083Z" style="fill:#ddd;fill-rule:nonzero;"/><path d="M205.417,575.75c0,-1.15 -0.917,-2.083 -2.084,-2.083c-1.125,0 -2.083,0.933 -2.083,2.083c0,1.15 0.958,2.083 2.083,2.083c1.167,0 2.084,-0.933 2.084,-2.083Z" style="fill:#ddd;fill-rule:nonzero;"/><path d="M197.375,575.75c0,-1.15 -0.958,-2.083 -2.083,-2.083c-1.167,0 -2.084,0.933 -2.084,2.083c0,1.15 0.917,2.083 2.084,2.083c1.125,0 2.083,-0.933 2.083,-2.083Z" style="fill:#ddd;fill-rule:nonzero;"/><path d="M289.708,575.75c0,-1.15 -0.916,-2.083 -2.083,-2.083c-1.125,0 -2.083,0.933 -2.083,2.083c0,1.15 0.958,2.083 2.083,2.083c1.167,0 2.083,-0.933 2.083,-2.083Z" style="fill:#ddd;fill-rule:nonzero;"/><path d="M308.333,590.25c0,-1.154 -0.916,-2.083 -2.083,-2.083c-1.167,0 -2.083,0.929 -2.083,2.083c0,1.15 0.916,2.083 2.083,2.083c1.167,0 2.083,-0.933 2.083,-2.083Z" style="fill:#ddd;fill-rule:nonzero;"/><path d="M354.5,590.208c0,-1.15 -0.958,-2.083 -2.083,-2.083c-1.167,0 -2.084,0.933 -2.084,2.083c0,1.154 0.917,2.084 2.084,2.084c1.125,0 2.083,-0.929 2.083,-2.084Z" style="fill:#ddd;fill-rule:nonzero;"/><path d="M278.917,590.25c0,-1.154 -0.917,-2.083 -2.084,-2.083c-1.166,0 -2.083,0.929 -2.083,2.083c0,1.15 0.917,2.083 2.083,2.083c1.167,0 2.084,-0.933 2.084,-2.083Z" style="fill:#ddd;fill-rule:nonzero;"/><path d="M301.208,590.208c0,-1.129 -0.916,-2.041 -2.041,-2.041l-16.75,0c-1.125,0 -2.042,0.912 -2.042,2.041c0,1.13 0.917,2.046 2.042,2.046l16.75,0c1.125,0 2.041,-0.916 2.041,-2.046Z" style="fill:#ddd;fill-rule:nonzero;"/><path d="M397.5,590.208c0,-1.129 -0.917,-2.041 -2.083,-2.041l-37.542,0c-1.125,0 -2.042,0.912 -2.042,2.041c0,1.13 0.917,2.046 2.042,2.046l37.542,0c1.166,0 2.083,-0.916 2.083,-2.046Z" style="fill:#ddd;fill-rule:nonzero;"/><path d="M281.458,575.713c0,-1.13 -0.916,-2.046 -2.041,-2.046l-37.584,0c-1.125,0 -2.041,0.916 -2.041,2.046c0,1.129 0.916,2.045 2.041,2.045l37.584,0c1.125,0 2.041,-0.916 2.041,-2.045Z" style="fill:#ddd;fill-rule:nonzero;"/><path d="M325,560.888c0,-1.13 -0.917,-2.046 -2.042,-2.046l-37.583,0c-1.125,0 -2.042,0.916 -2.042,2.046c0,1.129 0.917,2.045 2.042,2.045l37.583,0c1.125,0 2.042,-0.916 2.042,-2.045Z" style="fill:#ddd;fill-rule:nonzero;"/><path d="M349.042,590.208c0,-1.129 -0.917,-2.041 -2.042,-2.041l-34.208,0c-1.125,0 -2.042,0.912 -2.042,2.041c0,1.13 0.917,2.046 2.042,2.046l34.208,0c1.125,0 2.042,-0.916 2.042,-2.046Z" style="fill:#ddd;fill-rule:nonzero;"/><path d="M394.458,536.013c0,-5.755 -4.666,-10.417 -10.416,-10.417c-5.75,0 -10.417,4.662 -10.417,10.417c0,5.75 4.667,10.416 10.417,10.416c5.75,0 10.416,-4.667 10.416,-10.417Z" style="fill:#463174;fill-rule:nonzero;"/><g><path d="M335.767,530.7l-4.025,7.76l0,4.144l-2.387,0l0,-4.144l-4.042,-7.76l2.694,0l2.559,5.44l2.541,-5.44l2.66,0Z" style="fill:#593f92;fill-rule:nonzero;"/><path d="M341.344,542.758c-0.909,0 -1.728,-0.202 -2.456,-0.606c-0.727,-0.403 -1.299,-0.975 -1.714,-1.714c-0.415,-0.739 -0.622,-1.592 -0.622,-2.558c0,-0.966 0.213,-1.819 0.639,-2.558c0.427,-0.739 1.009,-1.311 1.748,-1.714c0.739,-0.404 1.564,-0.606 2.473,-0.606c0.91,0 1.734,0.202 2.473,0.606c0.739,0.403 1.322,0.975 1.748,1.714c0.427,0.739 0.64,1.592 0.64,2.558c0,0.966 -0.219,1.819 -0.657,2.558c-0.437,0.739 -1.029,1.311 -1.773,1.714c-0.745,0.404 -1.578,0.606 -2.499,0.606Zm0,-2.081c0.432,0 0.839,-0.105 1.22,-0.316c0.381,-0.21 0.685,-0.525 0.912,-0.946c0.227,-0.421 0.341,-0.932 0.341,-1.535c0,-0.898 -0.236,-1.589 -0.708,-2.072c-0.471,-0.483 -1.049,-0.725 -1.731,-0.725c-0.682,0 -1.253,0.242 -1.714,0.725c-0.46,0.483 -0.69,1.174 -0.69,2.072c0,0.898 0.224,1.589 0.673,2.072c0.449,0.483 1.015,0.725 1.697,0.725Z" style="fill:#593f92;fill-rule:nonzero;"/><path d="M356.949,533.156l0,9.448l-2.404,0l0,-1.194c-0.307,0.41 -0.708,0.731 -1.203,0.964c-0.494,0.233 -1.032,0.35 -1.611,0.35c-0.739,0 -1.393,-0.157 -1.962,-0.469c-0.568,-0.313 -1.014,-0.774 -1.339,-1.382c-0.324,-0.608 -0.486,-1.333 -0.486,-2.174l0,-5.543l2.388,0l0,5.202c0,0.75 0.188,1.327 0.563,1.731c0.375,0.403 0.887,0.605 1.535,0.605c0.659,0 1.177,-0.202 1.552,-0.605c0.375,-0.404 0.563,-0.981 0.563,-1.731l0,-5.202l2.404,0Z" style="fill:#593f92;fill-rule:nonzero;"/></g></g></g></g><g><path d="M108.958,655.729c0,-10.117 8.209,-18.316 18.334,-18.316l271.958,0c10.125,0 18.333,8.199 18.333,18.316l0,13.242c0,10.121 -8.208,18.321 -18.333,18.321l-271.958,0c-10.125,0 -18.334,-8.2 -18.334,-18.321l0,-13.242Z" style="fill:#f7f7f7;fill-rule:nonzero;"/><g><path d="M144.074,661.4l0,5.351c0,0.526 0.1,0.889 0.3,1.089c0.2,0.2 0.553,0.3 1.058,0.3l1.01,0l0,0.947l-1.184,0c-0.778,0 -1.357,-0.181 -1.736,-0.544c-0.379,-0.363 -0.568,-0.96 -0.568,-1.792l0,-5.351l-1.2,0l0,-0.931l1.2,0l0,-2.163l1.12,0l0,2.163l2.368,0l0,0.931l-2.368,0Z" style="fill:#ddd;fill-rule:nonzero;"/><path d="M155.361,660.469l-5.114,12.675l-1.153,0l1.673,-4.104l-3.536,-8.571l1.216,0l2.936,7.356l2.841,-7.356l1.137,0Z" style="fill:#ddd;fill-rule:nonzero;"/><path d="M157.95,662.363c0.274,-0.579 0.708,-1.06 1.302,-1.445c0.595,-0.384 1.303,-0.576 2.123,-0.576c0.779,0 1.482,0.182 2.108,0.545c0.626,0.363 1.115,0.879 1.468,1.547c0.352,0.668 0.529,1.444 0.529,2.328c0,0.884 -0.177,1.663 -0.529,2.337c-0.353,0.673 -0.842,1.194 -1.468,1.562c-0.626,0.369 -1.329,0.553 -2.108,0.553c-0.81,0 -1.515,-0.192 -2.115,-0.576c-0.6,-0.385 -1.036,-0.866 -1.31,-1.445l0,5.967l-1.089,0l0,-12.691l1.089,0l0,1.894Zm6.409,2.399c0,-0.715 -0.14,-1.334 -0.418,-1.855c-0.279,-0.52 -0.661,-0.918 -1.145,-1.191c-0.484,-0.274 -1.031,-0.411 -1.642,-0.411c-0.589,0 -1.128,0.142 -1.618,0.426c-0.489,0.285 -0.876,0.69 -1.16,1.216c-0.284,0.526 -0.426,1.136 -0.426,1.831c0,0.695 0.142,1.305 0.426,1.831c0.284,0.526 0.671,0.932 1.16,1.216c0.49,0.284 1.029,0.426 1.618,0.426c0.611,0 1.158,-0.14 1.642,-0.418c0.484,-0.279 0.866,-0.685 1.145,-1.216c0.278,-0.531 0.418,-1.15 0.418,-1.855Z" style="fill:#ddd;fill-rule:nonzero;"/><path d="M175.314,664.336c0,0.379 -0.01,0.668 -0.031,0.868l-7.151,0c0.031,0.653 0.189,1.21 0.473,1.674c0.284,0.463 0.658,0.812 1.121,1.049c0.463,0.237 0.968,0.355 1.515,0.355c0.716,0 1.319,-0.173 1.808,-0.52c0.489,-0.348 0.813,-0.816 0.971,-1.405l1.168,0c-0.211,0.841 -0.661,1.528 -1.35,2.06c-0.689,0.531 -1.555,0.797 -2.597,0.797c-0.81,0 -1.536,-0.182 -2.178,-0.545c-0.642,-0.363 -1.144,-0.879 -1.508,-1.547c-0.363,-0.668 -0.544,-1.449 -0.544,-2.344c0,-0.894 0.179,-1.679 0.537,-2.352c0.357,-0.674 0.857,-1.189 1.499,-1.547c0.642,-0.358 1.374,-0.537 2.194,-0.537c0.821,0 1.54,0.179 2.155,0.537c0.616,0.358 1.089,0.839 1.421,1.444c0.331,0.605 0.497,1.276 0.497,2.013Zm-1.121,-0.032c0.011,-0.641 -0.118,-1.189 -0.386,-1.641c-0.269,-0.453 -0.634,-0.795 -1.098,-1.026c-0.463,-0.232 -0.968,-0.348 -1.515,-0.348c-0.821,0 -1.521,0.263 -2.099,0.79c-0.579,0.526 -0.9,1.268 -0.963,2.225l6.061,0Z" style="fill:#ddd;fill-rule:nonzero;"/><path d="M181.155,664.762c0,-0.884 0.176,-1.66 0.529,-2.328c0.352,-0.668 0.841,-1.184 1.468,-1.547c0.626,-0.363 1.334,-0.545 2.123,-0.545c0.821,0 1.528,0.19 2.123,0.569c0.595,0.378 1.023,0.862 1.287,1.452l0,-1.894l1.105,0l0,8.618l-1.105,0l0,-1.91c-0.274,0.59 -0.708,1.076 -1.303,1.461c-0.594,0.384 -1.302,0.576 -2.123,0.576c-0.779,0 -1.481,-0.184 -2.107,-0.553c-0.627,-0.368 -1.116,-0.889 -1.468,-1.562c-0.353,-0.674 -0.529,-1.453 -0.529,-2.337Zm7.53,0.016c0,-0.695 -0.143,-1.305 -0.427,-1.831c-0.284,-0.526 -0.671,-0.931 -1.16,-1.216c-0.489,-0.284 -1.029,-0.426 -1.618,-0.426c-0.61,0 -1.158,0.137 -1.642,0.411c-0.484,0.273 -0.865,0.671 -1.144,1.191c-0.279,0.521 -0.418,1.14 -0.418,1.855c0,0.705 0.139,1.324 0.418,1.855c0.279,0.531 0.66,0.937 1.144,1.216c0.484,0.278 1.032,0.418 1.642,0.418c0.589,0 1.129,-0.142 1.618,-0.426c0.489,-0.284 0.876,-0.69 1.16,-1.216c0.284,-0.526 0.427,-1.136 0.427,-1.831Z" style="fill:#ddd;fill-rule:nonzero;"/><path d="M206.901,660.311c1.01,0 1.834,0.318 2.471,0.955c0.636,0.636 0.955,1.56 0.955,2.77l0,5.051l-1.09,0l0,-4.925c0,-0.936 -0.226,-1.652 -0.678,-2.146c-0.453,-0.495 -1.069,-0.742 -1.847,-0.742c-0.811,0 -1.458,0.268 -1.942,0.805c-0.484,0.536 -0.726,1.315 -0.726,2.336l0,4.672l-1.089,0l0,-4.925c0,-0.936 -0.227,-1.652 -0.679,-2.146c-0.453,-0.495 -1.073,-0.742 -1.863,-0.742c-0.81,0 -1.457,0.268 -1.941,0.805c-0.484,0.536 -0.727,1.315 -0.727,2.336l0,4.672l-1.105,0l0,-8.618l1.105,0l0,1.483c0.274,-0.536 0.663,-0.944 1.169,-1.223c0.505,-0.279 1.068,-0.418 1.689,-0.418c0.747,0 1.402,0.179 1.965,0.536c0.563,0.358 0.971,0.884 1.223,1.579c0.232,-0.684 0.629,-1.208 1.192,-1.571c0.563,-0.363 1.203,-0.544 1.918,-0.544Z" style="fill:#ddd;fill-rule:nonzero;"/><path d="M220.571,664.336c0,0.379 -0.01,0.668 -0.031,0.868l-7.151,0c0.032,0.653 0.189,1.21 0.474,1.674c0.284,0.463 0.657,0.812 1.12,1.049c0.463,0.237 0.969,0.355 1.516,0.355c0.715,0 1.318,-0.173 1.807,-0.52c0.49,-0.348 0.813,-0.816 0.971,-1.405l1.168,0c-0.21,0.841 -0.66,1.528 -1.349,2.06c-0.69,0.531 -1.555,0.797 -2.597,0.797c-0.811,0 -1.537,-0.182 -2.179,-0.545c-0.642,-0.363 -1.144,-0.879 -1.507,-1.547c-0.363,-0.668 -0.545,-1.449 -0.545,-2.344c0,-0.894 0.179,-1.679 0.537,-2.352c0.358,-0.674 0.858,-1.189 1.5,-1.547c0.642,-0.358 1.373,-0.537 2.194,-0.537c0.821,0 1.539,0.179 2.155,0.537c0.615,0.358 1.089,0.839 1.42,1.444c0.332,0.605 0.497,1.276 0.497,2.013Zm-1.12,-0.032c0.01,-0.641 -0.119,-1.189 -0.387,-1.641c-0.268,-0.453 -0.634,-0.795 -1.097,-1.026c-0.463,-0.232 -0.968,-0.348 -1.516,-0.348c-0.82,0 -1.52,0.263 -2.099,0.79c-0.579,0.526 -0.9,1.268 -0.963,2.225l6.062,0Z" style="fill:#ddd;fill-rule:nonzero;"/><path d="M225.56,669.214c-0.989,0 -1.797,-0.229 -2.423,-0.687c-0.627,-0.458 -0.976,-1.081 -1.05,-1.87l1.136,0c0.053,0.484 0.282,0.876 0.687,1.176c0.405,0.299 0.95,0.449 1.634,0.449c0.6,0 1.071,-0.142 1.413,-0.426c0.342,-0.284 0.513,-0.636 0.513,-1.057c0,-0.295 -0.095,-0.537 -0.284,-0.727c-0.19,-0.189 -0.429,-0.339 -0.719,-0.449c-0.289,-0.111 -0.681,-0.229 -1.176,-0.356c-0.642,-0.168 -1.162,-0.336 -1.562,-0.505c-0.4,-0.168 -0.74,-0.418 -1.019,-0.75c-0.278,-0.331 -0.418,-0.776 -0.418,-1.333c0,-0.421 0.126,-0.811 0.379,-1.169c0.253,-0.357 0.61,-0.642 1.073,-0.852c0.463,-0.21 0.99,-0.316 1.579,-0.316c0.926,0 1.673,0.234 2.242,0.703c0.568,0.468 0.873,1.113 0.915,1.933l-1.105,0c-0.031,-0.505 -0.229,-0.912 -0.592,-1.223c-0.363,-0.31 -0.86,-0.466 -1.492,-0.466c-0.557,0 -1.01,0.132 -1.357,0.395c-0.347,0.263 -0.521,0.589 -0.521,0.979c0,0.337 0.102,0.613 0.308,0.828c0.205,0.216 0.46,0.385 0.765,0.506c0.306,0.121 0.716,0.255 1.232,0.402c0.62,0.169 1.115,0.332 1.483,0.49c0.369,0.157 0.684,0.389 0.948,0.694c0.263,0.305 0.399,0.71 0.41,1.216c0,0.463 -0.126,0.876 -0.379,1.239c-0.252,0.363 -0.605,0.65 -1.057,0.86c-0.453,0.211 -0.974,0.316 -1.563,0.316Z" style="fill:#ddd;fill-rule:nonzero;"/><path d="M233.61,669.214c-0.989,0 -1.797,-0.229 -2.423,-0.687c-0.626,-0.458 -0.976,-1.081 -1.049,-1.87l1.136,0c0.053,0.484 0.282,0.876 0.687,1.176c0.405,0.299 0.95,0.449 1.634,0.449c0.599,0 1.07,-0.142 1.412,-0.426c0.342,-0.284 0.513,-0.636 0.513,-1.057c0,-0.295 -0.094,-0.537 -0.284,-0.727c-0.189,-0.189 -0.429,-0.339 -0.718,-0.449c-0.289,-0.111 -0.681,-0.229 -1.176,-0.356c-0.642,-0.168 -1.163,-0.336 -1.563,-0.505c-0.4,-0.168 -0.739,-0.418 -1.018,-0.75c-0.279,-0.331 -0.418,-0.776 -0.418,-1.333c0,-0.421 0.126,-0.811 0.379,-1.169c0.252,-0.357 0.61,-0.642 1.073,-0.852c0.463,-0.21 0.989,-0.316 1.579,-0.316c0.926,0 1.673,0.234 2.241,0.703c0.568,0.468 0.874,1.113 0.916,1.933l-1.105,0c-0.032,-0.505 -0.229,-0.912 -0.592,-1.223c-0.363,-0.31 -0.861,-0.466 -1.492,-0.466c-0.558,0 -1.01,0.132 -1.358,0.395c-0.347,0.263 -0.52,0.589 -0.52,0.979c0,0.337 0.102,0.613 0.307,0.828c0.206,0.216 0.461,0.385 0.766,0.506c0.305,0.121 0.716,0.255 1.231,0.402c0.621,0.169 1.116,0.332 1.484,0.49c0.368,0.157 0.684,0.389 0.947,0.694c0.263,0.305 0.4,0.71 0.411,1.216c0,0.463 -0.127,0.876 -0.379,1.239c-0.253,0.363 -0.605,0.65 -1.058,0.86c-0.452,0.211 -0.973,0.316 -1.563,0.316Z" style="fill:#ddd;fill-rule:nonzero;"/><path d="M238.188,664.762c0,-0.884 0.177,-1.66 0.529,-2.328c0.353,-0.668 0.842,-1.184 1.468,-1.547c0.626,-0.363 1.334,-0.545 2.123,-0.545c0.821,0 1.529,0.19 2.123,0.569c0.595,0.378 1.024,0.862 1.287,1.452l0,-1.894l1.105,0l0,8.618l-1.105,0l0,-1.91c-0.274,0.59 -0.708,1.076 -1.302,1.461c-0.595,0.384 -1.303,0.576 -2.123,0.576c-0.779,0 -1.482,-0.184 -2.108,-0.553c-0.626,-0.368 -1.115,-0.889 -1.468,-1.562c-0.352,-0.674 -0.529,-1.453 -0.529,-2.337Zm7.53,0.016c0,-0.695 -0.142,-1.305 -0.426,-1.831c-0.284,-0.526 -0.671,-0.931 -1.16,-1.216c-0.49,-0.284 -1.029,-0.426 -1.619,-0.426c-0.61,0 -1.157,0.137 -1.641,0.411c-0.484,0.273 -0.866,0.671 -1.145,1.191c-0.279,0.521 -0.418,1.14 -0.418,1.855c0,0.705 0.139,1.324 0.418,1.855c0.279,0.531 0.661,0.937 1.145,1.216c0.484,0.278 1.031,0.418 1.641,0.418c0.59,0 1.129,-0.142 1.619,-0.426c0.489,-0.284 0.876,-0.69 1.16,-1.216c0.284,-0.526 0.426,-1.136 0.426,-1.831Z" style="fill:#ddd;fill-rule:nonzero;"/><path d="M252.964,660.342c0.81,0 1.515,0.19 2.115,0.569c0.6,0.378 1.031,0.857 1.294,1.436l0,-1.878l1.105,0l0,8.839c0,0.79 -0.171,1.49 -0.513,2.1c-0.342,0.61 -0.818,1.081 -1.428,1.413c-0.611,0.331 -1.305,0.497 -2.084,0.497c-1.105,0 -2.023,-0.263 -2.755,-0.789c-0.731,-0.526 -1.186,-1.242 -1.365,-2.147l1.089,0c0.19,0.6 0.55,1.079 1.081,1.436c0.532,0.358 1.182,0.537 1.95,0.537c0.558,0 1.058,-0.118 1.5,-0.355c0.442,-0.237 0.789,-0.587 1.041,-1.05c0.253,-0.463 0.379,-1.01 0.379,-1.642l0,-2.131c-0.273,0.59 -0.707,1.076 -1.302,1.461c-0.595,0.384 -1.297,0.576 -2.107,0.576c-0.79,0 -1.497,-0.184 -2.124,-0.553c-0.626,-0.368 -1.115,-0.889 -1.468,-1.562c-0.352,-0.674 -0.528,-1.453 -0.528,-2.337c0,-0.884 0.176,-1.66 0.528,-2.328c0.353,-0.668 0.842,-1.184 1.468,-1.547c0.627,-0.363 1.334,-0.545 2.124,-0.545Zm3.409,4.436c0,-0.695 -0.142,-1.305 -0.426,-1.831c-0.284,-0.526 -0.671,-0.931 -1.16,-1.216c-0.49,-0.284 -1.029,-0.426 -1.618,-0.426c-0.611,0 -1.158,0.137 -1.642,0.411c-0.484,0.273 -0.865,0.671 -1.144,1.191c-0.279,0.521 -0.419,1.14 -0.419,1.855c0,0.705 0.14,1.324 0.419,1.855c0.279,0.531 0.66,0.937 1.144,1.216c0.484,0.278 1.031,0.418 1.642,0.418c0.589,0 1.128,-0.142 1.618,-0.426c0.489,-0.284 0.876,-0.69 1.16,-1.216c0.284,-0.526 0.426,-1.136 0.426,-1.831Z" style="fill:#ddd;fill-rule:nonzero;"/><path d="M267.802,664.336c0,0.379 -0.01,0.668 -0.032,0.868l-7.15,0c0.031,0.653 0.189,1.21 0.473,1.674c0.284,0.463 0.658,0.812 1.121,1.049c0.463,0.237 0.968,0.355 1.515,0.355c0.716,0 1.318,-0.173 1.808,-0.52c0.489,-0.348 0.813,-0.816 0.971,-1.405l1.168,0c-0.211,0.841 -0.661,1.528 -1.35,2.06c-0.689,0.531 -1.555,0.797 -2.597,0.797c-0.81,0 -1.536,-0.182 -2.178,-0.545c-0.642,-0.363 -1.144,-0.879 -1.508,-1.547c-0.363,-0.668 -0.544,-1.449 -0.544,-2.344c0,-0.894 0.179,-1.679 0.537,-2.352c0.357,-0.674 0.857,-1.189 1.499,-1.547c0.642,-0.358 1.374,-0.537 2.194,-0.537c0.821,0 1.539,0.179 2.155,0.537c0.616,0.358 1.089,0.839 1.421,1.444c0.331,0.605 0.497,1.276 0.497,2.013Zm-1.121,-0.032c0.011,-0.641 -0.118,-1.189 -0.386,-1.641c-0.269,-0.453 -0.635,-0.795 -1.098,-1.026c-0.463,-0.232 -0.968,-0.348 -1.515,-0.348c-0.821,0 -1.521,0.263 -2.099,0.79c-0.579,0.526 -0.9,1.268 -0.963,2.225l6.061,0Z" style="fill:#ddd;fill-rule:nonzero;"/></g></g></g></g></g></svg>