<?xml version="1.0" encoding="UTF-8" standalone="no"?>
<!DOCTYPE svg PUBLIC "-//W3C//DTD SVG 1.1//EN" "http://www.w3.org/Graphics/SVG/1.1/DTD/svg11.dtd">
<!-- Created with Vectornator (http://vectornator.io/) -->
<svg height="100%" stroke-miterlimit="10" style="fill-rule:nonzero;clip-rule:evenodd;stroke-linecap:round;stroke-linejoin:round;" version="1.1" viewBox="82.2584 158.62 263.483 175.631" width="100%" xml:space="preserve" xmlns="http://www.w3.org/2000/svg" xmlns:vectornator="http://vectornator.io" xmlns:xlink="http://www.w3.org/1999/xlink">
<defs>
<filter color-interpolation-filters="sRGB" filterUnits="userSpaceOnUse" height="58.2976" id="Filter" width="58.6009" x="198.616" y="273.353">
<feDropShadow dx="-0" dy="0" flood-color="#000000" flood-opacity="0.333" in="SourceGraphic" result="Shadow" stdDeviation="0"/>
</filter>
</defs>
<clipPath id="ArtboardFrame">
<rect height="175.631" width="263.483" x="82.2584" y="158.62"/>
</clipPath>
<g clip-path="url(#ArtboardFrame)" id="Layer" vectornator:layerName="Layer">
<g opacity="1" vectornator:layerName="Group 1">
<g opacity="1" vectornator:layerName="Group 10">
<g opacity="1" vectornator:layerName="undraw_profile_data_re_v81r">
<path d="M116.683 329.847C116.683 327.416 146.721 325.445 183.774 325.445C220.828 325.445 250.865 327.416 250.865 329.847C250.865 332.279 220.828 334.25 183.774 334.25C146.721 334.25 116.683 332.279 116.683 329.847Z" fill="#c0a3ff" fill-rule="nonzero" opacity="1" stroke="none" vectornator:layerName="ellipse"/>
<path d="M254.218 235.307C253.915 236.924 253.551 238.524 253.126 240.108C253.08 240.292 253.028 240.473 252.977 240.657L247.07 240.657C246.023 240.658 245.174 241.517 245.173 242.578L245.173 259.628C244.994 259.965 244.812 260.3 244.631 260.635C243.693 262.364 242.717 264.074 241.719 265.762C225.453 293.197 176.086 328.86 175.498 328.818C162.69 327.932 149.838 326.949 137.331 324.034C124.246 320.985 111.446 315.696 101.191 306.927C90.9335 298.155 83.414 285.628 82.3703 272.075C82.0223 267.417 82.4875 262.734 83.7447 258.239C86.1491 249.588 91.4026 241.804 98.9819 237.198C110.887 229.966 126.417 231.44 138.968 237.456C151.516 243.47 161.73 253.425 171.703 263.207C161.634 245.724 147.615 230.908 130.795 219.973C125.222 216.361 119.307 213.144 114.569 208.464C109.833 203.787 106.339 197.23 107.176 190.586C108.128 183.049 114.224 177.329 120.332 172.918C122.771 171.156 125.29 169.484 127.887 167.947C135.214 163.6 143.14 160.32 151.511 159.104C162.85 157.455 175.097 159.958 183.79 167.511C193.584 176.022 197.602 189.748 197.22 202.879C203.254 193.997 212.56 187.199 223.069 186.91C233.98 186.614 244.351 193.594 249.816 203.162C255.278 212.727 256.26 224.452 254.218 235.307Z" fill="#e6e6e6" fill-rule="nonzero" opacity="1" stroke="none" vectornator:layerName="path"/>
<path d="M185.187 272.194C191.577 271.625 197.481 270.959 203.673 269.185C209.676 267.465 215.452 264.586 219.725 259.885C224.321 254.829 226.802 248.263 228.552 241.726C229.528 238.082 230.33 234.386 231.087 230.69C231.908 226.679 232.637 222.65 233.275 218.604C234.545 210.55 235.452 202.448 235.995 194.299C236.061 193.31 236.121 192.32 236.175 191.33C236.209 190.72 235.271 190.722 235.237 191.33C234.791 199.363 233.988 207.364 232.829 215.334C231.685 223.165 230.221 230.962 228.364 238.652C226.79 245.167 224.753 251.783 220.718 257.207C216.934 262.292 211.468 265.616 205.567 267.603C199.562 269.625 193.23 270.432 186.955 271.032C186.185 271.106 185.957 271.176 185.187 271.245C184.59 271.298 184.585 272.248 185.187 272.194Z" fill="#593f92" fill-rule="nonzero" opacity="1" stroke="none" vectornator:layerName="path"/>
<path d="M84.2861 258.94C92.3488 259.393 100.33 260.816 108.06 263.181C115.793 265.541 123.224 268.817 130.2 272.939C136.94 276.926 143.198 281.696 148.845 287.153C154.325 292.452 159.21 298.349 163.409 304.736C167.627 311.139 171.123 318.001 173.831 325.193C174.161 326.073 174.54 327.883 174.846 328.772C175.043 329.346 176.139 328.678 175.939 328.099C173.406 320.755 169.816 313.218 165.733 306.629C161.651 300.039 156.859 293.927 151.447 288.406C145.948 282.8 139.828 277.855 133.209 273.669C119.311 264.904 103.557 259.601 87.2417 258.196C86.2576 258.113 85.2723 258.044 84.2861 257.99C83.6829 257.957 83.6848 258.906 84.2861 258.94Z" fill="#593f92" fill-rule="nonzero" opacity="1" stroke="none" vectornator:layerName="path"/>
<path d="M128.14 169.061C133.295 170.721 138.182 173.138 142.643 176.236C147.202 179.424 151.359 183.162 155.023 187.369C158.885 191.794 162.318 196.585 165.275 201.674C168.412 207.048 171.137 212.658 173.427 218.454C175.784 224.405 177.767 230.5 179.363 236.705C180.985 242.983 182.253 249.349 183.159 255.774C184.06 262.129 184.605 268.532 184.792 274.95C184.981 281.088 184.802 287.231 184.256 293.346C183.757 299.052 182.845 304.712 181.528 310.283C180.359 315.314 178.71 320.218 176.607 324.927C176.119 325.996 175.602 327.05 175.055 328.089C174.772 328.629 175.246 329.767 175.53 329.227C177.855 324.729 180.047 319.34 181.405 314.453C182.928 309.013 184.032 303.461 184.708 297.848C185.456 291.758 185.821 285.626 185.799 279.489C185.786 273.042 185.407 266.601 184.664 260.197C183.921 253.714 182.818 247.278 181.359 240.921C179.905 234.553 178.06 228.283 175.835 222.147C173.69 216.208 171.123 210.434 168.152 204.871C165.323 199.563 162.026 194.524 158.301 189.816C154.763 185.334 150.725 181.282 146.266 177.741C141.966 174.337 137.215 171.562 132.152 169.498C130.915 168.999 129.661 168.548 128.389 168.145C127.812 167.961 127.565 168.878 128.14 169.061Z" fill="#593f92" fill-rule="nonzero" opacity="1" stroke="none" vectornator:layerName="path"/>
<path d="M343.302 240.108L247.07 240.108C245.724 240.11 244.633 241.215 244.631 242.578L244.631 305.157C244.633 306.52 245.724 307.625 247.07 307.627L343.302 307.627C344.648 307.625 345.74 306.52 345.742 305.157L345.742 242.578C345.74 241.215 344.648 240.11 343.302 240.108ZM345.199 305.157C345.198 306.217 344.349 307.077 343.302 307.078L247.07 307.078C246.023 307.077 245.174 306.217 245.173 305.157L245.173 242.578C245.174 241.517 246.023 240.658 247.07 240.657L343.302 240.657C344.349 240.658 345.198 241.517 345.199 242.578L345.199 305.157Z" fill="#ffffff" fill-rule="nonzero" opacity="1" stroke="none" vectornator:layerName="path"/>
<path d="M267.611 271.259L252.431 271.259C251.159 271.257 250.128 270.213 250.127 268.926L250.127 253.555C250.128 252.268 251.159 251.224 252.431 251.222L267.611 251.222C268.883 251.224 269.914 252.268 269.915 253.555L269.915 268.926C269.914 270.213 268.883 271.257 267.611 271.259Z" fill="#c0a3ff" fill-rule="nonzero" opacity="1" stroke="none" vectornator:layerName="path"/>
<path d="M338.29 287.592L252.088 287.592C251.115 287.592 250.326 286.793 250.326 285.808C250.326 284.823 251.115 284.024 252.088 284.024L338.29 284.024C339.263 284.024 340.052 284.823 340.052 285.808C340.052 286.793 339.263 287.592 338.29 287.592Z" fill="#ffffff" fill-rule="nonzero" opacity="1" stroke="none" vectornator:layerName="path"/>
<path d="M338.348 278.946L252.146 278.946C251.173 278.946 250.384 278.147 250.384 277.162C250.384 276.177 251.173 275.378 252.146 275.378L338.348 275.378C339.321 275.378 340.11 276.177 340.11 277.162C340.11 278.147 339.321 278.946 338.348 278.946Z" fill="#ffffff" fill-rule="nonzero" opacity="1" stroke="none" vectornator:layerName="path"/>
<path d="M295.789 267.141L283.049 267.141C282.075 267.141 281.287 266.343 281.287 265.357C281.287 264.372 282.075 263.573 283.049 263.573L295.789 263.573C296.762 263.573 297.551 264.372 297.551 265.357C297.551 266.343 296.762 267.141 295.789 267.141Z" fill="#ffffff" fill-rule="nonzero" opacity="1" stroke="none" vectornator:layerName="path"/>
<path d="M338.348 258.361L283.049 258.361C282.075 258.361 281.287 257.562 281.287 256.577C281.287 255.592 282.075 254.793 283.049 254.793L338.348 254.793C339.321 254.793 340.11 255.592 340.11 256.577C340.11 257.562 339.321 258.361 338.348 258.361Z" fill="#ffffff" fill-rule="nonzero" opacity="1" stroke="none" vectornator:layerName="path"/>
<path d="M293.621 296.375L252.088 296.375C251.115 296.375 250.326 295.576 250.326 294.591C250.326 293.606 251.115 292.807 252.088 292.807L293.621 292.807C294.594 292.807 295.382 293.606 295.382 294.591C295.382 295.576 294.594 296.375 293.621 296.375Z" fill="#ffffff" fill-rule="nonzero" opacity="1" stroke="none" vectornator:layerName="path"/>
</g>
<g filter="url(#Filter)" vectornator:layerName="Group 10" vectornator:shadowAngle="2.0207" vectornator:shadowColor="#000000" vectornator:shadowOffset="0" vectornator:shadowOpacity="0.333" vectornator:shadowRadius="0">
<path d="M199.206 302.45C199.206 286.706 212.06 273.943 227.916 273.943C243.773 273.943 256.627 286.706 256.627 302.45C256.627 318.194 256.627 329.491 227.916 330.957C199.239 332.421 199.206 318.194 199.206 302.45Z" fill="#ffffff" fill-rule="nonzero" opacity="1" stroke="#463174" stroke-linecap="butt" stroke-linejoin="round" stroke-width="1.18" vectornator:layerName="Oval 2"/>
<path d="M224.3 315.584C224.3 313.883 226.108 314.172 227.916 314.172C229.724 314.172 231.532 313.883 231.532 315.584C231.532 317.284 229.913 318.663 227.916 318.663C225.919 318.663 224.3 317.284 224.3 315.584Z" fill="#463174" fill-rule="nonzero" opacity="1" stroke="none" vectornator:layerName="Oval 4"/>
<g opacity="1" vectornator:layerName="Group 4">
<g opacity="1" vectornator:layerName="Group 2">
<path d="M213.352 303.51C213.352 301.486 214.894 299.846 216.796 299.846C218.699 299.846 220.241 301.486 220.241 303.51C220.241 305.533 218.699 307.173 216.796 307.173C214.894 307.173 213.352 305.533 213.352 303.51Z" fill="#463174" fill-rule="nonzero" opacity="1" stroke="none" vectornator:layerName="Oval 4"/>
<path d="M216.796 302.189C216.796 301.459 217.46 300.868 218.278 300.868C219.097 300.868 219.76 301.459 219.76 302.189C219.76 302.918 219.097 303.51 218.278 303.51C217.46 303.51 216.796 302.918 216.796 302.189Z" fill="#ffffff" fill-rule="nonzero" opacity="1" stroke="none" vectornator:layerName="Oval 7"/>
</g>
<g opacity="1" vectornator:layerName="Group 1">
<path d="M236.912 303.51C236.912 301.486 238.454 299.846 240.356 299.846C242.258 299.846 243.8 301.486 243.8 303.51C243.8 305.533 242.258 307.173 240.356 307.173C238.454 307.173 236.912 305.533 236.912 303.51Z" fill="#463174" fill-rule="nonzero" opacity="1" stroke="none" vectornator:layerName="Oval 4"/>
<path d="M240.356 302.189C240.356 301.459 241.019 300.868 241.838 300.868C242.656 300.868 243.32 301.459 243.32 302.189C243.32 302.918 242.656 303.51 241.838 303.51C241.019 303.51 240.356 302.918 240.356 302.189Z" fill="#ffffff" fill-rule="nonzero" opacity="1" stroke="none" vectornator:layerName="Oval 7"/>
</g>
</g>
</g>
</g>
<path d="M291.879 194.468L277.913 194.468C276.431 194.467 275.229 193.265 275.228 191.783L275.228 177.817C275.229 176.335 276.431 175.133 277.913 175.132L291.879 175.132C293.361 175.133 294.563 176.335 294.565 177.817L294.565 191.783C294.563 193.265 293.361 194.467 291.879 194.468ZM277.913 176.206C277.024 176.207 276.303 176.928 276.302 177.817L276.302 191.783C276.303 192.672 277.024 193.393 277.913 193.394L291.879 193.394C292.768 193.393 293.489 192.672 293.49 191.783L293.49 177.817C293.489 176.928 292.768 176.207 291.879 176.206L277.913 176.206Z" fill="#d1bef9" fill-rule="nonzero" opacity="1" stroke="none" vectornator:layerName="path"/>
<path d="M298.324 185.337L284.359 185.337C282.876 185.335 281.675 184.134 281.673 182.651L281.673 168.686C281.675 167.203 282.876 166.002 284.359 166L298.324 166C299.807 166.002 301.008 167.203 301.01 168.686L301.01 182.651C301.008 184.134 299.807 185.335 298.324 185.337ZM284.359 167.075C283.469 167.076 282.749 167.796 282.748 168.686L282.748 182.651C282.749 183.541 283.469 184.262 284.359 184.263L298.324 184.263C299.214 184.262 299.935 183.541 299.936 182.651L299.936 168.686C299.935 167.796 299.214 167.076 298.324 167.075L284.359 167.075Z" fill="#d1bef9" fill-rule="nonzero" opacity="1" stroke="none" vectornator:layerName="path"/>
<path d="M314.299 219.686C314.299 218.144 315.543 216.894 317.078 216.894C318.612 216.894 319.857 218.144 319.857 219.686C319.857 221.227 318.612 222.477 317.078 222.477C315.543 222.477 314.299 221.227 314.299 219.686Z" fill="#ffffff" fill-rule="nonzero" opacity="1" stroke="none" vectornator:layerName="Oval 2"/>
<path d="M232.743 164.739C232.743 163.66 233.614 162.785 234.689 162.785C235.764 162.785 236.635 163.66 236.635 164.739C236.635 165.819 235.764 166.694 234.689 166.694C233.614 166.694 232.743 165.819 232.743 164.739Z" fill="#ffffff" fill-rule="nonzero" opacity="1" stroke="none" vectornator:layerName="Oval 3"/>
<path d="M82.2584 317.967C82.2584 316.212 83.6744 314.79 85.4212 314.79C87.1679 314.79 88.5839 316.212 88.5839 317.967C88.5839 319.722 87.1679 321.144 85.4212 321.144C83.6744 321.144 82.2584 319.722 82.2584 317.967Z" fill="#ffffff" fill-rule="nonzero" opacity="1" stroke="none" vectornator:layerName="Oval 4"/>
<path d="M91.1451 210.663C91.1451 209.376 92.1837 208.333 93.465 208.333C94.7462 208.333 95.7848 209.376 95.7848 210.663C95.7848 211.95 94.7462 212.994 93.465 212.994C92.1837 212.994 91.1451 211.95 91.1451 210.663Z" fill="#ffffff" fill-rule="nonzero" opacity="1" stroke="none" vectornator:layerName="Oval 1"/>
</g>
</g>
</svg>
