<?xml version="1.0" encoding="UTF-8" standalone="no"?>
<!DOCTYPE svg PUBLIC "-//W3C//DTD SVG 1.1//EN" "http://www.w3.org/Graphics/SVG/1.1/DTD/svg11.dtd">
<!-- Created with Vectornator (http://vectornator.io/) -->
<svg height="100%" stroke-miterlimit="10" style="fill-rule:nonzero;clip-rule:evenodd;stroke-linecap:round;stroke-linejoin:round;" version="1.1" viewBox="508.965 115.365 190.354 117.491" width="100%" xml:space="preserve" xmlns="http://www.w3.org/2000/svg" xmlns:vectornator="http://vectornator.io" xmlns:xlink="http://www.w3.org/1999/xlink">
<defs/>
<clipPath id="ArtboardFrame">
<rect height="117.491" width="190.354" x="508.965" y="115.365"/>
</clipPath>
<g clip-path="url(#ArtboardFrame)" id="Layer" vectornator:layerName="Layer">
<g opacity="1" vectornator:layerName="Group 26">
<path d="M518.616 224.894C518.616 220.497 556.907 216.932 604.142 216.932C651.377 216.932 689.669 220.497 689.669 224.894C689.669 229.291 651.377 232.856 604.142 232.856C556.907 232.856 518.616 229.291 518.616 224.894Z" fill="#593f92" fill-rule="nonzero" opacity="1" stroke="none" vectornator:layerName="Oval 2"/>
<g opacity="1" vectornator:layerName="Group 1">
<path d="M518.566 179.407C518.566 165.038 531.287 153.389 546.98 153.389L660.693 153.389C676.386 153.389 689.108 165.038 689.108 179.407L689.108 186.702C689.108 201.072 676.386 212.72 660.693 212.72L546.98 212.72C531.287 212.72 518.566 201.072 518.566 186.702L518.566 179.407Z" fill="#d1bef9" fill-rule="nonzero" opacity="1" stroke="#463174" stroke-linecap="butt" stroke-linejoin="round" stroke-width="2.16483" vectornator:layerName="Rectangle 1"/>
<path d="M518.506 166.395C518.508 102.859 538.72 117.824 606.149 117.824C673.578 117.824 690.815 105.194 689.048 166.395C688.439 187.499 646.412 187.508 603.777 187.508C561.141 187.508 518.505 187.893 518.506 166.395Z" fill="#d1bef9" fill-rule="nonzero" opacity="1" stroke="#463174" stroke-linecap="butt" stroke-linejoin="round" stroke-width="1.84828" vectornator:layerName="Curve 1"/>
<path d="M657.271 230.991" fill="none" opacity="1" stroke="#463174" stroke-linecap="butt" stroke-linejoin="round" stroke-width="2.16483" vectornator:layerName="Curve 2"/>
<path d="M510.048 185.686C510.048 176.101 517.667 168.331 527.066 168.331L527.066 168.331C536.465 168.331 544.084 176.101 544.084 185.686L544.084 193.584C544.084 203.169 536.465 210.939 527.066 210.939L527.066 210.939C517.667 210.939 510.048 203.169 510.048 193.584L510.048 185.686Z" fill="#d1bef9" fill-rule="nonzero" opacity="1" stroke="#463174" stroke-linecap="butt" stroke-linejoin="round" stroke-width="2.16483" vectornator:layerName="Rectangle 6"/>
<path d="M542.161 216.172C543.678 213.545 546.541 212.359 548.557 213.522L548.557 213.522C550.573 214.686 550.977 217.759 549.46 220.386L548.21 222.551C546.693 225.179 543.83 226.365 541.814 225.201L541.814 225.201C539.798 224.038 539.394 220.964 540.911 218.337L542.161 216.172Z" fill="#d1bef9" fill-rule="nonzero" opacity="1" stroke="#463174" stroke-linecap="butt" stroke-linejoin="round" stroke-width="2.16483" vectornator:layerName="Rectangle 7"/>
<path d="M661.449 220.386C659.932 217.759 660.337 214.686 662.352 213.522L662.352 213.522C664.368 212.359 667.232 213.545 668.748 216.172L669.998 218.337C671.515 220.964 671.111 224.038 669.095 225.201L669.095 225.201C667.08 226.365 664.216 225.179 662.699 222.551L661.449 220.386Z" fill="#d1bef9" fill-rule="nonzero" opacity="1" stroke="#463174" stroke-linecap="butt" stroke-linejoin="round" stroke-width="2.16483" vectornator:layerName="Rectangle 5"/>
<path d="M664.201 185.686C664.201 176.101 671.82 168.331 681.219 168.331L681.219 168.331C690.618 168.331 698.237 176.101 698.237 185.686L698.237 193.584C698.237 203.169 690.618 210.939 681.219 210.939L681.219 210.939C671.82 210.939 664.201 203.169 664.201 193.584L664.201 185.686Z" fill="#d1bef9" fill-rule="nonzero" opacity="1" stroke="#463174" stroke-linecap="butt" stroke-linejoin="round" stroke-width="2.16483" vectornator:layerName="Rectangle 4"/>
<path d="M564.636 151.537C564.636 151.537 569.045 144.079 574.636 151.712" fill="none" opacity="1" stroke="#463174" stroke-linecap="square" stroke-linejoin="round" stroke-width="2.16483" vectornator:layerName="Curve 5"/>
<path d="M633.649 151.537C633.649 151.537 638.057 144.079 643.649 151.712" fill="none" opacity="1" stroke="#463174" stroke-linecap="square" stroke-linejoin="round" stroke-width="2.16483" vectornator:layerName="Curve 4"/>
</g>
<g opacity="1" vectornator:layerName="Group 24">
<g opacity="1" vectornator:layerName="Group 11">
<path d="M573.989 170.627C573.989 162.093 580.957 155.175 589.552 155.175C598.147 155.175 605.114 162.093 605.114 170.627C605.114 179.161 605.114 186.146 589.552 186.08C573.987 186.014 573.989 179.161 573.989 170.627Z" fill="#ffffff" fill-rule="nonzero" opacity="1" stroke="#463174" stroke-linecap="butt" stroke-linejoin="round" stroke-width="2" vectornator:layerName="Oval 2"/>
<g opacity="1" vectornator:layerName="Group 4">
<g opacity="1" vectornator:layerName="Group 2">
<path d="M581.657 171.202C581.657 170.105 582.493 169.216 583.524 169.216C584.555 169.216 585.391 170.105 585.391 171.202C585.391 172.299 584.555 173.188 583.524 173.188C582.493 173.188 581.657 172.299 581.657 171.202Z" fill="#463174" fill-rule="nonzero" opacity="1" stroke="none" vectornator:layerName="Oval 4"/>
<path d="M583.524 171.202C583.524 170.806 583.884 170.486 584.327 170.486C584.771 170.486 585.131 170.806 585.131 171.202C585.131 171.597 584.771 171.918 584.327 171.918C583.884 171.918 583.524 171.597 583.524 171.202Z" fill="#ffffff" fill-rule="nonzero" opacity="1" stroke="none" vectornator:layerName="Oval 7"/>
</g>
<g opacity="1" vectornator:layerName="Group 1">
<path d="M594.428 171.202C594.428 170.105 595.264 169.216 596.295 169.216C597.326 169.216 598.161 170.105 598.161 171.202C598.161 172.299 597.326 173.188 596.295 173.188C595.264 173.188 594.428 172.299 594.428 171.202Z" fill="#463174" fill-rule="nonzero" opacity="1" stroke="none" vectornator:layerName="Oval 4"/>
<path d="M596.295 171.202C596.295 170.806 596.654 170.486 597.098 170.486C597.542 170.486 597.901 170.806 597.901 171.202C597.901 171.597 597.542 171.918 597.098 171.918C596.654 171.918 596.295 171.597 596.295 171.202Z" fill="#ffffff" fill-rule="nonzero" opacity="1" stroke="none" vectornator:layerName="Oval 7"/>
</g>
</g>
</g>
<g opacity="1" vectornator:layerName="Group 14">
<g opacity="1" vectornator:layerName="Group 5">
<path d="M587.904 176.293C587.904 175.274 588.605 175.642 589.844 175.642C591.083 175.642 591.824 175.252 591.824 176.293C591.824 177.334 590.967 178.043 589.884 178.043C588.802 178.043 587.904 177.311 587.904 176.293Z" fill="#463174" fill-rule="nonzero" opacity="1" stroke="none" vectornator:layerName="Oval 4"/>
</g>
<path d="M588.241 177.289C588.005 176.945 588.964 176.426 589.842 176.393C590.721 176.359 591.741 176.867 591.509 177.265C591.242 177.723 590.551 178.04 589.887 178.04C589.223 178.04 588.555 177.744 588.241 177.289Z" fill="#7451c2" fill-rule="nonzero" opacity="0.453846" stroke="none" vectornator:layerName="Oval 5"/>
</g>
</g>
<g opacity="1" vectornator:layerName="Group 25">
<g opacity="1" vectornator:layerName="Group 11">
<path d="M634.296 170.627C634.296 162.093 627.328 155.175 618.733 155.175C610.138 155.175 603.17 162.093 603.17 170.627C603.17 179.161 603.17 186.136 618.733 186.08C634.298 186.023 634.296 179.161 634.296 170.627Z" fill="#ffffff" fill-rule="nonzero" opacity="1" stroke="#463174" stroke-linecap="butt" stroke-linejoin="round" stroke-width="2" vectornator:layerName="Oval 2"/>
<g opacity="1" vectornator:layerName="Group 4">
<g opacity="1" vectornator:layerName="Group 2">
<path d="M626.628 171.202C626.628 170.105 625.792 169.216 624.761 169.216C623.73 169.216 622.894 170.105 622.894 171.202C622.894 172.299 623.73 173.188 624.761 173.188C625.792 173.188 626.628 172.299 626.628 171.202Z" fill="#463174" fill-rule="nonzero" opacity="1" stroke="none" vectornator:layerName="Oval 4"/>
<path d="M624.761 171.202C624.761 170.806 624.401 170.486 623.957 170.486C623.514 170.486 623.154 170.806 623.154 171.202C623.154 171.597 623.514 171.918 623.957 171.918C624.401 171.918 624.761 171.597 624.761 171.202Z" fill="#ffffff" fill-rule="nonzero" opacity="1" stroke="none" vectornator:layerName="Oval 7"/>
</g>
<g opacity="1" vectornator:layerName="Group 1">
<path d="M613.857 171.202C613.857 170.105 613.021 169.216 611.99 169.216C610.959 169.216 610.123 170.105 610.123 171.202C610.123 172.299 610.959 173.188 611.99 173.188C613.021 173.188 613.857 172.299 613.857 171.202Z" fill="#463174" fill-rule="nonzero" opacity="1" stroke="none" vectornator:layerName="Oval 4"/>
<path d="M611.99 171.202C611.99 170.806 611.631 170.486 611.187 170.486C610.743 170.486 610.384 170.806 610.384 171.202C610.384 171.597 610.743 171.918 611.187 171.918C611.631 171.918 611.99 171.597 611.99 171.202Z" fill="#ffffff" fill-rule="nonzero" opacity="1" stroke="none" vectornator:layerName="Oval 7"/>
</g>
</g>
</g>
<g opacity="1" vectornator:layerName="Group 14">
<g opacity="1" vectornator:layerName="Group 5">
<path d="M620.806 176.293C620.806 175.274 620.105 175.642 618.866 175.642C617.626 175.642 616.885 175.252 616.885 176.293C616.885 177.334 617.743 178.043 618.825 178.043C619.908 178.043 620.806 177.311 620.806 176.293Z" fill="#463174" fill-rule="nonzero" opacity="1" stroke="none" vectornator:layerName="Oval 4"/>
</g>
<path d="M620.468 177.289C620.705 176.945 619.746 176.426 618.867 176.393C617.989 176.359 616.968 176.867 617.2 177.265C617.468 177.723 618.159 178.04 618.823 178.04C619.487 178.04 620.154 177.744 620.468 177.289Z" fill="#7451c2" fill-rule="nonzero" opacity="0.453846" stroke="none" vectornator:layerName="Oval 5"/>
</g>
</g>
<path d="M562.406 175.668C563.993 170.876 569.121 169.843 573.159 171.144C577.198 172.445 582.48 174.23 580.894 179.019C579.263 183.945 572.065 186.988 568.048 185.621C564.032 184.254 560.819 180.459 562.406 175.668Z" fill="#d1bef9" fill-rule="nonzero" opacity="1" stroke="none" vectornator:layerName="Oval 2"/>
<path d="M645.879 175.668C644.292 170.876 639.164 169.843 635.126 171.144C631.087 172.445 625.804 174.23 627.39 179.019C629.022 183.945 636.22 186.988 640.237 185.621C644.253 184.254 647.466 180.459 645.879 175.668Z" fill="#d1bef9" fill-rule="nonzero" opacity="1" stroke="none" vectornator:layerName="Oval 1"/>
</g>
</g>
</svg>
