<?xml version="1.0" encoding="UTF-8" standalone="no"?><!DOCTYPE svg PUBLIC "-//W3C//DTD SVG 1.1//EN" "http://www.w3.org/Graphics/SVG/1.1/DTD/svg11.dtd"><svg width="100%" height="100%" viewBox="0 0 794 465" version="1.1" xmlns="http://www.w3.org/2000/svg" xmlns:xlink="http://www.w3.org/1999/xlink" xml:space="preserve" xmlns:serif="http://www.serif.com/" style="fill-rule:evenodd;clip-rule:evenodd;stroke-linejoin:round;stroke-miterlimit:10;"><g><g><path d="M40.002,266.84c0,-59.87 53.004,-108.408 118.391,-108.408l473.805,0c65.387,0 118.395,48.538 118.395,108.408l0,30.396c0,59.875 -53.008,108.409 -118.395,108.409l-473.805,0c-65.387,0 -118.391,-48.534 -118.391,-108.409l0,-30.396Z" style="fill:#d1bef9;fill-rule:nonzero;stroke:#463174;stroke-width:9.02px;"/><path d="M39.752,212.624c0.008,-264.734 84.225,-202.379 365.179,-202.379c280.954,0 352.775,-52.625 345.412,202.379c-2.537,87.933 -177.65,87.971 -355.295,87.971c-177.65,0 -355.3,1.604 -355.296,-87.971Z" style="fill:#d1bef9;fill-rule:nonzero;stroke:#463174;stroke-width:7.7px;"/><path d="M4.51,293.003c0,-39.938 31.746,-72.313 70.908,-72.313c39.163,0 70.909,32.375 70.909,72.313l0,32.908c0,39.938 -31.746,72.313 -70.909,72.313c-39.162,0 -70.908,-32.375 -70.908,-72.313l0,-32.908Z" style="fill:#d1bef9;fill-rule:nonzero;stroke:#463174;stroke-width:9.02px;"/><path d="M138.314,420.028c6.321,-10.946 18.25,-15.888 26.65,-11.042c8.4,4.85 10.084,17.654 3.763,28.6l-5.209,9.021c-6.32,10.95 -18.25,15.892 -26.65,11.042c-8.4,-4.846 -10.083,-17.654 -3.762,-28.6l5.208,-9.021Z" style="fill:#d1bef9;fill-rule:nonzero;stroke:#463174;stroke-width:9.02px;"/><path d="M635.348,437.586c-6.321,-10.946 -4.634,-23.75 3.762,-28.6c8.4,-4.846 20.333,0.096 26.65,11.042l5.208,9.021c6.321,10.946 4.638,23.754 -3.762,28.6c-8.396,4.85 -20.329,-0.092 -26.65,-11.042l-5.208,-9.021Z" style="fill:#d1bef9;fill-rule:nonzero;stroke:#463174;stroke-width:9.02px;"/><path d="M646.814,293.003c0,-39.938 31.746,-72.313 70.909,-72.313c39.162,0 70.908,32.375 70.908,72.313l0,32.908c0,39.938 -31.746,72.313 -70.908,72.313c-39.163,0 -70.909,-32.375 -70.909,-72.313l0,-32.908Z" style="fill:#d1bef9;fill-rule:nonzero;stroke:#463174;stroke-width:9.02px;"/><path d="M228.21,142.457c0,0 21.675,-31.075 49.167,0.729" style="fill:none;fill-rule:nonzero;stroke:#463174;stroke-width:9.02px;stroke-linecap:square;"/><path d="M515.764,142.457c0,0 21.675,-31.075 49.167,0.729" style="fill:none;fill-rule:nonzero;stroke:#463174;stroke-width:9.02px;stroke-linecap:square;"/></g><g><g><path d="M270.931,230.257c0,-35.558 29.033,-64.383 64.846,-64.383c35.812,0 64.841,28.825 64.841,64.383c0,35.558 0,64.663 -64.841,64.388c-64.854,-0.275 -64.846,-28.83 -64.846,-64.388Z" style="fill:#fff;fill-rule:nonzero;stroke:#463174;stroke-width:8.33px;"/><g><g><path d="M302.881,232.653c0,-4.571 3.483,-8.275 7.779,-8.275c4.296,0 7.779,3.704 7.779,8.275c0,4.571 -3.483,8.275 -7.779,8.275c-4.296,0 -7.779,-3.704 -7.779,-8.275Z" style="fill:#463174;fill-rule:nonzero;"/><path d="M310.66,232.653c0,-1.65 1.5,-2.983 3.346,-2.983c1.85,0 3.35,1.333 3.35,2.983c0,1.646 -1.5,2.983 -3.35,2.983c-1.846,0 -3.346,-1.337 -3.346,-2.983Z" style="fill:#fff;fill-rule:nonzero;"/></g><g><path d="M356.093,232.653c0,-4.571 3.484,-8.275 7.78,-8.275c4.295,0 7.775,3.704 7.775,8.275c0,4.571 -3.48,8.275 -7.775,8.275c-4.296,0 -7.78,-3.704 -7.78,-8.275Z" style="fill:#463174;fill-rule:nonzero;"/><path d="M363.873,232.653c0,-1.65 1.495,-2.983 3.345,-2.983c1.85,0 3.346,1.333 3.346,2.983c0,1.646 -1.496,2.983 -3.346,2.983c-1.85,0 -3.345,-1.337 -3.345,-2.983Z" style="fill:#fff;fill-rule:nonzero;"/></g></g></g><g><g><path d="M328.91,253.865c0,-4.245 2.921,-2.712 8.083,-2.712c5.163,0 8.25,-1.625 8.25,2.712c0,4.338 -3.57,7.292 -8.083,7.292c-4.508,0 -8.25,-3.05 -8.25,-7.292Z" style="fill:#463174;fill-rule:nonzero;"/></g><path d="M330.314,258.015c-0.983,-1.433 3.013,-3.595 6.671,-3.733c3.663,-0.142 7.913,1.975 6.946,3.633c-1.113,1.909 -3.992,3.23 -6.758,3.23c-2.767,0 -5.55,-1.234 -6.859,-3.13Z" style="fill:#7451c2;fill-opacity:0.45;fill-rule:nonzero;"/></g></g><g><g><path d="M522.21,230.257c0,-35.558 -29.033,-64.383 -64.846,-64.383c-35.812,0 -64.846,28.825 -64.846,64.383c0,35.558 0,64.621 64.846,64.388c64.854,-0.238 64.846,-28.83 64.846,-64.388Z" style="fill:#fff;fill-rule:nonzero;stroke:#463174;stroke-width:8.33px;"/><g><g><path d="M490.26,232.653c0,-4.571 -3.483,-8.275 -7.779,-8.275c-4.296,0 -7.779,3.704 -7.779,8.275c0,4.571 3.483,8.275 7.779,8.275c4.296,0 7.779,-3.704 7.779,-8.275Z" style="fill:#463174;fill-rule:nonzero;"/><path d="M482.481,232.653c0,-1.65 -1.5,-2.983 -3.35,-2.983c-1.846,0 -3.346,1.333 -3.346,2.983c0,1.646 1.5,2.983 3.346,2.983c1.85,0 3.35,-1.337 3.35,-2.983Z" style="fill:#fff;fill-rule:nonzero;"/></g><g><path d="M437.048,232.653c0,-4.571 -3.484,-8.275 -7.78,-8.275c-4.295,0 -7.779,3.704 -7.779,8.275c0,4.571 3.484,8.275 7.779,8.275c4.296,0 7.78,-3.704 7.78,-8.275Z" style="fill:#463174;fill-rule:nonzero;"/><path d="M429.268,232.653c0,-1.65 -1.495,-2.983 -3.345,-2.983c-1.85,0 -3.346,1.333 -3.346,2.983c0,1.646 1.496,2.983 3.346,2.983c1.85,0 3.345,-1.337 3.345,-2.983Z" style="fill:#fff;fill-rule:nonzero;"/></g></g></g><g><g><path d="M466.002,253.865c0,-4.245 -2.921,-2.712 -8.084,-2.712c-5.166,0 -8.254,-1.625 -8.254,2.712c0,4.338 3.575,7.292 8.084,7.292c4.512,0 8.254,-3.05 8.254,-7.292Z" style="fill:#463174;fill-rule:nonzero;"/></g><path d="M464.593,258.015c0.988,-1.433 -3.008,-3.595 -6.67,-3.733c-3.659,-0.142 -7.913,1.975 -6.946,3.633c1.116,1.909 3.996,3.23 6.762,3.23c2.767,0 5.546,-1.234 6.854,-3.13Z" style="fill:#7451c2;fill-opacity:0.45;fill-rule:nonzero;"/></g></g><path d="M222.668,251.261c6.613,-19.966 27.98,-24.271 44.805,-18.85c16.829,5.421 38.837,12.859 32.229,32.813c-6.796,20.525 -36.788,33.204 -53.525,27.508c-16.734,-5.696 -30.121,-21.508 -23.509,-41.471Z" style="fill:#d1bef9;fill-rule:nonzero;"/><path d="M570.473,251.261c-6.613,-19.966 -27.98,-24.271 -44.805,-18.85c-16.829,5.421 -38.841,12.859 -32.233,32.813c6.8,20.525 36.792,33.204 53.529,27.508c16.734,-5.696 30.121,-21.508 23.509,-41.471Z" style="fill:#d1bef9;fill-rule:nonzero;"/></g></svg>