<?xml version="1.0" encoding="UTF-8" standalone="no"?>
<!DOCTYPE svg PUBLIC "-//W3C//DTD SVG 1.1//EN" "http://www.w3.org/Graphics/SVG/1.1/DTD/svg11.dtd">
<svg width="100%" height="100%" viewBox="0 0 90 83" version="1.1" xmlns="http://www.w3.org/2000/svg" xmlns:xlink="http://www.w3.org/1999/xlink" xml:space="preserve" xmlns:serif="http://www.serif.com/" style="fill-rule:evenodd;clip-rule:evenodd;stroke-linejoin:round;stroke-miterlimit:10;">
    <g id="blobs-in-love">
        <path id="blob" d="M1.658,39.55c-9.09,-30.15 21.097,-35.16 44.356,-35.16c23.258,0 54.868,21.82 40.278,39.17c-10.942,13.01 -20.08,38.84 -43.337,38.58c-23.88,-0.28 -34.787,-21 -41.297,-42.59Z" style="fill:#c0a3ff;fill-rule:nonzero;"/>
        <path id="heart" d="M42.329,25.45l-0.963,-0.64c-1.329,-0.87 -12.984,-8.78 -12.984,-16.23c0,-4.73 3.912,-8.58 8.721,-8.58c1.896,0 3.729,0.62 5.233,1.75c1.503,-1.13 3.336,-1.75 5.232,-1.75c4.809,0 8.721,3.85 8.721,8.58c0,7.58 -11.663,15.38 -12.992,16.24l-0.968,0.63Z" style="fill:#593f92;fill-rule:nonzero;"/>
        <path id="blob-shadow" d="M17.704,52.14c0,-6.32 12.221,-11.45 27.296,-11.45c15.075,0 27.296,5.13 27.296,11.45c0,6.33 -12.221,11.46 -27.296,11.46c-15.075,0 -27.296,-5.13 -27.296,-11.46Z" style="fill:#7451c2;fill-rule:nonzero;"/>
        <g>
            <g id="blob-2">
                <path id="blob-body-2" d="M43.821,39.96c0,-6.07 4.962,-11 11.083,-11c6.121,0 11.083,4.93 11.083,11c0,6.08 0,10.44 -11.083,11.01c-11.07,0.56 -11.083,-4.93 -11.083,-11.01Z" style="fill:#fff;fill-rule:nonzero;stroke:#463174;stroke-width:1.18px;"/>
                <g id="blob-mouth-2">
                    <g>
                        <path d="M53.793,44.66c0,-0.72 0.499,-0.46 1.382,-0.46c0.883,0 1.41,-0.28 1.41,0.46c0,0.74 -0.61,1.25 -1.381,1.25c-0.771,0 -1.411,-0.52 -1.411,-1.25Z" style="fill:#463174;fill-rule:nonzero;"/>
                    </g>
                    <path d="M54.034,45.37c-0.169,-0.24 0.514,-0.61 1.14,-0.64c0.626,-0.02 1.352,0.34 1.187,0.62c-0.19,0.33 -0.683,0.56 -1.156,0.56c-0.473,0 -0.948,-0.21 -1.171,-0.54Z" style="fill:#7451c2;fill-opacity:0.45;fill-rule:nonzero;"/>
                </g>
                <g id="blob-eyes-2">
                    <g>
                        <path d="M49.282,40.37c0,-0.78 0.595,-1.41 1.33,-1.41c0.734,0 1.329,0.63 1.329,1.41c0,0.78 -0.595,1.42 -1.329,1.42c-0.735,0 -1.33,-0.64 -1.33,-1.42Z" style="fill:#463174;fill-rule:nonzero;"/>
                        <path d="M49.468,40.88c0,-0.28 0.256,-0.51 0.572,-0.51c0.316,0 0.572,0.23 0.572,0.51c0,0.28 -0.256,0.51 -0.572,0.51c-0.316,0 -0.572,-0.23 -0.572,-0.51Z" style="fill:#fff;fill-rule:nonzero;"/>
                    </g>
                    <g>
                        <path d="M58.377,40.37c0,-0.78 0.595,-1.41 1.329,-1.41c0.734,0 1.33,0.63 1.33,1.41c0,0.78 -0.596,1.42 -1.33,1.42c-0.734,0 -1.329,-0.64 -1.329,-1.42Z" style="fill:#463174;fill-rule:nonzero;"/>
                        <path d="M58.562,40.88c0,-0.28 0.256,-0.51 0.572,-0.51c0.316,0 0.572,0.23 0.572,0.51c0,0.28 -0.256,0.51 -0.572,0.51c-0.316,0 -0.572,-0.23 -0.572,-0.51Z" style="fill:#fff;fill-rule:nonzero;"/>
                    </g>
                </g>
            </g>
            <g id="blob-1">
                <path id="blob-body-1" d="M24.212,45.83c0,-6.08 4.962,-11 11.083,-11c6.121,0 11.083,4.92 11.083,11c0,6.08 0,10.44 -11.083,11c-11.07,0.57 -11.083,-4.92 -11.083,-11Z" style="fill:#fff;fill-rule:nonzero;stroke:#463174;stroke-width:1.18px;"/>
                <g id="blob-eyes-1">
                    <g>
                        <path d="M29.673,46.24c0,-0.78 0.595,-1.41 1.33,-1.41c0.734,0 1.329,0.63 1.329,1.41c0,0.78 -0.595,1.41 -1.329,1.41c-0.735,0 -1.33,-0.63 -1.33,-1.41Z" style="fill:#463174;fill-rule:nonzero;"/>
                        <path d="M31.003,46.24c0,-0.28 0.256,-0.51 0.572,-0.51c0.316,0 0.572,0.23 0.572,0.51c0,0.28 -0.256,0.51 -0.572,0.51c-0.316,0 -0.572,-0.23 -0.572,-0.51Z" style="fill:#fff;fill-rule:nonzero;"/>
                    </g>
                    <g>
                        <path d="M38.768,46.24c0,-0.78 0.595,-1.41 1.329,-1.41c0.734,0 1.33,0.63 1.33,1.41c0,0.78 -0.596,1.41 -1.33,1.41c-0.734,0 -1.329,-0.63 -1.329,-1.41Z" style="fill:#463174;fill-rule:nonzero;"/>
                        <path d="M40.097,46.24c0,-0.28 0.256,-0.51 0.572,-0.51c0.316,0 0.572,0.23 0.572,0.51c0,0.28 -0.256,0.51 -0.572,0.51c-0.316,0 -0.572,-0.23 -0.572,-0.51Z" style="fill:#fff;fill-rule:nonzero;"/>
                    </g>
                </g>
                <g id="blob-mouth-1">
                    <g>
                        <path d="M34.122,49.69c0,-0.73 0.499,-0.46 1.381,-0.46c0.883,0 1.411,-0.28 1.411,0.46c0,0.74 -0.611,1.25 -1.382,1.25c-0.771,0 -1.41,-0.52 -1.41,-1.25Z" style="fill:#463174;fill-rule:nonzero;"/>
                    </g>
                    <path d="M34.362,50.4c-0.169,-0.25 0.514,-0.61 1.14,-0.64c0.626,-0.02 1.353,0.34 1.187,0.62c-0.19,0.33 -0.682,0.55 -1.155,0.55c-0.473,0 -0.948,-0.21 -1.172,-0.53Z" style="fill:#7451c2;fill-opacity:0.45;fill-rule:nonzero;"/>
                </g>
            </g>
        </g>
    </g>
</svg>
