<?xml version="1.0" encoding="UTF-8" standalone="no"?>
<!DOCTYPE svg PUBLIC "-//W3C//DTD SVG 1.1//EN" "http://www.w3.org/Graphics/SVG/1.1/DTD/svg11.dtd">
<!-- Created with Vectornator (http://vectornator.io/) -->
<svg height="100%" stroke-miterlimit="10" style="fill-rule:nonzero;clip-rule:evenodd;stroke-linecap:round;stroke-linejoin:round;" version="1.1" viewBox="196.986 497.311 38.7702 62.1559" width="100%" xml:space="preserve" xmlns="http://www.w3.org/2000/svg" xmlns:vectornator="http://vectornator.io" xmlns:xlink="http://www.w3.org/1999/xlink">
<defs/>
<clipPath id="ArtboardFrame">
<rect height="62.1559" width="38.7702" x="196.986" y="497.311"/>
</clipPath>
<g clip-path="url(#ArtboardFrame)" id="Layer" vectornator:layerName="Layer">
<path d="M199.482 526.65C199.589 520.756 199.88 521.054 199.125 521.175C198.735 521.238 198.401 521.149 198.165 520.83C197.827 520.373 197.409 519.982 197.182 519.434C196.595 518.018 197.403 517.911 198.588 513.975C198.937 512.816 199.178 511.627 199.592 510.486C199.935 509.544 200.779 508.203 200.893 508.135C201.444 507.808 201.935 507.383 202.565 507.18C203.944 506.736 205.304 506.228 206.738 505.98C206.974 505.939 207.242 505.786 207.314 505.579C207.462 505.161 207.379 504.781 207.385 504.34C207.388 504.092 207.113 504.192 206.969 504.031C206.89 503.942 206.983 503.739 206.873 503.682C206.406 503.443 206.798 501.169 206.983 500.424C207.113 499.901 207.484 499.243 207.877 498.691C208.289 498.111 208.725 497.647 208.931 497.577C210.075 497.185 210.78 497.342 210.78 497.342C210.78 497.342 211.109 497.598 211.677 497.431C212.208 497.275 213.112 498.372 213.311 498.611C213.772 499.165 213.823 500.783 213.864 501.581C213.901 502.29 213.38 502.121 213.374 503.042C213.371 503.465 213.349 504.039 213.186 504.428C212.935 505.027 212.701 505.129 212.132 505.483C211.644 505.787 211.621 506.557 211.883 506.676C212.925 507.151 214.368 507.699 215.372 508.244C217.618 509.463 217.578 513.829 217.804 514.999C217.816 515.057 217.775 515.146 217.86 515.166C218.002 515.198 218.143 514.629 218.267 514.441C218.382 514.265 218.501 514.152 218.568 513.94C218.628 513.752 218.672 513.555 218.779 513.389C218.995 513.053 219.384 513.067 219.674 512.836C219.967 512.603 222.898 510.912 223.098 511.004C223.551 511.213 223.79 510.688 223.854 510.452C223.893 510.307 224.03 509.764 223.961 509.519C223.883 509.246 223.835 509.54 223.551 509.06C223.052 508.213 222.605 506.999 222.753 505.774C222.784 505.516 222.591 505.438 222.57 505.174C222.567 505.137 222.469 505.044 222.261 504.652C222.074 504.3 221.956 503.873 222.092 503.5C222.192 503.227 222.049 503.126 222.096 502.854C222.154 502.517 222.629 502.415 222.369 502.032C222.271 501.888 222.436 501.685 222.608 501.575C223.83 500.791 224.404 501.261 225.284 500.887C225.824 500.658 227.055 500.67 227.146 501.232C227.264 501.957 228.688 502.285 228.292 504.241C228.257 504.414 228.37 504.704 228.453 504.867C228.82 505.59 228.389 506.214 228.413 507.203C228.419 507.475 228.161 508.04 227.992 508.237C227.464 508.853 227.699 509.428 227.755 510.054C227.798 510.534 228.169 509.943 231.403 511.801C231.717 511.981 232.976 511.873 233.538 513.452C234.461 516.043 234.572 517.591 235.368 521.117C235.75 522.812 235.974 524.515 235.439 526.242C234.846 528.16 235.226 529.17 233.78 529.614C233.572 529.677 233.354 529.726 233.129 529.577C232.922 529.44 232.716 529.601 232.734 529.858C233.01 533.755 232.131 535.423 231.505 541.294C231.28 543.4 230.696 543.779 230.462 546.067C230.117 549.444 227.142 550.799 227.516 554.848C227.596 555.721 227.673 556.592 227.943 557.434C228.033 557.713 227.643 558.159 227.332 558.224C226.733 558.351 225.033 558.503 223.788 558.392C223.37 558.355 223.235 558.082 223.535 557.778C224.454 556.847 224.314 555.685 224.225 554.57C224.068 552.609 222.321 550.618 222.184 547.709C222.039 544.625 222.406 543.889 222.237 542.762C221.562 538.263 220.736 537.457 220.33 534.239C220.278 533.825 219.853 531.8 219.797 531.389C219.538 529.466 220.297 524.771 220.407 524.356C220.562 523.772 220.675 523.32 220.718 522.767C220.782 521.939 220.788 521.936 220.579 521.663C220.355 521.369 220.205 521.479 219.979 522.869C219.721 524.454 219.51 523.945 219.288 525.86C219.188 526.723 218.823 527.523 218.726 528.391C218.664 528.937 218.884 529.445 218.818 529.979C218.668 531.2 218.82 531.141 219.035 532.232C219.128 532.702 219.101 533.168 218.845 533.587C218.654 533.899 218.934 534.267 218.376 534.911C218.256 535.05 218.108 535.19 217.937 534.943C217.86 534.833 217.781 534.861 217.737 534.981C217.724 535.018 217.739 535.073 217.717 535.097C217.317 535.531 216.948 535.985 216.637 536.489C216.556 536.621 216.423 536.532 216.374 536.392C216.206 535.911 216.793 535.418 216.035 535.177C215.312 534.947 215.795 534.462 215.713 533.524C215.636 532.638 215.951 531.883 216.456 531.183C216.788 530.724 216.332 530.65 216.681 530.01C216.713 529.952 216.766 529.887 216.727 529.825C216.256 529.083 217.173 528.611 216.401 526.857C216.318 526.669 215.845 525.492 215.687 525.575C215.636 525.602 215.638 525.85 215.648 525.914C215.862 527.179 215.528 528.393 215.298 529.616C215.071 530.823 214.615 530.168 214.457 531.858C214.098 535.684 215.36 536.862 214.312 537.049C212.968 537.29 212.695 536.621 212.428 537.304C211.874 538.721 211.482 541.702 211.972 544.558C212.674 548.646 210.872 551.191 210.349 554.295C210.045 556.097 210.33 555.7 210.279 556.999C210.259 557.504 210.276 557.982 210.527 558.458C210.773 558.926 210.611 559.233 210.159 559.268C209.081 559.349 206.828 559.662 206.676 559.285C206.584 559.056 206.614 558.82 206.772 558.603C207.21 558 207.196 557.967 206.704 557.411C206.341 557 206.343 556.451 206.2 555.957C205.775 554.497 206.088 553.291 205.557 552.617C205.052 551.977 205.633 551.613 205.019 550.531C204.44 549.512 204.174 548.515 203.63 547.48C203.001 546.282 202.778 544.477 203.028 543.522C203.12 543.168 203.197 542.839 203.173 542.469C203.071 540.923 203.366 541.974 202.877 538.979C202.808 538.557 202.482 538.599 201.9 538.254C201.265 537.878 201.182 537.595 201.249 536.862C201.424 534.958 201.165 533.078 201.165 533.078C201.497 531.657 200.491 530.946 200.911 528.9C201.038 528.283 200.914 526.578 201.311 526.134C201.379 526.058 201.362 525.96 201.374 525.868C201.677 523.603 201.916 522.522 202.002 520.492C202.084 518.564 201.979 517.693 201.489 516.31C201.423 516.124 201.349 516.098 201.233 516.269C201.09 516.482 200.746 516.967 200.916 517.15C201.491 517.766 200.82 518.839 200.824 520.131C200.825 520.348 200.791 520.597 200.621 520.722C200.141 521.075 200.132 520.736 199.873 532.418C199.757 537.617 199.357 543.879 200.06 551.041C200.615 556.693 201.005 557.089 200.616 557.194C200.417 557.248 200.335 557.023 200.26 556.88C200.202 556.768 200.204 556.622 200.187 556.49C198.672 544.619 199.295 537.052 199.482 526.65ZM207.785 556.199C207.789 556.2 207.793 556.2 207.797 556.201C207.79 556.197 207.783 556.193 207.776 556.189C208.146 555.033 208.542 554.256 208.417 552.578C208.409 552.466 208.389 552.301 208.235 552.312C208.057 552.325 208.132 552.494 208.12 552.602C208.068 553.083 208.403 553.306 207.598 555.518C207.479 555.846 207.487 556.035 207.785 556.199ZM231.577 522.607C231.648 523.192 231.651 523.736 231.79 524.243C232.014 525.056 232.283 525.856 232.463 526.682C232.485 526.78 232.481 526.867 232.632 526.781C233.385 526.349 233.448 526.234 233.351 525.357C233.1 523.082 233.091 524.331 232.039 520.981C232.017 520.909 231.999 520.804 231.905 520.807C231.787 520.81 231.796 520.939 231.758 521.017C231.68 521.175 231.871 521.328 231.787 521.478C231.579 521.852 231.802 522.294 231.577 522.607ZM208.078 550.886C207.752 548.999 207.691 548.496 207.661 548.056C207.532 546.136 207.253 547.178 207.289 547.44C207.348 547.868 207.266 548.288 207.208 548.708C206.923 550.773 207.853 551.179 208.011 551.106C208.103 551.063 208.058 550.965 208.078 550.886ZM226.214 539.239C226.218 539.239 226.222 539.239 226.226 539.239C226.226 540.98 226.621 542.798 226.739 541.853C226.951 540.154 226.83 539.968 226.398 538.327C226.383 538.27 226.361 538.184 226.276 538.199C226.192 538.213 226.214 538.167 226.214 539.239ZM215.372 524.354C215.372 523.208 215.457 522.001 215.096 522.406C214.63 522.927 214.597 523.512 215.01 524.103C215.338 524.573 215.301 524.606 215.393 524.57C215.483 524.534 215.433 524.43 215.372 524.354ZM226.496 545.709C226.642 545.762 226.616 545.51 226.725 545.438C226.768 545.409 226.792 545.344 226.836 545.326C227.121 545.21 227.087 544.985 227.034 544.757C226.686 543.257 226.703 543.323 226.641 543.322C226.552 543.321 226.549 543.438 226.542 543.515C226.402 545.132 226.331 545.649 226.496 545.709ZM214.994 519.317C214.999 519.316 215.003 519.316 215.007 519.316C214.908 518.007 214.932 518.02 214.826 518.013C214.74 518.007 214.7 518.102 214.682 518.179C214.517 518.916 214.296 519.471 214.737 520.135C214.773 520.189 214.797 520.268 214.878 520.255C214.975 520.24 214.992 520.152 214.993 520.073C214.997 519.821 214.994 519.569 214.994 519.317ZM207.48 539.364C207.482 539.438 207.458 539.552 207.564 539.554C207.645 539.556 207.676 539.448 207.692 539.373C208.412 535.98 207.416 536.8 207.48 539.364ZM207.683 543.258C207.555 542.851 207.141 543.876 207.6 544.741C207.724 544.977 207.859 544.76 207.867 544.711C208.07 543.567 207.841 543.759 207.683 543.258Z" fill="#c0a3ff" fill-rule="nonzero" opacity="1" stroke="none" vectornator:layerName="path"/>
</g>
</svg>
