<?xml version="1.0" encoding="UTF-8" standalone="no"?><!DOCTYPE svg PUBLIC "-//W3C//DTD SVG 1.1//EN" "http://www.w3.org/Graphics/SVG/1.1/DTD/svg11.dtd"><svg width="100%" height="100%" viewBox="0 0 376 343" version="1.1" xmlns="http://www.w3.org/2000/svg" xmlns:xlink="http://www.w3.org/1999/xlink" xml:space="preserve" xmlns:serif="http://www.serif.com/" style="fill-rule:evenodd;clip-rule:evenodd;stroke-linejoin:round;stroke-miterlimit:10;"><g id="Layer"><g><path d="M6.925,149.167c-37.969,-127.875 88.123,-149.167 185.277,-149.167c97.15,0 230.189,44.581 166.131,208.333c-20.814,53.209 -75.235,135.542 -172.377,134.417c-99.75,-1.125 -151.838,-101.958 -179.031,-193.583Z" style="fill:#c0a3ff;fill-rule:nonzero;"/><path d="M72.41,214.667c0,-11.625 51.738,-21.042 115.554,-21.042c63.821,0 115.554,9.417 115.554,21.042c0,11.583 -51.733,21 -115.554,21c-63.816,0 -115.554,-9.417 -115.554,-21Z" style="fill:#463174;fill-rule:nonzero;"/><g><g><g><path d="M109.331,214.667l-5.933,0c-2.225,0 -4.451,-1.625 -4.451,-3.25l0,-29.042l14.838,0l0,29.042c0,1.625 -2.229,3.25 -4.454,3.25Zm163.2,0l-5.933,0c-2.225,0 -4.45,-1.625 -4.45,-3.25l0,-29.042l14.837,0l0,29.042c0,1.625 -2.225,3.25 -4.454,3.25Zm-22.254,-10.792l-5.934,0c-2.225,0 -4.45,-1.583 -4.45,-3.208l0,-23.667l14.838,0l0,23.667c0,1.625 -2.229,3.208 -4.454,3.208Zm-118.692,0l-5.933,0c-2.225,0 -4.45,-1.583 -4.45,-3.208l0,-23.667l14.837,0l0,23.667c0,1.625 -2.225,3.208 -4.454,3.208Zm140.204,-48.375l-167.65,0c-2.966,0 -5.191,-1.625 -5.191,-3.792l0,-3.208c0,-2.167 2.225,-3.75 5.191,-3.75l167.65,0c2.971,0 5.196,1.583 5.196,3.75l0,3.208c0,2.167 -2.225,3.792 -5.196,3.792Z" style="fill:#7451c2;fill-rule:nonzero;"/><path d="M279.21,182.375l-182.488,0c-2.966,0 -5.195,-1.625 -5.195,-3.75l0,-8.625c0,-2.125 2.229,-3.75 5.195,-3.75l182.488,0c2.967,0 5.192,1.625 5.192,3.75l0,8.625c0,2.125 -2.225,3.75 -5.192,3.75Zm-7.421,-43l-167.65,0c-2.966,0 -5.191,-1.625 -5.191,-3.792l0,-3.208c0,-2.167 2.225,-3.792 5.191,-3.792l167.65,0c2.971,0 5.196,1.625 5.196,3.792l0,3.208c0,2.167 -2.225,3.792 -5.196,3.792Zm0,-16.167l-167.65,0c-2.966,0 -5.191,-1.583 -5.191,-3.75l0,-3.208c0,-2.167 2.225,-3.792 5.191,-3.792l167.65,0c2.971,0 5.196,1.625 5.196,3.792l0,3.208c0,2.167 -2.225,3.75 -5.196,3.75Z" style="fill:#7451c2;fill-rule:nonzero;"/><path d="M247.31,167.542l0,-56.209c0,-2.416 2.225,-4.25 5.192,-4.25l4.454,0c2.966,0 5.192,1.834 5.192,4.25l0,56.209l-14.838,0Zm-133.525,0l0,-56.209c0,-2.416 2.225,-4.25 5.192,-4.25l4.45,0c2.966,0 5.191,1.834 5.191,4.25l0,56.209l-14.833,0Z" style="fill:#7451c2;fill-rule:nonzero;"/></g></g><g><path d="M157.535,137.833c0,-16.958 13.625,-30.666 30.429,-30.666c16.809,0 30.429,13.708 30.429,30.666c0,16.959 0,29.125 -30.429,30.709c-30.391,1.541 -30.429,-13.75 -30.429,-30.709Z" style="fill:#fff;fill-rule:nonzero;stroke:#463174;stroke-width:4.92px;"/><path d="M184.131,151.958c0,-1.833 1.917,-1.5 3.833,-1.5c1.917,0 3.834,-0.333 3.834,1.5c0,1.834 -1.717,3.334 -3.834,3.334c-2.117,0 -3.833,-1.5 -3.833,-3.334Z" style="fill:#463174;fill-rule:nonzero;"/><path d="M185.943,153.625c0,-0.917 0.905,-1.667 2.021,-1.667c1.117,0 2.025,0.75 2.025,1.667c0,0.917 -0.908,1.667 -2.025,1.667c-1.116,0 -2.021,-0.75 -2.021,-1.667Z" style="fill:#7451c2;fill-rule:nonzero;"/><g><g><path d="M172.531,138.958c0,-2.166 1.633,-3.916 3.65,-3.916c2.016,0 3.65,1.75 3.65,3.916c0,2.209 -1.634,3.959 -3.65,3.959c-2.017,0 -3.65,-1.75 -3.65,-3.959Z" style="fill:#463174;fill-rule:nonzero;"/><path d="M174.61,141.5c0,-0.792 0.704,-1.417 1.571,-1.417c0.867,0 1.571,0.625 1.571,1.417c0,0.792 -0.704,1.417 -1.571,1.417c-0.867,0 -1.571,-0.625 -1.571,-1.417Z" style="fill:#fff;fill-rule:nonzero;"/></g><g><path d="M197.498,138.958c0,-2.166 1.637,-3.916 3.65,-3.916c2.016,0 3.65,1.75 3.65,3.916c0,2.209 -1.634,3.959 -3.65,3.959c-2.013,0 -3.65,-1.75 -3.65,-3.959Z" style="fill:#463174;fill-rule:nonzero;"/><path d="M199.577,141.5c0,-0.792 0.704,-1.417 1.571,-1.417c0.87,0 1.57,0.625 1.57,1.417c0,0.792 -0.7,1.417 -1.57,1.417c-0.867,0 -1.571,-0.625 -1.571,-1.417Z" style="fill:#fff;fill-rule:nonzero;"/></g></g></g></g></g></g></svg>