<?xml version="1.0" encoding="UTF-8" standalone="no"?>
<!DOCTYPE svg PUBLIC "-//W3C//DTD SVG 1.1//EN" "http://www.w3.org/Graphics/SVG/1.1/DTD/svg11.dtd">
<!-- Created with Vectornator (http://vectornator.io/) -->
<svg height="100%" stroke-miterlimit="10" style="fill-rule:nonzero;clip-rule:evenodd;stroke-linecap:round;stroke-linejoin:round;" version="1.1" viewBox="518.339 178.214 669.025 650" width="100%" xml:space="preserve" xmlns="http://www.w3.org/2000/svg" xmlns:vectornator="http://vectornator.io" xmlns:xlink="http://www.w3.org/1999/xlink">
<defs>
<filter color-interpolation-filters="sRGB" filterUnits="userSpaceOnUse" height="136.952" id="Filter" width="137.672" x="959.41" y="626.649">
<feDropShadow dx="-0" dy="0" flood-color="#000000" flood-opacity="0.333" in="SourceGraphic" result="Shadow" stdDeviation="0"/>
</filter>
</defs>
<clipPath id="ArtboardFrame">
<rect height="650" width="669.025" x="518.339" y="178.214"/>
</clipPath>
<g clip-path="url(#ArtboardFrame)" id="Layer" vectornator:layerName="Layer">
<g opacity="1" vectornator:layerName="Group 11">
<path d="M518.339 503.214C518.339 323.721 663.846 178.214 843.339 178.214C1022.83 178.214 1168.34 323.721 1168.34 503.214C1168.34 682.707 1022.83 828.214 843.339 828.214C663.846 828.214 518.339 682.707 518.339 503.214Z" fill="#463174" fill-rule="nonzero" opacity="1" stroke="none" vectornator:layerName="Oval 2"/>
<path d="M693.138 366.222C693.138 337.314 716.574 313.878 745.482 313.878L941.195 313.878C970.104 313.878 993.539 337.314 993.539 366.222L993.539 640.206C993.539 669.115 970.104 692.55 941.195 692.55L745.482 692.55C716.574 692.55 693.138 669.115 693.138 640.206L693.138 366.222Z" fill="#ffffff" fill-rule="nonzero" opacity="1" stroke="none" vectornator:layerName="Rectangle 3"/>
<g filter="url(#Filter)" vectornator:layerName="Group 10" vectornator:shadowAngle="2.0207" vectornator:shadowColor="#000000" vectornator:shadowOffset="0" vectornator:shadowOpacity="0.333" vectornator:shadowRadius="0">
<path d="M1096.49 695.001C1096.49 657.577 1065.94 627.239 1028.25 627.239C990.555 627.239 960 657.577 960 695.001C960 732.425 960 759.279 1028.25 762.763C1096.41 766.243 1096.49 732.425 1096.49 695.001Z" fill="#ffffff" fill-rule="nonzero" opacity="1" stroke="#463174" stroke-linecap="butt" stroke-linejoin="round" stroke-width="1.18" vectornator:layerName="Oval 2"/>
<path d="M1036.84 726.221C1036.84 722.178 1032.54 722.865 1028.25 722.865C1023.95 722.865 1019.65 722.178 1019.65 726.221C1019.65 730.264 1023.5 733.541 1028.25 733.541C1032.99 733.541 1036.84 730.264 1036.84 726.221Z" fill="#463174" fill-rule="nonzero" opacity="1" stroke="none" vectornator:layerName="Oval 4"/>
<g opacity="1" vectornator:layerName="Group 4">
<g opacity="1" vectornator:layerName="Group 2">
<path d="M1062.87 697.521C1062.87 692.711 1059.2 688.812 1054.68 688.812C1050.16 688.812 1046.49 692.711 1046.49 697.521C1046.49 702.33 1050.16 706.229 1054.68 706.229C1059.2 706.229 1062.87 702.33 1062.87 697.521Z" fill="#463174" fill-rule="nonzero" opacity="1" stroke="none" vectornator:layerName="Oval 4"/>
<path d="M1054.68 694.38C1054.68 692.646 1053.1 691.24 1051.16 691.24C1049.21 691.24 1047.63 692.646 1047.63 694.38C1047.63 696.115 1049.21 697.521 1051.16 697.521C1053.1 697.521 1054.68 696.115 1054.68 694.38Z" fill="#ffffff" fill-rule="nonzero" opacity="1" stroke="none" vectornator:layerName="Oval 7"/>
</g>
<g opacity="1" vectornator:layerName="Group 1">
<path d="M1006.86 697.521C1006.86 692.711 1003.2 688.812 998.677 688.812C994.155 688.812 990.49 692.711 990.49 697.521C990.49 702.33 994.155 706.229 998.677 706.229C1003.2 706.229 1006.86 702.33 1006.86 697.521Z" fill="#463174" fill-rule="nonzero" opacity="1" stroke="none" vectornator:layerName="Oval 4"/>
<path d="M998.677 694.38C998.677 692.646 997.1 691.24 995.154 691.24C993.209 691.24 991.632 692.646 991.632 694.38C991.632 696.115 993.209 697.521 995.154 697.521C997.1 697.521 998.677 696.115 998.677 694.38Z" fill="#ffffff" fill-rule="nonzero" opacity="1" stroke="none" vectornator:layerName="Oval 7"/>
</g>
</g>
</g>
<path d="M757.693 366.485C757.693 351.282 770.018 338.958 785.221 338.958L901.456 338.958C916.659 338.958 928.984 351.282 928.984 366.485L928.984 375.849C928.984 391.051 916.659 403.376 901.456 403.376L785.221 403.376C770.018 403.376 757.693 391.051 757.693 375.849L757.693 366.485Z" fill="#593f92" fill-rule="nonzero" opacity="1" stroke="none" vectornator:layerName="Rectangle 2"/>
<path d="M812.158 345.49C812.158 330.411 826.158 318.187 843.429 318.187C860.7 318.187 874.7 330.411 874.7 345.49C874.7 360.569 860.7 372.793 843.429 372.793C826.158 372.793 812.158 360.569 812.158 345.49Z" fill="#c0a3ff" fill-rule="nonzero" opacity="1" stroke="none" vectornator:layerName="Oval 1"/>
<path d="M795.369 464.724C795.369 460.559 798.938 457.183 803.341 457.183L928.437 457.183C932.84 457.183 936.409 460.559 936.409 464.724L936.409 464.724C936.409 468.889 932.84 472.266 928.437 472.266L803.341 472.266C798.938 472.266 795.369 468.889 795.369 464.724L795.369 464.724Z" fill="#593f92" fill-rule="nonzero" opacity="1" stroke="none" vectornator:layerName="Rectangle 5"/>
<path d="M795.369 507.343C795.369 503.178 798.938 499.801 803.341 499.801L928.437 499.801C932.84 499.801 936.409 503.178 936.409 507.343L936.409 507.343C936.409 511.508 932.84 514.884 928.437 514.884L803.341 514.884C798.938 514.884 795.369 511.508 795.369 507.343L795.369 507.343Z" fill="#593f92" fill-rule="nonzero" opacity="1" stroke="none" vectornator:layerName="Rectangle 6"/>
<path d="M794.195 547.308C794.195 543.143 797.764 539.767 802.167 539.767L927.263 539.767C931.666 539.767 935.235 543.143 935.235 547.308L935.235 547.308C935.235 551.473 931.666 554.849 927.263 554.849L802.167 554.849C797.764 554.849 794.195 551.473 794.195 547.308L794.195 547.308Z" fill="#593f92" fill-rule="nonzero" opacity="1" stroke="none" vectornator:layerName="Rectangle 7"/>
<path d="M795.369 584.621C795.369 580.456 798.938 577.079 803.341 577.079L928.437 577.079C932.84 577.079 936.409 580.456 936.409 584.621L936.409 584.621C936.409 588.786 932.84 592.162 928.437 592.162L803.341 592.162C798.938 592.162 795.369 588.786 795.369 584.621L795.369 584.621Z" fill="#593f92" fill-rule="nonzero" opacity="1" stroke="none" vectornator:layerName="Rectangle 8"/>
<path d="M795.369 627.239C795.369 623.074 798.938 619.697 803.341 619.697L928.437 619.697C932.84 619.697 936.409 623.074 936.409 627.239L936.409 627.239C936.409 631.404 932.84 634.78 928.437 634.78L803.341 634.78C798.938 634.78 795.369 631.404 795.369 627.239L795.369 627.239Z" fill="#593f92" fill-rule="nonzero" opacity="1" stroke="none" vectornator:layerName="Rectangle 4"/>
<path d="M750.268 457.183L771.333 457.183L771.333 477.571L750.268 477.571L750.268 457.183Z" fill="none" opacity="1" stroke="#463174" stroke-linecap="butt" stroke-linejoin="round" stroke-width="0.749812" vectornator:layerName="Rectangle 10"/>
<path d="M750.268 497.148L771.333 497.148L771.333 517.537L750.268 517.537L750.268 497.148Z" fill="none" opacity="1" stroke="#463174" stroke-linecap="butt" stroke-linejoin="round" stroke-width="0.749812" vectornator:layerName="Rectangle 11"/>
<path d="M750.268 537.114L771.333 537.114L771.333 557.502L750.268 557.502L750.268 537.114Z" fill="none" opacity="1" stroke="#463174" stroke-linecap="butt" stroke-linejoin="round" stroke-width="0.749812" vectornator:layerName="Rectangle 12"/>
<path d="M750.268 577.079L771.333 577.079L771.333 597.468L750.268 597.468L750.268 577.079Z" fill="none" opacity="1" stroke="#463174" stroke-linecap="butt" stroke-linejoin="round" stroke-width="0.749812" vectornator:layerName="Rectangle 13"/>
<path d="M750.268 617.045L771.333 617.045L771.333 637.433L750.268 637.433L750.268 617.045Z" fill="none" opacity="1" stroke="#463174" stroke-linecap="butt" stroke-linejoin="round" stroke-width="0.749812" vectornator:layerName="Rectangle 9"/>
<path d="M1121.66 574.933L1125.95 574.933C1126.99 574.933 1127.82 575.778 1127.82 576.807L1127.82 581.099C1127.82 582.135 1126.98 582.972 1125.95 582.972L1121.66 582.972C1120.63 582.968 1119.79 582.132 1119.79 581.099L1119.79 576.807C1119.78 576.31 1119.98 575.833 1120.33 575.481C1120.68 575.129 1121.16 574.932 1121.66 574.933ZM1136.54 574.933L1140.83 574.933C1141.86 574.938 1142.7 575.774 1142.7 576.807L1142.7 581.099C1142.7 582.135 1141.86 582.972 1140.83 582.972L1136.54 582.972C1135.51 582.967 1134.67 582.132 1134.67 581.099L1134.67 576.807C1134.67 575.774 1135.51 574.937 1136.54 574.933ZM1151.43 574.933L1155.72 574.933C1156.75 574.938 1157.59 575.774 1157.59 576.807L1157.59 581.099C1157.59 582.135 1156.75 582.972 1155.72 582.972L1151.43 582.972C1150.39 582.968 1149.56 582.132 1149.55 581.099L1149.55 576.807C1149.55 576.31 1149.75 575.833 1150.1 575.481C1150.45 575.129 1150.93 574.932 1151.43 574.933ZM1166.31 574.933L1170.6 574.933C1171.63 574.938 1172.47 575.774 1172.47 576.807L1172.47 581.099C1172.47 582.135 1171.63 582.972 1170.6 582.972L1166.31 582.972C1165.27 582.972 1164.43 582.135 1164.43 581.099L1164.43 576.807C1164.44 575.773 1165.28 574.939 1166.31 574.933ZM1181.19 574.933L1185.48 574.933C1186.52 574.933 1187.36 575.778 1187.36 576.807L1187.36 581.099C1187.36 582.135 1186.52 582.972 1185.48 582.972L1181.19 582.972C1180.16 582.968 1179.32 582.132 1179.32 581.099L1179.32 576.807C1179.32 575.774 1180.16 574.938 1181.19 574.933ZM1137.09 591.158L1141.38 591.158C1142.41 591.164 1143.25 592 1143.25 593.033L1143.25 597.334C1143.25 598.363 1142.41 599.207 1141.38 599.207L1137.09 599.207C1136.05 599.207 1135.21 598.368 1135.21 597.334L1135.21 593.041C1135.21 592.542 1135.41 592.063 1135.76 591.71C1136.11 591.356 1136.59 591.158 1137.09 591.158ZM1151.97 591.158L1156.26 591.158C1157.29 591.164 1158.13 592 1158.13 593.033L1158.13 597.334C1158.13 598.363 1157.29 599.207 1156.26 599.207L1151.97 599.207C1150.93 599.202 1150.1 598.367 1150.09 597.334L1150.09 593.041C1150.09 592.542 1150.29 592.063 1150.64 591.71C1150.99 591.356 1151.47 591.158 1151.97 591.158ZM1166.85 591.158L1171.14 591.158C1172.18 591.158 1173.02 592.004 1173.02 593.033L1173.02 597.334C1173.02 598.37 1172.17 599.207 1171.14 599.207L1166.85 599.207C1165.81 599.202 1164.98 598.367 1164.97 597.334L1164.97 593.041C1164.97 592.004 1165.82 591.158 1166.85 591.158ZM1151.43 557.502L1155.72 557.502C1156.75 557.502 1157.59 558.346 1157.59 559.375L1157.59 563.667C1157.59 564.705 1156.75 565.539 1155.72 565.539L1151.43 565.539C1150.39 565.536 1149.56 564.7 1149.55 563.667L1149.55 559.375C1149.55 558.878 1149.75 558.401 1150.1 558.049C1150.45 557.698 1150.93 557.501 1151.43 557.502ZM1166.31 557.502L1170.6 557.502C1171.63 557.502 1172.47 558.346 1172.47 559.375L1172.47 563.667C1172.47 564.705 1171.63 565.539 1170.6 565.539L1166.31 565.539C1165.27 565.539 1164.43 564.702 1164.43 563.667L1164.43 559.375C1164.44 558.342 1165.28 557.509 1166.31 557.502Z" fill="#ffffff" fill-rule="evenodd" opacity="1" stroke="none" vectornator:layerName="path 14"/>
<path d="M620.917 322.579L616.006 322.579C614.818 322.579 613.862 321.612 613.862 320.434L613.862 315.524C613.862 314.338 614.829 313.381 616.006 313.381L620.917 313.381C622.099 313.385 623.056 314.342 623.06 315.524L623.06 320.434C623.061 321.003 622.836 321.549 622.434 321.952C622.032 322.354 621.486 322.58 620.917 322.579ZM603.891 322.579L598.98 322.579C597.799 322.573 596.842 321.616 596.838 320.434L596.838 315.524C596.838 314.338 597.803 313.381 598.98 313.381L603.891 313.381C605.073 313.386 606.03 314.342 606.035 315.524L606.035 320.434C606.031 321.617 605.073 322.574 603.891 322.579ZM586.856 322.579L581.944 322.579C580.762 322.573 579.806 321.616 579.801 320.434L579.801 315.524C579.801 314.338 580.766 313.381 581.944 313.381L586.856 313.381C588.038 313.385 588.995 314.342 588.999 315.524L588.999 320.434C589 321.003 588.775 321.549 588.373 321.952C587.971 322.354 587.425 322.58 586.856 322.579ZM569.828 322.579L564.918 322.579C563.736 322.573 562.78 321.616 562.775 320.434L562.775 315.524C562.775 314.338 563.741 313.381 564.918 313.381L569.828 313.381C571.013 313.381 571.976 314.339 571.982 315.524L571.982 320.434C571.969 321.617 571.011 322.571 569.828 322.579ZM552.802 322.579L547.892 322.579C546.704 322.579 545.738 321.612 545.738 320.434L545.738 315.524C545.738 314.338 546.704 313.381 547.892 313.381L552.802 313.381C553.984 313.385 554.941 314.342 554.945 315.524L554.945 320.434C554.94 321.616 553.984 322.573 552.802 322.579ZM603.266 304.014L598.356 304.014C597.174 304.008 596.218 303.051 596.213 301.869L596.213 296.948C596.213 295.771 597.178 294.805 598.356 294.805L603.266 294.805C604.45 294.805 605.41 295.765 605.411 296.948L605.411 301.86C605.413 302.431 605.189 302.979 604.786 303.383C604.384 303.787 603.836 304.014 603.266 304.014ZM586.24 304.014L581.33 304.014C580.148 304.008 579.192 303.051 579.187 301.869L579.187 296.948C579.187 295.771 580.152 294.805 581.33 294.805L586.24 294.805C587.422 294.81 588.379 295.767 588.385 296.948L588.385 301.86C588.387 302.431 588.163 302.979 587.76 303.383C587.358 303.787 586.81 304.014 586.24 304.014ZM569.214 304.014L564.304 304.014C563.116 304.014 562.15 303.047 562.15 301.869L562.15 296.948C562.156 295.763 563.118 294.805 564.304 294.805L569.214 294.805C570.396 294.81 571.353 295.767 571.359 296.948L571.359 301.86C571.359 303.047 570.391 304.014 569.214 304.014ZM586.856 342.523L581.944 342.523C580.766 342.523 579.801 341.557 579.801 340.38L579.801 335.469C579.801 334.281 580.766 333.327 581.944 333.327L586.856 333.327C588.038 333.33 588.995 334.288 588.999 335.469L588.999 340.38C589 340.949 588.775 341.494 588.373 341.897C587.971 342.299 587.425 342.524 586.856 342.523ZM569.828 342.523L564.918 342.523C563.741 342.523 562.775 341.557 562.775 340.38L562.775 335.469C562.775 334.281 563.741 333.327 564.918 333.327L569.828 333.327C571.013 333.327 571.976 334.284 571.982 335.469L571.982 340.38C571.968 341.562 571.01 342.515 569.828 342.523Z" fill="#ffffff" fill-rule="evenodd" opacity="1" stroke="none" vectornator:layerName="path 7"/>
<path d="M1028.25 515.032C1028.25 519.279 1031.72 522.722 1036.01 522.722C1040.29 522.722 1043.77 519.279 1043.77 515.032C1043.77 510.785 1040.29 507.343 1036.01 507.343C1031.72 507.343 1028.25 510.785 1028.25 515.032Z" fill="#ffffff" fill-rule="nonzero" opacity="1" stroke="none" vectornator:layerName="ellipse 5"/>
<path d="M891.665 770.7C891.665 774.947 895.139 778.39 899.424 778.39C903.71 778.39 907.184 774.947 907.184 770.7C907.184 766.453 903.71 763.01 899.424 763.01C895.139 763.01 891.665 766.453 891.665 770.7Z" fill="#ffffff" fill-rule="nonzero" opacity="1" stroke="none" vectornator:layerName="ellipse 6"/>
<path d="M876.146 217.794C876.146 222.041 879.62 225.483 883.905 225.483C888.191 225.483 891.665 222.041 891.665 217.794C891.665 213.547 888.191 210.104 883.905 210.104C879.62 210.104 876.146 213.547 876.146 217.794Z" fill="#ffffff" fill-rule="nonzero" opacity="1" stroke="none" vectornator:layerName="ellipse 3"/>
<path d="M615.3 411.066C615.3 415.313 618.774 418.756 623.06 418.756C627.345 418.756 630.819 415.313 630.819 411.066C630.819 406.819 627.345 403.376 623.06 403.376C618.774 403.376 615.3 406.819 615.3 411.066Z" fill="#ffffff" fill-rule="nonzero" opacity="1" stroke="none" vectornator:layerName="ellipse 4"/>
<path d="M599.518 732.652C599.518 736.899 602.992 740.342 607.278 740.342C611.563 740.342 615.037 736.899 615.037 732.652C615.037 728.405 611.563 724.962 607.278 724.962C602.992 724.962 599.518 728.405 599.518 732.652Z" fill="#ffffff" fill-rule="nonzero" opacity="1" stroke="none" vectornator:layerName="ellipse"/>
<path d="M1083.48 352.405C1090.35 348.674 1092.04 338.504 1092.04 338.504C1092.04 338.504 1082.59 334.389 1075.73 338.126C1068.86 341.857 1067.17 352.022 1067.17 352.022C1067.17 352.022 1076.62 356.136 1083.48 352.405Z" fill="#ffffff" fill-rule="nonzero" opacity="1" stroke="none" vectornator:layerName="path 19"/>
<path d="M811.165 738.031C816.335 732.171 814.434 722.038 814.434 722.038C814.434 722.038 804.149 721.413 798.982 727.278C793.812 733.138 795.709 743.266 795.709 743.266C795.709 743.266 805.993 743.891 811.165 738.031Z" fill="#ffffff" fill-rule="nonzero" opacity="1" stroke="none" vectornator:layerName="path 18"/>
<path d="M776.027 273.591C781.678 278.989 791.878 277.49 791.878 277.49C791.878 277.49 792.909 267.238 787.253 261.843C781.601 256.445 771.406 257.941 771.406 257.941C771.406 257.941 770.375 268.193 776.027 273.591Z" fill="#ffffff" fill-rule="nonzero" opacity="1" stroke="none" vectornator:layerName="path 9"/>
<path d="M624.922 587.129C638.293 592.796 655.034 583.485 655.034 583.485C655.034 583.485 650.086 564.989 636.709 559.332C623.339 553.665 606.604 562.967 606.604 562.967C606.604 562.967 611.552 581.462 624.922 587.129Z" fill="#ffffff" fill-rule="nonzero" opacity="1" stroke="none" vectornator:layerName="path 17"/>
</g>
</g>
</svg>
