<?xml version="1.0" encoding="UTF-8" standalone="no"?>
<!DOCTYPE svg PUBLIC "-//W3C//DTD SVG 1.1//EN" "http://www.w3.org/Graphics/SVG/1.1/DTD/svg11.dtd">
<!-- Created with Vectornator (http://vectornator.io/) -->
<svg height="100%" stroke-miterlimit="10" style="fill-rule:nonzero;clip-rule:evenodd;stroke-linecap:round;stroke-linejoin:round;" version="1.1" viewBox="800.654 85.9597 193.21 245.774" width="100%" xml:space="preserve" xmlns="http://www.w3.org/2000/svg" xmlns:vectornator="http://vectornator.io" xmlns:xlink="http://www.w3.org/1999/xlink">
<defs>
<filter color-interpolation-filters="sRGB" filterUnits="userSpaceOnUse" height="48.435" id="Filter" width="48.6859" x="930.474" y="283.299">
<feDropShadow dx="-0" dy="0" flood-color="#000000" flood-opacity="0.333" in="SourceGraphic" result="Shadow" stdDeviation="0"/>
</filter>
<linearGradient gradientTransform="matrix(0.192899 0 0 0.192899 826.159 100.712)" gradientUnits="userSpaceOnUse" id="LinearGradient" x1="786.014" x2="658.674" y1="237.749" y2="275.606">
<stop offset="0" stop-color="#ffffff"/>
<stop offset="1" stop-color="#eeeeee"/>
</linearGradient>
<linearGradient gradientTransform="matrix(0.321596 -0.158264 0.158264 0.321596 726.254 151.493)" gradientUnits="userSpaceOnUse" id="LinearGradient_2" x1="159.398" x2="95.26" y1="374.781" y2="258.441">
<stop offset="0" stop-color="#ffffff"/>
<stop offset="1" stop-color="#eeeeee"/>
</linearGradient>
<linearGradient gradientTransform="matrix(0.354081 0.0556606 -0.0556606 0.354081 845.989 13.7145)" gradientUnits="userSpaceOnUse" id="LinearGradient_3" x1="159.398" x2="95.26" y1="374.781" y2="258.441">
<stop offset="0" stop-color="#ffffff"/>
<stop offset="1" stop-color="#eeeeee"/>
</linearGradient>
</defs>
<clipPath id="ArtboardFrame">
<rect height="245.774" width="193.21" x="800.654" y="85.9597"/>
</clipPath>
<g clip-path="url(#ArtboardFrame)" id="Layer" vectornator:layerName="Layer">
<g opacity="1" vectornator:layerName="diagnosis">
<path d="M842.297 185.576C842.297 175.514 850.454 167.357 860.515 167.357L928.633 167.357C938.694 167.357 946.851 175.514 946.851 185.576L946.851 280.935C946.851 290.997 938.694 299.153 928.633 299.153L860.515 299.153C850.454 299.153 842.297 290.997 842.297 280.935L842.297 185.576Z" fill="#ffffff" fill-rule="nonzero" opacity="1" stroke="none" vectornator:layerName="Rectangle 3"/>
<g filter="url(#Filter)" vectornator:layerName="Group 11" vectornator:shadowAngle="2.0207" vectornator:shadowColor="#000000" vectornator:shadowOffset="0" vectornator:shadowOpacity="0.333" vectornator:shadowRadius="0">
<path d="M978.57 307.474C978.57 294.448 967.935 283.889 954.817 283.889C941.698 283.889 931.064 294.448 931.064 307.474C931.064 320.499 931.064 329.845 954.817 331.058C978.542 332.269 978.57 320.499 978.57 307.474Z" fill="#ffffff" fill-rule="nonzero" opacity="1" stroke="#463174" stroke-linecap="butt" stroke-linejoin="round" stroke-width="1.18" vectornator:layerName="Oval 2"/>
<path d="M957.809 318.34C957.809 316.933 956.313 317.172 954.817 317.172C953.321 317.172 951.825 316.933 951.825 318.34C951.825 319.747 953.164 320.887 954.817 320.887C956.469 320.887 957.809 319.747 957.809 318.34Z" fill="#463174" fill-rule="nonzero" opacity="1" stroke="none" vectornator:layerName="Oval 4"/>
<g opacity="1" vectornator:layerName="Group 4">
<g opacity="1" vectornator:layerName="Group 2">
<path d="M966.866 308.35C966.866 306.676 965.59 305.319 964.016 305.319C962.443 305.319 961.167 306.676 961.167 308.35C961.167 310.024 962.443 311.381 964.016 311.381C965.59 311.381 966.866 310.024 966.866 308.35Z" fill="#463174" fill-rule="nonzero" opacity="1" stroke="none" vectornator:layerName="Oval 4"/>
<path d="M964.016 307.257C964.016 306.654 963.468 306.165 962.79 306.165C962.113 306.165 961.564 306.654 961.564 307.257C961.564 307.861 962.113 308.35 962.79 308.35C963.468 308.35 964.016 307.861 964.016 307.257Z" fill="#ffffff" fill-rule="nonzero" opacity="1" stroke="none" vectornator:layerName="Oval 7"/>
</g>
<g opacity="1" vectornator:layerName="Group 1">
<path d="M947.375 308.35C947.375 306.676 946.099 305.319 944.525 305.319C942.952 305.319 941.676 306.676 941.676 308.35C941.676 310.024 942.952 311.381 944.525 311.381C946.099 311.381 947.375 310.024 947.375 308.35Z" fill="#463174" fill-rule="nonzero" opacity="1" stroke="none" vectornator:layerName="Oval 4"/>
<path d="M944.525 307.257C944.525 306.654 943.976 306.165 943.299 306.165C942.622 306.165 942.073 306.654 942.073 307.257C942.073 307.861 942.622 308.35 943.299 308.35C943.976 308.35 944.525 307.861 944.525 307.257Z" fill="#ffffff" fill-rule="nonzero" opacity="1" stroke="none" vectornator:layerName="Oval 7"/>
</g>
</g>
</g>
<path d="M864.765 180.722C864.765 175.431 869.055 171.141 874.346 171.141L914.802 171.141C920.093 171.141 924.383 175.431 924.383 180.722L924.383 183.981C924.383 189.272 920.093 193.562 914.802 193.562L874.346 193.562C869.055 193.562 864.765 189.272 864.765 183.981L864.765 180.722Z" fill="#593f92" fill-rule="nonzero" opacity="1" stroke="none" vectornator:layerName="Rectangle 2"/>
<g opacity="1" vectornator:layerName="Marker Pen">
<path d="M947.686 92.1856L951.517 88.3546C952.596 87.2755 954.269 87.2755 955.348 88.3546L962.2 95.2072C963.28 96.2863 963.28 97.959 962.2 99.0381L958.369 102.869" fill="#ffffff" fill-rule="nonzero" opacity="1" stroke="none" vectornator:layerName="path"/>
<path d="M936.193 124.991L930.851 119.65L925.51 114.308L947.686 92.1856L958.369 102.869L936.193 124.991Z" fill="#feeff0" fill-rule="nonzero" opacity="1" stroke="none" vectornator:layerName="path"/>
<path d="M936.193 124.991L930.851 119.65L930.851 119.65L953.028 97.5273L958.369 102.869L936.193 124.991Z" fill="#593f92" fill-rule="nonzero" opacity="1" stroke="none" vectornator:layerName="path"/>
<path d="M953.428 85.9597C952.322 85.9597 951.212 86.388 950.376 87.2243L946.582 91.0181C946.557 91.04 946.521 91.0283 946.498 91.0519L924.375 113.174C924.222 113.314 919.742 128.549 919.957 129.412C920.173 130.113 920.807 130.609 921.509 130.609C921.671 130.609 937.157 126.325 937.325 126.124L959.329 104.12C959.382 104.084 959.449 104.093 959.498 104.052L963.325 100.225C964.135 99.3613 964.573 98.3428 964.573 97.1558C964.573 95.9687 964.135 94.8794 963.325 94.0701L956.48 87.2243C955.643 86.388 954.534 85.9597 953.428 85.9597ZM953.377 89.1634C953.651 89.1634 953.937 89.2679 954.153 89.4837L961.066 96.397C961.282 96.6128 961.386 96.886 961.386 97.1558C961.386 97.4255 961.282 97.6818 961.066 97.8977L958.334 100.629L949.92 92.2153L952.652 89.4837C952.841 89.2679 953.103 89.1634 953.377 89.1634ZM947.678 94.4579L956.041 102.872L954.244 104.702L936.246 122.718L927.832 114.304L947.678 94.4579ZM926.382 117.44L933.093 124.151L928.169 125.483L925.05 122.364L926.382 117.44Z" fill="#c0a3ff" fill-rule="nonzero" opacity="1" stroke="none"/>
</g>
<path d="M883.155 172.382C883.155 166.876 888.268 162.412 894.574 162.412C900.88 162.412 905.993 166.876 905.993 172.382C905.993 177.888 900.88 182.351 894.574 182.351C888.268 182.351 883.155 177.888 883.155 172.382Z" fill="#c0a3ff" fill-rule="nonzero" opacity="1" stroke="none" vectornator:layerName="Oval 1"/>
<path d="M877.47 215.837C877.47 214.387 878.712 213.212 880.244 213.212L923.784 213.212C925.316 213.212 926.558 214.387 926.558 215.837L926.558 215.837C926.558 217.287 925.316 218.462 923.784 218.462L880.244 218.462C878.712 218.462 877.47 217.287 877.47 215.837L877.47 215.837Z" fill="#593f92" fill-rule="nonzero" opacity="1" stroke="none" vectornator:layerName="Rectangle 5"/>
<path d="M877.47 229.747C877.47 228.297 878.712 227.122 880.244 227.122L923.784 227.122C925.316 227.122 926.558 228.297 926.558 229.747L926.558 229.747C926.558 231.196 925.316 232.372 923.784 232.372L880.244 232.372C878.712 232.372 877.47 231.196 877.47 229.747L877.47 229.747Z" fill="#593f92" fill-rule="nonzero" opacity="1" stroke="none" vectornator:layerName="Rectangle 6"/>
<path d="M877.47 243.657C877.47 242.207 878.712 241.032 880.244 241.032L923.784 241.032C925.316 241.032 926.558 242.207 926.558 243.657L926.558 243.657C926.558 245.106 925.316 246.282 923.784 246.282L880.244 246.282C878.712 246.282 877.47 245.106 877.47 243.657L877.47 243.657Z" fill="#593f92" fill-rule="nonzero" opacity="1" stroke="none" vectornator:layerName="Rectangle 7"/>
<path d="M877.47 257.567C877.47 256.117 878.712 254.942 880.244 254.942L923.784 254.942C925.316 254.942 926.558 256.117 926.558 257.567L926.558 257.567C926.558 259.016 925.316 260.191 923.784 260.191L880.244 260.191C878.712 260.191 877.47 259.016 877.47 257.567L877.47 257.567Z" fill="#dddddd" fill-rule="nonzero" opacity="1" stroke="none" vectornator:layerName="Rectangle 8"/>
<path d="M877.47 271.477C877.47 270.027 878.712 268.852 880.244 268.852L923.784 268.852C925.316 268.852 926.558 270.027 926.558 271.477L926.558 271.477C926.558 272.926 925.316 274.101 923.784 274.101L880.244 274.101C878.712 274.101 877.47 272.926 877.47 271.477L877.47 271.477Z" fill="#dddddd" fill-rule="nonzero" opacity="1" stroke="none" vectornator:layerName="Rectangle 4"/>
<path d="M862.181 212.289L869.512 212.289L869.512 219.385L862.181 219.385L862.181 212.289Z" fill="#c0a3ff" fill-rule="nonzero" opacity="1" stroke="#d1bef9" stroke-linecap="butt" stroke-linejoin="round" stroke-width="0.749812" vectornator:layerName="Rectangle 10"/>
<path d="M862.181 226.199L869.512 226.199L869.512 233.295L862.181 233.295L862.181 226.199Z" fill="#c0a3ff" fill-rule="nonzero" opacity="1" stroke="#d1bef9" stroke-linecap="butt" stroke-linejoin="round" stroke-width="0.749812" vectornator:layerName="Rectangle 11"/>
<path d="M862.181 240.109L869.512 240.109L869.512 247.205L862.181 247.205L862.181 240.109Z" fill="#c0a3ff" fill-rule="nonzero" opacity="1" stroke="#d1bef9" stroke-linecap="butt" stroke-linejoin="round" stroke-width="0.749812" vectornator:layerName="Rectangle 12"/>
<path d="M862.181 254.019L869.512 254.019L869.512 261.115L862.181 261.115L862.181 254.019Z" fill="none" opacity="1" stroke="#dddddd" stroke-linecap="butt" stroke-linejoin="round" stroke-width="0.749812" vectornator:layerName="Rectangle 13"/>
<path d="M862.181 267.928L869.512 267.928L869.512 275.025L862.181 275.025L862.181 267.928Z" fill="none" opacity="1" stroke="#dddddd" stroke-linecap="butt" stroke-linejoin="round" stroke-width="0.749812" vectornator:layerName="Rectangle 9"/>
<path d="M975.777 249.093L976.959 249.093C977.244 249.093 977.475 249.326 977.475 249.609L977.475 250.79C977.475 251.076 977.242 251.306 976.959 251.306L975.777 251.306C975.493 251.305 975.263 251.075 975.262 250.79L975.262 249.609C975.261 249.472 975.316 249.341 975.412 249.244C975.509 249.147 975.64 249.093 975.777 249.093ZM979.873 249.093L981.055 249.093C981.339 249.094 981.569 249.325 981.57 249.609L981.57 250.79C981.57 251.076 981.338 251.306 981.055 251.306L979.873 251.306C979.589 251.305 979.359 251.075 979.358 250.79L979.358 249.609C979.359 249.324 979.589 249.094 979.873 249.093ZM983.972 249.093L985.154 249.093C985.438 249.094 985.668 249.325 985.669 249.609L985.669 250.79C985.669 251.076 985.437 251.306 985.154 251.306L983.972 251.306C983.688 251.305 983.457 251.075 983.456 250.79L983.456 249.609C983.456 249.472 983.51 249.341 983.607 249.244C983.704 249.147 983.835 249.093 983.972 249.093ZM988.069 249.093L989.25 249.093C989.534 249.094 989.764 249.325 989.766 249.609L989.766 250.79C989.766 251.076 989.533 251.306 989.25 251.306L988.069 251.306C987.784 251.306 987.552 251.075 987.551 250.79L987.551 249.609C987.554 249.324 987.784 249.095 988.069 249.093ZM992.165 249.093L993.346 249.093C993.632 249.093 993.864 249.326 993.864 249.609L993.864 250.79C993.864 251.076 993.632 251.306 993.346 251.306L992.165 251.306C991.881 251.305 991.65 251.075 991.649 250.79L991.649 249.609C991.651 249.325 991.881 249.094 992.165 249.093ZM980.024 253.56L981.205 253.56C981.49 253.561 981.72 253.791 981.721 254.076L981.721 255.26C981.721 255.543 981.488 255.775 981.205 255.775L980.024 255.775C979.739 255.775 979.508 255.544 979.508 255.26L979.508 254.078C979.507 253.94 979.561 253.809 979.658 253.711C979.755 253.614 979.887 253.559 980.024 253.56ZM984.12 253.56L985.302 253.56C985.586 253.561 985.816 253.791 985.817 254.076L985.817 255.26C985.817 255.543 985.585 255.775 985.302 255.775L984.12 255.775C983.836 255.774 983.606 255.544 983.604 255.26L983.604 254.078C983.603 253.94 983.658 253.809 983.754 253.711C983.851 253.614 983.983 253.559 984.12 253.56ZM988.216 253.56L989.398 253.56C989.684 253.56 989.916 253.792 989.916 254.076L989.916 255.26C989.915 255.545 989.683 255.775 989.398 255.775L988.216 255.775C987.932 255.774 987.702 255.544 987.7 255.26L987.7 254.078C987.7 253.792 987.933 253.56 988.216 253.56ZM983.972 244.295L985.154 244.295C985.437 244.295 985.669 244.527 985.669 244.81L985.669 245.992C985.669 246.277 985.437 246.507 985.154 246.507L983.972 246.507C983.688 246.506 983.457 246.276 983.456 245.992L983.456 244.81C983.456 244.673 983.51 244.542 983.607 244.445C983.704 244.349 983.835 244.294 983.972 244.295ZM988.069 244.295L989.25 244.295C989.533 244.295 989.766 244.527 989.766 244.81L989.766 245.992C989.766 246.277 989.533 246.507 989.25 246.507L988.069 246.507C987.784 246.507 987.552 246.277 987.551 245.992L987.551 244.81C987.554 244.526 987.784 244.297 988.069 244.295Z" fill="#e1e4e5" fill-rule="evenodd" opacity="1" stroke="none" vectornator:layerName="path 14"/>
<path d="M829.294 104.313L828.112 104.313C827.826 104.313 827.596 104.08 827.596 103.797L827.596 102.615C827.596 102.33 827.829 102.1 828.112 102.1L829.294 102.1C829.578 102.101 829.808 102.331 829.809 102.615L829.809 103.797C829.81 103.933 829.755 104.065 829.659 104.162C829.562 104.258 829.431 104.313 829.294 104.313ZM825.197 104.313L824.016 104.313C823.732 104.311 823.502 104.081 823.5 103.797L823.5 102.615C823.5 102.33 823.733 102.1 824.016 102.1L825.197 102.1C825.482 102.101 825.712 102.331 825.713 102.615L825.713 103.797C825.712 104.081 825.482 104.311 825.197 104.313ZM821.099 104.313L819.917 104.313C819.633 104.311 819.403 104.081 819.402 103.797L819.402 102.615C819.402 102.33 819.634 102.1 819.917 102.1L821.099 102.1C821.383 102.101 821.614 102.331 821.614 102.615L821.614 103.797C821.615 103.933 821.561 104.065 821.464 104.162C821.367 104.258 821.236 104.313 821.099 104.313ZM817.002 104.313L815.821 104.313C815.536 104.311 815.306 104.081 815.305 103.797L815.305 102.615C815.305 102.33 815.538 102.1 815.821 102.1L817.002 102.1C817.287 102.1 817.519 102.33 817.52 102.615L817.52 103.797C817.517 104.081 817.287 104.311 817.002 104.313ZM812.906 104.313L811.724 104.313C811.439 104.313 811.206 104.08 811.206 103.797L811.206 102.615C811.206 102.33 811.439 102.1 811.724 102.1L812.906 102.1C813.19 102.101 813.42 102.331 813.421 102.615L813.421 103.797C813.42 104.081 813.19 104.311 812.906 104.313ZM825.047 99.8459L823.866 99.8459C823.581 99.8445 823.351 99.6143 823.35 99.33L823.35 98.146C823.35 97.8628 823.582 97.6305 823.866 97.6305L825.047 97.6305C825.332 97.6305 825.563 97.8612 825.563 98.146L825.563 99.3278C825.564 99.4651 825.51 99.5969 825.413 99.6942C825.316 99.7914 825.184 99.8461 825.047 99.8459ZM820.951 99.8459L819.769 99.8459C819.485 99.8445 819.255 99.6143 819.254 99.33L819.254 98.146C819.254 97.8628 819.486 97.6305 819.769 97.6305L820.951 97.6305C821.235 97.6316 821.465 97.8617 821.467 98.146L821.467 99.3278C821.467 99.4651 821.413 99.5969 821.316 99.6942C821.22 99.7914 821.088 99.8461 820.951 99.8459ZM816.854 99.8459L815.673 99.8459C815.387 99.8459 815.155 99.6132 815.155 99.33L815.155 98.146C815.156 97.8609 815.388 97.6305 815.673 97.6305L816.854 97.6305C817.139 97.6316 817.369 97.8617 817.37 98.146L817.37 99.3278C817.37 99.6132 817.138 99.8459 816.854 99.8459ZM821.099 109.111L819.917 109.111C819.634 109.111 819.402 108.879 819.402 108.595L819.402 107.414C819.402 107.128 819.634 106.898 819.917 106.898L821.099 106.898C821.383 106.899 821.614 107.13 821.614 107.414L821.614 108.595C821.615 108.732 821.561 108.863 821.464 108.96C821.367 109.057 821.236 109.111 821.099 109.111ZM817.002 109.111L815.821 109.111C815.538 109.111 815.305 108.879 815.305 108.595L815.305 107.414C815.305 107.128 815.538 106.898 815.821 106.898L817.002 106.898C817.287 106.898 817.519 107.129 817.52 107.414L817.52 108.595C817.517 108.88 817.287 109.109 817.002 109.111Z" fill="#e1e4e5" fill-rule="evenodd" opacity="1" stroke="none" vectornator:layerName="path 7"/>
<path d="M968.591 206.661C968.591 208.139 969.801 209.338 971.292 209.338C972.784 209.338 973.993 208.139 973.993 206.661C973.993 205.183 972.784 203.985 971.292 203.985C969.801 203.985 968.591 205.183 968.591 206.661Z" fill="#e1e4e5" fill-rule="nonzero" opacity="1" stroke="none" vectornator:layerName="ellipse 3"/>
<path d="M822.826 164.805C822.826 166.283 824.035 167.481 825.527 167.481C827.018 167.481 828.227 166.283 828.227 164.805C828.227 163.327 827.018 162.129 825.527 162.129C824.035 162.129 822.826 163.327 822.826 164.805Z" fill="#e1e4e5" fill-rule="nonzero" opacity="1" stroke="none" vectornator:layerName="ellipse 5"/>
<path d="M874.383 91.2915C874.383 92.7697 875.592 93.9679 877.084 93.9679C878.575 93.9679 879.785 92.7697 879.785 91.2915C879.785 89.8134 878.575 88.6151 877.084 88.6151C875.592 88.6151 874.383 89.8134 874.383 91.2915Z" fill="#e1e4e5" fill-rule="nonzero" opacity="1" stroke="none" vectornator:layerName="ellipse 4"/>
<path d="M800.654 270.854C800.654 272.332 801.863 273.531 803.355 273.531C804.846 273.531 806.055 272.332 806.055 270.854C806.055 269.376 804.846 268.178 803.355 268.178C801.863 268.178 800.654 269.376 800.654 270.854Z" fill="#e1e4e5" fill-rule="nonzero" opacity="1" stroke="none" vectornator:layerName="ellipse"/>
<path d="M969.315 152.062C971.705 150.763 972.293 147.223 972.293 147.223C972.293 147.223 969.005 145.791 966.615 147.092C964.225 148.39 963.637 151.928 963.637 151.928C963.637 151.928 966.924 153.36 969.315 152.062Z" fill="url(#LinearGradient)" fill-rule="nonzero" opacity="1" stroke="none" vectornator:layerName="path 9"/>
<path d="M819.056 240.836C823.71 242.808 829.536 239.568 829.536 239.568C829.536 239.568 827.814 233.13 823.158 231.161C818.505 229.189 812.68 232.427 812.68 232.427C812.68 232.427 814.402 238.864 819.056 240.836Z" fill="url(#LinearGradient_2)" fill-rule="nonzero" opacity="1" stroke="none" vectornator:layerName="path 18"/>
<path d="M870.462 140.188C873.133 144.479 879.763 145.183 879.763 145.183C879.763 145.183 882.059 138.927 879.385 134.637C876.715 130.346 870.088 129.642 870.088 129.642C870.088 129.642 867.792 135.897 870.462 140.188Z" fill="url(#LinearGradient_3)" fill-rule="nonzero" opacity="1" stroke="none" vectornator:layerName="path 17"/>
</g>
</g>
</svg>
