<?xml version="1.0" encoding="UTF-8" standalone="no"?>
<!DOCTYPE svg PUBLIC "-//W3C//DTD SVG 1.1//EN" "http://www.w3.org/Graphics/SVG/1.1/DTD/svg11.dtd">
<!-- Created with Vectornator (http://vectornator.io/) -->
<svg height="100%" stroke-miterlimit="10" style="fill-rule:nonzero;clip-rule:evenodd;stroke-linecap:round;stroke-linejoin:round;" version="1.1" viewBox="629.99 1393.72 442.327 416.341" width="100%" xml:space="preserve" xmlns="http://www.w3.org/2000/svg" xmlns:vectornator="http://vectornator.io" xmlns:xlink="http://www.w3.org/1999/xlink">
<defs/>
<clipPath id="ArtboardFrame">
<rect height="416.341" width="442.327" x="629.99" y="1393.72"/>
</clipPath>
<g clip-path="url(#ArtboardFrame)" id="Layer" vectornator:layerName="Layer">
<g opacity="1" vectornator:layerName="Group 44">
<path d="M631.133 1644.29C641.508 1545.83 693.153 1438.51 831.159 1399.17C947.206 1366.09 1064.37 1488.59 1071.85 1635.92C1076.03 1718.25 1052.39 1784.19 985.951 1804.31C947.941 1815.81 878.742 1788.66 836.209 1800.86C710.342 1836.96 618.614 1763.12 631.133 1644.29Z" fill="#ffffff" fill-rule="nonzero" opacity="1" stroke="none" vectornator:layerName="Oval 3"/>
<path d="M684.068 1715.34L1022.42 1715.34L1022.42 1715.34L1022.42 1740.33L1022.42 1740.33L684.068 1740.33L684.068 1740.33L684.068 1715.34L684.068 1715.34Z" fill="#d1bef9" fill-rule="nonzero" opacity="1" stroke="none" vectornator:layerName="rect"/>
<path d="M1021.95 1715.37L792.615 1715.37L683.984 1715.37L683.984 1714.53L1022.1 1714.53L1021.95 1715.37Z" fill="#9f89cf" fill-rule="nonzero" opacity="1" stroke="none" vectornator:layerName="polygon"/>
<path d="M947.915 1579.09L947.915 1653.07L755.536 1653.07L755.536 1579.09C755.535 1528.13 795.29 1486 846.172 1483.06C848.009 1482.95 849.86 1482.9 851.725 1482.9C852.788 1482.9 853.847 1482.92 854.899 1482.96C879.305 1483.73 902.497 1493.79 919.74 1511.08C920.26 1511.6 920.772 1512.12 921.283 1512.65C938.382 1530.55 947.921 1554.34 947.915 1579.09Z" fill="#c0a3ff" fill-rule="nonzero" opacity="0.99209" stroke="#593f92" stroke-linecap="butt" stroke-linejoin="round" stroke-width="2.7332" vectornator:layerName="path"/>
<path d="M856.089 1482.96L856.089 1653.07L847.362 1653.07L847.362 1483.06C849.199 1482.95 851.05 1482.9 852.915 1482.9C853.978 1482.9 855.037 1482.92 856.089 1482.96Z" fill="#593f92" fill-rule="nonzero" opacity="1" stroke="none" vectornator:layerName="path"/>
<path d="M928.681 1521.38L774.77 1521.38C777.061 1518.33 779.531 1515.41 782.167 1512.65L921.283 1512.65C923.92 1515.41 926.39 1518.33 928.681 1521.38Z" fill="#593f92" fill-rule="nonzero" opacity="1" stroke="none" vectornator:layerName="path"/>
<path d="M765.706 1615.38C765.706 1607.53 772.07 1601.17 779.921 1601.17C787.771 1601.17 794.135 1607.53 794.135 1615.38C794.135 1623.24 787.771 1629.6 779.921 1629.6C772.07 1629.6 765.706 1623.24 765.706 1615.38Z" fill="#d1bef9" fill-rule="nonzero" opacity="1" stroke="none" vectornator:layerName="circle 3"/>
<path d="M882.384 1569.62C882.384 1561.77 888.748 1555.4 896.599 1555.4C904.449 1555.4 910.813 1561.77 910.813 1569.62C910.813 1577.47 904.449 1583.83 896.599 1583.83C888.748 1583.83 882.384 1577.47 882.384 1569.62Z" fill="#ffffff" fill-rule="nonzero" opacity="0.496124" stroke="none" vectornator:layerName="circle 10"/>
<path d="M886.724 1569.62C886.724 1564.16 891.145 1559.74 896.599 1559.74C902.052 1559.74 906.473 1564.16 906.473 1569.62C906.473 1575.07 902.052 1579.49 896.599 1579.49C891.145 1579.49 886.724 1575.07 886.724 1569.62Z" fill="#ffffff" fill-rule="nonzero" opacity="0.602713" stroke="none" vectornator:layerName="circle 11"/>
<path d="M890.613 1569.62C890.613 1566.31 893.293 1563.63 896.599 1563.63C899.904 1563.63 902.584 1566.31 902.584 1569.62C902.584 1572.92 899.904 1575.6 896.599 1575.6C893.293 1575.6 890.613 1572.92 890.613 1569.62Z" fill="#ffffff" fill-rule="nonzero" opacity="0.899225" stroke="none" vectornator:layerName="circle 12"/>
<path d="M779.96 1615.38L779.999 1615.38L780.702 1655.68L779.218 1655.68L779.96 1615.38Z" fill="#ffffff" fill-rule="nonzero" opacity="1" stroke="none" vectornator:layerName="polygon 1"/>
<path d="M782.22 1636.71L782.548 1637.34L782.548 1637.34L780.198 1638.57L780.198 1638.57L779.871 1637.95L779.871 1637.95L782.22 1636.71L782.22 1636.71Z" fill="#ffffff" fill-rule="nonzero" opacity="1" stroke="none" vectornator:layerName="rect 1"/>
<path d="M800.095 1594.4C800.095 1582.46 809.773 1572.79 821.71 1572.79C833.648 1572.79 843.326 1582.46 843.326 1594.4C843.326 1606.34 833.648 1616.02 821.71 1616.02C809.773 1616.02 800.095 1606.34 800.095 1594.4Z" fill="#d1bef9" fill-rule="nonzero" opacity="1" stroke="none" vectornator:layerName="circle 2"/>
<path d="M821.77 1594.4L821.829 1594.4L822.898 1655.68L820.642 1655.68L821.77 1594.4Z" fill="#ffffff" fill-rule="nonzero" opacity="1" stroke="none" vectornator:layerName="polygon 2"/>
<path d="M825.208 1626.84L825.706 1627.78L825.706 1627.78L822.132 1629.66L822.132 1629.66L821.634 1628.72L821.634 1628.72L825.208 1626.84L825.208 1626.84Z" fill="#ffffff" fill-rule="nonzero" opacity="1" stroke="none" vectornator:layerName="rect 2"/>
<path d="M777.128 1573.76L780.779 1570.84C777.942 1570.53 776.777 1572.07 776.3 1573.3C774.084 1572.38 771.671 1573.59 771.671 1573.59L778.977 1576.24C778.609 1575.25 777.967 1574.39 777.128 1573.76Z" fill="#ffffff" fill-rule="nonzero" opacity="1" stroke="none" vectornator:layerName="path"/>
<path d="M815.603 1549.96L819.255 1547.04C816.418 1546.73 815.253 1548.28 814.776 1549.5C812.56 1548.58 810.147 1549.79 810.147 1549.79L817.453 1552.44C817.084 1551.45 816.443 1550.59 815.603 1549.96Z" fill="#ffffff" fill-rule="nonzero" opacity="1" stroke="none" vectornator:layerName="path"/>
<path d="M800.927 1572.57L804.579 1569.65C801.742 1569.34 800.576 1570.88 800.099 1572.11C797.883 1571.19 795.471 1572.4 795.471 1572.4L802.777 1575.05C802.408 1574.06 801.767 1573.2 800.927 1572.57Z" fill="#ffffff" fill-rule="nonzero" opacity="1" stroke="none" vectornator:layerName="path"/>
<path d="M746.938 1644.34L959.547 1644.34L959.547 1644.34L959.547 1666.96L959.547 1666.96L746.938 1666.96L746.938 1666.96L746.938 1644.34L746.938 1644.34Z" fill="#d1bef9" fill-rule="nonzero" opacity="1" stroke="none" vectornator:layerName="rect"/>
<path d="M715.183 1689.77C715.183 1689.77 672.177 1669.98 687.285 1656.25C702.393 1642.52 715.183 1689.77 715.183 1689.77Z" fill="#593f92" fill-rule="nonzero" opacity="1" stroke="none" vectornator:layerName="path"/>
<path d="M714.434 1694.39C714.434 1694.39 694.667 1629.44 723.775 1632.55C752.883 1635.66 714.434 1694.39 714.434 1694.39Z" fill="#593f92" fill-rule="nonzero" opacity="1" stroke="none" vectornator:layerName="path"/>
<path d="M700.022 1688.63L700.852 1699.5L700.865 1699.69C700.864 1701.38 700.95 1703.08 701.122 1704.77C702.248 1715.85 707.087 1720.9 712.743 1720.9C718.4 1720.9 723.028 1715.85 724.154 1704.77C724.326 1703.08 724.412 1701.38 724.411 1699.69L724.418 1699.53L724.421 1699.5L725.254 1688.63L700.022 1688.63Z" fill="#c0a3ff" fill-rule="nonzero" opacity="1" stroke="none" vectornator:layerName="path"/>
<path d="M724.421 1699.5L724.418 1699.53L724.411 1699.69C724.412 1701.38 724.326 1703.08 724.154 1704.77L701.122 1704.77C700.95 1703.08 700.864 1701.38 700.865 1699.69L700.852 1699.5L724.421 1699.5Z" fill="#593f92" fill-rule="nonzero" opacity="1" stroke="none" vectornator:layerName="path"/>
<path d="M1002.93 1689.77C1002.93 1689.77 959.925 1669.98 975.033 1656.25C990.141 1642.52 1002.93 1689.77 1002.93 1689.77Z" fill="#593f92" fill-rule="nonzero" opacity="1" stroke="none" vectornator:layerName="path"/>
<path d="M1002.18 1694.39C1002.18 1694.39 982.415 1629.44 1011.52 1632.55C1040.63 1635.66 1002.18 1694.39 1002.18 1694.39Z" fill="#593f92" fill-rule="nonzero" opacity="1" stroke="none" vectornator:layerName="path"/>
<path d="M987.77 1688.63L988.6 1699.5L988.613 1699.69C988.612 1701.38 988.698 1703.08 988.869 1704.77C989.995 1715.85 994.835 1720.9 1000.49 1720.9C1006.15 1720.9 1010.78 1715.85 1011.9 1704.77C1012.07 1703.08 1012.16 1701.38 1012.16 1699.69L1012.17 1699.53L1012.17 1699.5L1013 1688.63L987.77 1688.63Z" fill="#c0a3ff" fill-rule="nonzero" opacity="1" stroke="none" vectornator:layerName="path"/>
<path d="M1012.17 1699.5L1012.17 1699.53L1012.16 1699.69C1012.16 1701.38 1012.07 1703.08 1011.9 1704.77L988.869 1704.77C988.698 1703.08 988.612 1701.38 988.613 1699.69L988.6 1699.5L1012.17 1699.5Z" fill="#593f92" fill-rule="nonzero" opacity="1" stroke="none" vectornator:layerName="path"/>
<path d="M871.808 1641.15C869.567 1644.5 870.323 1645.44 870.323 1645.44C869.97 1646.66 870.063 1648.02 871.54 1648.51L872.569 1648.45C873.495 1648.76 873.72 1648.31 873.72 1648.31C873.72 1648.31 874.114 1649.64 875.565 1648.58C877.625 1647.08 876.096 1642.39 876.096 1642.39C876.096 1642.39 877.093 1627.06 877.244 1626.33C877.393 1625.61 878.964 1617.52 878.964 1617.52L871.711 1615.55L871.271 1619.52C871.271 1619.52 870.392 1624.32 870.562 1625.9C870.594 1626.2 872.141 1640.65 871.808 1641.15Z" fill="#ffffff" fill-rule="nonzero" opacity="1" stroke="none" vectornator:layerName="path 5"/>
<path d="M837.168 1635.53L836.852 1637.77C836.499 1638.99 836.592 1640.36 838.069 1640.85L839.098 1640.78C840.024 1641.09 839.08 1642.69 839.08 1642.69C839.08 1642.69 839.474 1644.01 840.925 1642.96C842.985 1641.46 841.456 1636.77 841.456 1636.77C841.456 1636.77 837.963 1620.92 838.395 1619.95C839.254 1618.02 840.036 1611.89 840.036 1611.89L834.201 1610.43L833.168 1613.11C833.168 1613.11 832.694 1615.66 832.459 1619.49C832.377 1620.83 837.168 1635.53 837.168 1635.53Z" fill="#ffffff" fill-rule="nonzero" opacity="1" stroke="none" vectornator:layerName="path"/>
<g opacity="1" vectornator:layerName="Group 13">
<path d="M864.359 1572.62C859.101 1571.22 854.69 1573.11 853.286 1578.39C852.835 1580.08 852.796 1581.71 852.855 1582.95C852.856 1582.96 852.843 1582.98 852.844 1582.99C852.35 1583.11 851.963 1583.36 851.797 1583.98C851.543 1584.94 851.988 1586.14 852.72 1586.95C852.302 1589.76 853.68 1592.54 856.211 1594.06C856.54 1594.8 857.207 1595.41 858.088 1595.64C858.973 1595.88 859.85 1595.68 860.506 1595.2C863.462 1595.14 866.079 1593.43 867.11 1590.78C868.135 1590.42 869.085 1589.59 869.34 1588.65C869.537 1587.91 869.2 1587.47 868.674 1587.11C869.511 1585.7 870.563 1584.05 870.829 1583.05C871.73 1579.66 870.719 1577.22 868.617 1576.66C868.618 1576.65 867.975 1573.58 864.359 1572.62Z" fill="#ffffff" fill-rule="nonzero" opacity="1" stroke="none"/>
<path d="M856.524 1589.71L864.461 1593.08C863.314 1594.48 862.742 1592.1 863.993 1598.24C864.647 1601.46 853.228 1601.36 853.475 1598.31C853.482 1598.22 853.532 1595.78 853.603 1595.74C854.383 1595.29 855.624 1591.59 856.524 1589.71Z" fill="#ffffff" fill-rule="nonzero" opacity="1" stroke="none" vectornator:layerName="Rectangle 2"/>
</g>
<path d="M854.63 1711.65L863.127 1711.65C863.04 1712.01 863.663 1715.34 862.887 1715.62C861.561 1716.12 860.752 1715.94 858.795 1715.95C856.838 1715.96 855.813 1715.95 855.017 1715.62C854.242 1715.31 854.936 1712.27 854.63 1711.65Z" fill="#593f92" fill-rule="nonzero" opacity="1" stroke="none" vectornator:layerName="Oval 8"/>
<path d="M926.492 1711.57L931.515 1711.31C931.467 1711.65 932.716 1714.64 932.075 1714.93C931.09 1715.38 930.527 1715.7 929.086 1715.76C927.645 1715.83 927.014 1715.41 926.417 1715.14C925.836 1714.87 926.743 1712.13 926.492 1711.57Z" fill="#593f92" fill-rule="nonzero" opacity="1" stroke="none" vectornator:layerName="Oval 9"/>
<path d="M943.911 1710.5L949.114 1710.6C949.039 1710.97 950.101 1714.41 949.418 1714.69C948.367 1715.12 947.763 1715.43 946.271 1715.39C944.778 1715.36 944.159 1714.84 943.564 1714.48C942.984 1714.14 944.128 1711.14 943.911 1710.5Z" fill="#593f92" fill-rule="nonzero" opacity="1" stroke="none" vectornator:layerName="Oval 7"/>
<path d="M839.307 1710.5L847.446 1711.09C847.358 1711.4 848.17 1715.09 847.395 1715.34C846.068 1715.77 845.256 1715.61 843.299 1715.62C841.342 1715.63 840.32 1715.63 839.524 1715.34C838.75 1715.07 839.613 1711.04 839.307 1710.5Z" fill="#593f92" fill-rule="nonzero" opacity="1" stroke="none" vectornator:layerName="Oval 5"/>
<path d="M837.992 1644.21C835.515 1654.78 838.47 1710.92 838.47 1710.92L848.562 1711.49L852.494 1657.44L853.505 1711.82L863.756 1711.82C863.756 1711.82 871.526 1657.35 867.596 1644.46L837.992 1644.21Z" fill="#463174" fill-rule="nonzero" opacity="1" stroke="none" vectornator:layerName="path 1"/>
<path d="M841.013 1596.37C838.48 1596.93 833.946 1607.61 832.946 1612.74C832.347 1615.82 838.473 1618.19 839.496 1617.37C840.149 1616.84 841.003 1613.63 840.902 1614.11C840.592 1615.55 840.955 1618.17 839.637 1625.21C837.362 1637.37 834.501 1644.16 835.157 1644.8C841.868 1651.37 861.497 1652.03 869.022 1646.6C870.476 1645.55 867.666 1639.71 868.673 1628.13C869.199 1622.06 869.768 1618.97 871.237 1614.11C871.408 1613.54 869.98 1618.98 870.732 1619.75C872.374 1621.45 878.751 1624.26 879.176 1621.56C881.354 1607.71 879.942 1605.5 876.132 1602.26C873.846 1600.32 869.31 1596.94 865.555 1595.74C861.49 1594.44 865.651 1595.74 859.226 1595.74C855.093 1595.74 855.964 1594.75 852.872 1594.48C849.215 1594.17 843.879 1595.74 841.013 1596.37Z" fill="#593f92" fill-rule="nonzero" opacity="1" stroke="none" vectornator:layerName="polygon"/>
<g opacity="1" vectornator:layerName="Group 33">
<path d="M896.691 1640.02L891.086 1640.07C890.946 1640.52 891.235 1641.07 891.07 1641.88C890.092 1642.27 889.161 1642.43 888.388 1642.57C888.388 1642.57 890.392 1652.18 885.874 1663.56C885.602 1666.39 885.584 1666.14 885.024 1667.17C883.936 1669.18 901.12 1668.69 900.654 1667.45C900.199 1666.25 900.241 1664.42 900.576 1663.81C896.836 1652.2 899.21 1642.56 899.21 1642.56C898.647 1642.53 897.473 1642.28 896.228 1641.8C896.285 1640.75 896.693 1640.38 896.691 1640.02Z" fill="#ffffff" fill-rule="nonzero" opacity="1" stroke="none"/>
<g opacity="1" vectornator:layerName="Group 19">
<path d="M884.796 1714.05C884.796 1712.92 885.731 1712.01 886.884 1712.01C888.037 1712.01 888.972 1712.92 888.972 1714.05C888.972 1715.17 888.905 1716.04 886.884 1716.09C884.909 1716.09 884.796 1715.17 884.796 1714.05Z" fill="#463174" fill-rule="nonzero" opacity="1" stroke="none" vectornator:layerName="Oval 3"/>
<path d="M897.098 1714.11C897.098 1712.98 898.032 1712.07 899.185 1712.07C900.338 1712.07 901.273 1712.98 901.273 1714.11C901.273 1715.23 901.206 1716.1 899.185 1716.15C897.211 1716.15 897.098 1715.23 897.098 1714.11Z" fill="#463174" fill-rule="nonzero" opacity="1" stroke="none" vectornator:layerName="Oval 1"/>
<g opacity="1" vectornator:layerName="Group 18">
<g opacity="1" vectornator:layerName="pants-158358">
<path d="M884.762 1666.98C883.259 1667.87 882.865 1670.26 882.493 1675.4C882.256 1678.68 882.619 1695.33 882.765 1699.48C882.89 1703.02 882.267 1714.4 882.267 1714.4C882.267 1714.4 886.133 1715.02 887.151 1714.76C888.252 1714.48 891.568 1714.1 891.568 1714.1L891.579 1701.22L892.877 1689.47L894.045 1701.22L894.477 1713.99C894.477 1713.99 897.563 1714.48 898.665 1714.76C899.682 1715.02 903.816 1714.4 903.816 1714.4C903.816 1714.4 902.926 1703.02 903.05 1699.48C903.196 1695.33 903.56 1678.68 903.322 1675.4C902.95 1670.26 902.485 1667.84 900.981 1666.95C900.812 1666.85 896.47 1667.27 892.472 1667.28C888.748 1667.28 884.92 1666.89 884.762 1666.98Z" fill="#593f92" fill-rule="nonzero" opacity="1" stroke="none"/>
</g>
<g opacity="1" vectornator:layerName="Group 17">
<g opacity="1" vectornator:layerName="Group 4">
<path d="M871.959 1644.67C871.508 1644.65 871.021 1645.05 871.024 1645.49C871.024 1645.49 870.284 1645.64 870.375 1646.1C870.375 1646.1 869.947 1646.37 870.057 1647.08C870.174 1647.64 870.014 1648 870.28 1648.5C870.28 1648.5 870.922 1649.44 871.291 1649.59C871.858 1649.82 872.768 1649.46 873.245 1649.07C874.016 1648.41 874.291 1648.27 874.291 1648.27C874.353 1648.16 874.477 1646.19 874.115 1645.64C873.862 1645.26 872.844 1645.38 872.844 1645.38C872.844 1645.38 872.41 1644.68 871.959 1644.67Z" fill="#ffffff" fill-rule="nonzero" opacity="1" stroke="none" vectornator:layerName="path"/>
<path d="M873.441 1647.66C873.441 1647.66 875.908 1649.84 876.675 1650.44C877.22 1650.86 879.155 1652.09 879.155 1652.09L882.407 1655.86C881.658 1657.16 880.73 1657.9 879.877 1657.67C879.024 1657.45 876.14 1655.13 874.648 1653.29C873.624 1652.04 872.486 1650.67 871.34 1649.54L873.441 1647.66Z" fill="#ffffff" fill-rule="nonzero" opacity="1" stroke="none" vectornator:layerName="path"/>
<path d="M887.346 1643.41C887.564 1643.61 887.709 1643.88 887.757 1644.18C887.873 1644.84 887.933 1646.24 887.056 1648.2C885.801 1650.99 882.022 1656.42 882.022 1656.42L879.013 1652.37C879.013 1652.37 882.291 1646.6 883.24 1645.08C884.062 1643.77 885.94 1642.13 887.346 1643.41Z" fill="#ffffff" fill-rule="nonzero" opacity="1" stroke="none" vectornator:layerName="path 1"/>
</g>
<path d="M913.355 1635.61C913.481 1635.93 913.127 1636.58 912.703 1636.68C912.703 1636.68 912.589 1637.33 912.121 1637.36C912.121 1637.36 912.068 1637.75 911.345 1637.82C910.781 1637.85 910.216 1637.79 909.667 1637.66L908.507 1637.22C908.361 1636.62 908.423 1635.98 908.685 1635.42C909.125 1634.51 909.224 1634.52 909.224 1634.52C909.321 1634.43 910.635 1634.09 910.892 1634.16C911.149 1634.23 911.196 1634.47 911.708 1634.64C911.959 1634.73 912.572 1634.4 912.78 1634.4C913.033 1634.4 913.41 1634.5 913.577 1634.82C913.669 1635 913.68 1635.28 913.355 1635.61Z" fill="#ffffff" fill-rule="nonzero" opacity="1" stroke="none" vectornator:layerName="path"/>
<path d="M911.024 1632.49C911.024 1632.49 909.992 1634.04 909.18 1635.24C908.836 1635.74 908.532 1636.18 908.361 1636.41C907.953 1636.97 907.084 1637.81 906.076 1639.51C905.067 1641.2 904.326 1643.19 904.326 1643.19C905.403 1644.25 905.728 1645.51 906.487 1645.06C907.246 1644.61 910.158 1640.79 911.089 1638.6C911.734 1637.12 912.454 1635.68 913.247 1634.28L911.024 1632.49Z" fill="#ffffff" fill-rule="nonzero" opacity="1" stroke="none" vectornator:layerName="path"/>
<path d="M891.086 1640.07C891.138 1639.91 890.324 1640.86 889.806 1640.58C889.806 1640.58 890.081 1640.13 889.876 1639.76C889.577 1640.59 889.262 1640.7 888.804 1640.85C888.804 1640.85 888.862 1640.52 888.752 1640.19C888.717 1640.08 888.839 1640.56 888.288 1640.86L887.911 1640.44C887.611 1640.62 887.557 1640.75 887.635 1641.05C887.635 1641.05 886.959 1640.89 886.494 1640.61C885.075 1639.75 885.305 1636.66 885.601 1635.25C886.089 1632.93 886.624 1630.61 887.439 1628.39C887.728 1627.6 888.304 1626.93 888.876 1626.32C889.216 1625.96 889.655 1625.66 890.127 1625.5C891.4 1625.07 892.709 1624.66 894.051 1624.55C895.662 1624.43 897.386 1625.33 898.484 1626.51C899.057 1627.13 899.488 1627.88 899.842 1628.64C900.718 1630.54 901.502 1632.47 902.159 1634.45C902.655 1635.95 903.323 1638.66 901.52 1639.78C900.688 1640.3 899.621 1641.33 898.304 1641.14L898.9 1640.29C898.9 1640.29 898.408 1640.91 897.553 1640.76C897.553 1640.76 897.827 1640.18 897.881 1639.9C897.881 1639.9 897.573 1640.43 896.822 1640.58C896.822 1640.58 896.839 1640.06 896.692 1640.01C896.695 1640.45 890.917 1640.61 891.086 1640.07Z" fill="#ffffff" fill-rule="nonzero" opacity="1" stroke="none" vectornator:layerName="Curve 1"/>
<path d="M890.284 1649.87C893.451 1655.06 900.166 1649.83 904.696 1646.8C905.658 1646.16 908.273 1645.55 910.22 1639.88C908.678 1639.93 905.192 1640.37 904.012 1640.95C900.12 1642.86 889.092 1647.92 890.284 1649.87Z" fill="#ffffff" fill-rule="nonzero" opacity="1" stroke="none" vectornator:layerName="Curve 3"/>
</g>
<path d="M901.259 1664.11C901.359 1663.9 900.691 1660.95 900.747 1657.53C900.803 1654.11 901.538 1652.66 901.166 1650.65C898.941 1647 900.066 1642.62 900.066 1642.62C898.668 1642.57 898.219 1642.32 898.219 1642.32C898.219 1642.32 898.468 1643.81 893.675 1644.08C889.836 1644.3 888.944 1642.37 888.944 1642.37C888.944 1642.37 887.525 1642.81 886.503 1642.85C886.503 1642.85 887.802 1648.39 885.578 1650.74C884.998 1652.5 885.863 1656.03 885.618 1658.13C885.379 1660.18 884.789 1663.68 885.03 1663.98C886.081 1665.27 887.956 1664.02 892.093 1663.93C895.514 1663.85 900.601 1665.57 901.259 1664.11Z" fill="#593f92" fill-rule="nonzero" opacity="1" stroke="none"/>
</g>
</g>
</g>
<path d="M932.826 1588.8L938.581 1588.16C939.873 1589.94 940.71 1592.95 941.677 1596.12C942.632 1599.25 932.636 1600.91 932.089 1597.89C931.348 1593.8 932.433 1590.89 932.826 1588.8Z" fill="#ffffff" fill-rule="nonzero" opacity="1" stroke="none" vectornator:layerName="Rectangle 1"/>
<path d="M931.011 1634.94C929.623 1634.84 928.234 1635.68 926.946 1637.81C925.004 1641.02 922.705 1645.4 922.43 1650.53C922.053 1657.57 924.06 1666.1 922.961 1675.72C921.023 1685.76 925.808 1712.59 925.808 1712.59C925.808 1712.59 927.421 1712.97 929.127 1712.91C930.834 1712.84 932.635 1712.33 932.635 1712.33C932.635 1712.33 932.715 1695.07 934.819 1683.68C936.848 1672.69 938.282 1666.53 939.166 1664.32C939.935 1666.24 941.344 1674.91 941.435 1684.37C941.566 1698.06 943.075 1711.66 943.075 1711.66C943.075 1711.66 944.868 1712.1 946.575 1712.16C948.282 1712.23 949.903 1711.93 949.903 1711.93C949.903 1711.93 955.752 1685.9 953.814 1675.85C952.715 1666.23 956.253 1657.57 955.876 1650.53C955.601 1645.4 953.302 1641.02 951.36 1637.81C950.072 1635.68 948.683 1634.84 947.295 1634.94C944.136 1635.17 934.17 1635.17 931.011 1634.94Z" fill="#463174" fill-rule="nonzero" opacity="1" stroke="none" vectornator:layerName="Curve 1"/>
<path d="M931.075 1594.21C927.341 1595.41 925.347 1596.44 921.797 1598.69C917.813 1602.11 916.57 1611.61 914.781 1618.01C912.581 1622.26 909.618 1633.56 909.618 1633.56C910.082 1634.36 914.942 1636 915.293 1635.54C916.218 1634.31 919.102 1628.99 921.367 1622.6C922.942 1618.16 922.888 1612.62 922.888 1612.62C923.678 1615.95 922.175 1613.74 924.114 1623.06C926.622 1631.88 917.593 1649.31 918.829 1649.98C929.048 1655.52 950.046 1653.94 959.63 1647.36C961.147 1646.32 952.304 1630.55 951.525 1621.03C951.124 1616.12 951.922 1613.88 950.48 1610.15C950.334 1609.78 953.179 1614.43 955.722 1618.8C957.358 1621.62 953.144 1629.46 953.144 1629.46C953.144 1629.46 955.848 1637.15 955.506 1635.55C955.471 1635.39 962.719 1624.09 962.762 1618.67C962.787 1615.5 955.221 1597.8 950.926 1596.16C946.47 1594.46 941.547 1593.73 941.414 1593.55C941.414 1593.55 938.992 1595.68 936.408 1595.84C933.823 1596.01 931.075 1594.21 931.075 1594.21Z" fill="#593f92" fill-rule="nonzero" opacity="1" stroke="none"/>
<g opacity="1" vectornator:layerName="Woman Profile">
<g opacity="1" vectornator:layerName="g"/>
<g opacity="1" vectornator:layerName="g">
<path d="M932.661 1569.75C927.752 1570.37 923.348 1574.42 924.325 1582.13C924.614 1584.4 925.6 1586.38 925.822 1588.13C926.146 1590.68 923.762 1592.57 923.762 1592.57C923.762 1592.57 926.09 1594.16 928.639 1593.84C930.512 1593.6 931.771 1592.59 932.495 1591.94C933.033 1592.14 934.368 1593.12 936.065 1592.9C937.762 1592.69 938.812 1591.41 939.283 1591.08C940.147 1591.53 941.622 1592.19 943.492 1591.96C946.281 1591.61 947.78 1588.59 947.78 1588.59C947.78 1588.59 944.933 1588.44 944.643 1586.15C944.385 1584.12 944.942 1581.07 944.63 1578.61C943.953 1573.26 941.122 1571.51 938.119 1571.89C938.119 1571.89 936.534 1569.26 932.661 1569.75Z" fill="#ffffff" fill-rule="nonzero" opacity="1" stroke="none"/>
</g>
</g>
</g>
</g>
</svg>
