<?xml version="1.0" encoding="UTF-8" standalone="no"?><!DOCTYPE svg PUBLIC "-//W3C//DTD SVG 1.1//EN" "http://www.w3.org/Graphics/SVG/1.1/DTD/svg11.dtd"><svg width="100%" height="100%" viewBox="0 0 1969 1955" version="1.1" xmlns="http://www.w3.org/2000/svg" xmlns:xlink="http://www.w3.org/1999/xlink" xml:space="preserve" xmlns:serif="http://www.serif.com/" style="fill-rule:evenodd;clip-rule:evenodd;stroke-linecap:round;stroke-linejoin:round;stroke-miterlimit:10;"><g id="Layer"><g><path d="M1968.96,1096.92c0,-559.042 -362.625,-835.375 -814.666,-1052.08c-424,-203.25 -1117,311.459 -1151.83,997.792c-19.5,383.542 75.375,745.125 384.875,838.833c177.084,53.625 484.959,23.125 687.209,62.917c384,75.542 894.416,-288.375 894.416,-847.458Z" style="fill:#fff;fill-rule:nonzero;"/><rect x="109.875" y="609.333" width="1746.25" height="1164.17" style="fill-opacity:0;fill-rule:nonzero;"/><path d="M214.5,1005.21c0,-410.166 332.5,-742.666 742.667,-742.666c410.125,0 742.625,332.5 742.625,742.666c0,410.125 -332.5,742.625 -742.625,742.625c-410.167,0 -742.667,-332.5 -742.667,-742.625Z" style="fill:#d1bef9;fill-rule:nonzero;"/><g><path d="M955.417,494.042c0.708,-1.417 -8.667,6 -13.584,2.75c0,0 3.334,-3.584 1.709,-7.209c-4,7 -7.334,7.584 -12.167,8.25c0,0 1,-2.875 0.292,-6c-0.209,-0.958 0.416,3.5 -5.5,5.334l-3.334,-4.209c-3.25,1.209 -3.958,2.292 -3.5,5.084c0,0 -6.666,-2.334 -11,-5.542c-13.333,-9.667 -7.25,-36.875 -2.541,-49.042c7.75,-20.041 16,-40.041 26.958,-58.791c3.875,-6.625 10.5,-11.75 17.042,-16.459c3.875,-2.791 8.666,-4.791 13.625,-5.583c13.416,-2.125 27.166,-4 40.875,-3.083c16.416,1.083 32.75,11.541 42.416,23.625c5.042,6.291 8.5,13.583 11.167,20.916c6.542,18.084 12.125,36.459 16.333,55.042c3.209,14.042 6.667,39.125 -12.916,46.708c-9.042,3.5 -21.084,11.167 -34.209,7.709l7.084,-6.834c0,0 -5.709,4.875 -14.209,2.417c0,0 3.5,-4.792 4.375,-7.292c0,0 -3.75,4.334 -11.541,4.625c0,0 0.791,-4.583 -0.625,-5.208c-0.5,3.917 -59.125,-2.625 -56.75,-7.208Z" style="fill:#fff;fill-rule:nonzero;"/><path d="M1010.33,495.583l-60.541,-1.083c-1.667,4.75 1.291,10.792 -0.709,19.5c-10.708,3.917 -20.791,5.375 -29.208,6.625c0,0 18.75,104.417 -33.5,225.917c-3.792,30.416 -10.458,34.541 -16.792,45.5c-12.375,21.375 188.125,44.333 172.917,6c-4.75,-11.959 -1.25,-37.875 2.542,-44.334c-36.834,-126.458 -8.292,-229.833 -8.292,-229.833c-6.083,-0.542 -18.667,-3.625 -31.958,-9.125c0.916,-11.375 5.458,-15.208 5.541,-19.167Z" style="fill:#fff;fill-rule:nonzero;"/><path d="M1048.79,526.083c63.5,9.792 34.916,88.792 51.541,134.334c17.209,46.958 -21.125,62.833 -21.125,62.833c0,0 -62.875,-202.167 -30.416,-197.167Z" style="fill:#fff;fill-rule:nonzero;"/><path d="M1052.33,757.208c1.125,-2.375 -5.166,-34.375 -3.541,-71.25c1.666,-36.916 10.041,-52.416 6.625,-74.166c-22.917,-40.084 -9.459,-87.042 -9.459,-87.042c-15.083,-1 -19.833,-3.792 -19.833,-3.792c0,0 1.708,46.75 -50.125,48.209c-41.5,1.166 -50.042,-50.459 -50.042,-50.459c0,0 -15.458,4.334 -26.5,4.334c0,0 12.334,60.291 -12.375,85c-6.791,18.791 1.459,57.166 -1.833,79.791c-3.167,22.042 -10.625,59.709 -8.125,62.959c10.958,14.25 31.583,1.375 76.292,1.625c36.958,0.208 91.375,20.291 98.916,4.791Z" style="fill:#593f92;fill-rule:nonzero;"/><path d="M899.292,525.667c-63.709,8.041 -48.5,135.916 -36.959,181.666c6.042,23.834 16.084,20.625 44.584,37.542c28.5,16.958 46.666,17.083 69.416,30.25c6.209,4.5 48.917,-14.542 19.292,-22.958c-35.375,-4.584 -41.042,-16.667 -66.042,-35.834c-25.041,-19.208 -28.583,-8.041 -34.041,-40.916c-1.334,-7.917 -0.375,-28.875 1.75,-37.667c17.25,-17.042 17.083,-113.958 2,-112.083Z" style="fill:#fff;fill-rule:nonzero;"/><path d="M1221.83,908.708c8.125,-0.75 9.209,10.334 8.584,11.75c-1.75,3.667 -4.625,12.209 -16.709,18.5c-12.083,6.25 -15.583,5.625 -31.708,6.584c-7.083,0.375 -13.292,-3.625 -19.583,-6.792c3.125,-3.625 2.5,-8.792 2.875,-13.375c1,-13.417 13.041,-8.292 22.708,-8.333c12.125,-0.25 22.708,-4 33.833,-8.334Z" style="fill:#fff;fill-rule:nonzero;"/><path d="M954.958,935.542c-6.416,5 0.334,13.833 1.75,14.458c3.75,1.458 11.709,5.792 24.834,2.167c13.125,-3.667 15.25,-6.5 27.666,-16.75c5.5,-4.584 7.292,-11.709 9.75,-18.334c-4.75,-0.5 -7.833,-4.708 -11.208,-7.833c-9.833,-9.125 -15.208,2.792 -22.292,9.333c-9.041,8.084 -19.375,12.542 -30.5,16.959Z" style="fill:#fff;fill-rule:nonzero;"/><path d="M855.792,811.083l-0.542,1.5c-3.875,10.625 -6.833,21.584 -8.083,32.792c-2.25,20.625 2,44.792 18.375,59.75c21.791,20 56.791,23.083 85.25,18.333c11.666,-1.916 22.625,-6.541 31.916,-13.458c9.292,7.958 19.25,16.708 27.542,25.542c16.667,-5.5 32.5,-13 47.167,-22.292c34.708,15.083 70.125,25.25 107.541,32.625c4.25,-10.083 7.25,-20.625 8.917,-31.375c0.292,-1.75 -23,-16.667 -25.708,-18.792c-8.042,-6.458 -24.875,-21.166 -24.875,-21.166c0,0 21.208,-17.125 30.458,-25.167c9.792,-8.333 19.208,-17.083 28.167,-26.25c7.416,-7.542 14.666,-15.542 19.208,-24.958c4.542,-9.375 6.208,-20.417 2.417,-30.125c-12,-30.25 -60.375,-19.625 -82.875,-9.209c-18.584,8.667 -34.834,21.25 -50.5,34c-6.334,5.084 -12.542,10.334 -18.709,15.5c-4.833,-4.75 -10.166,-10.916 -14.75,-15.875c-4.916,-5.416 -10.541,-10.5 -17.375,-13.666c-7.125,-3.459 -13.958,2.041 -21.583,1.041c-3.417,-0.458 -7.417,-0.291 -10.75,-0.833c-10,-1.75 -19.417,-0.792 -28.208,4.083c-8.334,4.625 -15.292,4.875 -25.084,6.625c-11.083,2 -24,0.834 -35.125,-0.583c-10,-1.292 -20.166,-3.458 -30.125,-1.583c-4.125,0.75 -5.708,6.25 -7.083,9.375c-1.833,4.583 -3.75,9.291 -5.583,14.166Z" style="fill:#593f92;fill-rule:nonzero;"/><path d="M1213.38,664.333l-30.167,127.584l-228.916,-3.334c0.083,-7.5 6.625,-13.541 14.625,-13.458l54.708,0.792l27.25,-117.334c0.833,-3.833 4.5,-6.5 8.542,-6.458l145.583,2.083c5.542,0.167 9.583,5 8.375,10.125Z" style="fill:#c0a3ff;fill-rule:nonzero;"/></g><path d="M565.583,1350.04l779.667,0c29.75,0 53.917,-21.917 53.917,-48.917l0,-29.083c0,-27 -24.167,-48.917 -53.917,-48.917l-779.667,0c35.667,35.375 36.25,89.417 1.417,125.458l-1.417,1.459Z" style="fill:#c0a3ff;fill-rule:nonzero;"/><path d="M576.5,1237.67l392.333,0c27,0 48.917,21.916 48.917,48.916c0,27 -21.917,48.917 -48.917,48.917l-392.375,0c18.334,-30 18.292,-67.917 0.042,-97.833Z" style="fill:url(#_Linear1);fill-rule:nonzero;"/><path d="M600.667,1084.38c-1.709,-2.958 0.875,-6.333 4.833,-6.333l620.917,0c48.666,0 88.125,32.541 88.125,72.708c0,40.167 -39.459,72.708 -88.125,72.708l-621.084,0c-3.958,0 -6.541,-3.416 -4.833,-6.375c24.583,-42 24.5,-90.875 0.167,-132.708Z" style="fill:#593f92;fill-rule:nonzero;"/><path d="M605.625,1093.67l416.625,0c30.75,0 55.708,24.958 55.708,55.75l0,4.166c0,30.75 -24.958,55.709 -55.708,55.709l-417.5,0c18.667,-37.042 18.875,-78.584 0.875,-115.625Z" style="fill:url(#_Linear2);fill-rule:nonzero;"/><path d="M1356.33,1071.58l-400.708,0c-35.542,0 -64.333,-31.083 -64.333,-69.416c0,-38.292 28.791,-69.375 64.333,-69.375l400.708,0c-30.625,38.5 -31.833,94.916 -2.833,134.833l2.833,3.958Z" style="fill:url(#_Linear3);fill-rule:nonzero;"/><path d="M896.583,1002.17c0,-38.292 29.125,-69.375 65.084,-69.375l401.958,0c1.875,0 3.417,-1.625 3.375,-3.625c0,-1.959 -1.5,-3.542 -3.375,-3.542l-637.667,0c-39.666,0 -71.833,34.25 -71.833,76.542c0,42.291 32.167,76.583 71.833,76.583l637.667,0c1.875,0 3.375,-1.583 3.375,-3.542c0.042,-2 -1.5,-3.625 -3.375,-3.625l-401.958,0c-35.959,0 -65.084,-31.083 -65.084,-69.416Z" style="fill:#c0a3ff;fill-rule:nonzero;"/><path d="M835.25,1154.46c0,-8.041 10.167,-14.583 22.708,-14.583l50,0c-9.541,0 -17.25,4.958 -17.25,11.042l0.25,155.916l-27.625,-20.041l-28.125,20.041l0.042,-152.375Z" style="fill:#e1e4e5;fill-rule:nonzero;"/><path d="M371.792,1349.79l1158.54,0c35.959,0 65.125,29.166 65.125,65.125l0,54.791c0,36 -29.166,65.167 -65.125,65.167l-1158.54,0l0.625,-0.667c49.541,-51.583 49.291,-133.166 -0.625,-184.416Z" style="fill:#593f92;fill-rule:nonzero;"/><path d="M392.333,1377.17l619.292,0c36,0 65.167,29.166 65.167,65.166c0,35.959 -29.167,65.125 -65.167,65.125l-619.292,0c22.75,-40.333 22.75,-89.958 0,-130.291Z" style="fill:url(#_Linear4);fill-rule:nonzero;"/><path d="M565.833,883.875c0,-5.875 4.792,-10.667 10.667,-10.667c5.917,0 10.667,4.792 10.667,10.667c0,5.917 -4.75,10.708 -10.667,10.708c-5.875,0 -10.667,-4.791 -10.667,-10.708Z" style="fill:#593f92;fill-rule:nonzero;stroke:#593f92;stroke-width:13.8px;"/><path d="M1447,1157.04c0,-5.167 4.208,-9.375 9.375,-9.375c5.167,0 9.333,4.208 9.333,9.375c0,5.166 -4.166,9.333 -9.333,9.333c-5.167,0 -9.375,-4.167 -9.375,-9.333Z" style="fill:#593f92;fill-rule:nonzero;stroke:#593f92;stroke-width:13.8px;"/><path d="M519.5,1292.79c7.292,-6.334 9.375,-19.125 9.375,-19.125c0,0 -14.125,-0.959 -21.375,5.416c-7.292,6.334 -10.5,14.584 -7.167,18.375c3.334,3.792 11.917,1.709 19.167,-4.666Zm936.875,14.291c-11,-9.625 -14.125,-28.958 -14.125,-28.958c0,0 21.333,-1.458 32.333,8.167c11,9.625 15.875,22.125 10.834,27.833c-5,5.75 -18,2.625 -29.042,-7.042Z" style="fill:#593f92;fill-rule:nonzero;stroke:#593f92;stroke-width:13.8px;"/><path d="M431.292,1154.88c4.083,4.292 3.958,11.042 -0.292,15.167c-4.292,4.083 -11.083,3.958 -15.167,-0.292c-4.125,-4.292 -3.958,-11.083 0.292,-15.167c4.292,-4.125 11.042,-3.958 15.167,0.292Z" style="fill:#593f92;fill-rule:nonzero;stroke:#593f92;stroke-width:13.8px;"/><path d="M1566.38,1110.67c-2.792,2.958 -2.708,7.583 0.208,10.416c2.959,2.834 7.584,2.75 10.417,-0.208c2.833,-2.917 2.708,-7.583 -0.208,-10.417c-2.917,-2.791 -7.584,-2.708 -10.417,0.209Z" style="fill:#593f92;fill-rule:nonzero;stroke:#593f92;stroke-width:13.8px;"/><path d="M490.583,1029.25l-19.833,-19.792l19.833,-19.833l19.792,19.833l-19.792,19.792Zm948.792,-7.75l19.792,-19.792l-19.792,-19.833l-19.833,19.833l19.833,19.792Z" style="fill:none;fill-rule:nonzero;stroke:#593f92;stroke-width:22.58px;"/><rect x="981.625" y="971.917" width="303.042" height="5.167" style="fill:#e1e4e5;fill-rule:nonzero;"/><rect x="981.625" y="1001.42" width="303.042" height="5.125" style="fill:#e1e4e5;fill-rule:nonzero;"/><rect x="676.542" y="1117.62" width="303.042" height="5.125" style="fill:#e1e4e5;fill-rule:nonzero;"/><rect x="479.208" y="1402.29" width="512.125" height="5.125" style="fill:#e1e4e5;fill-rule:nonzero;"/><path d="M479.208,1445.67l512.125,0l0,-5.125l-512.125,0l0,5.125Z" style="fill:#e1e4e5;fill-rule:nonzero;"/><rect x="479.208" y="1478.83" width="512.125" height="5.125" style="fill:#e1e4e5;fill-rule:nonzero;"/><rect x="677.208" y="1167.21" width="303.042" height="5.125" style="fill:#e1e4e5;fill-rule:nonzero;"/><rect x="642.375" y="1265.75" width="303.042" height="5.125" style="fill:#e1e4e5;fill-rule:nonzero;"/><rect x="642.375" y="1303.29" width="303.042" height="5.125" style="fill:#e1e4e5;fill-rule:nonzero;"/><rect x="981.625" y="1034.29" width="303.042" height="5.125" style="fill:#e1e4e5;fill-rule:nonzero;"/><path d="M811.75,819.625c0,-6.458 5.25,-11.708 11.708,-11.708c6.459,0 11.709,5.25 11.709,11.708c0,6.458 -5.25,11.708 -11.709,11.708c-6.458,0 -11.708,-5.25 -11.708,-11.708Z" style="fill:#593f92;fill-rule:nonzero;stroke:#593f92;stroke-width:13.8px;"/><path d="M711.708,1004.79c0,-23.792 8.667,-43.042 19.375,-43.042c10.709,0 19.417,19.25 19.417,43.042c0,23.75 -8.708,43.041 -19.417,43.041c-10.708,0 -19.375,-19.291 -19.375,-43.041Z" style="fill:#593f92;fill-rule:nonzero;"/><g><path d="M1128.62,1416.47l14.562,0c2.03,0 3.95,0.185 5.758,0.554c1.809,0.369 3.387,1.006 4.734,1.91c1.348,0.904 2.418,2.122 3.212,3.654c0.793,1.532 1.19,3.461 1.19,5.786c0,2.289 -0.369,4.208 -1.107,5.759c-0.738,1.55 -1.753,2.786 -3.045,3.709c-1.292,0.923 -2.824,1.578 -4.596,1.966c-1.772,0.387 -3.691,0.581 -5.758,0.581l-6.312,0l0,15.282l-8.638,0l0,-39.201Zm8.638,16.611l5.758,0c0.775,0 1.523,-0.074 2.243,-0.222c0.719,-0.148 1.365,-0.397 1.937,-0.747c0.573,-0.351 1.034,-0.831 1.385,-1.44c0.35,-0.609 0.526,-1.375 0.526,-2.298c0,-0.996 -0.231,-1.799 -0.693,-2.408c-0.461,-0.609 -1.052,-1.08 -1.771,-1.412c-0.72,-0.332 -1.523,-0.545 -2.409,-0.637c-0.886,-0.092 -1.735,-0.138 -2.547,-0.138l-4.429,0l0,9.302Z" style="fill:url(#_Linear5);fill-rule:nonzero;"/><path d="M1182.88,1426.05c-0.701,-0.886 -1.652,-1.541 -2.851,-1.966c-1.2,-0.424 -2.335,-0.636 -3.406,-0.636c-0.627,0 -1.273,0.073 -1.937,0.221c-0.665,0.148 -1.292,0.378 -1.883,0.692c-0.591,0.314 -1.07,0.729 -1.44,1.246c-0.369,0.517 -0.553,1.144 -0.553,1.882c0,1.182 0.443,2.086 1.329,2.713c0.886,0.628 2.002,1.163 3.349,1.606c1.348,0.443 2.796,0.886 4.347,1.329c1.55,0.443 2.999,1.07 4.346,1.882c1.347,0.812 2.464,1.901 3.35,3.267c0.886,1.366 1.329,3.193 1.329,5.482c0,2.177 -0.406,4.078 -1.218,5.702c-0.812,1.625 -1.911,2.972 -3.295,4.042c-1.384,1.071 -2.99,1.864 -4.817,2.381c-1.827,0.517 -3.756,0.775 -5.786,0.775c-2.547,0 -4.909,-0.387 -7.087,-1.162c-2.178,-0.776 -4.208,-2.031 -6.09,-3.765l6.146,-6.755c0.885,1.181 2.002,2.094 3.349,2.74c1.348,0.646 2.741,0.969 4.181,0.969c0.701,0 1.411,-0.083 2.131,-0.249c0.72,-0.166 1.366,-0.415 1.938,-0.747c0.572,-0.333 1.034,-0.757 1.384,-1.274c0.351,-0.517 0.526,-1.126 0.526,-1.827c0,-1.181 -0.452,-2.113 -1.356,-2.796c-0.905,-0.683 -2.04,-1.264 -3.405,-1.744c-1.366,-0.48 -2.843,-0.96 -4.43,-1.44c-1.587,-0.48 -3.063,-1.125 -4.429,-1.938c-1.366,-0.812 -2.501,-1.882 -3.405,-3.211c-0.905,-1.329 -1.357,-3.082 -1.357,-5.26c0,-2.104 0.415,-3.949 1.246,-5.537c0.83,-1.587 1.938,-2.916 3.322,-3.986c1.384,-1.071 2.981,-1.873 4.789,-2.409c1.809,-0.535 3.673,-0.802 5.593,-0.802c2.214,0 4.355,0.313 6.422,0.941c2.067,0.627 3.931,1.679 5.592,3.156l-5.924,6.478Z" style="fill:url(#_Linear6);fill-rule:nonzero;"/><path d="M1204.92,1438.95l-14.727,-22.48l10.741,0l8.305,14.673l8.804,-14.673l10.243,0l-14.728,22.48l0,16.721l-8.638,0l0,-16.721Z" style="fill:url(#_Linear7);fill-rule:nonzero;"/><path d="M1256.8,1426.65c-0.849,-1.034 -1.892,-1.827 -3.128,-2.381c-1.237,-0.554 -2.667,-0.83 -4.291,-0.83c-1.624,0 -3.128,0.313 -4.513,0.941c-1.384,0.627 -2.583,1.504 -3.599,2.63c-1.015,1.126 -1.808,2.464 -2.38,4.014c-0.572,1.55 -0.859,3.23 -0.859,5.038c0,1.846 0.287,3.535 0.859,5.067c0.572,1.531 1.356,2.86 2.353,3.986c0.996,1.126 2.168,2.003 3.516,2.63c1.347,0.628 2.796,0.941 4.346,0.941c1.772,0 3.341,-0.369 4.706,-1.107c1.366,-0.738 2.492,-1.772 3.378,-3.101l7.198,5.371c-1.661,2.325 -3.765,4.042 -6.312,5.149c-2.547,1.108 -5.168,1.661 -7.863,1.661c-3.063,0 -5.887,-0.48 -8.471,-1.439c-2.584,-0.96 -4.817,-2.335 -6.699,-4.125c-1.883,-1.79 -3.35,-3.959 -4.402,-6.506c-1.052,-2.547 -1.578,-5.389 -1.578,-8.527c0,-3.137 0.526,-5.979 1.578,-8.526c1.052,-2.547 2.519,-4.716 4.402,-6.506c1.882,-1.79 4.115,-3.165 6.699,-4.125c2.584,-0.96 5.408,-1.439 8.471,-1.439c1.108,0 2.261,0.101 3.461,0.304c1.2,0.203 2.381,0.526 3.543,0.969c1.163,0.443 2.28,1.034 3.35,1.772c1.071,0.738 2.03,1.642 2.879,2.713l-6.644,5.426Z" style="fill:url(#_Linear8);fill-rule:nonzero;"/><path d="M1269.09,1416.47l8.637,0l0,14.617l16.777,0l0,-14.617l8.637,0l0,39.201l-8.637,0l0,-16.943l-16.777,0l0,16.943l-8.637,0l0,-39.201Z" style="fill:url(#_Linear9);fill-rule:nonzero;"/><path d="M1309.01,1436.07c0,-3.137 0.526,-5.979 1.578,-8.526c1.052,-2.547 2.519,-4.716 4.402,-6.506c1.882,-1.79 4.116,-3.165 6.699,-4.125c2.584,-0.96 5.408,-1.439 8.472,-1.439c3.063,0 5.887,0.479 8.471,1.439c2.584,0.96 4.817,2.335 6.699,4.125c1.883,1.79 3.35,3.959 4.402,6.506c1.052,2.547 1.578,5.389 1.578,8.526c0,3.138 -0.526,5.98 -1.578,8.527c-1.052,2.547 -2.519,4.716 -4.402,6.506c-1.882,1.79 -4.115,3.165 -6.699,4.125c-2.584,0.959 -5.408,1.439 -8.471,1.439c-3.064,0 -5.888,-0.48 -8.472,-1.439c-2.583,-0.96 -4.817,-2.335 -6.699,-4.125c-1.883,-1.79 -3.35,-3.959 -4.402,-6.506c-1.052,-2.547 -1.578,-5.389 -1.578,-8.527Zm8.97,0c0,1.846 0.286,3.535 0.858,5.067c0.572,1.531 1.393,2.86 2.464,3.986c1.07,1.126 2.353,2.003 3.848,2.63c1.495,0.628 3.165,0.941 5.011,0.941c1.845,0 3.516,-0.313 5.01,-0.941c1.495,-0.627 2.778,-1.504 3.849,-2.63c1.07,-1.126 1.891,-2.455 2.463,-3.986c0.573,-1.532 0.859,-3.221 0.859,-5.067c0,-1.808 -0.286,-3.488 -0.859,-5.038c-0.572,-1.55 -1.393,-2.888 -2.463,-4.014c-1.071,-1.126 -2.354,-2.003 -3.849,-2.63c-1.494,-0.628 -3.165,-0.941 -5.01,-0.941c-1.846,0 -3.516,0.313 -5.011,0.941c-1.495,0.627 -2.778,1.504 -3.848,2.63c-1.071,1.126 -1.892,2.464 -2.464,4.014c-0.572,1.55 -0.858,3.23 -0.858,5.038Z" style="fill:url(#_Linear10);fill-rule:nonzero;"/><path d="M1357.51,1416.47l8.638,0l0,31.228l16.001,0l0,7.973l-24.639,0l0,-39.201Z" style="fill:url(#_Linear11);fill-rule:nonzero;"/><path d="M1384.81,1436.07c0,-3.137 0.526,-5.979 1.578,-8.526c1.052,-2.547 2.519,-4.716 4.402,-6.506c1.882,-1.79 4.115,-3.165 6.699,-4.125c2.584,-0.96 5.408,-1.439 8.471,-1.439c3.064,0 5.888,0.479 8.472,1.439c2.583,0.96 4.817,2.335 6.699,4.125c1.883,1.79 3.35,3.959 4.402,6.506c1.052,2.547 1.578,5.389 1.578,8.526c0,3.138 -0.526,5.98 -1.578,8.527c-1.052,2.547 -2.519,4.716 -4.402,6.506c-1.882,1.79 -4.116,3.165 -6.699,4.125c-2.584,0.959 -5.408,1.439 -8.472,1.439c-3.063,0 -5.887,-0.48 -8.471,-1.439c-2.584,-0.96 -4.817,-2.335 -6.699,-4.125c-1.883,-1.79 -3.35,-3.959 -4.402,-6.506c-1.052,-2.547 -1.578,-5.389 -1.578,-8.527Zm8.969,0c0,1.846 0.286,3.535 0.859,5.067c0.572,1.531 1.393,2.86 2.463,3.986c1.071,1.126 2.354,2.003 3.849,2.63c1.494,0.628 3.165,0.941 5.01,0.941c1.846,0 3.516,-0.313 5.011,-0.941c1.495,-0.627 2.778,-1.504 3.848,-2.63c1.071,-1.126 1.892,-2.455 2.464,-3.986c0.572,-1.532 0.858,-3.221 0.858,-5.067c0,-1.808 -0.286,-3.488 -0.858,-5.038c-0.572,-1.55 -1.393,-2.888 -2.464,-4.014c-1.07,-1.126 -2.353,-2.003 -3.848,-2.63c-1.495,-0.628 -3.165,-0.941 -5.011,-0.941c-1.845,0 -3.516,0.313 -5.01,0.941c-1.495,0.627 -2.778,1.504 -3.849,2.63c-1.07,1.126 -1.891,2.464 -2.463,4.014c-0.573,1.55 -0.859,3.23 -0.859,5.038Z" style="fill:url(#_Linear12);fill-rule:nonzero;"/><path d="M1468.47,1452.9c-2.547,1.329 -5.205,2.289 -7.973,2.879c-2.769,0.591 -5.592,0.886 -8.472,0.886c-3.063,0 -5.887,-0.48 -8.471,-1.439c-2.584,-0.96 -4.817,-2.335 -6.699,-4.125c-1.883,-1.79 -3.35,-3.959 -4.402,-6.506c-1.052,-2.547 -1.578,-5.389 -1.578,-8.527c0,-3.137 0.526,-5.979 1.578,-8.526c1.052,-2.547 2.519,-4.716 4.402,-6.506c1.882,-1.79 4.115,-3.165 6.699,-4.125c2.584,-0.96 5.408,-1.439 8.471,-1.439c3.138,0 6.026,0.378 8.666,1.135c2.639,0.756 4.955,2.057 6.948,3.903l-6.09,6.644c-1.181,-1.218 -2.51,-2.141 -3.987,-2.768c-1.476,-0.628 -3.322,-0.941 -5.537,-0.941c-1.845,0 -3.515,0.313 -5.01,0.941c-1.495,0.627 -2.778,1.504 -3.848,2.63c-1.071,1.126 -1.892,2.464 -2.464,4.014c-0.572,1.55 -0.858,3.23 -0.858,5.038c0,1.846 0.286,3.535 0.858,5.067c0.572,1.531 1.393,2.86 2.464,3.986c1.07,1.126 2.353,2.003 3.848,2.63c1.495,0.628 3.165,0.941 5.01,0.941c1.883,0 3.507,-0.212 4.873,-0.636c1.366,-0.425 2.454,-0.859 3.267,-1.302l0,-6.367l-7.032,0l0,-7.973l15.337,0l0,20.486Z" style="fill:url(#_Linear13);fill-rule:nonzero;"/><path d="M1485.69,1438.95l-14.728,-22.48l10.742,0l8.305,14.673l8.803,-14.673l10.243,0l-14.727,22.48l0,16.721l-8.638,0l0,-16.721Z" style="fill:url(#_Linear14);fill-rule:nonzero;"/></g><g><path d="M610.583,657.458c-29.875,4.917 -51.25,-9.625 -56.833,-38.833l-8.042,-42l26.917,-5.167l8.167,42.584c2.916,15.333 11.375,22.208 25.5,20.875l-12.959,-67.417l26.834,-5.125l12.916,67.417c13.709,-4 19,-13.542 16.042,-28.875l-8.125,-42.542l26.833,-5.167l8.042,42.042c5.583,29.167 -8.875,50.667 -38.458,57.083l4.416,22.917l-26.833,5.125l-4.417,-22.917Z" style="fill:#fff;fill-rule:nonzero;"/></g><g><path d="M386.875,784.833c-6.917,-0.25 -13.792,2.75 -18.667,8.167c-6.208,6.958 -8.666,16.958 -7.166,28.5c4.25,-0.875 9.625,-1.25 15.625,0.167c11.083,2.583 17.208,9.166 17.458,9.416c0.875,1 0.833,2.5 -0.167,3.417c-0.958,0.875 -2.5,0.833 -3.375,-0.167c-0.041,-0.041 -5.416,-5.75 -15,-8c-6.25,-1.458 -11.791,-0.666 -15.708,0.417c-3.458,3.667 -5.542,8.625 -5.417,13.542c0.125,5.333 2.667,10.083 7.292,13.708c-3.042,4.083 -4,8.708 -2.667,13.25c1.667,5.667 6.709,10.417 13.042,12.458c1.25,10.209 11.417,12.584 15.917,13.667c2.708,0.625 5.291,0.333 7.541,-0.667l26.375,-112.791c-1.5,-1.667 -3.666,-2.792 -6.625,-3.459c-14.333,-3.375 -24.416,2.792 -28.458,8.375Zm-2.75,82.959c-1.25,-0.292 -2.083,-1.584 -1.792,-2.875c1.292,-5.375 1.875,-15.042 -8.25,-19.25c-1.208,-0.5 -1.791,-1.917 -1.291,-3.125c0.5,-1.209 1.916,-1.834 3.125,-1.292c9.791,4.083 13.833,13.083 11.125,24.75c-0.334,1.292 -1.625,2.083 -2.917,1.792Zm3.792,-58.292c-1.292,-0.292 -2.084,-1.583 -1.792,-2.875c0.292,-1.292 1.583,-2.125 2.875,-1.792c9.542,2.209 12.875,-2.5 13.333,-4.291c0.292,-1.292 1.584,-2.084 2.875,-1.792c1.292,0.292 2.084,1.583 1.792,2.875c-0.75,3.25 -5.667,11 -19.083,7.875Zm46.125,45.292c-1.292,-0.292 -2.084,-1.584 -1.792,-2.875c0.292,-1.292 1.583,-2.125 2.875,-1.792c15.625,3.625 24.167,-1.708 27.542,-4.667c6.541,-9.75 8.833,-19.875 6.333,-28.916c-1.958,-7.042 -6.833,-12.75 -13.125,-15.584c-1.125,-6.791 -7.458,-16.791 -21.792,-20.125c-2.958,-0.708 -5.416,-0.666 -7.458,0.167l-26.333,112.792c1.583,1.875 3.75,3.291 6.458,3.916l0.083,0.042c5,1.167 13.167,0.542 18.542,-4.833c-6.375,-5.292 -11.708,-14.167 -9.167,-25.042c0.292,-1.292 1.584,-2.083 2.875,-1.792c1.292,0.292 2.084,1.584 1.792,2.875c-2.792,11.959 6,19.292 9.417,21.667c6.208,0.667 11.166,-0.583 14.208,-3.667c2.958,-2.958 4,-7.25 3.125,-12.833c6.042,-1.208 10.667,-4.542 13.167,-9.5c1.916,-3.875 2.333,-8.5 1.25,-12.792c-5.375,3.25 -14.417,6.125 -28,2.959Zm-0.084,-41.917c0.334,-1.292 1.625,-2.125 2.917,-1.792c1.292,0.292 2.083,1.584 1.792,2.875c-0.917,3.792 1.25,12.625 13.625,15.5c1.291,0.292 2.083,1.584 1.791,2.875c-0.291,1.292 -1.583,2.125 -2.875,1.792c-15.916,-3.708 -18.5,-15.917 -17.25,-21.25Z" style="fill:#fff;fill-rule:nonzero;"/></g><g><path d="M1483.96,867l2.584,-10.292c0,0 11.875,-6.625 14.125,-12.583c0,0 5.875,-2.208 7.416,-8.375c1.084,-4.292 -0.666,-5.417 -0.666,-5.417c0,0 5.083,-5.666 6.666,-11.875c3.167,-12.5 -0.666,-23.708 -11.208,-26.333c0,0 -2.917,-7.25 -10.667,-9.208c-16.458,-4.167 -32.291,2.375 -36.75,20.083c-1.875,7.5 0.834,14.417 0.834,14.417c0,0 -2.167,0.458 -3.167,4.458c-1.958,7.75 2.583,10.875 2.583,10.875c-0.875,6.333 6.417,17.792 6.417,17.792l-2.583,10.291c-9.042,14.125 -38,-4 -47.042,31.875l97.708,24.667c9.084,-36 -25,-33.667 -26.25,-50.375Z" style="fill:#fff;fill-rule:nonzero;"/><path d="M1526.29,821.542c-1.125,4.458 -3.25,8.541 -5.25,11.583c0,1.75 -0.209,3.667 -0.75,5.708c-3.792,15.084 -22.875,26.292 -22.875,26.292c2.958,2.25 12.208,10.333 15.875,14.083l48.916,12.334c8.084,-32.042 -20.25,-29.459 -21.291,-44.334l2.333,-9.166c2.292,-0.5 8.875,-6.292 10.875,-11.625c1.625,0.25 5.75,-2.834 6.625,-6.292c0.875,-3.5 0.167,-5.208 -0.667,-6c0,0 3.209,-4.083 4.625,-9.625c2.792,-11.125 2.417,-22.125 -6.791,-24.458c0,0 -1.125,-6.792 -10.709,-9.209c-13.541,-3.416 -24.25,3.792 -29.375,15.542c8.542,7.75 12.084,20.792 8.459,35.167Zm-77.625,30.875c-2.417,-4.375 -5.667,-11.709 -6.25,-16.792c-3.334,-2.875 -5.959,-5.917 -6.459,-10.083l1.542,-6.125c1.167,0.291 4.667,0.875 5.958,0.916c-1.666,-4.875 -1.583,-15.041 -0.208,-20.416c3.458,-13.625 12.125,-23.334 23.667,-27.917c-0.084,-12 -4.375,-22.542 -19.834,-26.458c-5.583,-1.417 -11.291,3.625 -11.291,3.625c-32,-8.084 -27.25,47.416 -38.542,52.541c0,0 3.958,8.584 21.917,13.125l-1.542,6.084c-8.208,11.708 -32.583,0.458 -38.625,24.333l49,12.375c4.958,-1.5 20.667,-5.208 20.667,-5.208Z" style="fill:#fff;fill-rule:nonzero;"/></g><g><path d="M1372.5,591.667c19.25,-3.959 30.5,-18.834 36.458,-30.542c2.042,-4.083 1.084,-8.75 -2.416,-11.667c-10.084,-8.458 -26.25,-17.75 -45.5,-13.791c-19.25,3.916 -30.459,18.833 -36.417,30.541c-2.042,4.084 -1.083,8.75 2.375,11.667c10.083,8.417 26.25,17.708 45.5,13.792Zm44.917,-26.25c4.083,-8 2.166,-17.5 -4.75,-23.25c-10.959,-9.209 -30.084,-20.625 -53.5,-15.834c-23.459,4.792 -36.542,22.834 -43.042,35.584c-4.042,8 -2.125,17.5 4.792,23.25c10.958,9.166 30.041,20.625 53.5,15.833c23.458,-4.792 36.541,-22.833 43,-35.583Z" style="fill:#fff;"/><g><path d="M1376.12,561.75c1.042,5.167 -2.292,10.208 -7.417,11.25c-5.166,1.042 -10.208,-2.292 -11.25,-7.417c-0.041,-0.125 -0.041,-0.291 -0.083,-0.416c0.792,0.125 1.625,0.083 2.417,-0.084c3.875,-0.791 6.333,-4.541 5.541,-8.416c-0.125,-0.792 -0.416,-1.542 -0.833,-2.25c0.125,-0.042 0.25,-0.042 0.375,-0.084c5.167,-1.041 10.208,2.25 11.25,7.417Zm9.333,-1.917c2.084,10.334 -4.541,20.375 -14.833,22.5c-10.333,2.125 -20.417,-4.541 -22.5,-14.833c-2.125,-10.333 4.542,-20.375 14.833,-22.5c10.334,-2.125 20.375,4.542 22.5,14.833Z" style="fill:#fff;"/></g></g></g></g><defs><linearGradient id="_Linear1" x1="0" y1="0" x2="1" y2="0" gradientUnits="userSpaceOnUse" gradientTransform="matrix(0.669396,-259.15,259.15,0.669396,787.706,1390.34)"><stop offset="0" style="stop-color:#fff;stop-opacity:1"/><stop offset="1" style="stop-color:#eee;stop-opacity:1"/></linearGradient><linearGradient id="_Linear2" x1="0" y1="0" x2="1" y2="0" gradientUnits="userSpaceOnUse" gradientTransform="matrix(0.871185,-306.261,306.261,0.871185,831.263,1274.11)"><stop offset="0" style="stop-color:#fff;stop-opacity:1"/><stop offset="1" style="stop-color:#eee;stop-opacity:1"/></linearGradient><linearGradient id="_Linear3" x1="0" y1="0" x2="1" y2="0" gradientUnits="userSpaceOnUse" gradientTransform="matrix(1.2767,-367.543,367.543,1.2767,1113.91,1149.35)"><stop offset="0" style="stop-color:#fff;stop-opacity:1"/><stop offset="1" style="stop-color:#eee;stop-opacity:1"/></linearGradient><linearGradient id="_Linear4" x1="0" y1="0" x2="1" y2="0" gradientUnits="userSpaceOnUse" gradientTransform="matrix(0.76447,-345.09,345.09,0.76447,719.959,1580.49)"><stop offset="0" style="stop-color:#fff;stop-opacity:1"/><stop offset="1" style="stop-color:#eee;stop-opacity:1"/></linearGradient><linearGradient id="_Linear5" x1="0" y1="0" x2="1" y2="0" gradientUnits="userSpaceOnUse" gradientTransform="matrix(416.995,0,0,416.995,1124.65,1483.34)"><stop offset="0" style="stop-color:#fff;stop-opacity:1"/><stop offset="1" style="stop-color:#eee;stop-opacity:1"/></linearGradient><linearGradient id="_Linear6" x1="0" y1="0" x2="1" y2="0" gradientUnits="userSpaceOnUse" gradientTransform="matrix(416.995,0,0,416.995,1124.65,1483.34)"><stop offset="0" style="stop-color:#fff;stop-opacity:1"/><stop offset="1" style="stop-color:#eee;stop-opacity:1"/></linearGradient><linearGradient id="_Linear7" x1="0" y1="0" x2="1" y2="0" gradientUnits="userSpaceOnUse" gradientTransform="matrix(416.995,0,0,416.995,1124.65,1483.34)"><stop offset="0" style="stop-color:#fff;stop-opacity:1"/><stop offset="1" style="stop-color:#eee;stop-opacity:1"/></linearGradient><linearGradient id="_Linear8" x1="0" y1="0" x2="1" y2="0" gradientUnits="userSpaceOnUse" gradientTransform="matrix(416.995,0,0,416.995,1124.65,1483.34)"><stop offset="0" style="stop-color:#fff;stop-opacity:1"/><stop offset="1" style="stop-color:#eee;stop-opacity:1"/></linearGradient><linearGradient id="_Linear9" x1="0" y1="0" x2="1" y2="0" gradientUnits="userSpaceOnUse" gradientTransform="matrix(416.995,0,0,416.995,1124.65,1483.34)"><stop offset="0" style="stop-color:#fff;stop-opacity:1"/><stop offset="1" style="stop-color:#eee;stop-opacity:1"/></linearGradient><linearGradient id="_Linear10" x1="0" y1="0" x2="1" y2="0" gradientUnits="userSpaceOnUse" gradientTransform="matrix(416.995,0,0,416.995,1124.65,1483.34)"><stop offset="0" style="stop-color:#fff;stop-opacity:1"/><stop offset="1" style="stop-color:#eee;stop-opacity:1"/></linearGradient><linearGradient id="_Linear11" x1="0" y1="0" x2="1" y2="0" gradientUnits="userSpaceOnUse" gradientTransform="matrix(416.995,0,0,416.995,1124.65,1483.34)"><stop offset="0" style="stop-color:#fff;stop-opacity:1"/><stop offset="1" style="stop-color:#eee;stop-opacity:1"/></linearGradient><linearGradient id="_Linear12" x1="0" y1="0" x2="1" y2="0" gradientUnits="userSpaceOnUse" gradientTransform="matrix(416.995,0,0,416.995,1124.65,1483.34)"><stop offset="0" style="stop-color:#fff;stop-opacity:1"/><stop offset="1" style="stop-color:#eee;stop-opacity:1"/></linearGradient><linearGradient id="_Linear13" x1="0" y1="0" x2="1" y2="0" gradientUnits="userSpaceOnUse" gradientTransform="matrix(416.995,0,0,416.995,1124.65,1483.34)"><stop offset="0" style="stop-color:#fff;stop-opacity:1"/><stop offset="1" style="stop-color:#eee;stop-opacity:1"/></linearGradient><linearGradient id="_Linear14" x1="0" y1="0" x2="1" y2="0" gradientUnits="userSpaceOnUse" gradientTransform="matrix(416.995,0,0,416.995,1124.65,1483.34)"><stop offset="0" style="stop-color:#fff;stop-opacity:1"/><stop offset="1" style="stop-color:#eee;stop-opacity:1"/></linearGradient></defs></svg>