<?xml version="1.0" encoding="UTF-8" standalone="no"?>
<!DOCTYPE svg PUBLIC "-//W3C//DTD SVG 1.1//EN" "http://www.w3.org/Graphics/SVG/1.1/DTD/svg11.dtd">
<!-- Created with Vectornator (http://vectornator.io/) -->
<svg height="100%" stroke-miterlimit="10" style="fill-rule:nonzero;clip-rule:evenodd;stroke-linecap:round;stroke-linejoin:round;" version="1.1" viewBox="1384.7 1405.98 472.55 469.029" width="100%" xml:space="preserve" xmlns="http://www.w3.org/2000/svg" xmlns:vectornator="http://vectornator.io" xmlns:xlink="http://www.w3.org/1999/xlink">
<defs>
<linearGradient gradientTransform="matrix(0.465667 0 0 0.465667 1411.07 1552.22)" gradientUnits="userSpaceOnUse" id="LinearGradient" x1="349.347" x2="349.692" y1="402.523" y2="268.96">
<stop offset="0" stop-color="#ffffff"/>
<stop offset="1" stop-color="#eeeeee"/>
</linearGradient>
<linearGradient gradientTransform="matrix(0.465667 0 0 0.465667 1411.07 1552.22)" gradientUnits="userSpaceOnUse" id="LinearGradient_2" x1="371.796" x2="372.245" y1="342.619" y2="184.775">
<stop offset="0" stop-color="#ffffff"/>
<stop offset="1" stop-color="#eeeeee"/>
</linearGradient>
<linearGradient gradientTransform="matrix(0.465667 0 0 0.465667 1411.07 1552.22)" gradientUnits="userSpaceOnUse" id="LinearGradient_3" x1="517.468" x2="518.126" y1="278.317" y2="88.889">
<stop offset="0" stop-color="#ffffff"/>
<stop offset="1" stop-color="#eeeeee"/>
</linearGradient>
<linearGradient gradientTransform="matrix(0.465667 0 0 0.465667 1411.07 1552.22)" gradientUnits="userSpaceOnUse" id="LinearGradient_4" x1="314.431" x2="314.825" y1="500.526" y2="322.67">
<stop offset="0" stop-color="#ffffff"/>
<stop offset="1" stop-color="#eeeeee"/>
</linearGradient>
<linearGradient gradientTransform="matrix(2.22052 0 0 0.547446 -4991.86 -881.306)" gradientUnits="userSpaceOnUse" id="LinearGradient_5" x1="2248.06" x2="2293.13" y1="1621.98" y2="1621.98">
<stop offset="0" stop-color="#ffffff"/>
<stop offset="1" stop-color="#eeeeee"/>
</linearGradient>
</defs>
<clipPath id="ArtboardFrame">
<rect height="469.029" width="472.55" x="1384.7" y="1405.98"/>
</clipPath>
<g clip-path="url(#ArtboardFrame)" id="Layer" vectornator:layerName="Layer">
<g opacity="1" vectornator:layerName="Group 45">
<path d="M1857.25 1669.24C1857.25 1535.07 1770.22 1468.75 1661.73 1416.74C1559.97 1367.96 1393.65 1491.49 1385.29 1656.21C1380.61 1748.26 1403.38 1835.04 1477.66 1857.53C1520.16 1870.4 1594.05 1863.08 1642.59 1872.63C1734.75 1890.76 1857.25 1803.42 1857.25 1669.24Z" fill="#ffffff" fill-rule="nonzero" opacity="1" stroke="none" vectornator:layerName="Oval 3"/>
<path d="M1411.07 1552.22L1830.17 1552.22L1830.17 1831.62L1411.07 1831.62L1411.07 1552.22Z" fill="#000000" fill-opacity="0" fill-rule="nonzero" opacity="1" stroke="none" vectornator:layerName="path"/>
<path d="M1436.18 1647.23C1436.18 1548.79 1515.98 1468.99 1614.42 1468.99C1712.85 1468.99 1792.65 1548.79 1792.65 1647.23C1792.65 1745.66 1712.85 1825.46 1614.42 1825.46C1515.98 1825.46 1436.18 1745.66 1436.18 1647.23Z" fill="#d1bef9" fill-rule="nonzero" opacity="1" stroke="none" vectornator:layerName="circle"/>
<g opacity="1" vectornator:layerName="Group 23">
<path d="M1614 1524.55C1614.17 1524.21 1611.92 1525.99 1610.74 1525.21C1610.74 1525.21 1611.54 1524.35 1611.15 1523.48C1610.19 1525.16 1609.39 1525.3 1608.23 1525.46C1608.23 1525.46 1608.47 1524.77 1608.3 1524.02C1608.25 1523.79 1608.4 1524.86 1606.98 1525.3L1606.18 1524.29C1605.4 1524.58 1605.23 1524.84 1605.34 1525.51C1605.34 1525.51 1603.74 1524.95 1602.7 1524.18C1599.5 1521.86 1600.96 1515.33 1602.09 1512.41C1603.95 1507.6 1605.93 1502.8 1608.56 1498.3C1609.49 1496.71 1611.08 1495.48 1612.65 1494.35C1613.58 1493.68 1614.73 1493.2 1615.92 1493.01C1619.14 1492.5 1622.44 1492.05 1625.73 1492.27C1629.67 1492.53 1633.59 1495.04 1635.91 1497.94C1637.12 1499.45 1637.95 1501.2 1638.59 1502.96C1640.16 1507.3 1641.5 1511.71 1642.51 1516.17C1643.28 1519.54 1644.11 1525.56 1639.41 1527.38C1637.24 1528.22 1634.35 1530.06 1631.2 1529.23L1632.9 1527.59C1632.9 1527.59 1631.53 1528.76 1629.49 1528.17C1629.49 1528.17 1630.33 1527.02 1630.54 1526.42C1630.54 1526.42 1629.64 1527.46 1627.77 1527.53C1627.77 1527.53 1627.96 1526.43 1627.62 1526.28C1627.5 1527.22 1613.43 1525.65 1614 1524.55Z" fill="#ffffff" fill-rule="nonzero" opacity="1" stroke="none" vectornator:layerName="Curve 5"/>
<path d="M1627.18 1524.92L1612.65 1524.66C1612.25 1525.8 1612.96 1527.25 1612.48 1529.34C1609.91 1530.28 1607.49 1530.63 1605.47 1530.93C1605.47 1530.93 1609.97 1555.99 1597.43 1585.15C1596.52 1592.45 1594.92 1593.44 1593.4 1596.07C1590.43 1601.2 1638.55 1606.71 1634.9 1597.51C1633.76 1594.64 1634.6 1588.42 1635.51 1586.87C1626.67 1556.52 1633.52 1531.71 1633.52 1531.71C1632.06 1531.58 1629.04 1530.84 1625.85 1529.52C1626.07 1526.79 1627.16 1525.87 1627.18 1524.92Z" fill="#ffffff" fill-rule="nonzero" opacity="1" stroke="none"/>
<path d="M1636.41 1532.24C1651.65 1534.59 1644.79 1553.55 1648.78 1564.48C1652.91 1575.75 1643.71 1579.56 1643.71 1579.56C1643.71 1579.56 1628.62 1531.04 1636.41 1532.24Z" fill="#ffffff" fill-rule="nonzero" opacity="1" stroke="none" vectornator:layerName="Curve 3"/>
<path d="M1637.26 1587.71C1637.53 1587.14 1636.02 1579.46 1636.41 1570.61C1636.81 1561.75 1638.82 1558.03 1638 1552.81C1632.5 1543.19 1635.73 1531.92 1635.73 1531.92C1632.11 1531.68 1630.97 1531.01 1630.97 1531.01C1630.97 1531.01 1631.38 1542.23 1618.94 1542.58C1608.98 1542.86 1606.93 1530.47 1606.93 1530.47C1606.93 1530.47 1603.22 1531.51 1600.57 1531.51C1600.57 1531.51 1603.53 1545.98 1597.6 1551.91C1595.97 1556.42 1597.95 1565.63 1597.16 1571.06C1596.4 1576.35 1594.61 1585.39 1595.21 1586.17C1597.84 1589.59 1602.79 1586.5 1613.52 1586.56C1622.39 1586.61 1635.45 1591.43 1637.26 1587.71Z" fill="#593f92" fill-rule="nonzero" opacity="1" stroke="none"/>
<path d="M1600.53 1532.14C1585.24 1534.07 1588.89 1564.76 1591.66 1575.74C1593.11 1581.46 1595.52 1580.69 1602.36 1584.75C1609.2 1588.82 1613.56 1588.85 1619.02 1592.01C1620.51 1593.09 1630.76 1588.52 1623.65 1586.5C1615.16 1585.4 1613.8 1582.5 1607.8 1577.9C1601.79 1573.29 1600.94 1575.97 1599.63 1568.08C1599.31 1566.18 1599.54 1561.15 1600.05 1559.04C1604.19 1554.95 1604.15 1531.69 1600.53 1532.14Z" fill="#ffffff" fill-rule="nonzero" opacity="1" stroke="none" vectornator:layerName="Curve 4"/>
<path d="M1677.94 1624.07C1679.89 1623.89 1680.15 1626.55 1680 1626.89C1679.58 1627.77 1678.89 1629.82 1675.99 1631.33C1673.09 1632.83 1672.25 1632.68 1668.38 1632.91C1666.68 1633 1665.19 1632.04 1663.68 1631.28C1664.43 1630.41 1664.28 1629.17 1664.37 1628.07C1664.61 1624.85 1667.5 1626.08 1669.82 1626.07C1672.73 1626.01 1675.27 1625.11 1677.94 1624.07Z" fill="#ffffff" fill-rule="nonzero" opacity="1" stroke="none" vectornator:layerName="path 5"/>
<path d="M1613.89 1630.51C1612.35 1631.71 1613.97 1633.83 1614.31 1633.98C1615.21 1634.33 1617.12 1635.37 1620.27 1634.5C1623.42 1633.62 1623.93 1632.94 1626.91 1630.48C1628.23 1629.38 1628.66 1627.67 1629.25 1626.08C1628.11 1625.96 1627.37 1624.95 1626.56 1624.2C1624.2 1622.01 1622.91 1624.87 1621.21 1626.44C1619.04 1628.38 1616.56 1629.45 1613.89 1630.51Z" fill="#ffffff" fill-rule="nonzero" opacity="1" stroke="none" vectornator:layerName="path"/>
<path d="M1590.09 1600.64L1589.96 1601C1589.03 1603.55 1588.32 1606.18 1588.02 1608.87C1587.48 1613.82 1588.5 1619.62 1592.43 1623.21C1597.66 1628.01 1606.06 1628.75 1612.89 1627.61C1615.69 1627.15 1618.32 1626.04 1620.55 1624.38C1622.78 1626.29 1625.17 1628.39 1627.16 1630.51C1631.16 1629.19 1634.96 1627.39 1638.48 1625.16C1646.81 1628.78 1655.31 1631.22 1664.29 1632.99C1665.31 1630.57 1666.03 1628.04 1666.43 1625.46C1666.5 1625.04 1660.91 1621.46 1660.26 1620.95C1658.33 1619.4 1654.29 1615.87 1654.29 1615.87C1654.29 1615.87 1659.38 1611.76 1661.6 1609.83C1663.95 1607.83 1666.21 1605.73 1668.36 1603.53C1670.14 1601.72 1671.88 1599.8 1672.97 1597.54C1674.06 1595.29 1674.46 1592.64 1673.55 1590.31C1670.67 1583.05 1659.06 1585.6 1653.66 1588.1C1649.2 1590.18 1645.3 1593.2 1641.54 1596.26C1640.02 1597.48 1638.53 1598.74 1637.05 1599.98C1635.89 1598.84 1634.61 1597.36 1633.51 1596.17C1632.33 1594.87 1630.98 1593.65 1629.34 1592.89C1627.63 1592.06 1625.99 1593.38 1624.16 1593.14C1623.34 1593.03 1622.38 1593.07 1621.58 1592.94C1619.18 1592.52 1616.92 1592.75 1614.81 1593.92C1612.81 1595.03 1611.14 1595.09 1608.79 1595.51C1606.13 1595.99 1603.03 1595.71 1600.36 1595.37C1597.96 1595.06 1595.52 1594.54 1593.13 1594.99C1592.14 1595.17 1591.76 1596.49 1591.43 1597.24C1590.99 1598.34 1590.53 1599.47 1590.09 1600.64Z" fill="#593f92" fill-rule="nonzero" opacity="1" stroke="none" vectornator:layerName="path"/>
<path d="M1675.91 1565.42L1668.67 1596.04L1613.73 1595.24C1613.75 1593.44 1615.32 1591.99 1617.24 1592.01L1630.37 1592.2L1636.91 1564.04C1637.11 1563.12 1637.99 1562.48 1638.96 1562.49L1673.9 1562.99C1675.23 1563.03 1676.2 1564.19 1675.91 1565.42Z" fill="#c0a3ff" fill-rule="nonzero" opacity="1" stroke="none" vectornator:layerName="path"/>
</g>
<path d="M1520.44 1729.99L1707.56 1729.99C1714.7 1729.99 1720.5 1724.73 1720.5 1718.25L1720.5 1711.27C1720.5 1704.79 1714.7 1699.53 1707.56 1699.53L1520.44 1699.53C1529 1708.02 1529.14 1720.99 1520.78 1729.64L1520.44 1729.99Z" fill="#c0a3ff" fill-rule="nonzero" opacity="1" stroke="none" vectornator:layerName="path"/>
<path d="M1523.06 1703.02L1617.22 1703.02C1623.7 1703.02 1628.96 1708.28 1628.96 1714.76C1628.96 1721.24 1623.7 1726.5 1617.22 1726.5L1523.05 1726.5C1527.45 1719.3 1527.44 1710.2 1523.06 1703.02Z" fill="url(#LinearGradient)" fill-rule="nonzero" opacity="1" stroke="none" vectornator:layerName="path"/>
<path d="M1528.86 1666.23C1528.45 1665.52 1529.07 1664.71 1530.02 1664.71L1679.04 1664.71C1690.72 1664.71 1700.19 1672.52 1700.19 1682.16C1700.19 1691.8 1690.72 1699.61 1679.04 1699.61L1529.98 1699.61C1529.03 1699.61 1528.41 1698.79 1528.82 1698.08C1534.72 1688 1534.7 1676.27 1528.86 1666.23Z" fill="#593f92" fill-rule="nonzero" opacity="1" stroke="none" vectornator:layerName="path"/>
<path d="M1530.05 1668.46L1630.04 1668.46C1637.42 1668.46 1643.41 1674.45 1643.41 1681.84L1643.41 1682.84C1643.41 1690.22 1637.42 1696.21 1630.04 1696.21L1529.84 1696.21C1534.32 1687.32 1534.37 1677.35 1530.05 1668.46Z" fill="url(#LinearGradient_2)" fill-rule="nonzero" opacity="1" stroke="none" vectornator:layerName="path"/>
<path d="M1710.22 1663.16L1614.05 1663.16C1605.52 1663.16 1598.61 1655.7 1598.61 1646.5C1598.61 1637.31 1605.52 1629.85 1614.05 1629.85L1710.22 1629.85C1702.87 1639.09 1702.58 1652.63 1709.54 1662.21L1710.22 1663.16Z" fill="url(#LinearGradient_3)" fill-rule="nonzero" opacity="1" stroke="none" vectornator:layerName="path"/>
<path d="M1599.88 1646.5C1599.88 1637.31 1606.87 1629.85 1615.5 1629.85L1711.97 1629.85C1712.42 1629.85 1712.79 1629.46 1712.78 1628.98C1712.78 1628.51 1712.42 1628.13 1711.97 1628.13L1558.93 1628.13C1549.41 1628.13 1541.69 1636.35 1541.69 1646.5C1541.69 1656.65 1549.41 1664.88 1558.93 1664.88L1711.97 1664.88C1712.42 1664.88 1712.78 1664.5 1712.78 1664.03C1712.79 1663.55 1712.42 1663.16 1711.97 1663.16L1615.5 1663.16C1606.87 1663.16 1599.88 1655.7 1599.88 1646.5Z" fill="#c0a3ff" fill-rule="nonzero" opacity="1" stroke="none" vectornator:layerName="path"/>
<path d="M1585.16 1683.05C1585.16 1681.12 1587.6 1679.55 1590.61 1679.55L1602.61 1679.55C1600.32 1679.55 1598.47 1680.74 1598.47 1682.2L1598.53 1719.62L1591.9 1714.81L1585.15 1719.62L1585.16 1683.05Z" fill="#e1e4e5" fill-rule="nonzero" opacity="1" stroke="none" vectornator:layerName="path 1"/>
<path d="M1473.93 1729.93L1751.98 1729.93C1760.61 1729.93 1767.61 1736.93 1767.61 1745.56L1767.61 1758.71C1767.61 1767.35 1760.61 1774.35 1751.98 1774.35L1473.93 1774.35L1474.08 1774.19C1485.97 1761.81 1485.91 1742.23 1473.93 1729.93Z" fill="#593f92" fill-rule="nonzero" opacity="1" stroke="none" vectornator:layerName="path"/>
<path d="M1478.86 1736.5L1627.49 1736.5C1636.13 1736.5 1643.13 1743.5 1643.13 1752.14C1643.13 1760.77 1636.13 1767.77 1627.49 1767.77L1478.86 1767.77C1484.32 1758.09 1484.32 1746.18 1478.86 1736.5Z" fill="url(#LinearGradient_4)" fill-rule="nonzero" opacity="1" stroke="none" vectornator:layerName="path"/>
<path d="M1520.5 1618.11C1520.5 1616.7 1521.65 1615.55 1523.06 1615.55C1524.48 1615.55 1525.62 1616.7 1525.62 1618.11C1525.62 1619.53 1524.48 1620.68 1523.06 1620.68C1521.65 1620.68 1520.5 1619.53 1520.5 1618.11Z" fill="#593f92" fill-rule="nonzero" opacity="1" stroke="#593f92" stroke-linecap="round" stroke-linejoin="round" stroke-width="3.312" vectornator:layerName="circle"/>
<path d="M1731.98 1683.67C1731.98 1682.43 1732.99 1681.42 1734.23 1681.42C1735.47 1681.42 1736.47 1682.43 1736.47 1683.67C1736.47 1684.91 1735.47 1685.91 1734.23 1685.91C1732.99 1685.91 1731.98 1684.91 1731.98 1683.67Z" fill="#593f92" fill-rule="nonzero" opacity="1" stroke="#593f92" stroke-linecap="round" stroke-linejoin="round" stroke-width="3.312" vectornator:layerName="circle"/>
<path d="M1509.38 1716.25C1511.13 1714.73 1511.63 1711.66 1511.63 1711.66C1511.63 1711.66 1508.24 1711.43 1506.5 1712.96C1504.75 1714.48 1503.98 1716.46 1504.78 1717.37C1505.58 1718.28 1507.64 1717.78 1509.38 1716.25ZM1734.23 1719.68C1731.59 1717.37 1730.84 1712.73 1730.84 1712.73C1730.84 1712.73 1735.96 1712.38 1738.6 1714.69C1741.24 1717 1742.41 1720 1741.2 1721.37C1740 1722.75 1736.88 1722 1734.23 1719.68Z" fill="#593f92" fill-rule="nonzero" opacity="1" stroke="#593f92" stroke-linecap="round" stroke-linejoin="round" stroke-width="3.312" vectornator:layerName="path"/>
<path d="M1488.21 1683.15C1489.19 1684.18 1489.16 1685.8 1488.14 1686.79C1487.11 1687.77 1485.48 1687.74 1484.5 1686.72C1483.51 1685.69 1483.55 1684.06 1484.57 1683.08C1485.6 1682.09 1487.22 1682.13 1488.21 1683.15Z" fill="#593f92" fill-rule="nonzero" opacity="1" stroke="#593f92" stroke-linecap="round" stroke-linejoin="round" stroke-width="3.312" vectornator:layerName="circle"/>
<path d="M1760.63 1672.54C1759.96 1673.25 1759.98 1674.36 1760.68 1675.04C1761.39 1675.72 1762.5 1675.7 1763.18 1674.99C1763.86 1674.29 1763.83 1673.17 1763.13 1672.49C1762.43 1671.82 1761.31 1671.84 1760.63 1672.54Z" fill="#593f92" fill-rule="nonzero" opacity="1" stroke="#593f92" stroke-linecap="round" stroke-linejoin="round" stroke-width="3.312" vectornator:layerName="circle"/>
<path d="M1502.44 1653L1497.68 1648.25L1502.44 1643.49L1507.19 1648.25L1502.44 1653ZM1730.15 1651.14L1734.9 1646.39L1730.15 1641.63L1725.39 1646.39L1730.15 1651.14Z" fill="none" opacity="1" stroke="#593f92" stroke-linecap="round" stroke-linejoin="round" stroke-width="5.42" vectornator:layerName="path"/>
<path d="M1620.29 1640.48L1693.02 1640.48L1693.02 1639.24L1620.29 1639.24L1620.29 1640.48Z" fill="#e1e4e5" fill-rule="nonzero" opacity="1" stroke="none" vectornator:layerName="Rectangle 5"/>
<path d="M1620.29 1647.55L1693.02 1647.55L1693.02 1646.32L1620.29 1646.32L1620.29 1647.55Z" fill="#e1e4e5" fill-rule="nonzero" opacity="1" stroke="none" vectornator:layerName="Rectangle 7"/>
<path d="M1547.07 1675.44L1619.8 1675.44L1619.8 1674.21L1547.07 1674.21L1547.07 1675.44Z" fill="#e1e4e5" fill-rule="nonzero" opacity="1" stroke="none" vectornator:layerName="Rectangle 11"/>
<path d="M1499.71 1743.76L1622.62 1743.76L1622.62 1742.53L1499.71 1742.53L1499.71 1743.76Z" fill="#e1e4e5" fill-rule="nonzero" opacity="1" stroke="none" vectornator:layerName="Rectangle 12"/>
<path d="M1499.71 1752.94L1590.96 1752.94L1622.62 1752.94L1622.62 1751.71L1499.71 1751.71L1499.71 1752.94Z" fill="#e1e4e5" fill-rule="nonzero" opacity="1" stroke="none" vectornator:layerName="Rectangle 13"/>
<path d="M1499.71 1762.13L1622.62 1762.13L1622.62 1760.9L1499.71 1760.9L1499.71 1762.13Z" fill="#e1e4e5" fill-rule="nonzero" opacity="1" stroke="none" vectornator:layerName="Rectangle 8"/>
<path d="M1547.23 1687.34L1619.96 1687.34L1619.96 1686.11L1547.23 1686.11L1547.23 1687.34Z" fill="#e1e4e5" fill-rule="nonzero" opacity="1" stroke="none" vectornator:layerName="Rectangle 9"/>
<path d="M1538.87 1710.99L1611.6 1710.99L1611.6 1709.76L1538.87 1709.76L1538.87 1710.99Z" fill="#e1e4e5" fill-rule="nonzero" opacity="1" stroke="none" vectornator:layerName="Rectangle 10"/>
<path d="M1538.87 1720L1611.6 1720L1611.6 1718.77L1538.87 1718.77L1538.87 1720Z" fill="#e1e4e5" fill-rule="nonzero" opacity="1" stroke="none" vectornator:layerName="Rectangle 6"/>
<path d="M1620.29 1655.44L1693.02 1655.44L1693.02 1654.21L1620.29 1654.21L1620.29 1655.44Z" fill="#e1e4e5" fill-rule="nonzero" opacity="1" stroke="none" vectornator:layerName="Rectangle 1"/>
<path d="M1579.52 1602.69C1579.52 1601.14 1580.78 1599.88 1582.33 1599.88C1583.88 1599.88 1585.14 1601.14 1585.14 1602.69C1585.14 1604.24 1583.88 1605.5 1582.33 1605.5C1580.78 1605.5 1579.52 1604.24 1579.52 1602.69Z" fill="#593f92" fill-rule="nonzero" opacity="1" stroke="#593f92" stroke-linecap="round" stroke-linejoin="round" stroke-width="3.312" vectornator:layerName="circle"/>
<path d="M1555.51 1647.13C1555.51 1641.42 1557.59 1636.8 1560.16 1636.8C1562.73 1636.8 1564.82 1641.42 1564.82 1647.13C1564.82 1652.83 1562.73 1657.46 1560.16 1657.46C1557.59 1657.46 1555.51 1652.83 1555.51 1647.13Z" fill="#593f92" fill-rule="nonzero" opacity="1" stroke="none" vectornator:layerName="Oval 2"/>
<text fill="url(#LinearGradient_5)" font-family="Avenir-Black" font-size="13.2883" opacity="1" stroke="none" text-anchor="start" transform="matrix(1 0 0 1 1652.15 1742.34)" vectornator:layerName="Text 1" vectornator:width="108.548" x="0" y="0">
<tspan textLength="102.46" x="2.46263" y="13">PSYCHOLOGY</tspan>
</text>
<g opacity="1" vectornator:layerName="Psychology">
<path d="M1531.24 1563.77C1524.07 1564.95 1518.94 1561.46 1517.6 1554.45L1515.67 1544.37L1522.13 1543.13L1524.09 1553.35C1524.79 1557.03 1526.82 1558.68 1530.21 1558.36L1527.1 1542.18L1533.54 1540.95L1536.64 1557.13C1539.93 1556.17 1541.2 1553.88 1540.49 1550.2L1538.54 1539.99L1544.98 1538.75L1546.91 1548.84C1548.25 1555.84 1544.78 1561 1537.68 1562.54L1538.74 1568.04L1532.3 1569.27L1531.24 1563.77Z" fill="#ffffff" fill-rule="nonzero" opacity="1" stroke="none" vectornator:layerName="path"/>
</g>
<g opacity="1" vectornator:layerName="Brain 1">
<path d="M1477.55 1594.34C1475.89 1594.28 1474.24 1595 1473.07 1596.3C1471.58 1597.97 1470.99 1600.37 1471.35 1603.14C1472.37 1602.93 1473.66 1602.84 1475.1 1603.18C1477.76 1603.8 1479.23 1605.38 1479.29 1605.44C1479.5 1605.68 1479.49 1606.04 1479.25 1606.26C1479.02 1606.47 1478.65 1606.46 1478.44 1606.22C1478.43 1606.21 1477.14 1604.84 1474.84 1604.3C1473.34 1603.95 1472.01 1604.14 1471.07 1604.4C1470.24 1605.28 1469.74 1606.47 1469.77 1607.65C1469.8 1608.93 1470.41 1610.07 1471.52 1610.94C1470.79 1611.92 1470.56 1613.03 1470.88 1614.12C1471.28 1615.48 1472.49 1616.62 1474.01 1617.11C1474.31 1619.56 1476.75 1620.13 1477.83 1620.39C1478.48 1620.54 1479.1 1620.47 1479.64 1620.23L1485.97 1593.16C1485.61 1592.76 1485.09 1592.49 1484.38 1592.33C1480.94 1591.52 1478.52 1593 1477.55 1594.34ZM1476.89 1614.25C1476.59 1614.18 1476.39 1613.87 1476.46 1613.56L1476.46 1613.56C1476.77 1612.27 1476.91 1609.95 1474.48 1608.94C1474.19 1608.82 1474.05 1608.48 1474.17 1608.19C1474.29 1607.9 1474.63 1607.75 1474.92 1607.88C1477.27 1608.86 1478.24 1611.02 1477.59 1613.82C1477.51 1614.13 1477.2 1614.32 1476.89 1614.25ZM1477.8 1600.26C1477.49 1600.19 1477.3 1599.88 1477.37 1599.57C1477.44 1599.26 1477.75 1599.06 1478.06 1599.14C1480.35 1599.67 1481.15 1598.54 1481.26 1598.11C1481.33 1597.8 1481.64 1597.61 1481.95 1597.68C1482.26 1597.75 1482.45 1598.06 1482.38 1598.37C1482.2 1599.15 1481.02 1601.01 1477.8 1600.26ZM1488.87 1611.13C1488.56 1611.06 1488.37 1610.75 1488.44 1610.44C1488.51 1610.13 1488.82 1609.93 1489.13 1610.01C1492.88 1610.88 1494.93 1609.6 1495.74 1608.89C1497.31 1606.55 1497.86 1604.12 1497.26 1601.95C1496.79 1600.26 1495.62 1598.89 1494.11 1598.21C1493.84 1596.58 1492.32 1594.18 1488.88 1593.38C1488.17 1593.21 1487.58 1593.22 1487.09 1593.42L1480.77 1620.49C1481.15 1620.94 1481.67 1621.28 1482.32 1621.43L1482.34 1621.44C1483.54 1621.72 1485.5 1621.57 1486.79 1620.28C1485.26 1619.01 1483.98 1616.88 1484.59 1614.27C1484.66 1613.96 1484.97 1613.77 1485.28 1613.84C1485.59 1613.91 1485.78 1614.22 1485.71 1614.53C1485.04 1617.4 1487.15 1619.16 1487.97 1619.73C1489.46 1619.89 1490.65 1619.59 1491.38 1618.85C1492.09 1618.14 1492.34 1617.11 1492.13 1615.77C1493.58 1615.48 1494.69 1614.68 1495.29 1613.49C1495.75 1612.56 1495.85 1611.45 1495.59 1610.42C1494.3 1611.2 1492.13 1611.89 1488.87 1611.13ZM1488.85 1601.07C1488.93 1600.76 1489.24 1600.56 1489.55 1600.64C1489.86 1600.71 1490.05 1601.02 1489.98 1601.33C1489.76 1602.24 1490.28 1604.36 1493.25 1605.05C1493.56 1605.12 1493.75 1605.43 1493.68 1605.74C1493.61 1606.05 1493.3 1606.25 1492.99 1606.17C1489.17 1605.28 1488.55 1602.35 1488.85 1601.07Z" fill="#ffffff" fill-rule="nonzero" opacity="1" stroke="none" vectornator:layerName="path"/>
</g>
<g opacity="1" vectornator:layerName="People">
<path d="M1740.85 1614.06L1741.47 1611.59C1741.47 1611.59 1744.32 1610 1744.86 1608.57C1744.86 1608.57 1746.27 1608.04 1746.64 1606.56C1746.9 1605.53 1746.48 1605.26 1746.48 1605.26C1746.48 1605.26 1747.7 1603.9 1748.08 1602.41C1748.84 1599.41 1747.92 1596.72 1745.39 1596.09C1745.39 1596.09 1744.69 1594.35 1742.83 1593.88C1738.88 1592.88 1735.08 1594.45 1734.01 1598.7C1733.56 1600.5 1734.21 1602.16 1734.21 1602.16C1734.21 1602.16 1733.69 1602.27 1733.45 1603.23C1732.98 1605.09 1734.07 1605.84 1734.07 1605.84C1733.86 1607.36 1735.61 1610.11 1735.61 1610.11L1734.99 1612.58C1732.82 1615.97 1725.87 1611.62 1723.7 1620.23L1747.15 1626.15C1749.33 1617.51 1741.15 1618.07 1740.85 1614.06Z" fill="#ffffff" fill-rule="nonzero" opacity="1" stroke="none" vectornator:layerName="path"/>
<path d="M1751.01 1603.15C1750.74 1604.22 1750.23 1605.2 1749.75 1605.93C1749.75 1606.35 1749.7 1606.81 1749.57 1607.3C1748.66 1610.92 1744.08 1613.61 1744.08 1613.61C1744.79 1614.15 1747.01 1616.09 1747.89 1616.99L1759.63 1619.95C1761.57 1612.26 1754.77 1612.88 1754.52 1609.31L1755.08 1607.11C1755.63 1606.99 1757.21 1605.6 1757.69 1604.32C1758.08 1604.38 1759.07 1603.64 1759.28 1602.81C1759.49 1601.97 1759.32 1601.56 1759.12 1601.37C1759.12 1601.37 1759.89 1600.39 1760.23 1599.06C1760.9 1596.39 1760.81 1593.75 1758.6 1593.19C1758.6 1593.19 1758.33 1591.56 1756.03 1590.98C1752.78 1590.16 1750.21 1591.89 1748.98 1594.71C1751.03 1596.57 1751.88 1599.7 1751.01 1603.15ZM1732.38 1610.56C1731.8 1609.51 1731.02 1607.75 1730.88 1606.53C1730.08 1605.84 1729.45 1605.11 1729.33 1604.11L1729.7 1602.64C1729.98 1602.71 1730.82 1602.85 1731.13 1602.86C1730.73 1601.69 1730.75 1599.25 1731.08 1597.96C1731.91 1594.69 1733.99 1592.36 1736.76 1591.26C1736.74 1588.38 1735.71 1585.85 1732 1584.91C1730.66 1584.57 1729.29 1585.78 1729.29 1585.78C1721.61 1583.84 1722.75 1597.16 1720.04 1598.39C1720.04 1598.39 1720.99 1600.45 1725.3 1601.54L1724.93 1603C1722.96 1605.81 1717.11 1603.11 1715.66 1608.84L1727.42 1611.81C1728.61 1611.45 1732.38 1610.56 1732.38 1610.56Z" fill="#ffffff" fill-rule="nonzero" opacity="1" stroke="none" vectornator:layerName="path"/>
</g>
<g opacity="1" vectornator:layerName="Group 2">
<path d="M1714.1 1547.98C1718.72 1547.03 1721.42 1543.46 1722.85 1540.65C1723.34 1539.67 1723.11 1538.55 1722.27 1537.85C1719.85 1535.82 1715.97 1533.59 1711.35 1534.54C1706.73 1535.48 1704.04 1539.06 1702.61 1541.87C1702.12 1542.85 1702.35 1543.97 1703.18 1544.67C1705.6 1546.69 1709.48 1548.92 1714.1 1547.98ZM1724.88 1541.68C1725.86 1539.76 1725.4 1537.48 1723.74 1536.1C1721.11 1533.89 1716.52 1531.15 1710.9 1532.3C1705.27 1533.45 1702.13 1537.78 1700.57 1540.84C1699.6 1542.76 1700.06 1545.04 1701.72 1546.42C1704.35 1548.62 1708.93 1551.37 1714.56 1550.22C1720.19 1549.07 1723.33 1544.74 1724.88 1541.68Z" fill="#ffffff" fill-rule="evenodd" opacity="1" stroke="none" vectornator:layerName="path"/>
<g opacity="1" vectornator:layerName="Group 1">
<path d="M1714.97 1540.8C1715.22 1542.04 1714.42 1543.25 1713.19 1543.5C1711.95 1543.75 1710.74 1542.95 1710.49 1541.72C1710.48 1541.69 1710.48 1541.65 1710.47 1541.62C1710.66 1541.65 1710.86 1541.64 1711.05 1541.6C1711.98 1541.41 1712.57 1540.51 1712.38 1539.58C1712.35 1539.39 1712.28 1539.21 1712.18 1539.04C1712.21 1539.03 1712.24 1539.03 1712.27 1539.02C1713.51 1538.77 1714.72 1539.56 1714.97 1540.8ZM1717.21 1540.34C1717.71 1542.82 1716.12 1545.23 1713.65 1545.74C1711.17 1546.25 1708.75 1544.65 1708.25 1542.18C1707.74 1539.7 1709.34 1537.29 1711.81 1536.78C1714.29 1536.27 1716.7 1537.87 1717.21 1540.34Z" fill="#ffffff" fill-rule="evenodd" opacity="1" stroke="none" vectornator:layerName="path"/>
</g>
</g>
</g>
</g>
</svg>
