<?xml version="1.0" encoding="UTF-8" standalone="no"?><!DOCTYPE svg PUBLIC "-//W3C//DTD SVG 1.1//EN" "http://www.w3.org/Graphics/SVG/1.1/DTD/svg11.dtd"><svg width="100%" height="100%" viewBox="0 0 1042 834" version="1.1" xmlns="http://www.w3.org/2000/svg" xmlns:xlink="http://www.w3.org/1999/xlink" xml:space="preserve" xmlns:serif="http://www.serif.com/" style="fill-rule:evenodd;clip-rule:evenodd;stroke-linejoin:round;stroke-miterlimit:2;"><path d="M173.3,380.102l0,26.625l42.937,0l0,24.75l-42.937,0l0,28.875l48.562,0l0,25.688l-80.625,0l0,-131.625l80.625,0l0,25.687l-48.562,0Z" style="fill:#463174;fill-rule:nonzero;"/><path d="M360.425,486.04l-32.063,0l-53.625,-81.188l0,81.188l-32.062,0l0,-131.625l32.062,0l53.625,81.562l0,-81.562l32.063,0l0,131.625Z" style="fill:#463174;fill-rule:nonzero;"/><path d="M471.05,396.04c-2.375,-4.375 -5.781,-7.719 -10.219,-10.032c-4.437,-2.312 -9.656,-3.468 -15.656,-3.468c-10.375,0 -18.688,3.406 -24.938,10.218c-6.25,6.813 -9.375,15.907 -9.375,27.282c0,12.125 3.282,21.593 9.844,28.406c6.563,6.812 15.594,10.219 27.094,10.219c7.875,0 14.531,-2 19.969,-6c5.437,-4 9.406,-9.75 11.906,-17.25l-40.688,0l0,-23.625l69.75,0l0,29.812c-2.375,8 -6.406,15.438 -12.093,22.313c-5.688,6.875 -12.907,12.437 -21.657,16.687c-8.75,4.25 -18.625,6.375 -29.625,6.375c-13,0 -24.593,-2.844 -34.781,-8.531c-10.187,-5.688 -18.125,-13.594 -23.812,-23.719c-5.688,-10.125 -8.532,-21.687 -8.532,-34.687c0,-13 2.844,-24.594 8.532,-34.782c5.687,-10.187 13.593,-18.125 23.718,-23.812c10.125,-5.688 21.688,-8.531 34.688,-8.531c15.75,0 29.031,3.812 39.844,11.437c10.812,7.625 17.968,18.188 21.468,31.688l-35.437,0Z" style="fill:#463174;fill-rule:nonzero;"/><path d="M558.612,461.29l42,0l0,24.75l-74.062,0l0,-131.625l32.062,0l0,106.875Z" style="fill:#463174;fill-rule:nonzero;"/><rect x="615.987" y="354.415" width="32.063" height="131.625" style="fill:#463174;fill-rule:nonzero;"/><path d="M718.925,487.352c-9.625,0 -18.25,-1.562 -25.875,-4.687c-7.625,-3.125 -13.719,-7.75 -18.281,-13.875c-4.563,-6.125 -6.969,-13.5 -7.219,-22.125l34.125,0c0.5,4.875 2.187,8.593 5.062,11.156c2.875,2.562 6.625,3.844 11.25,3.844c4.75,0 8.5,-1.094 11.25,-3.282c2.75,-2.187 4.125,-5.218 4.125,-9.093c0,-3.25 -1.093,-5.938 -3.281,-8.063c-2.187,-2.125 -4.875,-3.875 -8.062,-5.25c-3.188,-1.375 -7.719,-2.937 -13.594,-4.687c-8.5,-2.625 -15.438,-5.25 -20.813,-7.875c-5.375,-2.625 -10,-6.5 -13.875,-11.625c-3.875,-5.125 -5.812,-11.813 -5.812,-20.063c0,-12.25 4.437,-21.844 13.312,-28.781c8.875,-6.938 20.438,-10.406 34.688,-10.406c14.5,0 26.187,3.468 35.062,10.406c8.875,6.937 13.625,16.594 14.25,28.969l-34.687,0c-0.25,-4.25 -1.813,-7.594 -4.688,-10.032c-2.875,-2.437 -6.562,-3.656 -11.062,-3.656c-3.875,0 -7,1.031 -9.375,3.094c-2.375,2.062 -3.563,5.031 -3.563,8.906c0,4.25 2,7.563 6,9.938c4,2.375 10.25,4.937 18.75,7.687c8.5,2.875 15.407,5.625 20.719,8.25c5.313,2.625 9.906,6.438 13.781,11.438c3.875,5 5.813,11.437 5.813,19.312c0,7.5 -1.906,14.313 -5.719,20.438c-3.812,6.125 -9.344,11 -16.594,14.625c-7.25,3.625 -15.812,5.437 -25.687,5.437Z" style="fill:#463174;fill-rule:nonzero;"/><path d="M900.612,354.415l0,131.625l-32.062,0l0,-54.188l-49.875,0l0,54.188l-32.063,0l0,-131.625l32.063,0l0,51.562l49.875,0l0,-51.562l32.062,0Z" style="fill:#463174;fill-rule:nonzero;"/></svg>