<?xml version="1.0" encoding="UTF-8" standalone="no"?><!DOCTYPE svg PUBLIC "-//W3C//DTD SVG 1.1//EN" "http://www.w3.org/Graphics/SVG/1.1/DTD/svg11.dtd"><svg width="100%" height="100%" viewBox="0 0 1042 834" version="1.1" xmlns="http://www.w3.org/2000/svg" xmlns:xlink="http://www.w3.org/1999/xlink" xml:space="preserve" xmlns:serif="http://www.serif.com/" style="fill-rule:evenodd;clip-rule:evenodd;stroke-linejoin:round;stroke-miterlimit:2;"><path d="M211.914,384.165l0,23.666l38.167,0l0,22l-38.167,0l0,25.667l43.167,0l0,22.833l-71.667,0l0,-117l71.667,0l0,22.834l-43.167,0Z" style="fill:#463174;fill-rule:nonzero;"/><path d="M378.248,478.331l-28.5,0l-47.667,-72.166l0,72.166l-28.5,0l0,-117l28.5,0l47.667,72.5l0,-72.5l28.5,0l0,117Z" style="fill:#463174;fill-rule:nonzero;"/><path d="M476.581,398.331c-2.111,-3.889 -5.139,-6.861 -9.083,-8.916c-3.945,-2.056 -8.584,-3.084 -13.917,-3.084c-9.222,0 -16.611,3.028 -22.167,9.084c-5.555,6.055 -8.333,14.138 -8.333,24.25c0,10.777 2.917,19.194 8.75,25.25c5.833,6.055 13.861,9.083 24.083,9.083c7,0 12.917,-1.778 17.75,-5.333c4.834,-3.556 8.362,-8.667 10.584,-15.334l-36.167,0l0,-21l62,0l0,26.5c-2.111,7.111 -5.694,13.722 -10.75,19.834c-5.055,6.111 -11.472,11.055 -19.25,14.833c-7.778,3.778 -16.555,5.667 -26.333,5.667c-11.556,0 -21.861,-2.528 -30.917,-7.584c-9.055,-5.055 -16.111,-12.083 -21.167,-21.083c-5.055,-9 -7.583,-19.278 -7.583,-30.833c0,-11.556 2.528,-21.862 7.583,-30.917c5.056,-9.056 12.084,-16.111 21.084,-21.167c9,-5.055 19.278,-7.583 30.833,-7.583c14,0 25.806,3.389 35.417,10.167c9.611,6.777 15.972,16.166 19.083,28.166l-31.5,0Z" style="fill:#463174;fill-rule:nonzero;"/><path d="M554.414,456.331l37.334,0l0,22l-65.834,0l0,-117l28.5,0l0,95Z" style="fill:#463174;fill-rule:nonzero;"/><rect x="605.414" y="361.331" width="28.5" height="117" style="fill:#463174;fill-rule:nonzero;"/><path d="M696.914,479.498c-8.555,0 -16.222,-1.389 -23,-4.167c-6.777,-2.778 -12.194,-6.889 -16.25,-12.333c-4.055,-5.445 -6.194,-12 -6.416,-19.667l30.333,0c0.445,4.334 1.945,7.639 4.5,9.917c2.556,2.278 5.889,3.417 10,3.417c4.222,0 7.556,-0.973 10,-2.917c2.445,-1.945 3.667,-4.639 3.667,-8.083c0,-2.889 -0.972,-5.278 -2.917,-7.167c-1.944,-1.889 -4.333,-3.445 -7.167,-4.667c-2.833,-1.222 -6.861,-2.611 -12.083,-4.166c-7.555,-2.334 -13.722,-4.667 -18.5,-7c-4.778,-2.334 -8.889,-5.778 -12.333,-10.334c-3.445,-4.555 -5.167,-10.5 -5.167,-17.833c0,-10.889 3.945,-19.417 11.833,-25.583c7.889,-6.167 18.167,-9.25 30.834,-9.25c12.889,0 23.278,3.083 31.166,9.25c7.889,6.166 12.112,14.75 12.667,25.75l-30.833,0c-0.222,-3.778 -1.611,-6.75 -4.167,-8.917c-2.555,-2.167 -5.833,-3.25 -9.833,-3.25c-3.445,0 -6.222,0.917 -8.334,2.75c-2.111,1.833 -3.166,4.472 -3.166,7.917c0,3.777 1.778,6.722 5.333,8.833c3.556,2.111 9.111,4.389 16.667,6.833c7.555,2.556 13.694,5 18.416,7.334c4.723,2.333 8.806,5.722 12.25,10.166c3.445,4.445 5.167,10.167 5.167,17.167c0,6.667 -1.694,12.722 -5.083,18.167c-3.389,5.444 -8.306,9.777 -14.75,13c-6.445,3.222 -14.056,4.833 -22.834,4.833Z" style="fill:#463174;fill-rule:nonzero;"/><path d="M858.414,361.331l0,117l-28.5,0l0,-48.166l-44.333,0l0,48.166l-28.5,0l0,-117l28.5,0l0,45.834l44.333,0l0,-45.834l28.5,0Z" style="fill:#463174;fill-rule:nonzero;"/></svg>