<?xml version="1.0" encoding="UTF-8" standalone="no"?><!DOCTYPE svg PUBLIC "-//W3C//DTD SVG 1.1//EN" "http://www.w3.org/Graphics/SVG/1.1/DTD/svg11.dtd"><svg width="100%" height="100%" viewBox="0 0 1042 834" version="1.1" xmlns="http://www.w3.org/2000/svg" xmlns:xlink="http://www.w3.org/1999/xlink" xml:space="preserve" xmlns:serif="http://www.serif.com/" style="fill-rule:evenodd;clip-rule:evenodd;stroke-linejoin:round;stroke-miterlimit:2;"><path d="M281.421,391.477l0,18.342l29.579,0l0,17.05l-29.579,0l0,19.891l33.454,0l0,17.696l-55.542,0l0,-90.675l55.542,0l0,17.696l-33.454,0Z" style="fill:#463174;fill-rule:nonzero;"/><path d="M410.329,464.456l-22.087,0l-36.942,-55.929l0,55.929l-22.088,0l0,-90.675l22.088,0l36.942,56.188l0,-56.188l22.087,0l0,90.675Z" style="fill:#463174;fill-rule:nonzero;"/><path d="M486.537,402.456c-1.636,-3.014 -3.982,-5.317 -7.039,-6.91c-3.057,-1.593 -6.652,-2.39 -10.786,-2.39c-7.147,0 -12.873,2.347 -17.179,7.04c-4.305,4.693 -6.458,10.957 -6.458,18.794c0,8.352 2.26,14.875 6.781,19.568c4.521,4.693 10.743,7.04 18.665,7.04c5.425,0 10.01,-1.378 13.756,-4.133c3.746,-2.756 6.48,-6.717 8.202,-11.884l-28.029,0l0,-16.275l48.05,0l0,20.538c-1.636,5.511 -4.413,10.634 -8.331,15.371c-3.918,4.736 -8.891,8.568 -14.919,11.495c-6.028,2.928 -12.831,4.392 -20.408,4.392c-8.956,0 -16.943,-1.959 -23.961,-5.877c-7.018,-3.918 -12.486,-9.365 -16.404,-16.34c-3.918,-6.975 -5.877,-14.94 -5.877,-23.895c0,-8.956 1.959,-16.943 5.877,-23.961c3.918,-7.018 9.365,-12.486 16.34,-16.404c6.975,-3.918 14.94,-5.877 23.895,-5.877c10.85,0 20,2.626 27.448,7.879c7.449,5.253 12.379,12.529 14.79,21.829l-24.413,0Z" style="fill:#463174;fill-rule:nonzero;"/><path d="M546.858,447.406l28.934,0l0,17.05l-51.021,0l0,-90.675l22.087,0l0,73.625Z" style="fill:#463174;fill-rule:nonzero;"/><rect x="586.383" y="373.781" width="22.087" height="90.675" style="fill:#463174;fill-rule:nonzero;"/><path d="M657.296,465.36c-6.631,0 -12.572,-1.076 -17.825,-3.229c-5.253,-2.153 -9.451,-5.339 -12.594,-9.558c-3.143,-4.22 -4.801,-9.3 -4.973,-15.242l23.508,0c0.345,3.359 1.507,5.92 3.488,7.686c1.98,1.765 4.564,2.648 7.75,2.648c3.272,0 5.855,-0.754 7.75,-2.261c1.894,-1.507 2.842,-3.595 2.842,-6.264c0,-2.239 -0.754,-4.091 -2.261,-5.555c-1.507,-1.464 -3.358,-2.669 -5.554,-3.616c-2.196,-0.948 -5.317,-2.024 -9.365,-3.229c-5.855,-1.809 -10.634,-3.617 -14.337,-5.425c-3.703,-1.809 -6.889,-4.478 -9.558,-8.009c-2.67,-3.53 -4.005,-8.137 -4.005,-13.821c0,-8.439 3.057,-15.048 9.171,-19.827c6.114,-4.779 14.079,-7.168 23.896,-7.168c9.989,0 18.04,2.389 24.154,7.168c6.114,4.779 9.386,11.432 9.817,19.957l-23.896,0c-0.172,-2.928 -1.249,-5.232 -3.229,-6.911c-1.981,-1.679 -4.521,-2.519 -7.621,-2.519c-2.669,0 -4.822,0.711 -6.458,2.132c-1.636,1.42 -2.454,3.466 -2.454,6.135c0,2.928 1.377,5.21 4.133,6.846c2.755,1.636 7.061,3.401 12.917,5.296c5.855,1.98 10.613,3.875 14.273,5.683c3.659,1.808 6.824,4.435 9.493,7.879c2.67,3.445 4.004,7.879 4.004,13.304c0,5.167 -1.313,9.86 -3.939,14.08c-2.627,4.219 -6.437,7.577 -11.431,10.075c-4.995,2.497 -10.893,3.745 -17.696,3.745Z" style="fill:#463174;fill-rule:nonzero;"/><path d="M782.458,373.781l0,90.675l-22.087,0l0,-37.329l-34.359,0l0,37.329l-22.087,0l0,-90.675l22.087,0l0,35.521l34.359,0l0,-35.521l22.087,0Z" style="fill:#463174;fill-rule:nonzero;"/></svg>