<?xml version="1.0" encoding="UTF-8" standalone="no"?><!DOCTYPE svg PUBLIC "-//W3C//DTD SVG 1.1//EN" "http://www.w3.org/Graphics/SVG/1.1/DTD/svg11.dtd"><svg width="100%" height="100%" viewBox="0 0 1042 834" version="1.1" xmlns="http://www.w3.org/2000/svg" xmlns:xlink="http://www.w3.org/1999/xlink" xml:space="preserve" xmlns:serif="http://www.serif.com/" style="fill-rule:evenodd;clip-rule:evenodd;stroke-linejoin:round;stroke-miterlimit:2;"><path d="M152.831,373.665l0,35l47,0l0,22.2l-47,0l0,37l53,0l0,22.8l-81,0l0,-139.8l81,0l0,22.8l-53,0Z" style="fill:#463174;fill-rule:nonzero;"/><path d="M350.631,490.665l-28,0l-63.4,-95.8l0,95.8l-28,0l0,-139.8l28,0l63.4,96l0,-96l28,0l0,139.8Z" style="fill:#463174;fill-rule:nonzero;"/><path d="M475.431,393.065c-3.2,-5.867 -7.6,-10.334 -13.2,-13.4c-5.6,-3.067 -12.133,-4.6 -19.6,-4.6c-8.266,0 -15.6,1.866 -22,5.6c-6.4,3.733 -11.4,9.066 -15,16c-3.6,6.933 -5.4,14.933 -5.4,24c0,9.333 1.834,17.466 5.5,24.4c3.667,6.933 8.767,12.266 15.3,16c6.534,3.733 14.134,5.6 22.8,5.6c10.667,0 19.4,-2.834 26.2,-8.5c6.8,-5.667 11.267,-13.567 13.4,-23.7l-48,0l0,-21.4l75.6,0l0,24.4c-1.866,9.733 -5.866,18.733 -12,27c-6.133,8.266 -14.033,14.9 -23.7,19.9c-9.666,5 -20.5,7.5 -32.5,7.5c-13.466,0 -25.633,-3.034 -36.5,-9.1c-10.866,-6.067 -19.4,-14.5 -25.6,-25.3c-6.2,-10.8 -9.3,-23.067 -9.3,-36.8c0,-13.734 3.1,-26.034 9.3,-36.9c6.2,-10.867 14.734,-19.334 25.6,-25.4c10.867,-6.067 22.967,-9.1 36.3,-9.1c15.734,0 29.4,3.833 41,11.5c11.6,7.666 19.6,18.433 24,32.3l-32.2,0Z" style="fill:#463174;fill-rule:nonzero;"/><path d="M559.831,468.465l46,0l0,22.2l-74,0l0,-139.6l28,0l0,117.4Z" style="fill:#463174;fill-rule:nonzero;"/><rect x="623.631" y="351.065" width="28" height="139.6" style="fill:#463174;fill-rule:nonzero;"/><path d="M727.431,492.065c-9.733,0 -18.5,-1.667 -26.3,-5c-7.8,-3.334 -13.966,-8.134 -18.5,-14.4c-4.533,-6.267 -6.866,-13.667 -7,-22.2l30,0c0.4,5.733 2.434,10.266 6.1,13.6c3.667,3.333 8.7,5 15.1,5c6.534,0 11.667,-1.567 15.4,-4.7c3.734,-3.134 5.6,-7.234 5.6,-12.3c0,-4.134 -1.266,-7.534 -3.8,-10.2c-2.533,-2.667 -5.7,-4.767 -9.5,-6.3c-3.8,-1.534 -9.033,-3.234 -15.7,-5.1c-9.066,-2.667 -16.433,-5.3 -22.1,-7.9c-5.666,-2.6 -10.533,-6.534 -14.6,-11.8c-4.066,-5.267 -6.1,-12.3 -6.1,-21.1c0,-8.267 2.067,-15.467 6.2,-21.6c4.134,-6.134 9.934,-10.834 17.4,-14.1c7.467,-3.267 16,-4.9 25.6,-4.9c14.4,0 26.1,3.5 35.1,10.5c9,7 13.967,16.766 14.9,29.3l-30.8,0c-0.266,-4.8 -2.3,-8.767 -6.1,-11.9c-3.8,-3.134 -8.833,-4.7 -15.1,-4.7c-5.466,0 -9.833,1.4 -13.1,4.2c-3.266,2.8 -4.9,6.866 -4.9,12.2c0,3.733 1.234,6.833 3.7,9.3c2.467,2.466 5.534,4.466 9.2,6c3.667,1.533 8.834,3.3 15.5,5.3c9.067,2.666 16.467,5.333 22.2,8c5.734,2.666 10.667,6.666 14.8,12c4.134,5.333 6.2,12.333 6.2,21c0,7.466 -1.933,14.4 -5.8,20.8c-3.866,6.4 -9.533,11.5 -17,15.3c-7.466,3.8 -16.333,5.7 -26.6,5.7Z" style="fill:#463174;fill-rule:nonzero;"/><path d="M916.831,351.065l0,139.6l-28,0l0,-59.4l-59.8,0l0,59.4l-28,0l0,-139.6l28,0l0,57.4l59.8,0l0,-57.4l28,0Z" style="fill:#463174;fill-rule:nonzero;"/></svg>