<?xml version="1.0" encoding="UTF-8" standalone="no"?><!DOCTYPE svg PUBLIC "-//W3C//DTD SVG 1.1//EN" "http://www.w3.org/Graphics/SVG/1.1/DTD/svg11.dtd"><svg width="100%" height="100%" viewBox="0 0 659 839" version="1.1" xmlns="http://www.w3.org/2000/svg" xmlns:xlink="http://www.w3.org/1999/xlink" xml:space="preserve" xmlns:serif="http://www.serif.com/" style="fill-rule:evenodd;clip-rule:evenodd;stroke-linejoin:round;stroke-miterlimit:2;"><g id="Layer"><g><g><g><g><g><path d="M111.583,126.8c0,-4.729 -35.875,-12.329 22.459,-12.329l220.708,0c12.333,0 22.333,10.012 22.333,22.362l0,59.359c0,12.35 -10,22.366 -22.333,22.366l-220.708,0c-12.334,0 -22.375,-10.016 -22.375,-22.366l0,-65.575l-0.084,-3.817Z" style="fill:#fff;fill-rule:nonzero;"/><path d="M129,165.404c0,-1.129 0.917,-2.041 2.083,-2.041l58.375,0c1.167,0 2.042,0.912 2.042,2.041c0,1.129 -0.875,2.046 -2.042,2.046l-58.375,0c-1.166,0 -2.083,-0.917 -2.083,-2.046Z" style="fill:#ddd;fill-rule:nonzero;"/><path d="M129,180.229c0,-1.129 0.917,-2.042 2.083,-2.042l100.042,0c1.167,0 2.042,0.913 2.042,2.042c0,1.129 -0.875,2.046 -2.042,2.046l-100.042,0c-1.166,0 -2.083,-0.917 -2.083,-2.046Z" style="fill:#ddd;fill-rule:nonzero;"/><path d="M253.667,165.404c0,-1.129 0.916,-2.041 2.041,-2.041l100.084,0c1.125,0 2.041,0.912 2.041,2.041c0,1.129 -0.916,2.046 -2.041,2.046l-100.084,0c-1.125,0 -2.041,-0.917 -2.041,-2.046Z" style="fill:#ddd;fill-rule:nonzero;"/><path d="M253.667,194.729c0,-1.129 0.916,-2.046 2.041,-2.046l100.084,0c1.125,0 2.041,0.917 2.041,2.046c0,1.129 -0.916,2.046 -2.041,2.046l-100.084,0c-1.125,0 -2.041,-0.917 -2.041,-2.046Z" style="fill:#ddd;fill-rule:nonzero;"/><path d="M337,180.229c0,-1.129 0.917,-2.042 2.042,-2.042l16.75,0c1.125,0 2.041,0.913 2.041,2.042c0,1.129 -0.916,2.046 -2.041,2.046l-16.75,0c-1.125,0 -2.042,-0.917 -2.042,-2.046Z" style="fill:#ddd;fill-rule:nonzero;"/><path d="M296.958,180.229c0,-1.129 0.917,-2.042 2.042,-2.042l16.75,0c1.125,0 2.042,0.913 2.042,2.042c0,1.129 -0.917,2.046 -2.042,2.046l-16.75,0c-1.125,0 -2.042,-0.917 -2.042,-2.046Z" style="fill:#ddd;fill-rule:nonzero;"/><path d="M194.917,165.367c0,-1.15 0.916,-2.084 2.083,-2.084c1.125,0 2.083,0.934 2.083,2.084c0,1.15 -0.958,2.083 -2.083,2.083c-1.167,0 -2.083,-0.933 -2.083,-2.083Z" style="fill:#ddd;fill-rule:nonzero;"/><path d="M246.125,165.446c0,-1.154 0.958,-2.083 2.083,-2.083c1.167,0 2.084,0.929 2.084,2.083c0,1.15 -0.917,2.083 -2.084,2.083c-1.125,0 -2.083,-0.933 -2.083,-2.083Z" style="fill:#ddd;fill-rule:nonzero;"/><path d="M289.667,180.271c0,-1.154 0.916,-2.084 2.083,-2.084c1.125,0 2.083,0.93 2.083,2.084c0,1.15 -0.958,2.083 -2.083,2.083c-1.167,0 -2.083,-0.933 -2.083,-2.083Z" style="fill:#ddd;fill-rule:nonzero;"/><path d="M321.083,180.271c0,-1.154 0.917,-2.084 2.084,-2.084c1.125,0 2.083,0.93 2.083,2.084c0,1.15 -0.958,2.083 -2.083,2.083c-1.167,0 -2.084,-0.933 -2.084,-2.083Z" style="fill:#ddd;fill-rule:nonzero;"/><path d="M329.125,180.271c0,-1.154 0.958,-2.084 2.083,-2.084c1.167,0 2.084,0.93 2.084,2.084c0,1.15 -0.917,2.083 -2.084,2.083c-1.125,0 -2.083,-0.933 -2.083,-2.083Z" style="fill:#ddd;fill-rule:nonzero;"/><path d="M236.792,180.271c0,-1.154 0.916,-2.084 2.083,-2.084c1.125,0 2.083,0.93 2.083,2.084c0,1.15 -0.958,2.083 -2.083,2.083c-1.167,0 -2.083,-0.933 -2.083,-2.083Z" style="fill:#ddd;fill-rule:nonzero;"/><path d="M218.167,194.767c0,-1.15 0.958,-2.084 2.083,-2.084c1.167,0 2.083,0.934 2.083,2.084c0,1.15 -0.916,2.083 -2.083,2.083c-1.125,0 -2.083,-0.933 -2.083,-2.083Z" style="fill:#ddd;fill-rule:nonzero;"/><path d="M172,194.729c0,-1.15 0.958,-2.083 2.083,-2.083c1.167,0 2.084,0.933 2.084,2.083c0,1.15 -0.917,2.083 -2.084,2.083c-1.125,0 -2.083,-0.933 -2.083,-2.083Z" style="fill:#ddd;fill-rule:nonzero;"/><path d="M247.583,194.767c0,-1.15 0.917,-2.084 2.084,-2.084c1.166,0 2.083,0.934 2.083,2.084c0,1.15 -0.917,2.083 -2.083,2.083c-1.167,0 -2.084,-0.933 -2.084,-2.083Z" style="fill:#ddd;fill-rule:nonzero;"/><path d="M225.292,194.729c0,-1.129 0.916,-2.046 2.041,-2.046l16.75,0c1.125,0 2.042,0.917 2.042,2.046c0,1.129 -0.917,2.046 -2.042,2.046l-16.75,0c-1.125,0 -2.041,-0.917 -2.041,-2.046Z" style="fill:#ddd;fill-rule:nonzero;"/><path d="M129,194.729c0,-1.129 0.917,-2.046 2.083,-2.046l37.542,0c1.167,0 2.042,0.917 2.042,2.046c0,1.129 -0.875,2.046 -2.042,2.046l-37.542,0c-1.166,0 -2.083,-0.917 -2.083,-2.046Z" style="fill:#ddd;fill-rule:nonzero;"/><path d="M245.042,180.229c0,-1.129 0.916,-2.042 2.041,-2.042l37.584,0c1.125,0 2.041,0.913 2.041,2.042c0,1.129 -0.916,2.046 -2.041,2.046l-37.584,0c-1.125,0 -2.041,-0.917 -2.041,-2.046Z" style="fill:#ddd;fill-rule:nonzero;"/><path d="M201.5,165.404c0,-1.129 0.917,-2.041 2.042,-2.041l37.583,0c1.125,0 2.042,0.912 2.042,2.041c0,1.129 -0.917,2.046 -2.042,2.046l-37.583,0c-1.125,0 -2.042,-0.917 -2.042,-2.046Z" style="fill:#ddd;fill-rule:nonzero;"/><path d="M177.458,194.729c0,-1.129 0.917,-2.046 2.042,-2.046l34.208,0c1.125,0 2.042,0.917 2.042,2.046c0,1.129 -0.917,2.046 -2.042,2.046l-34.208,0c-1.125,0 -2.042,-0.917 -2.042,-2.046Z" style="fill:#ddd;fill-rule:nonzero;"/><path d="M132.042,140.529c0,-5.754 4.666,-10.417 10.416,-10.417c5.75,0 10.417,4.663 10.417,10.417c0,5.754 -4.667,10.417 -10.417,10.417c-5.75,0 -10.416,-4.663 -10.416,-10.417Z" style="fill:#593f92;fill-rule:nonzero;"/><g><path d="M169.342,134.972l0,1.51l-2.485,0l0,7.818l-1.871,0l0,-7.818l-2.486,0l0,-1.51l6.842,0Z" style="fill:#593f92;fill-rule:nonzero;"/><path d="M174.875,136.789c0.561,0 1.06,0.123 1.497,0.368c0.436,0.245 0.777,0.606 1.022,1.082c0.245,0.477 0.368,1.049 0.368,1.718l0,4.343l-1.871,0l0,-4.089c0,-0.588 -0.147,-1.041 -0.441,-1.357c-0.294,-0.316 -0.695,-0.474 -1.203,-0.474c-0.517,0 -0.924,0.158 -1.223,0.474c-0.298,0.316 -0.448,0.769 -0.448,1.357l0,4.089l-1.871,0l0,-9.889l1.871,0l0,3.407c0.241,-0.32 0.562,-0.572 0.963,-0.755c0.401,-0.182 0.846,-0.274 1.336,-0.274Z" style="fill:#593f92;fill-rule:nonzero;"/><path d="M186.422,140.438c0,0.267 -0.018,0.508 -0.054,0.721l-5.412,0c0.044,0.535 0.231,0.954 0.561,1.257c0.33,0.303 0.735,0.454 1.216,0.454c0.695,0 1.189,-0.298 1.484,-0.895l2.017,0c-0.213,0.712 -0.623,1.298 -1.229,1.757c-0.606,0.459 -1.35,0.688 -2.232,0.688c-0.713,0 -1.352,-0.158 -1.918,-0.474c-0.565,-0.316 -1.006,-0.764 -1.323,-1.343c-0.316,-0.579 -0.474,-1.248 -0.474,-2.005c0,-0.766 0.156,-1.439 0.468,-2.018c0.312,-0.579 0.748,-1.024 1.309,-1.336c0.562,-0.312 1.208,-0.468 1.938,-0.468c0.704,0 1.334,0.152 1.891,0.454c0.557,0.303 0.989,0.733 1.297,1.29c0.307,0.557 0.461,1.196 0.461,1.918Zm-1.938,-0.535c-0.009,-0.481 -0.183,-0.866 -0.521,-1.156c-0.339,-0.289 -0.753,-0.434 -1.243,-0.434c-0.464,0 -0.853,0.14 -1.17,0.421c-0.316,0.281 -0.51,0.67 -0.581,1.169l3.515,0Z" style="fill:#593f92;fill-rule:nonzero;"/><path d="M189.656,138.046c0.24,-0.392 0.554,-0.7 0.942,-0.922c0.387,-0.223 0.831,-0.335 1.33,-0.335l0,1.965l-0.495,0c-0.588,0 -1.031,0.138 -1.33,0.414c-0.298,0.276 -0.447,0.758 -0.447,1.444l0,3.688l-1.871,0l0,-7.404l1.871,0l0,1.15Z" style="fill:#593f92;fill-rule:nonzero;"/><path d="M192.703,140.571c0,-0.748 0.149,-1.412 0.447,-1.991c0.299,-0.579 0.704,-1.024 1.216,-1.336c0.513,-0.312 1.085,-0.468 1.718,-0.468c0.552,0 1.035,0.111 1.45,0.334c0.414,0.223 0.746,0.504 0.995,0.842l0,-1.056l1.885,0l0,7.404l-1.885,0l0,-1.082c-0.24,0.347 -0.572,0.634 -0.995,0.861c-0.423,0.228 -0.911,0.341 -1.464,0.341c-0.623,0 -1.191,-0.16 -1.704,-0.481c-0.512,-0.321 -0.917,-0.773 -1.216,-1.356c-0.298,-0.584 -0.447,-1.254 -0.447,-2.012Zm5.826,0.027c0,-0.454 -0.089,-0.844 -0.267,-1.169c-0.178,-0.325 -0.419,-0.575 -0.722,-0.749c-0.303,-0.173 -0.628,-0.26 -0.975,-0.26c-0.348,0 -0.668,0.084 -0.962,0.254c-0.294,0.169 -0.533,0.416 -0.715,0.741c-0.183,0.326 -0.274,0.711 -0.274,1.156c0,0.446 0.091,0.836 0.274,1.17c0.182,0.334 0.423,0.59 0.721,0.768c0.299,0.178 0.617,0.268 0.956,0.268c0.347,0 0.672,-0.087 0.975,-0.261c0.303,-0.174 0.544,-0.423 0.722,-0.748c0.178,-0.326 0.267,-0.715 0.267,-1.17Z" style="fill:#593f92;fill-rule:nonzero;"/><path d="M204.115,137.965c0.241,-0.338 0.573,-0.621 0.996,-0.848c0.423,-0.227 0.907,-0.341 1.45,-0.341c0.633,0 1.205,0.156 1.717,0.468c0.513,0.312 0.918,0.755 1.217,1.33c0.298,0.574 0.447,1.24 0.447,1.997c0,0.758 -0.149,1.428 -0.447,2.012c-0.299,0.583 -0.704,1.035 -1.217,1.356c-0.512,0.321 -1.084,0.481 -1.717,0.481c-0.543,0 -1.022,-0.111 -1.437,-0.334c-0.414,-0.223 -0.75,-0.503 -1.009,-0.842l0,4.584l-1.87,0l0,-10.932l1.87,0l0,1.069Zm3.916,2.606c0,-0.445 -0.091,-0.83 -0.274,-1.156c-0.182,-0.325 -0.423,-0.572 -0.721,-0.741c-0.299,-0.17 -0.622,-0.254 -0.969,-0.254c-0.339,0 -0.657,0.087 -0.956,0.26c-0.298,0.174 -0.539,0.426 -0.722,0.756c-0.182,0.329 -0.274,0.717 -0.274,1.162c0,0.446 0.092,0.833 0.274,1.163c0.183,0.329 0.424,0.581 0.722,0.755c0.299,0.174 0.617,0.261 0.956,0.261c0.347,0 0.67,-0.09 0.969,-0.268c0.298,-0.178 0.539,-0.432 0.721,-0.762c0.183,-0.329 0.274,-0.721 0.274,-1.176Z" style="fill:#593f92;fill-rule:nonzero;"/><path d="M212.254,136.014c-0.329,0 -0.603,-0.104 -0.822,-0.314c-0.218,-0.209 -0.327,-0.47 -0.327,-0.782c0,-0.311 0.109,-0.572 0.327,-0.781c0.219,-0.21 0.493,-0.314 0.822,-0.314c0.33,0 0.604,0.104 0.822,0.314c0.218,0.209 0.327,0.47 0.327,0.781c0,0.312 -0.109,0.573 -0.327,0.782c-0.218,0.21 -0.492,0.314 -0.822,0.314Zm0.922,0.882l0,7.404l-1.871,0l0,-7.404l1.871,0Z" style="fill:#593f92;fill-rule:nonzero;"/><path d="M217.854,144.42c-0.606,0 -1.15,-0.109 -1.631,-0.327c-0.481,-0.218 -0.862,-0.515 -1.142,-0.889c-0.281,-0.374 -0.435,-0.788 -0.461,-1.243l1.884,0c0.036,0.285 0.176,0.521 0.421,0.709c0.245,0.187 0.55,0.28 0.915,0.28c0.357,0 0.635,-0.071 0.836,-0.214c0.2,-0.142 0.3,-0.325 0.3,-0.548c0,-0.24 -0.122,-0.42 -0.367,-0.541c-0.245,-0.12 -0.635,-0.251 -1.17,-0.394c-0.552,-0.134 -1.004,-0.272 -1.356,-0.414c-0.352,-0.143 -0.655,-0.361 -0.909,-0.655c-0.254,-0.294 -0.381,-0.691 -0.381,-1.19c0,-0.409 0.118,-0.784 0.354,-1.122c0.237,-0.339 0.575,-0.606 1.016,-0.802c0.441,-0.196 0.96,-0.294 1.557,-0.294c0.882,0 1.586,0.221 2.112,0.662c0.525,0.441 0.815,1.035 0.868,1.784l-1.791,0c-0.026,-0.294 -0.149,-0.528 -0.367,-0.702c-0.218,-0.174 -0.51,-0.261 -0.875,-0.261c-0.339,0 -0.6,0.063 -0.782,0.188c-0.183,0.124 -0.274,0.298 -0.274,0.521c0,0.249 0.125,0.439 0.374,0.568c0.249,0.129 0.637,0.26 1.163,0.394c0.534,0.134 0.975,0.272 1.323,0.414c0.347,0.143 0.648,0.363 0.902,0.662c0.254,0.298 0.385,0.692 0.394,1.182c0,0.428 -0.118,0.811 -0.354,1.15c-0.236,0.338 -0.575,0.603 -1.016,0.795c-0.441,0.192 -0.955,0.287 -1.543,0.287Z" style="fill:#593f92;fill-rule:nonzero;"/><path d="M224.482,138.433l0,3.582c0,0.249 0.06,0.43 0.181,0.541c0.12,0.111 0.323,0.167 0.608,0.167l0.868,0l0,1.577l-1.176,0c-1.577,0 -2.365,-0.766 -2.365,-2.299l0,-3.568l-0.882,0l0,-1.537l0.882,0l0,-1.831l1.884,0l0,1.831l1.657,0l0,1.537l-1.657,0Z" style="fill:#593f92;fill-rule:nonzero;"/></g></g><g><path d="M414.875,257.138c0,-4.73 35.875,-12.334 -22.458,-12.334l-220.709,0c-12.333,0 -22.333,10.013 -22.333,22.367l0,59.358c0,12.35 10,22.363 22.333,22.363l220.709,0c12.375,0 22.375,-10.013 22.375,-22.363l0,-65.575l0.083,-3.817Z" style="fill:#fff;fill-rule:nonzero;"/><path d="M397.458,295.742c0,-1.129 -0.916,-2.046 -2.041,-2.046l-58.417,0c-1.125,0 -2.042,0.917 -2.042,2.046c0,1.129 0.917,2.046 2.042,2.046l58.417,0c1.125,0 2.041,-0.917 2.041,-2.046Z" style="fill:#ddd;fill-rule:nonzero;"/><path d="M397.458,310.567c0,-1.13 -0.916,-2.046 -2.041,-2.046l-100.084,0c-1.125,0 -2.041,0.916 -2.041,2.046c0,1.129 0.916,2.045 2.041,2.045l100.084,0c1.125,0 2.041,-0.916 2.041,-2.045Z" style="fill:#ddd;fill-rule:nonzero;"/><path d="M272.792,295.742c0,-1.129 -0.917,-2.046 -2.042,-2.046l-100.083,0c-1.125,0 -2.042,0.917 -2.042,2.046c0,1.129 0.917,2.046 2.042,2.046l100.083,0c1.125,0 2.042,-0.917 2.042,-2.046Z" style="fill:#ddd;fill-rule:nonzero;"/><path d="M272.792,325.067c0,-1.134 -0.917,-2.046 -2.042,-2.046l-100.083,0c-1.125,0 -2.042,0.912 -2.042,2.046c0,1.129 0.917,2.041 2.042,2.041l100.083,0c1.125,0 2.042,-0.912 2.042,-2.041Z" style="fill:#ddd;fill-rule:nonzero;"/><path d="M189.458,310.567c0,-1.13 -0.916,-2.046 -2.041,-2.046l-16.75,0c-1.125,0 -2.042,0.916 -2.042,2.046c0,1.129 0.917,2.045 2.042,2.045l16.75,0c1.125,0 2.041,-0.916 2.041,-2.045Z" style="fill:#ddd;fill-rule:nonzero;"/><path d="M229.5,310.567c0,-1.13 -0.917,-2.046 -2.042,-2.046l-16.75,0c-1.125,0 -2.041,0.916 -2.041,2.046c0,1.129 0.916,2.045 2.041,2.045l16.75,0c1.125,0 2.042,-0.916 2.042,-2.045Z" style="fill:#ddd;fill-rule:nonzero;"/><path d="M331.542,295.704c0,-1.15 -0.917,-2.083 -2.084,-2.083c-1.125,0 -2.083,0.933 -2.083,2.083c0,1.15 0.958,2.084 2.083,2.084c1.167,0 2.084,-0.934 2.084,-2.084Z" style="fill:#ddd;fill-rule:nonzero;"/><path d="M280.333,295.779c0,-1.15 -0.958,-2.083 -2.083,-2.083c-1.167,0 -2.083,0.933 -2.083,2.083c0,1.15 0.916,2.084 2.083,2.084c1.125,0 2.083,-0.934 2.083,-2.084Z" style="fill:#ddd;fill-rule:nonzero;"/><path d="M236.792,310.604c0,-1.15 -0.917,-2.083 -2.084,-2.083c-1.125,0 -2.083,0.933 -2.083,2.083c0,1.15 0.958,2.084 2.083,2.084c1.167,0 2.084,-0.934 2.084,-2.084Z" style="fill:#ddd;fill-rule:nonzero;"/><path d="M205.417,310.604c0,-1.15 -0.959,-2.083 -2.084,-2.083c-1.166,0 -2.083,0.933 -2.083,2.083c0,1.15 0.917,2.084 2.083,2.084c1.125,0 2.084,-0.934 2.084,-2.084Z" style="fill:#ddd;fill-rule:nonzero;"/><path d="M197.333,310.604c0,-1.15 -0.958,-2.083 -2.083,-2.083c-1.167,0 -2.083,0.933 -2.083,2.083c0,1.15 0.916,2.084 2.083,2.084c1.125,0 2.083,-0.934 2.083,-2.084Z" style="fill:#ddd;fill-rule:nonzero;"/><path d="M289.667,310.604c0,-1.15 -0.917,-2.083 -2.084,-2.083c-1.125,0 -2.083,0.933 -2.083,2.083c0,1.15 0.958,2.084 2.083,2.084c1.167,0 2.084,-0.934 2.084,-2.084Z" style="fill:#ddd;fill-rule:nonzero;"/><path d="M308.292,325.104c0,-1.15 -0.917,-2.083 -2.084,-2.083c-1.166,0 -2.083,0.933 -2.083,2.083c0,1.15 0.917,2.084 2.083,2.084c1.167,0 2.084,-0.934 2.084,-2.084Z" style="fill:#ddd;fill-rule:nonzero;"/><path d="M354.458,325.067c0,-1.155 -0.916,-2.084 -2.083,-2.084c-1.167,0 -2.083,0.929 -2.083,2.084c0,1.15 0.916,2.083 2.083,2.083c1.167,0 2.083,-0.933 2.083,-2.083Z" style="fill:#ddd;fill-rule:nonzero;"/><path d="M278.875,325.104c0,-1.15 -0.917,-2.083 -2.083,-2.083c-1.167,0 -2.084,0.933 -2.084,2.083c0,1.15 0.917,2.084 2.084,2.084c1.166,0 2.083,-0.934 2.083,-2.084Z" style="fill:#ddd;fill-rule:nonzero;"/><path d="M301.167,325.067c0,-1.134 -0.917,-2.046 -2.042,-2.046l-16.75,0c-1.125,0 -2.042,0.912 -2.042,2.046c0,1.129 0.917,2.041 2.042,2.041l16.75,0c1.125,0 2.042,-0.912 2.042,-2.041Z" style="fill:#ddd;fill-rule:nonzero;"/><path d="M397.458,325.067c0,-1.134 -0.916,-2.046 -2.041,-2.046l-37.584,0c-1.125,0 -2.041,0.912 -2.041,2.046c0,1.129 0.916,2.041 2.041,2.041l37.584,0c1.125,0 2.041,-0.912 2.041,-2.041Z" style="fill:#ddd;fill-rule:nonzero;"/><path d="M281.417,310.567c0,-1.13 -0.875,-2.046 -2.042,-2.046l-37.542,0c-1.166,0 -2.083,0.916 -2.083,2.046c0,1.129 0.917,2.045 2.083,2.045l37.542,0c1.167,0 2.042,-0.916 2.042,-2.045Z" style="fill:#ddd;fill-rule:nonzero;"/><path d="M324.958,295.742c0,-1.129 -0.916,-2.046 -2.041,-2.046l-37.584,0c-1.125,0 -2.041,0.917 -2.041,2.046c0,1.129 0.916,2.046 2.041,2.046l37.584,0c1.125,0 2.041,-0.917 2.041,-2.046Z" style="fill:#ddd;fill-rule:nonzero;"/><path d="M349,325.067c0,-1.134 -0.917,-2.046 -2.042,-2.046l-34.166,0c-1.167,0 -2.084,0.912 -2.084,2.046c0,1.129 0.917,2.041 2.084,2.041l34.166,0c1.125,0 2.042,-0.912 2.042,-2.041Z" style="fill:#ddd;fill-rule:nonzero;"/><path d="M394.417,270.867c0,-5.755 -4.667,-10.417 -10.417,-10.417c-5.75,0 -10.417,4.662 -10.417,10.417c0,5.754 4.667,10.416 10.417,10.416c5.75,0 10.417,-4.662 10.417,-10.416Z" style="fill:#463174;fill-rule:nonzero;"/><g><path d="M343.788,265.554l-4.025,7.76l0,4.144l-2.388,0l0,-4.144l-4.042,-7.76l2.695,0l2.558,5.441l2.541,-5.441l2.661,0Z" style="fill:#593f92;fill-rule:nonzero;"/><path d="M349.365,277.612c-0.91,0 -1.728,-0.202 -2.456,-0.606c-0.728,-0.403 -1.299,-0.975 -1.714,-1.714c-0.415,-0.739 -0.623,-1.591 -0.623,-2.558c0,-0.966 0.214,-1.819 0.64,-2.558c0.426,-0.739 1.009,-1.31 1.748,-1.714c0.739,-0.404 1.564,-0.606 2.473,-0.606c0.91,0 1.734,0.202 2.473,0.606c0.739,0.404 1.322,0.975 1.748,1.714c0.427,0.739 0.64,1.592 0.64,2.558c0,0.967 -0.219,1.819 -0.657,2.558c-0.438,0.739 -1.029,1.311 -1.774,1.714c-0.744,0.404 -1.577,0.606 -2.498,0.606Zm0,-2.081c0.432,0 0.838,-0.105 1.219,-0.315c0.381,-0.211 0.685,-0.526 0.913,-0.947c0.227,-0.421 0.341,-0.932 0.341,-1.535c0,-0.898 -0.236,-1.589 -0.708,-2.072c-0.472,-0.483 -1.049,-0.725 -1.731,-0.725c-0.682,0 -1.254,0.242 -1.714,0.725c-0.46,0.483 -0.691,1.174 -0.691,2.072c0,0.898 0.225,1.589 0.674,2.072c0.449,0.484 1.015,0.725 1.697,0.725Z" style="fill:#593f92;fill-rule:nonzero;"/><path d="M364.97,268.01l0,9.448l-2.405,0l0,-1.194c-0.307,0.41 -0.707,0.731 -1.202,0.964c-0.495,0.233 -1.032,0.35 -1.612,0.35c-0.739,0 -1.392,-0.157 -1.961,-0.469c-0.568,-0.313 -1.015,-0.773 -1.339,-1.382c-0.324,-0.608 -0.486,-1.333 -0.486,-2.174l0,-5.543l2.388,0l0,5.202c0,0.75 0.187,1.327 0.563,1.731c0.375,0.403 0.886,0.605 1.535,0.605c0.659,0 1.176,-0.202 1.552,-0.605c0.375,-0.404 0.562,-0.981 0.562,-1.731l0,-5.202l2.405,0Z" style="fill:#593f92;fill-rule:nonzero;"/></g></g></g><g><g><path d="M111.583,392.867c0,-4.729 -35.875,-12.329 22.459,-12.329l220.708,0c12.333,0 22.333,10.012 22.333,22.362l0,59.358c0,12.354 -10,22.367 -22.333,22.367l-220.708,0c-12.334,0 -22.375,-10.013 -22.375,-22.367l0,-65.575l-0.084,-3.816Z" style="fill:#fff;fill-rule:nonzero;"/><path d="M132.042,406.596c0,-5.754 4.666,-10.417 10.416,-10.417c5.75,0 10.417,4.663 10.417,10.417c0,5.754 -4.667,10.416 -10.417,10.416c-5.75,0 -10.416,-4.662 -10.416,-10.416Z" style="fill:#593f92;fill-rule:nonzero;"/><path d="M162.833,429.875c0,-6.213 5.042,-11.25 11.25,-11.25l161.167,0c6.208,0 11.25,5.037 11.25,11.25l0,29.508c0,6.213 -5.042,11.25 -11.25,11.25l-161.167,0c-6.208,0 -11.25,-5.037 -11.25,-11.25l0,-29.508Z" style="fill:#f6f6f6;fill-rule:nonzero;"/><g><path d="M169.342,401.043l0,1.51l-2.485,0l0,7.818l-1.871,0l0,-7.818l-2.486,0l0,-1.51l6.842,0Z" style="fill:#593f92;fill-rule:nonzero;"/><path d="M174.875,402.86c0.561,0 1.06,0.123 1.497,0.368c0.436,0.245 0.777,0.606 1.022,1.082c0.245,0.477 0.368,1.049 0.368,1.718l0,4.343l-1.871,0l0,-4.09c0,-0.588 -0.147,-1.04 -0.441,-1.356c-0.294,-0.316 -0.695,-0.474 -1.203,-0.474c-0.517,0 -0.924,0.158 -1.223,0.474c-0.298,0.316 -0.448,0.768 -0.448,1.356l0,4.09l-1.871,0l0,-9.89l1.871,0l0,3.408c0.241,-0.32 0.562,-0.572 0.963,-0.755c0.401,-0.182 0.846,-0.274 1.336,-0.274Z" style="fill:#593f92;fill-rule:nonzero;"/><path d="M186.422,406.509c0,0.267 -0.018,0.507 -0.054,0.721l-5.412,0c0.044,0.535 0.231,0.954 0.561,1.257c0.33,0.302 0.735,0.454 1.216,0.454c0.695,0 1.189,-0.299 1.484,-0.896l2.017,0c-0.213,0.713 -0.623,1.299 -1.229,1.758c-0.606,0.459 -1.35,0.688 -2.232,0.688c-0.713,0 -1.352,-0.158 -1.918,-0.474c-0.565,-0.317 -1.006,-0.764 -1.323,-1.343c-0.316,-0.58 -0.474,-1.248 -0.474,-2.005c0,-0.766 0.156,-1.439 0.468,-2.018c0.312,-0.579 0.748,-1.025 1.309,-1.336c0.562,-0.312 1.208,-0.468 1.938,-0.468c0.704,0 1.334,0.151 1.891,0.454c0.557,0.303 0.989,0.733 1.297,1.29c0.307,0.557 0.461,1.196 0.461,1.918Zm-1.938,-0.535c-0.009,-0.481 -0.183,-0.866 -0.521,-1.156c-0.339,-0.289 -0.753,-0.434 -1.243,-0.434c-0.464,0 -0.853,0.14 -1.17,0.421c-0.316,0.28 -0.51,0.67 -0.581,1.169l3.515,0Z" style="fill:#593f92;fill-rule:nonzero;"/><path d="M189.656,404.116c0.24,-0.392 0.554,-0.699 0.942,-0.922c0.387,-0.222 0.831,-0.334 1.33,-0.334l0,1.965l-0.495,0c-0.588,0 -1.031,0.138 -1.33,0.414c-0.298,0.276 -0.447,0.757 -0.447,1.443l0,3.689l-1.871,0l0,-7.404l1.871,0l0,1.149Z" style="fill:#593f92;fill-rule:nonzero;"/><path d="M192.703,406.642c0,-0.748 0.149,-1.412 0.447,-1.991c0.299,-0.579 0.704,-1.025 1.216,-1.336c0.513,-0.312 1.085,-0.468 1.718,-0.468c0.552,0 1.035,0.111 1.45,0.334c0.414,0.223 0.746,0.503 0.995,0.842l0,-1.056l1.885,0l0,7.404l-1.885,0l0,-1.083c-0.24,0.348 -0.572,0.635 -0.995,0.862c-0.423,0.228 -0.911,0.341 -1.464,0.341c-0.623,0 -1.191,-0.16 -1.704,-0.481c-0.512,-0.321 -0.917,-0.773 -1.216,-1.356c-0.298,-0.584 -0.447,-1.254 -0.447,-2.012Zm5.826,0.027c0,-0.454 -0.089,-0.844 -0.267,-1.169c-0.178,-0.326 -0.419,-0.575 -0.722,-0.749c-0.303,-0.173 -0.628,-0.26 -0.975,-0.26c-0.348,0 -0.668,0.084 -0.962,0.254c-0.294,0.169 -0.533,0.416 -0.715,0.741c-0.183,0.325 -0.274,0.711 -0.274,1.156c0,0.446 0.091,0.836 0.274,1.17c0.182,0.334 0.423,0.59 0.721,0.768c0.299,0.178 0.617,0.267 0.956,0.267c0.347,0 0.672,-0.087 0.975,-0.26c0.303,-0.174 0.544,-0.423 0.722,-0.749c0.178,-0.325 0.267,-0.715 0.267,-1.169Z" style="fill:#593f92;fill-rule:nonzero;"/><path d="M204.115,404.036c0.241,-0.338 0.573,-0.621 0.996,-0.848c0.423,-0.228 0.907,-0.341 1.45,-0.341c0.633,0 1.205,0.156 1.717,0.468c0.513,0.311 0.918,0.755 1.217,1.329c0.298,0.575 0.447,1.241 0.447,1.998c0,0.758 -0.149,1.428 -0.447,2.012c-0.299,0.583 -0.704,1.035 -1.217,1.356c-0.512,0.321 -1.084,0.481 -1.717,0.481c-0.543,0 -1.022,-0.111 -1.437,-0.334c-0.414,-0.223 -0.75,-0.503 -1.009,-0.842l0,4.584l-1.87,0l0,-10.932l1.87,0l0,1.069Zm3.916,2.606c0,-0.445 -0.091,-0.831 -0.274,-1.156c-0.182,-0.325 -0.423,-0.572 -0.721,-0.741c-0.299,-0.17 -0.622,-0.254 -0.969,-0.254c-0.339,0 -0.657,0.087 -0.956,0.26c-0.298,0.174 -0.539,0.426 -0.722,0.755c-0.182,0.33 -0.274,0.718 -0.274,1.163c0,0.445 0.092,0.833 0.274,1.163c0.183,0.329 0.424,0.581 0.722,0.755c0.299,0.173 0.617,0.26 0.956,0.26c0.347,0 0.67,-0.089 0.969,-0.267c0.298,-0.178 0.539,-0.432 0.721,-0.762c0.183,-0.329 0.274,-0.721 0.274,-1.176Z" style="fill:#593f92;fill-rule:nonzero;"/><path d="M212.254,402.085c-0.329,0 -0.603,-0.105 -0.822,-0.314c-0.218,-0.209 -0.327,-0.47 -0.327,-0.782c0,-0.312 0.109,-0.572 0.327,-0.781c0.219,-0.21 0.493,-0.315 0.822,-0.315c0.33,0 0.604,0.105 0.822,0.315c0.218,0.209 0.327,0.469 0.327,0.781c0,0.312 -0.109,0.573 -0.327,0.782c-0.218,0.209 -0.492,0.314 -0.822,0.314Zm0.922,0.882l0,7.404l-1.871,0l0,-7.404l1.871,0Z" style="fill:#593f92;fill-rule:nonzero;"/><path d="M217.854,410.491c-0.606,0 -1.15,-0.109 -1.631,-0.327c-0.481,-0.219 -0.862,-0.515 -1.142,-0.889c-0.281,-0.374 -0.435,-0.788 -0.461,-1.243l1.884,0c0.036,0.285 0.176,0.521 0.421,0.708c0.245,0.188 0.55,0.281 0.915,0.281c0.357,0 0.635,-0.071 0.836,-0.214c0.2,-0.142 0.3,-0.325 0.3,-0.548c0,-0.24 -0.122,-0.421 -0.367,-0.541c-0.245,-0.12 -0.635,-0.252 -1.17,-0.394c-0.552,-0.134 -1.004,-0.272 -1.356,-0.414c-0.352,-0.143 -0.655,-0.361 -0.909,-0.655c-0.254,-0.294 -0.381,-0.691 -0.381,-1.19c0,-0.41 0.118,-0.784 0.354,-1.122c0.237,-0.339 0.575,-0.606 1.016,-0.802c0.441,-0.196 0.96,-0.294 1.557,-0.294c0.882,0 1.586,0.22 2.112,0.661c0.525,0.441 0.815,1.036 0.868,1.785l-1.791,0c-0.026,-0.294 -0.149,-0.528 -0.367,-0.702c-0.218,-0.174 -0.51,-0.261 -0.875,-0.261c-0.339,0 -0.6,0.063 -0.782,0.187c-0.183,0.125 -0.274,0.299 -0.274,0.522c0,0.249 0.125,0.438 0.374,0.568c0.249,0.129 0.637,0.26 1.163,0.394c0.534,0.133 0.975,0.272 1.323,0.414c0.347,0.143 0.648,0.363 0.902,0.662c0.254,0.298 0.385,0.692 0.394,1.182c0,0.428 -0.118,0.811 -0.354,1.15c-0.236,0.338 -0.575,0.603 -1.016,0.795c-0.441,0.191 -0.955,0.287 -1.543,0.287Z" style="fill:#593f92;fill-rule:nonzero;"/><path d="M224.482,404.504l0,3.582c0,0.249 0.06,0.429 0.181,0.541c0.12,0.111 0.323,0.167 0.608,0.167l0.868,0l0,1.577l-1.176,0c-1.577,0 -2.365,-0.766 -2.365,-2.299l0,-3.568l-0.882,0l0,-1.537l0.882,0l0,-1.831l1.884,0l0,1.831l1.657,0l0,1.537l-1.657,0Z" style="fill:#593f92;fill-rule:nonzero;"/></g><g><path d="M233.324,427.513l0,3.854l-0.939,0l0,-2.311l-0.861,2.311l-0.758,0l-0.867,-2.317l0,2.317l-0.939,0l0,-3.854l1.109,0l1.081,2.668l1.071,-2.668l1.103,0Z" style="fill:#463174;fill-rule:nonzero;"/><path d="M236.886,429.786c0,0.088 -0.005,0.179 -0.016,0.274l-2.124,0c0.014,0.191 0.076,0.336 0.184,0.437c0.108,0.1 0.24,0.151 0.397,0.151c0.235,0 0.398,-0.099 0.489,-0.297l0.999,0c-0.051,0.201 -0.144,0.383 -0.277,0.544c-0.134,0.161 -0.301,0.287 -0.502,0.378c-0.202,0.092 -0.427,0.138 -0.676,0.138c-0.3,0 -0.567,-0.064 -0.801,-0.193c-0.234,-0.128 -0.417,-0.311 -0.549,-0.548c-0.132,-0.238 -0.197,-0.516 -0.197,-0.835c0,-0.318 0.065,-0.596 0.194,-0.834c0.13,-0.238 0.312,-0.421 0.547,-0.549c0.234,-0.128 0.503,-0.192 0.806,-0.192c0.297,0 0.56,0.062 0.791,0.187c0.23,0.124 0.411,0.301 0.54,0.532c0.13,0.231 0.195,0.499 0.195,0.807Zm-0.96,-0.247c0,-0.161 -0.055,-0.289 -0.165,-0.384c-0.11,-0.096 -0.247,-0.143 -0.412,-0.143c-0.157,0 -0.29,0.046 -0.397,0.137c-0.108,0.092 -0.175,0.222 -0.201,0.39l1.175,0Z" style="fill:#463174;fill-rule:nonzero;"/><path d="M240.268,429.786c0,0.088 -0.006,0.179 -0.017,0.274l-2.124,0c0.014,0.191 0.076,0.336 0.184,0.437c0.108,0.1 0.24,0.151 0.398,0.151c0.234,0 0.397,-0.099 0.488,-0.297l0.999,0c-0.051,0.201 -0.143,0.383 -0.277,0.544c-0.134,0.161 -0.301,0.287 -0.502,0.378c-0.202,0.092 -0.427,0.138 -0.675,0.138c-0.3,0 -0.568,-0.064 -0.802,-0.193c-0.234,-0.128 -0.417,-0.311 -0.549,-0.548c-0.131,-0.238 -0.197,-0.516 -0.197,-0.835c0,-0.318 0.065,-0.596 0.195,-0.834c0.129,-0.238 0.312,-0.421 0.546,-0.549c0.234,-0.128 0.503,-0.192 0.807,-0.192c0.296,0 0.559,0.062 0.79,0.187c0.231,0.124 0.411,0.301 0.541,0.532c0.13,0.231 0.195,0.499 0.195,0.807Zm-0.961,-0.247c0,-0.161 -0.055,-0.289 -0.165,-0.384c-0.109,-0.096 -0.247,-0.143 -0.411,-0.143c-0.158,0 -0.29,0.046 -0.398,0.137c-0.108,0.092 -0.175,0.222 -0.201,0.39l1.175,0Z" style="fill:#463174;fill-rule:nonzero;"/><path d="M242.469,430.571l0,0.796l-0.478,0c-0.34,0 -0.606,-0.084 -0.796,-0.25c-0.19,-0.167 -0.285,-0.438 -0.285,-0.815l0,-1.219l-0.374,0l0,-0.779l0.374,0l0,-0.747l0.938,0l0,0.747l0.615,0l0,0.779l-0.615,0l0,1.23c0,0.091 0.022,0.157 0.066,0.197c0.044,0.041 0.117,0.061 0.22,0.061l0.335,0Z" style="fill:#463174;fill-rule:nonzero;"/><path d="M243.462,427.985c-0.165,0 -0.299,-0.048 -0.403,-0.145c-0.105,-0.097 -0.157,-0.217 -0.157,-0.359c0,-0.147 0.052,-0.269 0.157,-0.365c0.104,-0.097 0.238,-0.146 0.403,-0.146c0.161,0 0.294,0.049 0.398,0.146c0.104,0.096 0.156,0.218 0.156,0.365c0,0.142 -0.052,0.262 -0.156,0.359c-0.104,0.097 -0.237,0.145 -0.398,0.145Zm0.467,0.319l0,3.063l-0.939,0l0,-3.063l0.939,0Z" style="fill:#463174;fill-rule:nonzero;"/><path d="M246.475,428.271c0.359,0 0.645,0.116 0.86,0.348c0.214,0.233 0.321,0.552 0.321,0.958l0,1.79l-0.934,0l0,-1.663c0,-0.205 -0.053,-0.365 -0.159,-0.478c-0.106,-0.113 -0.249,-0.17 -0.428,-0.17c-0.179,0 -0.322,0.057 -0.428,0.17c-0.106,0.113 -0.159,0.273 -0.159,0.478l0,1.663l-0.939,0l0,-3.063l0.939,0l0,0.406c0.095,-0.135 0.223,-0.242 0.384,-0.321c0.161,-0.079 0.342,-0.118 0.543,-0.118Z" style="fill:#463174;fill-rule:nonzero;"/><path d="M249.472,428.26c0.216,0 0.406,0.044 0.569,0.132c0.162,0.087 0.288,0.203 0.376,0.345l0,-0.433l0.938,0l0,3.057c0,0.282 -0.056,0.537 -0.167,0.766c-0.112,0.229 -0.282,0.411 -0.511,0.546c-0.228,0.135 -0.513,0.203 -0.853,0.203c-0.454,0 -0.822,-0.107 -1.104,-0.321c-0.281,-0.214 -0.442,-0.504 -0.483,-0.87l0.928,0c0.029,0.117 0.099,0.21 0.209,0.277c0.109,0.068 0.245,0.102 0.406,0.102c0.194,0 0.348,-0.056 0.464,-0.168c0.115,-0.111 0.173,-0.29 0.173,-0.535l0,-0.433c-0.092,0.142 -0.218,0.258 -0.379,0.348c-0.161,0.09 -0.35,0.135 -0.566,0.135c-0.252,0 -0.481,-0.065 -0.686,-0.195c-0.205,-0.13 -0.367,-0.315 -0.485,-0.555c-0.119,-0.239 -0.179,-0.517 -0.179,-0.831c0,-0.315 0.06,-0.591 0.179,-0.829c0.118,-0.238 0.28,-0.421 0.485,-0.549c0.205,-0.128 0.434,-0.192 0.686,-0.192Zm0.945,1.575c0,-0.234 -0.065,-0.419 -0.195,-0.554c-0.13,-0.136 -0.288,-0.203 -0.475,-0.203c-0.187,0 -0.345,0.067 -0.475,0.2c-0.13,0.134 -0.195,0.318 -0.195,0.552c0,0.234 0.065,0.42 0.195,0.557c0.13,0.137 0.288,0.206 0.475,0.206c0.187,0 0.345,-0.068 0.475,-0.203c0.13,-0.136 0.195,-0.321 0.195,-0.555Z" style="fill:#463174;fill-rule:nonzero;"/><path d="M254.445,431.411c-0.267,0 -0.505,-0.046 -0.713,-0.138c-0.209,-0.091 -0.373,-0.216 -0.494,-0.376c-0.121,-0.159 -0.189,-0.337 -0.203,-0.535l0.927,0c0.011,0.106 0.061,0.192 0.149,0.258c0.087,0.066 0.195,0.099 0.323,0.099c0.118,0 0.208,-0.023 0.272,-0.069c0.064,-0.045 0.096,-0.105 0.096,-0.178c0,-0.088 -0.046,-0.153 -0.137,-0.195c-0.092,-0.042 -0.24,-0.089 -0.445,-0.14c-0.219,-0.051 -0.402,-0.105 -0.549,-0.162c-0.146,-0.056 -0.272,-0.146 -0.378,-0.269c-0.106,-0.122 -0.159,-0.288 -0.159,-0.496c0,-0.176 0.048,-0.336 0.145,-0.481c0.097,-0.144 0.24,-0.259 0.428,-0.343c0.189,-0.084 0.413,-0.126 0.673,-0.126c0.384,0 0.687,0.095 0.908,0.285c0.221,0.191 0.348,0.443 0.381,0.758l-0.867,0c-0.014,-0.106 -0.061,-0.19 -0.14,-0.253c-0.078,-0.062 -0.182,-0.093 -0.31,-0.093c-0.11,0 -0.194,0.021 -0.252,0.063c-0.059,0.042 -0.088,0.1 -0.088,0.173c0,0.088 0.046,0.154 0.14,0.198c0.093,0.044 0.239,0.087 0.436,0.131c0.227,0.059 0.412,0.117 0.554,0.173c0.143,0.057 0.269,0.148 0.376,0.275c0.108,0.126 0.164,0.295 0.168,0.507c0,0.18 -0.05,0.34 -0.151,0.481c-0.101,0.141 -0.245,0.251 -0.434,0.332c-0.188,0.08 -0.407,0.121 -0.656,0.121Z" style="fill:#463174;fill-rule:nonzero;"/><path d="M256.076,429.835c0,-0.318 0.065,-0.596 0.194,-0.834c0.13,-0.238 0.311,-0.421 0.544,-0.549c0.232,-0.128 0.498,-0.192 0.798,-0.192c0.385,0 0.706,0.101 0.964,0.302c0.258,0.201 0.427,0.485 0.508,0.851l-0.999,0c-0.085,-0.235 -0.247,-0.352 -0.489,-0.352c-0.172,0 -0.309,0.067 -0.412,0.201c-0.102,0.133 -0.153,0.324 -0.153,0.573c0,0.249 0.051,0.44 0.153,0.574c0.103,0.133 0.24,0.2 0.412,0.2c0.242,0 0.404,-0.117 0.489,-0.351l0.999,0c-0.081,0.359 -0.251,0.64 -0.511,0.845c-0.26,0.205 -0.58,0.308 -0.961,0.308c-0.3,0 -0.566,-0.064 -0.798,-0.193c-0.233,-0.128 -0.414,-0.311 -0.544,-0.548c-0.129,-0.238 -0.194,-0.516 -0.194,-0.835Z" style="fill:#463174;fill-rule:nonzero;"/><path d="M261.466,428.271c0.351,0 0.633,0.116 0.845,0.348c0.212,0.233 0.318,0.552 0.318,0.958l0,1.79l-0.933,0l0,-1.663c0,-0.205 -0.053,-0.365 -0.159,-0.478c-0.106,-0.113 -0.249,-0.17 -0.428,-0.17c-0.179,0 -0.322,0.057 -0.428,0.17c-0.106,0.113 -0.159,0.273 -0.159,0.478l0,1.663l-0.939,0l0,-4.062l0.939,0l0,1.411c0.095,-0.136 0.225,-0.244 0.389,-0.324c0.165,-0.081 0.35,-0.121 0.555,-0.121Z" style="fill:#463174;fill-rule:nonzero;"/><path d="M266.17,429.786c0,0.088 -0.006,0.179 -0.017,0.274l-2.124,0c0.015,0.191 0.076,0.336 0.184,0.437c0.108,0.1 0.241,0.151 0.398,0.151c0.234,0 0.397,-0.099 0.488,-0.297l0.999,0c-0.051,0.201 -0.143,0.383 -0.277,0.544c-0.133,0.161 -0.301,0.287 -0.502,0.378c-0.201,0.092 -0.426,0.138 -0.675,0.138c-0.3,0 -0.567,-0.064 -0.802,-0.193c-0.234,-0.128 -0.417,-0.311 -0.548,-0.548c-0.132,-0.238 -0.198,-0.516 -0.198,-0.835c0,-0.318 0.065,-0.596 0.195,-0.834c0.13,-0.238 0.312,-0.421 0.546,-0.549c0.234,-0.128 0.503,-0.192 0.807,-0.192c0.296,0 0.56,0.062 0.79,0.187c0.231,0.124 0.411,0.301 0.541,0.532c0.13,0.231 0.195,0.499 0.195,0.807Zm-0.961,-0.247c0,-0.161 -0.055,-0.289 -0.165,-0.384c-0.109,-0.096 -0.247,-0.143 -0.411,-0.143c-0.158,0 -0.29,0.046 -0.398,0.137c-0.108,0.092 -0.175,0.222 -0.2,0.39l1.174,0Z" style="fill:#463174;fill-rule:nonzero;"/><path d="M266.477,429.83c0,-0.315 0.06,-0.591 0.178,-0.829c0.119,-0.238 0.281,-0.421 0.486,-0.549c0.205,-0.128 0.434,-0.192 0.686,-0.192c0.202,0 0.386,0.042 0.552,0.126c0.167,0.084 0.297,0.198 0.392,0.34l0,-1.421l0.939,0l0,4.062l-0.939,0l0,-0.439c-0.087,0.146 -0.213,0.263 -0.376,0.351c-0.162,0.088 -0.352,0.132 -0.568,0.132c-0.252,0 -0.481,-0.065 -0.686,-0.195c-0.205,-0.13 -0.367,-0.315 -0.486,-0.555c-0.118,-0.239 -0.178,-0.517 -0.178,-0.831Zm2.294,0.005c0,-0.234 -0.064,-0.419 -0.194,-0.554c-0.13,-0.136 -0.289,-0.203 -0.475,-0.203c-0.187,0 -0.345,0.067 -0.475,0.2c-0.13,0.134 -0.195,0.318 -0.195,0.552c0,0.234 0.065,0.42 0.195,0.557c0.13,0.137 0.288,0.206 0.475,0.206c0.186,0 0.345,-0.068 0.475,-0.203c0.13,-0.136 0.194,-0.321 0.194,-0.555Z" style="fill:#463174;fill-rule:nonzero;"/><path d="M273.415,428.304l0,3.063l-0.939,0l0,-0.417c-0.095,0.135 -0.224,0.244 -0.386,0.326c-0.163,0.082 -0.344,0.124 -0.541,0.124c-0.234,0 -0.441,-0.053 -0.62,-0.157c-0.18,-0.104 -0.319,-0.255 -0.418,-0.453c-0.098,-0.197 -0.148,-0.43 -0.148,-0.697l0,-1.789l0.933,0l0,1.663c0,0.205 0.053,0.364 0.16,0.478c0.106,0.113 0.248,0.17 0.428,0.17c0.183,0 0.327,-0.057 0.433,-0.17c0.106,-0.114 0.159,-0.273 0.159,-0.478l0,-1.663l0.939,0Z" style="fill:#463174;fill-rule:nonzero;"/><rect x="274.09" y="427.305" width="0.939" height="4.062" style="fill:#463174;fill-rule:nonzero;"/><path d="M278.597,429.786c0,0.088 -0.006,0.179 -0.017,0.274l-2.124,0c0.015,0.191 0.076,0.336 0.184,0.437c0.108,0.1 0.24,0.151 0.398,0.151c0.234,0 0.397,-0.099 0.488,-0.297l0.999,0c-0.051,0.201 -0.143,0.383 -0.277,0.544c-0.133,0.161 -0.301,0.287 -0.502,0.378c-0.201,0.092 -0.426,0.138 -0.675,0.138c-0.3,0 -0.567,-0.064 -0.802,-0.193c-0.234,-0.128 -0.417,-0.311 -0.549,-0.548c-0.131,-0.238 -0.197,-0.516 -0.197,-0.835c0,-0.318 0.065,-0.596 0.195,-0.834c0.13,-0.238 0.312,-0.421 0.546,-0.549c0.234,-0.128 0.503,-0.192 0.807,-0.192c0.296,0 0.56,0.062 0.79,0.187c0.231,0.124 0.411,0.301 0.541,0.532c0.13,0.231 0.195,0.499 0.195,0.807Zm-0.961,-0.247c0,-0.161 -0.055,-0.289 -0.165,-0.384c-0.109,-0.096 -0.247,-0.143 -0.411,-0.143c-0.158,0 -0.29,0.046 -0.398,0.137c-0.108,0.092 -0.175,0.222 -0.201,0.39l1.175,0Z" style="fill:#463174;fill-rule:nonzero;"/><path d="M278.904,429.83c0,-0.315 0.059,-0.591 0.178,-0.829c0.119,-0.238 0.281,-0.421 0.486,-0.549c0.205,-0.128 0.434,-0.192 0.686,-0.192c0.202,0 0.385,0.042 0.552,0.126c0.166,0.084 0.297,0.198 0.392,0.34l0,-1.421l0.939,0l0,4.062l-0.939,0l0,-0.439c-0.087,0.146 -0.213,0.263 -0.376,0.351c-0.162,0.088 -0.352,0.132 -0.568,0.132c-0.252,0 -0.481,-0.065 -0.686,-0.195c-0.205,-0.13 -0.367,-0.315 -0.486,-0.555c-0.119,-0.239 -0.178,-0.517 -0.178,-0.831Zm2.294,0.005c0,-0.234 -0.065,-0.419 -0.194,-0.554c-0.13,-0.136 -0.289,-0.203 -0.475,-0.203c-0.187,0 -0.345,0.067 -0.475,0.2c-0.13,0.134 -0.195,0.318 -0.195,0.552c0,0.234 0.065,0.42 0.195,0.557c0.13,0.137 0.288,0.206 0.475,0.206c0.186,0 0.345,-0.068 0.475,-0.203c0.129,-0.136 0.194,-0.321 0.194,-0.555Z" style="fill:#463174;fill-rule:nonzero;"/><path d="M221.333,437.967c0.332,0 0.602,0.105 0.811,0.314c0.209,0.209 0.313,0.512 0.313,0.909l0,1.657l-0.357,0l0,-1.616c0,-0.307 -0.075,-0.542 -0.223,-0.704c-0.148,-0.162 -0.35,-0.244 -0.606,-0.244c-0.266,0 -0.478,0.088 -0.637,0.265c-0.159,0.176 -0.238,0.431 -0.238,0.766l0,1.533l-0.357,0l0,-1.616c0,-0.307 -0.075,-0.542 -0.223,-0.704c-0.149,-0.162 -0.352,-0.244 -0.611,-0.244c-0.266,0 -0.478,0.088 -0.637,0.265c-0.159,0.176 -0.239,0.431 -0.239,0.766l0,1.533l-0.362,0l0,-2.828l0.362,0l0,0.487c0.09,-0.176 0.218,-0.31 0.384,-0.401c0.165,-0.092 0.35,-0.138 0.554,-0.138c0.245,0 0.46,0.059 0.645,0.177c0.184,0.117 0.318,0.29 0.401,0.517c0.076,-0.224 0.206,-0.396 0.391,-0.515c0.185,-0.119 0.394,-0.179 0.629,-0.179Z" style="fill:#463174;fill-rule:nonzero;"/><path d="M225.818,439.288c0,0.124 -0.003,0.219 -0.01,0.285l-2.346,0c0.01,0.214 0.062,0.397 0.155,0.549c0.093,0.152 0.216,0.267 0.368,0.344c0.152,0.078 0.317,0.117 0.497,0.117c0.235,0 0.432,-0.057 0.593,-0.171c0.161,-0.114 0.267,-0.268 0.319,-0.461l0.383,0c-0.069,0.276 -0.217,0.502 -0.443,0.676c-0.226,0.174 -0.51,0.261 -0.852,0.261c-0.266,0 -0.504,-0.059 -0.715,-0.178c-0.21,-0.119 -0.375,-0.289 -0.494,-0.508c-0.119,-0.219 -0.179,-0.475 -0.179,-0.769c0,-0.293 0.059,-0.551 0.176,-0.772c0.118,-0.221 0.282,-0.39 0.492,-0.507c0.211,-0.117 0.451,-0.176 0.72,-0.176c0.269,0 0.505,0.059 0.707,0.176c0.202,0.117 0.357,0.275 0.466,0.474c0.109,0.198 0.163,0.418 0.163,0.66Zm-0.368,-0.01c0.004,-0.211 -0.038,-0.39 -0.126,-0.539c-0.088,-0.148 -0.208,-0.261 -0.36,-0.336c-0.152,-0.076 -0.318,-0.114 -0.498,-0.114c-0.269,0 -0.498,0.086 -0.688,0.259c-0.19,0.172 -0.296,0.416 -0.316,0.73l1.988,0Z" style="fill:#463174;fill-rule:nonzero;"/><path d="M229.039,439.288c0,0.124 -0.003,0.219 -0.01,0.285l-2.346,0c0.01,0.214 0.062,0.397 0.155,0.549c0.094,0.152 0.216,0.267 0.368,0.344c0.152,0.078 0.318,0.117 0.497,0.117c0.235,0 0.433,-0.057 0.593,-0.171c0.161,-0.114 0.267,-0.268 0.319,-0.461l0.383,0c-0.069,0.276 -0.217,0.502 -0.443,0.676c-0.226,0.174 -0.51,0.261 -0.852,0.261c-0.266,0 -0.504,-0.059 -0.714,-0.178c-0.211,-0.119 -0.376,-0.289 -0.495,-0.508c-0.119,-0.219 -0.179,-0.475 -0.179,-0.769c0,-0.293 0.059,-0.551 0.176,-0.772c0.118,-0.221 0.282,-0.39 0.492,-0.507c0.211,-0.117 0.451,-0.176 0.72,-0.176c0.27,0 0.505,0.059 0.707,0.176c0.202,0.117 0.358,0.275 0.466,0.474c0.109,0.198 0.163,0.418 0.163,0.66Zm-0.367,-0.01c0.003,-0.211 -0.039,-0.39 -0.127,-0.539c-0.088,-0.148 -0.208,-0.261 -0.36,-0.336c-0.152,-0.076 -0.318,-0.114 -0.497,-0.114c-0.27,0 -0.499,0.086 -0.689,0.259c-0.19,0.172 -0.295,0.416 -0.316,0.73l1.989,0Z" style="fill:#463174;fill-rule:nonzero;"/><path d="M230.174,438.325l0,1.755c0,0.173 0.032,0.292 0.098,0.358c0.066,0.065 0.181,0.098 0.347,0.098l0.331,0l0,0.311l-0.388,0c-0.255,0 -0.445,-0.06 -0.57,-0.179c-0.124,-0.119 -0.186,-0.315 -0.186,-0.588l0,-1.755l-0.394,0l0,-0.306l0.394,0l0,-0.709l0.368,0l0,0.709l0.776,0l0,0.306l-0.776,0Z" style="fill:#463174;fill-rule:nonzero;"/><path d="M231.608,440.873c-0.076,0 -0.139,-0.026 -0.189,-0.078c-0.05,-0.052 -0.075,-0.115 -0.075,-0.191c0,-0.076 0.025,-0.139 0.075,-0.189c0.05,-0.051 0.113,-0.076 0.189,-0.076c0.073,0 0.134,0.025 0.184,0.076c0.05,0.05 0.075,0.113 0.075,0.189c0,0.076 -0.025,0.139 -0.075,0.191c-0.05,0.052 -0.111,0.078 -0.184,0.078Z" style="fill:#463174;fill-rule:nonzero;"/><path d="M233.675,437.978c0.265,0 0.497,0.062 0.694,0.186c0.196,0.125 0.338,0.282 0.424,0.472l0,-0.617l0.363,0l0,2.9c0,0.259 -0.056,0.489 -0.169,0.689c-0.112,0.201 -0.268,0.355 -0.468,0.464c-0.2,0.109 -0.428,0.163 -0.684,0.163c-0.362,0 -0.664,-0.086 -0.904,-0.259c-0.24,-0.173 -0.389,-0.407 -0.448,-0.704l0.358,0c0.062,0.196 0.18,0.354 0.355,0.471c0.174,0.117 0.387,0.176 0.639,0.176c0.183,0 0.347,-0.039 0.492,-0.117c0.145,-0.077 0.259,-0.192 0.342,-0.344c0.083,-0.152 0.124,-0.331 0.124,-0.539l0,-0.699c-0.09,0.194 -0.232,0.353 -0.427,0.479c-0.195,0.126 -0.426,0.189 -0.691,0.189c-0.259,0 -0.492,-0.06 -0.697,-0.181c-0.205,-0.121 -0.366,-0.292 -0.482,-0.513c-0.115,-0.221 -0.173,-0.476 -0.173,-0.766c0,-0.29 0.058,-0.545 0.173,-0.764c0.116,-0.219 0.277,-0.388 0.482,-0.507c0.205,-0.12 0.438,-0.179 0.697,-0.179Zm1.118,1.455c0,-0.228 -0.046,-0.428 -0.14,-0.601c-0.093,-0.172 -0.22,-0.305 -0.38,-0.398c-0.161,-0.094 -0.338,-0.14 -0.531,-0.14c-0.2,0 -0.38,0.045 -0.539,0.134c-0.158,0.09 -0.284,0.221 -0.375,0.391c-0.092,0.171 -0.137,0.374 -0.137,0.609c0,0.231 0.045,0.434 0.137,0.608c0.091,0.175 0.217,0.308 0.375,0.399c0.159,0.092 0.339,0.137 0.539,0.137c0.193,0 0.37,-0.046 0.531,-0.139c0.16,-0.094 0.287,-0.226 0.38,-0.399c0.094,-0.173 0.14,-0.373 0.14,-0.601Z" style="fill:#463174;fill-rule:nonzero;"/><path d="M237.222,440.888c-0.266,0 -0.505,-0.059 -0.717,-0.178c-0.212,-0.119 -0.38,-0.289 -0.502,-0.508c-0.123,-0.219 -0.184,-0.475 -0.184,-0.769c0,-0.293 0.062,-0.55 0.186,-0.769c0.124,-0.219 0.294,-0.388 0.508,-0.507c0.214,-0.12 0.454,-0.179 0.72,-0.179c0.265,0 0.506,0.059 0.722,0.179c0.216,0.119 0.385,0.288 0.508,0.507c0.122,0.219 0.183,0.476 0.183,0.769c0,0.29 -0.062,0.546 -0.186,0.767c-0.124,0.221 -0.295,0.391 -0.513,0.51c-0.217,0.119 -0.459,0.178 -0.725,0.178Zm0,-0.316c0.187,0 0.359,-0.042 0.518,-0.126c0.159,-0.085 0.287,-0.213 0.386,-0.384c0.098,-0.171 0.147,-0.38 0.147,-0.629c0,-0.248 -0.048,-0.458 -0.145,-0.629c-0.096,-0.171 -0.224,-0.299 -0.383,-0.383c-0.159,-0.085 -0.331,-0.127 -0.518,-0.127c-0.186,0 -0.359,0.042 -0.518,0.127c-0.158,0.084 -0.285,0.212 -0.38,0.383c-0.095,0.171 -0.143,0.381 -0.143,0.629c0,0.249 0.048,0.458 0.143,0.629c0.095,0.171 0.221,0.299 0.378,0.384c0.157,0.084 0.329,0.126 0.515,0.126Z" style="fill:#463174;fill-rule:nonzero;"/><path d="M240.547,440.888c-0.266,0 -0.505,-0.059 -0.717,-0.178c-0.213,-0.119 -0.38,-0.289 -0.503,-0.508c-0.122,-0.219 -0.183,-0.475 -0.183,-0.769c0,-0.293 0.062,-0.55 0.186,-0.769c0.124,-0.219 0.293,-0.388 0.508,-0.507c0.214,-0.12 0.454,-0.179 0.719,-0.179c0.266,0 0.507,0.059 0.723,0.179c0.216,0.119 0.385,0.288 0.507,0.507c0.123,0.219 0.184,0.476 0.184,0.769c0,0.29 -0.062,0.546 -0.186,0.767c-0.125,0.221 -0.295,0.391 -0.513,0.51c-0.217,0.119 -0.459,0.178 -0.725,0.178Zm0,-0.316c0.186,0 0.359,-0.042 0.518,-0.126c0.159,-0.085 0.287,-0.213 0.386,-0.384c0.098,-0.171 0.147,-0.38 0.147,-0.629c0,-0.248 -0.048,-0.458 -0.145,-0.629c-0.096,-0.171 -0.224,-0.299 -0.383,-0.383c-0.159,-0.085 -0.331,-0.127 -0.518,-0.127c-0.186,0 -0.359,0.042 -0.518,0.127c-0.159,0.084 -0.285,0.212 -0.38,0.383c-0.095,0.171 -0.143,0.381 -0.143,0.629c0,0.249 0.048,0.458 0.143,0.629c0.095,0.171 0.221,0.299 0.378,0.384c0.157,0.084 0.329,0.126 0.515,0.126Z" style="fill:#463174;fill-rule:nonzero;"/><path d="M243.82,437.978c0.266,0 0.497,0.062 0.694,0.186c0.197,0.125 0.338,0.282 0.425,0.472l0,-0.617l0.362,0l0,2.9c0,0.259 -0.056,0.489 -0.168,0.689c-0.112,0.201 -0.268,0.355 -0.469,0.464c-0.2,0.109 -0.428,0.163 -0.683,0.163c-0.363,0 -0.664,-0.086 -0.904,-0.259c-0.24,-0.173 -0.389,-0.407 -0.448,-0.704l0.357,0c0.062,0.196 0.181,0.354 0.355,0.471c0.174,0.117 0.388,0.176 0.64,0.176c0.183,0 0.347,-0.039 0.492,-0.117c0.145,-0.077 0.259,-0.192 0.341,-0.344c0.083,-0.152 0.125,-0.331 0.125,-0.539l0,-0.699c-0.09,0.194 -0.232,0.353 -0.428,0.479c-0.195,0.126 -0.425,0.189 -0.691,0.189c-0.259,0 -0.491,-0.06 -0.696,-0.181c-0.206,-0.121 -0.366,-0.292 -0.482,-0.513c-0.116,-0.221 -0.174,-0.476 -0.174,-0.766c0,-0.29 0.058,-0.545 0.174,-0.764c0.116,-0.219 0.276,-0.388 0.482,-0.507c0.205,-0.12 0.437,-0.179 0.696,-0.179Zm1.119,1.455c0,-0.228 -0.047,-0.428 -0.14,-0.601c-0.093,-0.172 -0.22,-0.305 -0.381,-0.398c-0.16,-0.094 -0.337,-0.14 -0.531,-0.14c-0.2,0 -0.379,0.045 -0.538,0.134c-0.159,0.09 -0.284,0.221 -0.376,0.391c-0.091,0.171 -0.137,0.374 -0.137,0.609c0,0.231 0.046,0.434 0.137,0.608c0.092,0.175 0.217,0.308 0.376,0.399c0.159,0.092 0.338,0.137 0.538,0.137c0.194,0 0.371,-0.046 0.531,-0.139c0.161,-0.094 0.288,-0.226 0.381,-0.399c0.093,-0.173 0.14,-0.373 0.14,-0.601Z" style="fill:#463174;fill-rule:nonzero;"/><rect x="246.13" y="437.015" width="0.363" height="3.832" style="fill:#463174;fill-rule:nonzero;"/><path d="M249.874,439.288c0,0.124 -0.003,0.219 -0.01,0.285l-2.346,0c0.01,0.214 0.062,0.397 0.155,0.549c0.093,0.152 0.216,0.267 0.368,0.344c0.152,0.078 0.318,0.117 0.497,0.117c0.235,0 0.433,-0.057 0.593,-0.171c0.161,-0.114 0.267,-0.268 0.319,-0.461l0.383,0c-0.069,0.276 -0.217,0.502 -0.443,0.676c-0.226,0.174 -0.51,0.261 -0.852,0.261c-0.266,0 -0.504,-0.059 -0.715,-0.178c-0.21,-0.119 -0.375,-0.289 -0.494,-0.508c-0.119,-0.219 -0.179,-0.475 -0.179,-0.769c0,-0.293 0.059,-0.551 0.176,-0.772c0.118,-0.221 0.282,-0.39 0.492,-0.507c0.211,-0.117 0.451,-0.176 0.72,-0.176c0.269,0 0.505,0.059 0.707,0.176c0.202,0.117 0.357,0.275 0.466,0.474c0.109,0.198 0.163,0.418 0.163,0.66Zm-0.367,-0.01c0.003,-0.211 -0.039,-0.39 -0.127,-0.539c-0.088,-0.148 -0.208,-0.261 -0.36,-0.336c-0.152,-0.076 -0.318,-0.114 -0.497,-0.114c-0.27,0 -0.499,0.086 -0.689,0.259c-0.19,0.172 -0.295,0.416 -0.316,0.73l1.989,0Z" style="fill:#463174;fill-rule:nonzero;"/><path d="M250.599,440.873c-0.076,0 -0.139,-0.026 -0.189,-0.078c-0.05,-0.052 -0.075,-0.115 -0.075,-0.191c0,-0.076 0.025,-0.139 0.075,-0.189c0.05,-0.051 0.113,-0.076 0.189,-0.076c0.073,0 0.134,0.025 0.184,0.076c0.05,0.05 0.075,0.113 0.075,0.189c0,0.076 -0.025,0.139 -0.075,0.191c-0.05,0.052 -0.111,0.078 -0.184,0.078Z" style="fill:#463174;fill-rule:nonzero;"/><path d="M251.314,439.433c0,-0.293 0.059,-0.55 0.176,-0.769c0.117,-0.219 0.28,-0.388 0.487,-0.507c0.207,-0.12 0.444,-0.179 0.709,-0.179c0.349,0 0.637,0.086 0.863,0.259c0.226,0.172 0.372,0.407 0.437,0.704l-0.388,0c-0.048,-0.204 -0.153,-0.363 -0.313,-0.479c-0.161,-0.116 -0.36,-0.173 -0.599,-0.173c-0.189,0 -0.36,0.043 -0.512,0.129c-0.152,0.086 -0.272,0.215 -0.36,0.386c-0.088,0.171 -0.132,0.381 -0.132,0.629c0,0.249 0.044,0.459 0.132,0.632c0.088,0.173 0.208,0.302 0.36,0.388c0.152,0.087 0.323,0.13 0.512,0.13c0.239,0 0.438,-0.058 0.599,-0.174c0.16,-0.115 0.265,-0.277 0.313,-0.484l0.388,0c-0.065,0.29 -0.212,0.523 -0.44,0.699c-0.228,0.176 -0.514,0.264 -0.86,0.264c-0.265,0 -0.502,-0.059 -0.709,-0.178c-0.207,-0.119 -0.37,-0.289 -0.487,-0.508c-0.117,-0.219 -0.176,-0.475 -0.176,-0.769Z" style="fill:#463174;fill-rule:nonzero;"/><path d="M255.892,440.888c-0.266,0 -0.505,-0.059 -0.717,-0.178c-0.212,-0.119 -0.38,-0.289 -0.502,-0.508c-0.123,-0.219 -0.184,-0.475 -0.184,-0.769c0,-0.293 0.062,-0.55 0.186,-0.769c0.124,-0.219 0.294,-0.388 0.508,-0.507c0.214,-0.12 0.454,-0.179 0.72,-0.179c0.265,0 0.506,0.059 0.722,0.179c0.216,0.119 0.385,0.288 0.508,0.507c0.122,0.219 0.183,0.476 0.183,0.769c0,0.29 -0.062,0.546 -0.186,0.767c-0.124,0.221 -0.295,0.391 -0.513,0.51c-0.217,0.119 -0.459,0.178 -0.725,0.178Zm0,-0.316c0.187,0 0.359,-0.042 0.518,-0.126c0.159,-0.085 0.287,-0.213 0.386,-0.384c0.098,-0.171 0.147,-0.38 0.147,-0.629c0,-0.248 -0.048,-0.458 -0.145,-0.629c-0.096,-0.171 -0.224,-0.299 -0.383,-0.383c-0.159,-0.085 -0.331,-0.127 -0.518,-0.127c-0.186,0 -0.359,0.042 -0.518,0.127c-0.158,0.084 -0.285,0.212 -0.38,0.383c-0.095,0.171 -0.143,0.381 -0.143,0.629c0,0.249 0.048,0.458 0.143,0.629c0.095,0.171 0.221,0.299 0.378,0.384c0.157,0.084 0.329,0.126 0.515,0.126Z" style="fill:#463174;fill-rule:nonzero;"/><path d="M261.346,437.967c0.331,0 0.601,0.105 0.81,0.314c0.209,0.209 0.313,0.512 0.313,0.909l0,1.657l-0.357,0l0,-1.616c0,-0.307 -0.074,-0.542 -0.223,-0.704c-0.148,-0.162 -0.35,-0.244 -0.606,-0.244c-0.265,0 -0.478,0.088 -0.637,0.265c-0.158,0.176 -0.238,0.431 -0.238,0.766l0,1.533l-0.357,0l0,-1.616c0,-0.307 -0.074,-0.542 -0.223,-0.704c-0.148,-0.162 -0.352,-0.244 -0.611,-0.244c-0.266,0 -0.478,0.088 -0.637,0.265c-0.159,0.176 -0.238,0.431 -0.238,0.766l0,1.533l-0.363,0l0,-2.828l0.363,0l0,0.487c0.09,-0.176 0.217,-0.31 0.383,-0.401c0.166,-0.092 0.35,-0.138 0.554,-0.138c0.245,0 0.46,0.059 0.645,0.177c0.185,0.117 0.318,0.29 0.401,0.517c0.076,-0.224 0.207,-0.396 0.391,-0.515c0.185,-0.119 0.395,-0.179 0.63,-0.179Z" style="fill:#463174;fill-rule:nonzero;"/><path d="M264.883,435.979l-1.43,5.728l-0.357,0l1.419,-5.728l0.368,0Z" style="fill:#463174;fill-rule:nonzero;"/><path d="M267.037,440.847l-0.73,-1.139l-0.704,1.139l-0.384,0l0.912,-1.414l-0.901,-1.414l0.409,0l0.72,1.124l0.699,-1.124l0.378,0l-0.901,1.399l0.911,1.429l-0.409,0Z" style="fill:#463174;fill-rule:nonzero;"/><path d="M269.419,440.847l-0.73,-1.139l-0.704,1.139l-0.383,0l0.911,-1.414l-0.901,-1.414l0.409,0l0.72,1.124l0.699,-1.124l0.378,0l-0.901,1.399l0.912,1.429l-0.41,0Z" style="fill:#463174;fill-rule:nonzero;"/><path d="M271.802,440.847l-0.73,-1.139l-0.705,1.139l-0.383,0l0.911,-1.414l-0.901,-1.414l0.409,0l0.72,1.124l0.7,-1.124l0.378,0l-0.902,1.399l0.912,1.429l-0.409,0Z" style="fill:#463174;fill-rule:nonzero;"/><rect x="272.444" y="438.775" width="2.015" height="0.306" style="fill:#463174;fill-rule:nonzero;"/><path d="M277.721,438.019l-1.678,4.159l-0.378,0l0.549,-1.347l-1.16,-2.812l0.399,0l0.963,2.414l0.932,-2.414l0.373,0Z" style="fill:#463174;fill-rule:nonzero;"/><path d="M280.544,438.019l-1.678,4.159l-0.378,0l0.549,-1.347l-1.16,-2.812l0.398,0l0.964,2.414l0.932,-2.414l0.373,0Z" style="fill:#463174;fill-rule:nonzero;"/><path d="M283.366,438.019l-1.678,4.159l-0.378,0l0.549,-1.347l-1.16,-2.812l0.399,0l0.963,2.414l0.932,-2.414l0.373,0Z" style="fill:#463174;fill-rule:nonzero;"/><rect x="283.599" y="438.775" width="2.015" height="0.306" style="fill:#463174;fill-rule:nonzero;"/><path d="M286.738,440.547l1.481,0l0,0.3l-1.896,0l0,-0.3l1.456,-2.227l-1.43,0l0,-0.301l1.844,0l0,0.301l-1.455,2.227Z" style="fill:#463174;fill-rule:nonzero;"/><path d="M289.022,440.547l1.481,0l0,0.3l-1.896,0l0,-0.3l1.456,-2.227l-1.43,0l0,-0.301l1.844,0l0,0.301l-1.455,2.227Z" style="fill:#463174;fill-rule:nonzero;"/><path d="M291.306,440.547l1.481,0l0,0.3l-1.896,0l0,-0.3l1.456,-2.227l-1.43,0l0,-0.301l1.844,0l0,0.301l-1.455,2.227Z" style="fill:#463174;fill-rule:nonzero;"/></g><g><path d="M234.708,455.329c0,-4.558 3.709,-8.25 8.25,-8.25l26.25,0c4.584,0 8.25,3.692 8.25,8.25c0,4.554 -3.666,8.25 -8.25,8.25l-26.25,0c-4.541,0 -8.25,-3.696 -8.25,-8.25Z" style="fill:#008080;fill-rule:nonzero;"/><g><path d="M247.644,453.521l0,2.199c0,0.34 -0.096,0.602 -0.287,0.786c-0.192,0.184 -0.45,0.276 -0.775,0.276c-0.341,0 -0.614,-0.096 -0.819,-0.29c-0.205,-0.193 -0.308,-0.467 -0.308,-0.823l0.782,0c0,0.135 0.027,0.237 0.082,0.306c0.056,0.069 0.135,0.104 0.24,0.104c0.095,0 0.168,-0.031 0.22,-0.092c0.053,-0.062 0.079,-0.151 0.079,-0.267l0,-2.199l0.786,0Z" style="fill:#fff;fill-rule:nonzero;"/><path d="M249.447,456.787c-0.252,0 -0.478,-0.054 -0.679,-0.161c-0.2,-0.107 -0.358,-0.261 -0.473,-0.46c-0.115,-0.199 -0.173,-0.432 -0.173,-0.699c0,-0.264 0.059,-0.496 0.175,-0.697c0.117,-0.201 0.276,-0.355 0.478,-0.462c0.203,-0.107 0.43,-0.161 0.681,-0.161c0.251,0 0.478,0.054 0.681,0.161c0.202,0.107 0.362,0.261 0.478,0.462c0.117,0.201 0.175,0.433 0.175,0.697c0,0.264 -0.059,0.496 -0.177,0.697c-0.118,0.2 -0.279,0.355 -0.483,0.462c-0.204,0.107 -0.432,0.161 -0.683,0.161Zm0,-0.681c0.15,0 0.278,-0.055 0.384,-0.165c0.106,-0.111 0.159,-0.269 0.159,-0.474c0,-0.206 -0.052,-0.363 -0.155,-0.474c-0.102,-0.11 -0.229,-0.165 -0.379,-0.165c-0.153,0 -0.28,0.054 -0.382,0.163c-0.101,0.109 -0.151,0.267 -0.151,0.476c0,0.205 0.049,0.363 0.149,0.474c0.1,0.11 0.225,0.165 0.375,0.165Z" style="fill:#fff;fill-rule:nonzero;"/><path d="M251.604,453.917c-0.138,0 -0.251,-0.041 -0.338,-0.122c-0.088,-0.081 -0.131,-0.182 -0.131,-0.301c0,-0.123 0.043,-0.225 0.131,-0.306c0.087,-0.081 0.2,-0.122 0.338,-0.122c0.135,0 0.246,0.041 0.333,0.122c0.088,0.081 0.131,0.183 0.131,0.306c0,0.119 -0.043,0.22 -0.131,0.301c-0.087,0.081 -0.198,0.122 -0.333,0.122Zm0.391,0.267l0,2.566l-0.787,0l0,-2.566l0.787,0Z" style="fill:#fff;fill-rule:nonzero;"/><path d="M254.129,454.156c0.3,0 0.54,0.097 0.719,0.292c0.18,0.195 0.27,0.462 0.27,0.803l0,1.499l-0.782,0l0,-1.394c0,-0.171 -0.045,-0.305 -0.134,-0.4c-0.089,-0.095 -0.208,-0.142 -0.358,-0.142c-0.151,0 -0.27,0.047 -0.359,0.142c-0.089,0.095 -0.134,0.229 -0.134,0.4l0,1.394l-0.786,0l0,-2.566l0.786,0l0,0.34c0.08,-0.113 0.188,-0.203 0.322,-0.269c0.135,-0.066 0.287,-0.099 0.456,-0.099Z" style="fill:#fff;fill-rule:nonzero;"/><path d="M259.528,456.75l-0.786,0l-1.316,-1.991l0,1.991l-0.786,0l0,-3.229l0.786,0l1.316,2.001l0,-2.001l0.786,0l0,3.229Z" style="fill:#fff;fill-rule:nonzero;"/><path d="M261.267,456.787c-0.252,0 -0.478,-0.054 -0.679,-0.161c-0.201,-0.107 -0.359,-0.261 -0.474,-0.46c-0.115,-0.199 -0.172,-0.432 -0.172,-0.699c0,-0.264 0.058,-0.496 0.175,-0.697c0.116,-0.201 0.276,-0.355 0.478,-0.462c0.202,-0.107 0.429,-0.161 0.681,-0.161c0.251,0 0.478,0.054 0.68,0.161c0.203,0.107 0.362,0.261 0.479,0.462c0.116,0.201 0.174,0.433 0.174,0.697c0,0.264 -0.059,0.496 -0.177,0.697c-0.118,0.2 -0.279,0.355 -0.483,0.462c-0.203,0.107 -0.431,0.161 -0.682,0.161Zm0,-0.681c0.15,0 0.278,-0.055 0.384,-0.165c0.105,-0.111 0.158,-0.269 0.158,-0.474c0,-0.206 -0.051,-0.363 -0.154,-0.474c-0.103,-0.11 -0.229,-0.165 -0.379,-0.165c-0.154,0 -0.281,0.054 -0.382,0.163c-0.101,0.109 -0.152,0.267 -0.152,0.476c0,0.205 0.05,0.363 0.15,0.474c0.099,0.11 0.224,0.165 0.375,0.165Z" style="fill:#fff;fill-rule:nonzero;"/><path d="M266.712,454.184l-0.695,2.566l-0.869,0l-0.405,-1.665l-0.418,1.665l-0.865,0l-0.699,-2.566l0.787,0l0.363,1.835l0.432,-1.835l0.833,0l0.437,1.826l0.358,-1.826l0.741,0Z" style="fill:#fff;fill-rule:nonzero;"/></g></g></g><g><path d="M414.875,523.204c0,-4.729 35.875,-12.333 -22.458,-12.333l-220.709,0c-12.333,0 -22.333,10.012 -22.333,22.366l0,59.359c0,12.35 10,22.362 22.333,22.362l220.709,0c12.375,0 22.375,-10.012 22.375,-22.362l0,-65.575l0.083,-3.817Z" style="fill:#fff;fill-rule:nonzero;"/><path d="M397.458,561.808c0,-1.129 -0.916,-2.045 -2.041,-2.045l-58.417,0c-1.125,0 -2.042,0.916 -2.042,2.045c0,1.13 0.917,2.046 2.042,2.046l58.417,0c1.125,0 2.041,-0.917 2.041,-2.046Z" style="fill:#ddd;fill-rule:nonzero;"/><path d="M397.458,576.633c0,-1.129 -0.916,-2.046 -2.041,-2.046l-100.084,0c-1.125,0 -2.041,0.917 -2.041,2.046c0,1.129 0.916,2.046 2.041,2.046l100.084,0c1.125,0 2.041,-0.917 2.041,-2.046Z" style="fill:#ddd;fill-rule:nonzero;"/><path d="M272.792,561.808c0,-1.129 -0.917,-2.045 -2.042,-2.045l-100.083,0c-1.125,0 -2.042,0.916 -2.042,2.045c0,1.13 0.917,2.046 2.042,2.046l100.083,0c1.125,0 2.042,-0.917 2.042,-2.046Z" style="fill:#ddd;fill-rule:nonzero;"/><path d="M272.792,591.133c0,-1.129 -0.917,-2.046 -2.042,-2.046l-100.083,0c-1.125,0 -2.042,0.917 -2.042,2.046c0,1.129 0.917,2.042 2.042,2.042l100.083,0c1.125,0 2.042,-0.913 2.042,-2.042Z" style="fill:#ddd;fill-rule:nonzero;"/><path d="M189.458,576.633c0,-1.129 -0.916,-2.046 -2.041,-2.046l-16.75,0c-1.125,0 -2.042,0.917 -2.042,2.046c0,1.129 0.917,2.046 2.042,2.046l16.75,0c1.125,0 2.041,-0.917 2.041,-2.046Z" style="fill:#ddd;fill-rule:nonzero;"/><path d="M229.5,576.633c0,-1.129 -0.917,-2.046 -2.042,-2.046l-16.75,0c-1.125,0 -2.041,0.917 -2.041,2.046c0,1.129 0.916,2.046 2.041,2.046l16.75,0c1.125,0 2.042,-0.917 2.042,-2.046Z" style="fill:#ddd;fill-rule:nonzero;"/><path d="M331.542,561.771c0,-1.15 -0.917,-2.083 -2.084,-2.083c-1.125,0 -2.083,0.933 -2.083,2.083c0,1.15 0.958,2.083 2.083,2.083c1.167,0 2.084,-0.933 2.084,-2.083Z" style="fill:#ddd;fill-rule:nonzero;"/><path d="M280.333,561.846c0,-1.15 -0.958,-2.083 -2.083,-2.083c-1.167,0 -2.083,0.933 -2.083,2.083c0,1.154 0.916,2.083 2.083,2.083c1.125,0 2.083,-0.929 2.083,-2.083Z" style="fill:#ddd;fill-rule:nonzero;"/><path d="M236.792,576.671c0,-1.15 -0.917,-2.084 -2.084,-2.084c-1.125,0 -2.083,0.934 -2.083,2.084c0,1.154 0.958,2.083 2.083,2.083c1.167,0 2.084,-0.929 2.084,-2.083Z" style="fill:#ddd;fill-rule:nonzero;"/><path d="M205.417,576.671c0,-1.15 -0.959,-2.084 -2.084,-2.084c-1.166,0 -2.083,0.934 -2.083,2.084c0,1.154 0.917,2.083 2.083,2.083c1.125,0 2.084,-0.929 2.084,-2.083Z" style="fill:#ddd;fill-rule:nonzero;"/><path d="M197.333,576.671c0,-1.15 -0.958,-2.084 -2.083,-2.084c-1.167,0 -2.083,0.934 -2.083,2.084c0,1.154 0.916,2.083 2.083,2.083c1.125,0 2.083,-0.929 2.083,-2.083Z" style="fill:#ddd;fill-rule:nonzero;"/><path d="M289.667,576.671c0,-1.15 -0.917,-2.084 -2.084,-2.084c-1.125,0 -2.083,0.934 -2.083,2.084c0,1.154 0.958,2.083 2.083,2.083c1.167,0 2.084,-0.929 2.084,-2.083Z" style="fill:#ddd;fill-rule:nonzero;"/><path d="M308.292,591.171c0,-1.15 -0.917,-2.084 -2.084,-2.084c-1.166,0 -2.083,0.934 -2.083,2.084c0,1.15 0.917,2.083 2.083,2.083c1.167,0 2.084,-0.933 2.084,-2.083Z" style="fill:#ddd;fill-rule:nonzero;"/><path d="M354.458,591.133c0,-1.154 -0.916,-2.083 -2.083,-2.083c-1.167,0 -2.083,0.929 -2.083,2.083c0,1.15 0.916,2.084 2.083,2.084c1.167,0 2.083,-0.934 2.083,-2.084Z" style="fill:#ddd;fill-rule:nonzero;"/><path d="M278.875,591.171c0,-1.15 -0.917,-2.084 -2.083,-2.084c-1.167,0 -2.084,0.934 -2.084,2.084c0,1.15 0.917,2.083 2.084,2.083c1.166,0 2.083,-0.933 2.083,-2.083Z" style="fill:#ddd;fill-rule:nonzero;"/><path d="M301.167,591.133c0,-1.129 -0.917,-2.046 -2.042,-2.046l-16.75,0c-1.125,0 -2.042,0.917 -2.042,2.046c0,1.129 0.917,2.042 2.042,2.042l16.75,0c1.125,0 2.042,-0.913 2.042,-2.042Z" style="fill:#ddd;fill-rule:nonzero;"/><path d="M397.458,591.133c0,-1.129 -0.916,-2.046 -2.041,-2.046l-37.584,0c-1.125,0 -2.041,0.917 -2.041,2.046c0,1.129 0.916,2.042 2.041,2.042l37.584,0c1.125,0 2.041,-0.913 2.041,-2.042Z" style="fill:#ddd;fill-rule:nonzero;"/><path d="M281.417,576.633c0,-1.129 -0.875,-2.046 -2.042,-2.046l-37.542,0c-1.166,0 -2.083,0.917 -2.083,2.046c0,1.129 0.917,2.046 2.083,2.046l37.542,0c1.167,0 2.042,-0.917 2.042,-2.046Z" style="fill:#ddd;fill-rule:nonzero;"/><path d="M324.958,561.808c0,-1.129 -0.916,-2.045 -2.041,-2.045l-37.584,0c-1.125,0 -2.041,0.916 -2.041,2.045c0,1.13 0.916,2.046 2.041,2.046l37.584,0c1.125,0 2.041,-0.917 2.041,-2.046Z" style="fill:#ddd;fill-rule:nonzero;"/><path d="M349,591.133c0,-1.129 -0.917,-2.046 -2.042,-2.046l-34.166,0c-1.167,0 -2.084,0.917 -2.084,2.046c0,1.129 0.917,2.042 2.084,2.042l34.166,0c1.125,0 2.042,-0.913 2.042,-2.042Z" style="fill:#ddd;fill-rule:nonzero;"/><path d="M394.417,536.933c0,-5.754 -4.667,-10.416 -10.417,-10.416c-5.75,0 -10.417,4.662 -10.417,10.416c0,5.755 4.667,10.417 10.417,10.417c5.75,0 10.417,-4.663 10.417,-10.417Z" style="fill:#463174;fill-rule:nonzero;"/><g><path d="M343.788,531.621l-4.025,7.76l0,4.144l-2.388,0l0,-4.144l-4.042,-7.76l2.695,0l2.558,5.44l2.541,-5.44l2.661,0Z" style="fill:#593f92;fill-rule:nonzero;"/><path d="M349.365,543.678c-0.91,0 -1.728,-0.201 -2.456,-0.605c-0.728,-0.404 -1.299,-0.975 -1.714,-1.714c-0.415,-0.739 -0.623,-1.592 -0.623,-2.558c0,-0.967 0.214,-1.819 0.64,-2.558c0.426,-0.739 1.009,-1.311 1.748,-1.714c0.739,-0.404 1.564,-0.606 2.473,-0.606c0.91,0 1.734,0.202 2.473,0.606c0.739,0.403 1.322,0.975 1.748,1.714c0.427,0.739 0.64,1.591 0.64,2.558c0,0.966 -0.219,1.819 -0.657,2.558c-0.438,0.739 -1.029,1.31 -1.774,1.714c-0.744,0.404 -1.577,0.605 -2.498,0.605Zm0,-2.08c0.432,0 0.838,-0.105 1.219,-0.316c0.381,-0.21 0.685,-0.526 0.913,-0.946c0.227,-0.421 0.341,-0.933 0.341,-1.535c0,-0.898 -0.236,-1.589 -0.708,-2.072c-0.472,-0.484 -1.049,-0.725 -1.731,-0.725c-0.682,0 -1.254,0.241 -1.714,0.725c-0.46,0.483 -0.691,1.174 -0.691,2.072c0,0.898 0.225,1.589 0.674,2.072c0.449,0.483 1.015,0.725 1.697,0.725Z" style="fill:#593f92;fill-rule:nonzero;"/><path d="M364.97,534.077l0,9.448l-2.405,0l0,-1.194c-0.307,0.409 -0.707,0.731 -1.202,0.964c-0.495,0.233 -1.032,0.349 -1.612,0.349c-0.739,0 -1.392,-0.156 -1.961,-0.469c-0.568,-0.312 -1.015,-0.773 -1.339,-1.381c-0.324,-0.608 -0.486,-1.333 -0.486,-2.175l0,-5.542l2.388,0l0,5.201c0,0.751 0.187,1.328 0.563,1.731c0.375,0.404 0.886,0.606 1.535,0.606c0.659,0 1.176,-0.202 1.552,-0.606c0.375,-0.403 0.562,-0.98 0.562,-1.731l0,-5.201l2.405,0Z" style="fill:#593f92;fill-rule:nonzero;"/></g></g></g></g><g><path d="M108.917,655.729c0,-10.116 8.208,-18.317 18.333,-18.317l271.958,0c10.125,0 18.334,8.201 18.334,18.317l0,13.246c0,10.117 -8.209,18.317 -18.334,18.317l-271.958,0c-10.125,0 -18.333,-8.2 -18.333,-18.317l0,-13.246Z" style="fill:#f7f7f7;fill-rule:nonzero;"/><g><path d="M144.033,657.94l0,5.351c0,0.527 0.1,0.89 0.3,1.09c0.2,0.199 0.552,0.299 1.057,0.299l1.011,0l0,0.948l-1.184,0c-0.779,0 -1.358,-0.182 -1.737,-0.545c-0.379,-0.363 -0.568,-0.96 -0.568,-1.792l0,-5.351l-1.2,0l0,-0.931l1.2,0l0,-2.163l1.121,0l0,2.163l2.368,0l0,0.931l-2.368,0Z" style="fill:#ddd;fill-rule:nonzero;"/><path d="M155.319,657.009l-5.114,12.676l-1.152,0l1.673,-4.105l-3.536,-8.571l1.215,0l2.936,7.356l2.842,-7.356l1.136,0Z" style="fill:#ddd;fill-rule:nonzero;"/><path d="M157.908,658.903c0.274,-0.579 0.708,-1.06 1.303,-1.444c0.594,-0.385 1.302,-0.577 2.123,-0.577c0.778,0 1.481,0.182 2.107,0.545c0.626,0.363 1.116,0.879 1.468,1.547c0.353,0.668 0.529,1.444 0.529,2.328c0,0.884 -0.176,1.663 -0.529,2.337c-0.352,0.673 -0.842,1.194 -1.468,1.562c-0.626,0.369 -1.329,0.553 -2.107,0.553c-0.811,0 -1.516,-0.192 -2.116,-0.576c-0.599,-0.384 -1.036,-0.866 -1.31,-1.445l0,5.967l-1.089,0l0,-12.691l1.089,0l0,1.894Zm6.409,2.399c0,-0.715 -0.139,-1.334 -0.418,-1.854c-0.279,-0.521 -0.66,-0.919 -1.145,-1.192c-0.484,-0.274 -1.031,-0.411 -1.641,-0.411c-0.59,0 -1.129,0.142 -1.618,0.426c-0.49,0.285 -0.876,0.69 -1.161,1.216c-0.284,0.526 -0.426,1.137 -0.426,1.831c0,0.695 0.142,1.305 0.426,1.831c0.285,0.526 0.671,0.932 1.161,1.216c0.489,0.284 1.028,0.426 1.618,0.426c0.61,0 1.157,-0.139 1.641,-0.418c0.485,-0.279 0.866,-0.684 1.145,-1.216c0.279,-0.531 0.418,-1.15 0.418,-1.855Z" style="fill:#ddd;fill-rule:nonzero;"/><path d="M175.272,660.876c0,0.379 -0.01,0.668 -0.031,0.868l-7.151,0c0.032,0.653 0.189,1.211 0.474,1.674c0.284,0.463 0.657,0.813 1.12,1.049c0.463,0.237 0.969,0.356 1.516,0.356c0.715,0 1.318,-0.174 1.807,-0.521c0.49,-0.348 0.813,-0.816 0.971,-1.405l1.168,0c-0.21,0.842 -0.66,1.528 -1.35,2.06c-0.689,0.531 -1.554,0.797 -2.596,0.797c-0.811,0 -1.537,-0.182 -2.179,-0.545c-0.642,-0.363 -1.144,-0.878 -1.507,-1.547c-0.363,-0.668 -0.545,-1.449 -0.545,-2.344c0,-0.894 0.179,-1.678 0.537,-2.352c0.358,-0.673 0.858,-1.189 1.5,-1.547c0.641,-0.358 1.373,-0.537 2.194,-0.537c0.821,0 1.539,0.179 2.154,0.537c0.616,0.358 1.09,0.839 1.421,1.444c0.332,0.606 0.497,1.276 0.497,2.013Zm-1.12,-0.031c0.01,-0.642 -0.119,-1.19 -0.387,-1.642c-0.268,-0.453 -0.634,-0.795 -1.097,-1.026c-0.463,-0.232 -0.968,-0.347 -1.516,-0.347c-0.82,0 -1.52,0.263 -2.099,0.789c-0.579,0.526 -0.9,1.268 -0.963,2.226l6.062,0Z" style="fill:#ddd;fill-rule:nonzero;"/><path d="M181.113,661.302c0,-0.884 0.176,-1.66 0.529,-2.328c0.352,-0.668 0.842,-1.184 1.468,-1.547c0.626,-0.363 1.334,-0.545 2.123,-0.545c0.821,0 1.529,0.19 2.123,0.569c0.595,0.379 1.024,0.863 1.287,1.452l0,-1.894l1.105,0l0,8.619l-1.105,0l0,-1.91c-0.274,0.589 -0.708,1.076 -1.302,1.46c-0.595,0.384 -1.303,0.576 -2.124,0.576c-0.778,0 -1.481,-0.184 -2.107,-0.553c-0.626,-0.368 -1.116,-0.889 -1.468,-1.562c-0.353,-0.674 -0.529,-1.453 -0.529,-2.337Zm7.53,0.016c0,-0.694 -0.142,-1.305 -0.426,-1.831c-0.285,-0.526 -0.671,-0.931 -1.161,-1.216c-0.489,-0.284 -1.028,-0.426 -1.618,-0.426c-0.61,0 -1.157,0.137 -1.641,0.411c-0.484,0.273 -0.866,0.671 -1.145,1.192c-0.279,0.52 -0.418,1.139 -0.418,1.854c0,0.705 0.139,1.324 0.418,1.855c0.279,0.532 0.661,0.937 1.145,1.216c0.484,0.279 1.031,0.418 1.641,0.418c0.59,0 1.129,-0.142 1.618,-0.426c0.49,-0.284 0.876,-0.69 1.161,-1.216c0.284,-0.526 0.426,-1.136 0.426,-1.831Z" style="fill:#ddd;fill-rule:nonzero;"/><path d="M206.859,656.851c1.011,0 1.834,0.318 2.471,0.955c0.637,0.637 0.955,1.56 0.955,2.77l0,5.052l-1.089,0l0,-4.926c0,-0.936 -0.227,-1.652 -0.679,-2.146c-0.453,-0.495 -1.068,-0.742 -1.847,-0.742c-0.81,0 -1.458,0.268 -1.942,0.805c-0.484,0.536 -0.726,1.315 -0.726,2.336l0,4.673l-1.089,0l0,-4.926c0,-0.936 -0.226,-1.652 -0.679,-2.146c-0.452,-0.495 -1.073,-0.742 -1.862,-0.742c-0.811,0 -1.458,0.268 -1.942,0.805c-0.484,0.536 -0.726,1.315 -0.726,2.336l0,4.673l-1.105,0l0,-8.619l1.105,0l0,1.483c0.273,-0.536 0.663,-0.944 1.168,-1.223c0.505,-0.279 1.068,-0.418 1.689,-0.418c0.747,0 1.402,0.179 1.965,0.537c0.563,0.357 0.971,0.883 1.224,1.578c0.231,-0.684 0.628,-1.208 1.192,-1.571c0.563,-0.363 1.202,-0.544 1.917,-0.544Z" style="fill:#ddd;fill-rule:nonzero;"/><path d="M220.53,660.876c0,0.379 -0.011,0.668 -0.032,0.868l-7.151,0c0.032,0.653 0.19,1.211 0.474,1.674c0.284,0.463 0.658,0.813 1.121,1.049c0.463,0.237 0.968,0.356 1.515,0.356c0.716,0 1.318,-0.174 1.808,-0.521c0.489,-0.348 0.813,-0.816 0.97,-1.405l1.169,0c-0.211,0.842 -0.661,1.528 -1.35,2.06c-0.689,0.531 -1.555,0.797 -2.597,0.797c-0.81,0 -1.536,-0.182 -2.178,-0.545c-0.642,-0.363 -1.145,-0.878 -1.508,-1.547c-0.363,-0.668 -0.544,-1.449 -0.544,-2.344c0,-0.894 0.178,-1.678 0.536,-2.352c0.358,-0.673 0.858,-1.189 1.5,-1.547c0.642,-0.358 1.373,-0.537 2.194,-0.537c0.821,0 1.539,0.179 2.155,0.537c0.615,0.358 1.089,0.839 1.421,1.444c0.331,0.606 0.497,1.276 0.497,2.013Zm-1.121,-0.031c0.011,-0.642 -0.118,-1.19 -0.387,-1.642c-0.268,-0.453 -0.634,-0.795 -1.097,-1.026c-0.463,-0.232 -0.968,-0.347 -1.515,-0.347c-0.821,0 -1.521,0.263 -2.1,0.789c-0.579,0.526 -0.9,1.268 -0.963,2.226l6.062,0Z" style="fill:#ddd;fill-rule:nonzero;"/><path d="M225.518,665.754c-0.989,0 -1.797,-0.229 -2.423,-0.687c-0.626,-0.458 -0.976,-1.081 -1.05,-1.87l1.137,0c0.052,0.484 0.281,0.876 0.686,1.176c0.406,0.3 0.95,0.45 1.634,0.45c0.6,0 1.071,-0.143 1.413,-0.427c0.342,-0.284 0.513,-0.636 0.513,-1.057c0,-0.295 -0.095,-0.537 -0.284,-0.726c-0.189,-0.19 -0.429,-0.34 -0.718,-0.45c-0.29,-0.111 -0.682,-0.229 -1.176,-0.356c-0.642,-0.168 -1.163,-0.336 -1.563,-0.505c-0.4,-0.168 -0.739,-0.418 -1.018,-0.749c-0.279,-0.332 -0.419,-0.777 -0.419,-1.334c0,-0.421 0.127,-0.811 0.379,-1.168c0.253,-0.358 0.611,-0.642 1.074,-0.853c0.463,-0.21 0.989,-0.316 1.578,-0.316c0.926,0 1.674,0.235 2.242,0.703c0.568,0.468 0.873,1.113 0.915,1.934l-1.105,0c-0.031,-0.506 -0.228,-0.913 -0.592,-1.224c-0.363,-0.31 -0.86,-0.465 -1.491,-0.465c-0.558,0 -1.011,0.131 -1.358,0.394c-0.347,0.263 -0.521,0.589 -0.521,0.979c0,0.337 0.103,0.613 0.308,0.829c0.205,0.215 0.46,0.384 0.766,0.505c0.305,0.121 0.715,0.255 1.231,0.402c0.621,0.169 1.115,0.332 1.484,0.49c0.368,0.157 0.684,0.389 0.947,0.694c0.263,0.305 0.4,0.711 0.41,1.216c0,0.463 -0.126,0.876 -0.379,1.239c-0.252,0.363 -0.605,0.65 -1.057,0.86c-0.453,0.211 -0.974,0.316 -1.563,0.316Z" style="fill:#ddd;fill-rule:nonzero;"/><path d="M233.569,665.754c-0.989,0 -1.797,-0.229 -2.423,-0.687c-0.627,-0.458 -0.976,-1.081 -1.05,-1.87l1.136,0c0.053,0.484 0.282,0.876 0.687,1.176c0.405,0.3 0.95,0.45 1.634,0.45c0.6,0 1.071,-0.143 1.413,-0.427c0.342,-0.284 0.513,-0.636 0.513,-1.057c0,-0.295 -0.095,-0.537 -0.284,-0.726c-0.19,-0.19 -0.429,-0.34 -0.719,-0.45c-0.289,-0.111 -0.681,-0.229 -1.176,-0.356c-0.642,-0.168 -1.162,-0.336 -1.562,-0.505c-0.4,-0.168 -0.74,-0.418 -1.019,-0.749c-0.278,-0.332 -0.418,-0.777 -0.418,-1.334c0,-0.421 0.126,-0.811 0.379,-1.168c0.253,-0.358 0.61,-0.642 1.073,-0.853c0.463,-0.21 0.99,-0.316 1.579,-0.316c0.926,0 1.673,0.235 2.242,0.703c0.568,0.468 0.873,1.113 0.915,1.934l-1.105,0c-0.031,-0.506 -0.229,-0.913 -0.592,-1.224c-0.363,-0.31 -0.86,-0.465 -1.492,-0.465c-0.557,0 -1.01,0.131 -1.357,0.394c-0.347,0.263 -0.521,0.589 -0.521,0.979c0,0.337 0.103,0.613 0.308,0.829c0.205,0.215 0.46,0.384 0.765,0.505c0.306,0.121 0.716,0.255 1.232,0.402c0.62,0.169 1.115,0.332 1.483,0.49c0.369,0.157 0.684,0.389 0.948,0.694c0.263,0.305 0.399,0.711 0.41,1.216c0,0.463 -0.126,0.876 -0.379,1.239c-0.252,0.363 -0.605,0.65 -1.057,0.86c-0.453,0.211 -0.974,0.316 -1.563,0.316Z" style="fill:#ddd;fill-rule:nonzero;"/><path d="M238.147,661.302c0,-0.884 0.176,-1.66 0.528,-2.328c0.353,-0.668 0.842,-1.184 1.468,-1.547c0.627,-0.363 1.334,-0.545 2.124,-0.545c0.82,0 1.528,0.19 2.123,0.569c0.594,0.379 1.023,0.863 1.286,1.452l0,-1.894l1.105,0l0,8.619l-1.105,0l0,-1.91c-0.273,0.589 -0.707,1.076 -1.302,1.46c-0.595,0.384 -1.302,0.576 -2.123,0.576c-0.779,0 -1.481,-0.184 -2.108,-0.553c-0.626,-0.368 -1.115,-0.889 -1.468,-1.562c-0.352,-0.674 -0.528,-1.453 -0.528,-2.337Zm7.529,0.016c0,-0.694 -0.142,-1.305 -0.426,-1.831c-0.284,-0.526 -0.671,-0.931 -1.16,-1.216c-0.489,-0.284 -1.029,-0.426 -1.618,-0.426c-0.611,0 -1.158,0.137 -1.642,0.411c-0.484,0.273 -0.865,0.671 -1.144,1.192c-0.279,0.52 -0.419,1.139 -0.419,1.854c0,0.705 0.14,1.324 0.419,1.855c0.279,0.532 0.66,0.937 1.144,1.216c0.484,0.279 1.031,0.418 1.642,0.418c0.589,0 1.129,-0.142 1.618,-0.426c0.489,-0.284 0.876,-0.69 1.16,-1.216c0.284,-0.526 0.426,-1.136 0.426,-1.831Z" style="fill:#ddd;fill-rule:nonzero;"/><path d="M252.922,656.882c0.81,0 1.515,0.19 2.115,0.569c0.6,0.379 1.032,0.857 1.295,1.436l0,-1.878l1.105,0l0,8.84c0,0.789 -0.171,1.489 -0.513,2.099c-0.342,0.61 -0.819,1.081 -1.429,1.413c-0.61,0.331 -1.305,0.497 -2.084,0.497c-1.105,0 -2.023,-0.263 -2.754,-0.789c-0.732,-0.526 -1.187,-1.242 -1.366,-2.147l1.089,0c0.19,0.6 0.55,1.079 1.082,1.437c0.531,0.357 1.181,0.536 1.949,0.536c0.558,0 1.058,-0.118 1.5,-0.355c0.442,-0.237 0.789,-0.587 1.042,-1.05c0.252,-0.463 0.379,-1.01 0.379,-1.641l0,-2.131c-0.274,0.589 -0.708,1.076 -1.303,1.46c-0.594,0.384 -1.297,0.576 -2.107,0.576c-0.789,0 -1.497,-0.184 -2.123,-0.553c-0.626,-0.368 -1.116,-0.889 -1.468,-1.562c-0.353,-0.674 -0.529,-1.453 -0.529,-2.337c0,-0.884 0.176,-1.66 0.529,-2.328c0.352,-0.668 0.842,-1.184 1.468,-1.547c0.626,-0.363 1.334,-0.545 2.123,-0.545Zm3.41,4.436c0,-0.694 -0.142,-1.305 -0.427,-1.831c-0.284,-0.526 -0.67,-0.931 -1.16,-1.216c-0.489,-0.284 -1.029,-0.426 -1.618,-0.426c-0.61,0 -1.157,0.137 -1.642,0.411c-0.484,0.273 -0.865,0.671 -1.144,1.192c-0.279,0.52 -0.418,1.139 -0.418,1.854c0,0.705 0.139,1.324 0.418,1.855c0.279,0.532 0.66,0.937 1.144,1.216c0.485,0.279 1.032,0.418 1.642,0.418c0.589,0 1.129,-0.142 1.618,-0.426c0.49,-0.284 0.876,-0.69 1.16,-1.216c0.285,-0.526 0.427,-1.136 0.427,-1.831Z" style="fill:#ddd;fill-rule:nonzero;"/><path d="M267.76,660.876c0,0.379 -0.01,0.668 -0.031,0.868l-7.151,0c0.032,0.653 0.189,1.211 0.474,1.674c0.284,0.463 0.657,0.813 1.12,1.049c0.463,0.237 0.968,0.356 1.516,0.356c0.715,0 1.318,-0.174 1.807,-0.521c0.49,-0.348 0.813,-0.816 0.971,-1.405l1.168,0c-0.21,0.842 -0.66,1.528 -1.35,2.06c-0.689,0.531 -1.554,0.797 -2.596,0.797c-0.811,0 -1.537,-0.182 -2.179,-0.545c-0.642,-0.363 -1.144,-0.878 -1.507,-1.547c-0.363,-0.668 -0.545,-1.449 -0.545,-2.344c0,-0.894 0.179,-1.678 0.537,-2.352c0.358,-0.673 0.858,-1.189 1.5,-1.547c0.641,-0.358 1.373,-0.537 2.194,-0.537c0.821,0 1.539,0.179 2.154,0.537c0.616,0.358 1.09,0.839 1.421,1.444c0.332,0.606 0.497,1.276 0.497,2.013Zm-1.12,-0.031c0.01,-0.642 -0.119,-1.19 -0.387,-1.642c-0.268,-0.453 -0.634,-0.795 -1.097,-1.026c-0.463,-0.232 -0.968,-0.347 -1.516,-0.347c-0.82,0 -1.52,0.263 -2.099,0.789c-0.579,0.526 -0.9,1.268 -0.963,2.226l6.062,0Z" style="fill:#ddd;fill-rule:nonzero;"/></g></g></g></g></g></svg>