<?xml version="1.0" encoding="UTF-8" standalone="no"?>
<!DOCTYPE svg PUBLIC "-//W3C//DTD SVG 1.1//EN" "http://www.w3.org/Graphics/SVG/1.1/DTD/svg11.dtd">
<!-- Created with Vectornator (http://vectornator.io/) -->
<svg height="100%" stroke-miterlimit="10" style="fill-rule:nonzero;clip-rule:evenodd;stroke-linecap:round;stroke-linejoin:round;" version="1.1" viewBox="74.3073 152.068 279.385 180.825" width="100%" xml:space="preserve" xmlns="http://www.w3.org/2000/svg" xmlns:vectornator="http://vectornator.io" xmlns:xlink="http://www.w3.org/1999/xlink">
<defs/>
<clipPath id="ArtboardFrame">
<rect height="180.825" width="279.385" x="74.3073" y="152.068"/>
</clipPath>
<g clip-path="url(#ArtboardFrame)" id="Layer" vectornator:layerName="Layer">
<g opacity="1" vectornator:layerName="Group 14">
<g opacity="1" vectornator:layerName="Group 13">
<g opacity="1" vectornator:layerName="undraw_faq_re_31cw">
<path d="M286.995 318.702C277.961 309.668 277.961 295.021 286.995 285.988C296.029 276.954 310.675 276.954 319.709 285.988C328.743 295.021 328.743 309.668 319.709 318.702C310.675 327.736 296.029 327.736 286.995 318.702Z" fill="#593f92" fill-rule="nonzero" opacity="1" stroke="none" vectornator:layerName="circle"/>
<path d="M295.739 295.281C295.424 293.86 296.321 292.453 297.742 292.139C299.163 291.824 300.57 292.721 300.885 294.142C301.2 295.563 300.303 296.97 298.881 297.285C297.46 297.599 296.053 296.702 295.739 295.281Z" fill="#ffffff" fill-rule="nonzero" opacity="1" stroke="none" vectornator:layerName="circle"/>
<path d="M302.438 286.706C292.977 286.688 286.336 284.999 286.352 276.427C286.368 267.856 294.05 260.922 303.511 260.94C312.971 260.957 320.628 267.92 320.612 276.491C320.596 285.062 311.899 286.723 302.438 286.706Z" fill="#c0a3ff" fill-rule="nonzero" opacity="1" stroke="none" vectornator:layerName="path"/>
<path d="M339.61 306.212C336.896 315.626 328.972 322.216 320.707 327.814C319.553 328.596 318.399 329.359 317.244 330.105C317.236 330.109 317.228 330.116 317.22 330.119C317.164 330.155 317.109 330.191 317.057 330.227C316.819 330.38 316.58 330.534 316.344 330.686L316.474 330.744C316.474 330.744 316.601 330.812 316.462 330.755C316.42 330.738 316.377 330.722 316.335 330.705C311.534 328.768 306.647 326.689 302.967 323.061C299.15 319.294 296.919 313.385 298.986 308.436C299.258 307.788 299.601 307.172 300.009 306.6C300.177 306.36 300.358 306.13 300.546 305.905C302.867 303.071 306.537 301.712 310.144 302.35C313.751 302.989 316.733 305.525 317.941 308.982C318.548 303.329 313.886 298.593 309.4 295.098C304.911 291.606 299.811 287.802 298.944 282.18C298.459 279.052 299.547 276.02 301.528 273.587C301.59 273.513 301.651 273.439 301.714 273.367C304.126 270.533 307.519 268.712 311.215 268.27C318.097 267.555 324.782 271.198 329.782 275.983C337.829 283.682 342.694 295.508 339.61 306.212Z" fill="#e6e6e6" fill-rule="nonzero" opacity="1" stroke="none" vectornator:layerName="path"/>
<path d="M326.673 293.898C327.994 295.953 329.008 298.19 329.683 300.538C330.255 302.636 330.509 304.808 330.438 306.982C330.253 311.454 328.998 315.817 326.776 319.703C325.103 322.652 323.064 325.377 320.707 327.814C319.553 328.596 318.399 329.359 317.244 330.105C317.236 330.109 317.228 330.116 317.22 330.119C317.164 330.155 317.109 330.191 317.057 330.227C316.819 330.38 316.58 330.534 316.344 330.686C316.344 330.686 316.601 330.812 316.462 330.755C316.42 330.738 316.377 330.722 316.335 330.705C317.209 323.545 314.556 316.407 309.219 311.555C306.582 309.201 303.427 307.503 300.009 306.6C300.177 306.36 300.358 306.13 300.546 305.905C301.865 306.275 303.15 306.761 304.384 307.357C308.796 309.476 312.409 312.959 314.687 317.291C316.732 321.224 317.612 325.659 317.224 330.075C317.421 329.897 317.619 329.714 317.81 329.533C321.459 326.131 324.7 322.227 326.893 317.72C328.796 313.904 329.731 309.679 329.616 305.416C329.437 300.768 327.585 296.463 324.904 292.715C321.965 288.716 318.494 285.138 314.586 282.08C310.647 278.926 306.337 276.265 301.752 274.157C301.537 274.057 301.439 273.806 301.528 273.587C301.559 273.492 301.626 273.413 301.714 273.367C301.806 273.327 301.912 273.332 302 273.379C302.566 273.64 303.128 273.904 303.686 274.179C308.331 276.475 312.672 279.339 316.611 282.705C320.415 285.949 323.997 289.654 326.673 293.898Z" fill="#ffffff" fill-rule="nonzero" opacity="1" stroke="none" vectornator:layerName="path"/>
<path d="M186.91 258.031L184.856 258.031C181.024 258.027 177.919 254.922 177.914 251.09L177.914 249.365C177.914 245.093 178.724 241.516 180.32 238.734C182.255 235.497 184.512 232.465 187.057 229.682C188.746 227.983 190.28 226.136 191.638 224.161C192.612 222.628 193.115 220.842 193.084 219.025C193.084 214.74 190.292 212.657 184.549 212.657C181.363 212.693 178.197 213.168 175.141 214.069C172.751 214.751 170.18 214.272 168.197 212.775C166.213 211.279 165.047 208.938 165.047 206.453L165.047 202.962C165.033 199.891 166.829 197.1 169.63 195.841C175.027 193.538 180.848 192.393 186.716 192.48C192.863 192.48 198.412 193.512 203.21 195.549C208.016 197.589 211.813 200.467 214.496 204.102C217.17 207.711 218.591 212.095 218.543 216.587C218.543 221.41 217.227 225.611 214.63 229.073C212.061 232.5 208.379 236.252 203.685 240.224C201.212 242.281 198.868 244.489 196.668 246.835C195.247 248.366 194.242 250.236 193.751 252.266C193.185 255.601 190.293 258.039 186.91 258.031Z" fill="#c0a3ff" fill-rule="nonzero" opacity="1" stroke="none" vectornator:layerName="path"/>
<path d="M185.768 290.674L185.497 290.674C178.395 290.669 172.64 284.911 172.64 277.809C172.64 270.707 178.395 264.948 185.497 264.944L185.768 264.944C192.876 264.939 198.641 270.7 198.641 277.809C198.641 284.917 192.876 290.678 185.768 290.674Z" fill="#c0a3ff" fill-rule="nonzero" opacity="1" stroke="none" vectornator:layerName="path"/>
<path d="M352.8 332.303L75.1999 332.303C74.7069 332.303 74.3073 332.116 74.3073 331.887C74.3073 331.657 74.7069 331.471 75.1999 331.471L352.8 331.471C353.293 331.471 353.693 331.657 353.693 331.887C353.693 332.116 353.293 332.303 352.8 332.303Z" fill="#cccccc" fill-rule="nonzero" opacity="1" stroke="none" vectornator:layerName="path"/>
<path d="M292.777 232.101L278.811 232.101C277.329 232.099 276.127 230.898 276.126 229.415L276.126 215.45C276.127 213.967 277.329 212.766 278.811 212.764L292.777 212.764C294.259 212.766 295.461 213.967 295.462 215.45L295.462 229.415C295.461 230.898 294.259 232.099 292.777 232.101ZM278.811 213.838C277.922 213.839 277.201 214.56 277.2 215.45L277.2 229.415C277.201 230.305 277.922 231.026 278.811 231.027L292.777 231.027C293.666 231.026 294.387 230.305 294.388 229.415L294.388 215.45C294.387 214.56 293.666 213.839 292.777 213.838L278.811 213.838Z" fill="#d1bef9" fill-rule="nonzero" opacity="1" stroke="none" vectornator:layerName="path 1"/>
<path d="M299.222 222.97L285.257 222.97C283.774 222.968 282.573 221.767 282.571 220.284L282.571 206.319C282.573 204.836 283.774 203.635 285.257 203.633L299.222 203.633C300.705 203.635 301.906 204.836 301.908 206.319L301.908 220.284C301.906 221.767 300.705 222.968 299.222 222.97ZM285.257 204.707C284.367 204.708 283.646 205.429 283.645 206.319L283.645 220.284C283.646 221.174 284.367 221.895 285.257 221.895L299.222 221.895C300.112 221.895 300.833 221.174 300.834 220.284L300.834 206.319C300.833 205.429 300.112 204.708 299.222 204.707L285.257 204.707Z" fill="#d1bef9" fill-rule="nonzero" opacity="1" stroke="none" vectornator:layerName="path 2"/>
<path d="M189.11 178.388L175.145 178.388C173.662 178.386 172.461 177.185 172.459 175.702L172.459 161.737C172.461 160.254 173.662 159.053 175.145 159.051L189.11 159.051C190.593 159.053 191.794 160.254 191.796 161.737L191.796 175.702C191.794 177.185 190.593 178.386 189.11 178.388ZM175.145 160.125C174.255 160.126 173.534 160.847 173.533 161.737L173.533 175.702C173.534 176.592 174.255 177.312 175.145 177.313L189.11 177.313C190 177.312 190.72 176.592 190.721 175.702L190.721 161.737C190.72 160.847 190 160.126 189.11 160.125L175.145 160.125Z" fill="#d1bef9" fill-rule="nonzero" opacity="1" stroke="none" vectornator:layerName="path"/>
<path d="M180.516 171.405L166.55 171.405C165.068 171.403 163.866 170.202 163.865 168.719L163.865 154.754C163.866 153.271 165.068 152.07 166.55 152.068L180.516 152.068C181.998 152.07 183.2 153.271 183.202 154.754L183.202 168.719C183.2 170.202 181.998 171.403 180.516 171.405ZM166.55 153.142C165.661 153.143 164.94 153.864 164.939 154.754L164.939 168.719C164.94 169.609 165.661 170.33 166.55 170.331L180.516 170.331C181.405 170.33 182.126 169.609 182.127 168.719L182.127 154.754C182.126 153.864 181.405 153.143 180.516 153.142L166.55 153.142Z" fill="#d1bef9" fill-rule="nonzero" opacity="1" stroke="none" vectornator:layerName="path"/>
<path d="M242.604 250.455C242.604 248.537 244.159 246.981 246.078 246.981C247.996 246.981 249.551 248.537 249.551 250.455C249.551 252.373 247.996 253.929 246.078 253.929C244.159 253.929 242.604 252.373 242.604 250.455Z" fill="#f2f2f2" fill-rule="nonzero" opacity="1" stroke="none" vectornator:layerName="circle"/>
<path d="M102.95 238.101C102.95 236.182 104.505 234.627 106.423 234.627C108.342 234.627 109.897 236.182 109.897 238.101C109.897 240.019 108.342 241.574 106.423 241.574C104.505 241.574 102.95 240.019 102.95 238.101Z" fill="#f2f2f2" fill-rule="nonzero" opacity="1" stroke="none" vectornator:layerName="circle"/>
<path d="M337.14 268.18C337.14 266.262 338.695 264.707 340.613 264.707C342.532 264.707 344.087 266.262 344.087 268.18C344.087 270.099 342.532 271.654 340.613 271.654C338.695 271.654 337.14 270.099 337.14 268.18Z" fill="#f2f2f2" fill-rule="nonzero" opacity="1" stroke="none" vectornator:layerName="circle"/>
</g>
</g>
<g opacity="1" vectornator:layerName="Group 9">
<path d="M132.746 303.692C132.746 287.948 145.6 275.185 161.457 275.185C177.313 275.185 190.167 287.948 190.167 303.692C190.167 319.436 190.167 330.733 161.457 332.199C132.779 333.663 132.746 319.436 132.746 303.692Z" fill="#ffffff" fill-rule="nonzero" opacity="1" stroke="#463174" stroke-linecap="butt" stroke-linejoin="round" stroke-width="1.18" vectornator:layerName="Oval 2"/>
<path d="M157.84 316.826C157.84 315.125 159.648 315.414 161.457 315.414C163.265 315.414 165.073 315.125 165.073 316.826C165.073 318.527 163.454 319.905 161.457 319.905C159.459 319.905 157.84 318.527 157.84 316.826Z" fill="#463174" fill-rule="nonzero" opacity="1" stroke="none" vectornator:layerName="Oval 4"/>
<g opacity="1" vectornator:layerName="Group 4">
<g opacity="1" vectornator:layerName="Group 2">
<path d="M146.893 304.752C146.893 302.728 148.435 301.088 150.337 301.088C152.239 301.088 153.781 302.728 153.781 304.752C153.781 306.775 152.239 308.415 150.337 308.415C148.435 308.415 146.893 306.775 146.893 304.752Z" fill="#463174" fill-rule="nonzero" opacity="1" stroke="none" vectornator:layerName="Oval 4"/>
<path d="M150.337 303.431C150.337 302.701 151 302.11 151.819 302.11C152.637 302.11 153.301 302.701 153.301 303.431C153.301 304.16 152.637 304.752 151.819 304.752C151 304.752 150.337 304.16 150.337 303.431Z" fill="#ffffff" fill-rule="nonzero" opacity="1" stroke="none" vectornator:layerName="Oval 7"/>
</g>
<g opacity="1" vectornator:layerName="Group 1">
<path d="M170.452 304.752C170.452 302.728 171.994 301.088 173.896 301.088C175.798 301.088 177.34 302.728 177.34 304.752C177.34 306.775 175.798 308.415 173.896 308.415C171.994 308.415 170.452 306.775 170.452 304.752Z" fill="#463174" fill-rule="nonzero" opacity="1" stroke="none" vectornator:layerName="Oval 4"/>
<path d="M173.896 303.431C173.896 302.701 174.559 302.11 175.378 302.11C176.196 302.11 176.86 302.701 176.86 303.431C176.86 304.16 176.196 304.752 175.378 304.752C174.559 304.752 173.896 304.16 173.896 303.431Z" fill="#ffffff" fill-rule="nonzero" opacity="1" stroke="none" vectornator:layerName="Oval 7"/>
</g>
</g>
</g>
</g>
</g>
</svg>
