<?xml version="1.0" encoding="UTF-8" standalone="no"?>
<!DOCTYPE svg PUBLIC "-//W3C//DTD SVG 1.1//EN" "http://www.w3.org/Graphics/SVG/1.1/DTD/svg11.dtd">
<!-- Created with Vectornator (http://vectornator.io/) -->
<svg height="100%" stroke-miterlimit="10" style="fill-rule:nonzero;clip-rule:evenodd;stroke-linecap:round;stroke-linejoin:round;" version="1.1" viewBox="2225.07 1418.58 424.961 403.934" width="100%" xml:space="preserve" xmlns="http://www.w3.org/2000/svg" xmlns:vectornator="http://vectornator.io" xmlns:xlink="http://www.w3.org/1999/xlink">
<defs/>
<clipPath id="ArtboardFrame">
<rect height="403.934" width="424.961" x="2225.07" y="1418.58"/>
</clipPath>
<g clip-path="url(#ArtboardFrame)" id="Layer" vectornator:layerName="Layer">
<g opacity="1" vectornator:layerName="Group 46">
<path d="M2225.07 1596.07C2225.07 1714.26 2266.39 1748.56 2392.57 1812.23C2487.15 1859.95 2642.21 1734.16 2649.57 1589.07C2653.69 1507.99 2630.4 1443.05 2564.98 1423.24C2527.54 1411.91 2459.39 1438.65 2417.51 1426.63C2293.55 1391.08 2225.07 1477.89 2225.07 1596.07Z" fill="#ffffff" fill-rule="nonzero" opacity="1" stroke="none" vectornator:layerName="Oval 4"/>
<g opacity="1" vectornator:layerName="Group 1">
<path d="M2566.38 1697.55C2566.06 1698.25 2565.73 1698.95 2565.41 1699.63C2564.91 1700.69 2564.41 1701.73 2563.92 1702.75C2563.7 1703.2 2563.48 1703.64 2563.27 1704.08C2560.85 1709.01 2558.6 1713.37 2556.69 1716.96C2553.15 1723.58 2546.29 1727.74 2538.79 1727.82L2496.25 1728.28L2495.81 1728.28L2492.16 1728.32L2489.04 1728.36L2479.48 1728.46L2479.1 1728.46L2474.23 1728.52L2474.08 1728.52L2444.07 1728.84L2417.28 1729.12L2414.16 1729.16L2394.81 1729.37L2394.78 1729.37L2382.23 1729.5L2382.09 1729.5L2342.4 1729.93L2330.53 1730.06C2329.52 1730.07 2328.51 1730.02 2327.5 1729.91L2327.5 1729.91C2327.16 1729.87 2326.82 1729.82 2326.48 1729.77C2320.94 1728.92 2315.86 1726.19 2312.09 1722.05C2306.99 1716.4 2303.27 1709.87 2300.77 1702.75C2300.41 1701.72 2300.07 1700.68 2299.76 1699.63C2291.12 1670.4 2301.66 1632.72 2320.62 1607.5C2321.41 1606.45 2322.22 1605.42 2323.04 1604.42L2323.06 1604.4C2328.89 1597.24 2335.43 1591.26 2342.39 1587.01C2354.74 1579.46 2368.41 1577.33 2381.86 1583.67C2393.24 1589.03 2403.86 1591.55 2414.16 1592.24C2415.2 1592.31 2416.24 1592.36 2417.28 1592.39C2440.9 1593.13 2463.04 1584.62 2489.05 1579.12C2490.08 1578.9 2491.12 1578.69 2492.16 1578.48C2510.71 1574.79 2531.29 1572.85 2555.76 1576.94C2558.3 1577.35 2560.81 1577.95 2563.27 1578.73C2564.34 1579.08 2565.38 1579.45 2566.38 1579.85C2578.06 1584.61 2584.43 1593.39 2587.14 1604.39C2587.4 1605.41 2587.62 1606.45 2587.8 1607.5C2592.6 1633.96 2578.55 1671.5 2566.38 1697.55Z" fill="#c0a3ff" fill-rule="nonzero" opacity="1" stroke="none" vectornator:layerName="path"/>
<path d="M2436.11 1699.63C2436 1700.68 2435.82 1701.72 2435.59 1702.75L2461.87 1702.75L2461.87 1699.63L2436.11 1699.63ZM2414.16 1717.24L2417.28 1717.22L2417.28 1709.51C2416.21 1709.47 2415.17 1709.42 2414.16 1709.37L2414.16 1717.24ZM2348.83 1699.63L2348.83 1702.75L2404.51 1702.75L2404.51 1699.63L2348.83 1699.63ZM2587.15 1604.39L2566.4 1604.39L2566.4 1579.86C2565.4 1579.45 2564.36 1579.08 2563.28 1578.74L2563.28 1604.4L2492.16 1604.4L2492.16 1578.47C2491.12 1578.68 2490.08 1578.9 2489.05 1579.11L2489.05 1604.39L2417.28 1604.39L2417.28 1592.38C2416.24 1592.35 2415.2 1592.3 2414.16 1592.23L2414.16 1604.39L2342.39 1604.39L2342.39 1587C2335.43 1591.25 2328.89 1597.23 2323.06 1604.39L2323.04 1604.39L2323.04 1604.41C2322.22 1605.42 2321.41 1606.45 2320.62 1607.5L2323.04 1607.5L2323.04 1699.63L2299.76 1699.63C2300.07 1700.68 2300.41 1701.72 2300.77 1702.75L2323.04 1702.75L2323.04 1729.01C2324.16 1729.35 2325.3 1729.61 2326.46 1729.79C2326.8 1729.84 2327.14 1729.89 2327.48 1729.93L2327.48 1729.93C2328.49 1730.04 2329.5 1730.09 2330.51 1730.08L2342.38 1729.95L2342.38 1702.74L2362.19 1702.74L2414.16 1702.74L2414.16 1729.17L2417.28 1729.13L2417.28 1702.75L2489.05 1702.75L2489.05 1728.36L2492.16 1728.32L2492.16 1702.75L2563.27 1702.75L2563.27 1704.08C2563.48 1703.64 2563.7 1703.2 2563.92 1702.75C2564.41 1701.73 2564.91 1700.69 2565.41 1699.63C2565.73 1698.95 2566.06 1698.25 2566.38 1697.55L2566.38 1607.52L2587.82 1607.52C2587.63 1606.45 2587.41 1605.41 2587.15 1604.39ZM2342.39 1699.63L2342.39 1607.5L2414.16 1607.5L2414.16 1699.63L2342.39 1699.63ZM2417.28 1699.63L2417.28 1607.5L2489.05 1607.5L2489.05 1699.63L2417.28 1699.63ZM2563.27 1699.63L2492.16 1699.63L2492.16 1607.5L2563.27 1607.5L2563.27 1699.63Z" fill="#000000" fill-rule="nonzero" opacity="0.1" stroke="none" vectornator:layerName="path"/>
</g>
<g opacity="1" vectornator:layerName=" 98">
<path d="M2333.47 1440.9L2548.87 1440.9L2548.87 1586.74L2333.47 1586.74L2333.47 1440.9Z" fill="#000000" fill-opacity="0" fill-rule="nonzero" opacity="1" stroke="none" vectornator:layerName="path"/>
<path d="M2506.78 1498.26C2503.57 1504.08 2496.54 1504.88 2485.27 1503.77C2476.8 1502.94 2469.07 1502.3 2460.6 1497.6C2454.67 1494.32 2449.97 1489.88 2446.55 1485.57C2442.83 1480.9 2437.65 1475.56 2440.19 1470.27C2443.68 1462.99 2463.87 1456.86 2483.48 1466.88C2505.02 1477.9 2509.92 1492.57 2506.78 1498.26Z" fill="#c0a3ff" fill-rule="nonzero" opacity="1" stroke="none" vectornator:layerName="path"/>
<path d="M2528.57 1510.55C2522.52 1513.59 2514.49 1509.68 2514.49 1509.68C2514.49 1509.68 2516.28 1500.82 2522.33 1497.77C2528.38 1494.73 2536.4 1498.64 2536.4 1498.64C2536.4 1498.64 2534.62 1507.5 2528.57 1510.55Z" fill="#c0a3ff" fill-rule="nonzero" opacity="1" stroke="none" vectornator:layerName="path"/>
<path d="M2356.74 1532.82C2364.64 1537.63 2375.98 1533.18 2375.98 1533.18C2375.98 1533.18 2374.5 1520.94 2366.59 1516.13C2358.69 1511.32 2347.35 1515.76 2347.35 1515.76C2347.35 1515.76 2348.84 1528.01 2356.74 1532.82Z" fill="#c0a3ff" fill-rule="nonzero" opacity="1" stroke="none" vectornator:layerName="path"/>
<path d="M2519.97 1490.12C2519.97 1491.98 2518.49 1493.48 2516.67 1493.48C2514.84 1493.48 2513.37 1491.98 2513.37 1490.12C2513.37 1488.27 2514.84 1486.77 2516.67 1486.77C2518.49 1486.77 2519.97 1488.27 2519.97 1490.12Z" fill="#c0a3ff" fill-rule="nonzero" opacity="1" stroke="none" vectornator:layerName="circle"/>
<path d="M2395.98 1509.13C2395.98 1511.21 2394.31 1512.9 2392.26 1512.9C2390.21 1512.9 2388.54 1511.21 2388.54 1509.13C2388.54 1507.04 2390.21 1505.35 2392.26 1505.35C2394.31 1505.35 2395.98 1507.04 2395.98 1509.13Z" fill="#666af6" fill-rule="nonzero" opacity="1" stroke="none" vectornator:layerName="circle"/>
<path d="M2370.46 1486.94C2370.46 1485.21 2369.08 1483.8 2367.37 1483.8C2365.66 1483.8 2364.27 1485.21 2364.27 1486.94C2364.27 1488.68 2365.66 1490.09 2367.37 1490.09C2369.08 1490.09 2370.46 1488.68 2370.46 1486.94Z" fill="#c0a3ff" fill-rule="nonzero" opacity="1" stroke="none" vectornator:layerName="circle"/>
<path d="M2489.79 1503.3C2489.79 1502.49 2489.14 1501.83 2488.34 1501.83C2487.54 1501.83 2486.9 1502.49 2486.9 1503.3C2486.9 1504.11 2487.54 1504.77 2488.34 1504.77C2489.14 1504.77 2489.79 1504.11 2489.79 1503.3Z" fill="#666af6" fill-rule="nonzero" opacity="1" stroke="none" vectornator:layerName="circle"/>
<path d="M2498.54 1568.79C2498.54 1567.74 2497.71 1566.9 2496.68 1566.9C2495.65 1566.9 2494.82 1567.74 2494.82 1568.79C2494.82 1569.83 2495.65 1570.67 2496.68 1570.67C2497.71 1570.67 2498.54 1569.83 2498.54 1568.79Z" fill="#e1e4e5" fill-rule="nonzero" opacity="1" stroke="none" vectornator:layerName="circle"/>
<path d="M2369.5 1549.19C2369.5 1547.69 2368.29 1546.47 2366.81 1546.47C2365.33 1546.47 2364.13 1547.69 2364.13 1549.19C2364.13 1550.7 2365.33 1551.92 2366.81 1551.92C2368.29 1551.92 2369.5 1550.7 2369.5 1549.19Z" fill="#e1e4e5" fill-rule="nonzero" opacity="1" stroke="none" vectornator:layerName="circle"/>
<path d="M2399.89 1479.55C2399.89 1478.4 2398.98 1477.48 2397.85 1477.48C2396.72 1477.48 2395.81 1478.4 2395.81 1479.55C2395.81 1480.7 2396.72 1481.62 2397.85 1481.62C2398.98 1481.62 2399.89 1480.7 2399.89 1479.55Z" fill="#e1e4e5" fill-rule="nonzero" opacity="1" stroke="none" vectornator:layerName="circle"/>
<path d="M2499.29 1479.93C2499.29 1478.66 2498.27 1477.63 2497.01 1477.63C2495.76 1477.63 2494.74 1478.66 2494.74 1479.93C2494.74 1481.21 2495.76 1482.24 2497.01 1482.24C2498.27 1482.24 2499.29 1481.21 2499.29 1479.93Z" fill="#e1e4e5" fill-rule="nonzero" opacity="1" stroke="none" vectornator:layerName="circle"/>
<path d="M2372.43 1504.11C2371.35 1504.4 2370.7 1505.54 2370.99 1506.64C2371.28 1507.75 2372.4 1508.4 2373.49 1508.11C2374.58 1507.81 2375.22 1506.68 2374.93 1505.57C2374.64 1504.47 2373.52 1503.81 2372.43 1504.11Z" fill="#e1e4e5" fill-rule="nonzero" opacity="1" stroke="none" vectornator:layerName="circle"/>
<path d="M2427.46 1462.15C2427.46 1460.62 2426.24 1459.39 2424.74 1459.39C2423.25 1459.39 2422.03 1460.62 2422.03 1462.15C2422.03 1463.67 2423.25 1464.9 2424.74 1464.9C2426.24 1464.9 2427.46 1463.67 2427.46 1462.15Z" fill="#e1e4e5" fill-rule="nonzero" opacity="1" stroke="none" vectornator:layerName="circle"/>
<path d="M2513.34 1532.57C2513.34 1531.64 2512.41 1530.88 2511.26 1530.88C2510.1 1530.88 2509.17 1531.64 2509.17 1532.57C2509.17 1533.51 2510.1 1534.27 2511.26 1534.27C2512.41 1534.27 2513.34 1533.51 2513.34 1532.57Z" fill="#e1e4e5" fill-rule="nonzero" opacity="1" stroke="none" vectornator:layerName="ellipse"/>
<path d="M2470.8 1457.86C2468.53 1458.47 2467.19 1460.84 2467.8 1463.14C2468.4 1465.43 2470.73 1466.8 2472.99 1466.18C2475.26 1465.57 2476.6 1463.2 2476 1460.9C2475.39 1458.6 2473.06 1457.24 2470.8 1457.86Z" fill="#e1e4e5" fill-rule="nonzero" opacity="1" stroke="none" vectornator:layerName="circle"/>
<path d="M2527.08 1520.86L2527.14 1520.86C2527.46 1525.51 2530.86 1525.59 2530.86 1525.59C2530.86 1525.59 2527.11 1525.66 2527.11 1531.04C2527.11 1525.66 2523.35 1525.59 2523.35 1525.59C2523.35 1525.59 2526.76 1525.51 2527.08 1520.86ZM2389.88 1566.09L2389.92 1566.09C2390.21 1570.3 2393.23 1570.36 2393.23 1570.36C2393.23 1570.36 2389.9 1570.43 2389.9 1575.29C2389.9 1570.43 2386.57 1570.36 2386.57 1570.36C2386.57 1570.36 2389.59 1570.3 2389.88 1566.09Z" fill="#e1e4e5" fill-rule="nonzero" opacity="1" stroke="none" vectornator:layerName="path"/>
<path d="M2462.09 1544.79C2464.13 1544.85 2466.2 1544.09 2467.76 1542.51C2470.76 1539.45 2470.76 1534.51 2467.76 1531.45C2464.75 1528.4 2459.88 1528.4 2456.88 1531.45C2455.58 1532.77 2454.79 1534.52 2454.65 1536.37C2454.52 1538.01 2454.18 1539.72 2453.04 1540.88C2452.16 1541.78 2450.72 1541.78 2449.84 1540.88L2443.28 1534.22C2441.78 1532.69 2439.34 1532.69 2437.84 1534.22L2431.69 1540.46C2430.45 1541.72 2430.68 1542.97 2432.44 1542.98C2434.4 1542.99 2436.35 1543.75 2437.84 1545.27C2440.84 1548.32 2440.84 1553.27 2437.84 1556.32C2434.83 1559.37 2429.96 1559.37 2426.96 1556.32C2425.63 1554.97 2424.83 1553.18 2424.72 1551.28C2424.7 1551 2424.74 1550.7 2424.78 1550.41C2425.04 1548.81 2423.49 1548.79 2422.37 1549.93L2418.8 1553.56C2417.3 1555.08 2417.3 1557.55 2418.8 1559.08L2440.56 1581.18C2442.06 1582.71 2444.5 1582.71 2446 1581.18L2449.25 1577.88L2465.04 1561.84C2466.54 1560.32 2466.54 1557.84 2465.04 1556.32L2459.07 1550.25C2457.86 1549.02 2457.86 1547.04 2459.07 1545.81C2459.85 1545.02 2460.98 1544.76 2462.09 1544.79ZM2420.05 1482.72C2418.01 1482.66 2415.94 1483.42 2414.38 1485.01C2411.38 1488.06 2411.38 1493.01 2414.38 1496.06C2417.38 1499.11 2422.26 1499.11 2425.26 1496.06C2426.56 1494.74 2427.35 1493 2427.49 1491.14C2427.62 1489.5 2427.96 1487.8 2429.1 1486.63C2429.98 1485.74 2431.42 1485.74 2432.3 1486.63L2438.86 1493.3C2440.36 1494.82 2442.8 1494.82 2444.3 1493.3L2450.44 1487.06C2451.69 1485.79 2451.46 1484.54 2449.7 1484.53C2447.74 1484.52 2445.79 1483.76 2444.3 1482.25C2441.3 1479.19 2441.3 1474.25 2444.3 1471.2C2447.31 1468.14 2452.18 1468.14 2455.18 1471.2C2456.51 1472.54 2457.3 1474.33 2457.42 1476.23C2457.44 1476.51 2457.4 1476.81 2457.35 1477.11C2457.1 1478.7 2458.65 1478.73 2459.77 1477.58L2463.34 1473.96C2464.84 1472.43 2464.84 1469.96 2463.34 1468.43L2441.58 1446.33C2440.08 1444.81 2437.64 1444.81 2436.14 1446.33L2432.89 1449.64L2417.1 1465.67C2415.6 1467.2 2415.6 1469.67 2417.1 1471.2L2423.07 1477.26C2424.28 1478.49 2424.28 1480.48 2423.07 1481.7C2422.29 1482.5 2421.16 1482.76 2420.05 1482.72ZM2469.85 1494.58C2469.91 1492.5 2469.16 1490.4 2467.6 1488.82C2464.59 1485.77 2459.72 1485.77 2456.72 1488.82C2453.71 1491.87 2453.71 1496.82 2456.72 1499.87C2458.01 1501.19 2459.73 1501.99 2461.56 1502.13C2463.17 1502.26 2464.85 1502.61 2466 1503.77C2466.88 1504.67 2466.88 1506.12 2466 1507.02L2459.44 1513.68C2457.93 1515.21 2457.93 1517.68 2459.44 1519.21L2465.58 1525.45C2466.82 1526.71 2468.05 1526.47 2468.06 1524.69C2468.07 1522.7 2468.83 1520.72 2470.32 1519.21C2473.32 1516.16 2478.19 1516.16 2481.2 1519.21C2484.2 1522.26 2484.2 1527.21 2481.2 1530.26C2479.87 1531.6 2478.11 1532.41 2476.24 1532.53C2475.96 1532.55 2475.67 1532.51 2475.38 1532.46C2473.8 1532.21 2473.78 1533.78 2474.91 1534.92L2478.48 1538.54C2479.98 1540.07 2482.41 1540.07 2483.92 1538.54L2505.68 1516.44C2507.18 1514.92 2507.18 1512.44 2505.68 1510.92L2502.42 1507.62L2486.64 1491.58C2485.13 1490.06 2482.7 1490.06 2481.2 1491.58L2475.22 1497.65C2474.02 1498.87 2472.06 1498.87 2470.85 1497.65C2470.07 1496.86 2469.81 1495.7 2469.85 1494.58ZM2412.29 1532.94C2412.23 1535.01 2412.98 1537.11 2414.54 1538.7C2417.55 1541.75 2422.42 1541.75 2425.42 1538.7C2428.43 1535.64 2428.43 1530.7 2425.42 1527.65C2424.13 1526.33 2422.41 1525.52 2420.58 1525.38C2418.97 1525.25 2417.29 1524.91 2416.14 1523.75C2415.26 1522.85 2415.26 1521.39 2416.14 1520.49L2422.7 1513.83C2424.2 1512.31 2424.2 1509.83 2422.7 1508.31L2416.56 1502.07C2415.32 1500.8 2414.09 1501.04 2414.08 1502.83C2414.06 1504.81 2413.31 1506.79 2411.82 1508.31C2408.82 1511.36 2403.95 1511.36 2400.94 1508.31C2397.94 1505.26 2397.94 1500.31 2400.94 1497.26C2402.27 1495.91 2404.03 1495.1 2405.9 1494.98C2406.18 1494.97 2406.47 1495 2406.76 1495.05C2408.34 1495.31 2408.36 1493.74 2407.23 1492.59L2403.66 1488.97C2402.16 1487.44 2399.72 1487.44 2398.22 1488.97L2376.46 1511.07C2374.96 1512.6 2374.96 1515.07 2376.46 1516.6L2379.72 1519.9L2395.5 1535.93C2397.01 1537.46 2399.44 1537.46 2400.94 1535.93L2406.92 1529.87C2408.12 1528.64 2410.08 1528.64 2411.29 1529.87C2412.07 1530.66 2412.33 1531.81 2412.29 1532.94Z" fill="#593f92" fill-rule="nonzero" opacity="1" stroke="none" vectornator:layerName="path"/>
<path d="M2449.31 1514.61L2448.22 1514.61C2447.96 1514.61 2447.75 1514.4 2447.75 1514.13L2447.75 1513.03C2447.75 1512.77 2447.96 1512.56 2448.22 1512.56L2449.31 1512.56C2449.57 1512.56 2449.78 1512.77 2449.78 1513.03L2449.78 1514.13C2449.78 1514.26 2449.73 1514.38 2449.64 1514.47C2449.55 1514.56 2449.43 1514.61 2449.31 1514.61ZM2445.55 1514.61L2444.47 1514.61C2444.21 1514.61 2444 1514.4 2444 1514.13L2444 1513.03C2444 1512.77 2444.21 1512.56 2444.47 1512.56L2445.55 1512.56C2445.81 1512.56 2446.03 1512.77 2446.03 1513.03L2446.03 1514.13C2446.03 1514.4 2445.81 1514.61 2445.55 1514.61ZM2441.8 1514.61L2440.72 1514.61C2440.46 1514.61 2440.25 1514.4 2440.25 1514.13L2440.25 1513.03C2440.25 1512.77 2440.46 1512.56 2440.72 1512.56L2441.8 1512.56C2442.06 1512.56 2442.27 1512.77 2442.27 1513.03L2442.27 1514.13C2442.27 1514.26 2442.22 1514.38 2442.13 1514.47C2442.05 1514.56 2441.93 1514.61 2441.8 1514.61ZM2438.05 1514.61L2436.97 1514.61C2436.71 1514.61 2436.5 1514.4 2436.49 1514.13L2436.49 1513.03C2436.49 1512.77 2436.71 1512.56 2436.97 1512.56L2438.05 1512.56C2438.31 1512.56 2438.52 1512.77 2438.52 1513.03L2438.52 1514.13C2438.52 1514.4 2438.31 1514.61 2438.05 1514.61ZM2434.3 1514.61L2433.22 1514.61C2432.95 1514.61 2432.74 1514.4 2432.74 1514.13L2432.74 1513.03C2432.74 1512.77 2432.95 1512.56 2433.22 1512.56L2434.3 1512.56C2434.56 1512.56 2434.77 1512.77 2434.77 1513.03L2434.77 1514.13C2434.77 1514.4 2434.56 1514.61 2434.3 1514.61ZM2445.42 1510.46L2444.33 1510.46C2444.07 1510.46 2443.86 1510.24 2443.86 1509.98L2443.86 1508.88C2443.86 1508.61 2444.07 1508.4 2444.33 1508.4L2445.42 1508.4C2445.68 1508.4 2445.89 1508.61 2445.89 1508.88L2445.89 1509.98C2445.89 1510.1 2445.84 1510.23 2445.75 1510.32C2445.66 1510.41 2445.54 1510.46 2445.42 1510.46ZM2441.67 1510.46L2440.58 1510.46C2440.32 1510.46 2440.11 1510.24 2440.11 1509.98L2440.11 1508.88C2440.11 1508.61 2440.32 1508.4 2440.58 1508.4L2441.67 1508.4C2441.92 1508.4 2442.14 1508.61 2442.14 1508.88L2442.14 1509.98C2442.14 1510.1 2442.09 1510.23 2442 1510.32C2441.91 1510.41 2441.79 1510.46 2441.67 1510.46ZM2437.91 1510.46L2436.83 1510.46C2436.57 1510.46 2436.36 1510.24 2436.36 1509.98L2436.36 1508.88C2436.36 1508.61 2436.57 1508.4 2436.83 1508.4L2437.91 1508.4C2438.17 1508.4 2438.38 1508.61 2438.39 1508.88L2438.39 1509.98C2438.39 1510.24 2438.17 1510.46 2437.91 1510.46ZM2441.8 1519.08L2440.72 1519.08C2440.46 1519.08 2440.25 1518.86 2440.25 1518.6L2440.25 1517.5C2440.25 1517.23 2440.46 1517.02 2440.72 1517.02L2441.8 1517.02C2442.06 1517.02 2442.27 1517.23 2442.27 1517.5L2442.27 1518.6C2442.27 1518.72 2442.22 1518.85 2442.13 1518.94C2442.05 1519.03 2441.93 1519.08 2441.8 1519.08ZM2445.48 1519.08L2444.4 1519.08C2444.14 1519.08 2443.93 1518.86 2443.93 1518.6L2443.93 1517.5C2443.93 1517.23 2444.14 1517.02 2444.4 1517.02L2445.48 1517.02C2445.74 1517.02 2445.96 1517.23 2445.96 1517.5L2445.96 1518.6C2445.96 1518.72 2445.91 1518.85 2445.82 1518.94C2445.73 1519.03 2445.61 1519.08 2445.48 1519.08ZM2438.05 1519.08L2436.97 1519.08C2436.71 1519.08 2436.5 1518.86 2436.49 1518.6L2436.49 1517.5C2436.49 1517.23 2436.71 1517.02 2436.97 1517.02L2438.05 1517.02C2438.31 1517.02 2438.52 1517.23 2438.52 1517.5L2438.52 1518.6C2438.52 1518.86 2438.31 1519.08 2438.05 1519.08Z" fill="#e1e4e5" fill-rule="evenodd" opacity="1" stroke="none" vectornator:layerName="path"/>
</g>
<g opacity="1" vectornator:layerName="Group 31">
<path d="M2377.58 1693.79C2377.58 1683.72 2387 1675.56 2398.62 1675.56L2482.8 1675.56C2494.42 1675.56 2503.84 1683.72 2503.84 1693.79L2503.84 1698.91C2503.84 1708.98 2494.42 1717.14 2482.8 1717.14L2398.62 1717.14C2387 1717.14 2377.58 1708.98 2377.58 1698.91L2377.58 1693.79Z" fill="#d1bef9" fill-rule="nonzero" opacity="1" stroke="#463174" stroke-linecap="butt" stroke-linejoin="round" stroke-width="2.16483" vectornator:layerName="Rectangle 1"/>
<path d="M2377.54 1684.67C2377.54 1640.14 2392.5 1650.63 2442.42 1650.63C2492.34 1650.63 2505.11 1641.78 2503.8 1684.67C2503.35 1699.47 2472.23 1699.47 2440.67 1699.47C2409.1 1699.47 2377.54 1699.74 2377.54 1684.67Z" fill="#d1bef9" fill-rule="nonzero" opacity="1" stroke="#463174" stroke-linecap="butt" stroke-linejoin="round" stroke-width="1.84828" vectornator:layerName="Curve 1"/>
<path d="M2480.27 1729.95" fill="none" opacity="1" stroke="#463174" stroke-linecap="butt" stroke-linejoin="round" stroke-width="2.16483" vectornator:layerName="Curve 2"/>
<path d="M2371.27 1698.19C2371.27 1691.48 2376.92 1686.03 2383.87 1686.03L2383.87 1686.03C2390.83 1686.03 2396.47 1691.48 2396.47 1698.19L2396.47 1703.73C2396.47 1710.45 2390.83 1715.89 2383.87 1715.89L2383.87 1715.89C2376.92 1715.89 2371.27 1710.45 2371.27 1703.73L2371.27 1698.19Z" fill="#d1bef9" fill-rule="nonzero" opacity="1" stroke="#463174" stroke-linecap="butt" stroke-linejoin="round" stroke-width="2.16483" vectornator:layerName="Rectangle 6"/>
<path d="M2395.05 1719.56C2396.17 1717.72 2398.29 1716.89 2399.78 1717.71L2399.78 1717.71C2401.28 1718.52 2401.58 1720.68 2400.45 1722.52L2399.53 1724.03C2398.4 1725.88 2396.28 1726.71 2394.79 1725.89L2394.79 1725.89C2393.3 1725.08 2393 1722.92 2394.12 1721.08L2395.05 1719.56Z" fill="#d1bef9" fill-rule="nonzero" opacity="1" stroke="#463174" stroke-linecap="butt" stroke-linejoin="round" stroke-width="2.16483" vectornator:layerName="Rectangle 7"/>
<path d="M2483.36 1722.52C2482.24 1720.68 2482.54 1718.52 2484.03 1717.71L2484.03 1717.71C2485.53 1716.89 2487.65 1717.72 2488.77 1719.56L2489.69 1721.08C2490.82 1722.92 2490.52 1725.08 2489.03 1725.89L2489.03 1725.89C2487.53 1726.71 2485.41 1725.88 2484.29 1724.03L2483.36 1722.52Z" fill="#d1bef9" fill-rule="nonzero" opacity="1" stroke="#463174" stroke-linecap="butt" stroke-linejoin="round" stroke-width="2.16483" vectornator:layerName="Rectangle 5"/>
<path d="M2485.4 1698.19C2485.4 1691.48 2491.04 1686.03 2498 1686.03L2498 1686.03C2504.96 1686.03 2510.6 1691.48 2510.6 1698.19L2510.6 1703.73C2510.6 1710.45 2504.96 1715.89 2498 1715.89L2498 1715.89C2491.04 1715.89 2485.4 1710.45 2485.4 1703.73L2485.4 1698.19Z" fill="#d1bef9" fill-rule="nonzero" opacity="1" stroke="#463174" stroke-linecap="butt" stroke-linejoin="round" stroke-width="2.16483" vectornator:layerName="Rectangle 4"/>
<path d="M2411.02 1673.39C2411.02 1673.39 2414.87 1668.16 2419.76 1673.51" fill="none" opacity="1" stroke="#463174" stroke-linecap="square" stroke-linejoin="round" stroke-width="2.16483" vectornator:layerName="Curve 5"/>
<path d="M2462.12 1673.39C2462.12 1673.39 2465.97 1668.16 2470.85 1673.51" fill="none" opacity="1" stroke="#463174" stroke-linecap="square" stroke-linejoin="round" stroke-width="2.16483" vectornator:layerName="Curve 6"/>
</g>
<path d="M2373.34 1625.96L2365.51 1625.21C2365.2 1625.88 2365.52 1626.14 2365.09 1627.36C2363.45 1627.79 2362 1628.85 2360.74 1628.92C2360.74 1628.92 2362.22 1639.18 2352.75 1655.91C2352.33 1659.54 2352.6 1662.72 2350.59 1665.45C2348.45 1668.35 2376.91 1674.42 2375 1668.79C2374.26 1666.63 2375.55 1661.01 2376.2 1660.14C2372.5 1641.54 2377.8 1631.1 2377.8 1631.1C2377.37 1631.11 2376.94 1630.97 2376.5 1630.76C2375.4 1630.23 2374.23 1629.21 2372.88 1628.53C2372.58 1627.63 2373.27 1626.52 2373.34 1625.96Z" fill="#ffffff" fill-rule="nonzero" opacity="1" stroke="none"/>
<path d="M2352.15 1662.12C2351.29 1661.89 2350.54 1666.08 2350.04 1666.62C2343.56 1673.72 2347.38 1702.08 2347.41 1709.69C2346.03 1711.23 2343.17 1710.92 2342.73 1711.64C2341.42 1713.81 2343.39 1718.35 2343.07 1719.61C2342.75 1720.88 2342.63 1724.31 2343.2 1727.37C2343.77 1730.43 2348.52 1729.32 2347.51 1726.44C2346.91 1724.75 2347.07 1722.89 2347.96 1721.33C2347.96 1721.33 2348.52 1720.16 2348.81 1720.2L2349.31 1722.28C2349.31 1722.28 2349.37 1724.83 2348.49 1726.16C2347.6 1727.48 2346.77 1730.32 2350.48 1730.37C2354.19 1730.43 2352.92 1730.06 2354.23 1729.15C2355.53 1728.23 2355.14 1727.73 2355.68 1726.72C2356.13 1725.88 2355.64 1724.79 2355.64 1724.78L2355.01 1721.11C2355.07 1721.1 2353.5 1717.34 2354.73 1714.51C2354.78 1714.23 2354.89 1713.61 2354.97 1713.2C2357.44 1711.16 2360.66 1707 2360.66 1707.01C2360.74 1706.92 2361.13 1706.58 2364.56 1701.5C2373.71 1687.95 2377.08 1675.61 2375.07 1670.8C2374.88 1670.35 2375.53 1665.95 2374.87 1666.14C2374.87 1666.14 2369.85 1668.11 2362.44 1667.1C2359.7 1666.73 2353.42 1662.47 2352.15 1662.12ZM2359.52 1682.66L2358.5 1696.75L2356.84 1699.76L2355.52 1701.22C2355.52 1701.04 2355.52 1700.3 2355.53 1700.25C2355.6 1699.62 2359.52 1682.66 2359.52 1682.66Z" fill="#ffffff" fill-rule="nonzero" opacity="1" stroke="none"/>
<path d="M2365.45 1625.32C2365.54 1625.13 2364.32 1626.15 2363.69 1625.71C2363.69 1625.71 2364.13 1625.22 2363.92 1624.73C2363.39 1625.69 2362.96 1625.77 2362.34 1625.87C2362.34 1625.87 2362.47 1625.48 2362.39 1625.05C2362.36 1624.92 2362.44 1625.53 2361.67 1625.79L2361.25 1625.21C2360.83 1625.38 2360.74 1625.53 2360.79 1625.91C2360.79 1625.91 2359.94 1625.6 2359.38 1625.17C2357.68 1623.87 2358.5 1620.16 2359.13 1618.49C2360.16 1615.76 2361.57 1611.76 2364.26 1608.39C2366.16 1606.02 2370.19 1606.85 2371.95 1606.96C2374.07 1607.09 2376.16 1608.49 2377.38 1610.12C2378.02 1610.98 2378.46 1611.96 2378.79 1612.96C2379.6 1615.41 2380.29 1617.91 2380.81 1620.43C2381.2 1622.34 2381.61 1625.75 2379.07 1626.81C2377.9 1627.29 2376.34 1628.35 2374.65 1627.89L2375.58 1626.96C2375.58 1626.96 2374.83 1627.63 2373.74 1627.3C2373.74 1627.3 2374.2 1626.64 2374.32 1626.3C2374.32 1626.3 2373.82 1626.9 2372.82 1626.95C2372.82 1626.95 2372.93 1626.32 2372.75 1626.24C2372.68 1626.77 2365.13 1625.95 2365.45 1625.32Z" fill="#ffffff" fill-rule="nonzero" opacity="1" stroke="none" vectornator:layerName="Curve 6"/>
<path d="M2378.73 1691.85C2378.73 1691.85 2376.46 1669.61 2376.19 1660.42C2376.1 1657.28 2375.24 1657.02 2375.24 1657.02C2375.51 1653.56 2376.86 1654.04 2377.32 1652.91C2379.12 1648.57 2379.49 1645.98 2379.26 1643C2376.38 1637.3 2379.01 1631.16 2379.01 1631.16C2376.78 1630.83 2376.05 1630.41 2376.05 1630.41C2376.05 1630.41 2376.18 1633.9 2368.5 1633.03C2361.85 1632.28 2361.24 1628.75 2361.24 1628.75L2358.19 1629.32C2358.19 1629.32 2358.3 1637.27 2354.31 1640.28C2353.06 1642.73 2354.74 1648.85 2353.96 1651.85C2353.96 1651.85 2352.98 1652.2 2352.04 1654.64L2337.97 1681.84L2341.51 1686.22C2341.51 1686.22 2343.71 1688.26 2346.72 1689.45C2347.98 1689.95 2350.63 1688.95 2354.19 1689.73C2357.75 1690.51 2360.17 1692.38 2360.17 1692.38C2360.17 1692.38 2361.92 1693.65 2365.65 1694.88C2369.38 1696.11 2372.49 1694.02 2372.49 1694.02L2378.73 1691.85Z" fill="#593f92" fill-rule="nonzero" opacity="1" stroke="none" vectornator:layerName="Curve 7"/>
<path d="M2378.93 1631.22C2378.93 1631.22 2382.99 1631.35 2383.9 1636.07C2386.34 1648.68 2381 1656.49 2380.28 1658.28C2378.96 1661.55 2362.79 1656.21 2362.79 1656.21C2362.79 1656.21 2360.23 1656.63 2358.29 1655.24C2357.08 1654.37 2357.09 1652.86 2358.21 1652.14C2358.96 1651.65 2360.47 1652.04 2360.54 1651.78C2360.6 1651.56 2360.47 1652.71 2362.53 1653.2C2363.37 1653.4 2364.55 1652.15 2365.52 1652.3C2365.94 1652.36 2365.56 1653.76 2366.01 1653.85C2370.15 1654.66 2375.83 1653.66 2376.37 1652.86C2378.3 1650.06 2379 1646.17 2378.57 1643.62C2377.7 1640.33 2377.61 1638.93 2377.66 1636.34C2377.71 1633.74 2378.93 1631.22 2378.93 1631.22Z" fill="#ffffff" fill-rule="nonzero" opacity="1" stroke="none" vectornator:layerName="path"/>
<path d="M2357.77 1637.18C2357.77 1637.18 2359.52 1632.04 2358.38 1629.46C2358.38 1629.46 2357.54 1629.6 2356.75 1629.64C2349.21 1630.04 2347.94 1649.51 2348.55 1651.86C2348.95 1653.4 2360.18 1655.79 2362.55 1655.17C2362.75 1655.11 2363.18 1655.43 2363.23 1655.28C2363.33 1654.98 2366.29 1656.09 2367.88 1655.52C2368.14 1655.43 2369.63 1654.95 2369.06 1653.87C2368.88 1653.53 2368.31 1652.82 2366.8 1652.63C2366.49 1652.59 2366.85 1652.02 2366.24 1651.87C2365.34 1651.63 2364.02 1651.98 2363.95 1651.96C2361.96 1651.45 2358.41 1648.94 2354.24 1647.77C2353.84 1646.17 2354.33 1643.11 2355.33 1641.69C2355.94 1640.83 2357.77 1637.18 2357.77 1637.18Z" fill="#ffffff" fill-rule="nonzero" opacity="1" stroke="none" vectornator:layerName="path"/>
<g opacity="1" vectornator:layerName="Group 36">
<g opacity="1" vectornator:layerName="Group 14">
<path d="M2514.06 1604.23C2518.51 1603.52 2521.23 1605.63 2521.95 1610.1C2522.18 1611.53 2522.55 1612.83 2522.39 1613.85C2522.39 1613.86 2523.2 1613.49 2523.46 1614.64C2523.63 1615.44 2523.12 1616.41 2522.45 1617.01C2521.78 1619.29 2521.19 1621.54 2518.98 1622.57C2518.65 1623.16 2516.64 1623.31 2516.14 1622.86C2513.71 1622.57 2511.28 1620.54 2510.01 1618.78C2509.2 1618.4 2508.75 1617.82 2508.61 1617.02C2508.51 1616.4 2508.83 1616.06 2509.29 1615.81C2508.72 1614.58 2509.74 1612.68 2509.61 1611.84C2509.15 1608.97 2508.43 1607.49 2510.21 1607.2C2510.21 1607.2 2511 1604.72 2514.06 1604.23Z" fill="#ffffff" fill-rule="nonzero" opacity="1" stroke="none"/>
</g>
<path d="M2509.4 1615.74C2510.16 1616.41 2510.97 1609.58 2510.97 1609.58L2518.21 1607.55C2518.21 1607.55 2521.52 1614.68 2522.35 1613.86C2523.18 1613.05 2522.68 1607.59 2520.44 1604.74C2518.4 1602.14 2515.81 1602.07 2514.29 1602.39C2512.64 1602.75 2509.81 1603.68 2509.33 1605.88C2508.78 1605.85 2506.94 1606.36 2506.94 1608.55C2506.95 1610.76 2507.03 1613.66 2509.4 1615.74Z" fill="#ffffff" fill-rule="nonzero" opacity="1" stroke="none" vectornator:layerName="Curve 12"/>
<g opacity="1" vectornator:layerName="Group 2">
<path d="M2519.71 1620.05C2519.71 1620.05 2520.75 1622.39 2522.5 1622.83C2523.98 1623.21 2523.9 1628.53 2523.9 1628.53L2521.34 1635.52L2514.51 1636.79L2511.94 1631.92C2511.94 1631.92 2510.12 1627.09 2510.23 1624.45C2511.68 1622.29 2512.74 1621.8 2512.52 1620.74C2512.31 1619.68 2519.71 1620.05 2519.71 1620.05Z" fill="#ffffff" fill-rule="nonzero" opacity="1" stroke="none" vectornator:layerName="path"/>
<path d="M2528.53 1718.97L2528.6 1720.68C2528.6 1720.68 2528.6 1723.37 2529.49 1724.71C2530.39 1726.05 2531.28 1728.96 2527.7 1729.18C2524.12 1729.41 2523.84 1728.96 2522.56 1728.06C2521.27 1727.17 2523.23 1726.27 2522.56 1725.6C2521.89 1724.93 2522.56 1723.59 2522.56 1723.59L2523.14 1719.07L2528.53 1718.97Z" fill="#ffffff" fill-rule="nonzero" opacity="1" stroke="none" vectornator:layerName="path"/>
<path d="M2530.63 1711.89C2531.07 1712.25 2529.91 1712.72 2530.47 1714.16C2531.31 1716.33 2531.5 1719.56 2531.5 1719.56C2532.3 1721.26 2532.3 1723.23 2531.5 1724.93C2530.16 1727.84 2535.08 1729.41 2535.98 1726.27C2536.87 1723.14 2537.1 1719.56 2536.87 1718.22C2536.65 1716.88 2538.83 1712.28 2537.99 1709.94C2537.65 1709 2534.23 1709.1 2533.13 1709.04C2533.13 1709.04 2531.03 1709.26 2530.63 1711.89Z" fill="#ffffff" fill-rule="nonzero" opacity="1" stroke="none" vectornator:layerName="path"/>
<path d="M2528.6 1661.85L2534.41 1662.96C2534.41 1662.96 2535.49 1668.89 2535.05 1670.46C2534.6 1672.02 2533.52 1674.37 2533.97 1674.82C2534.41 1675.27 2531.95 1686.68 2532.18 1687.35C2532.4 1688.02 2532.85 1690.03 2532.62 1691.38C2532.4 1692.72 2531.73 1692.27 2532.18 1693.61C2532.62 1694.95 2533.07 1695.18 2532.62 1696.07C2532.18 1696.97 2529.94 1718.67 2529.27 1718.89C2528.6 1719.11 2522.56 1719.34 2522.56 1718.89C2522.56 1718.44 2524.57 1715.09 2523.9 1714.19C2523.23 1713.3 2524.12 1698.09 2524.12 1697.42C2524.12 1696.74 2525.46 1695.63 2524.79 1695.18C2524.12 1694.73 2523.67 1694.28 2523.9 1693.61C2524.12 1692.94 2524.57 1692.72 2524.12 1692.05C2523.67 1691.38 2523.67 1677.95 2522.11 1677.51C2522.11 1677.51 2520.1 1687.35 2520.77 1689.81C2521.44 1692.27 2520.54 1693.16 2520.54 1693.16L2523.67 1695.85L2519.42 1703.9L2514.95 1698.76C2514.95 1698.76 2514.95 1697.42 2514.06 1697.19C2513.16 1696.97 2512.71 1696.74 2512.71 1696.07C2512.71 1695.4 2511.15 1691.15 2511.15 1691.15C2511.15 1691.15 2507.06 1674.42 2507.79 1667.41C2508.56 1659.94 2512.01 1662.98 2512.01 1662.98L2528.6 1661.85Z" fill="#463174" fill-rule="nonzero" opacity="1" stroke="none" vectornator:layerName="path"/>
<path d="M2507.16 1626.98L2517.79 1633.78L2531.02 1627.24C2531.02 1627.24 2530.71 1639.78 2534.42 1652.31C2536.48 1659.25 2537.46 1664.16 2536.53 1668.17C2535.83 1671.18 2532.56 1668.08 2527.91 1667.84C2523.26 1667.61 2522.47 1668.41 2517.36 1668.45C2512.25 1668.5 2506.77 1672.99 2506.68 1668.47C2506.63 1666.27 2508.27 1661.84 2507.85 1658.47C2506 1643.67 2507.16 1626.98 2507.16 1626.98Z" fill="#593f92" fill-rule="nonzero" opacity="1" stroke="none" vectornator:layerName="Rectangle 16"/>
<path d="M2521.66 1695.63L2523.67 1695.63L2533.74 1708.82C2533.74 1708.82 2533.09 1710.37 2531.99 1711.69C2531.26 1712.57 2530.33 1713.34 2529.27 1713.52C2529.27 1713.52 2528.82 1713.3 2526.81 1711.96C2524.79 1710.61 2519.42 1703.9 2519.42 1703.9L2518.75 1700.1L2521.66 1695.63Z" fill="#463174" fill-rule="nonzero" opacity="1" stroke="none" vectornator:layerName="path"/>
<path d="M2522.2 1622.15C2521.81 1622.26 2521.6 1622.49 2521.6 1622.49L2531.63 1640.01C2531.63 1640.01 2534.45 1644.33 2534.91 1644.93C2535.4 1645.6 2534.28 1657.35 2533.63 1658.37C2533.24 1658.98 2530.01 1662.33 2531.18 1662.52C2532.18 1662.68 2532.45 1664.69 2532.47 1665.7C2532.49 1666.72 2532.95 1668.3 2534.16 1668.35C2535.15 1668.39 2534.54 1668.14 2535.93 1667.1C2537.32 1666.05 2536.61 1661.01 2536.64 1660.99C2537.09 1660.77 2540.79 1646.38 2540.79 1643.47C2540.79 1640.62 2537.77 1631.39 2533.48 1626.06C2531.06 1623.06 2525.18 1623.39 2523.84 1622.49C2523.17 1622.04 2522.6 1622.03 2522.2 1622.15Z" fill="#ffffff" fill-rule="nonzero" opacity="1" stroke="none"/>
<path d="M2510.81 1623.3L2507.5 1624.81C2507.5 1624.81 2501.58 1627.54 2500.09 1630.19C2498.52 1639.23 2497.81 1651.35 2499.16 1654.03C2500.49 1656.7 2504.84 1663.45 2506.91 1666.88C2509.3 1669.37 2510.63 1675.39 2513.75 1675.56C2515.25 1675.65 2515.56 1674.43 2514.69 1672.62C2514.51 1672.26 2513.01 1670.79 2512.81 1670.41C2512.58 1669.94 2513.79 1669.43 2513.41 1669.03C2511.33 1667.46 2510.22 1665.31 2510.22 1665.31L2504.91 1652.19C2504.91 1652.19 2506.27 1646.67 2505.91 1642.62C2506.5 1640.07 2510.81 1623.3 2510.81 1623.3Z" fill="#ffffff" fill-rule="nonzero" opacity="1" stroke="none"/>
<path d="M2521.76 1621.96C2521.76 1621.96 2520.08 1626.36 2517.15 1627.9C2514.68 1627.26 2511.03 1622.72 2511.03 1622.72C2511.03 1622.72 2503.85 1626.15 2500.46 1629.24C2499.27 1630.33 2497.59 1646.14 2497.59 1646.14L2506.13 1647.22L2508.03 1638.2L2530.47 1638.09L2533.19 1643.67L2541.27 1638.13C2541.27 1638.13 2533.85 1623.89 2531.78 1622.84C2528.62 1621.89 2521.76 1621.96 2521.76 1621.96Z" fill="#593f92" fill-rule="nonzero" opacity="1" stroke="none"/>
</g>
</g>
<path d="M2436.69 1685.8C2436.69 1684.46 2438.59 1683.37 2440.94 1683.37C2443.29 1683.37 2445.19 1684.46 2445.19 1685.8C2445.19 1687.15 2443.29 1688.24 2440.94 1688.24C2438.59 1688.24 2436.69 1687.15 2436.69 1685.8Z" fill="#463174" fill-rule="nonzero" opacity="1" stroke="#463174" stroke-linecap="butt" stroke-linejoin="round" stroke-width="2.16483" vectornator:layerName="Oval 9"/>
<path d="M2438.07 1687.67C2438.07 1686.77 2439.36 1686.04 2440.94 1686.04C2442.52 1686.04 2443.8 1686.77 2443.8 1687.67C2443.8 1688.56 2442.52 1689.29 2440.94 1689.29C2439.36 1689.29 2438.07 1688.56 2438.07 1687.67Z" fill="#ffffff" fill-rule="nonzero" opacity="1" stroke="none" vectornator:layerName="Oval 8"/>
</g>
</g>
</svg>
