<?xml version="1.0" encoding="UTF-8" standalone="no"?>
<!DOCTYPE svg PUBLIC "-//W3C//DTD SVG 1.1//EN" "http://www.w3.org/Graphics/SVG/1.1/DTD/svg11.dtd">
<!-- Created with Vectornator (http://vectornator.io/) -->
<svg height="100%" stroke-miterlimit="10" style="fill-rule:nonzero;clip-rule:evenodd;stroke-linecap:round;stroke-linejoin:round;" version="1.1" viewBox="3049.43 1444.96 377.162 373.432" width="100%" xml:space="preserve" xmlns="http://www.w3.org/2000/svg" xmlns:vectornator="http://vectornator.io" xmlns:xlink="http://www.w3.org/1999/xlink">
<defs/>
<clipPath id="ArtboardFrame">
<rect height="373.432" width="377.162" x="3049.43" y="1444.96"/>
</clipPath>
<g clip-path="url(#ArtboardFrame)" id="Layer" vectornator:layerName="Layer">
<g opacity="1" vectornator:layerName="Group 42">
<g opacity="1" vectornator:layerName="Group 7">
<path d="M3317.29 1652.55C3317.29 1652.55 3315.03 1641.54 3319.66 1636.87C3324.63 1631.84 3327.87 1637.23 3323.78 1644.47C3320.98 1649.44 3317.29 1652.55 3317.29 1652.55ZM3314.84 1664.48C3314.84 1664.48 3305.34 1658.45 3305.22 1651.89C3305.09 1644.84 3311.23 1646.28 3313.58 1654.23C3315.18 1659.68 3314.84 1664.48 3314.84 1664.48ZM3314.47 1671.62C3314.47 1671.62 3325.29 1668.39 3327.23 1662.12C3329.33 1655.37 3323.02 1655.1 3318.55 1662.1C3315.49 1666.91 3314.47 1671.62 3314.47 1671.62ZM3314.73 1676.81C3314.73 1676.81 3303.55 1675.31 3300.68 1669.43C3297.59 1663.09 3303.78 1661.83 3309.26 1668.05C3313.01 1672.3 3314.73 1676.81 3314.73 1676.81Z" fill="#c0a3ff" fill-rule="nonzero" opacity="1" stroke="none" vectornator:layerName="path"/>
<path d="M3320.03 1643C3317.48 1649.69 3315.46 1656.6 3314.55 1663.7C3313.66 1670.69 3313.89 1677.77 3314.91 1684.73C3315.17 1686.56 3315.49 1688.38 3315.85 1690.19L3316.55 1689.87C3315.61 1685.06 3314.95 1680.19 3314.77 1675.29C3314.52 1668.47 3315.28 1661.66 3316.95 1655.05C3317.96 1651.05 3319.26 1647.13 3320.73 1643.27C3320.9 1642.81 3320.2 1642.56 3320.03 1643Z" fill="#ffffff" fill-rule="nonzero" opacity="1" stroke="none" vectornator:layerName="path"/>
</g>
<path d="M3049.81 1640.54C3045.92 1717.21 3071.64 1778.89 3133.5 1797.62C3168.9 1808.34 3229.23 1815.78 3280.91 1818.32C3349.26 1821.69 3466.61 1692.88 3412.95 1561.58C3375.23 1469.28 3297.12 1461.26 3221.21 1446.67C3123 1427.79 3053.42 1569.58 3049.81 1640.54Z" fill="#ffffff" fill-rule="nonzero" opacity="1" stroke="none" vectornator:layerName="Oval 1"/>
<g opacity="1" vectornator:layerName="Sofa">
<path d="M3086.96 1637.15C3086.96 1556.82 3153.26 1491.71 3235.05 1491.71C3316.84 1491.71 3383.14 1556.82 3383.14 1637.15C3383.14 1717.48 3316.84 1782.59 3235.05 1782.59C3153.26 1782.59 3086.96 1717.48 3086.96 1637.15Z" fill="#c0a3ff" fill-rule="nonzero" opacity="1" stroke="none" vectornator:layerName="Oval 6"/>
</g>
<g opacity="1" vectornator:layerName="Group 26">
<path d="M3246.11 1535.96C3246.11 1527.79 3252.73 1521.17 3260.9 1521.17C3269.06 1521.17 3275.68 1527.79 3275.68 1535.96C3275.68 1544.12 3269.06 1550.74 3260.9 1550.74C3252.73 1550.74 3246.11 1544.12 3246.11 1535.96Z" fill="#c0a3ff" fill-rule="nonzero" opacity="0.203488" stroke="none" vectornator:layerName="circle 4"/>
<path d="M3250.63 1535.96C3250.63 1530.28 3255.23 1525.69 3260.9 1525.69C3266.57 1525.69 3271.17 1530.28 3271.17 1535.96C3271.17 1541.63 3266.57 1546.23 3260.9 1546.23C3255.23 1546.23 3250.63 1541.63 3250.63 1535.96Z" fill="#c0a3ff" fill-rule="nonzero" opacity="0.393411" stroke="none" vectornator:layerName="circle 5"/>
<path d="M3254.67 1535.96C3254.67 1532.52 3257.46 1529.73 3260.9 1529.73C3262.99 1529.73 3264.85 1530.77 3265.98 1532.36C3266.7 1533.37 3267.12 1534.62 3267.12 1535.96C3267.12 1539.39 3264.34 1542.18 3260.9 1542.18C3257.46 1542.18 3254.67 1539.39 3254.67 1535.96Z" fill="#c0a3ff" fill-rule="nonzero" opacity="0.899225" stroke="none" vectornator:layerName="circle 1"/>
<path d="M3186.09 1552.47C3186.08 1553.03 3185.8 1553.55 3185.33 1553.86L3185.27 1553.9L3156.72 1553.9L3156.83 1553.55C3156.85 1553.49 3158.94 1547.43 3168.19 1548.6C3169.07 1548.3 3177.58 1545.52 3182.68 1548.64C3184.94 1550.03 3186.09 1551.32 3186.09 1552.47Z" fill="#f2f2f2" fill-rule="nonzero" opacity="1" stroke="none" vectornator:layerName="path"/>
<path d="M3256.18 1588.63C3259.05 1588.7 3261.33 1590.78 3261.33 1590.78C3261.33 1590.78 3258.96 1592.76 3256.09 1592.7C3253.21 1592.64 3250.93 1590.55 3250.93 1590.55C3250.93 1590.55 3253.3 1588.57 3256.18 1588.63Z" fill="#6c63ff" fill-rule="nonzero" opacity="1" stroke="none" vectornator:layerName="path"/>
<path d="M3241.73 1578.83C3244.33 1580.06 3247.3 1579.22 3247.3 1579.22C3247.3 1579.22 3246.07 1576.39 3243.48 1575.15C3240.88 1573.92 3237.9 1574.76 3237.9 1574.76C3237.9 1574.76 3239.13 1577.59 3241.73 1578.83Z" fill="#6c63ff" fill-rule="nonzero" opacity="1" stroke="none" vectornator:layerName="path"/>
<path d="M3241.99 1577.6C3244.86 1577.34 3247.36 1579.15 3247.36 1579.15C3247.36 1579.15 3245.23 1581.39 3242.36 1581.65C3239.5 1581.91 3237 1580.1 3237 1580.1C3237 1580.1 3239.13 1577.86 3241.99 1577.6Z" fill="#3f3d56" fill-rule="nonzero" opacity="1" stroke="none" vectornator:layerName="path"/>
<path d="M3252.49 1578.1C3252.21 1580.96 3254.01 1583.47 3254.01 1583.47C3254.01 1583.47 3256.26 1581.35 3256.53 1578.48C3256.81 1575.62 3255.01 1573.11 3255.01 1573.11C3255.01 1573.11 3252.76 1575.24 3252.49 1578.1Z" fill="#3f3d56" fill-rule="nonzero" opacity="1" stroke="none" vectornator:layerName="path"/>
<path d="M3231.81 1576.93C3231.81 1575.55 3232.93 1574.42 3234.32 1574.42C3235.7 1574.42 3236.83 1575.55 3236.83 1576.93C3236.83 1578.32 3235.7 1579.44 3234.32 1579.44C3232.93 1579.44 3231.81 1578.32 3231.81 1576.93Z" fill="#3f3d56" fill-rule="nonzero" opacity="1" stroke="none" vectornator:layerName="circle"/>
<path d="M3298.48 1623.89L3160.4 1623.89L3162.73 1620.96L3196.92 1577.95L3198.49 1575.97L3212.62 1558.2L3229.44 1537.03L3251.09 1564.28L3298.48 1623.89Z" fill="#463174" fill-rule="nonzero" opacity="1" stroke="none" vectornator:layerName="polygon 9"/>
<path d="M3337.64 1623.89L3228.92 1623.89L3230.76 1621.58L3257.67 1587.72L3258.91 1586.16L3270.04 1572.17L3283.28 1555.5L3300.33 1576.95L3337.64 1623.89Z" fill="#593f92" fill-rule="nonzero" opacity="1" stroke="none" vectornator:layerName="polygon 10"/>
<path d="M3218.75 1623.98L3131.96 1623.98L3133.42 1622.13L3154.91 1595.1L3155.9 1593.85L3164.78 1582.68L3175.35 1569.38L3188.97 1586.5L3218.75 1623.98Z" fill="#593f92" fill-rule="nonzero" opacity="1" stroke="none" vectornator:layerName="polygon 3"/>
<path d="M3252.29 1565.76C3251.4 1566.29 3250.47 1566.75 3249.51 1567.14C3244.62 1569.08 3239.18 1569.14 3234.26 1567.29C3228.43 1565.08 3223.58 1560.28 3217.41 1559.4C3215.53 1559.13 3213.62 1559.25 3211.71 1559.36L3229.46 1537.03L3252.29 1565.76Z" fill="#ffffff" fill-rule="nonzero" opacity="1" stroke="none" vectornator:layerName="path 18"/>
<path d="M3299.02 1575.2C3298.41 1575.56 3297.77 1575.87 3297.11 1576.14C3293.75 1577.47 3290.02 1577.51 3286.63 1576.24C3282.63 1574.72 3279.3 1571.43 3275.06 1570.82C3273.77 1570.64 3272.46 1570.72 3271.15 1570.8L3283.33 1555.46L3299.02 1575.2Z" fill="#ffffff" fill-rule="nonzero" opacity="1" stroke="none" vectornator:layerName="path 19"/>
<path d="M3164.54 1583.1C3164.96 1583.35 3165.4 1583.56 3165.86 1583.75C3168.17 1584.66 3170.74 1584.69 3173.07 1583.82C3175.82 1582.77 3178.11 1580.5 3181.03 1580.09C3181.92 1579.96 3182.82 1580.01 3183.73 1580.07L3175.34 1569.51L3164.54 1583.1Z" fill="#ffffff" fill-rule="nonzero" opacity="1" stroke="none" vectornator:layerName="path"/>
<path d="M3314.14 1548.46C3314.13 1549.02 3313.85 1549.54 3313.38 1549.85L3313.32 1549.89L3284.77 1549.89L3284.89 1549.54C3284.91 1549.47 3287 1543.41 3296.25 1544.58C3297.12 1544.28 3305.63 1541.5 3310.73 1544.63C3312.99 1546.01 3314.14 1547.3 3314.14 1548.46Z" fill="#f2f2f2" fill-rule="nonzero" opacity="1" stroke="none" vectornator:layerName="path"/>
<path d="M3233.1 1583.85C3233.1 1584.41 3232.81 1584.94 3232.35 1585.25L3232.28 1585.28L3203.74 1585.28L3203.85 1584.94C3203.87 1584.87 3205.96 1578.81 3215.21 1579.98C3216.09 1579.68 3224.6 1576.9 3229.7 1580.02C3231.96 1581.41 3233.1 1582.7 3233.1 1583.85Z" fill="#f2f2f2" fill-rule="nonzero" opacity="1" stroke="none" vectornator:layerName="path"/>
</g>
<path d="M3131.95 1625.47L3337.67 1625.47C3337.67 1647.2 3364.95 1707.09 3230.23 1709.88C3141.93 1711.72 3131.95 1647.2 3131.95 1625.47Z" fill="#463174" fill-rule="nonzero" opacity="1" stroke="none" vectornator:layerName="Oval 7"/>
<g opacity="1" vectornator:layerName="Group 28">
<path d="M3176.05 1658.49C3176.05 1655.38 3178.58 1652.86 3181.69 1652.86C3184.8 1652.86 3187.32 1655.38 3187.32 1658.49C3187.32 1661.6 3184.8 1664.12 3181.69 1664.12C3178.58 1664.12 3176.05 1661.6 3176.05 1658.49Z" fill="#c0a3ff" fill-rule="nonzero" opacity="1" stroke="none" vectornator:layerName="circle"/>
<path d="M3177.53 1654.73C3176.44 1657.27 3177.36 1660.22 3179.69 1661.7C3182.02 1663.18 3185.08 1662.75 3186.91 1660.69C3186.04 1662.74 3184.03 1664.08 3181.8 1664.11C3179.57 1664.13 3177.53 1662.84 3176.61 1660.81C3175.68 1658.78 3176.04 1656.39 3177.53 1654.73Z" fill="#593f92" fill-rule="nonzero" opacity="0.2" stroke="none" vectornator:layerName="path"/>
<path d="M3181.7 1658.49L3181.72 1658.49L3182 1674.46L3181.41 1674.46L3181.7 1658.49Z" fill="#ffffff" fill-rule="nonzero" opacity="1" stroke="none" vectornator:layerName="polygon"/>
<path d="M3158.94 1642.26C3158.94 1635.99 3164.02 1630.91 3170.29 1630.91C3176.56 1630.91 3181.65 1635.99 3181.65 1642.26C3181.65 1648.53 3176.56 1653.62 3170.29 1653.62C3164.02 1653.62 3158.94 1648.53 3158.94 1642.26Z" fill="#c0a3ff" fill-rule="nonzero" opacity="1" stroke="none" vectornator:layerName="circle"/>
<path d="M3161.91 1634.68C3159.72 1639.8 3161.56 1645.75 3166.26 1648.73C3170.96 1651.71 3177.13 1650.85 3180.83 1646.7C3179.06 1650.83 3175.02 1653.54 3170.52 1653.59C3166.02 1653.64 3161.92 1651.03 3160.05 1646.94C3158.19 1642.85 3158.92 1638.04 3161.91 1634.68Z" fill="#593f92" fill-rule="nonzero" opacity="0.2" stroke="none" vectornator:layerName="path"/>
<path d="M3170.32 1642.26L3170.35 1642.26L3170.92 1674.46L3169.73 1674.46L3170.32 1642.26Z" fill="#ffffff" fill-rule="nonzero" opacity="1" stroke="none" vectornator:layerName="polygon"/>
<path d="M3173.03 1672.25C3174.66 1672.72 3174.67 1670.42 3174.93 1669.39C3174.01 1670.01 3172.46 1670.91 3173.03 1672.23" fill="#c0a3ff" fill-rule="nonzero" opacity="1" stroke="none" vectornator:layerName="path"/>
<path d="M3173.12 1674.04C3172.9 1672.83 3172.89 1671.3 3174.08 1670.58C3174.13 1670.55 3174.19 1670.64 3174.13 1670.67C3172.98 1671.37 3173.02 1672.84 3173.22 1674.01C3173.23 1674.04 3173.21 1674.06 3173.18 1674.07C3173.15 1674.08 3173.13 1674.06 3173.12 1674.04L3173.12 1674.04Z" fill="#ffffff" fill-rule="nonzero" opacity="1" stroke="none" vectornator:layerName="path"/>
<path d="M3173.64 1673.18C3174.39 1674.18 3175.43 1672.84 3176.04 1672.35C3175.22 1672.31 3173.92 1672.14 3173.66 1673.17" fill="#c0a3ff" fill-rule="nonzero" opacity="1" stroke="none" vectornator:layerName="path"/>
<path d="M3172.91 1674.34C3173.33 1673.54 3174 1672.63 3175.03 1672.74C3175.1 1672.75 3175.08 1672.85 3175.01 1672.85C3174.04 1672.74 3173.41 1673.62 3173.01 1674.39C3172.97 1674.44 3172.88 1674.4 3172.91 1674.34Z" fill="#ffffff" fill-rule="nonzero" opacity="1" stroke="none" vectornator:layerName="path"/>
</g>
<g opacity="1" vectornator:layerName="Group 27">
<path d="M3307.04 1645.56C3307.04 1643.59 3305.44 1641.99 3303.47 1641.99C3301.49 1641.99 3299.89 1643.59 3299.89 1645.56C3299.89 1647.54 3301.49 1649.14 3303.47 1649.14C3305.44 1649.14 3307.04 1647.54 3307.04 1645.56Z" fill="#c0a3ff" fill-rule="nonzero" opacity="1" stroke="none" vectornator:layerName="circle"/>
<path d="M3306.11 1643.18C3306.79 1644.79 3306.21 1646.66 3304.74 1647.6C3303.26 1648.54 3301.31 1648.27 3300.15 1646.96C3300.71 1648.26 3301.98 1649.11 3303.39 1649.13C3304.81 1649.15 3306.1 1648.32 3306.69 1647.04C3307.28 1645.75 3307.05 1644.23 3306.11 1643.18Z" fill="#593f92" fill-rule="nonzero" opacity="0.2" stroke="none" vectornator:layerName="path"/>
<path d="M3303.46 1645.56L3303.45 1645.56L3303.27 1655.7L3303.64 1655.7L3303.46 1645.56Z" fill="#ffffff" fill-rule="nonzero" opacity="1" stroke="none" vectornator:layerName="polygon"/>
<path d="M3317.91 1635.26C3317.91 1631.28 3314.68 1628.06 3310.7 1628.06C3306.72 1628.06 3303.49 1631.28 3303.49 1635.26C3303.49 1639.24 3306.72 1642.47 3310.7 1642.47C3314.68 1642.47 3317.91 1639.24 3317.91 1635.26Z" fill="#c0a3ff" fill-rule="nonzero" opacity="1" stroke="none" vectornator:layerName="circle"/>
<path d="M3316.02 1630.45C3317.41 1633.7 3316.24 1637.47 3313.26 1639.37C3310.28 1641.26 3306.36 1640.72 3304.01 1638.08C3305.13 1640.7 3307.7 1642.42 3310.56 1642.45C3313.41 1642.49 3316.02 1640.83 3317.2 1638.23C3318.38 1635.63 3317.92 1632.58 3316.02 1630.45Z" fill="#593f92" fill-rule="nonzero" opacity="0.2" stroke="none" vectornator:layerName="path"/>
<path d="M3310.68 1635.26L3310.66 1635.26L3310.3 1655.7L3311.06 1655.7L3310.68 1635.26Z" fill="#ffffff" fill-rule="nonzero" opacity="1" stroke="none" vectornator:layerName="polygon"/>
<path d="M3308.96 1654.3C3307.93 1654.6 3307.92 1653.14 3307.75 1652.48C3308.34 1652.88 3309.32 1653.45 3308.96 1654.28" fill="#c0a3ff" fill-rule="nonzero" opacity="1" stroke="none" vectornator:layerName="path"/>
<path d="M3308.91 1655.43C3309.04 1654.67 3309.05 1653.69 3308.3 1653.24C3308.26 1653.22 3308.23 1653.27 3308.26 1653.3C3308.99 1653.74 3308.97 1654.68 3308.84 1655.42C3308.84 1655.43 3308.85 1655.45 3308.87 1655.45C3308.88 1655.46 3308.9 1655.45 3308.91 1655.43L3308.91 1655.43Z" fill="#ffffff" fill-rule="nonzero" opacity="1" stroke="none" vectornator:layerName="path"/>
<path d="M3308.57 1654.89C3308.1 1655.52 3307.44 1654.68 3307.05 1654.36C3307.57 1654.34 3308.4 1654.23 3308.56 1654.88" fill="#c0a3ff" fill-rule="nonzero" opacity="1" stroke="none" vectornator:layerName="path"/>
<path d="M3309.04 1655.63C3308.77 1655.12 3308.34 1654.54 3307.69 1654.61C3307.65 1654.61 3307.66 1654.68 3307.7 1654.68C3308.32 1654.61 3308.72 1655.17 3308.98 1655.65C3309 1655.69 3309.06 1655.66 3309.04 1655.63Z" fill="#ffffff" fill-rule="nonzero" opacity="1" stroke="none" vectornator:layerName="path"/>
</g>
<path d="M3216.66 1625.38L3245.11 1625.4C3250.81 1653.39 3296.72 1665.11 3300.12 1700.39C3297.37 1702.53 3280.28 1707.08 3264.19 1709.77C3250.96 1711.98 3238.41 1712.93 3235.07 1710.23C3247.77 1684.92 3216.86 1653.48 3216.66 1625.38Z" fill="#c0a3ff" fill-rule="nonzero" opacity="1" stroke="none" vectornator:layerName="Oval 8"/>
<g opacity="1" vectornator:layerName="Group 37">
<path d="M3250.57 1722.6C3250.57 1722.6 3252.06 1721.27 3252.88 1721.77C3253.54 1722.18 3252.66 1723.59 3251.73 1724.41C3250.26 1725.71 3249.42 1725.39 3249.13 1725.11C3248.59 1724.6 3248.61 1723.73 3248.89 1723.5C3249.52 1722.96 3250.57 1722.6 3250.57 1722.6Z" fill="#463174" fill-rule="nonzero" opacity="1" stroke="none" vectornator:layerName="Curve 4"/>
<path d="M3256.9 1721.57C3256.9 1721.57 3258.39 1720.25 3259.21 1720.75C3259.87 1721.16 3258.99 1722.57 3258.07 1723.38C3256.59 1724.69 3255.76 1724.36 3255.46 1724.09C3254.92 1723.57 3254.95 1722.7 3255.22 1722.47C3255.85 1721.94 3256.9 1721.57 3256.9 1721.57Z" fill="#463174" fill-rule="nonzero" opacity="1" stroke="none" vectornator:layerName="Curve 1"/>
<path d="M3250.81 1722.21C3250.81 1722.21 3250.69 1720.94 3251.15 1717.69C3251.41 1715.84 3251.42 1714.48 3251.13 1712.54C3250.84 1710.53 3250.95 1707.5 3250.97 1704.41C3251 1701.07 3250.97 1697.73 3251.65 1697.33C3252.18 1698.03 3252.21 1699.58 3252.8 1703.3C3253.4 1707.02 3254.24 1709.61 3254.03 1712.2C3253.89 1713.99 3255.12 1718.91 3255.33 1720.34C3255.71 1722.91 3255.04 1723.1 3255.75 1723.31C3256.46 1723.51 3257.02 1722.9 3257.36 1722.62C3257.7 1722.33 3257.54 1721.91 3257.54 1721.91C3257.54 1721.91 3257.33 1720.27 3257.66 1716.19C3257.95 1712.76 3258.24 1713.84 3258.26 1711.05C3257.96 1708.68 3258.27 1700.93 3258.27 1700.93C3258.27 1700.93 3258.81 1697.25 3258.72 1695.85C3258.56 1693.55 3257.55 1691.62 3256.7 1690.2C3256.14 1689.26 3255.55 1688.89 3254.97 1688.95C3253.64 1689.08 3249.43 1689.16 3248.1 1689.08C3247.51 1689.04 3246.93 1689.43 3246.41 1690.39C3245.62 1691.84 3244.68 1693.82 3244.61 1696.11C3244.51 1699.26 3245 1699.51 3245.51 1703.86C3246 1708.06 3247.54 1709.49 3247.35 1713.52C3247.3 1714.72 3247.87 1716.37 3248.18 1717.92C3249.43 1724.22 3248.74 1724.38 3249.46 1724.42C3250.22 1724.46 3250.57 1723.97 3251.04 1723.64C3251.51 1723.31 3250.81 1722.21 3250.81 1722.21Z" fill="#ffffff" fill-rule="nonzero" opacity="1" stroke="none" vectornator:layerName="Curve 2"/>
<path d="M3244.2 1722.81" fill="#463174" fill-rule="nonzero" opacity="1" stroke="none" vectornator:layerName="Curve 3"/>
<g opacity="1" vectornator:layerName="Group 34">
<path d="M3247.93 1666.98L3252.18 1666.84C3252.33 1667.21 3252.21 1667.7 3252.4 1668.38C3253.27 1668.67 3253.95 1668.96 3254.63 1669.04L3250.92 1673.3C3250.92 1673.3 3245.8 1669.62 3246.05 1669.51C3246.65 1669.26 3247.33 1668.74 3248.08 1668.41C3248.28 1667.93 3247.94 1667.29 3247.93 1666.98Z" fill="#ffffff" fill-rule="nonzero" opacity="1" stroke="none"/>
<path d="M3252.22 1666.9C3252.17 1666.79 3252.79 1667.4 3253.15 1667.18C3253.15 1667.18 3252.93 1666.89 3253.06 1666.63C3253.31 1667.17 3253.54 1667.23 3253.87 1667.31C3253.87 1667.31 3253.82 1667.09 3253.88 1666.86C3253.9 1666.79 3253.83 1667.12 3254.24 1667.29L3254.49 1666.99C3254.71 1667.09 3254.75 1667.18 3254.71 1667.38C3254.71 1667.38 3255.18 1667.24 3255.5 1667.03C3256.47 1666.37 3256.16 1664.3 3255.88 1663.36C3255.42 1661.82 3254.93 1660.28 3254.25 1658.81C3254.01 1658.3 3253.57 1657.88 3253.13 1657.49C3252.87 1657.26 3252.55 1657.09 3252.2 1657C3251.28 1656.78 3250.33 1656.57 3249.37 1656.57C3248.23 1656.57 3247.05 1657.27 3246.32 1658.12C3245.95 1658.57 3245.67 1659.1 3245.46 1659.63C3244.93 1660.96 3244.46 1662.31 3244.09 1663.68C3243.81 1664.72 3243.47 1666.58 3244.8 1667.25C3245.41 1667.56 3246.22 1668.19 3247.15 1668L3246.68 1667.45C3246.68 1667.45 3247.06 1667.85 3247.66 1667.71C3247.66 1667.71 3247.44 1667.33 3247.39 1667.14C3247.39 1667.14 3247.63 1667.48 3248.17 1667.54C3248.17 1667.54 3248.13 1667.2 3248.24 1667.16C3248.25 1667.45 3252.36 1667.26 3252.22 1666.9Z" fill="#ffffff" fill-rule="nonzero" opacity="1" stroke="none" vectornator:layerName="Curve 6"/>
<path d="M3241.72 1702.07C3241.72 1702.07 3243.55 1691.43 3244.79 1686.79C3244.94 1686.23 3245.17 1685.88 3245.17 1685.88C3243.93 1680.43 3242.85 1678.66 3244.1 1676.16C3245.1 1673.14 3244.67 1669.65 3244.67 1669.65C3245.89 1669.55 3246.3 1669.34 3246.3 1669.34C3246.3 1669.34 3248.31 1670.42 3250.33 1670.32C3252.34 1670.22 3254.36 1668.94 3254.36 1668.94L3255.99 1669.35C3255.99 1669.35 3255.2 1673.83 3257.24 1675.62C3258.16 1677.61 3258.36 1677.06 3257.07 1685.94C3257.07 1685.94 3257.25 1686.23 3257.46 1686.96C3258.8 1691.6 3261.22 1700.65 3261.02 1701.59C3261.02 1701.59 3259.03 1703.11 3258.09 1703.01C3256.18 1702.82 3255.92 1703.41 3254.71 1703.45C3253.87 1703.48 3251.74 1702.51 3250.19 1702.9C3249.2 1703.15 3247.15 1702.74 3246.21 1702.97C3243.37 1703.67 3241.72 1702.07 3241.72 1702.07Z" fill="#593f92" fill-rule="nonzero" opacity="1" stroke="none"/>
<path d="M3244.71 1669.69C3244.71 1669.69 3242.8 1669.77 3242.14 1672.34C3241.27 1675.69 3241.23 1676.22 3240.9 1681.95C3240.85 1682.59 3241.36 1683.19 3241.35 1683.83C3241.32 1685.83 3241.99 1689.25 3242.29 1691.01C3242.4 1691.63 3241.97 1691.66 3241.94 1691.98C3241.83 1693.04 3242.56 1694.24 3242.9 1694.06C3243.01 1693.41 3243.27 1692.36 3243.53 1691.5C3243.72 1691.2 3243.46 1690.62 3243.36 1690.66C3243.36 1690.66 3244.2 1686.81 3243.87 1685.15C3243.52 1683.4 3244.31 1681.4 3244.04 1677.79C3243.91 1676.02 3245.15 1673.98 3245.21 1672.55C3245.28 1671.12 3244.71 1669.69 3244.71 1669.69Z" fill="#ffffff" fill-rule="nonzero" opacity="1" stroke="none" vectornator:layerName="path"/>
<path d="M3255.93 1673.69C3255.93 1673.69 3255.17 1670.8 3255.88 1669.42C3255.88 1669.42 3256.33 1669.53 3256.76 1669.58C3260.82 1670.06 3261.06 1681.1 3260.65 1682.38C3260.97 1683.36 3261.86 1686.85 3261.97 1688.39C3262.11 1690.42 3261.81 1691.31 3261.86 1692.39C3261.98 1692.92 3262.16 1693.08 3262.4 1693.45C3262.81 1694.07 3263.14 1694.32 3262.86 1695.66C3262.57 1697.07 3262 1697.26 3261.52 1696.88C3261.06 1696.53 3261.21 1695 3260.97 1694.62C3260.85 1694.42 3260.91 1696.09 3260.36 1695.62C3260.2 1695.48 3259.88 1693.83 3260.17 1693.29C3260.29 1693.07 3260.52 1692.91 3260.48 1692.67C3260.42 1692.31 3259.59 1690.38 3258.95 1688.43C3258.31 1686.48 3258.74 1685.15 3258.16 1683.51C3257.75 1682.35 3257.81 1680.85 3257.81 1680.85C3257.81 1680.85 3257.97 1677.74 3257.34 1676.35C3257.04 1675.69 3255.93 1673.69 3255.93 1673.69Z" fill="#ffffff" fill-rule="nonzero" opacity="1" stroke="none" vectornator:layerName="path"/>
<path d="M3242.62 1710.01" fill="#ffffff" fill-rule="nonzero" opacity="1" stroke="none" vectornator:layerName="Curve 9"/>
</g>
</g>
<g opacity="1" vectornator:layerName="Group 38">
<path d="M3276.37 1746.47C3276.37 1746.47 3276.14 1744.61 3274.6 1745.3C3273.38 1745.84 3273.12 1746.7 3273.76 1747.89C3274.24 1748.78 3275.94 1749.63 3277.11 1750.68C3277.86 1751.35 3279.29 1751.23 3279.85 1750.34C3280.41 1749.44 3279.8 1747.44 3279.8 1747.44L3276.37 1746.47Z" fill="#ffffff" fill-rule="nonzero" opacity="1" stroke="none" vectornator:layerName="path"/>
<path d="M3283.68 1747.24C3283.68 1747.24 3283.02 1745.72 3281.76 1747C3281.32 1747.44 3281.08 1748.26 3282.71 1749.79C3283.11 1750.16 3284.89 1751.37 3285.13 1751.44C3286.13 1751.73 3286.86 1751.23 3287.09 1750.97C3287.49 1750.53 3287.15 1748.64 3287.15 1748.64C3287.15 1748.64 3283.68 1747.24 3283.68 1747.24Z" fill="#ffffff" fill-rule="nonzero" opacity="1" stroke="none" vectornator:layerName="Curve 1"/>
<path d="M3283.63 1747.02C3283.72 1745.76 3283.61 1744.48 3283.45 1743.04C3283.42 1742.81 3283.24 1742.6 3283.22 1742.46C3282.87 1740.14 3283.46 1738.21 3283.3 1735.97C3283.28 1735.67 3282.99 1735.51 3282.96 1735.31C3282.87 1734.71 3283.05 1734.42 3283.23 1733.96C3283.61 1733.01 3282.64 1730.41 3282.44 1729.52C3281.25 1724.19 3280.95 1722.88 3280.95 1722.88C3280.95 1722.88 3280.85 1723.91 3280.97 1727.7C3281.09 1731.51 3280.38 1735.35 3280.23 1737.58C3280.1 1739.58 3280.24 1739.4 3280.32 1739.69C3280.32 1739.69 3280.39 1740.4 3280.31 1740.71C3280.2 1741.14 3280 1741.48 3279.99 1741.75C3279.94 1743.13 3279.92 1746.32 3280.09 1748.02C3280.24 1749.56 3277.83 1749.52 3277.08 1749.04C3275.86 1748.24 3275.97 1747.61 3275.83 1746.47C3275.74 1745.78 3275.88 1744.53 3275.88 1744.53C3275.88 1744.53 3275.58 1741.6 3275.28 1739.74C3275.23 1739.46 3274.81 1739 3274.78 1738.79C3274.7 1738.1 3274.67 1737.76 3274.75 1737.34C3274.94 1736.2 3275.01 1736.2 3274.94 1735.97C3274.84 1735.67 3274.52 1735.59 3274.46 1735.41C3274.37 1735.17 3274.26 1734.85 3274.26 1734.62C3274.26 1734.09 3274.52 1733.43 3274.45 1733.1C3273.99 1730.73 3273.32 1725.79 3272.93 1722.43C3272.54 1719.01 3273.56 1715.77 3273.73 1714.66L3287.82 1713.71C3288.45 1715.38 3289.53 1719.21 3289.12 1722.95C3288.75 1726.21 3288.85 1729.98 3288.73 1733.77C3288.71 1734.42 3288.4 1735.52 3288.38 1736.15C3288.36 1736.67 3288.75 1737.06 3288.74 1737.55C3288.73 1737.94 3288.59 1738.88 3288.55 1739.27C3288.43 1740.43 3288.16 1741.18 3288.15 1742.1C3288.09 1745.25 3287.42 1747.19 3287.42 1747.19C3287.42 1747.19 3287.06 1747.96 3287.26 1748.65C3287.44 1749.3 3287.47 1750.76 3285.18 1749.86C3283.98 1749.39 3283.57 1748.61 3283.46 1748.35C3283.04 1747.34 3283.6 1747.46 3283.63 1747.02Z" fill="#463174" fill-rule="nonzero" opacity="1" stroke="none" vectornator:layerName="Curve 2"/>
<path d="M3284.97 1750.33" fill="#ffffff" fill-rule="nonzero" opacity="1" stroke="none" vectornator:layerName="Curve 3"/>
<g opacity="1" vectornator:layerName="Group 29">
<g opacity="1" vectornator:layerName="Group 14">
<path d="M3280.87 1680.08C3283.47 1680.37 3284.68 1682.02 3284.41 1684.73C3284.32 1685.6 3284.33 1686.41 3284.09 1686.97C3284.09 1686.98 3284.6 1686.89 3284.57 1687.6C3284.54 1688.09 3284.11 1688.57 3283.64 1688.82C3282.92 1690.03 3282.25 1691.24 3280.86 1691.5C3280.58 1691.78 3279.43 1691.56 3279.22 1691.22C3277.9 1690.66 3276.85 1689.1 3276.4 1687.89C3276 1687.54 3275.83 1687.13 3275.88 1686.65C3275.92 1686.27 3276.15 1686.12 3276.44 1686.05C3276.31 1685.24 3277.17 1684.31 3277.22 1683.8C3277.4 1682.06 3277.22 1681.09 3278.26 1681.2C3278.26 1681.2 3279.08 1679.88 3280.87 1680.08Z" fill="#ffffff" fill-rule="nonzero" opacity="1" stroke="none"/>
</g>
<path d="M3276.36 1686.18C3276.67 1686.7 3278.36 1683.1 3278.36 1683.1L3282.65 1683.04C3282.65 1683.04 3283.27 1687.72 3283.87 1687.4C3284.47 1687.08 3285.12 1683.85 3284.37 1681.82C3283.68 1679.97 3282.25 1679.47 3281.35 1679.38C3280.38 1679.29 3278.65 1679.33 3278 1680.5C3277.71 1680.39 3276.59 1680.36 3276.22 1681.61C3275.85 1682.88 3275.4 1684.56 3276.36 1686.18Z" fill="#ffffff" fill-rule="nonzero" opacity="1" stroke="none" vectornator:layerName="Curve 12"/>
<g opacity="1" vectornator:layerName="Group 2">
<path d="M3282.02 1690.33C3282.02 1690.33 3282.48 1691.77 3283.35 1692.08C3284.09 1692.35 3283.88 1695.54 3283.88 1695.54L3282.37 1699.66L3278.87 1700.23L3277.72 1697.23C3277.72 1697.23 3276.94 1694.28 3277.08 1692.7C3277.88 1691.45 3278.44 1691.18 3278.36 1690.54C3278.28 1689.9 3282.02 1690.33 3282.02 1690.33Z" fill="#ffffff" fill-rule="nonzero" opacity="1" stroke="none" vectornator:layerName="path"/>
<path d="M3286.02 1694.93C3286.02 1694.93 3285.35 1695.82 3285.35 1695.82L3289.55 1704.76C3289.55 1704.76 3290.79 1710.6 3291.66 1712.76C3291.89 1713.32 3291.13 1714.69 3291.09 1716.11C3291.07 1716.97 3291 1718.22 3290.85 1718.88C3290.8 1719.14 3290.81 1719.9 3290.81 1719.9C3290.88 1719.86 3290.13 1720.74 3290.05 1721.13C3289.88 1722.11 3289.78 1722.81 3290.24 1722.54C3290.64 1722.29 3290.56 1721.34 3290.69 1721.83C3290.89 1722.61 3290.54 1724.21 3290.97 1724.09C3292.95 1723.54 3292.1 1720.91 3292.1 1720.91C3292.1 1720.91 3292.01 1720.2 3292.31 1719.58C3292.78 1718.59 3293.17 1717.15 3293.53 1716.12C3294.63 1712.96 3294.63 1711.76 3294.56 1710.56C3294.38 1707.76 3293.28 1701.31 3291.63 1697.95C3290.7 1696.05 3286.24 1694.91 3286.02 1694.93Z" fill="#ffffff" fill-rule="nonzero" opacity="1" stroke="none" vectornator:layerName="Curve 1"/>
<path d="M3275.79 1694.96C3275.79 1694.96 3276.51 1695.81 3276.51 1695.81L3272.75 1704.95C3272.75 1704.95 3271.8 1710.84 3271.04 1713.04C3270.84 1713.61 3271.67 1714.94 3271.77 1716.36C3271.84 1717.22 3271.97 1718.46 3272.15 1719.11C3272.22 1719.37 3272.24 1720.13 3272.24 1720.13C3272.17 1720.1 3272.96 1720.94 3273.06 1721.32C3273.28 1722.29 3273.78 1723.21 3273.31 1722.96C3272.89 1722.73 3273.16 1724.67 3272.73 1724.57C3270.72 1724.12 3271.01 1721.2 3271.01 1721.2C3271.01 1721.2 3271.06 1720.49 3270.73 1719.88C3270.21 1718.92 3269.75 1717.5 3269.34 1716.49C3268.08 1713.39 3268.02 1712.19 3268.04 1710.98C3268.07 1708.18 3268.86 1701.69 3270.34 1698.25C3271.17 1696.31 3275.58 1694.95 3275.79 1694.96Z" fill="#ffffff" fill-rule="nonzero" opacity="1" stroke="none"/>
<path d="M3275.06 1693.6L3280.65 1698.52L3287.98 1695.85C3287.98 1695.85 3287.62 1703.15 3288.77 1710.92C3289.41 1715.22 3290.67 1716.46 3289.82 1718.77C3289.18 1720.5 3282.89 1722.01 3279.94 1721.62C3277 1721.23 3271.69 1722.26 3271.99 1719.56C3272.13 1718.25 3272.97 1714.45 3272.99 1712.41C3273.09 1703.44 3275.06 1693.6 3275.06 1693.6Z" fill="#593f92" fill-rule="nonzero" opacity="1" stroke="none" vectornator:layerName="Rectangle 16"/>
<path d="M3283.72 1691.93C3283.72 1691.93 3283.86 1691.2 3279.95 1691.33C3276.01 1691.46 3276.37 1692.29 3276.37 1692.29C3276.37 1692.29 3273.12 1693.38 3270.99 1695.02C3270.24 1695.6 3267.63 1706.08 3267.63 1706.08L3272.76 1707.71L3273.93 1701.45L3287.84 1702.09L3288.79 1705.97L3294.26 1703.37C3294.26 1703.37 3290.89 1694.23 3289.75 1693.48C3287.98 1692.72 3283.72 1691.93 3283.72 1691.93Z" fill="#593f92" fill-rule="nonzero" opacity="1" stroke="none"/>
</g>
</g>
</g>
<path d="M3325.97 1653.15C3326.34 1652.85 3326.61 1652.44 3326.74 1651.99C3326.84 1651.53 3326.64 1650.98 3326.2 1650.8C3325.71 1650.61 3325.18 1650.96 3324.78 1651.3C3324.38 1651.65 3323.92 1652.04 3323.4 1651.97C3323.95 1651.47 3324.2 1650.73 3324.05 1650C3324.03 1649.85 3323.97 1649.71 3323.87 1649.6C3323.6 1649.31 3323.1 1649.43 3322.77 1649.66C3321.73 1650.4 3321.44 1651.81 3321.43 1653.09C3321.33 1652.63 3321.41 1652.15 3321.41 1651.68C3321.41 1651.22 3321.28 1650.68 3320.88 1650.43C3320.64 1650.3 3320.36 1650.24 3320.08 1650.25C3319.61 1650.23 3319.09 1650.28 3318.77 1650.62C3318.36 1651.04 3318.47 1651.76 3318.82 1652.22C3319.17 1652.69 3319.69 1652.99 3320.18 1653.31C3320.56 1653.54 3320.9 1653.86 3321.15 1654.24C3321.18 1654.29 3321.2 1654.34 3321.22 1654.4L3324.16 1654.4C3324.82 1654.07 3325.43 1653.65 3325.97 1653.15Z" fill="#c0a3ff" fill-rule="nonzero" opacity="1" stroke="none" vectornator:layerName="path"/>
<g opacity="1" vectornator:layerName="Group 6">
<path d="M3201.04 1691.02C3201.04 1691.02 3199.08 1684.37 3201.41 1679.48C3202.4 1677.44 3202.7 1675.12 3202.26 1672.89C3202.05 1671.84 3201.14 1670.1 3201.19 1668.99" fill="none" opacity="1" stroke="#ffffff" stroke-linecap="butt" stroke-linejoin="miter" stroke-width="2" vectornator:layerName="path"/>
<path d="M3202.77 1666.71C3202.77 1667.53 3201.3 1669.89 3201.3 1669.89C3201.3 1669.89 3199.82 1667.52 3199.82 1666.71C3199.85 1665.91 3200.5 1665.28 3201.3 1665.28C3202.09 1665.28 3202.75 1665.91 3202.77 1666.71Z" fill="#6c63ff" fill-rule="nonzero" opacity="1" stroke="none" vectornator:layerName="path"/>
<path d="M3205.21 1671.22C3204.77 1671.91 3202.24 1673.09 3202.24 1673.09C3202.24 1673.09 3202.29 1670.3 3202.73 1669.62C3203.19 1668.96 3204.08 1668.78 3204.75 1669.22C3205.42 1669.65 3205.62 1670.54 3205.21 1671.22Z" fill="#6c63ff" fill-rule="nonzero" opacity="1" stroke="none" vectornator:layerName="path"/>
<path d="M3205.1 1678.93C3204.38 1679.3 3201.6 1679.05 3201.6 1679.05C3201.6 1679.05 3203.05 1676.67 3203.78 1676.3C3204.25 1676.05 3204.82 1676.07 3205.27 1676.36C3205.72 1676.65 3205.97 1677.16 3205.94 1677.7C3205.9 1678.23 3205.58 1678.7 3205.1 1678.93Z" fill="#6c63ff" fill-rule="nonzero" opacity="1" stroke="none" vectornator:layerName="path"/>
<path d="M3203.71 1684.75C3203.05 1685.24 3200.28 1685.45 3200.28 1685.45C3200.28 1685.45 3201.3 1682.86 3201.95 1682.37C3202.37 1682.03 3202.95 1681.94 3203.45 1682.15C3203.95 1682.36 3204.3 1682.83 3204.35 1683.37C3204.41 1683.91 3204.16 1684.44 3203.7 1684.74L3203.71 1684.75Z" fill="#6c63ff" fill-rule="nonzero" opacity="1" stroke="none" vectornator:layerName="path"/>
<path d="M3199.15 1673.25C3199.73 1673.81 3202.45 1674.4 3202.45 1674.4C3202.45 1674.4 3201.79 1671.7 3201.2 1671.13C3200.83 1670.75 3200.27 1670.6 3199.76 1670.74C3199.24 1670.88 3198.84 1671.29 3198.71 1671.81C3198.59 1672.33 3198.75 1672.88 3199.15 1673.25L3199.15 1673.25Z" fill="#6c63ff" fill-rule="nonzero" opacity="1" stroke="none" vectornator:layerName="path"/>
<path d="M3197.6 1680.07C3198.33 1680.43 3201.1 1680.18 3201.1 1680.18C3201.1 1680.18 3199.66 1677.8 3198.93 1677.43C3198.21 1677.09 3197.34 1677.38 3196.98 1678.1C3196.62 1678.82 3196.89 1679.69 3197.6 1680.07Z" fill="#6c63ff" fill-rule="nonzero" opacity="1" stroke="none" vectornator:layerName="path"/>
<path d="M3197.01 1686.91C3197.67 1687.39 3200.44 1687.6 3200.44 1687.6C3200.44 1687.6 3199.42 1685.01 3198.77 1684.53C3198.12 1684.09 3197.23 1684.25 3196.77 1684.88C3196.3 1685.51 3196.41 1686.4 3197.02 1686.9L3197.01 1686.91Z" fill="#6c63ff" fill-rule="nonzero" opacity="1" stroke="none" vectornator:layerName="path"/>
<path d="M3202.77 1666.71C3202.77 1667.53 3201.3 1669.89 3201.3 1669.89C3201.3 1669.89 3199.82 1667.52 3199.82 1666.71C3199.85 1665.91 3200.5 1665.28 3201.3 1665.28C3202.09 1665.28 3202.75 1665.91 3202.77 1666.71Z" fill="#c0a3ff" fill-rule="nonzero" opacity="1" stroke="none" vectornator:layerName="path"/>
<path d="M3205.21 1671.22C3204.77 1671.91 3202.24 1673.09 3202.24 1673.09C3202.24 1673.09 3202.29 1670.3 3202.73 1669.62C3203.19 1668.96 3204.08 1668.78 3204.75 1669.22C3205.42 1669.65 3205.62 1670.54 3205.21 1671.22Z" fill="#c0a3ff" fill-rule="nonzero" opacity="1" stroke="none" vectornator:layerName="path"/>
<path d="M3205.1 1678.93C3204.38 1679.3 3201.6 1679.05 3201.6 1679.05C3201.6 1679.05 3203.05 1676.67 3203.78 1676.3C3204.25 1676.05 3204.82 1676.07 3205.27 1676.36C3205.72 1676.65 3205.97 1677.16 3205.94 1677.7C3205.9 1678.23 3205.58 1678.7 3205.1 1678.93Z" fill="#c0a3ff" fill-rule="nonzero" opacity="1" stroke="none" vectornator:layerName="path"/>
<path d="M3203.71 1684.75C3203.05 1685.24 3200.28 1685.45 3200.28 1685.45C3200.28 1685.45 3201.3 1682.86 3201.95 1682.37C3202.37 1682.03 3202.95 1681.94 3203.45 1682.15C3203.95 1682.36 3204.3 1682.83 3204.35 1683.37C3204.41 1683.91 3204.16 1684.44 3203.7 1684.74L3203.71 1684.75Z" fill="#c0a3ff" fill-rule="nonzero" opacity="1" stroke="none" vectornator:layerName="path"/>
<path d="M3199.15 1673.25C3199.73 1673.81 3202.45 1674.4 3202.45 1674.4C3202.45 1674.4 3201.79 1671.7 3201.2 1671.13C3200.83 1670.75 3200.27 1670.6 3199.76 1670.74C3199.24 1670.88 3198.84 1671.29 3198.71 1671.81C3198.59 1672.33 3198.75 1672.88 3199.15 1673.25L3199.15 1673.25Z" fill="#c0a3ff" fill-rule="nonzero" opacity="1" stroke="none" vectornator:layerName="path"/>
<path d="M3197.6 1680.07C3198.33 1680.43 3201.1 1680.18 3201.1 1680.18C3201.1 1680.18 3199.66 1677.8 3198.93 1677.43C3198.21 1677.09 3197.34 1677.38 3196.98 1678.1C3196.62 1678.82 3196.89 1679.69 3197.6 1680.07Z" fill="#c0a3ff" fill-rule="nonzero" opacity="1" stroke="none" vectornator:layerName="path"/>
<path d="M3197.01 1686.91C3197.67 1687.39 3200.44 1687.6 3200.44 1687.6C3200.44 1687.6 3199.42 1685.01 3198.77 1684.53C3198.12 1684.09 3197.23 1684.25 3196.77 1684.88C3196.3 1685.51 3196.41 1686.4 3197.02 1686.9L3197.01 1686.91Z" fill="#c0a3ff" fill-rule="nonzero" opacity="1" stroke="none" vectornator:layerName="path"/>
<path d="M3196.41 1690.6C3196.41 1690.6 3198.79 1690.13 3199.43 1689.5C3200.07 1688.87 3202.93 1687.76 3203.24 1688.55C3203.56 1689.34 3207.54 1692.02 3204.83 1692.5C3202.13 1692.97 3198.48 1693.13 3197.68 1692.81C3196.89 1692.49 3196.41 1690.6 3196.41 1690.6Z" fill="#593f92" fill-rule="nonzero" opacity="1" stroke="none" vectornator:layerName="path"/>
<path d="M3204.84 1692.2C3202.14 1692.67 3198.48 1692.83 3197.69 1692.52C3197.08 1692.28 3196.66 1691.12 3196.49 1690.58L3196.41 1690.6C3196.41 1690.6 3196.89 1692.5 3197.68 1692.81C3198.48 1693.13 3202.13 1692.97 3204.83 1692.5C3205.61 1692.36 3205.84 1692.04 3205.75 1691.63C3205.69 1691.9 3205.42 1692.1 3204.84 1692.2Z" fill="#000000" fill-rule="nonzero" opacity="0.2" stroke="none" vectornator:layerName="path"/>
</g>
<g opacity="1" vectornator:layerName="Group 4">
<path d="M3320.35 1663.84C3320.35 1663.84 3321.21 1664.96 3319.95 1666.66C3318.7 1668.35 3317.66 1669.79 3318.07 1670.85C3318.07 1670.85 3319.97 1667.69 3321.52 1667.65C3323.07 1667.61 3322.05 1665.74 3320.35 1663.84Z" fill="#c0a3ff" fill-rule="nonzero" opacity="1" stroke="none" vectornator:layerName="path"/>
<path d="M3320.35 1663.84C3320.43 1663.95 3320.48 1664.07 3320.53 1664.19C3322.03 1665.96 3322.84 1667.61 3321.39 1667.65C3320.04 1667.69 3318.42 1670.1 3318.03 1670.71C3318.05 1670.76 3318.06 1670.81 3318.08 1670.85C3318.08 1670.85 3319.98 1667.7 3321.52 1667.65C3323.07 1667.61 3322.05 1665.74 3320.35 1663.84Z" fill="#c0a3ff" fill-rule="nonzero" opacity="0.1" stroke="none" vectornator:layerName="path"/>
<path d="M3321.95 1665.27C3321.95 1665.67 3321.91 1665.99 3321.85 1665.99C3321.8 1665.99 3321.75 1665.67 3321.75 1665.27C3321.75 1664.88 3321.81 1665.06 3321.86 1665.06C3321.92 1665.06 3321.95 1664.88 3321.95 1665.27Z" fill="#ffffff" fill-rule="nonzero" opacity="1" stroke="none" vectornator:layerName="path"/>
<path d="M3322.5 1665.75C3322.15 1665.93 3321.85 1666.05 3321.82 1666C3321.8 1665.95 3322.06 1665.76 3322.4 1665.57C3322.75 1665.38 3322.61 1665.52 3322.64 1665.57C3322.67 1665.62 3322.85 1665.56 3322.5 1665.75Z" fill="#ffffff" fill-rule="nonzero" opacity="1" stroke="none" vectornator:layerName="path"/>
<path d="M3315.81 1663.84L3315.82 1666.03C3315.82 1666.03 3316.04 1666.44 3316.21 1666.66C3317.46 1668.35 3318.5 1669.79 3318.08 1670.85C3318.08 1670.85 3316.19 1667.69 3314.64 1667.65C3313.09 1667.61 3314.11 1665.74 3315.81 1663.84Z" fill="#c0a3ff" fill-rule="nonzero" opacity="1" stroke="none" vectornator:layerName="path"/>
<path d="M3315.81 1663.84C3315.73 1663.95 3315.67 1664.07 3315.63 1664.19C3314.13 1665.96 3313.32 1667.61 3314.77 1667.65C3314.93 1667.66 3315.24 1667.76 3315.24 1667.76C3315.24 1667.76 3317.79 1670.17 3318.13 1670.71C3318.11 1670.76 3318.1 1670.81 3318.08 1670.85C3318.08 1670.85 3316.18 1667.7 3314.63 1667.65C3313.09 1667.61 3314.11 1665.74 3315.81 1663.84Z" fill="#c0a3ff" fill-rule="nonzero" opacity="0.1" stroke="none" vectornator:layerName="path"/>
<path d="M3314.21 1665.27C3314.21 1665.67 3314.25 1665.99 3314.31 1665.99C3314.36 1665.99 3314.41 1665.67 3314.41 1665.27C3314.41 1664.88 3314.35 1665.06 3314.3 1665.06C3314.24 1665.06 3314.21 1664.88 3314.21 1665.27Z" fill="#ffffff" fill-rule="nonzero" opacity="1" stroke="none" vectornator:layerName="path"/>
<path d="M3313.66 1665.75C3314.01 1665.93 3314.31 1666.05 3314.34 1666C3314.36 1665.95 3314.1 1665.76 3313.75 1665.57C3313.41 1665.38 3313.55 1665.52 3313.52 1665.57C3313.49 1665.62 3313.31 1665.56 3313.66 1665.75Z" fill="#ffffff" fill-rule="nonzero" opacity="1" stroke="none" vectornator:layerName="path"/>
<path d="M3314.48 1670.71C3314.48 1670.71 3316.89 1670.63 3317.61 1670.12C3318.34 1669.6 3321.31 1668.98 3321.49 1669.8C3321.67 1670.62 3325.11 1673.92 3322.39 1673.94C3319.68 1673.96 3316.08 1673.52 3315.36 1673.08C3314.64 1672.64 3314.48 1670.71 3314.48 1670.71Z" fill="#593f92" fill-rule="nonzero" opacity="1" stroke="none" vectornator:layerName="path"/>
<path d="M3322.44 1673.66C3319.73 1673.68 3316.13 1673.24 3315.41 1672.8C3314.86 1672.46 3314.64 1671.26 3314.56 1670.7L3314.48 1670.7C3314.48 1670.7 3314.64 1672.64 3315.36 1673.08C3316.08 1673.52 3319.68 1673.97 3322.39 1673.95C3323.17 1673.95 3323.45 1673.66 3323.43 1673.25C3323.32 1673.5 3323.02 1673.66 3322.44 1673.66Z" fill="#000000" fill-rule="nonzero" opacity="0.2" stroke="none" vectornator:layerName="path"/>
</g>
</g>
</g>
</svg>
