<?xml version="1.0" encoding="UTF-8" standalone="no"?><!DOCTYPE svg PUBLIC "-//W3C//DTD SVG 1.1//EN" "http://www.w3.org/Graphics/SVG/1.1/DTD/svg11.dtd"><svg width="100%" height="100%" viewBox="0 0 834 88" version="1.1" xmlns="http://www.w3.org/2000/svg" xmlns:xlink="http://www.w3.org/1999/xlink" xml:space="preserve" xmlns:serif="http://www.serif.com/" style="fill-rule:evenodd;clip-rule:evenodd;stroke-linejoin:round;stroke-miterlimit:2;"><g><path d="M469.765,65.799c-0.229,-2.67 8.992,-23.55 8.992,-23.55c0,0 -3.45,11.346 -4.167,18.167l2.321,-4.167c-0.792,7.5 4.792,9.513 1.192,11.184c-1.134,0.525 -1.209,-7.7 2.046,-12.388c1.475,-2.121 1.741,13.796 1.47,11.621c-0.3,-2.354 0.325,-15.908 3.388,-18.75c0.533,-0.496 0.304,7.417 1.054,7.092c0.554,-0.238 0.767,6.708 0.308,9.575c-0.775,4.825 -1.841,0.279 1.971,-8.334c0.554,-1.245 1.029,9.634 2.263,8.334c0.479,-0.5 -1.413,-12.217 -0.884,-14.584c0.242,-1.075 1.967,8.83 2.83,10.417c0.754,1.396 0.658,-5.533 0.791,-5.908c1.509,-4.2 -0.112,8.791 0,9.079c2.5,6.371 2.025,0.367 4.167,-2.583c0.862,-1.192 -0.342,6.383 0.754,5.662c0.9,-0.596 -0.404,-3.283 0.625,-6.25c0.338,-0.971 2.113,4.325 2.788,3.383c0.358,-0.504 -0.18,-2.641 0,-3.908c0.408,-2.883 1.191,-5.725 0.954,-6.25c-0.438,-0.962 -0.121,1.229 0.487,1.513c1.709,0.816 2.063,0.683 1.413,-0.521c-0.246,-0.459 -0.204,-0.575 0.225,-0.609c0.783,-0.066 0.916,-0.166 1.491,-0.216c0.205,-0.021 0.371,-0.292 0.371,-0.609c0,-0.733 0.479,-1.029 0.713,-0.437c0.291,0.758 0.691,0.225 1.066,-1.413c0.425,-1.854 1.734,-4.695 2.071,-4.487c0.304,0.187 0.442,1.425 0.867,3.529c0.162,0.808 0.317,2.863 0.342,4.554c0.041,2.629 0.35,4.917 0.595,4.409c0.038,-0.075 0.105,-3.488 0.146,-7.575c0.075,-7.725 0.246,-9.905 0.792,-10.242c0.179,-0.108 0.512,0.05 0.737,0.362c0.855,1.155 -0.55,8.905 0.071,11.184c0.171,0.616 0.142,1.05 -0.083,1.296c-0.258,0.275 -0.25,0.312 0.029,0.154c0.233,-0.129 0.371,-0.029 0.371,0.266c0,0.571 0.6,0.492 0.404,-0.733c-0.096,-0.604 -0.017,-0.883 0.246,-0.883c0.242,0 0.404,-0.396 0.425,-1.021c0.042,-1.15 0.921,-2.704 1.317,-2.313c0.379,0.375 -0.409,4.121 -0.15,4.538c0.095,0.146 0.02,0.267 -0.163,0.267c-0.192,0 -0.296,0.35 -0.242,0.808c0.155,1.346 0.967,1.017 1.075,-0.442c0.05,-0.687 0.2,-1.246 0.334,-1.246c0.554,0 0.816,0.83 0.754,2.388c-0.083,2.017 0.258,2.729 0.904,1.892c0.288,-0.375 0.454,-1.346 0.483,-2.792c0.063,-3.075 0.05,-2.696 0.617,-5.7c0.092,0.187 1.096,2.371 1.113,2.058c0.02,-0.558 0.9,0.7 0.92,1.321c0.013,0.375 0.213,1.146 0.446,1.713c0.409,0.983 0.421,0.925 0.259,-1.313c-0.092,-1.292 -0.288,-2.487 -0.434,-2.662c-0.358,-0.43 -0.5,-3.155 -0.737,-4.692c-0.421,-2.758 -0.596,-8.325 -0.267,-8.65c0.233,-0.233 0.721,0.667 0.575,1.062c-0.071,0.192 0.054,1.121 0.283,2.055c0.538,2.237 1.088,7.262 0.859,7.858c-0.096,0.254 -0.05,0.467 0.112,0.467c0.159,0 0.309,0.558 0.329,1.245c0.109,3.405 0.63,1.792 0.63,3.488c0,1.083 0.525,1.425 0.37,0.171c-0.091,-0.75 -0.045,-0.85 0.221,-0.5c0.384,0.504 0.388,0.521 -0.462,-2.579c-0.534,-1.934 -0.496,-2.242 0.229,-1.967c0.512,0.192 1.721,2.212 1.721,2.879c0,0.488 1.137,2.55 1.404,2.55c0.087,0 0.071,-0.754 -0.038,-1.671c-0.195,-1.662 -0.195,-1.666 0.405,-1.129c0.333,0.296 0.604,0.717 0.604,0.938c0,0.212 0.121,0.391 0.266,0.391c0.146,0 0.338,0.496 0.425,1.104c0.313,2.18 0.663,3.45 0.821,3.013c0.092,-0.246 0.142,-0.838 0.113,-1.325c-0.084,-1.508 -0.029,-2.6 -0.488,-2.317c-0.233,0.142 -0.287,0.05 -0.158,-0.279c0.125,-0.325 0.037,-0.487 -0.267,-0.487c-0.933,0 0.638,-0.5 0.317,-1.5c-0.1,-0.309 -0.05,-0.559 0.104,-0.559c0.154,0 0.267,-0.216 0.242,-0.483c-0.021,-0.263 0.104,-0.533 0.279,-0.596c0.425,-0.15 1.017,1.175 1.017,2.271c0,0.475 0.116,0.867 0.258,0.867c0.308,0 0.633,-1.442 0.633,-2.809c0,-1.808 0.775,-1.971 0.146,-3.171c-0.221,-0.425 -0.304,-0.833 -0.183,-0.904c0.45,-0.275 -0.159,-2.871 0.5,-2.621c0.416,0.159 0.712,1.055 0.721,2.188c0.004,0.892 0.208,0.733 1.529,0.479c-0.104,5.179 -0.154,5.892 0.254,5.483c0.267,-0.266 0.646,-2.47 0.633,-3.716c-0.004,-0.688 0.554,-0.767 0.554,0.254c0,0.567 0.117,0.721 0.459,0.592c0.254,-0.1 0.387,-0.055 0.296,0.095c-0.096,0.146 -0.042,0.346 0.112,0.442c0.154,0.096 0.233,0.433 0.171,0.754c-0.063,0.321 0.029,0.584 0.204,0.584c0.208,0 0.196,0.141 -0.033,0.412c-0.238,0.283 -0.25,0.475 -0.038,0.608c0.496,0.3 0.867,-0.087 0.696,-0.729c-0.104,-0.4 -0.008,-0.587 0.304,-0.587c0.367,0 0.434,0.271 0.329,1.325c-0.141,1.408 -0.137,1.416 0.617,1.133c1.992,-0.758 -0.346,-7.837 -0.533,-10.1c-0.034,-0.404 -0.192,-0.829 -0.354,-0.942c-0.188,-0.133 -0.142,-0.35 0.116,-0.587c0.342,-0.317 0.371,-0.308 0.171,0.037c-0.179,0.309 -0.112,0.367 0.25,0.23c0.308,-0.113 0.721,0.05 1.088,0.445c1.312,1.396 0.212,7.071 0.983,3.609l0.421,1.471c0.321,-0.771 0.716,-1.596 0.837,-2.792c0.263,-2.65 1.263,-5.225 2.142,-5.513c0.5,-0.166 0.467,0.88 -0.088,2.867c-0.562,2.013 -0.85,4.038 -0.529,3.717c0.317,-0.309 0.146,-0.279 0.642,-1.459c0.512,-1.225 0.208,-2.141 0.642,-2.404c0.441,-0.275 0.125,-1.208 0.666,-1.425c0.279,-0.108 0.263,-0.229 -0.075,-0.462c-0.316,-0.225 -0.346,-0.384 -0.104,-0.542c0.496,-0.321 1.138,-2.421 1.542,-2.421c0.621,0 0.854,2.579 0.321,3.571c-0.175,0.321 -0.492,1.204 -0.709,1.963c-1.291,4.562 -1.771,3.741 -1.725,6.454c0.067,4.054 0.146,5.062 0.404,5.216c0.15,0.092 0.271,-0.104 0.271,-0.437c0,-0.404 0.192,-0.6 0.596,-0.6c0.679,0 0.713,0.108 0.288,0.9c-0.255,0.462 -0.213,0.562 0.22,0.558c1.142,-0.012 1.817,-0.975 2.438,-3.479c0.337,-1.35 0.525,-2.592 0.421,-2.758c-0.109,-0.171 0.012,-0.459 0.262,-0.638c0.25,-0.183 0.504,-0.579 0.567,-0.883c0.125,-0.638 1.146,-0.908 1.146,-0.308c0,0.22 -0.134,0.483 -0.296,0.583c-0.163,0.1 -0.288,0.667 -0.279,1.262c0.021,1.242 0.012,1.096 0.679,-0.383l0.121,0.704c0.146,0.821 -0.479,2.146 -0.892,1.892c-0.154,-0.092 -0.142,0.087 0.025,0.404c0.229,0.425 0.196,0.796 -0.133,1.421c-0.463,0.883 -0.329,2.171 0.258,2.533c0.192,0.121 0.338,1.159 0.35,2.5c0.017,2.1 0.208,2.725 0.833,2.738c0.125,0 0.225,-0.254 0.225,-0.563c0,-0.766 0.592,-1.133 0.592,-0.316c0,0.858 0.646,0.32 0.446,0c-0.283,-0.455 0.333,-1.117 0.742,-5.434c0.35,-3.733 0.575,-4.983 0.9,-5.096c0.158,-0.054 0.287,-0.325 0.287,-0.6c0,-0.879 1.892,-4.137 2.217,-3.82c0.362,0.362 0.212,2.875 -0.225,3.662c-0.663,1.196 -0.95,4.108 -1.296,5.375c-0.146,0.525 -0.088,0.667 0.225,0.554c0.229,-0.083 0.383,-0.3 0.342,-0.483c-0.105,-0.45 0.729,-0.421 0.92,0.042c0.192,0.454 1.671,-1.188 1.675,-1.855c0,-0.933 2.888,-4.375 1.871,-5.383c-0.433,-0.429 -0.791,-4.3 -0.4,-4.3c0.625,0 2.575,3.283 2.254,3.796c-0.195,0.312 0.505,2.446 1.046,5.242c0.229,1.183 0.5,1.837 0.763,1.837c0.221,0 0.404,0.213 0.404,0.471c0,0.25 0.242,0.529 0.542,0.604c0.954,0.246 0.133,1.646 1.095,2.346c0.767,0.554 1.034,0.5 1.034,-0.204c0,-0.338 -0.129,-0.529 -0.288,-0.434c-0.162,0.1 -0.146,-0.237 0.046,-0.791c0.538,-1.584 0.775,-1.729 1.592,-0.975c0.596,0.546 0.725,0.95 0.725,2.225c0,3.141 0.691,0.346 0.608,-2.409c-0.021,-0.754 0.104,-1.458 0.283,-1.566c0.175,-0.109 0.246,-0.438 0.155,-0.729c-0.163,-0.505 0.616,-1.105 0.975,-0.75c0.308,0.3 -0.071,4.441 -0.505,5.537c-0.179,0.454 -0.329,1.033 -0.329,1.283c0,0.842 0.817,-0.145 1.025,-1.237c0.225,-1.2 0.759,-1.367 0.759,-0.238c0,1.396 0.279,0.555 0.412,-1.241c0.217,-2.967 0.096,-3.354 0.488,-2.775c0.412,0.612 0.066,2.054 0.408,2.604c0.383,0.617 0.108,3.242 0.654,3.787c0.508,0.509 0.725,0.459 0.504,-0.112c-0.129,-0.329 -0.058,-0.438 0.229,-0.346c0.234,0.075 0.463,0.488 0.513,0.921c0.058,0.462 0.279,0.787 0.542,0.787c0.316,0 0.387,-0.179 0.245,-0.625c-0.137,-0.42 -0.095,-0.558 0.125,-0.425c0.5,0.309 0.188,-1.008 0.58,-1.008c0.137,0 0.225,-0.387 0.195,-0.862c-0.075,-1.288 0.584,-2.6 1.363,-2.713c0.875,-0.125 1.1,-0.996 0.533,-0.704c-0.225,0.112 -0.171,0.012 0.125,-0.225c0.35,-0.283 0.425,-0.5 0.221,-0.629c-0.667,-0.404 0.579,-1.284 0.579,-0.267c0,0.4 0.075,0.413 0.459,0.1c0.766,-0.629 -0.242,-1.325 0.729,-1.017c0.471,0.146 0.55,0.084 0.396,-0.32c-0.167,-0.425 -0.071,-0.471 0.62,-0.296c0.45,0.108 0.984,0.066 1.18,-0.092c0.591,-0.487 1.7,-0.042 1.6,0.646c-0.046,0.329 0.1,0.654 0.329,0.733c0.3,0.104 0.371,-0.033 0.25,-0.483c-0.229,-0.867 0.375,-0.708 0.375,-0.288c0,0.2 0.216,0.142 0.541,-0.15c0.509,-0.454 0.546,-0.454 0.55,0.025c0.009,0.984 -0.891,0.555 -0.279,1.534c0.446,0.712 0.488,2.483 0.079,3.246c-0.379,0.691 -0.087,1.483 0.467,1.27c0.55,-0.204 0.571,0.45 -0.021,0.68c-0.316,0.12 -0.362,0.304 -0.158,0.687c0.154,0.283 0.2,0.6 0.1,0.7c-0.1,0.096 -0.221,1.042 -0.271,2.096c-0.087,1.858 -0.067,1.917 0.638,1.917c0.4,0 0.725,-0.038 0.725,-0.08c0,-0.041 -0.121,-0.5 -0.271,-1.016c-0.209,-0.717 -0.129,-1.342 0.333,-2.642c0.821,-2.304 1.125,-2.033 1.125,-2.904c0,-0.492 0.213,-0.675 0.896,-0.771c0.808,-0.117 0.917,-0.033 1.179,0.925c0.417,1.525 1.304,2.242 1.042,2.663c-0.221,0.358 0.446,0.612 0.446,-0.571c0,-0.475 0.141,-0.95 0.316,-1.059c0.175,-0.104 0.246,-0.379 0.159,-0.608c-0.242,-0.621 1.508,-3.05 0.975,-3.05c-0.542,0 0.629,-0.825 0.629,-1.554c0,-1.058 0.625,-1.888 1.333,-1.75c0.642,0.121 0.696,0.296 0.846,2.817c0.233,3.891 0.308,4.437 0.637,4.604c0.634,0.308 0.484,-7.35 1.517,-7.35c0.229,0 0.413,-0.104 0.413,-0.229c0,-0.513 -1.275,-3.784 -1.917,-4.921c-1.721,-3.05 -2.358,-4.963 -1.813,-5.413c0.392,-0.325 1.371,1.384 2.721,4.734c0.538,1.333 1.113,1.72 0.8,0.537c-0.3,-1.129 0.609,-0.817 1.138,2.433c0.437,2.7 0.541,1.492 1.166,3.955c0.217,0.845 0.459,1.47 0.538,1.391c0.079,-0.079 0.125,-0.904 0.1,-1.833c-0.067,-2.554 0.487,-0.629 0.542,0.671c0.045,1.033 0.079,1.083 0.287,0.437c0.225,-0.696 0.242,-0.683 0.267,0.221c0.037,1.167 0.2,1.188 1.137,0.146c0.696,-0.771 0.717,-0.775 0.525,-0.121c-0.191,0.642 -0.158,0.663 0.492,0.329c0.575,-0.291 0.633,-0.287 0.325,0.038c-0.433,0.454 -0.483,0.858 -0.104,0.858c0.516,0 0.679,-1.083 0.812,-5.425c0.075,-2.421 0.196,-4.458 0.271,-4.529c0.879,-0.875 0.079,5.733 0.779,6.162c0.271,0.167 0.254,0.342 -0.071,0.734c-0.391,0.471 -0.375,0.479 0.25,0.15c0.63,-0.329 0.667,-0.304 0.517,0.321c-0.121,0.487 0.179,1.175 1.058,2.441c0.675,0.967 1.125,1.496 1,1.171c-0.333,-0.871 -0.383,-2.396 -0.629,-3.083c-0.083,-0.242 -0.179,-1 -0.212,-1.688c-0.046,-1 0.041,-1.254 0.437,-1.254c0.275,0 0.721,0.338 0.992,0.746c0.271,0.412 0.629,0.662 0.796,0.558c0.166,-0.1 0.266,-0.008 0.225,0.213c-0.096,0.483 1.054,2.366 1.412,2.308c0.459,-0.067 0.413,1.588 0.817,0.938c0.129,-0.213 0.162,-0.571 0.075,-0.796c-0.092,-0.234 0,-0.525 0.196,-0.65c0.196,-0.125 0.558,-0.613 0.804,-1.084c0.346,-0.666 0.362,-0.883 0.075,-0.979c-0.513,-0.171 -0.45,-0.746 -0.088,-0.525c0.592,0.363 -0.529,-6.016 -0.004,-6.016c0.625,0 0.842,1.058 1.021,4.987c0.183,4.013 0.504,5.463 0.95,4.313c0.363,-0.934 -0.487,-1.659 0.467,-1.659c0.45,0 0.541,-0.133 0.4,-0.587c-0.134,-0.417 -0.054,-0.588 0.275,-0.588c0.258,0 0.466,-0.196 0.466,-0.441c0,-0.609 0.592,-0.509 0.592,-0.146c0,0.35 0.713,0.537 0.438,-0.317c-0.175,-0.55 -0.13,-0.579 0.42,-0.292c0.855,0.455 1.325,1.588 0.988,1.384c-0.542,-0.334 -0.971,3.566 -0.363,3.191c0.163,-0.1 0.305,-0.537 0.309,-0.975c0.012,-0.92 0.716,-2.316 0.966,-1.912c0.096,0.146 0.05,0.462 -0.1,0.7c-0.362,0.562 -0.362,3.133 0.005,3.358c0.154,0.096 0.537,-0.079 0.85,-0.391c0.445,-0.438 0.579,-1.021 0.612,-2.725c0.063,-3.242 0.463,-5.388 0.95,-5.092c0.292,0.179 0.138,3.329 -0.221,4.612c-0.104,0.371 -0.016,0.463 0.321,0.338c0.521,-0.204 0.667,0.608 0.163,0.912c-0.505,0.313 -0.067,0.642 0.887,0.671c0.683,0.017 0.9,-0.104 0.9,-0.512c0,-0.292 0.217,-0.617 0.479,-0.717c0.371,-0.146 0.446,-0.05 0.321,0.421c-0.129,0.487 -0.05,0.567 0.413,0.421c0.354,-0.109 0.583,-0.034 0.604,0.212c0.146,1.459 0.1,2.004 -0.171,2.021c-0.383,0.021 1.025,0.683 1.55,0.6c0.204,-0.033 0.454,0.346 0.554,0.833c0.1,0.496 0.279,0.896 0.4,0.896c0.317,0 0.908,-3.146 0.692,-3.704c-0.134,-0.342 -0.034,-0.437 0.383,-0.362c0.646,0.12 0.638,0.875 0.888,3.333l0.245,-1.538c0.138,-0.85 0.363,-1.545 0.505,-1.545c0.141,0 0.258,-0.609 0.258,-1.35c0,-0.946 0.112,-1.305 0.371,-1.217c0.658,0.225 -0.063,5.504 0.462,5.504c0.375,0 1.246,-1.325 1.246,-1.9c0,-0.579 0.738,-0.65 0.446,0.063c-0.713,1.745 -1.288,3.837 -1.196,4.341c0.063,0.321 0.121,0.688 0.133,0.817c0.021,0.221 0.605,0.358 0.646,-1.354c0.025,-0.95 0.075,-1.067 0.229,-0.529c0.192,0.687 0.209,0.679 0.692,-0.296c0.275,-0.546 0.571,-1.238 0.663,-1.529c0.295,-0.963 0.825,-0.192 0.62,0.9c-0.175,0.92 -0.137,1.012 0.342,0.833c0.433,-0.163 0.467,-0.133 0.171,0.167c-0.479,0.475 -0.479,1.341 0,1.5c0.45,0.154 1.092,-0.617 1.104,-1.321c0.004,-0.288 0.217,-0.517 0.475,-0.517c0.783,0 -0.183,-0.825 0.563,-1.562c0.708,-0.705 0.466,-5.742 0.158,-5.934c-0.163,-0.096 -0.296,-0.379 -0.296,-0.625c0,-0.387 0.058,-0.383 0.467,0.017c1.312,1.304 0.041,-0.704 0.679,-1.783c0.279,-0.48 0.321,-0.442 0.329,0.312c0.004,0.471 0.096,0.771 0.204,0.663c0.104,-0.105 0.217,-1.68 0.246,-3.5c0.067,-4.146 0.333,-5.788 1.058,-6.559c0.446,-0.466 0.492,-0.683 0.217,-0.958c-0.271,-0.271 -0.267,-0.35 0.025,-0.35c0.696,0 1.188,0.733 0.867,1.296c-0.434,0.771 0.237,2.9 -0.188,2.275c-0.262,-0.392 -0.454,1.229 -0.804,6.825c-0.171,2.754 -0.4,3.271 -0.933,2.087c-0.625,-1.4 -0.171,-0.312 -0.088,4.713c0.038,2.141 0.1,2.491 0.342,1.837c0.296,-0.804 0.7,-1.05 0.892,-0.558c0.054,0.142 0.42,0.354 0.812,0.479c1.1,0.338 0.325,-0.212 0.325,-1.225c0,-0.271 -0.171,-0.387 -0.429,-0.287c-0.571,0.216 -0.917,-0.884 -0.45,-1.438c0.254,-0.3 0.262,-0.425 0.025,-0.425c-0.442,0 -0.429,-0.883 -0.017,-0.883c0.171,0 0.221,-0.15 0.109,-0.329c-0.363,-0.58 1.329,-1.221 0.9,-0.534c-0.109,0.171 0.066,0.384 0.387,0.467c0.496,0.129 0.563,0.337 0.442,1.408c-0.125,1.092 -0.063,1.275 0.483,1.417c0.346,0.087 0.629,0.371 0.629,0.629c0,0.529 0.746,0.913 0.509,-0.533c-0.092,-0.55 -0.092,-1.075 0,-1.163c0.504,-0.504 0.316,-2.712 -1.3,-15.25c-0.1,-0.762 -0.305,-1.396 -0.455,-1.396c-0.15,0 -0.191,-0.129 -0.091,-0.287c0.221,-0.358 -0.113,-1.829 -0.192,-2.233c-0.625,0.062 -3.8,0.325 -4.104,0.65c-0.45,0.47 -0.475,12.479 -1.15,12.441c-0.471,-0.021 -1.271,-0.862 -1.096,-1.146c0.108,-0.17 0.088,-0.475 -0.042,-0.683c-0.129,-0.2 -0.254,-1.129 -0.27,-2.058c-0.05,-2.6 -0.692,-2.8 -0.938,-0.296c-0.117,1.212 -0.225,1.404 -0.821,1.442c-0.608,0.037 -0.671,-0.067 -0.558,-0.88c0.375,-2.641 0.583,-5.183 0.429,-5.183c-0.292,0 -1.967,1.867 -2.175,2.421c-0.237,0.629 -1.4,0.692 -1.4,0.075c0,-0.242 0.133,-0.442 0.296,-0.442c0.162,0 0.3,-0.2 0.3,-0.446c0,-0.558 1.304,-2.662 2.333,-3.766c0.429,-0.459 1.288,-1.096 1.909,-1.409c2.337,-1.191 1.329,-1.666 4.037,-1.666c0.996,0 1.808,0.121 1.808,0.266c0,0.421 0.784,0.305 1.188,-0.175c0.204,-0.245 0.487,-0.441 0.633,-0.441c0.384,0 0.142,0.879 0.504,0.879c0.35,0 0.984,1.525 1.184,1.329c0.075,-0.075 0.775,0.392 1.55,1.029c2.021,1.675 1.254,0.829 2.737,1.596c0.859,0.442 2.079,0.371 2.246,-0.129c0.175,-0.521 0.942,-0.321 0.942,0.246c0,0.929 1.825,2.075 1.446,2.762c-0.025,0.038 0.575,0.696 1.333,1.459c0.758,0.758 1.387,1.55 1.396,1.762c0.025,0.4 0.525,-0.337 0.396,-1.971c-0.109,-1.333 0.366,-2.796 0.908,-2.796c0.696,0 0.025,6.363 0.792,7.146c0.791,0.813 4.325,4.609 4.537,4.392c0.233,-0.225 1.625,1.396 1.996,1.396c0.337,0 0.358,0.687 -0.042,0.441c-0.162,-0.1 -0.296,-0.045 -0.296,0.117c0,0.379 1.046,0.954 1.288,0.713c0.1,-0.1 0.275,0.07 0.392,0.379c0.287,0.758 2.216,2.758 2.662,2.758c0.196,0 0.533,0.4 0.754,0.892c0.438,0.979 1.338,1.075 1.2,0.125c-0.046,-0.317 -0.083,-1.304 -0.087,-2.192c-0.009,-1.342 -0.184,-1.875 -1.034,-3.154c-0.558,-0.85 -1.02,-1.629 -1.02,-1.738c0,-0.412 -1.58,-1.895 -1.425,-2.683c0.145,-0.742 3.804,4.775 3.912,5.033c0.096,0.238 0.213,0.246 0.383,0.021c0.346,-0.441 1.875,-0.304 2.2,0.192c0.234,0.362 0.309,0.362 0.542,0.004c0.354,-0.542 -0.1,-1.675 -0.612,-1.529c-0.905,0.25 -2.1,0.104 -2.35,-0.283c-0.425,-0.667 -0.325,-0.859 0.454,-0.859c1.483,0 0.954,-1.15 2.162,-0.366c0.984,0.637 0.754,-0.209 0.225,-0.409c-0.779,-0.296 -0.2,-1.525 -0.741,-0.696c-0.53,0.809 -0.067,-1.17 -0.559,-1.17c-0.391,0 -0.783,-1.65 -1.4,-1.884c-0.229,-0.087 -0.416,-0.433 -0.416,-0.771c0,-0.591 0.016,-0.595 0.733,-0.083c0.404,0.292 0.737,0.696 0.742,0.908c0.004,0.205 0.204,0.45 0.445,0.542c0.621,0.238 2.325,3.146 2.184,2.313c-0.129,-0.775 0.766,-0.855 0.783,0.145c0.004,0.409 0.142,0.75 0.308,0.771c0.459,0.046 1.93,-0.508 1.93,-0.729c0,-0.112 0.508,-0.154 1.129,-0.1c1.075,0.108 1.15,0.183 1.575,1.604c0.275,0.925 0.625,1.517 0.929,1.563c0.396,0.054 0.433,-0.063 0.204,-0.659c-0.35,-0.916 -0.35,-1.058 0.021,-0.829c0.379,0.229 0.417,-0.333 -0.029,-0.608c-0.463,-0.283 0.054,-1.546 -0.279,-1.75c-0.271,-0.167 -0.03,-1.304 0.387,-1.833c0.721,-0.913 0.958,-0.309 1.042,2.645c0.087,3.15 0.329,5.863 0.541,6.075c0.071,0.071 0.246,0.005 0.392,-0.141c0.154,-0.163 0.125,-1.004 -0.079,-2.042c-0.504,-2.587 -0.142,-6.317 -0.5,-6.317c-0.35,0 0.083,-1.529 -0.371,-1.808c-0.208,-0.133 -0.142,-0.462 0.204,-0.983c0.484,-0.734 0.554,-0.75 1.054,-0.304c0.755,0.679 1.434,3.095 1.796,3.095c0.413,0 0.467,-1.233 0.113,-2.641c-0.179,-0.725 -0.229,-1.517 -0.109,-1.763c0.663,-1.321 0.809,-2.362 1.184,-1.758c0.15,0.242 0.15,0.483 -0.004,0.575c-0.5,0.308 0.287,7.212 1.466,5.033c0.184,-0.341 0.525,-0.621 0.759,-0.621c0.333,0 0.395,0.388 0.308,1.821c-0.063,1 -0.017,1.659 0.108,1.459c0.15,-0.242 0.35,-0.096 0.621,0.462c0.325,0.663 0.421,0.717 0.521,0.288c0.171,-0.742 1.558,-1.925 1.558,-2.363c0,-0.433 1.221,-1.667 1.646,-1.667c0.425,0 0.838,4.492 0.588,6.405c-0.267,2.041 0.645,1.837 0.12,3.2l-0.312,0.82c0.371,-0.35 1.521,-1.32 1.521,-1.825c0,-0.22 0.133,-0.325 0.296,-0.22c0.162,0.095 0.295,-0.03 0.295,-0.284c0,-0.246 0.134,-0.454 0.3,-0.454c0.43,0 0.184,-2.012 0.559,-2.604c0.321,-0.5 1.516,-0.175 1.516,0.417c0,0.233 0.117,0.425 0.263,0.425c0.25,0 0.758,1.658 0.658,2.162c-0.029,0.133 0.104,0.433 0.292,0.658c0.683,0.817 -0.575,3.075 0.446,1.642c0.283,-0.404 0.429,-1.037 0.354,-1.546c-0.071,-0.475 -0.004,-0.858 0.15,-0.858c0.15,0 0.204,-0.192 0.117,-0.417c-0.25,-0.646 0.716,-3.096 0.479,-3.991c-0.109,-0.413 -0.009,-0.592 0.325,-0.592c0.721,0 0.575,-0.529 -0.188,-0.675l-0.671,-0.133c0.421,-0.134 1.4,-0.371 1.234,-0.792c-0.129,-0.338 0.812,-1.129 1.162,-0.971c0.571,0.25 1.254,-3.421 0.7,-3.758c-0.137,-0.088 -0.175,-0.35 -0.079,-0.588c0.421,-1.087 -0.121,-3.146 0.775,-3.312c0.404,-0.075 0.525,0.091 0.521,0.729c-0.008,0.996 0.296,2.892 0.437,3.875c1.075,-0.392 2.809,-1.021 3.917,-1.463c1.083,-0.425 1.067,-0.275 2.258,0.771c-0.295,-1.466 -1.262,-6.6 -1.27,-6.983c-0.005,-0.117 0.254,-0.217 0.57,-0.217c0.85,0 2.93,2.942 3.505,2.942c0.204,0 0.37,0.137 0.37,0.312c0,0.517 0.805,1.15 1.463,1.15c0.337,0 0.583,0.167 0.542,0.367c-0.042,0.217 0.158,0.329 0.466,0.283c1.096,-0.187 -0.154,1.396 0.921,1.8c0.358,0.138 0.417,-0.529 0.375,-4.208c-0.029,-2.4 0.038,-4.458 0.146,-4.562c0.108,-0.109 0.475,-0.109 0.812,-0.005c0.509,0.163 0.617,0.438 0.617,1.55c0,1.588 0.208,1.471 1.05,-0.604c1.625,-4 1.808,0.834 2.7,1.175c0.225,0.084 0.404,0.338 0.404,0.567c0,0.442 0.467,0.554 0.709,0.171c0.225,-0.363 -0.4,-2.809 -0.78,-3.042c-0.241,-0.146 -0.245,-0.317 -0.012,-0.596c0.508,-0.621 -0.15,-3.821 0.354,-3.325c0.45,0.442 1.229,4.413 1.054,5.354c-0.191,1.03 0.279,1.842 0.779,1.35c0.425,-0.42 1.163,-0.179 1.163,0.38c0,0.225 0.133,0.408 0.296,0.408c0.162,0 0.3,0.171 0.3,0.375c0,0.533 1.183,1.05 1.183,1.65c0,0.233 0.088,0.342 0.188,0.242c0.383,-0.384 1.229,0.387 1.458,1.325l0.233,0.966l0.121,-0.808c0.067,-0.45 0.246,-0.813 0.396,-0.813c0.154,0 0.279,-0.316 0.279,-0.712c0,-1.129 1.008,-0.633 1.55,-1.813c0.713,-1.545 1.896,-0.287 1.563,1.671c-0.28,1.613 0.179,1.434 0.979,-0.391c1.966,-4.471 2.912,-5.442 2.571,-2.646c-0.425,3.479 -2.596,5.829 1.633,1.396c-0.288,0.908 -0.592,1.875 -0.988,3.233c-0.466,1.612 -0.991,2.071 -0.55,1.804c0.188,-0.117 0.363,0.079 0.425,0.471c0.1,0.637 0.138,0.625 0.988,-0.317c2.912,-3.241 6.967,-3.95 6.967,-2.958c0,0.146 0.2,0.262 0.441,0.262c0.675,0 0.538,0.942 -0.296,2.059c-1.225,1.65 -0.216,1.062 -1.841,2.708c-1.029,1.046 -0.854,1.625 0.208,0.671c0.421,-0.375 0.567,-0.379 1.063,-0.021c0.47,0.346 0.558,0.733 0.504,2.2c-0.092,2.546 0.512,1.713 0.512,1.496c0,-0.158 0.179,-0.296 0.404,-0.296c0.425,0 0.775,-2.475 0.784,-5.583c0.004,-0.888 0.087,-2.113 0.191,-2.721c0.167,-0.996 0.221,-1.054 0.58,-0.588c0.641,0.834 0.266,7.13 0.604,7.13c0.104,0 0.404,-0.234 0.666,-0.513c0.58,-0.617 2.034,-1.3 2.763,-1.667c0.204,0.267 1.117,1.384 1.125,1.684c0.017,0.575 -0.629,1.346 -1.008,1.2c-0.563,-0.217 -0.938,0.475 -0.434,0.8c0.342,0.221 0.338,0.308 -0.037,0.55c-0.242,0.158 -0.359,0.291 -0.25,0.296c0.279,0.004 -0.725,2.645 -0.338,2.645c0.313,0 0.025,0.942 -0.366,1.205c-0.138,0.091 -0.125,0.508 0.033,0.916c0.287,0.75 0.292,0.754 1.646,0.313c1.212,-0.4 1.833,-0.963 1.058,-0.963c-0.392,0 -0.45,-0.708 0.146,-0.483c0.304,0.117 0.446,-0.013 0.446,-0.396c0,-0.408 0.141,-0.517 0.479,-0.392c0.387,0.15 0.446,0.046 0.3,-0.52c-0.1,-0.388 -0.104,-0.542 -0.008,-0.342c0.312,0.671 0.758,0.383 0.683,-0.442c-0.092,-0.941 0.258,-2.129 0.625,-2.129c0.404,0 0.646,1.075 0.554,2.513c-0.079,1.295 0.617,2.595 1.125,2.095c0.45,-0.445 -1.646,-1.216 0.546,-2c1.142,-0.412 1.283,-0.679 0.567,-1.075c-0.313,-0.17 -0.496,-0.75 -0.542,-1.704c-0.188,-3.729 -3.079,-8.691 -3.363,-10.625c-0.141,-0.975 -0.5,-1.25 -0.77,-0.591c-0.088,0.204 -0.075,-0.084 0.02,-0.63c0.113,-0.645 0.067,-0.937 -0.125,-0.82c-0.183,0.112 -0.25,-0.088 -0.17,-0.492c0.075,-0.388 -0.075,-0.883 -0.338,-1.146c-0.262,-0.258 -0.471,-0.617 -0.471,-0.808c0,-0.459 -1.229,-2.013 -2.508,-4.259c-1.096,-1.92 -2.213,-2.954 -1.675,-2.65c0.321,0.192 0.379,0.1 0.25,-0.391c-0.092,-0.346 -0.138,-0.629 -0.096,-0.629c0.038,0 0.504,0.604 1.042,1.337c1.196,1.654 1.454,1.554 0.483,-0.187c-1.187,-2.121 -1.933,-4.017 -2.967,-5.363c-0.42,-0.537 -0.679,-1.062 -0.583,-1.162c0.2,-0.2 -1.596,-3.467 -2.092,-3.809c-0.354,-0.241 0.65,-0.571 1.596,0.696c0.8,1.071 4.767,8.858 4.767,9.358c0,0.188 0.133,0.259 0.296,0.159c0.429,-0.263 0.183,1.362 0.546,1.775c0.433,0.491 0.887,3.325 2.458,6.375c0.383,0.746 0.029,0.971 0.854,2.575c0.329,0.629 0.596,1.421 0.596,1.75c0,0.329 0.133,0.6 0.296,0.6c0.412,0 0.196,-2.059 0.562,-2.059c0.434,0 0.634,1.321 0.429,2.813c-0.133,0.95 -0.095,1.333 0.121,1.2c0.2,-0.121 0.259,0.033 0.154,0.421c-0.262,0.996 1.6,6.312 2.609,5.696c0.154,-0.096 0.279,0.037 0.279,0.283c0,0.254 0.1,0.467 0.225,0.467c0.329,0.004 0.962,1.483 0.962,2.258c0,0.746 0.292,0.858 0.834,0.321c0.483,-0.475 0.446,-1.471 -0.079,-2.159c-0.642,-0.841 -0.305,-1.766 -0.755,-2.041c-0.162,-0.1 -0.295,-0.896 -0.295,-1.775c0,-1.475 0.066,-1.625 0.9,-2.054c0.808,-0.409 0.945,-0.413 1.358,-0.005c0.662,0.659 1.279,0.58 1.092,-0.141c-0.092,-0.342 0.054,-0.834 0.337,-1.142c0.467,-0.512 0.454,-0.612 -0.242,-1.679c-0.408,-0.629 -1.016,-1.488 -1.35,-1.921c-0.716,-0.917 -0.804,-1.358 -0.166,-0.833c0.571,0.466 0.562,0.196 -0.021,-0.925c-0.258,-0.492 -0.396,-0.963 -0.304,-1.059c0.225,-0.22 -1.009,-1.645 -1.009,-2.104c0,-0.412 -3.216,-7.154 -3.512,-7.362c-0.129,-0.088 -0.546,-0.692 -0.929,-1.334c-1.484,-2.508 -4.275,-4.266 -3.046,-4.266c0.358,0 0.821,0.266 1.025,0.591c0.204,0.325 0.558,0.588 0.792,0.588c0.35,0 0.341,-0.083 -0.034,-0.513c-0.825,-0.941 -2.608,-3.591 -2.608,-3.875c0,-0.587 -1.6,-0.875 -0.4,-0.895c1.004,-0.013 1.775,2.145 3.525,4.191c0.467,0.55 1.825,3.996 3.246,6.396c1.479,2.513 1.691,3.942 2.808,6.304c2.388,5.046 2.075,6.117 2.6,3.529c0.263,0.655 0.608,1.3 0.463,2.68c-0.134,1.283 0.345,2 0.666,0.995c0.104,-0.325 0.425,-0.712 0.713,-0.866c0.45,-0.242 0.5,-0.159 0.391,0.658c-0.229,1.708 -1.179,1.046 -0.666,2.375c0.258,0.679 0.371,0.733 0.875,0.421c0.491,-0.304 0.666,-0.254 1.183,0.362c0.729,0.867 0.996,3.309 0.488,4.463c-0.371,0.854 0.57,0.221 0.812,0.887c0.171,0.475 0.717,0.088 0.25,-0.475c-0.271,-0.325 -0.171,-0.604 0.471,-1.325c0.446,-0.508 0.983,-0.92 1.192,-0.92c0.604,0 0.462,-0.463 -0.93,-3.025c-5.145,-9.496 -2.391,-4.13 -3.737,-6.821c-1.938,-3.863 -5.588,-9.529 -6.696,-10.396c-0.946,-0.733 -0.458,-0.475 -1.592,-2.308c-1.679,-2.713 -0.037,-1.025 -3.5,-5.284c-2.383,-2.929 -2.42,-3 -1.558,-2.937c0.525,0.033 0.879,0.225 0.879,0.471c0,0.766 5.034,5.525 5.042,6.425c0.004,0.2 0.133,0.366 0.292,0.366c0.158,0 0.391,0.363 0.52,0.804c0.125,0.446 1.109,2.13 2.184,3.75c1.841,2.775 5.021,8.13 5.021,8.45c0,0.213 3.379,6.155 5.645,10.613c0.896,1.758 1.8,3.262 2.009,3.342c0.212,0.083 0.621,-0.067 0.916,-0.33c0.975,-0.875 2.23,-0.304 3.305,0.096c-1.188,1.929 -1.234,1.646 -0.555,3.367c0.734,1.85 1.075,2.229 1.459,1.642c0.312,-0.48 0.291,-5.242 -0.025,-5.442c-0.334,-0.2 -0.004,-1.392 -0.713,-2.742c-0.691,-1.325 -0.275,-1.658 -0.808,-2.821c-0.404,-0.875 -0.158,-1.279 0.467,-0.766c0.379,0.308 0.425,-0.067 0.354,-2.896c-0.079,-3.113 -0.054,-3.267 0.6,-3.692c0.375,-0.246 0.821,-0.446 0.991,-0.446c0.488,0 0.355,1.359 -0.175,1.792c-0.425,0.35 -0.462,0.996 -0.3,5.363c0.28,7.583 1.084,10.941 1.521,6.37c0.079,-0.825 0.313,-1.795 0.521,-2.15c0.613,-1.07 0.325,-14.17 0.754,-24.454c0.209,-4.912 0.071,-8.662 -0.341,-9.571c-0.146,-0.32 0,-0.562 0.483,-0.775c0.667,-0.304 0.704,-0.262 0.771,0.88c0.037,0.662 0.129,1.291 0.204,1.408c0.171,0.275 0.158,9.071 -0.021,11.142c-0.425,4.995 -0.592,10.983 -0.317,11.425c0.117,0.183 0.121,0.475 0.013,0.645c-0.392,0.625 -0.471,2.042 -0.117,2.042c0.246,0 0.259,0.108 0.046,0.367c-0.35,0.416 -0.4,4.083 -0.067,4.625c0.117,0.187 0.325,0.329 0.459,0.316c0.133,-0.016 0.296,0.53 0.358,1.221c0.229,2.434 0.429,1.504 0.392,-1.829c-0.017,-1.858 0.025,-5.429 0.1,-7.933c0.204,-6.825 -0.434,-8.088 -0.096,-8.446c0.3,-0.325 0.462,-7.117 0.817,-9.483c0.458,-3.05 -0.363,-6.309 0.2,-10.613c0.17,-1.304 0.112,-1.804 -0.28,-2.396c-0.987,-1.491 0.709,-0.3 -0.104,-1.658c-0.316,-0.529 -0.304,-0.713 0.054,-1.067c0.505,-0.504 0.896,-0.571 0.613,-0.112c-0.113,0.175 0.1,0.596 0.471,0.929c0.654,0.604 0.662,0.7 0.441,4.758c-0.125,2.275 -0.204,4.467 -0.175,4.867c0.284,3.912 0.23,6.654 -0.137,7.058c-0.4,0.442 -0.621,2.504 -0.892,8.3c-0.137,2.971 0.271,3.975 0.596,1.471c0.104,-0.771 0.375,-2.717 0.608,-4.337c0.642,-4.467 0.259,-2.65 0.388,-4.492c0.042,-0.579 0.133,-0.625 0.642,-0.354c0.725,0.383 0.787,1.858 0.175,3.983c-0.363,1.254 -0.746,4.125 -0.88,6.596c-0.02,0.4 -0.162,0.821 -0.316,0.929c-0.367,0.263 -0.571,5.167 -1.046,10.038c-0.429,4.391 0.246,3.337 -0.017,5.675c-0.279,2.533 0.484,1.52 0.45,3.487c-0.012,0.646 0.029,1.342 0.096,1.542c0.175,0.558 0.646,0.441 0.646,-0.154c0,-0.796 1.017,-1.684 0.733,-2.138c-0.379,-0.608 1.013,-1.158 -0.066,-1.158c-0.792,0 -1.063,-1.179 -0.492,-1.179c0.379,0 0.575,-0.584 0.437,-1.305c-0.066,-0.337 0.246,-1.416 0.342,-1.779c0.183,0.479 0.583,1.359 0.396,1.834c-0.083,0.22 -0.033,0.325 0.117,0.233c0.375,-0.229 0.737,0.433 0.341,0.433c-0.358,0 -0.191,0.879 0.604,0.879c0.955,0 0.63,1.592 1.188,1.934c0.4,0.246 0.308,-2.063 -0.096,-2.463c-0.279,-0.271 -0.246,-0.35 0.146,-0.35c0.667,0 0.629,-0.879 0.133,-0.891c-0.283,-0.005 -0.287,-0.055 -0.012,-0.225c0.2,-0.13 0.571,-1.675 0.833,-3.455c0.633,-4.312 0.879,-5.1 0.788,-5.933c-0.1,-0.937 0.462,-1.842 1.15,-1.842c0.666,0 0.679,0.067 0.295,1.467c-1.07,3.917 -0.579,4.779 -1.166,6.267c-0.471,1.183 -0.2,3.029 -0.634,3.296c-0.387,0.233 -0.22,3.22 -0.204,3.9c1.213,-0.067 2.279,0.008 2.667,-0.692c0.175,-0.313 0.404,-0.638 0.508,-0.721c0.313,-0.233 1.204,-4.15 1.017,-4.454c-0.096,-0.15 -0.025,-0.446 0.154,-0.658c0.646,-0.767 1.896,-7.342 3.067,-9.434c0.183,-0.325 0.425,-1.271 0.541,-2.1c0.117,-0.837 0.484,-1.896 0.809,-2.354c0.921,-1.287 0.616,-2.604 1.704,-3.879c1.4,-1.65 0.042,-2.396 1.587,-2.396c0.859,0 0.859,0.004 0.575,1.254c-0.154,0.684 -0.4,1.288 -0.55,1.342c-0.308,0.108 -1.775,3.079 -1.775,3.6c0,0.196 -0.204,0.504 -0.45,0.683c-0.262,0.188 -0.52,0.996 -0.616,1.942c-0.184,1.762 -0.65,3.233 -1.025,3.233c-0.334,0 -0.542,1.771 -0.879,2.2c-0.33,0.425 -1.209,3.079 -1.359,4.117c-0.133,0.921 -0.312,3.804 -1.779,7.142c-0.612,1.4 -0.621,4.437 -1.071,4.975c-0.171,0.2 -0.229,0.566 -0.133,0.812c0.187,0.488 1.079,0.613 1.079,0.15c0,-0.162 -0.121,-0.296 -0.267,-0.296c-0.55,0 0.071,-1.208 0.825,-1.612c1.263,-0.679 -0.262,-0.267 -0.262,-0.579c0,-0.134 0.654,-1.688 0.796,-1.888c0.112,-0.162 1.262,1.229 1.275,1.538c0.021,0.591 1.362,3.12 1.637,3.095c1.004,-0.112 1.584,0.121 1.934,0.767c0.416,0.771 1.287,1.046 1.004,0.321c-0.234,-0.613 1.108,-0.946 1,-1.283c-0.084,-0.255 1.116,-3.713 1.571,-3.438c0.12,0.075 0.291,-0.05 0.383,-0.275c0.267,-0.692 3.054,-0.179 3.708,-0.583c0.513,-0.313 0.421,-1.059 -0.133,-1.059c-0.388,0 -0.413,-0.083 -0.129,-0.42c0.191,-0.23 0.375,-0.892 0.404,-1.467c0.121,-2.283 1.687,-0.392 1.687,1.542c0,0.354 0.188,0.637 0.421,0.637c1.046,0 1.354,0.867 1.179,-1.004c-0.179,-1.9 0.48,-1.446 0.48,-0.721c0,0.517 0.075,0.558 0.433,0.271c0.521,-0.429 1.154,-0.121 0.933,0.458c-0.091,0.225 -0.016,0.413 0.163,0.413c0.225,0 0.221,0.121 -0.017,0.404c-0.262,0.312 -0.237,0.45 0.108,0.575c1.055,0.404 -1.066,0.804 1.896,3.246c0.813,0.671 1.109,1.062 0.796,1.062c-0.271,0 -0.408,0.134 -0.304,0.296c0.1,0.158 -0.088,0.292 -0.413,0.292c-0.325,0 -0.675,0.129 -0.775,0.291c-0.245,0.392 1.792,0.392 2.53,-0.004c0.47,-0.25 0.55,-0.583 0.487,-2.129c-0.037,-1.008 -0.171,-1.987 -0.287,-2.179c-0.125,-0.2 -0.013,-0.463 0.262,-0.617c0.442,-0.246 0.442,-0.341 0.004,-1.183c-0.591,-1.133 -0.591,-1.133 0.075,-1.308c0.717,-0.184 1.071,-1.392 0.404,-1.392c-0.391,0 -0.37,-0.079 0.105,-0.463c0.408,-0.32 0.466,-0.5 0.204,-0.612c-0.517,-0.208 -0.467,-0.692 0.075,-0.692c0.604,0 0.508,-0.583 0.166,-0.583c-0.15,0 -0.25,-0.463 -0.22,-1.021c0.041,-0.846 0.158,-1.012 0.687,-0.967c1.258,0.1 -0.375,0.971 0.558,1.992c0.425,0.463 0.421,0.529 -0.058,0.708c-0.35,0.13 -0.412,0.267 -0.187,0.405c0.42,0.258 0.254,0.954 0.541,3.583c0.117,1.05 3.335,1.938 3.343,2.138c0.025,0.508 0,38.35 0,38.35l-833.333,0l0,-26.244c0,0 1.515,-0.79 2.199,-2.202c1.391,-2.884 1.925,-2.171 1.925,-3.867c0,-1.188 0.72,-1.871 1.183,-1.125c0.337,0.537 1.496,-0.321 2.075,-1.533c0.3,-0.63 1.192,-1.4 2.679,-2.321c2.4,-1.488 3.038,-1.754 3.488,-1.471c0.433,0.275 -1.221,4.062 -2.146,4.908c-0.796,0.725 -0.875,1.309 -0.213,1.529c0.196,0.063 0.354,-0.07 0.354,-0.295c0,-0.584 1.78,-1.942 1.78,-2.455c0,-0.191 0.225,-0.333 0.5,-0.308c0.704,0.054 1.929,-2.421 3.112,-2.862c0.463,-0.171 0.842,-0.417 0.842,-0.542c0,-0.129 0.183,-0.233 0.412,-0.233c0.229,0 0.496,-0.209 0.596,-0.471c0.15,-0.388 0.271,-0.404 0.625,-0.109c0.308,0.246 0.442,0.263 0.442,0.03c0,-0.563 0.516,-0.363 0.683,0.258c0.313,1.187 1.1,0.246 1.892,-0.596c0.391,0.433 0.991,1.188 1.612,1.188c0.8,0 0.617,0.583 1.442,0.583c0.404,0 0.508,-0.158 0.392,-0.588c-0.113,-0.433 -0.038,-0.554 0.275,-0.433c0.312,0.121 0.516,-0.225 0.762,-1.287c0.363,-1.546 1.475,-3.409 2.508,-4.196c0.884,-0.675 2.309,-0.188 2.309,0.787c0,0.375 0.116,0.759 0.258,0.846c0.142,0.088 0.346,0.829 0.458,1.65c0.225,1.692 0.73,1.825 1.225,0.333c0.625,-1.862 1.621,-1.9 2.384,-0.104c0.546,1.296 0.783,3.509 0.4,3.742c-0.159,0.096 -0.204,0.3 -0.104,0.458c0.1,0.159 0.05,0.446 -0.113,0.642c-0.425,0.521 -0.129,2.046 -0.612,2.204c-0.455,0.15 -0.425,0.65 0.037,0.65c0.65,0 0.233,2.463 0.842,3.063c0.196,0.195 2.425,-4.546 3.125,-5.709c0.75,-1.237 0.579,-1.866 1.341,-1.666c0.317,0.083 0.555,-0.009 0.555,-0.221c0,-0.196 0.404,-0.809 0.904,-1.359c0.616,-0.687 0.854,-1.204 0.746,-1.625c-0.188,-0.741 0.691,-1.612 2.208,-2.183c0.571,-0.212 1.162,-0.5 1.321,-0.633c0.483,-0.429 0.937,-0.271 1.333,0.454c0.471,0.875 0.954,0.817 2.058,-0.225c1.005,-0.954 1.305,-0.708 1.184,0.987c-0.084,1.146 0.216,1.938 0.433,1.15c0.617,-2.233 1.033,-2.366 0.258,-3.341c-0.316,-0.396 -0.633,-0.663 -0.708,-0.592c-0.104,0.104 -0.208,-5.437 0.496,-6.504c0.612,-0.925 0.967,-0.879 1.575,0.183c0.792,1.375 0.733,0.329 1.433,2.054c0.475,1.18 1.004,1.33 1.004,0.296c0,-1.537 1.817,-0.316 1.28,-0.304c-0.634,0.017 0.579,1.229 0.279,2.004c-0.125,0.321 -0.063,0.384 0.212,0.217c0.829,-0.508 -0.446,2.142 0.488,0.879c0.233,-0.317 0.558,-1.075 0.725,-1.687c0.312,-1.15 0.966,-1.463 1.296,-0.625c0.25,0.654 0.541,0.304 0.666,-0.796c0.196,-1.796 2.838,-4.25 4.196,-3.9c0.692,0.179 0.846,0.533 0.354,0.833c-0.425,0.263 -0.079,1.104 -0.825,2.35c-0.287,0.483 -0.687,1.25 -0.887,1.7c-0.338,0.767 -0.325,0.796 0.216,0.513c0.463,-0.246 0.7,-0.175 1.188,0.337c0.333,0.358 0.604,0.838 0.604,1.067c0,0.346 0.125,0.337 0.733,-0.054c1.046,-0.68 1.346,-0.592 1.346,0.387c0,0.542 -0.229,1.025 -0.616,1.296c-0.734,0.508 -1.059,2.346 -0.609,3.425l0.304,0.733c0.121,-0.404 0.321,-1.321 0.771,-1.321c0.4,0 0.788,1.325 0.479,1.634c-0.225,0.221 -0.15,0.296 -0.45,1.554c-0.395,1.65 0.575,1.833 2.146,0.4c0.492,-0.446 0.254,-2.125 -0.45,-3.192c-0.458,-0.696 -0.816,-2.941 -1.158,-7.304c-0.179,-2.267 -0.158,-2.375 0.587,-3.062c0.534,-0.488 0.775,-1.013 0.775,-1.675c0,-0.525 0.138,-1.042 0.3,-1.138c0.163,-0.1 0.296,-0.425 0.296,-0.721c0,-0.296 0.2,-0.616 0.446,-0.708c0.504,-0.192 0.446,0.458 0.45,3.192c1.121,-1.68 1.554,-2.205 0.696,-2.205c-0.358,0 -0.288,-0.154 0.271,-0.591c0.941,-0.734 1.941,-0.734 2.829,0c0.558,0.462 0.629,0.675 0.371,1.15c-0.446,0.821 -0.388,1.041 0.154,0.596c0.375,-0.305 0.512,-0.309 0.7,-0.013c0.25,0.404 0.146,2.821 -0.138,3.283c-0.095,0.15 -0.033,0.275 0.142,0.275c0.171,0 0.313,0.338 0.313,0.746c0,0.734 0.016,0.729 0.933,-0.304c0.896,-1.012 1.692,-1.229 1.496,-0.417c-0.134,0.55 -0.017,3.7 0.021,5.18c0.033,1.225 0.116,1.47 0.429,1.216c0.3,-0.25 0.387,-0.154 0.387,0.45c0,1.042 0.592,0.996 0.592,0.034c0,-1.025 0.283,-0.917 1.004,-3.392c0.496,-1.713 2.483,-4.663 3.017,-4.488c0.433,0.142 0.2,3.792 -0.329,5.171c-0.234,0.609 -0.425,1.171 -0.425,1.25c0,0.317 0.7,0.104 1.479,-0.446l0.829,-0.587l0.142,0.662c0.079,0.363 0.112,2.021 0.075,3.684c-0.059,2.725 -0.009,3.054 0.508,3.329c0.5,0.262 0.55,0.5 0.367,1.8c-0.113,0.821 -0.459,1.762 -0.767,2.087c-0.658,0.7 -0.763,2.884 -0.158,3.384c0.308,0.254 0.608,0.033 1.358,-1c0.871,-1.2 3.762,-3.663 4.3,-3.663c0.121,0 0.404,0.188 0.633,0.409c0.796,0.787 -0.458,0.229 -0.458,1.295c0,0.78 -0.229,0.438 -0.767,1.992c-0.312,0.9 -0.3,1.029 0.096,0.95c0.583,-0.112 0.892,-0.687 1.113,-2.062c0.237,-1.488 0.825,-1.192 1.791,0.891c0.629,1.359 0.709,1.788 0.442,2.363c-0.175,0.387 -0.254,0.771 -0.171,0.854c0.192,0.187 0.763,-1.271 0.763,-1.963c0,-0.741 0.887,-2.416 1.183,-2.233c0.337,0.208 -0.154,1.117 0.175,1.833c0.321,0.692 0.346,0.867 0.4,2.58c0.075,2.575 0.296,0.066 1.167,0.37c0.287,0.1 0.345,-0.033 0.204,-0.479c-0.292,-0.908 0.483,-2.421 0.121,-3.004c-0.134,-0.212 -0.159,-0.521 -0.059,-0.687c0.338,-0.542 0.059,-4.684 0.613,-5.23c0.412,-0.412 0.396,-0.525 0.516,3.005c0.134,4.02 0.184,4.262 0.871,4.262c0.334,0 0.596,-0.2 0.596,-0.446c0,-0.237 0.104,-0.512 0.229,-0.604c0.525,-0.392 0.909,-4.392 0.417,-4.392c-0.133,0 -0.146,-0.295 -0.025,-0.658c0.358,-1.112 0.221,-1.837 0.725,-2.442c0.2,-0.233 0.242,-0.425 0.1,-0.429c-0.142,-0.004 -0.058,-0.129 0.183,-0.279c0.709,-0.446 1.446,0.575 2.071,0.575c0.442,0 0.379,-0.879 -0.062,-0.892c-0.205,-0.008 0.016,-0.179 0.491,-0.379c0.854,-0.358 0.867,-0.404 0.8,-2.462c-0.071,-2.046 -0.041,-2.129 1.021,-3.296c1.142,-1.25 1.675,-1.442 2.333,-0.833c0.267,0.241 0.317,0.62 0.159,1.17c-0.284,0.967 0.087,1.296 0.733,0.65c0.421,-0.412 0.496,-0.612 0.458,-1.166c-0.02,-0.329 0.88,-1.021 1.334,-1.021c0.904,0 -0.334,1.696 0.491,1.404c0.23,-0.075 0.396,-0.362 0.371,-0.625c-0.021,-0.267 0.088,-0.483 0.246,-0.483c0.154,0 0.192,-0.279 0.079,-0.625c-0.179,-0.563 -0.112,-0.609 0.575,-0.438c0.55,0.138 0.775,0.079 0.775,-0.208c0,-0.529 2.075,-1.704 3.288,-0.617c0.475,0.425 0.533,0.409 0.721,-0.175c0.287,-0.891 0.241,-4.137 0.512,-4.571c0.108,-0.17 -0.2,-0.762 -0.679,-1.316c-1.567,-1.821 -0.971,-3.767 0.858,-2.804c1.209,0.633 2.709,1.05 2.675,1.308c-0.033,0.242 0.034,1.846 0.046,2.2c0.496,-0.458 1.354,-1.388 1.925,-1.171c0.425,0.158 0.429,0.242 0.004,0.879c-0.712,1.075 -0.262,4.6 -0.141,4.6c0.308,0 1.537,-3.587 3.112,-5.429c0.9,-1.054 0.988,-1.096 0.9,-0.442c-0.05,0.4 -0.292,1.192 -0.537,1.755c-0.946,2.2 -0.942,2.354 0.058,2.354c0.817,0 0.912,-0.096 0.912,-0.884c0,-0.604 0.146,-0.879 0.463,-0.879c0.254,0 0.379,-0.137 0.279,-0.296c-0.225,-0.362 0.367,-0.541 0.508,0.367c0.088,0.563 0.209,0.467 0.796,-0.662c1.121,-2.138 2.334,-3.175 2.821,-2.4c0.196,0.312 -0.604,2.941 -1.058,3.491c-0.409,0.484 -0.063,0.346 1.341,-0.004l-0.679,0.942c-0.816,1.137 -0.583,1.554 0.371,0.666c1.433,-1.333 1.404,-6.754 3.196,-7.704c0.775,-0.412 1.079,-0.154 0.554,0.471c-0.575,0.688 -0.212,3.288 -0.617,3.538c-0.15,0.087 -0.187,0.287 -0.091,0.445c0.312,0.5 -0.713,0.959 -0.184,1.284c0.175,0.104 0.313,0.041 0.313,-0.138c0,-0.183 0.125,-0.254 0.275,-0.162c0.154,0.091 0.362,0.037 0.462,-0.129c0.371,-0.588 0.771,-0.305 0.438,0.312c-0.5,0.925 0.179,0.417 0.992,0.529c0.391,0.059 -1.43,2.475 -2.58,3.413c-1.133,0.933 -1.329,1.325 -0.662,1.325c0.225,0 0.567,0.191 0.758,0.416c0.284,0.342 0.175,0.55 -0.558,1.088c-0.5,0.367 -1.125,0.7 -1.392,0.737c-0.633,0.092 -2.025,1.567 -3.575,2.946c-0.975,0.867 -2.466,2.871 -2.466,3.321c0,0.138 0.25,0.188 0.558,0.108c0.771,-0.195 1.067,0.492 0.533,0.492c-0.629,0 -0.775,0.742 -2.108,1.3c-0.892,0.375 -2.171,1.538 -1.925,1.75c0.562,0.504 1.475,0.433 2.025,-0.15l0.617,-0.658c-0.009,0.637 0.033,1.271 -0.455,2.608c-0.566,1.563 -0.566,1.563 0.455,0.592c1.354,-1.288 0.587,-1.771 1.312,-3.063l0.396,-0.716l0.867,1.637c1.662,-2.154 1.916,-2.887 2.987,-2.871c0.746,0.017 0.813,0.104 0.725,0.967c-0.167,1.637 0.563,0.329 1.179,1.675c0.267,0.579 0.225,0.837 -0.229,1.404c-0.308,0.375 -0.787,0.642 -1.067,0.583c-0.283,-0.054 -2.016,0.663 -3.858,1.592c-4.312,2.179 -4.233,2.117 -3.592,2.821c0.496,0.537 0.525,0.537 0.73,0.029c0.154,-0.387 0.216,-0.417 0.233,-0.092c0.025,0.546 1.121,1.263 1.542,1.005c0.383,-0.234 -0.546,-1.084 -0.938,-1.496c1.371,-1.229 1.179,-1.129 1.325,0.05c0.063,0.487 0.483,1.029 0.808,1.029c0.175,0 0.263,-0.517 0.205,-1.221c-0.071,-0.854 0.025,-1.267 0.312,-1.362c0.304,-0.105 0.375,0.062 0.263,0.641c-0.113,0.588 0.029,0.925 0.575,1.35c0.4,0.309 0.641,0.704 0.537,0.871c-0.375,0.604 -0.417,1.471 -0.062,1.404c0.191,-0.041 0.32,0.088 0.283,0.284c-0.046,0.229 0.246,0.175 0.829,-0.15c0.854,-0.471 0.921,-0.467 1.304,0.037c0.221,0.292 0.467,0.425 0.546,0.292c0.296,-0.475 2.504,-5.992 2.217,-7.084c-0.075,-0.283 0.025,-0.666 0.221,-0.845c0.425,-0.396 1.141,-3.8 0.887,-4.217c-0.1,-0.154 -0.058,-0.288 0.1,-0.288c0.154,0 0.263,-0.216 0.238,-0.479c-0.05,-0.591 0.691,-1.033 0.725,-0.058c0.237,6.854 0.1,13.312 0.57,13.029c0.163,-0.1 0.296,-0.037 0.296,0.142c0,0.371 0.596,0.308 0.596,-0.896c0,-0.683 0.129,-0.867 0.625,-0.867c0.479,0 0.575,0.121 0.4,0.517c-0.375,0.871 -0.517,2.133 -0.233,2.133c0.412,0 0.708,-1.766 1.45,-1.766c0.441,0 0.487,0.208 0.329,1.52c-0.271,2.267 0.321,1.371 0.825,-1.237c0.308,-1.621 0.329,-2.238 0.079,-2.392c-0.492,-0.3 1.329,-1.708 1.421,-1.708c0.067,0 0.046,0.429 -0.046,0.954c-0.237,1.371 -0.087,2.321 -0.429,2.113c-0.146,-0.092 -0.267,0.366 -0.267,1.016c0,0.938 0.092,1.15 0.446,1.017c0.708,-0.271 0.588,-1.696 1.221,-1.458c0.233,0.087 0.412,-0.03 0.412,-0.275c0,-0.234 0.121,-0.434 0.271,-0.434c0.804,0 1.404,-0.808 1.109,0.371c-0.184,0.717 -0.138,0.754 0.845,0.675c0.571,-0.042 1.038,0.042 1.038,0.188c0,0.354 0.654,-0.017 0.462,-0.325c-0.079,-0.125 0.188,-0.517 0.596,-0.867c0.621,-0.533 0.767,-0.567 0.913,-0.188c0.241,0.625 0.912,0.55 1.521,-0.166c0.695,-0.829 1.554,-1.621 1.554,-2.5c0,-2.484 2.146,-2.204 2.546,1.762c0.066,0.659 0.254,1.246 0.42,1.296c0.163,0.058 0.3,0.271 0.3,0.488c0,0.325 0.875,0.904 1.025,0.67c0.03,-0.041 0.221,-0.65 0.421,-1.35c0.367,-1.25 0.217,-2.987 -0.25,-2.987c-0.308,0 -0.616,-1.038 -0.712,-2.383c-0.063,-0.888 0.012,-1.038 0.446,-0.925c0.495,0.125 1.041,1.566 0.891,2.35c-0.037,0.2 0.088,0.366 0.275,0.366c0.188,0 0.267,0.188 0.179,0.413c-0.087,0.225 0.017,0.646 0.23,0.933c0.35,0.479 0.433,0.421 0.92,-0.633c0.692,-1.488 0.713,-1.509 1.025,-1.009c0.221,0.355 0.359,0.334 0.871,-0.129c0.375,-0.333 0.613,-0.404 0.613,-0.191c0,0.433 0.596,0.216 0.596,-0.575c0,-0.459 0.208,-0.571 1.037,-0.571c1.75,0 0.25,0.383 2.079,2.387c1.004,1.109 1.425,2.717 0.763,2.954c-0.15,0.055 -0.363,0.442 -0.467,0.867c-0.358,1.425 0.767,0.254 1.292,2.063c0.196,0.67 0.296,0.787 0.312,0.366c0.038,-0.875 1.046,-1.633 1.313,-2.979c0.396,-2.033 1.971,-2.283 1.246,-4.871c-0.138,-0.491 -0.109,-0.954 0.07,-1.129c0.421,-0.417 1.842,2.638 1.892,4.075c0.025,0.642 0.092,0.842 0.167,0.471c0.083,-0.417 0.279,-0.588 0.554,-0.483c0.742,0.283 0.487,-0.971 -0.538,-2.613c-0.529,-0.85 -0.991,-1.879 -1.025,-2.279c-0.141,-1.608 -0.462,-2.942 -0.716,-2.942c-0.146,0 -0.263,-0.241 -0.263,-0.529c0,-0.912 -1.004,-1.233 -0.358,-1.233c0.508,0 0.254,-1.154 0.583,-1.646c0.292,-0.425 1.554,-0.725 1.554,-0.367c0,0.154 0.134,0.2 0.296,0.1c0.171,-0.1 0.313,0.175 0.334,0.642c0.02,0.467 0.091,0.608 0.166,0.333c0.188,-0.704 1.321,-0.783 2.025,-0.146c1.025,0.93 2.45,1.388 3.313,1.067c1.983,-0.75 1.387,1.767 2.054,1.983c0.308,0.1 1.383,-1.987 1.437,-2.791c0.017,-0.209 0.209,-0.488 0.434,-0.625c0.225,-0.138 0.325,-0.384 0.221,-0.546c-0.1,-0.163 0.012,-0.371 0.25,-0.458c0.708,-0.271 0.67,0.7 1.079,0.058c0.166,-0.263 0.258,-0.279 0.258,-0.05c0.013,0.704 1.258,1.158 0.633,1.537c-0.266,0.167 -0.241,0.317 0.1,0.6c0.821,0.675 0.234,2.863 0.759,1.571c0.337,-0.825 0.221,-2.404 -0.238,-3.229c-0.462,-0.829 -0.45,-0.975 0.088,-0.975c0.779,0 2.821,1.008 2.821,1.392c0,0.204 0.145,0.371 0.32,0.371c0.425,0 1.438,1.208 1.45,1.729c0.013,0.554 0.9,-0.167 0.9,-0.734c0,-0.429 0.838,-0.545 1.334,-0.179c0.166,0.117 0.346,0.479 0.4,0.804c0.15,0.884 0.971,2.492 1.266,2.492c0.146,0 0.263,0.354 0.263,0.788c0,0.983 0.625,2.745 0.971,2.745c0.329,0 -0.042,-0.729 -0.354,-2.675c-0.213,-1.341 -0.15,-1.7 0.537,-3.016c0.975,-1.875 0.917,-1.654 2.121,-3.35c0.487,-0.684 1.017,-1.25 1.179,-1.25c0.446,0 0.354,0.783 -0.15,1.283c-0.746,0.742 -0.517,1.7 0.596,0.483c0.604,-0.662 1.333,-0.783 1.333,-0.216c0,0.204 0.279,0.883 0.617,1.508c1.196,2.208 -0.108,4.233 1.058,3.792c0.4,-0.15 0.463,-0.021 0.346,0.754c-0.271,1.821 0.721,0.887 2.113,-3.929c0.312,-1.071 0.658,-1.734 0.883,-1.679c0.204,0.041 0.292,-0.05 0.196,-0.2c-0.217,-0.346 1.208,-1.255 1.546,-1.492l0.162,0.804c0.246,1.238 -0.392,0.971 -0.392,1.892c0,0.291 -0.133,0.529 -0.295,0.529c-0.163,0 -0.296,0.212 -0.296,0.471c0,0.671 -1.359,2.175 -0.913,2.175c0.45,0 0.184,1.641 0.642,1.925c0.333,0.204 2.35,-1.7 2.35,-2.221c0,-0.546 1.187,-0.979 1.187,-2.475c0,-0.933 0.605,-1.933 1.171,-1.933c0.346,0 0.884,0.883 1.175,0.883c0.109,0 0.192,-1.329 0.188,-2.958c-0.013,-2.809 0.025,-2.98 0.729,-3.517c0.929,-0.704 1.367,-0.588 1.233,0.329l-0.104,0.708c1.421,-1.312 1.392,-1.454 2.429,-1.029c0.792,0.325 2.159,1.784 2.267,2.425c0.021,0.121 0.054,0.346 0.075,0.496c0.021,0.154 0.437,0.513 0.929,0.8c0.821,0.479 1.221,1.275 0.638,1.275c-0.417,0 -0.884,1.317 -0.738,2.079c0.188,0.971 -1.058,2.134 -2.246,2.1c-0.479,-0.012 -1.396,-0.366 -2.037,-0.787c-1.263,-0.829 -1.829,-0.784 -2.963,0.233c-0.766,0.679 -0.879,1.604 -0.225,1.854c0.271,0.1 0.446,0.546 0.446,1.117c0,0.721 0.188,1.042 0.771,1.354c0.696,0.367 0.817,0.354 1.187,-0.154c0.405,-0.546 0.417,-0.546 0.417,0.058c0,1.171 1.042,0.388 0.346,1.55c-0.392,0.65 -0.379,0.659 0.687,0.463c1.38,-0.259 1.971,-0.604 1.913,-0.275c-0.167,0.904 0.054,1.312 0.617,1.137c0.637,-0.204 0.837,0.292 0.22,0.538c-0.204,0.083 -0.07,0.162 0.296,0.171c0.742,0.025 0.942,0.612 0.209,0.612c-0.259,0 -0.384,0.125 -0.288,0.283c0.258,0.417 -1.033,1.271 -1.033,1.921c0,0.242 -0.134,0.442 -0.296,0.442c-0.163,0 -0.296,0.529 -0.296,1.171c0,1.033 0.083,1.179 0.683,1.179c1.184,0 1.588,1.037 2.209,0.529c0.204,-0.171 0.371,-0.204 0.371,-0.083c0,0.125 0.325,-0.117 0.72,-0.538c0.859,-0.921 1.259,-1.966 0.746,-1.966c-0.262,0 -0.262,-0.109 0.017,-0.438c0.504,-0.596 0.042,-2.262 0.246,-2.062c0.079,0.079 0.316,-0.088 0.533,-0.367c0.342,-0.446 0.392,-0.358 0.4,0.737c0.004,0.688 0.146,1.246 0.308,1.246c0.18,0 0.155,0.234 -0.062,0.579c-0.421,0.671 -0.225,0.984 0.454,0.725c0.675,-0.258 0.696,-1.991 1.175,-2.912c0.304,-0.579 0.308,-0.579 0.525,0c0.117,0.321 0.146,0.962 0.054,1.425c-0.158,0.837 -0.15,0.842 1.038,0.642c1.133,-0.192 1.212,-0.155 1.504,0.679c0.246,0.691 0.221,0.962 -0.108,1.229c-0.23,0.196 -0.346,0.467 -0.259,0.608c0.092,0.142 -0.033,0.259 -0.275,0.259c-0.571,0 -0.912,1.562 -0.504,2.316c0.171,0.321 0.317,1.342 0.317,2.271c0,2.046 0.312,1.879 0.616,-0.329c0.238,-1.721 1.163,-3.067 2.121,-3.075c0.442,-0.004 0.496,0.225 0.384,1.658c-0.1,1.3 -0.05,1.584 0.229,1.309c1.45,-1.442 -2.534,-12.671 -0.263,-12.671c0.867,0 -0.075,-5.142 0.759,-5.142c1.17,0 1.07,6.433 1.479,4.854c0.154,-0.596 0.241,-0.654 0.471,-0.296c0.654,1.025 1.008,-6.458 1.675,-7.266c0.162,-0.192 0.208,-0.488 0.104,-0.659c-0.317,-0.504 0.691,-0.345 1.308,0.209c1.075,0.962 1.479,1.246 1.788,1.246c0.17,0 0.308,0.179 0.308,0.395c0,0.592 1.187,1.259 1.187,1.875c0,0.292 0.192,0.355 0.634,0.217c1.271,-0.4 1.141,1.158 1.162,3.833l0.55,-0.708c0.638,-0.821 1.396,-0.679 1.788,0.333l0.254,0.667c0.454,-1.962 0.654,-5.654 0.662,-6.537c0,-0.371 0.188,-0.659 0.421,-0.659c0.896,0 1.359,-0.687 1.359,0.359c0,1.058 0.408,0.354 0.491,3.212c0.063,2.163 0.3,2.879 0.592,1.779c0.333,-1.258 1.287,0.025 1.287,-1.487c0,-1.138 1.03,-4.013 1.771,-4.946c1.029,-1.296 0.217,-1.954 1.275,-1.804c0.646,0.091 0.663,0.179 0.6,3.187c-0.062,2.913 -0.033,3.104 0.525,3.146c0.363,0.025 0.513,-0.083 0.392,-0.279c-0.354,-0.567 1.521,0.287 1.787,-0.317c0.088,-0.196 0.075,0.042 -0.029,0.525c-0.271,1.275 -2.921,4.346 -3,5.559c-0.029,0.466 -0.171,0.995 -0.312,1.17c-0.271,0.338 -0.163,1.638 0.158,1.925c0.1,0.088 0.229,0.025 0.292,-0.133c0.329,-0.9 2.104,-3.233 2.521,-3.312c1.079,-0.209 1.366,0.629 1.241,3.625c-0.112,2.783 -0.146,2.895 -1.408,4.829c-0.708,1.087 -1.379,2.296 -1.488,2.683c-0.183,0.65 -0.15,0.642 0.467,-0.15c1.129,-1.446 2.313,-2.65 2.458,-2.504c0.075,0.079 0.009,0.721 -0.154,1.429c-0.591,2.617 0.625,2.521 0.625,0.646c0,-0.608 0.159,-1.258 0.354,-1.45c0.217,-0.217 0.234,-0.354 0.046,-0.354c-0.429,0 -0.312,-2.138 0.129,-2.279c0.205,-0.071 0.359,0.141 0.359,0.487c0,0.346 0.191,0.613 0.441,0.613c0.409,0 0.584,-0.413 0.813,-1.909c0.196,-1.279 0.629,-0.333 0.558,1.209c-0.05,1.116 0.025,1.583 0.242,1.45c0.383,-0.234 0.437,-3.392 0.054,-3.392c-0.667,0 -0.571,-0.917 0.138,-1.238c0.412,-0.187 0.679,-0.508 0.6,-0.716c-0.084,-0.209 -0.021,-0.454 0.137,-0.554c0.154,-0.096 0.283,-0.53 0.283,-0.967c0,-0.983 1.792,-3.967 2.971,-4.95c0.488,-0.408 0.888,-0.896 0.888,-1.092c0,-0.541 1.591,-1.362 2.071,-1.066c0.858,0.525 -1.146,3.808 -0.421,5.675c0.133,0.35 0.5,0.237 1.837,-0.559c0.921,-0.554 1.779,-1 1.913,-1c0.129,0 0.237,-0.287 0.237,-0.637c0,-0.742 0.796,-1.713 1.4,-1.713c0.234,0 0.388,0.229 0.346,0.513c-0.129,0.896 0.363,2.425 0.779,2.425c0.221,0 0.463,0.296 0.534,0.658c0.179,0.933 0.3,-1.446 -0.088,-1.687c-0.379,-0.225 -0.392,-1.613 -0.021,-1.613c0.563,0 0.425,0.813 1.038,0.308c0.204,-0.17 0.458,-0.216 0.566,-0.112c0.23,0.229 0.375,-1.213 -0.175,-0.908c-0.45,0.245 1.1,-1.48 1.48,-1.25c0.375,0.233 0.254,3.379 -0.171,4.404c-0.409,0.983 -0.434,1.375 -0.092,1.375c0.138,0 0.704,-1.059 1.263,-2.346c0.845,-1.971 1.12,-2.35 1.695,-2.35c0.396,-0.004 1.005,-0.379 1.438,-0.883c0.758,-0.9 1.404,-1.117 1.729,-0.596c0.267,0.425 -0.871,3.962 -0.592,4.408c0.275,0.442 -2.012,3.017 -1.87,3.746c0.116,0.612 2.616,-2.933 2.616,-3.713c0,-0.808 0.617,-1.258 1.138,-0.829c0.379,0.313 0.412,0.238 0.233,-0.521c-0.275,-1.158 4.492,1.992 8.979,-0.462c2.129,-1.163 2.988,2.504 5.384,2.996c5.2,1.062 6.816,-0.154 6.933,-0.988c0.325,-2.346 2.775,-0.512 4.683,0.304c1.909,0.817 2.542,2.309 2.95,2.955c0.792,1.258 1.021,1.458 1.242,1.066c0.146,-0.262 0.187,-0.791 0.092,-1.175c-0.188,-0.741 0.333,-2.196 0.783,-2.196c0.675,0 1.417,0.917 1.417,0.155c0,-0.667 0.862,-0.546 1.5,0.212c0.308,0.363 0.562,0.775 0.566,0.913c0.009,0.162 1.754,3.366 2.138,2.766c0.425,-0.662 0.266,-1.35 -0.434,-1.896c-1.012,-0.795 -1.708,-2.829 -1.904,-5.583c-0.341,-4.825 1.013,-1.771 4.675,2.108c0.917,0.971 1.904,2.125 2.196,2.571c0.538,0.817 1.058,0.834 1.058,0.034c0,-0.646 0.763,-1.05 0.963,-1.642c0.175,-0.513 1.112,0.246 1.125,0.908c0.008,0.417 0.042,0.421 0.254,0.038c0.363,-0.638 0.567,-6.129 0.792,-6.496c0.25,-0.392 1.021,0.058 1.021,0.604c0,1.858 1.441,-0.575 2.054,-0.575c0.554,0 1.054,2.483 1.058,5.267c0.004,2.754 0.008,2.762 0.896,3.283c1.212,0.708 1.25,0.696 1.408,-0.392c0.179,-1.258 0.609,-2.775 1.129,-5.216c0.4,-1.871 0.855,-2.417 1.221,-2.992c1.275,1.179 1.3,1.304 1.734,0.788c0.558,-0.671 1.037,-0.088 0.6,0.725c-0.3,0.545 -0.238,0.741 0.45,1.37c0.437,0.4 0.82,0.692 0.854,0.638c1.733,-2.742 2.866,-3.542 5.179,-6.396c0.608,-0.75 1.108,-1.125 1.275,-0.962c0.379,0.375 1.108,5.008 1.442,5.679c0.225,0.446 0.008,1.754 -0.68,4.166c-0.387,1.363 -0.045,1.834 0.405,0.559c0.179,-0.513 0.462,-0.929 0.633,-0.929c0.183,0 0.242,-0.4 0.142,-0.996c-0.1,-0.625 -0.005,-1.221 0.258,-1.592c0.233,-0.329 0.333,-0.829 0.225,-1.112c-0.138,-0.35 -0.092,-0.442 0.146,-0.296c0.608,0.371 0.046,-1.704 0.791,-1.988c0.555,-0.208 0.446,0.479 0.446,1.342c0.329,-0.346 1.854,-2.046 1.95,-1.679c0.042,0.162 0.159,0.662 0.259,1.104c0.262,1.175 1.683,1.137 2.587,-0.075c0.363,-0.483 0.763,-0.879 0.888,-0.879c0.354,0 1.979,2.466 2.204,3.354l0.204,0.8c0.533,-0.513 1.996,-1.783 2.025,-2.525c0.021,-0.442 0.096,-0.367 0.287,0.267c0.146,0.479 0.163,0.941 0.034,1.029c-0.4,0.279 -1.534,2.271 -1.529,2.691c0.012,1.163 0.508,1.2 1.908,0.142c2.346,-1.775 3.042,-1.246 2.221,1.688c-0.475,1.687 -0.121,1.625 0.808,-0.146c0.679,-1.296 0.846,-1.454 0.933,-0.909c0.188,1.18 0.838,0.725 0.671,-0.475c-0.033,-0.225 0.088,-0.304 0.284,-0.187c0.183,0.117 0.516,-0.038 0.741,-0.338c0.338,-0.454 0.509,-0.483 0.992,-0.191c0.475,0.283 0.617,0.271 0.75,-0.075c0.092,-0.229 0.371,-0.421 0.621,-0.421c0.25,0 0.454,-0.138 0.454,-0.3c0,-0.646 1.4,-0.258 2.008,0.562c0.5,0.667 0.871,0.85 1.709,0.85c0.591,0 1.141,0.067 1.225,0.15c0.083,0.084 0.183,0.98 0.216,1.996c0.088,2.409 0.642,2.579 0.904,0.275c0.188,-1.666 0.492,-2.158 0.913,-1.479c0.371,0.596 0.804,0.283 0.621,-0.442c-0.146,-0.587 -0.075,-0.733 0.362,-0.733c0.513,0 0.959,-0.604 1.359,-1.837c0.087,-0.284 0.362,-0.513 0.6,-0.513c0.608,0 1.229,0.958 2.129,3.292c1.083,2.808 1.587,1.987 1.416,1.55c-0.312,-0.804 0.971,-1.317 0.08,-1.317c-0.263,0 -0.48,-0.058 -0.48,-0.121c0,-0.4 -0.616,-1.158 0.113,-0.879c0.942,0.358 0.125,-1.837 0.817,-0.662c0.687,1.175 -1.017,4.733 1.487,2.25c1.696,-1.675 1.879,-1.03 0.488,1.741c-0.65,1.288 -0.838,1.929 -0.592,2.013c0.196,0.062 0.358,0.304 0.358,0.533c0,0.608 0.521,0.504 0.888,-0.171c0.496,-0.916 0.996,-0.304 1.429,-1.062c0.217,-0.388 0.387,-0.413 0.904,-0.138c0.483,0.254 0.638,0.613 0.638,1.484c0,0.633 0.145,1.237 0.329,1.35c0.225,0.137 0.258,-0.017 0.104,-0.492c-0.2,-0.621 -0.171,-0.658 0.267,-0.3c0.683,0.562 0.55,-0.183 0.187,-0.404c-0.512,-0.317 -0.054,-2.092 -0.65,-1.725c-0.196,0.116 -0.033,-0.229 0.354,-0.775c0.525,-0.729 0.588,-0.942 0.234,-0.804c-0.471,0.179 -0.825,-0.288 -0.825,-1.088c0,-0.512 1.383,-0.487 1.816,0.029c0.713,0.85 -1.191,-0.425 -0.408,0.413c0.725,0.771 -0.05,1.8 0.967,1.537c0.795,-0.204 0.85,-2.258 0.07,-2.712c-0.45,-0.263 -0.462,-0.338 -0.07,-0.596c0.645,-0.425 1.033,-0.371 1.587,0.237c0.429,0.471 0.463,0.905 0.242,3.309c-0.142,1.516 -0.221,2.808 -0.171,2.866c0.217,0.271 0.717,-0.354 0.717,-0.904c0,-0.341 0.083,-0.533 0.191,-0.429c0.104,0.108 0.379,-0.162 0.613,-0.608c0.629,-1.196 -0.213,-0.709 -0.213,-1.334c0,-0.225 0.109,-0.216 0.354,0.03c0.492,0.483 0.934,0.441 0.734,-0.075c-0.113,-0.288 -0.025,-0.375 0.262,-0.263c0.267,0.1 0.429,-0.021 0.429,-0.308c0,-0.263 0.1,-0.446 0.225,-0.413c0.121,0.038 0.534,-0.108 0.917,-0.316c0.533,-0.296 0.65,-0.542 0.513,-1.092c-0.138,-0.55 -0.063,-0.708 0.345,-0.704c1.359,0.008 1.805,1.137 1.563,3.979c-0.175,2.079 0.092,2.529 0.471,0.792c0.321,-1.467 0.346,-1.609 0.387,-2.205c0.017,-0.283 0.217,-0.512 0.442,-0.512c0.504,0 1.212,1.596 0.917,2.071c-0.513,0.821 -0.663,2.3 -0.25,2.458c0.7,0.267 0.037,-1.167 1.008,-2.037c0.329,-0.292 0.537,-0.742 0.467,-1c-0.067,-0.255 -0.213,-1.096 -0.317,-1.859c-0.154,-1.121 -0.104,-1.396 0.246,-1.396c0.241,0 0.508,-0.166 0.587,-0.37c0.204,-0.496 0.309,0.562 -0.141,0.837c-0.467,0.283 0.55,1.017 1.112,0.8c0.542,-0.204 0.521,0.408 0.1,0.546c-0.175,0.058 -0.221,0.342 -0.108,0.642c0.312,0.795 0.708,0.012 0.716,-1.405c0,-0.641 0.125,-1.562 0.28,-2.062c0.958,-3.146 1.079,-6.592 2.02,-8.438c1.521,-2.979 -0.183,5.467 0.188,5.834c0.325,0.321 -0.95,1.721 -0.358,1.916c0.404,0.134 -0.242,3.167 -0.671,3.167c-0.309,0 -0.529,0.804 0.379,0.738c1.025,-0.075 0.921,-1.53 1.654,-2.255c0.296,-0.291 0.371,-0.204 0.371,0.43c0,1.104 0.592,0.883 0.592,0.354c0,-0.579 0.891,-0.629 0.891,0.108c0,0.304 0.192,0.708 0.425,0.904c0.367,0.3 0.388,0.2 0.129,-0.721c-0.454,-1.633 0.205,-3.733 0.742,-2.35c0.225,0.584 0.9,0.58 0.675,0c-0.112,-0.295 0.013,-0.437 0.371,-0.437c0.421,0 0.512,0.162 0.4,0.733c-0.188,0.967 0.454,0.963 0.7,-0.008c0.142,-0.567 0.325,-0.704 0.746,-0.571c0.425,0.133 0.562,0.029 0.562,-0.433c0,-0.638 0.713,-0.834 1.054,-0.288c0.109,0.175 0.509,0.242 0.888,0.146c0.496,-0.125 0.817,0 1.125,0.438c0.271,0.383 0.504,0.491 0.629,0.295c0.417,-0.662 0.65,-0.262 0.629,1.08c-0.021,1.42 0.638,4.716 1.034,5.175c0.116,0.133 0.558,0.02 0.979,-0.25c0.621,-0.405 0.796,-0.813 0.958,-2.23c0.108,-0.95 0.317,-1.658 0.458,-1.57c0.142,0.087 0.259,-0.1 0.259,-0.409c0,-0.716 0.762,-2.921 1.008,-3.662c0.325,0.887 0.725,1.787 0.75,3.479c0.038,2.408 1.208,2.592 1.208,1.725c0,-0.25 0.134,-0.375 0.296,-0.275c0.167,0.1 0.3,0.054 0.3,-0.104c0,-0.479 -0.412,-0.029 -0.7,-1.484c-0.191,-0.979 -0.183,-0.991 0.379,-0.487c0.325,0.292 0.738,0.421 0.938,0.296c0.267,-0.159 0.217,-0.325 -0.183,-0.617c-1.167,-0.842 0.754,0.146 0.754,-0.979c0,-1.021 1.221,-0.983 0.125,2.217c-0.254,0.745 -0.392,1.55 -0.304,1.775c0.27,0.7 0.991,0.454 1.158,-0.392c0.087,-0.446 0.458,-1.804 0.821,-3.017c0.929,-3.112 0.612,-3.204 0.971,-3.762c0.137,-0.209 0.17,-0.575 0.079,-0.821c-0.109,-0.275 -0.05,-0.367 0.154,-0.242c0.179,0.109 0.442,0.017 0.583,-0.204c0.492,-0.767 0.288,1.304 -0.346,3.563c-0.866,3.083 -0.612,4.67 -0.983,4.604c-0.392,-0.075 -0.746,1.429 -0.45,1.9c0.142,0.216 0.263,0.791 0.263,1.262c0.004,0.825 0.025,0.842 0.441,0.296c0.334,-0.433 0.438,-0.467 0.45,-0.129c0.025,0.862 0.188,-0.513 1.042,-0.188c0.337,0.125 0.7,-0.054 1.092,-0.545c0.325,-0.409 0.704,-0.671 0.845,-0.588c0.138,0.088 0.525,-0.133 0.859,-0.487c0.491,-0.525 0.591,-0.967 0.529,-2.367c-0.075,-1.538 -0.008,-1.767 0.637,-2.188c0.713,-0.458 0.717,-0.454 0.509,0.38c-0.3,1.216 0.346,0.379 0.475,-0.334c0.058,-0.325 0.371,-0.625 0.696,-0.675c0.445,-0.058 0.725,0.217 1.112,1.104c0.8,1.83 0.308,1.63 1.079,2.625c0.3,0.388 0.479,0.963 0.396,1.28c-0.083,0.316 -0.029,0.658 0.121,0.762c0.337,0.238 0.925,1.575 1.104,1.954c0.363,-1.521 0.433,-2.033 0.6,-0.371c0.021,0.205 0.271,0.409 0.558,0.467c0.73,0.133 0.559,-0.754 0.467,-11.133c-0.054,-5.634 0.133,-6.496 1.167,-5.467c0.437,0.433 0.525,1.133 0.554,4.542c0.058,6.462 0.487,11.029 0.475,12.625c-0.004,0.362 0.175,0.662 0.392,0.662c0.533,0 0.895,0.634 0.329,0.413c-0.55,-0.204 -1.092,0.371 0.116,0.404c0.617,0.017 0.817,-0.083 0.659,-0.325c-0.459,-0.7 -0.5,-5.121 -0.063,-6.263c0.154,-0.404 0.4,-0.658 0.546,-0.57c0.296,0.183 0.767,3.716 0.758,5.679c-0.008,1.775 0.463,1.229 0.463,0.937c0,-0.171 0.133,-0.229 0.296,-0.129c0.304,0.183 1.312,-0.042 0.262,-0.621l-0.708,-0.387c0.408,-0.004 5.112,4.375 6.067,3.358c0.12,-0.125 -1.034,-4.192 -1.671,-6.504c-0.259,-0.925 -0.434,-1.571 -0.413,-1.571c-0.183,-4.058 4.684,4.579 8.334,8.404c1.083,1.134 2.208,-12.729 3.162,-11.862c2.375,2.162 2.967,14.654 2.429,13.716Zm-338.791,-28.954c0.25,-0.641 -0.496,-0.316 -0.642,0.121c-0.179,0.529 0.433,0.417 0.642,-0.121Zm697.245,10.167c0.15,0 0.25,-0.588 -0.183,-0.588c-0.433,0 0.029,0.588 0.183,0.588Zm-9.366,0.296c0.383,0 0.391,-0.496 0,-0.738c-0.396,-0.237 -0.396,0.738 0,0.738Zm-12.021,6.758c0.275,0.438 0.446,0.329 0.446,0c0,-0.392 -0.692,-0.387 -0.446,0Zm-14.533,-7.329c0.533,0.85 0.591,-0.738 0.133,-0.458c-0.167,0.104 -0.225,0.312 -0.133,0.458Zm-4.017,7.329c0.392,0 0.392,-0.592 0,-0.592c-0.392,0 -0.392,0.592 0,0.592Zm-0.25,2.5c-0.054,-0.321 -0.317,-1.983 -0.475,-2.142c-0.167,-0.166 -0.763,0.205 -0.754,0.463c0.008,0.237 0.775,1.125 1.229,1.679Zm-1.138,-2.912c0.205,-0.538 -0.262,-0.917 -0.554,-0.45c-0.246,0.395 0.296,1.108 0.554,0.45Zm-0.629,2.8c0.1,0.304 0.171,0.304 0.359,0c0.245,-0.396 0,-0.842 -0.305,-0.546c0,-0.029 -0.17,0.2 -0.054,0.546Zm-0.512,-4.046c0.571,0.216 0.85,-0.271 0.504,-0.884c-0.254,-0.445 -0.313,-0.433 -0.604,0.113c-0.259,0.475 -0.238,0.642 0.1,0.771Zm-3.634,-3.584c-0.295,-0.762 -0.366,0.7 -0.8,1.396c-0.616,0.988 1.142,-0.508 0.8,-1.396Zm-0.812,-1.812c-0.125,0 -0.058,0.2 0.146,0.437c0.391,0.471 0.9,0.596 0.883,0.225c-0.017,-0.312 -1.083,-1.545 -1.337,-1.545c-0.305,0 0.625,0.883 0.308,0.883Zm-10.538,-4.408c0.163,0 0.296,0.72 0.296,1.604c0,1.287 0.113,1.666 0.575,1.912c0.025,0 0.563,0.304 0.75,0.304c0.379,0 0.521,-0.954 0.229,-1.562c-0.17,-0.354 -0.466,-1.058 -0.658,-1.571c-0.317,-0.842 -1.487,-1.592 -1.487,-0.954c0,0.15 0.133,0.267 0.295,0.267Zm-2.729,11.1c0.471,0.154 0.446,-0.08 -0.112,-1.15c-1.113,-2.134 -0.496,0.95 0.112,1.15Zm-4.096,3.445c0.355,0.221 0.355,-0.933 0,-1.762c-0.208,-0.471 -0.262,-0.375 -0.279,0.5c-0.008,0.596 0.113,1.162 0.279,1.262Zm-7.141,-7.8c-0.213,-0.333 -0.271,-0.283 -0.275,0.234c-0.004,0.683 0.146,0.837 0.404,0.429c0.079,-0.133 0.021,-0.429 -0.129,-0.663Zm-1.171,4.588c0,0.229 0.25,0.421 0.554,0.421c0.425,0 0.604,-0.292 0.754,-1.225c0.238,-1.454 -0.258,-2.221 -0.558,-0.867c-0.113,0.5 -0.325,0.988 -0.475,1.079c-0.229,0.138 -0.304,0.592 -0.275,0.592Zm-0.904,-3.846c0.287,0.175 1.062,-2.137 0.804,-2.396c-0.3,-0.296 -0.521,0.046 -0.788,1.204c0.034,0 -0.241,1.055 -0.016,1.192Zm-1.063,0.375c0.617,-2.279 -0.704,-0.15 -0.704,0.275c0,0.633 0.513,0.433 0.704,-0.275Zm-23.262,-13.742c0.396,0 0.396,-0.679 0,-0.437c-0.434,0.267 -0.342,0.437 0,0.437Zm-12.167,9.259c0.429,0.266 0.188,1.229 0.517,1.412c0.358,0.2 0.966,-0.108 0.95,-0.483c-0.021,-0.425 -1.767,-1.821 -1.767,-1.408c0,0.162 0.133,0.383 0.3,0.479Zm-19.787,10.508c0.2,0.488 0.2,-1.225 0,-0.737c-0.084,0.204 -0.084,0.533 0,0.737Zm-5.1,-8.162c0.416,0.412 0.887,-1.184 0.195,-0.496c-0.037,0 -0.325,0.371 -0.195,0.496Zm-5.075,9.85c0.433,0 -0.03,-0.588 -0.184,-0.588c-0.15,0 -0.254,0.588 0.184,0.588Zm-3.18,-5.509c0.2,0.492 0.2,-1.229 0,-0.733c-0.083,0.2 -0.083,0.529 0,0.733Zm-0.991,5.217c0.391,0 0.391,-1.179 0,-1.179c-0.392,0 -0.392,1.179 0,1.179Zm-0.584,-5.95c0.488,2.187 0.93,1.575 0.775,1.025c-0.362,-1.3 -0.287,-3.892 -0.962,-3.892c-0.45,0 -0.45,-0.008 0.187,2.867Zm-1.591,-1.621c0.216,1.142 0.275,1.233 0.521,0.846c0.241,-0.392 -0.113,-1.8 -0.45,-1.8c-0.142,0 -0.175,0.429 -0.071,0.954Zm-0.992,4.704c0.2,0.488 0.2,-1.225 0,-0.737c-0.079,0.204 -0.079,0.537 0,0.737Zm-0.575,6.021c0.233,0.229 0.196,-1.112 -0.025,-0.567c-0.029,0 -0.121,0.421 0.025,0.567Zm-0.204,-7.125c0.171,-0.321 0.208,-0.85 0.083,-1.175c-0.208,-0.537 -0.241,-0.521 -0.437,0.208c-0.288,1.088 -0.05,1.734 0.354,0.967Zm-4.667,3.817c0.467,0.558 0.896,0.575 0.896,0.037c0,-0.7 -1.821,-1.141 -0.896,-0.037Zm-4.15,-0.729c0.163,0 0.296,0.462 0.296,1.029c0,1.054 0.154,1.2 0.838,0.771c0.325,-0.2 0.312,-0.438 -0.059,-1.317c-0.408,-0.963 -1.375,-1.508 -1.375,-0.779c0,0.162 0.138,0.296 0.3,0.296Zm-3.037,-4.455c0.546,0.342 0.425,1.909 1.062,2.546c0.592,0.579 1.196,0.563 0.967,-0.029c-0.1,-0.25 -0.179,-0.571 -0.179,-0.708c0,-0.409 -1.513,-2.054 -1.884,-2.05c-0.233,0 -0.22,0.079 0.034,0.241Zm-1.667,3.205c0.125,-2.542 0.192,-2.559 0.783,-4.575c-3.062,-2.942 -4.687,-4.517 -4.687,-4.775c0,-0.15 -0.171,-0.275 -0.379,-0.275c-0.259,0 -0.4,0.545 -0.446,1.662c-0.058,1.508 0.033,1.779 0.975,2.917c0.571,0.691 1.037,1.341 1.037,1.454c0,0.379 1.513,1.792 2.059,3.446c0.441,1.35 0.6,1.383 0.658,0.146Zm-4.204,-0.955c0.429,-0.262 0.142,1.634 0.667,2.159c0.45,0.446 0.883,1.946 1.075,2.541c-0.038,-1.037 -0.067,-3.083 -0.33,-3.083c-0.12,0 -0.22,-0.129 -0.22,-0.283c0,-0.342 0.95,-0.038 1.254,0.408c0.316,0.454 0.15,1.754 0.416,2.742c0.255,0.946 0.613,0.812 0.78,-0.296c0.316,-2.079 -2.275,-5 -4.075,-8.596c-0.096,1.942 -0.375,4.904 0.433,4.408Zm-1.379,-7.416c0.2,0.487 0.2,-1.229 0,-0.738c-0.084,0.204 -0.084,0.529 0,0.738Zm-2.221,-3.504c0.492,0.595 0.971,2.779 0.971,4.162c-0.059,1.521 0.308,2.729 0.771,2.579c0.62,-0.212 -0.196,-4.05 0.287,-4.904c0.217,-0.392 0.063,-0.742 -0.679,-1.546c-1.308,-1.412 -1.704,-0.716 -1.35,-0.291Zm-6.129,13.754c0.1,0.296 0.171,0.296 0.358,0c0.246,-0.4 0,-0.85 -0.304,-0.55c0,-0.029 -0.171,0.204 -0.054,0.55Zm-2.779,-11.209c0.516,4.309 0.525,13.505 0.783,13.759c0.083,0.083 0.154,-0.146 0.154,-0.504c0,-0.359 0.117,-0.584 0.263,-0.488c0.42,0.254 0.575,-0.854 0.308,-2.233c-0.138,-0.704 -0.25,-1.675 -0.254,-2.159c-0.004,-0.737 0.046,-0.8 0.3,-0.366c0.475,0.808 1.879,0.679 0.7,-0.488c-0.342,-0.341 -0.384,-0.591 -0.159,-0.979c0.284,-0.479 0.309,-0.479 0.317,0.054c0.004,0.4 0.104,0.484 0.317,0.271c0.341,-0.342 -0.05,-1.679 -0.588,-2.008c-0.437,-0.267 -0.204,-2.504 -0.6,-2.504c-0.383,0 0.034,-2.713 -0.471,-4.625c-0.545,-2.08 0.213,-1.4 -0.004,-2.771c-0.329,-2.1 -0.533,-2.504 0.179,-2.692c0.738,-0.187 0.767,-1.221 0.134,-0.979c-0.304,0.117 -0.442,-0.017 -0.442,-0.421c0,-0.321 -0.537,-1.092 -1.187,-1.708c-1.775,-1.667 -1.259,-1.771 0.25,10.841Zm-5.492,11.83c0.2,0.487 0.2,-1.225 0,-0.738c-0.083,0.204 -0.083,0.538 0,0.738Zm-1.325,0.887c0.292,0.283 0.325,0.254 0.167,-0.167c-0.205,-0.529 -0.4,-0.362 -0.371,-0.362c-0.092,0.092 0,0.329 0.204,0.529Zm-4.008,1.013c0.104,0.1 0.187,-0.071 0.191,-0.384c0.004,-0.471 0.05,-0.487 0.292,-0.121c0.342,0.53 0.35,0.088 0.012,-0.737c-0.22,-0.538 -0.262,-0.517 -0.458,0.237c0.029,0 -0.233,0.805 -0.037,1.005Zm-12.517,-4.275l0.108,0.687l0.242,-0.687c0.421,-1.209 -0.571,-1.396 -0.35,0Zm-5.7,-3.867c0.254,0.387 0.287,0.387 0.287,0c0,-0.246 -0.129,-0.646 -0.287,-0.888c-0.254,-0.391 -0.288,-0.391 -0.288,0c0,0.242 0.13,0.642 0.288,0.888Zm-2.317,3.55c0.159,0.471 0.538,-0.058 0.525,-0.738c-0.008,-0.566 -0.029,-0.57 -0.316,-0.087c-0.171,0.287 -0.263,0.658 -0.209,0.825Zm-9.575,-3.188c-0.021,-0.712 -0.05,-0.741 -0.279,-0.22c-0.137,0.325 -0.262,0.687 -0.275,0.808c-0.021,0.233 0.583,0.546 0.554,-0.588Zm-0.379,3.517c0.438,-2.287 -0.179,-2.521 -0.208,-2.267c-0.004,0.03 -0.404,2.534 -0.325,2.534c-0.129,1.741 0.183,1.587 0.533,-0.267Zm-3.412,-0.946c0.35,0 0.312,-1.687 -0.038,-1.904c-0.396,-0.237 -0.279,1.904 0.038,1.904Zm-3.492,1.684c0.237,0.233 0.196,-1.105 -0.025,-0.563c-0.029,0 -0.121,0.421 0.025,0.563Zm-0.129,-5.384c0.316,0.817 0.112,1.142 0.141,1.146c-0.183,0.475 0.305,1.883 0.521,1.504c0.279,-0.483 -0.196,-3.158 -0.579,-3.283c-0.283,-0.096 -0.304,0.058 -0.083,0.633Zm-3.863,9.129c0.317,0.192 0.667,-1.57 0.396,-2.004c-0.117,-0.187 -0.171,-0.704 -0.125,-1.146c0.104,-0.962 -0.512,-1.558 -0.512,1.096c-0.034,0.009 0.037,1.929 0.241,2.054Zm-18.533,-6.6c0.242,0.388 0.833,0.384 0.592,0c-0.242,-0.395 -0.834,-0.391 -0.592,0Zm-4.6,8.813c0.392,0 0.392,-0.975 0,-0.733c-0.396,0.241 -0.388,0.733 0,0.733Zm0.383,-1.392c0.217,-0.371 0.409,-2.429 0.834,-2.429c0.166,0 0.208,-0.15 0.095,-0.329c-0.137,-0.225 -0.312,-0.15 -0.52,0.217c-0.492,0.87 -1.092,1.133 -1.092,1.879c0,0.587 0.467,1.041 0.683,0.662Zm-3.333,-3.604c0.429,0 -0.033,-0.587 -0.188,-0.587c-0.15,0 -0.25,0.587 0.188,0.587Zm-4.725,1.908c0.179,0.909 1.496,1.046 0.371,-0.07c-0.438,-0.438 -0.471,-0.43 -0.371,0.07Zm-6.167,-0.087c0.084,-0.125 0.025,-0.425 -0.125,-0.658c-0.212,-0.334 -0.275,-0.284 -0.275,0.233c-0.008,0.679 0.146,0.842 0.4,0.425Zm-0.554,-2.6c0.667,0.662 -0.104,0.137 1.679,2.687c-0.283,-4.812 -0.525,-6.787 0.734,-6.062c0.304,0.175 0.387,0.317 0.183,0.329c-0.513,0.008 -0.463,0.917 0.092,1.704c0.258,0.363 0.325,0.65 0.15,0.65c-0.175,0 -0.317,0.2 -0.317,0.446c0,0.571 0.196,0.554 0.887,-0.079c0.33,-0.308 0.525,-0.825 0.475,-1.254c-0.212,-1.804 -0.541,-3.229 -0.745,-3.229c-0.325,0 -0.871,-4.271 -1.221,-3.917c-0.134,0.133 -0.463,0.842 -0.729,1.571c-1.696,4.6 -1.988,6.362 -1.188,7.154Zm-1.9,2.583c0.45,0.7 0.079,-0.925 0.538,-0.925c0.145,0 0.195,0.267 0.112,0.592c-0.092,0.342 -0.008,0.587 0.192,0.587c0.55,0 -0.009,-3.65 -0.171,-3.804c-0.292,-0.266 0.258,1.654 -0.267,1.859c-0.475,0.179 -0.716,1.2 -0.404,1.691Zm-0.808,-3.858c0.133,0 0.496,-1.471 0.141,-1.471c-0.337,0 -0.279,1.471 -0.141,1.471Zm-10.663,2.662c0.225,-0.362 -0.433,-0.8 -0.433,-0.183c-0.029,0 0.012,0.863 0.433,0.183Zm-0.908,-2.495c0.279,0.72 0.071,1.3 0.475,1.3c0.496,0 0.333,-1.392 -0.179,-1.592c-0.35,-0.129 -0.429,-0.05 -0.296,0.292Zm-1.2,-3.913c0.196,0.488 0.171,-1.575 -0.013,-0.879c-0.075,0.283 -0.07,0.683 0.013,0.879Zm-1,5.367c-0.442,1.15 0.562,0.95 0.446,-0.592c-0.154,-2.108 -0.079,-4.067 -0.442,-3.233c-0.35,0.808 -0.358,2.716 -0.008,2.929c0.179,0.108 0.183,0.442 0.004,0.896Zm-1.267,-7.763c0.329,0.325 1.079,-1.566 1.175,-2.971c0.167,-2.458 0.046,-0.037 -1.066,2.017c-0.221,0.404 -0.267,0.8 -0.109,0.954Zm-1.279,6.113c0.333,0.279 0.404,0.204 0.371,-0.404c-0.025,-0.409 -0.142,-0.746 -0.258,-0.746c-0.117,0 -0.13,-0.229 -0.03,-0.517c0.105,-0.279 0.096,-0.425 -0.02,-0.325c-0.167,0.142 -0.371,0.917 -0.342,0.917c-0.079,0.421 0.042,0.883 0.279,1.075Zm-2.483,2.379c0.387,0 0.304,-0.883 0.171,-0.883c-0.134,0 -0.571,0.883 -0.171,0.883Zm-1.938,-0.371c0.463,-1.867 0.946,-5.687 0.75,-5.896c-0.2,-0.208 -0.304,0.271 -0.729,3.325c-0.229,1.625 -0.354,1.988 -0.325,1.988c-0.225,1.287 0.017,1.758 0.304,0.583Zm-2.821,-10.192c0,1.609 0.45,1.459 0.521,-0.179c0.038,-0.812 -0.054,-1.266 -0.233,-1.158c-0.238,0.146 -0.325,1.329 -0.288,1.337Zm-7.6,9.013c0.234,0.233 0.196,-1.108 -0.025,-0.567c-0.033,0 -0.12,0.421 0.025,0.567Zm-1.9,4.342c0.217,0.491 0.259,0.441 0.275,-0.35c0.03,-1.313 -0.575,-1.4 -0.55,-0.771c0.013,0.291 0.138,0.796 0.275,1.121Zm-0.633,-3.088c0.35,0 -0.008,-1.471 -0.142,-1.471c-0.133,0 -0.212,1.471 0.142,1.471Zm-7.892,4.25c0.171,1.813 0.092,0.15 0.371,-1.642c0.146,-0.908 0.129,-0.933 -0.162,-0.266c-0.175,0.4 -0.267,1.254 -0.209,1.908Zm-6.129,-5.5c0.313,-0.442 0.05,-9.054 -0.608,-1.471c-0.154,1.759 0.054,2.263 0.608,1.471Zm-0.362,4.404c0.233,0.234 0.196,-1.108 -0.025,-0.562c-0.034,0 -0.121,0.421 0.025,0.562Zm-0.3,-1.391c0.308,0 0.412,-0.917 0.187,-1.667c-0.233,-0.767 -0.254,-0.738 -0.279,0.417c-0.012,0.687 0.029,1.25 0.092,1.25Zm-2.346,0.241c0.237,0.238 0.029,-1.708 0.408,-1.708c0.142,0 0.384,-0.792 0.542,-1.767c0.254,-1.562 0.233,-1.762 -0.213,-1.762c-0.412,0 -0.533,0.433 -0.695,2.541c-0.109,1.4 -0.13,2.613 -0.042,2.696Zm-62.496,3.871c0.521,0 0.725,-0.842 0.375,-1.554l-0.312,-0.65c-0.059,1.846 -0.284,1.742 -0.221,1.742c-0.1,0.258 -0.029,0.462 0.158,0.462Zm-2.383,-0.496c0.237,0.234 0.325,0.088 0.316,-0.541c-0.004,-0.763 -0.045,-0.805 -0.325,-0.325c0.042,0.008 -0.408,0.45 0.009,0.866Zm-31.579,-5.671c0.587,0 0.587,-0.591 0,-0.591c-0.588,0 -0.588,0.591 0,0.591Zm-16.009,1.559c0.067,-0.359 -0.012,-0.734 -0.171,-0.829c-0.529,-0.321 -0.266,3.141 0.171,0.829Zm-1.041,2.846c0.433,0 -0.03,-0.584 -0.184,-0.584c-0.15,0 -0.25,0.584 0.184,0.584Zm-4.805,-0.263c0.225,-0.137 0.346,-0.437 0.275,-0.654c-0.095,-0.279 -0.245,-0.204 -0.491,0.258c-0.396,0.729 -0.375,0.771 0.216,0.396Zm-8.633,-1.792c0.271,0 0.679,-4.308 0.442,-4.679c-0.238,-0.366 -0.438,0.459 -0.588,2.446c0.029,0 -0.225,2.233 0.146,2.233Zm-28.546,-0.766c1.138,4.279 1.221,-0.413 0.713,-0.413c-0.163,0 -0.3,-0.316 -0.3,-0.716c0,-0.788 -0.467,-1.263 -0.667,-0.68c-0.071,0.205 0.046,1.017 0.254,1.809Zm-7.016,-5.109c0.395,0 0.9,-1.004 0.9,-1.787c0,-0.633 -0.013,-0.629 -0.592,0.1c-0.329,0.412 -0.596,0.958 -0.596,1.217c0,0.254 0.129,0.47 0.288,0.47Zm-5.334,4.534c0,0.475 0.421,0.825 0.684,0.571c0.229,-0.234 -0.088,-0.992 -0.417,-0.992c-0.221,0 -0.296,0.421 -0.267,0.421Zm-16.025,-0.129c0.246,0.379 0.288,0.37 0.292,-0.059c0.008,-0.866 -1.088,-1.158 -0.292,0.059Zm-36.221,4.137c-0.008,-0.379 -0.062,-0.367 -0.325,0.071c-0.616,1.058 0.346,0.887 0.325,-0.071Zm-0.779,-4.65c0.2,0.492 0.2,-1.229 0,-0.733c-0.083,0.2 -0.083,0.529 0,0.733Zm-1.041,-4.708c0.495,0.491 -0.221,1.987 0.308,1.987c0.571,0 0.512,-2.35 -0.067,-2.708c-0.446,-0.275 -0.646,0.321 -0.241,0.721Zm-19.117,3.85c0.396,0.15 1.071,-0.488 1.654,-1.571c0.508,-0.933 0.046,-1.146 -0.633,-0.292c-1.213,1.525 -1.5,1.679 -1.021,1.863Zm-1.017,2.108c0,-0.4 -0.529,0.171 -0.679,0.729c-0.408,1.55 0.679,-0.416 0.679,-0.729Zm-3.446,5.65c0.238,0.233 0.2,-1.108 -0.02,-0.562c-0.034,0 -0.121,0.416 0.02,0.562Zm-24.633,-10.5c0.533,0 0.679,-1.312 0.179,-1.617c-0.162,-0.104 -0.296,0.013 -0.296,0.25c0,0.784 -0.566,1.367 0.117,1.367Zm-7.717,11.088c0.238,0.229 0.196,-1.109 -0.025,-0.567c-0.029,0 -0.12,0.421 0.025,0.567Zm-2.745,0.22c0.42,0.413 0.2,-0.495 0.2,-0.495c0,0 -0.284,0.412 -0.2,0.495Zm-18.446,-13.07c0.391,0 0.391,-0.592 0,-0.592c-0.392,0 -0.392,0.592 0,0.592Zm-5.721,0.875c0.417,-0.009 1.567,-1.388 1.567,-1.888c0,-0.433 -0.059,-0.429 -0.555,0.046c-0.733,0.696 -1.312,1.85 -1.012,1.842Zm-13.383,-0.288c0.208,0 0.491,-0.896 0.333,-1.054c-0.196,-0.196 -0.5,1.054 -0.333,1.054Zm-12.267,0c0.75,1.963 1.108,0.129 0.446,-0.529c-0.613,-0.604 -0.796,-0.392 -0.446,0.529Zm-21.921,9.696c0.154,0 0.617,-0.588 0.183,-0.588c-0.425,0 -0.341,0.588 -0.183,0.588Zm-1.971,-0.183c0.454,0.275 0.65,-0.146 0.65,-1.396c0,-2.579 -1.204,1.054 -0.65,1.396Zm-13.204,-0.184c0.179,0.688 0.179,-1.716 0,-1.029c-0.075,0.283 -0.075,0.746 0,1.029Zm-1.221,-0.221c0.046,0 0.096,-2 0.1,-4.445c0.013,-3.78 -0.037,-4.317 -0.35,-3.6c-0.779,1.787 -1.362,4.216 -1.137,4.729c0.337,0.771 0.116,0.691 0.8,2.212c-0.029,0 0.521,1.104 0.587,1.104Zm-3.325,1.555c0,0.075 0.259,0.208 0.575,0.291c0.617,0.159 1.046,-0.446 0.938,-1.329c-0.038,-0.287 0.075,-0.517 0.25,-0.517c0.4,0 0.416,-1.375 0.016,-1.616c-0.395,-0.242 -0.658,1.054 -1.337,2.25c-0.05,0.087 -0.5,0.921 -0.442,0.921Zm-7.866,-5.084c0.275,0.442 0.445,0.334 0.445,0c0,-0.391 -0.687,-0.387 -0.445,0Zm-5.813,-0.366c0.488,-1.284 -0.846,-0.85 -0.858,0.3c-0.009,0.612 0.591,0.404 0.858,-0.3Zm-1.033,-6.813c0.925,0.921 1.816,0.204 1.671,-1.342c-0.117,-1.212 -0.55,-1.379 -1.359,-0.516c-0.846,0.9 -0.908,1.275 -0.312,1.858Zm-3.346,8.792c0.058,0.462 0.267,0.896 0.471,0.962c0.541,0.179 0.462,-0.958 -0.1,-1.416c-0.413,-0.338 -0.459,-0.288 -0.371,0.454Zm-32.4,-4.546c0.392,0 0.392,-0.592 0,-0.592c-0.392,0 -0.392,0.592 0,0.592Zm-12.088,-10.017c0.75,-0.2 1.405,-0.629 1.409,-0.921c0,-0.212 0.087,-0.708 0.187,-1.116c0.479,-1.909 -1.725,2.075 -1.596,2.037Zm-6.375,9.446c0.13,0.854 0.717,1.583 1.03,1.275c0.258,-0.254 -0.363,-1.817 -0.784,-1.975c-0.258,-0.1 -0.333,0.117 -0.246,0.7Zm-1.391,-2.121c0.179,0.509 0.491,0.929 0.7,0.929c0.291,0 0.271,-0.362 -0.104,-1.62c-0.938,-3.155 -1.184,-0.971 -0.596,0.691Zm-2.279,-9.95c0.254,0 1.42,-1.796 1.266,-1.95c-0.241,-0.237 -1.391,1.017 -1.391,1.509c0,0.245 0.054,0.441 0.125,0.441Zm-9.088,4.554c0.183,1.138 -0.2,2.946 0.792,1.046c0.658,-1.262 0.587,-1.837 -0.217,-1.721c-0.479,0.063 -0.642,0.259 -0.575,0.675Zm-37.837,10.534c0.112,-0.104 0.191,-0.471 0.179,-0.804c-0.017,-0.567 -0.042,-0.559 -0.3,0.091c-0.292,0.717 -0.234,1.067 0.121,0.713Z" style="fill:#463174;fill-rule:nonzero;"/></g></svg>