<?xml version="1.0" encoding="UTF-8" standalone="no"?><!DOCTYPE svg PUBLIC "-//W3C//DTD SVG 1.1//EN" "http://www.w3.org/Graphics/SVG/1.1/DTD/svg11.dtd"><svg width="100%" height="100%" viewBox="0 0 1042 834" version="1.1" xmlns="http://www.w3.org/2000/svg" xmlns:xlink="http://www.w3.org/1999/xlink" xml:space="preserve" xmlns:serif="http://www.serif.com/" style="fill-rule:evenodd;clip-rule:evenodd;stroke-linejoin:round;stroke-miterlimit:2;"><path d="M262.433,402.456c-1.636,-3.014 -3.982,-5.317 -7.039,-6.91c-3.057,-1.593 -6.652,-2.39 -10.786,-2.39c-7.147,0 -12.873,2.347 -17.179,7.04c-4.305,4.693 -6.458,10.957 -6.458,18.794c0,8.352 2.26,14.875 6.781,19.568c4.521,4.693 10.742,7.04 18.665,7.04c5.425,0 10.01,-1.378 13.756,-4.133c3.746,-2.756 6.48,-6.717 8.202,-11.884l-28.029,0l0,-16.275l48.05,0l0,20.538c-1.636,5.511 -4.413,10.634 -8.331,15.371c-3.918,4.736 -8.891,8.568 -14.919,11.495c-6.028,2.928 -12.831,4.392 -20.409,4.392c-8.955,0 -16.942,-1.959 -23.96,-5.877c-7.018,-3.918 -12.486,-9.365 -16.404,-16.34c-3.918,-6.975 -5.877,-14.94 -5.877,-23.895c0,-8.956 1.959,-16.943 5.877,-23.961c3.918,-7.018 9.364,-12.486 16.339,-16.404c6.975,-3.918 14.941,-5.877 23.896,-5.877c10.85,0 20,2.626 27.448,7.879c7.449,5.253 12.379,12.529 14.79,21.829l-24.413,0Z" style="fill:#463174;fill-rule:nonzero;"/><path d="M322.367,373.781l0,54.25c0,5.425 1.334,9.602 4.004,12.529c2.669,2.928 6.587,4.392 11.754,4.392c5.167,0 9.128,-1.464 11.883,-4.392c2.756,-2.927 4.134,-7.104 4.134,-12.529l0,-54.25l22.087,0l0,54.121c0,8.094 -1.722,14.94 -5.167,20.538c-3.444,5.597 -8.072,9.816 -13.885,12.658c-5.812,2.842 -12.292,4.262 -19.44,4.262c-7.147,0 -13.54,-1.399 -19.181,-4.198c-5.64,-2.798 -10.096,-7.018 -13.369,-12.658c-3.272,-5.64 -4.908,-12.508 -4.908,-20.602l0,-54.121l22.088,0Z" style="fill:#463174;fill-rule:nonzero;"/><path d="M448.562,373.781l0,61.742c0,9.558 -2.69,16.921 -8.072,22.087c-5.382,5.167 -12.637,7.75 -21.765,7.75c-9.558,0 -17.222,-2.712 -22.992,-8.137c-5.769,-5.425 -8.654,-13.132 -8.654,-23.121l21.958,0c0,3.789 0.775,6.652 2.325,8.59c1.55,1.937 3.789,2.906 6.717,2.906c2.67,0 4.736,-0.861 6.2,-2.583c1.464,-1.723 2.196,-4.22 2.196,-7.492l0,-61.742l22.087,0Z" style="fill:#463174;fill-rule:nonzero;"/><path d="M522.833,448.44l-33.841,0l-5.425,16.016l-23.121,0l32.808,-90.675l25.575,0l32.808,90.675l-23.379,0l-5.425,-16.016Zm-5.683,-17.05l-11.238,-33.196l-11.108,33.196l22.346,0Z" style="fill:#463174;fill-rule:nonzero;"/><path d="M607.825,464.456l-18.858,-34.229l-5.296,0l0,34.229l-22.088,0l0,-90.675l37.071,0c7.147,0 13.24,1.249 18.277,3.746c5.038,2.497 8.805,5.92 11.302,10.269c2.498,4.348 3.746,9.192 3.746,14.531c0,6.028 -1.701,11.41 -5.102,16.146c-3.401,4.736 -8.417,8.094 -15.048,10.075l20.925,35.908l-24.929,0Zm-24.154,-49.858l13.691,0c4.048,0 7.083,-0.99 9.107,-2.971c2.023,-1.981 3.035,-4.779 3.035,-8.396c0,-3.444 -1.012,-6.157 -3.035,-8.137c-2.024,-1.981 -5.059,-2.971 -9.107,-2.971l-13.691,0l0,22.475Z" style="fill:#463174;fill-rule:nonzero;"/><path d="M702.246,448.44l-33.842,0l-5.425,16.016l-23.121,0l32.809,-90.675l25.575,0l32.808,90.675l-23.379,0l-5.425,-16.016Zm-5.684,-17.05l-11.237,-33.196l-11.108,33.196l22.345,0Z" style="fill:#463174;fill-rule:nonzero;"/><path d="M806.225,373.781l0,17.696l-24.025,0l0,72.979l-22.088,0l0,-72.979l-24.025,0l0,-17.696l70.138,0Z" style="fill:#463174;fill-rule:nonzero;"/><rect x="817.333" y="373.781" width="22.087" height="90.675" style="fill:#463174;fill-rule:nonzero;"/></svg>