<?xml version="1.0" encoding="UTF-8" standalone="no"?>
<!DOCTYPE svg PUBLIC "-//W3C//DTD SVG 1.1//EN" "http://www.w3.org/Graphics/SVG/1.1/DTD/svg11.dtd">
<!-- Created with Vectornator (http://vectornator.io/) -->
<svg height="100%" stroke-miterlimit="10" style="fill-rule:nonzero;clip-rule:evenodd;stroke-linecap:round;stroke-linejoin:round;" version="1.1" viewBox="112.021 148.508 57.9871 24.241" width="100%" xml:space="preserve" xmlns="http://www.w3.org/2000/svg" xmlns:vectornator="http://vectornator.io" xmlns:xlink="http://www.w3.org/1999/xlink">
<defs/>
<clipPath id="ArtboardFrame">
<rect height="24.241" width="57.9871" x="112.021" y="148.508"/>
</clipPath>
<g clip-path="url(#ArtboardFrame)" id="Layer" vectornator:layerName="Layer">
<g opacity="1" vectornator:layerName="Group 8">
<path d="M124.497 166.989L124.497 155.042L122.991 155.042L122.991 166.989L124.497 166.989ZM112.021 161.229C112.651 162.735 114.137 163.651 115.847 163.651C118.147 163.651 120.04 162.104 120.04 159.235C120.04 156.589 118.31 154.981 116.01 154.981C115.114 154.981 114.382 155.144 113.73 155.51L114.402 156.792C114.911 156.507 115.42 156.365 115.969 156.365C117.455 156.365 118.493 157.423 118.493 159.214C118.493 161.351 117.272 162.267 115.827 162.267C114.707 162.267 113.751 161.657 113.343 160.578L112.021 161.229Z" fill="#463174" fill-rule="nonzero" opacity="1" stroke="none"/>
<path d="M122.055 168.842C122.34 168.577 122.869 168.19 123.602 168.19C124.538 168.19 125.169 168.801 125.169 169.696C125.169 170.694 124.375 171.406 123.052 171.406C120.874 171.406 119.246 169.737 118.391 168.394L117.272 169.289C118.106 170.51 120.162 172.749 123.011 172.749C125.596 172.749 126.655 171.121 126.655 169.696C126.655 168.007 125.271 166.827 123.581 166.827C122.462 166.827 121.668 167.295 121.18 167.742L122.055 168.842Z" fill="#463174" fill-rule="nonzero" opacity="1" stroke="none"/>
<path d="M134.104 157.545C132.496 155.632 131.316 154.899 129.871 154.899C128.263 154.899 126.716 156.08 126.716 157.83C126.716 159.194 127.672 160.537 129.504 160.7L130.359 159.682L130.359 159.54C128.771 159.499 128.222 158.644 128.222 157.83C128.222 156.975 128.955 156.304 129.85 156.304C130.766 156.304 131.54 156.711 133.066 158.502L133.636 159.174L132.801 159.947C131.621 161.066 130.705 162.084 130.705 163.529C130.705 165.178 132.048 166.704 134.267 166.704C136.526 166.704 137.808 165.137 137.808 163.468C137.808 161.962 136.75 160.659 135.57 159.255L135.549 159.235L139.844 155.225L139.844 155.042L138.032 155.042L134.674 158.197L134.104 157.545ZM134.287 165.402C132.944 165.402 132.17 164.547 132.17 163.55C132.17 162.858 132.354 162.186 134.063 160.619L134.511 160.212L134.531 160.232C135.854 161.799 136.363 162.532 136.363 163.468C136.363 164.527 135.57 165.402 134.287 165.402Z" fill="#463174" fill-rule="nonzero" opacity="1" stroke="none"/>
<path d="M140.292 161.718C140.76 161.82 141.268 161.881 141.777 161.921C141.655 162.288 141.574 162.715 141.574 163.285C141.574 165.198 142.999 167.071 145.726 167.071C146.601 167.071 147.476 166.888 148.189 166.44L147.741 165.096C147.11 165.483 146.459 165.666 145.787 165.666C143.935 165.666 143.1 164.445 143.1 163.183C143.1 162.695 143.182 162.308 143.263 161.982C146.153 161.982 147.741 160.578 147.741 158.4C147.741 156.426 146.214 154.981 143.813 154.981C142.978 154.981 142.164 155.123 141.472 155.388L141.981 156.792C142.51 156.568 143.141 156.426 143.894 156.426C145.237 156.426 146.174 157.179 146.174 158.421C146.174 159.56 145.482 160.578 143.202 160.578L140.292 160.578L140.292 161.718Z" fill="#463174" fill-rule="nonzero" opacity="1" stroke="none"/>
<path d="M152.585 166.989L152.585 155.042L151.079 155.042L151.079 166.989L152.585 166.989Z" fill="#463174" fill-rule="nonzero" opacity="1" stroke="none"/>
<path d="M156.92 162.308C156.92 160.232 158.325 159.072 160.441 159.072L162.965 159.072L162.965 166.989L164.471 166.989L164.471 155.042L162.965 155.042L162.965 157.647L160.238 157.647C157.368 157.647 155.353 159.479 155.353 162.267C155.353 165.422 157.836 167.193 160.564 166.969L160.564 165.565C158.528 165.707 156.92 164.466 156.92 162.308Z" fill="#463174" fill-rule="nonzero" opacity="1" stroke="none"/>
<path d="M166.486 148.508C163.942 148.508 162.599 150.584 162.945 152.599L164.431 152.945C164.064 151.521 164.695 149.933 166.486 149.933C167.85 149.933 168.501 150.849 168.501 152.172L168.501 166.989L170.008 166.989L170.008 152.152C170.008 150.157 168.705 148.508 166.486 148.508Z" fill="#463174" fill-rule="nonzero" opacity="1" stroke="none"/>
</g>
</g>
</svg>
