<?xml version="1.0" encoding="UTF-8" standalone="no"?><!DOCTYPE svg PUBLIC "-//W3C//DTD SVG 1.1//EN" "http://www.w3.org/Graphics/SVG/1.1/DTD/svg11.dtd"><svg width="100%" height="100%" viewBox="0 0 1042 834" version="1.1" xmlns="http://www.w3.org/2000/svg" xmlns:xlink="http://www.w3.org/1999/xlink" xml:space="preserve" xmlns:serif="http://www.serif.com/" style="fill-rule:evenodd;clip-rule:evenodd;stroke-linejoin:round;stroke-miterlimit:2;"><path d="M187.415,398.331c-2.112,-3.889 -5.139,-6.861 -9.084,-8.917c-3.944,-2.055 -8.583,-3.083 -13.916,-3.083c-9.223,0 -16.612,3.028 -22.167,9.083c-5.556,6.056 -8.333,14.139 -8.333,24.25c0,10.778 2.916,19.195 8.75,25.25c5.833,6.056 13.861,9.084 24.083,9.084c7,0 12.917,-1.778 17.75,-5.334c4.833,-3.555 8.361,-8.666 10.583,-15.333l-36.166,0l0,-21l62,0l0,26.5c-2.112,7.111 -5.695,13.722 -10.75,19.833c-5.056,6.112 -11.473,11.056 -19.25,14.834c-7.778,3.778 -16.556,5.666 -26.334,5.666c-11.555,0 -21.861,-2.527 -30.916,-7.583c-9.056,-5.055 -16.112,-12.083 -21.167,-21.083c-5.056,-9 -7.583,-19.278 -7.583,-30.834c0,-11.555 2.527,-21.861 7.583,-30.916c5.055,-9.056 12.083,-16.111 21.083,-21.167c9,-5.055 19.278,-7.583 30.834,-7.583c14,0 25.805,3.389 35.416,10.166c9.611,6.778 15.972,16.167 19.084,28.167l-31.5,0Z" style="fill:#463174;fill-rule:nonzero;"/><path d="M264.748,361.331l0,70c0,7 1.722,12.389 5.167,16.167c3.444,3.778 8.5,5.666 15.166,5.666c6.667,0 11.778,-1.888 15.334,-5.666c3.555,-3.778 5.333,-9.167 5.333,-16.167l0,-70l28.5,0l0,69.833c0,10.445 -2.222,19.278 -6.667,26.5c-4.444,7.223 -10.416,12.667 -17.916,16.334c-7.5,3.666 -15.862,5.5 -25.084,5.5c-9.222,0 -17.472,-1.806 -24.75,-5.417c-7.278,-3.611 -13.028,-9.055 -17.25,-16.333c-4.222,-7.278 -6.333,-16.139 -6.333,-26.584l0,-69.833l28.5,0Z" style="fill:#463174;fill-rule:nonzero;"/><path d="M427.581,361.331l0,79.667c0,12.333 -3.472,21.833 -10.416,28.5c-6.945,6.666 -16.306,10 -28.084,10c-12.333,0 -22.222,-3.5 -29.666,-10.5c-7.445,-7 -11.167,-16.945 -11.167,-29.834l28.333,0c0,4.889 1,8.584 3,11.084c2,2.5 4.889,3.75 8.667,3.75c3.444,0 6.111,-1.111 8,-3.334c1.889,-2.222 2.833,-5.444 2.833,-9.666l0,-79.667l28.5,0Z" style="fill:#463174;fill-rule:nonzero;"/><path d="M523.415,457.664l-43.667,0l-7,20.667l-29.833,0l42.333,-117l33,0l42.333,117l-30.166,0l-7,-20.667Zm-7.334,-22l-14.5,-42.833l-14.333,42.833l28.833,0Z" style="fill:#463174;fill-rule:nonzero;"/><path d="M633.081,478.331l-24.333,-44.167l-6.833,0l0,44.167l-28.5,0l0,-117l47.833,0c9.222,0 17.083,1.611 23.583,4.833c6.5,3.223 11.361,7.639 14.584,13.25c3.222,5.612 4.833,11.862 4.833,18.75c0,7.778 -2.195,14.723 -6.583,20.834c-4.389,6.111 -10.862,10.444 -19.417,13l27,46.333l-32.167,0Zm-31.166,-64.333l17.666,0c5.222,0 9.139,-1.278 11.75,-3.834c2.611,-2.555 3.917,-6.166 3.917,-10.833c0,-4.444 -1.306,-7.944 -3.917,-10.5c-2.611,-2.555 -6.528,-3.833 -11.75,-3.833l-17.666,0l0,29Z" style="fill:#463174;fill-rule:nonzero;"/><path d="M754.915,457.664l-43.667,0l-7,20.667l-29.833,0l42.333,-117l33,0l42.333,117l-30.166,0l-7,-20.667Zm-7.334,-22l-14.5,-42.833l-14.333,42.833l28.833,0Z" style="fill:#463174;fill-rule:nonzero;"/><path d="M889.081,361.331l0,22.833l-31,0l0,94.167l-28.5,0l0,-94.167l-31,0l0,-22.833l90.5,0Z" style="fill:#463174;fill-rule:nonzero;"/><rect x="903.415" y="361.331" width="28.5" height="117" style="fill:#463174;fill-rule:nonzero;"/></svg>