<?xml version="1.0" encoding="UTF-8" standalone="no"?><!DOCTYPE svg PUBLIC "-//W3C//DTD SVG 1.1//EN" "http://www.w3.org/Graphics/SVG/1.1/DTD/svg11.dtd"><svg width="100%" height="100%" viewBox="0 0 4467 1117" version="1.1" xmlns="http://www.w3.org/2000/svg" xmlns:xlink="http://www.w3.org/1999/xlink" xml:space="preserve" xmlns:serif="http://www.serif.com/" style="fill-rule:evenodd;clip-rule:evenodd;"><g id="g10"><g id="g12"><g id="g14"><g id="g20"><path id="path22" d="M1802.66,772.763c0,-9.445 -6.156,-16.434 -18.739,-19.156l0,-6.111c6.966,0 30.166,0.933 36.694,0.933c5.645,0 28.111,-0.933 35.1,-0.933l0,6.111c-11.678,2.278 -17.811,9.172 -17.811,19.156l0,119.894c0,37.967 20.85,59.428 64.461,59.428c37.578,0 66.817,-16.872 66.817,-56.606l0,-123.183c0,-8.906 -5.595,-15.967 -19.672,-18.689l0,-6.111c5.122,0 24.305,0.933 30.855,0.933c5.595,0 25.728,-0.933 30.878,-0.933l0,6.111c-13.583,3.239 -19.622,9.317 -19.622,18.689l0,116.578c0,52.322 -30.439,82.372 -96.123,82.372c-61.15,0 -92.838,-27.795 -92.838,-76.95l0,-121.533Z" style="fill:#1d1d1b;fill-rule:nonzero;"/></g><g id="g24"><path id="path26" d="M2064.97,961.846c14.228,-2.65 19.844,-9.855 19.844,-18.688l0,-165.712c0,-14.055 -7.483,-20.377 -20.239,-23.861l0,-6.111c7.217,0.539 19.328,0.856 25.511,0.856c5.617,0 14.35,-0.095 20.234,-0.856l143.733,169l0,-144.178c0,-8.883 -5.639,-15.944 -19.667,-18.711l0,-6.111c5.15,0 23.645,0.956 30.217,0.956c5.717,0 25.533,-0.956 30.756,-0.956l0,6.111c-13.711,3.234 -20.328,9.367 -20.328,18.711l0,198.945l-8.661,0c-5.45,-1.25 -15.75,-7.111 -31.445,-24.328l-128.6,-149.794l0,146.039c0,8.877 5.123,15.916 19.156,18.688l0,6.134c-5.15,0 -23.645,-0.978 -30.217,-0.978c-5.666,0 -25.072,0.978 -30.294,0.978l0,-6.134Z" style="fill:#1d1d1b;fill-rule:nonzero;"/></g><g id="g28"><path id="path30" d="M3199.14,917.158l6.083,0c3.217,12.383 10.3,23.672 20.233,30.195c10.334,7.283 26.545,10.766 39.639,10.766c28.917,0 47.245,-14.322 47.245,-36.989c0,-23.472 -23.478,-35.661 -51.606,-49.716c-20.928,-10.473 -62.033,-27.761 -62.033,-67.5c0,-37.017 28.233,-60.045 73.389,-60.045c29.8,0 43.783,7.284 63.894,6.35l-0.389,44.911l-6.139,0c-8.044,-26.466 -32.077,-35.689 -58.4,-35.689c-29.433,0 -40.444,16.834 -40.444,33.95c0,24.506 23.983,36.862 51.161,48.984c30.567,13.611 63.728,30.805 63.728,69.094c0,36.25 -28.356,62.5 -80.184,62.5c-30.833,0 -49.327,-8.805 -65.538,-10.8l-0.639,-46.011Z" style="fill:#1d1d1b;fill-rule:nonzero;"/></g><g id="g32"><path id="path34" d="M3816.82,876.761l-58.522,-93.889c-9.983,-16.483 -17.633,-25.172 -28.772,-29.289l0,-6.089c8.022,0 29.683,0.961 35.833,0.961c5.567,0 28.945,-0.961 37.384,-0.961l0,6.089c-7.484,1.322 -10.989,5.072 -10.989,10.717c0,4.978 3.389,11.383 6.794,16.95c3.339,5.516 43.15,71.55 43.15,71.55l41.567,-71.522c4.2,-7.167 7.166,-14.278 7.166,-18.967c0,-4.267 -3.022,-7.8 -10.105,-8.728l0,-6.089c7.039,0 21.828,0.961 26.539,0.961c4.711,0 21.705,-0.961 28.694,-0.961l0,5.672c-15.989,6.55 -25.972,20.578 -35.661,36.839l-53.2,88.917m3.628,-11.211l0,75.005c0,7.434 5.667,16.778 18.467,19.128l0,6.139c-7.134,0 -30.434,-0.983 -37.178,-0.983c-5.667,0 -28.017,0.983 -36.084,0.983l0,-6.139c12.85,-2.35 19.012,-11.694 19.012,-19.128l0,-71.716" style="fill:#1d1d1b;fill-rule:nonzero;"/></g><g id="g36"><path id="path38" d="M2729.38,747.496l137.233,0c4.245,0 11.678,-0.488 15.917,-2.327l6.139,0l-0.961,44.589l-6.084,0c-5.222,-14.028 -10.644,-25.262 -37.205,-25.262l-59.584,0l0,77.706l45.923,0c6.694,0 14.811,-0.567 18.322,-1.4c10.322,-2.256 14.866,-8 16.95,-16.8l6.128,0c-0.439,6.717 -0.439,22.05 -0.439,26.589c0,4.561 0.439,20.7 0.439,28.011l-6.128,0c-2.95,-8.783 -6.967,-15.456 -16.95,-17.906c-3.511,-0.933 -11.772,-1.694 -18.322,-1.694l-45.923,0l0,91.15l64.806,0c28.305,0 36.528,-11.8 43.561,-28.478l6.061,1.417l-6.061,45.8c-21.044,-1.867 -33.672,-1.867 -57.567,-1.867l-68.477,0c-6.6,0 -30.812,0.961 -37.85,0.961l0,-6.111c12.361,-2.355 19.577,-8.466 19.577,-20.311l0,-168.578c0,-10.45 -5.622,-16.977 -19.505,-19.305l0,-6.184Z" style="fill:#1d1d1b;fill-rule:nonzero;"/></g><g id="g40"><path id="path42" d="M2378.87,774.184c0,-11.306 -6.745,-17.534 -19.967,-20.384l0,-6.055c7.361,0 31.183,0.928 38.122,0.928c5.811,0 30.295,-0.928 37.75,-0.928l0,6.055c-13.15,2.85 -20.044,8.484 -20.044,20.384l0,167.405c0,11.306 6.772,17.461 20.044,20.256l0,6.139c-7.433,0 -30.911,-0.961 -37.75,-0.961c-5.916,0 -30.761,0.961 -38.144,0.961l0,-6.139c13.517,-2.522 19.989,-8.434 19.989,-20.256l0,-167.405Z" style="fill:#1d1d1b;fill-rule:nonzero;"/></g><g id="g44"><path id="path46" d="M3419.91,774.184c0,-11.306 -6.823,-17.534 -20.017,-20.384l0,-6.055c7.361,0 31.2,0.928 38.089,0.928c5.866,0 30.344,-0.928 37.778,-0.928l0,6.055c-13.145,2.85 -20.017,8.484 -20.017,20.384l0,167.405c0,11.306 6.772,17.461 20.017,20.256l0,6.139c-7.384,0 -30.834,-0.961 -37.778,-0.961c-5.811,0 -30.728,0.961 -38.089,0.961l0,-6.139c13.489,-2.522 20.017,-8.434 20.017,-20.256l0,-167.405Z" style="fill:#1d1d1b;fill-rule:nonzero;"/></g><g id="g48"><path id="path50" d="M3610.66,748.43c-75.228,0 -87.267,-1.4 -102.65,-2.356l0.127,45.428l6.128,0c5.617,-20.139 16.828,-24.822 31.35,-24.822l47.189,0l0,174.911c0,11.817 -6.472,17.733 -20.011,20.255l0,6.139c7.428,0 32.494,-0.961 38.283,-0.961c6.895,0 30.445,0.961 37.778,0.961l0,-6.139c-13.3,-2.794 -20.039,-8.95 -20.039,-20.255l0,-174.911l46.817,0c15.061,0 25.833,5.128 31.444,24.822l6.061,0l0.1,-45.428c-15.283,0.956 -27.322,2.356 -102.577,2.356" style="fill:#1d1d1b;fill-rule:nonzero;"/></g><g id="g52"><path id="path54" d="M3010.37,941.588c0,11.306 7.183,17.439 20.455,20.256l0,6.139c-7.361,0 -31.422,-0.962 -38.289,-0.962c-5.888,0 -29.383,0.962 -36.788,0.962l0,-6.139c12.311,-2.35 19.566,-8.434 19.566,-20.256l0,-169.117c0,-10.4 -5.661,-16.95 -19.516,-19.305l0,-6.083c7.355,0 30.627,0.927 37.205,0.927c10.772,0 41.378,-1.811 53.422,-1.811c52.734,0 82.095,21.806 82.095,59.184c0,29.383 -21.856,49.255 -55.511,57.372c0,0 7.683,4.461 15.333,13.366c9.3,10.962 34.411,47 44.833,59.6c10.406,12.639 23.723,26.739 37.995,27.378l0,4.928c-6.839,1.494 -17.806,2.8 -26.195,2.8c-17.905,0 -32.2,-6.328 -46.083,-23.128c-12.017,-14.622 -32.4,-44.961 -44.4,-60.294c-7.672,-9.761 -16.972,-17.389 -33.994,-20.189c-3.289,-0.561 -6.4,-1.028 -10.128,-1.467l0,75.839Zm0,-89.872c7.016,0.955 17.339,1.4 27.544,1.4c41.284,0 54.284,-23.745 54.284,-44.761c0,-29.728 -19.85,-48.15 -55.978,-48.15c-7.478,0 -18.322,0.933 -25.85,2.35l0,89.161Z" style="fill:#1d1d1b;fill-rule:nonzero;"/></g><g id="g56"><path id="path58" d="M2487.66,774.895c-4.806,-10.645 -12.189,-18.445 -24.773,-21.211l0,-6.211c7.823,0 34.928,0.983 40.884,0.983c5.478,0 29.166,-0.983 37.216,-0.983l0,6.033c-7.144,1.372 -15.283,5.322 -15.283,12.633c0,5.222 3.161,12.339 9.222,25.734l56.806,129.255l53.767,-129.478c4.244,-10.45 7.311,-18.544 7.311,-24.727c0,-6.839 -6.306,-11.578 -15.239,-13.417l0,-6.033c7.144,0 24.655,0.983 30.1,0.983c4.978,0 25.533,-0.983 33.383,-0.983l0,6.211c-13.417,3.627 -21.589,11.011 -29.117,28.5l-79.127,186.577l-17.906,0l-87.244,-193.866Z" style="fill:#1d1d1b;fill-rule:nonzero;"/></g><g id="g60"><path id="path62" d="M2690.53,186.472c-9.145,-20.189 -23.178,-34.906 -46.945,-40.178l0,-11.75c14.789,0 63.895,1.767 75.178,1.767c10.4,0 57.961,-1.767 73.117,-1.767l0,11.456c-13.445,2.628 -28.895,10.133 -28.895,23.989c0,9.783 6.084,23.305 17.367,48.639l107.75,244.961l101.961,-245.378c7.95,-19.867 13.883,-35.05 13.883,-46.8c0,-13.05 -12.066,-21.9 -28.966,-25.411l0,-11.456c13.489,0 46.283,1.767 56.705,1.767c9.472,0 48.422,-1.767 63.239,-1.767l0,11.089c-25.411,6.895 -40.961,21.489 -55.117,54.622l-149.888,353.673l-33.923,0l-165.466,-367.456Z" style="fill:#1d1d1b;fill-rule:nonzero;"/></g><g id="g64"><path id="path66" d="M1239.63,540.46c19.572,-4.467 33.333,-13.367 33.333,-35.539l0,-324.239c0,-21.289 -12.805,-30.122 -33.333,-35.467l0,-11.505c10.278,0 54.55,1.744 65.317,1.744c12.411,0 58.816,-1.744 69.022,-1.744l0,11.505c-19.55,4.439 -34.045,13.317 -34.045,35.467l0,135.444l241.55,0l0,-135.444c0,-22.15 -12.877,-31.028 -33.283,-35.467l0,-11.505c10.2,0 55.778,1.744 68.161,1.744c10.695,0 56,-1.744 66.1,-1.744l0,11.505c-19.567,4.439 -34.067,13.317 -34.067,35.467l0,324.239c0,21.289 13.612,30.217 34.067,35.539l0,10.616c-10.1,0 -55.405,-0.877 -66.1,-0.877c-12.383,0 -57.961,0.877 -68.161,0.877l0,-10.616c19.428,-4.467 33.283,-13.367 33.283,-35.539l0,-153.233l-241.55,0l0,153.233c0,22.172 13.589,30.217 34.045,35.539l0,10.616c-10.206,0 -56.611,-0.877 -69.022,-0.877c-10.767,0 -55.039,0.877 -65.317,0.877l0,-10.616Z" style="fill:#1d1d1b;fill-rule:nonzero;"/></g><g id="g68"><path id="path70" d="M4033.6,540.46c25.067,-4.467 38.878,-14.422 38.878,-37.306l0,-322.472c0,-22.222 -13.617,-31.028 -37.845,-35.467l0,-11.505c13.95,0 59.378,1.744 71.961,1.744c20.311,0 76.967,-4.439 121.073,-4.439c148.588,0 238.8,82.978 238.8,209.15c0,122.639 -93.867,213.517 -247.073,213.517c-44.172,0 -96.561,-3.483 -117.066,-3.483c-12.461,0 -54.823,1.761 -68.728,1.761l0,-11.5Zm105.789,-21.367c15.133,2.75 43.094,4.467 65.144,4.467c124.822,0 189.8,-75.128 189.8,-179.911c0,-108.634 -68.555,-185.067 -185.261,-185.067c-23.844,0 -53.639,1.789 -69.683,4.394l0,356.117Z" style="fill:#1d1d1b;fill-rule:nonzero;"/></g><g id="g72"><path id="path74" d="M2351.7,501.975c0,21.489 13.611,33.161 38.656,38.484l0,11.505c-13.956,0 -59.406,-1.766 -72.478,-1.766c-11.039,0 -55.633,1.766 -69.561,1.766l0,-11.505c23.25,-4.461 36.961,-16.039 36.961,-38.484l0,-320.161c0,-19.7 -10.644,-32.155 -36.917,-36.6l0,-11.505c13.961,0 58.011,1.744 70.373,1.744c20.433,0 78.372,-3.405 101.227,-3.405c99.928,0 155.556,41.327 155.556,112.016c0,55.728 -41.5,93.228 -105.195,108.706c0,0 14.445,8.416 28.984,25.361c17.639,20.728 66.305,90.389 85.978,114.25c19.666,23.894 44.905,50.578 71.888,51.805l0,9.4c-12.927,2.789 -33.627,5.173 -49.45,5.173c-34.066,0 -61.122,-11.923 -87.438,-43.811c-22.689,-27.667 -62.378,-86.484 -85.117,-115.523c-14.517,-18.5 -32.028,-32.916 -64.183,-38.239c-6.334,-1.083 -12.289,-1.916 -19.284,-2.7l0,143.489Zm0,-170.05c13.222,1.739 32.767,2.623 52.15,2.623c78.145,0 102.695,-44.984 102.695,-84.723c0,-56.433 -37.578,-91.244 -106.034,-91.244c-14.105,0 -34.655,1.794 -48.811,4.394l0,168.95Z" style="fill:#1d1d1b;fill-rule:nonzero;"/></g><g id="g76"><path id="path78" d="M3668.75,501.975c0,21.489 13.662,33.161 38.734,38.484l0,11.505c-13.934,0 -59.339,-1.766 -72.411,-1.766c-11.234,0 -55.678,1.766 -69.661,1.766l0,-11.505c23.205,-4.461 36.944,-16.039 36.944,-38.484l0,-320.161c0,-19.7 -10.744,-32.155 -36.867,-36.6l0,-11.505c14.006,0 57.911,1.744 70.373,1.744c20.477,0 78.383,-3.405 101.1,-3.405c100.1,0 155.555,41.327 155.555,112.016c0,55.728 -41.4,93.228 -105.144,108.706c0,0 14.516,8.416 28.939,25.361c17.805,20.728 66.466,90.389 86.066,114.25c19.745,23.894 44.984,50.578 71.817,51.805l0,9.4c-12.75,2.789 -33.572,5.173 -49.228,5.173c-34.139,0 -61.317,-11.923 -87.567,-43.811c-22.688,-27.667 -62.25,-86.484 -85.183,-115.523c-14.522,-18.5 -31.978,-32.916 -64.067,-38.239c-6.422,-1.083 -12.316,-1.916 -19.4,-2.7l0,143.489Zm0,-170.05c13.389,1.739 32.817,2.623 52.217,2.623c78.178,0 102.656,-44.984 102.656,-84.723c0,-56.433 -37.606,-91.244 -105.934,-91.244c-14.233,0 -34.689,1.794 -48.939,4.394l0,168.95Z" style="fill:#1d1d1b;fill-rule:nonzero;"/></g><g id="g80"><path id="path82" d="M1746,540.384c26.439,-6.178 40.961,-23.3 50.6,-46.211l133.778,-321.878c5.689,-13.317 12.311,-40.695 12.311,-40.695l37.433,0c0,0 6.695,27.45 12.261,40.795l141.378,322.661c10.084,22.222 20.995,38.267 49.106,45.328l-0.072,10.722c-15.306,0 -62.889,-0.883 -73.712,-0.883c-10.766,0 -56.216,0.883 -71.494,0.883l0.05,-10.722c20.578,-5.05 27.078,-15.523 27.078,-25.656c0,-8.605 -3.556,-18.322 -7.872,-28.4l-30.395,-69.322l-155.778,0l-27.833,69.711c-3.117,7.9 -6.822,19.061 -6.822,26.589c0,11.628 6.083,20.9 29.433,27.078l-0.05,10.722c-13.833,0 -50.355,-0.883 -58.911,-0.883l-60.511,0.883l0.022,-10.722Zm266.35,-156.245l-66.522,-154.989l-61.956,154.989l128.478,0Z" style="fill:#1d1d1b;fill-rule:nonzero;"/></g><g id="g84"><path id="path86" d="M3071.32,540.384c26.422,-6.178 40.989,-23.3 50.578,-46.211l133.822,-321.878c5.695,-13.317 12.389,-40.695 12.389,-40.695l37.428,0c0,0 6.628,27.45 12.172,40.795l141.428,322.661c10,22.222 21.016,38.267 49.005,45.328l-0.05,10.722c-15.255,0 -62.889,-0.883 -73.783,-0.883c-10.667,0 -56.094,0.883 -71.4,0.883l0,-10.722c20.706,-5.05 27.106,-15.523 27.106,-25.656c0,-8.605 -3.512,-18.322 -7.75,-28.4l-30.512,-69.322l-155.783,0l-27.861,69.711c-3.117,7.9 -6.794,19.061 -6.794,26.589c0,11.628 6.083,20.9 29.433,27.078l0,10.722c-13.883,0 -50.35,-0.883 -58.961,-0.883l-60.517,0.883l0.05,-10.722Zm266.35,-156.245l-66.567,-154.989l-61.911,154.989l128.478,0Z" style="fill:#1d1d1b;fill-rule:nonzero;"/></g><g id="g88"><path id="path90" d="M4.546,3.568l932.75,0l0,352.344c0,161.439 -60.094,503.8 -462.894,758.6c0,0 -436.45,-182.272 -469.856,-758.6l0,-352.344Z" style="fill:#a81d28;fill-rule:nonzero;"/></g><g id="g92"><path id="path94" d="M2.634,2.634l933.656,0l0,352.589c0,161.495 -60.167,504.045 -463.334,759.017c0,0 -436.866,-182.389 -470.322,-759.017l0,-352.589Z" style="fill:none;fill-rule:nonzero;stroke:#12110c;stroke-width:1.28px;"/></g><g id="g96"><path id="path98" d="M710.534,456.329c0,0 -8.317,26.511 -45.3,-0.739l-126.984,-3.066c0,0 -16.627,5.35 -18.889,-12.045c0,0 3.045,-34.75 1.5,-37.794c0,0 0.762,-9.811 -15.922,-9.811c0,0 -25.655,3.016 -26.416,-19.695c0,0 -4.484,-24.183 31.005,-23.378c0,0 11.333,5.273 12.095,-9.122c0,0 -1.495,-98.283 -0.762,-105.789c0,0 3.039,-9.027 -14.377,-10.572c0,0 -24.917,5.272 -27.961,-11.305c0,0 -1.495,-24.945 15.161,-26.489c0,0 20.383,1.544 24.155,-3.778c0,0 4.567,2.989 3.784,-15.061l0.783,-31.056c0,0 2.183,-8.289 15.061,-7.478c0,0 23.444,1.495 26.511,-0.811c0,0 5.228,-6.766 6.772,-9.839c0,0 12.117,-0.733 14.35,2.306c0,0 18.15,12.094 86.923,7.533c0,0 10.6,0 12.805,3.045c0,0 12.9,9.805 20.433,-0.739c0,0 11.334,-2.306 45.328,-1.495c0,0 37.084,9.784 62.717,-11.383l8.339,1.522c0,0 10.572,17.339 18.128,12.095c0,0 22.688,-2.234 26.438,2.278c0,0 7.534,11.261 3.778,40.838c0,0 -4.483,12.806 17.417,12.806c0,0 24.972,-4.561 21.9,18.861c0,0 6.794,26.467 -34.728,22.711c0,0 -5.322,7.556 -4.589,12.856c0,0 -0.733,86.116 -1.494,96c0,0 -0.739,13.616 17.366,12.828c0,0 24.212,-1.567 25.017,20.383c0,0 2.995,28.722 -31.811,23.4c0,0 -10.572,1.544 -12.144,8.339l-1.417,37.794c0,0 0.705,18.889 -20.411,14.328c-3.017,0 -117.884,2.333 -127.739,-0.683c0,0 -5.35,-0.761 -6.822,2.205" style="fill:#fff;fill-rule:nonzero;"/></g><g id="g100"><path id="path102" d="M466.409,582.648c0,0 5.3,-2.234 6.795,-5.962c0,0 15.894,-1.55 18.122,-3.8l49.917,3.8c0,0 49.105,3.728 70.272,-11.455c0,0 7.605,0 12.9,2.305c0,0 10.522,2.306 13.539,6.773l28.75,-0.761c0,0 16.627,5.344 15.083,15.938l0,13.567c0,0 -3.039,27.228 4.517,28.772l21.972,0c0,0 18.155,8.295 15.872,18.861c0,0 0.761,15.062 -15.083,18.128c0,0 -15.945,4.511 -21.172,3.8c0,0 -5.323,6.772 -6.106,15.084l-2.206,99.022c0,0 -1.544,10.572 14.35,9.072c0,0 23.373,-2.278 30.217,10.622c0,0 6.056,21.878 -6.033,25.656l-9.05,4.489l-19.7,3.144c0,0 -8.261,0.683 -9.05,15.033l0,26.412c0,0 0.789,18.205 -13.611,18.205l-21.167,1.517c0,0 -5.278,4.466 -15.844,1.45c0,0 -128.506,2.328 -133.045,0.789l-15.128,3.061c0,0 -16.611,15.111 -30.222,3.728l-10.572,-8.317c0,0 -7.578,1.528 -10.545,0.739c-3.038,-0.739 -142.116,1.544 -142.116,1.544c0,0 -29.484,3.067 -31.717,-6.816c0,0 -3.772,-38.512 -2.278,-43.123c0,0 0,-11.283 -6.794,-12.016c0,0 -29.483,-1.523 -30.245,-4.589c0,0 -15.894,-11.278 -11.355,-22.595c0,0 5.322,-15.177 21.167,-16.677c0,0 24.183,3.827 24.183,-2.989c0,0 1.55,-4.539 1.55,-12.067c0,0 1.494,-89.994 0.733,-96.028c0,0 2.256,-11.333 -7.578,-11.333c0,0 -10.572,2.994 -17.344,-1.517c0,0 -18.15,0.761 -21.928,-13.616c0,0 -3.039,-9.05 1.472,-16.678c0,0 8.345,-16.606 32.528,-11.289c0,0 13.611,3.805 15.106,-5.983l-0.711,-36.35c0,0 -3.067,-9.784 15.844,-15.062c0,0 24.183,6.773 31.717,-5.294c0,0 8.339,-16.683 15.061,-5.344c0,0 14.422,13.638 53.717,12.188c0,0 68.038,-5.344 69.533,-2.377c0,0 16.633,2.377 21.144,7.6l4.539,0.739Z" style="fill:#fff;fill-rule:nonzero;"/></g><g id="g104"><path id="path106" d="M260.938,456.329c0,0 -8.339,26.511 -45.373,-0.761l-126.961,-3.044c0,0 -16.628,5.35 -18.911,-12.061c0,0 3.045,-34.734 1.472,-37.778c0,0 0.811,-9.861 -15.844,-9.861c0,0 -25.656,3.089 -26.395,-19.595c0,0 -4.561,-24.261 30.956,-23.428c0,0 11.283,5.273 12.094,-9.094c0,0 -1.522,-98.239 -0.811,-105.839c0,0 3.089,-8.978 -14.3,-10.528c0,0 -24.972,5.25 -27.939,-11.377c0,0 -1.544,-24.895 15.062,-26.439c0,0 20.411,1.544 24.211,-3.684c0,0 4.539,2.923 3.777,-15.233l0.762,-30.95c0,0 2.277,-8.317 15.055,-7.556c0,0 23.5,1.495 26.539,-0.761c0,0 5.278,-6.766 6.722,-9.839c0,0 12.167,-0.711 14.422,2.234c0,0 18.1,12.166 86.95,7.605c0,0 10.523,0 12.806,3.045c0,0 12.828,9.805 20.383,-0.789c0,0 11.334,-2.256 45.373,-1.495c0,0 36.966,9.812 62.7,-11.311l8.288,1.55c0,0 10.573,17.317 18.2,12.045c0,0 22.639,-2.284 26.439,2.278c0,0 7.578,11.333 3.728,40.838c0,0 -4.489,12.828 17.417,12.828c0,0 24.916,-4.489 21.928,18.839c0,0 6.816,26.467 -34.756,22.711c0,0 -5.322,7.578 -4.589,12.856c0,0 -0.733,86.116 -1.472,96c0,0 -0.733,13.516 17.394,12.828c0,0 24.184,-1.595 24.917,20.411c0,0 3.017,28.694 -31.717,23.372c0,0 -10.594,1.567 -12.139,8.339l-1.472,37.778c0,0 0.761,18.905 -20.455,14.394c-3.017,0 -117.828,2.233 -127.695,-0.733c0,0 -5.272,-0.761 -6.766,2.205" style="fill:#fff;fill-rule:nonzero;"/></g><g id="g108"><path id="path110" d="M710.534,456.329c0,0 -8.317,26.511 -45.3,-0.739l-126.984,-3.066c0,0 -16.627,5.35 -18.889,-12.045c0,0 3.045,-34.75 1.5,-37.794c0,0 0.762,-9.811 -15.922,-9.811c0,0 -25.655,3.016 -26.416,-19.695c0,0 -4.484,-24.183 31.005,-23.378c0,0 11.333,5.273 12.095,-9.122c0,0 -1.495,-98.283 -0.762,-105.789c0,0 3.039,-9.027 -14.377,-10.572c0,0 -24.917,5.272 -27.961,-11.305c0,0 -1.495,-24.945 15.161,-26.489c0,0 20.383,1.544 24.155,-3.778c0,0 4.567,2.989 3.784,-15.061l0.783,-31.056c0,0 2.183,-8.289 15.061,-7.478c0,0 23.444,1.495 26.511,-0.811c0,0 5.228,-6.766 6.772,-9.839c0,0 12.117,-0.733 14.35,2.306c0,0 18.15,12.094 86.923,7.533c0,0 10.6,0 12.805,3.045c0,0 12.9,9.805 20.433,-0.739c0,0 11.334,-2.306 45.328,-1.495c0,0 37.084,9.784 62.717,-11.383l8.339,1.522c0,0 10.572,17.339 18.128,12.095c0,0 22.688,-2.234 26.438,2.278c0,0 7.534,11.261 3.778,40.838c0,0 -4.483,12.806 17.417,12.806c0,0 24.972,-4.561 21.9,18.861c0,0 6.794,26.467 -34.728,22.711c0,0 -5.322,7.556 -4.589,12.856c0,0 -0.733,86.116 -1.494,96c0,0 -0.739,13.616 17.366,12.828c0,0 24.212,-1.567 25.017,20.383c0,0 2.995,28.722 -31.811,23.4c0,0 -10.572,1.544 -12.144,8.339l-1.417,37.794c0,0 0.705,18.889 -20.411,14.328c-3.017,0 -117.884,2.333 -127.739,-0.683c0,0 -5.35,-0.761 -6.822,2.205" style="fill:#12110c;fill-rule:nonzero;"/></g><g id="g112"><path id="path114" d="M710.534,456.351c0,0 -8.317,26.517 -45.3,-0.733l-127.011,-3.067c0,0 -16.628,5.344 -18.884,-12.067c0,0 3.067,-34.755 1.495,-37.8c0,0 0.761,-9.811 -15.895,-9.811c0,0 -25.678,3.045 -26.439,-19.672c0,0 -4.489,-24.183 31,-23.4c0,0 11.334,5.278 12.095,-9.095c0,0 -1.495,-98.288 -0.761,-105.816c0,0 3.066,-9.05 -14.35,-10.572c0,0 -24.945,5.277 -27.984,-11.306c0,0 -1.472,-24.972 15.156,-26.489c0,0 20.383,1.517 24.167,-3.778c0,0 4.583,2.989 3.772,-15.089l0.811,-31.05c0,0 2.155,-8.288 15.083,-7.477c0,0 23.422,1.494 26.467,-0.811c0,0 5.228,-6.745 6.794,-9.817c0,0 12.095,-0.756 14.35,2.289c0,0 18.128,12.089 86.923,7.528c0,0 10.6,0 12.805,3.038c0,0 12.9,9.812 20.433,-0.733c0,0 11.334,-2.305 45.328,-1.494c0,0 37.084,9.783 62.739,-11.384l8.345,1.495c0,0 10.566,17.366 18.1,12.116c0,0 22.688,-2.227 26.438,2.256c0,0 7.556,11.311 3.806,40.839c0,0 -4.511,12.855 17.411,12.855c0,0 24.95,-4.561 21.878,18.839c0,0 6.794,26.489 -34.728,22.711c0,0 -5.3,7.556 -4.561,12.878c0,0 -0.739,86.117 -1.5,95.978c0,0 -0.761,13.611 17.367,12.878c0,0 24.233,-1.572 25.016,20.355c0,0 2.973,28.723 -31.811,23.4c0,0 -10.572,1.573 -12.139,8.339l-1.444,37.8c0,0 0.705,18.911 -20.383,14.35c-3.017,0 -117.912,2.306 -127.767,-0.711c0,0 -5.35,-0.739 -6.822,2.228Z" style="fill:none;fill-rule:nonzero;stroke:#12110c;stroke-width:0.06px;"/></g><g id="g116"><path id="path118" d="M567.709,144.946c0,0 1.494,15.134 1.494,18.962c0,3.75 -2.228,218.372 -2.228,218.372c0,0 2.228,16.628 -12.072,24.966c0,0 -3.828,1.473 -4.539,-9.1l1.478,-226.661c0,0 1.517,-28.039 15.867,-26.539" style="fill:#fff;fill-rule:nonzero;"/></g><g id="g120"><path id="path122" d="M567.733,144.922c0,0 1.472,15.133 1.472,18.961c0,3.772 -2.205,218.422 -2.205,218.422c0,0 2.205,16.628 -12.095,24.939c0,0 -3.827,1.5 -4.589,-9.072l1.523,-226.711c0,0 1.494,-28.039 15.894,-26.539Z" style="fill:none;fill-rule:nonzero;stroke:#12110c;stroke-width:0.07px;"/></g><g id="g124"><path id="path126" d="M542.787,409.481c0,0 1.5,-213.122 0.789,-216.9c-0.789,-3.728 0.711,3.089 0.711,3.089c0,0 -2.261,-37.089 7.578,-52.245c0,0 -3.067,-12.777 -20.434,3.067l-0.761,30.95c0,0 0,17.417 -15.844,16.656c0,0 -18.15,-0.784 -26.467,7.533c0,0 -4.533,16.65 12.828,13.661c0,0 27.228,0 28.75,11.256l-1.522,114.155c0,0 6.055,18.983 -15.084,18.983c0,0 -25.777,-1.616 -24.972,14.256c0,0 5.322,13.583 27.228,9.094c0,0 15.844,2.967 15.083,18.15l0,28.7c0,0 -1.522,11.406 13.617,12.117l117.9,0c0,0 6.011,0.733 6.011,-6.822c0,0 -0.733,-6.028 -9.789,-6.028l-98.233,-1.522c0,0 -15.889,5.322 -17.389,-18.15" style="fill:#fff;fill-rule:nonzero;"/></g><g id="g128"><path id="path130" d="M565.476,409.136c0,0 -3.039,10.573 8.289,8.362l77.855,0l21.117,4.588c0,0 21.906,-5.344 0,-17.416c0,0 -69.511,0.689 -75.544,-0.784c0,0 -14.373,-3.755 -17.467,-4.511c0,0 -7.478,-3.016 -14.25,9.761" style="fill:#fff;fill-rule:nonzero;"/></g><g id="g132"><path id="path134" d="M565.451,409.136c0,0 -3.038,10.595 8.289,8.389l77.878,0l21.122,4.584c0,0 21.923,-5.367 0,-17.461c0,0 -69.516,0.683 -75.577,-0.762c0,0 -14.367,-3.777 -17.434,-4.538c0,0 -7.505,-3.017 -14.278,9.788Z" style="fill:none;fill-rule:nonzero;stroke:#12110c;stroke-width:0.07px;"/></g><g id="g136"><path id="path138" d="M694.664,419.733c0,0 -14.35,0 -13.611,18.933c0,0 1.517,14.3 16.628,14.3c0,0 13.561,-2.228 12.117,-17.339c0,0 -8.339,-18.889 -15.134,-15.894" style="fill:#fff;fill-rule:nonzero;"/></g><g id="g140"><path id="path142" d="M705.26,412.202c0,0 6.794,-7.528 11.355,-7.528c0,0 75.573,6.767 88.328,-2.283c0,0 11.406,-2.256 14.445,0c0,0 11.311,9.05 11.311,14.35c0,0 -0.739,6.839 -14.35,2.967c0,0 -85.406,0.833 -89.945,0.833c0,0 -23.472,5.25 -21.144,-8.339" style="fill:#fff;fill-rule:nonzero;"/></g><g id="g144"><path id="path146" d="M705.235,412.202c0,0 6.795,-7.556 11.356,-7.556c0,0 75.594,6.773 88.378,-2.283c0,0 11.4,-2.255 14.444,0c0,0 11.306,9.056 11.306,14.4c0,0 -0.734,6.845 -14.35,2.967c0,0 -85.45,0.833 -89.989,0.833c0,0 -23.472,5.25 -21.145,-8.361Z" style="fill:none;fill-rule:nonzero;stroke:#12110c;stroke-width:0.07px;"/></g><g id="g148"><path id="path150" d="M715.071,436.705c0,0 0,-6.111 10.595,-6.111l105.767,-0.733c0,0 9.861,5.3 9.861,-12.806c0,0 3.872,-82.383 4.216,-173.089c0.123,-27.005 1.35,-55.333 0.395,-81.583c0,0 -2.356,-11.355 -5.395,-13.661c0,0 0,-12.067 12.873,-7.528c0,0 11.333,0.761 8.316,18.2l0.784,26.339c0,0 -2.278,11.406 18.077,8.345c0,0 20.384,3.061 21.195,10.566c0,0 6.033,15.184 -18.106,13.639l-17.461,0c0,0 -7.528,4.517 -5.272,13.617l-2.256,109.611c0,0 -1.522,18.861 16.628,18.15c0,0 18.861,-0.783 22.661,5.278c0,0 12.928,18.883 -15.083,17.366c0,0 -17.389,-0.789 -21.167,2.278c0,0 -3.039,3.75 -5.3,39.317c0,0 1.545,21.166 -14.35,18.839c0,0 -105.072,1.494 -114.883,-0.734c0,0 -10.572,3.061 -12.095,-5.3" style="fill:#fff;fill-rule:nonzero;"/></g><g id="g152"><path id="path154" d="M579.064,138.078l-2.284,242.678c0,0 -0.733,11.261 18.156,13.539c0,0 21.9,2.255 27.15,0c0,0 14.45,-0.784 51.411,0.761c0,0 9.122,9.15 9.883,-2.278c0,0 5.984,-196.422 3.045,-237.333c0,0 -0.834,-17.367 -13.639,-18.128c0,0 -57.445,4.639 -62.739,0l-22.689,-5.983c0,0 -9.078,0.733 -8.294,6.744" style="fill:#fff;fill-rule:nonzero;"/></g><g id="g156"><path id="path158" d="M698.443,150.22c0,0 -2.255,114.128 -1.5,117.906l-1.494,95.955l-3.067,33.284c0,0 4.561,6.789 8.344,2.278c0,0 24.184,-6.134 39.289,-3.75c0,0 48.423,4.488 58.206,-3.117c0,0 7.578,3.778 9.789,-8.317c0,0 2.989,-211.55 1.594,-215.328c0,0 2.917,-30.316 1.395,-33.261c0,0 -0.661,-6.794 -13.539,-0.783c0,0 1.472,6.083 -70.272,3.728c0,0 -27.2,-0.739 -28.745,11.405" style="fill:#fff;fill-rule:nonzero;"/></g><g id="g160"><path id="path162" d="M818.653,147.228l-0.734,238.778c0,0 6.034,21.239 15.845,19.011c0,0 1.472,-4.589 2.205,-12.144l3.067,-227.517c0,0 -7.606,-36.206 -20.383,-18.128" style="fill:#fff;fill-rule:nonzero;"/></g><g id="g164"><path id="path166" d="M818.628,147.204l-0.733,238.827c0,0 6.055,21.245 15.866,19.012c0,0 1.5,-4.589 2.234,-12.145l3.039,-227.567c0,0 -7.6,-36.205 -20.406,-18.127Z" style="fill:none;fill-rule:nonzero;stroke:#12110c;stroke-width:0.07px;"/></g><g id="g168"><path id="path170" d="M725.838,218.726c-2.255,-6.033 12.85,-6.795 12.85,-6.795l7.583,1.495c5.3,-0.733 10.595,1.544 10.595,1.544c5.278,8.295 -3.8,12.806 -3.8,12.806l-3.017,9.861c-0.783,8.339 0,80.133 0,80.133c1.522,3.728 7.556,10.5 7.556,10.5c0,6.839 -8.339,5.345 -8.339,5.345l-21.883,0.761c-6.817,-0.761 -4.562,-8.345 -4.562,-8.345c7.556,-3.772 9.839,-17.411 9.839,-17.411l0,-74.783l-6.822,-15.111Z" style="fill:#12110c;fill-rule:nonzero;"/></g><g id="g172"><path id="path174" d="M623.828,289.022l-1.494,23.422l6.744,11.311c4.589,6.034 -2.994,10.623 -2.994,10.623l-24.184,-2.262c-4.489,-2.327 0,-9.861 0,-9.861c6.061,-3.722 6.817,-13.611 6.817,-13.611l-0.756,-43.828l0.756,-31.738c0,-3.806 -6.033,-10.55 -6.033,-10.55c-5.273,-0.762 -3.778,-7.556 -3.778,-7.556c1.5,-3.8 14.3,-1.544 14.3,-1.544l31.789,0c30.244,9.838 25.705,31.761 25.705,31.761c2.284,21.883 -21.144,31.005 -21.144,31.005l-1.567,12.095l21.95,34.705c3.778,3.039 3.045,6.106 3.045,6.106c-3.045,8.316 -15.161,0 -15.161,0l-27.173,-42.356c-2.283,-3.044 -6.822,2.278 -6.822,2.278m0.761,-59.75c0.734,16.678 0.734,39.344 0.734,39.344c14.4,11.356 22.666,-4.561 22.666,-4.561c18.861,-18.105 0,-34.783 -2.994,-39.272c-3.067,-4.561 -18.172,-0.783 -18.172,-0.783l-2.234,5.272Z" style="fill:#12110c;fill-rule:nonzero;"/></g><g id="g176"><path id="path178" d="M466.409,582.648c0,0 5.3,-2.234 6.795,-5.962c0,0 15.894,-1.55 18.122,-3.8l49.917,3.8c0,0 49.105,3.728 70.272,-11.455c0,0 7.605,0 12.9,2.305c0,0 10.522,2.306 13.539,6.773l28.75,-0.761c0,0 16.627,5.344 15.083,15.938l0,13.567c0,0 -3.039,27.228 4.517,28.772l21.972,0c0,0 18.155,8.295 15.872,18.861c0,0 0.761,15.062 -15.083,18.128c0,0 -15.945,4.511 -21.172,3.8c0,0 -5.323,6.772 -6.106,15.084l-2.206,99.022c0,0 -1.544,10.572 14.35,9.072c0,0 23.373,-2.278 30.217,10.622c0,0 6.056,21.878 -6.033,25.656l-9.05,4.489l-19.7,3.144c0,0 -8.261,0.683 -9.05,15.033l0,26.412c0,0 0.789,18.205 -13.611,18.205l-21.167,1.517c0,0 -5.278,4.466 -15.844,1.45c0,0 -128.506,2.328 -133.045,0.789l-15.128,3.061c0,0 -16.611,15.111 -30.222,3.728l-10.572,-8.317c0,0 -7.578,1.528 -10.545,0.739c-3.038,-0.739 -142.116,1.544 -142.116,1.544c0,0 -29.484,3.067 -31.717,-6.816c0,0 -3.772,-38.512 -2.278,-43.123c0,0 0,-11.283 -6.794,-12.016c0,0 -29.483,-1.523 -30.245,-4.589c0,0 -15.894,-11.278 -11.355,-22.595c0,0 5.322,-15.177 21.167,-16.677c0,0 24.183,3.827 24.183,-2.989c0,0 1.55,-4.539 1.55,-12.067c0,0 1.494,-89.994 0.733,-96.028c0,0 2.256,-11.333 -7.578,-11.333c0,0 -10.572,2.994 -17.344,-1.517c0,0 -18.15,0.761 -21.928,-13.616c0,0 -3.039,-9.05 1.472,-16.678c0,0 8.345,-16.606 32.528,-11.289c0,0 13.611,3.805 15.106,-5.983l-0.711,-36.35c0,0 -3.067,-9.784 15.844,-15.062c0,0 24.183,6.773 31.717,-5.294c0,0 8.339,-16.683 15.061,-5.344c0,0 14.422,13.638 53.717,12.188c0,0 68.038,-5.344 69.533,-2.377c0,0 16.633,2.377 21.144,7.6l4.539,0.739Z" style="fill:#12110c;fill-rule:nonzero;"/></g><g id="g180"><path id="path182" d="M466.409,581.714c0,0 5.245,-2.205 6.795,-5.983c0,0 15.866,-1.545 18.122,-3.806l49.894,3.806c0,0 49.128,3.778 70.295,-11.406c0,0 7.605,0 12.9,2.306c0,0 10.55,2.278 13.516,6.744l28.795,-0.739c0,0 16.605,5.35 15.061,15.917l0,13.595c0,0 -3.017,27.222 4.539,28.722l21.95,0c0,0 18.128,8.339 15.894,18.911c0,0 0.761,15.061 -15.105,18.128c0,0 -15.917,4.511 -21.145,3.772c0,0 -5.322,6.794 -6.133,15.111l-2.233,99.044c0,0 -1.517,10.523 14.35,9.05c0,0 23.4,-2.227 30.266,10.595c0,0 6.061,21.905 -6.033,25.705l-9.072,4.517l-19.7,3.067c0,0 -8.289,0.733 -9.022,15.033l0,26.517c0,0 0.733,18.122 -13.617,18.122l-21.167,1.522c0,0 -5.3,4.517 -15.866,1.5c0,0 -128.506,2.278 -133.045,0.711l-15.155,3.061c0,0 -16.584,15.134 -30.195,3.728l-10.594,-8.316c0,0 -7.556,1.527 -10.545,0.816c-3.044,-0.816 -142.094,1.517 -142.094,1.517c0,0 -29.506,3.044 -31.761,-6.817c0,0 -3.756,-38.561 -2.261,-43.122c0,0 0,-11.283 -6.817,-12.044c0,0 -29.456,-1.495 -30.239,-4.539c0,0 -15.872,-11.35 -11.339,-22.661c0,0 5.322,-15.156 21.195,-16.684c0,0 24.161,3.884 24.161,-3.016c0,0 1.544,-4.512 1.544,-12.017c0,0 1.495,-89.989 0.761,-96.028c0,0 2.256,-11.378 -7.605,-11.378c0,0 -10.567,3.017 -17.367,-1.472c0,0 -18.122,0.739 -21.9,-13.611c0,0 -3.067,-9.05 1.494,-16.656c0,0 8.295,-16.633 32.5,-11.333c0,0 13.612,3.828 15.134,-5.983l-0.761,-36.328c0,0 -3.039,-9.783 15.872,-15.106c0,0 24.183,6.817 31.739,-5.277c0,0 8.289,-16.65 15.061,-5.367c0,0 14.422,13.639 53.689,12.189c0,0 68.066,-5.35 69.539,-2.356c0,0 16.655,2.356 21.166,7.628l4.539,0.711Z" style="fill:none;fill-rule:nonzero;stroke:#12110c;stroke-width:0.06px;"/></g><g id="g184"><path id="path186" d="M486.054,879.68c0,0 9.1,-4.589 15.161,-3.017c6.056,1.5 94.456,-0.739 94.456,-0.739c0,0 38.533,2.995 44.617,-2.355l9,-2.989c0,0 3.8,-4.511 3.8,-10.522c0,-6.106 0.761,-26.517 0.761,-26.517l2.305,-7.5c0,0 -0.783,-7.561 0,-209.4c0,0 2.967,-15.795 -6.866,-25.678c0,0 0,-5.989 3.016,-5.272c3.067,0.811 1.545,0.811 1.545,0.811c0,0 13.589,-3.856 15.822,1.439c0,0 6.105,18.078 0.783,28.7c0,0 -1.522,21.95 9.911,21.95c0,0 4.461,4.567 13.539,2.261c0,0 19.645,2.306 19.645,8.289c0,0 0,13.661 -13.611,11.383l-18.173,1.467c0,0 -12.094,2.333 -10.55,16.639c1.545,14.366 -0.761,117.161 -0.761,117.161c0,0 0,12.144 18.939,11.383c0,0 23.4,-0.783 23.4,5.984c0,0 6.028,15.111 -10.572,15.9c0,0 -31.767,-0.789 -29.461,8.261c0,0 -2.306,21.216 -3.828,24.944c0,0 3.094,17.417 -0.756,20.461c0,0 -2.233,9.784 -22.616,8.289c0,0 -129.972,-0.739 -150.406,0.761c0,0 -12.116,-1.5 -9.1,-12.094" style="fill:#fff;fill-rule:nonzero;"/></g><g id="g188"><path id="path190" d="M462.679,865.33c0,0 12.828,2.233 12.828,14.35c0,12.066 0.761,18.883 -6.839,20.383c-7.533,1.517 -15.822,-0.711 -18.055,-10.528c-2.328,-9.855 1.444,-21.972 12.066,-24.205" style="fill:#fff;fill-rule:nonzero;"/></g><g id="g192"><path id="path194" d="M477.764,859.296c0,0 13.589,-9.127 18.884,-7.55c0,0 68.755,4.484 89.972,0.778c21.139,-3.8 8.289,-0.778 8.289,-0.778c0,0 18.155,0 23.4,-6.85c0,0 5.322,-1.45 8.339,3.828l11.283,12.139c0,0 0.855,7.483 -12.045,6.722c0,0 -123.227,0 -126.955,0.761c0,0 -23.422,3.728 -21.167,-9.05" style="fill:#fff;fill-rule:nonzero;"/></g><g id="g196"><path id="path198" d="M477.74,859.296c0,0 13.589,-9.127 18.883,-7.577c0,0 68.806,4.511 89.995,0.805c21.172,-3.822 8.288,-0.805 8.288,-0.805c0,0 18.178,0 23.428,-6.873c0,0 5.3,-1.416 8.339,3.856l11.283,12.161c0,0 0.834,7.511 -12.044,6.722c0,0 -123.228,0 -127.006,0.789c0,0 -23.422,3.728 -21.166,-9.078Z" style="fill:none;fill-rule:nonzero;stroke:#12110c;stroke-width:0.07px;"/></g><g id="g200"><path id="path202" d="M298.663,590.986c0,0 5.3,0 4.533,9.078l-1.539,228.227c0,0 2.306,15.156 -10.55,24.945c0,0 -6.844,8.289 -6.844,-4.511l3.088,-232.795c0,0 0.717,-17.394 11.312,-24.944" style="fill:#fff;fill-rule:nonzero;"/></g><g id="g204"><path id="path206" d="M298.663,590.964c0,0 5.3,0 4.583,9.072l-1.589,228.284c0,0 2.306,15.155 -10.572,24.944c0,0 -6.872,8.289 -6.872,-4.516l3.094,-232.817c0,0 0.733,-17.417 11.356,-24.967Z" style="fill:none;fill-rule:nonzero;stroke:#12110c;stroke-width:0.07px;"/></g><g id="g208"><path id="path210" d="M286.57,592.505c0,0 -9.078,16.656 -8.317,20.461l-0.761,50.573c0,0 -0.761,32.5 0,36.3c0.761,3.755 -0.761,99 -0.761,99c0,0 -0.756,18.094 0,24.177l0,40.795c0,0 -1.517,18.172 12.072,13.561c0,0 133.039,-2.989 141.378,-0.689c0,0 12.044,2.239 7.578,8.295c0,0 0,5.327 -8.389,3.777c0,0 -62.717,6.006 -119.378,3.778c0,0 -37.794,2.228 -40.1,-2.228c0,0 -6.011,-0.766 -6.011,-22.716c0,0 0,-20.356 -1.472,-24.139c0,0 1.472,-10.717 -17.411,-12.9c0,0 -26.445,4.561 -27.206,-11.306c0,0 3.756,-11.333 29.483,-9.861c0,0 18.889,3.039 15.134,-12.117l2.233,-111.777c0,0 2.328,-19.739 -10.572,-20.528c0,0 -12.045,-0.611 -15.895,0.789c0,0 -21.9,0 -20.383,-12.756c0,0 7.556,-13.639 29.483,-10.6c0,0 16.606,3 17.367,-15.844c0,0 -0.761,-38.578 8.289,-40.05c0,0 18.939,0.683 13.639,6.005" style="fill:#fff;fill-rule:nonzero;"/></g><g id="g212"><path id="path214" d="M309.21,842.641c0,0 10.594,11.283 28.011,10.622l102.694,1.472c0,0 11.411,0.806 10.695,6.789c0,0 -1.617,9.056 -15.156,6.039l-123.966,-1.494l-13.634,0.827c0,0 -9.078,-1.566 5.345,-18.933l6.011,-5.322Z" style="fill:#fff;fill-rule:nonzero;"/></g><g id="g216"><path id="path218" d="M309.183,842.619c0,0 10.6,11.306 28.038,10.617l102.723,1.5c0,0 11.377,0.783 10.694,6.789c0,0 -1.594,9.078 -15.133,6.089l-124.039,-1.5l-13.639,0.783c0,0 -9.05,-1.539 5.344,-18.956l6.012,-5.322Z" style="fill:none;fill-rule:nonzero;stroke:#12110c;stroke-width:0.07px;"/></g><g id="g220"><path id="path222" d="M626.649,832.756c0,0 9.072,17.417 13.611,19.794c0,0 8.317,9.739 6.061,-7.627l1.495,-217.684c0,0 -2.283,-7.578 0,-19.622l-9.05,-16.633c0,0 -9.861,-7.55 -9.861,4.516l-1.495,232.056l-0.761,5.2Z" style="fill:#fff;fill-rule:nonzero;"/></g><g id="g224"><path id="path226" d="M626.625,832.783c0,0 9.1,17.389 13.661,19.795c0,0 8.317,9.761 6.061,-7.65l1.494,-217.739c0,0 -2.283,-7.528 0,-19.573l-9.072,-16.65c0,0 -9.889,-7.533 -9.889,4.534l-1.494,232.078l-0.761,5.205Z" style="fill:none;fill-rule:nonzero;stroke:#12110c;stroke-width:0.07px;"/></g><g id="g228"><path id="path230" d="M458.879,729.273c0,0 0.761,18.077 -1.545,35.422c-1.228,9.589 3.061,53.739 -0.761,76.378c0,0 -0.689,7.577 -16.633,0.811c0,0 -96.711,2.227 -99.728,-0.811c0,0 -26.439,0.811 -28.722,-12.828c0,0 3.778,-103.534 1.522,-107.384c0,0 -1.522,-56.661 0,-61.933c0,0 2.256,-52.144 0.761,-58.183c0,0 0.761,-12.095 -1.522,-18.172c0,0 0,-7.556 12.878,-3.039c0,0 4.466,8.339 29.433,4.633c0,0 18.172,2.994 35.567,0.711c0,0 38.505,-3.017 48.366,0c0,0 15.134,-3.017 19.595,13.661l-0.756,46.822l4.511,15.112l5.323,-3.756l2.233,-11.356l0.761,-49.888c0,0 3.017,-9.1 15.156,-10.595c0,0 18.888,-2.305 21.955,-0.711c3.017,1.45 43.756,3.706 55.161,1.45c11.306,-2.261 13.539,7.55 47.611,-9.789c0,0 9.073,0.761 9.073,6.745c0,0 -3.089,64.338 0,76.355c0,0 0,117.883 -2.356,126.2l1.544,37.789c0,0 1.5,16.639 -24.894,18.156c0,0 16.633,2.277 -87.733,-0.739c0,0 -16.606,-0.778 -34.734,7.511c0,0 -3.777,-0.739 -3.777,-10.55c0,0 2.994,-35.489 0,-70.322l-1.467,-38.528l-6.822,0.828Z" style="fill:#fff;fill-rule:nonzero;"/></g><g id="g232"><path id="path234" d="M390.836,675.654c0,0 2.284,55.906 0,63.456l-0.711,12.122c0,0 2.995,8.261 7.534,11.328c0,0 3.8,10.544 -5.3,9.811c0,0 -18.861,-1.522 -23.4,-0.806c0,0 -10.623,0 0,-13.522c0,0 3.777,-5.372 2.994,-18.933c0,0 0,-63.456 1.545,-67.206c0,0 1.494,-8.366 -3.806,-10.644l-9.1,0.783l-11.283,10.572c0,0 -2.306,11.384 -7.6,-0.711l0,-6.105l6.844,-18.128l4.539,-0.789c0,0 6.767,4.544 12.8,6.111l35.567,0l12.827,-6.111c0,0 5.273,0.789 3.828,7.583c0,0 2.206,17.439 -7.605,19.65c0,0 -6.056,-2.211 -9.05,-10.577c0,0 -9.834,-5.245 -10.623,12.116" style="fill:#12110c;fill-rule:nonzero;"/></g><g id="g236"><path id="path238" d="M557.848,655.249c0,0 -28.672,-2.283 -29.383,28.695c0,0 -3.117,21.216 28.672,34.833c0,0 23.45,11.283 21.878,25.633c0,0 -3.017,25.706 -27.961,12.873c0,0 -12.067,-6.084 -11.261,-12.873c0,0 -3.845,-8.339 -8.362,-6.8c0,0 -5.322,1.478 -2.966,26.445c0,0 0,9.833 11.328,0l5.961,1.544c0,0 20.433,16.628 37.777,-3.822c0,0 18.934,-17.367 5.295,-38.511c0,0 -9.811,-15.061 -27.172,-22.639c0,0 -16.634,-7.628 -20.384,-20.461c0,0 5.295,-22.711 25.656,-10.617c0,0 7.578,9.078 12.089,10.617c0,0 6.061,0 4.516,-13.661l-1.427,-11.256c0,0 -1.517,-8.416 -12.139,0c0,0 -9.834,3.728 -12.117,0" style="fill:#12110c;fill-rule:nonzero;"/></g><g id="g240"><path id="path242" d="M465.671,639.331c5.273,3.85 6.034,11.384 6.034,11.384c15.111,40.028 27.989,98.278 27.989,98.278c3.75,7.483 10.572,13.566 10.572,13.566c12.85,4.511 0,8.267 0,8.267c-5.3,2.305 -22.639,-0.689 -22.639,-0.689c-9.128,-1.617 -5.372,-4.561 -5.372,-4.561c3.822,-3.778 0.783,-18.939 0.783,-18.939c-0.783,-5.983 -7.528,-15.839 -7.528,-15.839c-3.016,-1.528 -8.316,5.272 -8.316,5.272c0,0 -8.289,3.039 -9.1,0c-0.761,-3.072 -6.034,-5.933 -6.034,-5.933c-9.077,0 -12.827,22.533 -12.827,22.533c5.272,18.917 0,15.85 0,15.85c-4.512,6.111 -18.912,1.617 -18.912,1.617c-6.794,-1.617 -2.211,-6.889 -2.211,-6.889c8.267,-1.45 10.523,-10.578 10.523,-10.578c3.805,-5.272 27.938,-103.5 27.938,-103.5c2.334,-4.566 3.8,-13.616 9.1,-9.839m-12.038,49.867c-0.789,3.8 -6.112,24.967 -6.112,24.967l4.539,7.628c0,0 12.117,0.688 16.628,0.688c4.489,0 5.3,-3.705 5.3,-7.561c0,-3.744 -8.317,-26.411 -8.317,-26.411l-3.822,-4.539l-8.216,5.228Z" style="fill:#12110c;fill-rule:nonzero;"/></g><g id="g244"><path id="path246" d="M260.938,456.329c0,0 -8.339,26.511 -45.373,-0.761l-126.961,-3.044c0,0 -16.628,5.35 -18.911,-12.061c0,0 3.045,-34.734 1.472,-37.778c0,0 0.811,-9.861 -15.844,-9.861c0,0 -25.656,3.089 -26.395,-19.595c0,0 -4.561,-24.261 30.956,-23.428c0,0 11.283,5.273 12.094,-9.094c0,0 -1.522,-98.239 -0.811,-105.839c0,0 3.089,-8.978 -14.3,-10.528c0,0 -24.972,5.25 -27.939,-11.377c0,0 -1.544,-24.895 15.062,-26.439c0,0 20.411,1.544 24.211,-3.684c0,0 4.539,2.923 3.777,-15.233l0.762,-30.95c0,0 2.277,-8.317 15.055,-7.556c0,0 23.5,1.495 26.539,-0.761c0,0 5.278,-6.766 6.722,-9.839c0,0 12.167,-0.711 14.422,2.234c0,0 18.1,12.166 86.95,7.605c0,0 10.523,0 12.806,3.045c0,0 12.828,9.805 20.383,-0.789c0,0 11.334,-2.256 45.373,-1.495c0,0 36.966,9.812 62.7,-11.311l8.288,1.55c0,0 10.573,17.317 18.2,12.045c0,0 22.639,-2.284 26.439,2.278c0,0 7.578,11.333 3.728,40.838c0,0 -4.489,12.828 17.417,12.828c0,0 24.916,-4.489 21.928,18.839c0,0 6.816,26.467 -34.756,22.711c0,0 -5.322,7.578 -4.589,12.856c0,0 -0.733,86.116 -1.472,96c0,0 -0.733,13.516 17.394,12.828c0,0 24.184,-1.595 24.917,20.411c0,0 3.017,28.694 -31.717,23.372c0,0 -10.594,1.567 -12.139,8.339l-1.472,37.778c0,0 0.761,18.905 -20.455,14.394c-3.017,0 -117.828,2.233 -127.695,-0.733c0,0 -5.272,-0.761 -6.766,2.205" style="fill:#12110c;fill-rule:nonzero;"/></g><g id="g248"><path id="path250" d="M260.938,456.351c0,0 -8.339,26.517 -45.373,-0.761l-126.983,-3.039c0,0 -16.633,5.344 -18.911,-12.089c0,0 3.067,-34.733 1.494,-37.778c0,0 0.784,-9.833 -15.872,-9.833c0,0 -25.655,3.089 -26.389,-19.6c0,0 -4.539,-24.283 30.978,-23.45c0,0 11.283,5.278 12.067,-9.072c0,0 -1.523,-98.284 -0.784,-105.861c0,0 3.089,-9.006 -14.322,-10.528c0,0 -24.972,5.255 -27.939,-11.4c0,0 -1.544,-24.9 15.084,-26.417c0,0 20.383,1.517 24.211,-3.728c0,0 4.539,2.967 3.75,-15.189l0.789,-30.977c0,0 2.255,-8.311 15.055,-7.528c0,0 23.478,1.472 26.517,-0.783c0,0 5.3,-6.745 6.744,-9.817c0,0 12.139,-0.733 14.422,2.233c0,0 18.078,12.145 86.95,7.584c0,0 10.523,0 12.806,3.038c0,0 12.828,9.812 20.383,-0.783c0,0 11.356,-2.255 45.373,-1.472c0,0 36.994,9.761 62.7,-11.333l8.311,1.544c0,0 10.572,17.317 18.177,12.044c0,0 22.639,-2.255 26.489,2.256c0,0 7.528,11.361 3.706,40.839c0,0 -4.517,12.878 17.389,12.878c0,0 24.966,-4.534 21.928,18.816c0,0 6.816,26.489 -34.734,22.711c0,0 -5.344,7.578 -4.583,12.878c0,0 -0.761,86.117 -1.472,95.978c0,0 -0.761,13.561 17.366,12.878c0,0 24.184,-1.622 24.945,20.405c0,0 2.989,28.673 -31.745,23.35c0,0 -10.566,1.595 -12.111,8.339l-1.5,37.778c0,0 0.811,18.933 -20.428,14.417c-3.016,0 -117.855,2.211 -127.722,-0.756c0,0 -5.272,-0.739 -6.766,2.228Z" style="fill:none;fill-rule:nonzero;stroke:#12110c;stroke-width:0.06px;"/></g><g id="g252"><path id="path254" d="M118.085,144.995c0,0 1.523,15.084 1.523,18.861c0,3.778 -2.306,218.423 -2.306,218.423c0,0 2.306,16.677 -12.089,24.944c0,0 -3.755,1.545 -4.539,-9.028l1.545,-226.733c0,0 1.494,-27.989 15.866,-26.467" style="fill:#fff;fill-rule:nonzero;"/></g><g id="g256"><path id="path258" d="M118.113,144.971c0,0 1.516,15.083 1.516,18.861c0,3.778 -2.305,218.444 -2.305,218.444c0,0 2.305,16.678 -12.111,24.995c0,0 -3.756,1.522 -4.539,-9.05l1.494,-226.761c0,0 1.522,-27.989 15.945,-26.489Z" style="fill:none;fill-rule:nonzero;stroke:#12110c;stroke-width:0.07px;"/></g><g id="g260"><path id="path262" d="M93.143,409.481c0,0 1.472,-213.122 0.761,-216.928c-0.761,-3.728 0.711,3.067 0.711,3.067c0,0 -2.206,-36.989 7.6,-52.145c0,0 -3.039,-12.855 -20.428,2.989l-0.689,31.006c0,0 0,17.389 -15.917,16.628c0,0 -18.15,-0.784 -26.488,7.583c0,0 -4.517,16.6 12.827,13.611c0,0 27.25,0 28.745,11.256l-1.495,114.155c0,0 6.056,18.889 -15.133,18.889c0,0 -25.683,-1.45 -24.944,14.422c0,0 5.294,13.611 27.25,9.05c0,0 15.844,3.039 15.155,18.078l0,28.794c0,0 -1.594,11.356 13.517,12.045l117.928,0c0,0 6.038,0.755 6.038,-6.822c0,0 -0.766,-5.961 -9.788,-5.961l-98.212,-1.567c0,0 -15.966,5.3 -17.438,-18.15" style="fill:#fff;fill-rule:nonzero;"/></g><g id="g264"><path id="path266" d="M113.55,411.025c0,0 -2.995,10.622 8.289,8.289l77.85,0l21.166,4.516c0,0 21.978,-5.277 0,-17.394c0,0 -69.533,0.811 -75.594,-0.711c0,0 -14.322,-3.772 -17.361,-4.539c0,0 -7.578,-2.989 -14.35,9.839" style="fill:#fff;fill-rule:nonzero;"/></g><g id="g268"><path id="path270" d="M113.525,411c0,0 -2.994,10.667 8.289,8.289l77.878,0l21.194,4.561c0,0 21.973,-5.272 0,-17.411c0,0 -69.566,0.806 -75.622,-0.761c0,0 -14.35,-3.755 -17.389,-4.489c0,0 -7.583,-3.016 -14.35,9.811Z" style="fill:none;fill-rule:nonzero;stroke:#12110c;stroke-width:0.07px;"/></g><g id="g272"><path id="path274" d="M242.811,421.645c0,0 -14.394,0 -13.638,18.789c0,0 1.522,14.444 16.605,14.444c0,0 13.617,-2.35 12.145,-17.389c0,0 -8.345,-18.933 -15.112,-15.844" style="fill:#fff;fill-rule:nonzero;"/></g><g id="g276"><path id="path278" d="M253.358,414.017c0,0 6.772,-7.556 11.356,-7.556c0,0 75.55,6.823 88.4,-2.233c0,0 11.377,-2.255 14.35,0c0,0 11.333,9.056 11.333,14.328c0,0 -0.739,6.867 -14.306,3.089c0,0 -85.477,0.711 -89.966,0.711c0,0 -23.45,5.272 -21.167,-8.339" style="fill:#fff;fill-rule:nonzero;"/></g><g id="g280"><path id="path282" d="M253.334,414.017c0,0 6.795,-7.578 11.356,-7.578c0,0 75.572,6.845 88.422,-2.211c0,0 11.406,-2.278 14.372,0c0,0 11.334,9.056 11.334,14.35c0,0 -0.734,6.872 -14.3,3.067c0,0 -85.478,0.739 -90.017,0.739c0,0 -23.45,5.272 -21.167,-8.367Z" style="fill:none;fill-rule:nonzero;stroke:#12110c;stroke-width:0.07px;"/></g><g id="g284"><path id="path286" d="M265.451,436.705c0,0 0,-6.011 10.523,-6.011l105.889,-0.783c0,0 9.783,5.222 9.783,-12.856c0,0 3.878,-82.411 4.222,-173.116c0.145,-26.978 1.322,-55.306 0.295,-81.556c0,0 -2.256,-11.305 -5.273,-13.639c0,0 0,-12.089 12.9,-7.505c0,0 11.256,0.716 8.261,18.077l0.739,26.467c0,0 -2.255,11.333 18.15,8.317c0,0 20.384,3.016 21.117,10.572c0,0 6.111,15.156 -18.05,13.611l-17.367,0c0,0 -7.577,4.517 -5.322,13.617l-2.255,109.561c0,0 -1.573,18.889 16.627,18.2c0,0 18.889,-0.783 22.617,5.25c0,0 12.9,18.911 -15.083,17.394c0,0 -17.395,-0.789 -21.173,2.228c0,0 -2.988,3.85 -5.272,39.322c0,0 1.495,21.167 -14.372,18.884c0,0 -105.056,1.472 -114.839,-0.761c0,0 -10.622,3.044 -12.117,-5.273" style="fill:#fff;fill-rule:nonzero;"/></g><g id="g288"><path id="path290" d="M129.37,138.127l-2.205,242.628c0,0 -0.761,11.261 18.122,13.539c0,0 21.956,2.283 27.206,0c0,0 14.322,-0.734 51.383,0.789c0,0 9.078,9.022 9.811,-2.256c0,0 6.061,-196.544 3.039,-237.333c0,0 -0.733,-17.367 -13.633,-18.128c0,0 -57.395,4.517 -62.695,0l-22.639,-6.061c0,0 -9.122,0.716 -8.389,6.822" style="fill:#fff;fill-rule:nonzero;"/></g><g id="g292"><path id="path294" d="M368.959,147.204l-0.739,238.85c0,0 6.061,21.222 15.923,18.961c0,0 1.494,-4.561 2.233,-12.167l3.067,-227.517c0,0 -7.584,-36.283 -20.484,-18.127" style="fill:#fff;fill-rule:nonzero;stroke:#12110c;stroke-width:0.07px;"/></g><g id="g296"><path id="path298" d="M368.959,147.204l-0.739,238.85c0,0 6.061,21.222 15.923,18.961c0,0 1.494,-4.561 2.233,-12.167l3.067,-227.517c0,0 -7.584,-36.283 -20.484,-18.127Z" style="fill:none;fill-rule:nonzero;stroke:#12110c;stroke-width:0.07px;"/></g><g id="g300"><path id="path302" d="M248.869,149.238c0,0 -2.278,114.106 -1.567,117.933l-1.428,96l-3.061,33.162c0,0 4.489,6.894 8.289,2.327c0,0 24.211,-6.011 39.317,-3.772c0,0 48.394,4.561 58.183,-3.022c0,0 7.556,3.755 9.833,-8.339c0,0 2.995,-211.578 1.495,-215.378c0,0 3.044,-30.194 1.5,-33.183c0,0 -0.761,-6.872 -13.539,-0.861c0,0 1.467,6.105 -70.3,3.85c0,0 -27.222,-0.784 -28.722,11.283" style="fill:#fff;fill-rule:nonzero;"/></g><g id="g304"><path id="path306" d="M225.518,219.144l-6.839,14.422c0,0 -16.561,73.267 -25.611,88.35c0,0 -1.522,15.161 -14.372,3.039c0,0 -29.506,-92.934 -31.006,-95.972l-9.833,-6.8c0,0 -5.961,-8.312 4.561,-9.05l27.961,0.738c0,0 9.05,7.528 -3.016,15.939c0,0 1.5,12.073 17.366,58.111c0,0 4.511,17.389 9.811,4.534l15.134,-53.667l-4.539,-15.867c0,0 -4.561,-7.555 2.283,-8.288c0,0 15.872,-1.5 18.1,4.511" style="fill:#12110c;fill-rule:nonzero;"/></g><g id="g308"><path id="path310" d="M269.399,231.259l-0.811,80.111l-2.206,6.033c0,0 -7.578,9.789 -2.306,10.572c0,0 -6.744,4.561 48.345,5.295c0,0 21.217,3.755 15.894,-23.445c0,0 -2.255,-9.816 -9.861,4.561c0,0 -2.255,12.039 -29.405,8.289c0,0 -6.061,-5.272 -6.061,-11.305l0,-33.284c0,0 -0.806,-8.344 12.066,-7.483c0,0 14.35,9.028 16.634,5.2c0,0 5.272,-12.044 0,-19.622c0,0 -6.823,-0.711 -7.556,2.305c0,0 -4.539,9.023 -17.389,3.728c0,0 -6.033,-12.066 -2.261,-21.905c0,0 -1.494,-18.906 11.361,-17.367c0,0 15.106,2.994 16.578,7.583c0,0 3.778,9.1 7.605,-1.494l-3.827,-12.906c0,0 -2.206,-5.3 -6.011,-3.777c0,0 -25.706,3.777 -28.767,0.711l-20.411,2.305c0,0 -2.989,7.578 6.111,11.311c0,0 2.278,1.545 2.278,4.584" style="fill:#12110c;fill-rule:nonzero;"/></g></g></g></g></svg>