<?xml version="1.0" encoding="UTF-8" standalone="no"?>
<!DOCTYPE svg PUBLIC "-//W3C//DTD SVG 1.1//EN" "http://www.w3.org/Graphics/SVG/1.1/DTD/svg11.dtd">
<!-- Created with Vectornator (http://vectornator.io/) -->
<svg height="100%" stroke-miterlimit="10" style="fill-rule:nonzero;clip-rule:evenodd;stroke-linecap:round;stroke-linejoin:round;" version="1.1" viewBox="173.051 122.552 47.9132 25.5402" width="100%" xml:space="preserve" xmlns="http://www.w3.org/2000/svg" xmlns:vectornator="http://vectornator.io" xmlns:xlink="http://www.w3.org/1999/xlink">
<defs/>
<clipPath id="ArtboardFrame">
<rect height="25.5402" width="47.9132" x="173.051" y="122.552"/>
</clipPath>
<g clip-path="url(#ArtboardFrame)" id="Layer" vectornator:layerName="Layer">
<g opacity="1" vectornator:layerName="Group 4">
<path d="M191.37 146.445C186.226 146.167 184.528 144.596 184.528 142.746C184.528 141.251 185.897 140.111 188.025 140.111C189.52 140.111 190.255 140.871 190.255 141.809C190.255 142.493 189.875 143.101 189.241 143.608L190.913 144.57C191.547 143.988 192.13 143.076 192.13 141.885C192.13 140.086 190.787 138.413 187.974 138.413C187.138 138.413 186.378 138.54 185.719 138.793C184.883 138.312 184.275 137.501 184.275 136.69C184.275 136.032 184.655 135.5 185.846 135.5L191.243 135.5L191.243 131.344L193.929 131.344L193.929 129.723L179.968 129.723L179.968 131.344L189.393 131.344L189.393 133.853L185.415 133.853C183.439 133.853 182.349 134.942 182.349 136.437C182.349 137.831 183.186 138.971 184.199 139.604C183.16 140.39 182.577 141.505 182.577 142.695C182.577 145.888 185.643 147.738 190.559 148.092L191.37 146.445Z" fill="#463174" fill-rule="nonzero" opacity="1" stroke="none"/>
<path d="M189.799 128.05L191.167 126.986C189.925 125.162 186.758 122.552 182.172 122.552C178.397 122.552 176.116 124.478 176.116 127.518L176.116 129.723L173.051 129.723L173.051 131.344L176.116 131.344L176.116 145.989L178.017 145.989L178.017 131.344L181.083 131.344L181.083 129.723L178.017 129.723L178.017 127.518C178.017 125.441 179.486 124.275 182.172 124.275C185.973 124.275 188.532 126.302 189.799 128.05Z" fill="#463174" fill-rule="nonzero" opacity="1" stroke="none"/>
<path d="M206.344 136.184L210.322 135.221L210.322 131.344L214.047 131.344L214.047 129.723L192.814 129.723L192.814 131.344L208.396 131.344L208.396 133.878L205.356 134.638C204.14 134.942 203.202 135.398 202.543 136.032L195.474 136.032L194.055 137.172C194.055 138.591 194.765 139.908 195.728 140.491L196.893 140.086L196.893 137.755L201.555 137.755C201.479 138.109 201.429 138.464 201.429 138.87C201.429 141.555 203.658 144.165 207.231 144.165C208.118 144.165 209.004 143.988 209.689 143.658L211.538 147.003L213.793 146.445L210.981 142.873C211.437 142.467 211.868 141.783 211.868 140.77C211.868 139.68 211.158 138.971 210.601 138.692L209.207 139.199L209.207 141.783C208.776 142.163 207.966 142.417 206.977 142.417C204.874 142.442 203.38 140.947 203.38 139.098C203.38 137.679 204.114 136.766 206.344 136.184Z" fill="#463174" fill-rule="nonzero" opacity="1" stroke="none"/>
<path d="M217.898 131.344L220.964 131.344L220.964 129.723L217.873 129.723C217.543 125.39 215.085 122.552 211.716 122.552C209.334 122.552 207.788 124.098 207.788 125.998C207.788 126.91 208.118 127.721 208.599 128.228L210.525 127.822C209.993 127.316 209.765 126.657 209.765 126.049C209.765 124.985 210.525 124.224 211.766 124.224C214.249 124.224 215.846 126.86 215.998 129.723L212.932 129.723L212.932 131.344L215.998 131.344L215.998 145.989L217.898 145.989L217.898 131.344Z" fill="#463174" fill-rule="nonzero" opacity="1" stroke="none"/>
</g>
</g>
</svg>
