<?xml version="1.0" encoding="UTF-8" standalone="no"?><!DOCTYPE svg PUBLIC "-//W3C//DTD SVG 1.1//EN" "http://www.w3.org/Graphics/SVG/1.1/DTD/svg11.dtd"><svg width="100%" height="100%" viewBox="0 0 1042 834" version="1.1" xmlns="http://www.w3.org/2000/svg" xmlns:xlink="http://www.w3.org/1999/xlink" xml:space="preserve" xmlns:serif="http://www.serif.com/" style="fill-rule:evenodd;clip-rule:evenodd;stroke-linejoin:round;stroke-miterlimit:2;"><path d="M383.956,354.414l0,131.625l-32.062,0l0,-54.187l-49.875,0l0,54.187l-32.063,0l0,-131.625l32.063,0l0,51.563l49.875,0l0,-51.563l32.062,0Z" style="fill:#463174;fill-rule:nonzero;"/><rect x="407.019" y="354.414" width="32.063" height="131.625" style="fill:#463174;fill-rule:nonzero;"/><path d="M580.081,486.039l-32.062,0l-53.625,-81.187l0,81.187l-32.063,0l0,-131.625l32.063,0l53.625,81.563l0,-81.563l32.062,0l0,131.625Z" style="fill:#463174;fill-rule:nonzero;"/><path d="M652.644,354.414c13.875,0 26,2.75 36.375,8.25c10.375,5.5 18.406,13.219 24.093,23.157c5.688,9.937 8.532,21.406 8.532,34.406c0,12.875 -2.844,24.312 -8.532,34.312c-5.687,10 -13.75,17.75 -24.187,23.25c-10.438,5.5 -22.531,8.25 -36.281,8.25l-49.313,0l0,-131.625l49.313,0Zm-2.063,103.875c12.125,0 21.563,-3.312 28.313,-9.937c6.75,-6.625 10.125,-16 10.125,-28.125c0,-12.125 -3.375,-21.563 -10.125,-28.313c-6.75,-6.75 -16.188,-10.125 -28.313,-10.125l-15.187,0l0,76.5l15.187,0Z" style="fill:#463174;fill-rule:nonzero;"/><rect x="739.644" y="354.414" width="32.063" height="131.625" style="fill:#463174;fill-rule:nonzero;"/></svg>