<?xml version="1.0" encoding="UTF-8" standalone="no"?><!DOCTYPE svg PUBLIC "-//W3C//DTD SVG 1.1//EN" "http://www.w3.org/Graphics/SVG/1.1/DTD/svg11.dtd"><svg width="100%" height="100%" viewBox="0 0 1042 834" version="1.1" xmlns="http://www.w3.org/2000/svg" xmlns:xlink="http://www.w3.org/1999/xlink" xml:space="preserve" xmlns:serif="http://www.serif.com/" style="fill-rule:evenodd;clip-rule:evenodd;stroke-linejoin:round;stroke-miterlimit:2;"><path d="M399.165,361.331l0,117l-28.5,0l0,-48.167l-44.334,0l0,48.167l-28.5,0l0,-117l28.5,0l0,45.833l44.334,0l0,-45.833l28.5,0Z" style="fill:#463174;fill-rule:nonzero;"/><rect x="419.665" y="361.331" width="28.5" height="117" style="fill:#463174;fill-rule:nonzero;"/><path d="M573.498,478.331l-28.5,0l-47.667,-72.167l0,72.167l-28.5,0l0,-117l28.5,0l47.667,72.5l0,-72.5l28.5,0l0,117Z" style="fill:#463174;fill-rule:nonzero;"/><path d="M637.998,361.331c12.333,0 23.111,2.445 32.333,7.333c9.222,4.889 16.361,11.75 21.417,20.584c5.055,8.833 7.583,19.028 7.583,30.583c0,11.445 -2.528,21.611 -7.583,30.5c-5.056,8.889 -12.222,15.778 -21.5,20.667c-9.278,4.889 -20.028,7.333 -32.25,7.333l-43.833,0l0,-117l43.833,0Zm-1.833,92.333c10.777,0 19.166,-2.944 25.166,-8.833c6,-5.889 9,-14.222 9,-25c0,-10.778 -3,-19.167 -9,-25.167c-6,-6 -14.389,-9 -25.166,-9l-13.5,0l0,68l13.5,0Z" style="fill:#463174;fill-rule:nonzero;"/><rect x="715.331" y="361.331" width="28.5" height="117" style="fill:#463174;fill-rule:nonzero;"/></svg>