<?xml version="1.0" encoding="UTF-8" standalone="no"?><!DOCTYPE svg PUBLIC "-//W3C//DTD SVG 1.1//EN" "http://www.w3.org/Graphics/SVG/1.1/DTD/svg11.dtd"><svg width="100%" height="100%" viewBox="0 0 1042 834" version="1.1" xmlns="http://www.w3.org/2000/svg" xmlns:xlink="http://www.w3.org/1999/xlink" xml:space="preserve" xmlns:serif="http://www.serif.com/" style="fill-rule:evenodd;clip-rule:evenodd;stroke-linejoin:round;stroke-miterlimit:2;"><path d="M405.706,373.781l0,90.675l-22.087,0l0,-37.329l-34.359,0l0,37.329l-22.087,0l0,-90.675l22.087,0l0,35.521l34.359,0l0,-35.521l22.087,0Z" style="fill:#463174;fill-rule:nonzero;"/><rect x="421.594" y="373.781" width="22.087" height="90.675" style="fill:#463174;fill-rule:nonzero;"/><path d="M540.815,464.456l-22.088,0l-36.942,-55.929l0,55.929l-22.087,0l0,-90.675l22.087,0l36.942,56.188l0,-56.188l22.088,0l0,90.675Z" style="fill:#463174;fill-rule:nonzero;"/><path d="M590.802,373.781c9.558,0 17.911,1.895 25.058,5.684c7.148,3.788 12.68,9.106 16.598,15.952c3.918,6.845 5.877,14.746 5.877,23.702c0,8.869 -1.959,16.748 -5.877,23.637c-3.918,6.889 -9.472,12.228 -16.662,16.017c-7.19,3.789 -15.522,5.683 -24.994,5.683l-33.971,0l0,-90.675l33.971,0Zm-1.421,71.559c8.353,0 14.854,-2.282 19.504,-6.846c4.65,-4.564 6.975,-11.023 6.975,-19.375c0,-8.353 -2.325,-14.854 -6.975,-19.504c-4.65,-4.65 -11.151,-6.975 -19.504,-6.975l-10.462,0l0,52.7l10.462,0Z" style="fill:#463174;fill-rule:nonzero;"/><rect x="650.735" y="373.781" width="22.087" height="90.675" style="fill:#463174;fill-rule:nonzero;"/></svg>