<?xml version="1.0" encoding="UTF-8" standalone="no"?><!DOCTYPE svg PUBLIC "-//W3C//DTD SVG 1.1//EN" "http://www.w3.org/Graphics/SVG/1.1/DTD/svg11.dtd"><svg width="100%" height="100%" viewBox="0 0 1042 834" version="1.1" xmlns="http://www.w3.org/2000/svg" xmlns:xlink="http://www.w3.org/1999/xlink" xml:space="preserve" xmlns:serif="http://www.serif.com/" style="fill-rule:evenodd;clip-rule:evenodd;stroke-linejoin:round;stroke-miterlimit:2;"><path d="M398.531,400.265c-4.666,0 -8.466,0.933 -11.4,2.8c-2.933,1.866 -4.4,4.933 -4.4,9.2c0,2.666 0.734,5 2.2,7c1.467,2 3.467,3.533 6,4.6c2.8,-0.534 6.134,-0.8 10,-0.8c13.734,0 24.467,3.333 32.2,10c7.734,6.666 12.267,15.2 13.6,25.6l-24.8,0c-0.933,-4 -3.266,-7.5 -7,-10.5c-3.733,-3 -8.533,-4.5 -14.4,-4.5c-6.933,0 -12.5,2.2 -16.7,6.6c-4.2,4.4 -6.3,10.133 -6.3,17.2c0,7.066 2.1,12.766 6.3,17.1c4.2,4.333 9.767,6.5 16.7,6.5c5.6,0 10.3,-1.434 14.1,-4.3c3.8,-2.867 6.234,-6.3 7.3,-10.3l24.8,0c-1.2,10.666 -5.966,19.333 -14.3,26c-8.333,6.666 -18.966,10 -31.9,10c-9.866,0 -18.433,-1.934 -25.7,-5.8c-7.266,-3.867 -12.833,-9.234 -16.7,-16.1c-3.866,-6.867 -5.8,-14.767 -5.8,-23.7c0,-7.867 1.7,-14.9 5.1,-21.1c3.4,-6.2 8.167,-11.234 14.3,-15.1c-4.666,-2.534 -8.266,-5.767 -10.8,-9.7c-2.533,-3.934 -3.8,-8.5 -3.8,-13.7c0,-8 2.9,-14.267 8.7,-18.8c5.8,-4.534 13.634,-6.8 23.5,-6.8l20,0l0,-17.4l-74.2,0l0,-21.6l125.4,0l0,21.6l-26.6,0l0,36l-35.4,0Z" style="fill:#463174;fill-rule:nonzero;"/><path d="M555.531,287.065c15.6,0 29.534,2.333 41.8,7c12.267,4.666 21.867,11.4 28.8,20.2c6.934,8.8 10.4,19.066 10.4,30.8l0,3.4l-25.8,0l0,-3c0,-8.4 -2.633,-15.367 -7.9,-20.9c-5.266,-5.534 -12.1,-9.634 -20.5,-12.3c-8.4,-2.667 -17.333,-4 -26.8,-4c-15.066,0 -27.9,2.733 -38.5,8.2c-10.6,5.466 -16.233,14.2 -16.9,26.2l22.4,0l0,21.6l-22.2,0l0,126.4l-25.8,0l0,-126.4l-22.2,0l0,-21.6l22.2,0c0.4,-11.734 4.1,-21.767 11.1,-30.1c7,-8.334 16.534,-14.667 28.6,-19c12.067,-4.334 25.834,-6.5 41.3,-6.5Z" style="fill:#463174;fill-rule:nonzero;"/><path d="M502.731,310.865c0,4.266 -1.5,7.9 -4.5,10.9c-3,3 -6.7,4.5 -11.1,4.5c-4.4,0 -8.1,-1.5 -11.1,-4.5c-3,-3 -4.5,-6.634 -4.5,-10.9c0,-4.4 1.5,-8.1 4.5,-11.1c3,-3 6.7,-4.5 11.1,-4.5c4.4,0 8.1,1.5 11.1,4.5c3,3 4.5,6.7 4.5,11.1Z" style="fill:#463174;fill-rule:nonzero;"/><path d="M586.131,404.665c-8.8,0 -15.933,2.266 -21.4,6.8c-5.466,4.533 -8.2,10.866 -8.2,19c0,7.333 2.2,13.166 6.6,17.5c4.4,4.333 10.267,6.5 17.6,6.5c6,0 11.167,-1.867 15.5,-5.6c4.334,-3.734 6.5,-9.067 6.5,-16l23.8,0l0,63.2l-25.2,0l0,-33c-2.933,3.866 -6.8,6.833 -11.6,8.9c-4.8,2.066 -10.266,3.1 -16.4,3.1c-8,0 -15.266,-1.734 -21.8,-5.2c-6.533,-3.467 -11.733,-8.6 -15.6,-15.4c-3.866,-6.8 -5.8,-15.067 -5.8,-24.8c0,-10 2.3,-18.567 6.9,-25.7c4.6,-7.134 10.934,-12.5 19,-16.1c8.067,-3.6 17.234,-5.4 27.5,-5.4l10,0l0,-18.2l-79.4,0l0,-21.6l130.6,0l-0.2,21.6l-25,0l0,40.4l-33.4,0Z" style="fill:#463174;fill-rule:nonzero;"/><path d="M706.531,342.665l0,21.6l-22.2,0l0,126.4l-25.8,0l0,-126.4l-22.2,0l0,-21.6l23,0l0,-8c0,-7.2 -1.333,-13.3 -4,-18.3c-2.666,-5 -7.533,-7.5 -14.6,-7.5c-7.2,0 -12.166,2.5 -14.9,7.5c-2.733,5 -4.1,11.1 -4.1,18.3l0,13.8l-25,0l0,-12.4c0,-15.067 3.5,-27 10.5,-35.8c7,-8.8 18.167,-13.2 33.5,-13.2c29.067,0 43.6,16.333 43.6,49l0,6.6l22.2,0Z" style="fill:#463174;fill-rule:nonzero;"/></svg>