<?xml version="1.0" encoding="UTF-8" standalone="no"?><!DOCTYPE svg PUBLIC "-//W3C//DTD SVG 1.1//EN" "http://www.w3.org/Graphics/SVG/1.1/DTD/svg11.dtd"><svg width="100%" height="100%" viewBox="0 0 1042 834" version="1.1" xmlns="http://www.w3.org/2000/svg" xmlns:xlink="http://www.w3.org/1999/xlink" xml:space="preserve" xmlns:serif="http://www.serif.com/" style="fill-rule:evenodd;clip-rule:evenodd;stroke-linejoin:round;stroke-miterlimit:2;"><path d="M249.517,464.456l-30.484,-40.041l0,40.041l-22.087,0l0,-90.675l22.087,0l0,39.784l30.225,-39.784l25.963,0l-35.134,44.434l36.425,46.241l-26.995,0Z" style="fill:#463174;fill-rule:nonzero;"/><path d="M343.421,448.44l-33.842,0l-5.425,16.016l-23.121,0l32.809,-90.675l25.575,0l32.808,90.675l-23.379,0l-5.425,-16.016Zm-5.684,-17.05l-11.237,-33.196l-11.108,33.196l22.345,0Z" style="fill:#463174;fill-rule:nonzero;"/><path d="M463.287,464.456l-22.087,0l-36.942,-55.929l0,55.929l-22.087,0l0,-90.675l22.087,0l36.942,56.188l0,-56.188l22.087,0l0,90.675Z" style="fill:#463174;fill-rule:nonzero;"/><path d="M560.421,464.456l-22.088,0l-36.941,-55.929l0,55.929l-22.088,0l0,-90.675l22.088,0l36.941,56.188l0,-56.188l22.088,0l0,90.675Z" style="fill:#463174;fill-rule:nonzero;"/><path d="M632.883,448.44l-33.841,0l-5.425,16.016l-23.121,0l32.808,-90.675l25.575,0l32.808,90.675l-23.379,0l-5.425,-16.016Zm-5.683,-17.05l-11.238,-33.196l-11.108,33.196l22.346,0Z" style="fill:#463174;fill-rule:nonzero;"/><path d="M705.604,373.781c9.558,0 17.911,1.895 25.058,5.684c7.148,3.788 12.68,9.106 16.598,15.952c3.918,6.845 5.877,14.746 5.877,23.702c0,8.869 -1.959,16.748 -5.877,23.637c-3.918,6.889 -9.472,12.228 -16.662,16.017c-7.19,3.789 -15.522,5.683 -24.994,5.683l-33.971,0l0,-90.675l33.971,0Zm-1.421,71.559c8.353,0 14.854,-2.282 19.504,-6.846c4.65,-4.564 6.975,-11.023 6.975,-19.375c0,-8.353 -2.325,-14.854 -6.975,-19.504c-4.65,-4.65 -11.151,-6.975 -19.504,-6.975l-10.462,0l0,52.7l10.462,0Z" style="fill:#463174;fill-rule:nonzero;"/><path d="M821.983,448.44l-33.841,0l-5.425,16.016l-23.121,0l32.808,-90.675l25.575,0l32.808,90.675l-23.379,0l-5.425,-16.016Zm-5.683,-17.05l-11.238,-33.196l-11.108,33.196l22.346,0Z" style="fill:#463174;fill-rule:nonzero;"/></svg>