<?xml version="1.0" encoding="UTF-8" standalone="no"?>
<!DOCTYPE svg PUBLIC "-//W3C//DTD SVG 1.1//EN" "http://www.w3.org/Graphics/SVG/1.1/DTD/svg11.dtd">
<!-- Created with Vectornator (http://vectornator.io/) -->
<svg height="100%" stroke-miterlimit="10" style="fill-rule:nonzero;clip-rule:evenodd;stroke-linecap:round;stroke-linejoin:round;" version="1.1" viewBox="107.601 36.6848 49.581 28.5557" width="100%" xml:space="preserve" xmlns="http://www.w3.org/2000/svg" xmlns:vectornator="http://vectornator.io" xmlns:xlink="http://www.w3.org/1999/xlink">
<defs/>
<clipPath id="ArtboardFrame">
<rect height="28.5557" width="49.581" x="107.601" y="36.6848"/>
</clipPath>
<g clip-path="url(#ArtboardFrame)" id="Layer" vectornator:layerName="Layer">
<g opacity="1" vectornator:layerName="Group 3">
<path d="M113.416 56.4675C111.826 56.4675 110.554 56.074 109.601 55.287C108.649 54.5 108.172 53.3775 108.172 51.9194C108.172 50.975 108.384 50.188 108.806 49.5584C109.229 48.9288 109.771 48.4318 110.434 48.0673L107.601 48.117L107.601 46.9489L112.621 46.9489C112.886 46.7004 113.093 46.4436 113.242 46.1785C113.391 45.9134 113.466 45.6069 113.466 45.2589C113.466 44.7619 113.317 44.298 113.019 43.8672L107.601 43.8672L107.601 42.5997L114.808 42.5997C115.67 42.5997 116.307 42.5624 116.722 42.4879C117.136 42.4133 117.459 42.2766 117.691 42.0778C118.055 41.7796 118.238 41.2991 118.238 40.6364C118.238 40.1393 118.118 39.6298 117.877 39.1079C117.637 38.586 117.235 38.0185 116.672 37.4055L117.741 36.6848C118.42 37.4801 118.896 38.1884 119.17 38.8097C119.443 39.431 119.58 40.0647 119.58 40.7109C119.58 41.1417 119.513 41.5518 119.381 41.9411C119.248 42.3305 119.025 42.666 118.71 42.9476C118.296 43.3122 117.807 43.5565 117.244 43.6808C116.68 43.8051 115.993 43.8672 115.181 43.8672L114.336 43.8672C114.617 44.3311 114.758 44.795 114.758 45.2589C114.758 45.6234 114.7 45.9465 114.584 46.2282C114.468 46.5099 114.319 46.7501 114.137 46.9489L119.406 46.9489L119.406 48.117L116.498 48.0673C117.128 48.3821 117.67 48.8543 118.126 49.4839C118.581 50.1135 118.809 50.9171 118.809 51.8946C118.809 53.2698 118.358 54.3757 117.455 55.2124C116.552 56.0491 115.206 56.4675 113.416 56.4675ZM113.491 55.1751C114.833 55.1751 115.835 54.8728 116.498 54.268C117.161 53.6633 117.492 52.8307 117.492 51.7703C117.492 50.7431 117.152 49.8691 116.473 49.1484C115.794 48.4277 114.8 48.0673 113.491 48.0673C112.613 48.0673 111.875 48.2371 111.279 48.5768C110.682 48.9164 110.235 49.3638 109.937 49.9188C109.639 50.4739 109.489 51.091 109.489 51.7703C109.489 52.8638 109.833 53.7047 110.521 54.2929C111.208 54.8811 112.198 55.1751 113.491 55.1751Z" fill="#463174" fill-rule="nonzero" opacity="1" stroke="none"/>
<path d="M132.205 56.4675C131.36 56.4675 130.668 56.3101 130.13 55.9953C129.591 55.6805 129.127 55.2497 128.738 54.7029C128.349 54.1562 127.955 53.5266 127.557 52.8141C127.143 52.1017 126.783 51.5467 126.476 51.149C126.17 50.7514 125.872 50.4739 125.582 50.3165C125.292 50.1591 124.964 50.0804 124.6 50.0804C124.003 50.0804 123.506 50.2709 123.109 50.652C122.711 51.033 122.512 51.6378 122.512 52.4662C122.512 53.0627 122.632 53.6591 122.873 54.2556C123.113 54.8521 123.44 55.4237 123.854 55.9704L122.612 56.5172C122.214 55.9704 121.883 55.3533 121.618 54.6657C121.352 53.9781 121.22 53.2532 121.22 52.4911C121.22 51.3478 121.543 50.449 122.189 49.7945C122.835 49.1401 123.631 48.8129 124.575 48.8129C125.519 48.8129 126.273 49.0738 126.837 49.5957C127.4 50.1176 127.963 50.8839 128.527 51.8946C128.924 52.6236 129.289 53.2284 129.62 53.7088C129.951 54.1893 130.324 54.5538 130.738 54.8024C131.153 55.0509 131.675 55.1751 132.304 55.1751C133.215 55.1751 133.886 54.8396 134.317 54.1686C134.748 53.4976 134.963 52.607 134.963 51.497C134.963 50.2709 134.711 49.136 134.205 48.0921C133.7 47.0483 133.004 46.1578 132.118 45.4205C131.231 44.6832 130.208 44.1654 129.049 43.8672L121.245 43.8672L121.245 42.5997L131.534 42.5997C132.412 42.5997 133.054 42.5624 133.46 42.4879C133.866 42.4133 134.185 42.2766 134.417 42.0778C134.798 41.7796 134.988 41.2991 134.988 40.6364C134.988 40.1393 134.868 39.6298 134.628 39.1079C134.388 38.586 133.978 38.0185 133.398 37.4055L134.466 36.6848C135.162 37.4801 135.647 38.1884 135.92 38.8097C136.194 39.431 136.33 40.0647 136.33 40.7109C136.33 41.1417 136.264 41.5518 136.132 41.9411C135.999 42.3305 135.767 42.666 135.436 42.9476C135.038 43.3122 134.549 43.5565 133.969 43.6808C133.389 43.8051 132.685 43.8672 131.857 43.8672L131.708 43.8672C133.099 44.5962 134.218 45.611 135.063 46.9116C135.908 48.2123 136.33 49.7076 136.33 51.3975C136.33 52.9384 135.974 54.1686 135.262 55.0882C134.549 56.0077 133.53 56.4675 132.205 56.4675Z" fill="#463174" fill-rule="nonzero" opacity="1" stroke="none"/>
<path d="M132.851 57.9835C133.497 57.9835 134.056 58.0953 134.529 58.319C135.001 58.5427 135.452 58.9155 135.883 59.4374C136.314 59.9593 136.786 60.6676 137.3 61.5623C138.178 60.7504 138.617 59.6735 138.617 58.3314C138.617 57.7681 138.542 57.2006 138.393 56.629C138.244 56.0574 138.02 55.5396 137.722 55.0757L138.816 54.5041C139.13 54.968 139.387 55.5272 139.586 56.1817C139.785 56.8361 139.884 57.5113 139.884 58.2072C139.884 59.2178 139.702 60.0794 139.338 60.7918C138.973 61.5043 138.493 62.0925 137.896 62.5564C138.261 63.1528 138.6 63.5505 138.915 63.7493C139.23 63.9481 139.652 64.0475 140.182 64.0475C140.315 64.0475 140.468 64.0392 140.642 64.0227C140.816 64.0061 140.953 63.973 141.052 63.9233L141.276 65.0665C140.928 65.1825 140.564 65.2405 140.182 65.2405C139.387 65.2405 138.753 65.0706 138.281 64.731C137.809 64.3913 137.358 63.8653 136.927 63.1528C136.413 63.4179 135.858 63.6126 135.262 63.7369C134.665 63.8611 134.069 63.9233 133.472 63.9233C132.561 63.9233 131.836 63.7824 131.298 63.5008C130.759 63.2191 130.37 62.838 130.13 62.3576C129.889 61.8771 129.769 61.3634 129.769 60.8167C129.769 59.8889 130.072 59.1847 130.676 58.7042C131.281 58.2237 132.006 57.9835 132.851 57.9835ZM131.037 60.8167C131.037 61.38 131.219 61.8522 131.583 62.2333C131.948 62.6144 132.602 62.8132 133.547 62.8298C134.11 62.8132 134.628 62.7552 135.1 62.6558C135.572 62.5564 135.999 62.4073 136.38 62.2084C135.767 61.0818 135.2 60.2824 134.678 59.8102C134.156 59.338 133.572 59.1019 132.926 59.1019C132.379 59.1019 131.927 59.2468 131.571 59.5368C131.215 59.8267 131.037 60.2534 131.037 60.8167Z" fill="#463174" fill-rule="nonzero" opacity="1" stroke="none"/>
<path d="M144.929 56.4675C143.72 56.4675 142.726 55.9994 141.947 55.0633C141.168 54.1272 140.779 52.6982 140.779 50.7762C140.779 49.2022 141.11 47.7981 141.773 46.5637C142.436 45.3294 143.43 44.4305 144.755 43.8672L140.779 43.8672L140.779 42.5997L152.41 42.5997C153.272 42.5997 153.909 42.5624 154.324 42.4879C154.738 42.4133 155.061 42.2766 155.293 42.0778C155.492 41.9121 155.633 41.7133 155.715 41.4813C155.798 41.2494 155.84 40.9677 155.84 40.6364C155.84 40.1393 155.72 39.6298 155.479 39.1079C155.239 38.586 154.837 38.0185 154.274 37.4055L155.343 36.6848C156.022 37.4801 156.498 38.1884 156.772 38.8097C157.045 39.431 157.182 40.0647 157.182 40.7109C157.182 41.1417 157.115 41.5518 156.983 41.9411C156.85 42.3305 156.627 42.6743 156.312 42.9725C156.014 43.221 155.662 43.4116 155.256 43.5441C154.85 43.6767 154.282 43.7678 153.553 43.8175C154.382 44.1489 155.036 44.6542 155.517 45.3335C155.997 46.0128 156.237 46.8495 156.237 47.8436C156.237 48.0259 156.221 48.1916 156.188 48.3407C156.502 48.8046 156.743 49.3223 156.908 49.894C157.074 50.4656 157.157 51.0579 157.157 51.6709C157.157 53.1124 156.78 54.2722 156.026 55.1503C155.272 56.0284 154.249 56.4675 152.957 56.4675C151.896 56.4675 151.056 56.2479 150.434 55.8089C149.813 55.3698 149.303 54.7029 148.906 53.8082C148.492 54.7692 147.953 55.4527 147.29 55.8586C146.628 56.2645 145.841 56.4675 144.929 56.4675ZM145.103 55.1751C146.926 55.1751 147.986 54.0071 148.284 51.6709L149.527 51.6709C149.676 52.897 150.037 53.7875 150.608 54.3426C151.18 54.8976 151.93 55.1751 152.857 55.1751C153.752 55.1751 154.481 54.8893 155.044 54.3177C155.608 53.7461 155.881 52.8638 155.865 51.6709C155.881 50.975 155.79 50.3372 155.591 49.7573C155.326 50.2378 154.962 50.6188 154.498 50.9005C154.034 51.1822 153.487 51.323 152.857 51.323C152.062 51.323 151.395 51.1076 150.857 50.6768C150.318 50.246 150.049 49.6247 150.049 48.8129C150.049 48.001 150.314 47.388 150.844 46.9738C151.374 46.5596 151.996 46.3525 152.708 46.3525C153.205 46.3525 153.636 46.4187 154.001 46.5513C154.365 46.6838 154.688 46.8661 154.97 47.098C154.771 46.1039 154.195 45.3086 153.243 44.7122C152.29 44.1157 151.06 43.8175 149.552 43.8175L148.782 43.8175C147.307 43.8175 146.077 44.124 145.091 44.737C144.105 45.3501 143.364 46.1826 142.867 47.2347C142.37 48.2868 142.121 49.4673 142.121 50.7762C142.121 52.3005 142.382 53.4147 142.904 54.1189C143.426 54.8231 144.159 55.1751 145.103 55.1751ZM151.316 48.788C151.316 49.749 151.855 50.2295 152.932 50.2295C153.363 50.2295 153.781 50.0928 154.187 49.8194C154.593 49.546 154.854 49.1111 154.97 48.5146C154.738 48.1833 154.444 47.9182 154.088 47.7194C153.731 47.5205 153.313 47.4211 152.832 47.4211C152.352 47.4211 151.979 47.5495 151.714 47.8063C151.449 48.0631 151.316 48.3904 151.316 48.788Z" fill="#463174" fill-rule="nonzero" opacity="1" stroke="none"/>
</g>
</g>
</svg>
