<?xml version="1.0" encoding="UTF-8" standalone="no"?>
<!DOCTYPE svg PUBLIC "-//W3C//DTD SVG 1.1//EN" "http://www.w3.org/Graphics/SVG/1.1/DTD/svg11.dtd">
<svg width="100%" height="100%" viewBox="0 0 1000 1000" version="1.1" xmlns="http://www.w3.org/2000/svg" xmlns:xlink="http://www.w3.org/1999/xlink" xml:space="preserve" xmlns:serif="http://www.serif.com/" style="fill-rule:evenodd;clip-rule:evenodd;stroke-linejoin:round;stroke-miterlimit:2;">
    <g transform="matrix(1,0,0,1,-699.56,-400.948)">
        <g transform="matrix(0.947759,0,0,0.993797,43.7104,2.48719)">
            <rect x="692" y="400.948" width="1055.12" height="1006.24" style="fill:white;fill-rule:nonzero;"/>
        </g>
        <g transform="matrix(1,0,0,1,-5.623,2.107)">
            <path d="M931.519,578.841L930.979,672.552C952.638,653.028 970.159,652.648 983.902,655.296C1012.46,660.8 1011.2,699.258 1011.2,699.258L1011.49,766.723L971.515,766.723L971.498,701.074C971.498,701.074 971.568,693.026 963.569,688.119C955.479,683.156 942.467,685.143 936.551,690.584C930.99,695.698 931.519,700.904 931.519,700.904L931.519,766.841L891.523,766.841L891.523,578.841L931.519,578.841Z" style="fill:rgb(159,137,207);"/>
            <path d="M1293.59,1016.47L1293.05,1110.18C1314.71,1090.66 1332.23,1090.28 1345.97,1092.93C1374.53,1098.43 1373.27,1136.89 1373.27,1136.89L1373.56,1204.35L1333.59,1204.35L1333.57,1138.7C1333.57,1138.7 1333.64,1130.66 1325.64,1125.75C1317.55,1120.79 1304.54,1122.77 1298.62,1128.21C1293.06,1133.33 1293.59,1138.53 1293.59,1138.53L1293.59,1204.47L1253.59,1204.47L1253.59,1016.47L1293.59,1016.47Z" style="fill:rgb(159,137,207);"/>
            <path d="M1076.06,653.389C1046.35,653.389 1022.24,668.487 1022.24,709.561C1022.24,750.636 1047.46,766.841 1077.17,766.841C1097.62,766.841 1120.76,762.437 1131.13,740.625L1106.73,730.268C1074.06,757.493 1053.49,723.497 1055.25,719.894L1130.69,719.721C1131.08,716.425 1131.28,712.547 1131.28,708.847C1131.28,668.631 1105.77,653.389 1076.06,653.389ZM1076.32,681.317C1086.2,681.317 1095.5,686.2 1095.5,699.802L1056,699.802C1056,687.098 1066.45,681.317 1076.32,681.317Z" style="fill:rgb(159,137,207);fill-rule:nonzero;"/>
            <path d="M1100.88,864.558C1068.61,864.558 1042.43,880.954 1042.43,925.564C1042.43,970.173 1069.81,987.773 1102.08,987.773C1124.29,987.773 1149.42,982.99 1160.68,959.301L1134.19,948.052C1098.71,977.621 1076.37,940.698 1078.28,936.786L1160.2,936.598C1160.63,933.018 1160.85,928.807 1160.85,924.788C1160.85,881.111 1133.15,864.558 1100.88,864.558ZM1101.16,894.889C1111.88,894.889 1121.98,900.192 1121.98,914.965L1079.09,914.965C1079.09,901.168 1090.44,894.889 1101.16,894.889Z" style="fill:rgb(70,49,116);fill-rule:nonzero;"/>
            <path d="M1493.14,883.835L1537.14,883.835L1569.64,942.835L1597.14,883.835L1643.14,883.835C1643.14,883.835 1582.86,1001.4 1552.14,1059.34L1506.14,1058.84L1546.14,982.835" style="fill:rgb(69,49,115);"/>
            <path d="M869.089,1093.27C834.419,1093.27 806.308,1119.07 806.308,1150.89C806.308,1182.72 834.419,1208.52 869.089,1208.52C881.629,1208.52 893.286,1205.11 903.089,1199.3L889.808,1172.77C885.285,1176.3 879.677,1178.49 873.527,1178.49C858.717,1178.49 846.714,1166.3 846.714,1151.3C846.714,1136.3 858.717,1124.14 873.527,1124.14C879.518,1124.14 885.001,1126.19 889.464,1129.55L903.902,1102.96C893.936,1096.85 881.973,1093.27 869.089,1093.27Z" style="fill:rgb(159,137,207);fill-rule:nonzero;"/>
            <path d="M1213.53,1093.27C1178.86,1093.27 1150.75,1119.07 1150.75,1150.89C1150.75,1182.72 1178.86,1208.52 1213.53,1208.52C1226.07,1208.52 1237.73,1205.11 1247.53,1199.3L1234.25,1172.77C1229.73,1176.3 1224.12,1178.49 1217.97,1178.49C1203.16,1178.49 1191.16,1166.3 1191.16,1151.3C1191.16,1136.3 1203.16,1124.14 1217.97,1124.14C1223.96,1124.14 1229.44,1126.19 1233.91,1129.55L1248.34,1102.96C1238.38,1096.85 1226.41,1093.27 1213.53,1093.27Z" style="fill:rgb(159,137,207);fill-rule:nonzero;"/>
            <path d="M1013.51,807.82C1000.26,807.82 989.513,818.565 989.513,831.82C989.513,845.075 1000.26,855.82 1013.51,855.82C1026.77,855.82 1037.51,845.075 1037.51,831.82C1037.51,818.565 1026.77,807.82 1013.51,807.82Z" style="fill:rgb(70,50,116);fill-rule:nonzero;"/>
            <path d="M992.946,874.764L977.794,908.773C969.478,903.128 960.311,901.295 950.294,903.273C941.289,906.28 935.289,912.446 933.294,921.773L933.294,987.773L893.294,987.773L893.294,871.773L933.294,871.773L933.294,887.773C949.203,866.671 969.189,862.996 992.946,874.764Z" style="fill:rgb(69,49,114);"/>
            <path d="M1238.22,867.773C1257.19,863.765 1292.82,875.315 1295.28,908.436C1296.14,919.927 1295.22,987.773 1295.22,987.773L1254.72,987.773C1254.72,987.773 1255.48,925.558 1254.72,915.773C1253.78,903.597 1239.93,897.309 1223.9,902.184C1218.48,903.831 1211.66,907.66 1210.22,916.773C1209.65,920.37 1210.22,987.773 1210.22,987.773L1170.22,987.773L1170.22,870.773L1210.22,870.773L1210.22,882.773C1217.96,874.987 1224.02,870.773 1238.22,867.773Z" style="fill:rgb(69,49,114);"/>
            <rect x="995.294" y="870.773" width="39.996" height="117" style="fill:rgb(69,49,114);"/>
            <path d="M1397.75,788.107L1397.75,878.554C1387.76,871.374 1375.52,867.117 1362.25,867.117C1328.72,867.117 1301.56,894.112 1301.56,927.429C1301.56,960.746 1328.73,987.773 1362.25,987.773C1375.52,987.773 1387.76,983.484 1397.75,976.304L1397.75,984.117L1437.25,984.117L1437.25,788.107L1397.75,788.107ZM1369.41,898.523C1384.1,898.523 1396,910.835 1396,926.023C1396,941.211 1384.1,953.523 1369.41,953.523C1354.72,953.523 1342.81,941.211 1342.81,926.023C1342.81,910.835 1354.72,898.523 1369.41,898.523Z" style="fill:rgb(70,49,116);fill-rule:nonzero;"/>
            <path d="M1028.88,1093.97L1065.88,1093.97C1065.71,1113.3 1066.38,1152.78 1066.38,1152.78C1067.99,1173.51 1079.9,1175.72 1086.85,1175.72C1093.79,1175.72 1107.21,1173.57 1108.38,1152.78C1108.38,1152.78 1109.04,1113.97 1108.88,1093.97L1146.88,1093.97C1147.04,1116.97 1146.38,1152.78 1146.38,1152.78C1146.38,1189.17 1117.68,1207.82 1088.43,1207.82C1059.18,1207.82 1029.38,1188.25 1029.38,1152.78C1029.38,1152.78 1028.71,1118.3 1028.88,1093.97Z" style="fill:rgb(159,137,207);"/>
            <path d="M821.527,609.632L821.527,651.351L805.183,651.351L805.183,680.539L821.527,680.539L821.527,722.57C821.515,726.438 820.572,769.668 861.121,766.695C874.462,765.717 886.469,760.621 888.214,759.726L877.808,728.539C861.946,737.1 861.121,722.82 861.121,722.82L861.121,680.539L883.152,680.539L883.152,651.351L861.121,651.351L861.121,609.632L821.527,609.632Z" style="fill:rgb(159,137,207);fill-rule:nonzero;"/>
            <path d="M871.798,787.929C868.773,787.936 865.506,788.174 861.986,788.742C825.071,794.699 824.236,830.867 824.236,830.867L824.236,871.773L807.204,871.773L807.204,901.773L824.236,901.773L824.236,987.773L864.204,987.773L864.236,901.773L889.986,901.773L889.986,871.773L864.267,871.773L864.267,835.679C864.267,835.679 864.511,826.746 871.486,824.804C878.909,822.738 887.798,826.648 887.798,826.648L902.204,799.867C902.204,799.867 892.975,787.882 871.798,787.929Z" style="fill:rgb(70,49,116);fill-rule:nonzero;"/>
            <rect x="1450.41" y="788.107" width="39.48" height="196" style="fill:rgb(69,49,115);fill-rule:nonzero;"/>
            <path d="M959.763,1092.99C923.714,1092.99 894.482,1118.91 894.482,1150.89C894.481,1182.87 923.714,1208.8 959.763,1208.8C995.812,1208.8 1025.01,1182.87 1025.01,1150.89C1025.01,1118.91 995.812,1092.99 959.763,1092.99ZM959.763,1123.49C974.17,1123.49 985.825,1134.92 985.825,1149.02C985.825,1163.12 974.17,1174.55 959.763,1174.55C945.355,1174.55 933.669,1163.12 933.669,1149.02C933.669,1134.92 945.355,1123.49 959.763,1123.49Z" style="fill:rgb(159,137,207);fill-rule:nonzero;"/>
        </g>
    </g>
</svg>
