<?xml version="1.0" encoding="UTF-8" standalone="no"?><!DOCTYPE svg PUBLIC "-//W3C//DTD SVG 1.1//EN" "http://www.w3.org/Graphics/SVG/1.1/DTD/svg11.dtd"><svg width="100%" height="100%" viewBox="0 0 1042 834" version="1.1" xmlns="http://www.w3.org/2000/svg" xmlns:xlink="http://www.w3.org/1999/xlink" xml:space="preserve" xmlns:serif="http://www.serif.com/" style="fill-rule:evenodd;clip-rule:evenodd;stroke-linejoin:round;stroke-miterlimit:2;"><path d="M129.581,361.331l0,117l-28.5,0l0,-70.166l-26.166,70.166l-23,0l-26.334,-70.333l0,70.333l-28.5,0l0,-117l33.667,0l32.833,81l32.5,-81l33.5,0Z" style="fill:#463174;fill-rule:nonzero;"/><path d="M222.915,457.665l-43.667,0l-7,20.666l-29.833,0l42.333,-117l33,0l42.333,117l-30.166,0l-7,-20.666Zm-7.334,-22l-14.5,-42.834l-14.333,42.834l28.833,0Z" style="fill:#463174;fill-rule:nonzero;"/><path d="M301.415,456.331l37.333,0l0,22l-65.833,0l0,-117l28.5,0l0,95Z" style="fill:#463174;fill-rule:nonzero;"/><path d="M425.248,457.665l-43.667,0l-7,20.666l-29.833,0l42.333,-117l33,0l42.334,117l-30.167,0l-7,-20.666Zm-7.333,-22l-14.5,-42.834l-14.334,42.834l28.834,0Z" style="fill:#463174;fill-rule:nonzero;"/><path d="M575.581,361.331l-40.5,78.334l0,38.666l-28.5,0l0,-38.666l-40.5,-78.334l32.334,0l22.666,49l22.5,-49l32,0Z" style="fill:#463174;fill-rule:nonzero;"/><path d="M659.915,457.665l-43.667,0l-7,20.666l-29.833,0l42.333,-117l33,0l42.333,117l-30.166,0l-7,-20.666Zm-7.334,-22l-14.5,-42.834l-14.333,42.834l28.833,0Z" style="fill:#463174;fill-rule:nonzero;"/><path d="M738.415,456.331l37.333,0l0,22l-65.833,0l0,-117l28.5,0l0,95Z" style="fill:#463174;fill-rule:nonzero;"/><path d="M862.248,457.665l-43.667,0l-7,20.666l-29.833,0l42.333,-117l33,0l42.334,117l-30.167,0l-7,-20.666Zm-7.333,-22l-14.5,-42.834l-14.334,42.834l28.834,0Z" style="fill:#463174;fill-rule:nonzero;"/><path d="M1044.75,361.331l0,117l-28.5,0l0,-70.166l-26.167,70.166l-23,0l-26.333,-70.333l0,70.333l-28.5,0l0,-117l33.667,0l32.833,81l32.5,-81l33.5,0Z" style="fill:#463174;fill-rule:nonzero;"/></svg>