<?xml version="1.0" encoding="UTF-8" standalone="no"?>
<!DOCTYPE svg PUBLIC "-//W3C//DTD SVG 1.1//EN" "http://www.w3.org/Graphics/SVG/1.1/DTD/svg11.dtd">
<!-- Created with Vectornator (http://vectornator.io/) -->
<svg height="100%" stroke-miterlimit="10" style="fill-rule:nonzero;clip-rule:evenodd;stroke-linecap:round;stroke-linejoin:round;" version="1.1" viewBox="153.143 73.6147 62.6219 11.643" width="100%" xml:space="preserve" xmlns="http://www.w3.org/2000/svg" xmlns:vectornator="http://vectornator.io" xmlns:xlink="http://www.w3.org/1999/xlink">
<defs/>
<clipPath id="ArtboardFrame">
<rect height="11.643" width="62.6219" x="153.143" y="73.6147"/>
</clipPath>
<g clip-path="url(#ArtboardFrame)" id="Layer" vectornator:layerName="Layer">
<g opacity="1" vectornator:layerName="Group 3">
<path d="M157.777 73.8162C158.398 73.8162 158.962 73.9267 159.468 74.1477C159.975 74.3688 160.408 74.6668 160.769 75.0417C161.13 75.4167 161.409 75.8504 161.605 76.3429C161.801 76.8353 161.898 77.3502 161.898 77.8874L161.898 82.6974L153.143 82.6974L153.143 77.8874C153.143 77.3502 153.244 76.8353 153.445 76.3429C153.647 75.8504 153.943 75.4167 154.335 75.0417C154.727 74.6668 155.211 74.3688 155.787 74.1477C156.364 73.9267 157.027 73.8162 157.777 73.8162ZM160.312 81.2703L160.312 78.3995C160.312 77.9742 160.266 77.5754 160.173 77.2033C160.081 76.8311 159.933 76.5024 159.729 76.2169C159.524 75.9315 159.26 75.6979 158.935 75.516C158.611 75.3341 158.216 75.218 157.752 75.1677C157.942 75.3579 158.108 75.5636 158.251 75.7846C158.394 76.0057 158.511 76.2309 158.604 76.4604C158.696 76.6898 158.766 76.9221 158.814 77.1571C158.861 77.3922 158.885 77.6188 158.885 77.8371C158.885 78.1337 158.851 78.4331 158.784 78.7353C158.717 79.0374 158.602 79.3354 158.44 79.6293C158.278 79.9231 158.059 80.2099 157.785 80.4897C157.511 80.7695 157.17 81.0297 156.761 81.2703L160.312 81.2703ZM154.73 81.136C155.065 80.9961 155.404 80.824 155.745 80.6198C156.087 80.4155 156.393 80.1847 156.665 79.9273C156.936 79.6698 157.157 79.3858 157.328 79.0752C157.498 78.7646 157.584 78.4275 157.584 78.0637C157.584 77.5265 157.49 77.027 157.303 76.5653C157.115 76.1036 156.837 75.7105 156.467 75.3859C156.271 75.4251 156.071 75.5104 155.867 75.6419C155.663 75.7734 155.477 75.9595 155.309 76.2002C155.141 76.4408 155.002 76.7416 154.893 77.1026C154.784 77.4635 154.73 77.8958 154.73 78.3995L154.73 81.136Z" fill="#463174" fill-rule="nonzero" opacity="1" stroke="none"/>
<path d="M174.977 82.6974L163.158 82.6974L163.158 78.8947C163.158 78.1001 163.23 77.388 163.376 76.7584C163.521 76.1288 163.756 75.5958 164.081 75.1593C164.406 74.7228 164.831 74.3898 165.357 74.1603C165.883 73.9309 166.524 73.8162 167.279 73.8162C168.035 73.8162 168.674 73.9295 169.197 74.1561C169.721 74.3828 170.145 74.699 170.469 75.1047C170.794 75.5104 171.029 75.9931 171.174 76.5527C171.32 77.1123 171.392 77.7279 171.392 78.3995L171.392 79.6251L164.736 79.6251L164.736 81.2703L173.399 81.2703L173.399 73.9001L174.977 73.9001L174.977 82.6974ZM169.814 78.198C169.803 77.7895 169.758 77.4061 169.68 77.048C169.602 76.6898 169.467 76.3764 169.277 76.1078C169.087 75.8392 168.829 75.6279 168.505 75.474C168.18 75.3202 167.772 75.2432 167.279 75.2432C166.781 75.2432 166.371 75.3202 166.049 75.474C165.728 75.6279 165.47 75.8392 165.277 76.1078C165.084 76.3764 164.948 76.6898 164.87 77.048C164.792 77.4061 164.747 77.7895 164.736 78.198L169.814 78.198Z" fill="#463174" fill-rule="nonzero" opacity="1" stroke="none"/>
<path d="M187.442 73.6147C187.817 73.8162 188.167 74.061 188.492 74.3492C188.816 74.6374 189.096 74.9676 189.331 75.3397C189.566 75.7119 189.751 76.1232 189.885 76.5737C190.02 77.0242 190.087 77.5097 190.087 78.0301C190.087 78.7744 189.962 79.4502 189.713 80.0574C189.464 80.6646 189.123 81.1822 188.689 81.6103C188.255 82.0384 187.743 82.37 187.153 82.605C186.562 82.8401 185.926 82.9576 185.243 82.9576C184.868 82.9576 184.521 82.9254 184.202 82.8611C183.883 82.7967 183.581 82.7058 183.296 82.5883C183.016 82.7002 182.718 82.7897 182.402 82.8569C182.085 82.924 181.751 82.9576 181.399 82.9576C180.716 82.9576 180.071 82.8415 179.464 82.6092C178.856 82.377 178.325 82.0482 177.869 81.6229C177.413 81.1976 177.052 80.6841 176.786 80.0825C176.52 79.481 176.387 78.808 176.387 78.0637C176.387 77.4817 176.478 76.9333 176.66 76.4184C176.842 75.9036 177.091 75.4531 177.407 75.0669C177.723 74.6808 178.095 74.3758 178.523 74.1519C178.952 73.9281 179.415 73.8162 179.913 73.8162C180.249 73.8162 180.576 73.8609 180.895 73.9505C181.214 74.04 181.508 74.1939 181.776 74.4122C181.978 74.2163 182.203 74.068 182.452 73.9673C182.701 73.8665 182.993 73.8162 183.329 73.8162C183.755 73.8162 184.142 73.9141 184.492 74.11C184.842 74.3058 185.14 74.5814 185.386 74.9368C185.632 75.2922 185.824 75.7175 185.961 76.2128C186.098 76.708 186.167 77.255 186.167 77.8538C186.167 78.5758 186.049 79.2473 185.814 79.8685C185.579 80.4897 185.243 81.0381 184.807 81.5138C184.863 81.5194 184.919 81.5236 184.975 81.5264C185.03 81.5292 185.089 81.5306 185.151 81.5306L185.201 81.5306C185.643 81.5306 186.064 81.448 186.465 81.2829C186.865 81.1178 187.216 80.8842 187.518 80.582C187.82 80.2798 188.059 79.9147 188.236 79.4865C188.412 79.0584 188.5 78.5786 188.5 78.0469C188.5 77.616 188.439 77.2243 188.315 76.8717C188.192 76.5191 188.033 76.21 187.837 75.9441C187.641 75.6783 187.424 75.4545 187.186 75.2726C186.949 75.0907 186.712 74.9522 186.477 74.8571L187.442 73.6147ZM180.484 77.8538C180.484 77.5349 180.516 77.1949 180.58 76.8339C180.644 76.473 180.741 76.119 180.87 75.772C180.724 75.6098 180.558 75.481 180.37 75.3859C180.183 75.2908 180.005 75.2432 179.837 75.2432C179.653 75.2432 179.452 75.3006 179.237 75.4153C179.022 75.53 178.82 75.7035 178.633 75.9357C178.445 76.168 178.288 76.4618 178.163 76.8171C178.037 77.1725 177.974 77.5936 177.974 78.0805C177.974 78.6121 178.07 79.092 178.263 79.5201C178.456 79.9482 178.712 80.3106 179.031 80.6072C179.35 80.9038 179.718 81.1318 180.135 81.2913C180.552 81.4508 180.987 81.5306 181.441 81.5306C181.547 81.5306 181.664 81.5222 181.793 81.5054C181.357 81.0241 181.029 80.4729 180.811 79.8517C180.593 79.2305 180.484 78.5646 180.484 77.8538ZM184.58 77.8538C184.58 77.5013 184.549 77.1669 184.488 76.8507C184.426 76.5345 184.341 76.2575 184.232 76.0197C184.122 75.7818 183.991 75.593 183.837 75.4531C183.683 75.3132 183.514 75.2432 183.329 75.2432C183.178 75.2432 183.041 75.2866 182.918 75.3733C182.795 75.4601 182.687 75.5762 182.595 75.7217C182.502 75.8672 182.423 76.0323 182.355 76.2169C182.288 76.4016 182.234 76.5905 182.192 76.7836C182.15 76.9766 182.119 77.1669 182.099 77.3544C182.08 77.5419 182.07 77.7083 182.07 77.8538C182.07 78.1449 182.092 78.4317 182.137 78.7143C182.182 78.9969 182.252 79.2683 182.347 79.5285C182.442 79.7887 182.563 80.0308 182.708 80.2546C182.854 80.4785 183.027 80.6771 183.228 80.8506C183.43 80.6883 183.613 80.4995 183.778 80.284C183.943 80.0686 184.085 79.8321 184.202 79.5747C184.32 79.3173 184.412 79.0444 184.479 78.7562C184.546 78.468 184.58 78.1672 184.58 77.8538Z" fill="#463174" fill-rule="nonzero" opacity="1" stroke="none"/>
<path d="M192.664 79.6251C192.748 79.8993 192.857 80.1539 192.991 80.3889C193.125 80.624 193.274 80.8282 193.436 81.0017C193.598 81.1752 193.769 81.3109 193.948 81.4089C194.127 81.5068 194.309 81.5558 194.494 81.5558C194.796 81.5558 195.063 81.4746 195.295 81.3123C195.528 81.15 195.721 80.9276 195.875 80.645C196.028 80.3624 196.145 80.0294 196.223 79.646C196.301 79.2627 196.34 78.8472 196.34 78.3995C196.34 78.0581 196.304 77.7027 196.231 77.3334C196.159 76.964 196.047 76.6241 195.896 76.3135C195.744 76.0029 195.553 75.7469 195.321 75.5454C195.088 75.3439 194.813 75.2432 194.494 75.2432C194.091 75.2432 193.735 75.3887 193.428 75.6797C193.12 75.9707 192.882 76.4044 192.714 76.9808L191.161 76.5024C191.273 76.1498 191.427 75.8126 191.623 75.4908C191.819 75.1691 192.057 74.8836 192.336 74.6346C192.616 74.3856 192.937 74.1869 193.298 74.0386C193.658 73.8903 194.057 73.8162 194.494 73.8162C194.925 73.8162 195.309 73.8819 195.648 74.0134C195.987 74.1449 196.283 74.3254 196.538 74.5549C196.792 74.7843 197.008 75.0501 197.184 75.3523C197.36 75.6545 197.503 75.9749 197.612 76.3135C197.721 76.6521 197.801 77.0004 197.851 77.3586C197.902 77.7167 197.927 78.0637 197.927 78.3995C197.927 78.9647 197.865 79.5187 197.742 80.0616C197.619 80.6044 197.422 81.0913 197.151 81.5222C196.879 81.9531 196.525 82.3001 196.089 82.5631C195.652 82.8261 195.12 82.9576 194.494 82.9576C194.074 82.9576 193.686 82.8891 193.331 82.7519C192.976 82.6148 192.657 82.4218 192.374 82.1727C192.092 81.9237 191.848 81.6229 191.644 81.2703C191.44 80.9178 191.276 80.526 191.153 80.0951L192.664 79.6251Z" fill="#463174" fill-rule="nonzero" opacity="1" stroke="none"/>
<path d="M199.085 83.2346C199.102 82.6246 199.346 82.1448 199.816 81.795C200.286 81.4452 200.969 81.2703 201.864 81.2703L204.777 81.2703C205.129 81.2703 205.464 81.2606 205.78 81.241C206.096 81.2214 206.373 81.1738 206.611 81.0983C206.849 81.0227 207.038 80.9122 207.178 80.7667C207.317 80.6212 207.387 80.4225 207.387 80.1707C207.387 79.958 207.323 79.7831 207.194 79.646C207.066 79.5089 206.898 79.4012 206.691 79.3229C206.484 79.2445 206.251 79.1913 205.994 79.1634C205.737 79.1354 205.482 79.1214 205.23 79.1214L205.23 77.686C205.42 77.686 205.611 77.6622 205.801 77.6146C205.991 77.567 206.162 77.4957 206.313 77.4006C206.464 77.3054 206.586 77.1879 206.678 77.048C206.77 76.9081 206.817 76.7458 206.817 76.5611C206.817 76.3541 206.747 76.1694 206.607 76.0071C206.467 75.8448 206.272 75.7077 206.023 75.5958C205.774 75.4838 205.479 75.3971 205.138 75.3355C204.796 75.274 204.421 75.2432 204.013 75.2432C203.403 75.2432 202.891 75.302 202.477 75.4195C202.063 75.537 201.721 75.7441 201.453 76.0407C201.587 75.9903 201.727 75.9511 201.872 75.9231C202.018 75.8952 202.155 75.8812 202.284 75.8812C202.631 75.8812 202.947 75.9371 203.232 76.0491C203.518 76.161 203.762 76.3149 203.967 76.5108C204.171 76.7066 204.329 76.9389 204.441 77.2075C204.553 77.4761 204.609 77.7671 204.609 78.0805C204.609 78.4163 204.55 78.7492 204.433 79.0794C204.315 79.4096 204.146 79.7034 203.925 79.9608C203.704 80.2183 203.434 80.4267 203.115 80.5862C202.796 80.7457 202.435 80.8254 202.032 80.8254C201.651 80.8254 201.3 80.7597 200.978 80.6282C200.657 80.4967 200.375 80.3022 200.135 80.0448C199.894 79.7873 199.707 79.4698 199.572 79.092C199.438 78.7143 199.371 78.2792 199.371 77.7867C199.371 77.1095 199.487 76.5219 199.719 76.0239C199.951 75.5258 200.275 75.1131 200.689 74.7857C201.103 74.4583 201.594 74.2149 202.162 74.0554C202.73 73.8959 203.347 73.8162 204.013 73.8162C204.326 73.8162 204.654 73.833 204.995 73.8665C205.336 73.9001 205.669 73.9547 205.994 74.0302C206.319 74.1058 206.626 74.2093 206.917 74.3408C207.208 74.4723 207.464 74.6346 207.685 74.8277C207.906 75.0208 208.081 75.2516 208.21 75.5202C208.339 75.7888 208.403 76.0994 208.403 76.452C208.403 76.6143 208.378 76.7738 208.328 76.9305C208.277 77.0872 208.209 77.2355 208.122 77.3754C208.035 77.5153 207.936 77.6468 207.824 77.7699C207.712 77.893 207.594 77.9993 207.471 78.0889C207.712 78.1616 207.926 78.2666 208.114 78.4037C208.301 78.5408 208.459 78.6989 208.588 78.878C208.717 79.057 208.814 79.2557 208.882 79.474C208.949 79.6922 208.982 79.9189 208.982 80.1539C208.982 80.5121 208.922 80.8464 208.802 81.157C208.682 81.4676 208.491 81.7362 208.231 81.9629C207.971 82.1895 207.635 82.3686 207.224 82.5001C206.812 82.6316 206.319 82.6974 205.742 82.6974L201.704 82.6974C201.011 82.6974 200.664 82.8737 200.664 83.2262C200.664 83.3997 200.746 83.5452 200.911 83.6627C201.076 83.7803 201.341 83.839 201.704 83.839L208.982 83.839L208.982 85.2577L201.704 85.2577C201.307 85.2577 200.948 85.2129 200.626 85.1234C200.304 85.0338 200.03 84.9023 199.803 84.7288C199.576 84.5553 199.4 84.3427 199.274 84.0908C199.148 83.839 199.085 83.5536 199.085 83.2346ZM203.022 78.1476C203.022 78.0021 203 77.8594 202.955 77.7195C202.91 77.5796 202.845 77.4565 202.758 77.3502C202.671 77.2439 202.563 77.1585 202.435 77.0942C202.306 77.0298 202.161 76.9976 201.998 76.9976C201.679 76.9976 201.427 77.1067 201.243 77.325C201.058 77.5433 200.966 77.8287 200.966 78.1812C200.966 78.3827 200.994 78.559 201.05 78.7101C201.106 78.8612 201.181 78.9885 201.276 79.092C201.371 79.1955 201.479 79.2725 201.6 79.3229C201.72 79.3732 201.847 79.3984 201.981 79.3984C202.116 79.3984 202.246 79.3704 202.372 79.3145C202.498 79.2585 202.61 79.1774 202.708 79.071C202.806 78.9647 202.882 78.8332 202.938 78.6765C202.994 78.5198 203.022 78.3435 203.022 78.1476Z" fill="#463174" fill-rule="nonzero" opacity="1" stroke="none"/>
<path d="M215.765 80.1119C215.765 80.5037 215.689 80.873 215.538 81.22C215.387 81.5669 215.184 81.8691 214.93 82.1266C214.675 82.384 214.38 82.5869 214.044 82.7352C213.708 82.8835 213.353 82.9576 212.978 82.9576C212.558 82.9576 212.176 82.8695 211.832 82.6932C211.488 82.5169 211.196 82.2861 210.955 82.0007C210.714 81.7152 210.528 81.3935 210.397 81.0353C210.265 80.6771 210.2 80.3162 210.2 79.9524C210.2 79.5607 210.269 79.1885 210.409 78.836C210.549 78.4834 210.742 78.1742 210.989 77.9084C211.235 77.6426 211.527 77.4327 211.866 77.2788C212.204 77.1249 212.575 77.048 212.978 77.048C213.437 77.048 213.84 77.1333 214.187 77.304C214.534 77.4747 214.825 77.7027 215.06 77.9882C215.295 78.2736 215.471 78.6009 215.589 78.9703C215.706 79.3396 215.765 79.7202 215.765 80.1119ZM211.677 80.0364C211.677 80.2378 211.711 80.4309 211.778 80.6156C211.845 80.8003 211.936 80.9626 212.05 81.1025C212.165 81.2424 212.302 81.3529 212.462 81.434C212.621 81.5152 212.793 81.5558 212.978 81.5558C213.174 81.5558 213.352 81.5124 213.511 81.4256C213.671 81.3389 213.808 81.2242 213.922 81.0815C214.037 80.9388 214.125 80.7765 214.187 80.5946C214.248 80.4127 214.279 80.2266 214.279 80.0364C214.279 79.8293 214.247 79.6334 214.183 79.4488C214.118 79.2641 214.029 79.1004 213.914 78.9577C213.799 78.815 213.662 78.7017 213.503 78.6177C213.343 78.5338 213.168 78.4918 212.978 78.4918C212.782 78.4918 212.603 78.5366 212.441 78.6261C212.279 78.7157 212.141 78.8318 212.03 78.9745C211.918 79.1172 211.831 79.2823 211.769 79.4698C211.708 79.6572 211.677 79.8461 211.677 80.0364Z" fill="#463174" fill-rule="nonzero" opacity="1" stroke="none"/>
</g>
</g>
</svg>
