<?xml version="1.0" encoding="UTF-8" standalone="no"?><!DOCTYPE svg PUBLIC "-//W3C//DTD SVG 1.1//EN" "http://www.w3.org/Graphics/SVG/1.1/DTD/svg11.dtd"><svg width="100%" height="100%" viewBox="0 0 1042 834" version="1.1" xmlns="http://www.w3.org/2000/svg" xmlns:xlink="http://www.w3.org/1999/xlink" xml:space="preserve" xmlns:serif="http://www.serif.com/" style="fill-rule:evenodd;clip-rule:evenodd;stroke-linejoin:round;stroke-miterlimit:2;"><path d="M208.087,375.575c7.227,0 13.786,1.286 19.678,3.857c5.892,2.572 10.937,6.039 15.137,10.401c4.199,4.361 7.438,9.407 9.716,15.136c2.279,5.729 3.418,11.719 3.418,17.969l0,55.957l-101.855,0l0,-55.957c0,-6.25 1.172,-12.24 3.515,-17.969c2.344,-5.729 5.795,-10.775 10.352,-15.136c4.557,-4.362 10.189,-7.829 16.895,-10.401c6.705,-2.571 14.42,-3.857 23.144,-3.857Zm29.492,86.718l0,-33.398c0,-4.948 -0.537,-9.587 -1.611,-13.916c-1.074,-4.329 -2.8,-8.154 -5.176,-11.475c-2.376,-3.32 -5.452,-6.038 -9.228,-8.154c-3.776,-2.116 -8.366,-3.467 -13.77,-4.053c2.214,2.214 4.15,4.606 5.811,7.178c1.66,2.572 3.027,5.192 4.101,7.861c1.074,2.67 1.888,5.372 2.442,8.106c0.553,2.734 0.83,5.371 0.83,7.91c0,3.451 -0.391,6.934 -1.172,10.449c-0.781,3.516 -2.116,6.983 -4.004,10.401c-1.888,3.418 -4.427,6.754 -7.617,10.009c-3.19,3.256 -7.162,6.283 -11.914,9.082l41.308,0Zm-64.941,-1.562c3.906,-1.628 7.845,-3.63 11.816,-6.006c3.972,-2.376 7.536,-5.062 10.694,-8.057c3.157,-2.994 5.729,-6.298 7.714,-9.912c1.986,-3.613 2.979,-7.535 2.979,-11.767c0,-6.25 -1.091,-12.061 -3.272,-17.432c-2.18,-5.371 -5.419,-9.945 -9.716,-13.721c-2.279,0.456 -4.606,1.449 -6.983,2.979c-2.376,1.53 -4.541,3.695 -6.494,6.494c-1.953,2.8 -3.564,6.299 -4.834,10.498c-1.269,4.199 -1.904,9.229 -1.904,15.088l0,31.836Z" style="fill:#463174;fill-rule:nonzero;"/><path d="M408.185,478.895l-137.5,0l0,-44.238c0,-9.245 0.846,-17.53 2.539,-24.854c1.692,-7.324 4.427,-13.525 8.203,-18.603c3.776,-5.078 8.724,-8.952 14.844,-11.621c6.119,-2.67 13.574,-4.004 22.363,-4.004c8.789,0 16.227,1.318 22.314,3.955c6.088,2.636 11.019,6.315 14.795,11.035c3.776,4.72 6.511,10.335 8.203,16.846c1.693,6.51 2.54,13.672 2.54,21.484l0,14.258l-77.442,0l0,19.14l100.781,0l0,-85.742l18.36,0l0,102.344Zm-60.059,-52.344c-0.13,-4.752 -0.651,-9.212 -1.562,-13.379c-0.912,-4.166 -2.474,-7.812 -4.688,-10.937c-2.213,-3.125 -5.208,-5.583 -8.984,-7.373c-3.776,-1.791 -8.529,-2.686 -14.258,-2.686c-5.794,0 -10.563,0.895 -14.307,2.686c-3.743,1.79 -6.738,4.248 -8.984,7.373c-2.246,3.125 -3.825,6.771 -4.736,10.937c-0.912,4.167 -1.433,8.627 -1.563,13.379l59.082,0Z" style="fill:#463174;fill-rule:nonzero;"/><path d="M553.204,373.231c4.362,2.344 8.431,5.192 12.207,8.545c3.776,3.353 7.032,7.194 9.766,11.523c2.734,4.33 4.883,9.115 6.445,14.356c1.563,5.241 2.344,10.888 2.344,16.943c0,8.659 -1.449,16.52 -4.346,23.584c-2.897,7.064 -6.868,13.086 -11.914,18.067c-5.045,4.98 -11.002,8.837 -17.871,11.572c-6.868,2.734 -14.274,4.101 -22.217,4.101c-4.362,0 -8.398,-0.374 -12.109,-1.123c-3.711,-0.748 -7.227,-1.806 -10.547,-3.174c-3.255,1.303 -6.722,2.344 -10.4,3.125c-3.679,0.782 -7.569,1.172 -11.67,1.172c-7.943,0 -15.446,-1.351 -22.51,-4.052c-7.064,-2.702 -13.249,-6.527 -18.555,-11.475c-5.306,-4.948 -9.505,-10.921 -12.597,-17.92c-3.093,-6.999 -4.639,-14.827 -4.639,-23.486c0,-6.771 1.058,-13.151 3.174,-19.141c2.116,-5.989 5.013,-11.23 8.691,-15.723c3.679,-4.492 8.008,-8.04 12.988,-10.644c4.981,-2.604 10.368,-3.906 16.163,-3.906c3.906,0 7.714,0.521 11.425,1.562c3.711,1.042 7.129,2.832 10.254,5.371c2.344,-2.278 4.964,-4.004 7.862,-5.175c2.897,-1.172 6.298,-1.758 10.205,-1.758c4.948,0 9.456,1.139 13.525,3.418c4.069,2.278 7.536,5.485 10.4,9.619c2.865,4.134 5.095,9.082 6.69,14.844c1.595,5.761 2.393,12.125 2.393,19.091c0,8.399 -1.368,16.211 -4.102,23.438c-2.734,7.226 -6.641,13.607 -11.719,19.14c0.651,0.066 1.302,0.114 1.953,0.147l2.637,0.049c5.143,0 10.042,-0.96 14.697,-2.881c4.655,-1.921 8.741,-4.639 12.256,-8.154c3.516,-3.516 6.299,-7.764 8.35,-12.745c2.051,-4.98 3.076,-10.563 3.076,-16.748c0,-5.013 -0.716,-9.57 -2.148,-13.671c-1.433,-4.102 -3.288,-7.699 -5.567,-10.791c-2.279,-3.093 -4.801,-5.697 -7.568,-7.813c-2.767,-2.116 -5.518,-3.727 -8.252,-4.834l11.23,-14.453Zm-80.957,49.316c0,-3.711 0.375,-7.666 1.123,-11.865c0.749,-4.199 1.872,-8.317 3.369,-12.353c-1.692,-1.888 -3.629,-3.386 -5.81,-4.493c-2.181,-1.106 -4.248,-1.66 -6.201,-1.66c-2.149,0 -4.476,0.668 -6.983,2.002c-2.506,1.335 -4.85,3.353 -7.031,6.055c-2.181,2.702 -4.004,6.12 -5.469,10.254c-1.465,4.134 -2.197,9.033 -2.197,14.697c0,6.185 1.123,11.768 3.369,16.748c2.246,4.981 5.225,9.196 8.936,12.647c3.711,3.45 7.991,6.103 12.841,7.959c4.851,1.855 9.913,2.783 15.186,2.783c1.237,0 2.604,-0.098 4.102,-0.293c-5.079,-5.599 -8.887,-12.012 -11.426,-19.238c-2.539,-7.227 -3.809,-14.974 -3.809,-23.243Zm47.656,0c0,-4.101 -0.358,-7.991 -1.074,-11.67c-0.716,-3.678 -1.709,-6.901 -2.978,-9.668c-1.27,-2.766 -2.8,-4.964 -4.59,-6.591c-1.79,-1.628 -3.76,-2.442 -5.908,-2.442c-1.758,0 -3.353,0.505 -4.785,1.514c-1.433,1.009 -2.686,2.36 -3.76,4.053c-1.074,1.692 -2.002,3.613 -2.783,5.761c-0.782,2.149 -1.416,4.346 -1.905,6.592c-0.488,2.246 -0.846,4.46 -1.074,6.641c-0.228,2.181 -0.342,4.118 -0.342,5.81c0,3.386 0.261,6.722 0.782,10.01c0.52,3.288 1.334,6.445 2.441,9.473c1.107,3.027 2.506,5.843 4.199,8.447c1.693,2.604 3.711,4.915 6.055,6.934c2.344,-1.888 4.476,-4.086 6.396,-6.592c1.921,-2.507 3.565,-5.257 4.932,-8.252c1.367,-2.995 2.441,-6.169 3.223,-9.522c0.781,-3.352 1.171,-6.852 1.171,-10.498Z" style="fill:#463174;fill-rule:nonzero;"/><path d="M613.946,443.153c0.977,3.19 2.247,6.152 3.809,8.887c1.563,2.734 3.288,5.11 5.176,7.128c1.888,2.019 3.874,3.597 5.957,4.737c2.083,1.139 4.199,1.709 6.348,1.709c3.515,0 6.624,-0.944 9.326,-2.832c2.702,-1.888 4.948,-4.476 6.738,-7.764c1.79,-3.288 3.141,-7.161 4.053,-11.621c0.911,-4.46 1.367,-9.294 1.367,-14.502c0,-3.971 -0.423,-8.105 -1.27,-12.402c-0.846,-4.297 -2.148,-8.252 -3.906,-11.866c-1.758,-3.613 -3.988,-6.591 -6.689,-8.935c-2.702,-2.344 -5.909,-3.516 -9.619,-3.516c-4.688,0 -8.822,1.693 -12.403,5.078c-3.581,3.386 -6.347,8.431 -8.301,15.137l-18.066,-5.566c1.302,-4.102 3.092,-8.024 5.371,-11.768c2.279,-3.743 5.046,-7.064 8.301,-9.961c3.255,-2.897 6.982,-5.208 11.181,-6.933c4.2,-1.726 8.838,-2.588 13.917,-2.588c5.013,0 9.488,0.765 13.427,2.295c3.939,1.53 7.39,3.629 10.352,6.298c2.962,2.67 5.469,5.762 7.519,9.278c2.051,3.515 3.711,7.243 4.981,11.181c1.269,3.939 2.197,7.992 2.783,12.159c0.586,4.166 0.879,8.203 0.879,12.109c0,6.576 -0.716,13.021 -2.149,19.336c-1.432,6.315 -3.727,11.979 -6.884,16.992c-3.158,5.013 -7.276,9.05 -12.354,12.11c-5.078,3.059 -11.263,4.589 -18.554,4.589c-4.883,0 -9.392,-0.797 -13.526,-2.392c-4.134,-1.595 -7.845,-3.841 -11.133,-6.739c-3.287,-2.897 -6.119,-6.396 -8.496,-10.498c-2.376,-4.101 -4.28,-8.658 -5.713,-13.671l17.578,-5.469Z" style="fill:#463174;fill-rule:nonzero;"/><path d="M688.653,485.145c0.196,-7.096 3.028,-12.679 8.497,-16.748c5.468,-4.069 13.411,-6.104 23.828,-6.104l33.886,0c4.102,0 7.992,-0.113 11.67,-0.341c3.679,-0.228 6.901,-0.782 9.668,-1.661c2.767,-0.878 4.964,-2.164 6.592,-3.857c1.628,-1.693 2.442,-4.004 2.442,-6.934c0,-2.473 -0.749,-4.508 -2.247,-6.103c-1.497,-1.595 -3.45,-2.848 -5.859,-3.76c-2.409,-0.911 -5.111,-1.53 -8.105,-1.855c-2.995,-0.326 -5.957,-0.489 -8.887,-0.489l0,-16.699c2.213,0 4.427,-0.276 6.64,-0.83c2.214,-0.553 4.2,-1.383 5.958,-2.49c1.757,-1.107 3.173,-2.474 4.248,-4.102c1.074,-1.627 1.611,-3.515 1.611,-5.664c0,-2.409 -0.814,-4.557 -2.442,-6.445c-1.627,-1.888 -3.889,-3.483 -6.787,-4.785c-2.897,-1.302 -6.331,-2.311 -10.302,-3.028c-3.972,-0.716 -8.334,-1.074 -13.086,-1.074c-7.097,0 -13.054,0.684 -17.871,2.051c-4.818,1.367 -8.789,3.776 -11.914,7.227c1.562,-0.586 3.19,-1.042 4.882,-1.368c1.693,-0.325 3.288,-0.488 4.786,-0.488c4.036,0 7.714,0.651 11.035,1.953c3.32,1.302 6.168,3.093 8.545,5.371c2.376,2.279 4.215,4.981 5.517,8.106c1.302,3.125 1.953,6.51 1.953,10.156c0,3.906 -0.683,7.78 -2.05,11.621c-1.368,3.841 -3.337,7.259 -5.909,10.254c-2.571,2.995 -5.713,5.42 -9.424,7.275c-3.71,1.856 -7.91,2.784 -12.597,2.784c-4.427,0 -8.513,-0.765 -12.256,-2.295c-3.744,-1.53 -7.015,-3.793 -9.814,-6.787c-2.8,-2.995 -4.981,-6.69 -6.543,-11.084c-1.563,-4.395 -2.344,-9.457 -2.344,-15.186c0,-7.877 1.351,-14.713 4.053,-20.508c2.701,-5.794 6.461,-10.595 11.279,-14.404c4.818,-3.809 10.53,-6.641 17.138,-8.496c6.609,-1.856 13.786,-2.783 21.534,-2.783c3.646,0 7.454,0.195 11.425,0.586c3.972,0.39 7.846,1.025 11.622,1.904c3.776,0.879 7.356,2.083 10.742,3.613c3.385,1.53 6.364,3.418 8.935,5.664c2.572,2.246 4.606,4.932 6.104,8.057c1.497,3.125 2.246,6.738 2.246,10.84c0,1.888 -0.293,3.743 -0.879,5.566c-0.586,1.823 -1.383,3.548 -2.393,5.176c-1.009,1.628 -2.164,3.158 -3.466,4.59c-1.302,1.432 -2.67,2.669 -4.102,3.711c2.8,0.846 5.29,2.067 7.471,3.662c2.181,1.595 4.02,3.434 5.517,5.517c1.498,2.084 2.637,4.395 3.418,6.934c0.782,2.539 1.172,5.176 1.172,7.91c0,4.167 -0.7,8.057 -2.099,11.67c-1.4,3.613 -3.614,6.738 -6.641,9.375c-3.027,2.637 -6.934,4.72 -11.719,6.25c-4.785,1.53 -10.53,2.295 -17.236,2.295l-46.973,0c-8.073,0 -12.109,2.051 -12.109,6.152c0,2.019 0.96,3.711 2.881,5.078c1.92,1.368 4.996,2.051 9.228,2.051l84.668,0l0,16.504l-84.668,0c-4.622,0 -8.805,-0.521 -12.549,-1.562c-3.743,-1.042 -6.933,-2.572 -9.57,-4.59c-2.637,-2.018 -4.687,-4.492 -6.152,-7.422c-1.465,-2.93 -2.198,-6.25 -2.198,-9.961Zm45.801,-59.18c0,-1.692 -0.26,-3.353 -0.781,-4.98c-0.521,-1.628 -1.286,-3.06 -2.295,-4.297c-1.009,-1.237 -2.262,-2.23 -3.76,-2.979c-1.497,-0.748 -3.19,-1.123 -5.078,-1.123c-3.711,0 -6.64,1.27 -8.789,3.809c-2.148,2.539 -3.223,5.859 -3.223,9.961c0,2.344 0.326,4.394 0.977,6.152c0.651,1.758 1.53,3.239 2.637,4.444c1.107,1.204 2.36,2.099 3.76,2.685c1.399,0.586 2.88,0.879 4.443,0.879c1.562,0 3.076,-0.325 4.541,-0.976c1.465,-0.651 2.767,-1.596 3.906,-2.832c1.139,-1.237 2.035,-2.767 2.686,-4.59c0.651,-1.823 0.976,-3.874 0.976,-6.153Z" style="fill:#463174;fill-rule:nonzero;"/><path d="M882.696,448.817c0,4.557 -0.878,8.854 -2.636,12.891c-1.758,4.036 -4.118,7.552 -7.08,10.546c-2.963,2.995 -6.397,5.355 -10.303,7.08c-3.906,1.726 -8.04,2.588 -12.402,2.588c-4.883,0 -9.327,-1.025 -13.331,-3.076c-4.003,-2.051 -7.405,-4.736 -10.205,-8.056c-2.799,-3.321 -4.964,-7.064 -6.494,-11.231c-1.53,-4.167 -2.295,-8.366 -2.295,-12.598c0,-4.557 0.814,-8.886 2.442,-12.988c1.627,-4.101 3.873,-7.698 6.738,-10.791c2.865,-3.092 6.266,-5.534 10.205,-7.324c3.939,-1.79 8.252,-2.686 12.94,-2.686c5.338,0 10.026,0.993 14.062,2.979c4.037,1.986 7.422,4.639 10.156,7.959c2.735,3.32 4.785,7.129 6.153,11.426c1.367,4.297 2.05,8.724 2.05,13.281Zm-47.558,-0.879c0,2.344 0.39,4.59 1.172,6.738c0.781,2.149 1.839,4.037 3.174,5.664c1.334,1.628 2.929,2.914 4.785,3.858c1.855,0.944 3.857,1.416 6.006,1.416c2.278,0 4.345,-0.505 6.201,-1.514c1.855,-1.009 3.45,-2.344 4.785,-4.004c1.335,-1.66 2.36,-3.548 3.076,-5.664c0.716,-2.116 1.074,-4.28 1.074,-6.494c0,-2.409 -0.374,-4.688 -1.123,-6.836c-0.748,-2.148 -1.79,-4.053 -3.125,-5.713c-1.334,-1.66 -2.929,-2.978 -4.785,-3.955c-1.855,-0.976 -3.89,-1.465 -6.103,-1.465c-2.279,0 -4.362,0.521 -6.25,1.563c-1.888,1.041 -3.484,2.392 -4.786,4.052c-1.302,1.661 -2.311,3.581 -3.027,5.762c-0.716,2.181 -1.074,4.378 -1.074,6.592Z" style="fill:#463174;fill-rule:nonzero;"/></svg>