<?xml version="1.0" encoding="UTF-8" standalone="no"?>
<!DOCTYPE svg PUBLIC "-//W3C//DTD SVG 1.1//EN" "http://www.w3.org/Graphics/SVG/1.1/DTD/svg11.dtd">
<!-- Created with Vectornator (http://vectornator.io/) -->
<svg height="100%" stroke-miterlimit="10" style="fill-rule:nonzero;clip-rule:evenodd;stroke-linecap:round;stroke-linejoin:round;" version="1.1" viewBox="111.403 99.6033 52.2828 22.6193" width="100%" xml:space="preserve" xmlns="http://www.w3.org/2000/svg" xmlns:vectornator="http://vectornator.io" xmlns:xlink="http://www.w3.org/1999/xlink">
<defs/>
<clipPath id="ArtboardFrame">
<rect height="22.6193" width="52.2828" x="111.403" y="99.6033"/>
</clipPath>
<g clip-path="url(#ArtboardFrame)" id="Layer" vectornator:layerName="Layer">
<g opacity="1" vectornator:layerName="Group 5">
<path d="M121.811 122.15L123.639 122.15L123.639 108.061L126.588 108.061L126.588 106.501L111.403 106.501L111.403 108.061L114.815 108.061L114.815 113.911L113.621 114.813C113.645 115.861 114.206 117.299 115.083 118.03L116.619 118.03L116.619 115.544L121.811 115.544L121.811 122.15ZM121.811 108.061L121.811 113.862L116.643 113.862L116.643 108.061L121.811 108.061Z" fill="#463174" fill-rule="nonzero" opacity="1" stroke="none"/>
<path d="M129.781 115.495L129.805 115.422C130.049 115.495 130.439 115.52 130.634 115.52C132.194 115.471 133.583 114.569 133.583 112.546L133.583 108.061L136.386 108.061L136.386 106.501L125.516 106.501L125.516 108.061L131.755 108.061L131.755 112.375C131.755 113.521 131.195 113.984 130.122 113.984C129.001 113.984 128.319 113.35 127.88 112.839L126.491 113.935L132.803 122.223L134.29 121.223L131.463 117.518C130.805 116.665 130.317 116.105 129.781 115.495Z" fill="#463174" fill-rule="nonzero" opacity="1" stroke="none"/>
<path d="M140.091 108.061L143.041 108.061L143.041 106.501L135.314 106.501L135.314 108.061L138.263 108.061L138.263 122.15L140.091 122.15L140.091 108.061Z" fill="#463174" fill-rule="nonzero" opacity="1" stroke="none"/>
<path d="M143.65 115.788C143.65 118.737 146.112 121.15 149.524 121.15C152.985 121.15 155.35 118.932 155.35 116.105C155.35 113.472 153.351 111.985 151.889 111.352L151.889 108.061L157.031 108.061L157.031 106.501L141.968 106.501L141.968 108.061L150.036 108.061L150.036 110.84L147.209 111.717C144.844 112.424 143.65 113.667 143.65 115.788ZM149.305 119.468C146.843 119.468 145.527 117.762 145.527 116.08C145.527 114.691 146.014 113.814 148.379 113.131L150.329 112.546C151.523 112.814 153.497 113.862 153.497 115.958C153.497 117.811 152.181 119.468 149.305 119.468Z" fill="#463174" fill-rule="nonzero" opacity="1" stroke="none"/>
<path d="M160.736 108.061L163.686 108.061L163.686 106.501L160.712 106.501C160.395 102.333 158.031 99.6033 154.789 99.6033C152.498 99.6033 151.011 101.09 151.011 102.918C151.011 103.796 151.328 104.576 151.791 105.063L153.643 104.673C153.132 104.186 152.912 103.552 152.912 102.967C152.912 101.943 153.643 101.212 154.838 101.212C157.226 101.212 158.762 103.747 158.908 106.501L155.959 106.501L155.959 108.061L158.908 108.061L158.908 122.15L160.736 122.15L160.736 108.061Z" fill="#463174" fill-rule="nonzero" opacity="1" stroke="none"/>
</g>
</g>
</svg>
