<?xml version="1.0" encoding="UTF-8" standalone="no"?><!DOCTYPE svg PUBLIC "-//W3C//DTD SVG 1.1//EN" "http://www.w3.org/Graphics/SVG/1.1/DTD/svg11.dtd"><svg width="100%" height="100%" viewBox="0 0 3950 796" version="1.1" xmlns="http://www.w3.org/2000/svg" xmlns:xlink="http://www.w3.org/1999/xlink" xml:space="preserve" xmlns:serif="http://www.serif.com/" style="fill-rule:evenodd;clip-rule:evenodd;stroke-linejoin:round;stroke-miterlimit:2;"><clipPath id="_clip1"><rect id="Meta_Platforms_Inc._logo" x="0" y="0" width="3950" height="795.833"/></clipPath><g clip-path="url(#_clip1)"><path id="Logo0" d="M129.417,524.833c0,45.75 10.041,80.875 23.166,102.125c17.209,27.834 42.875,39.625 69.042,39.625c33.75,0 64.625,-8.375 124.125,-90.666c47.667,-65.959 103.833,-158.542 141.625,-216.584l64,-98.333c44.458,-68.292 95.917,-144.208 154.917,-195.667c48.166,-42 100.125,-65.333 152.416,-65.333c87.792,0 171.417,50.875 235.417,146.292c70.042,104.5 104.042,236.125 104.042,371.958c0,80.75 -15.917,140.083 -43,186.958c-26.167,45.334 -77.167,90.625 -162.959,90.625l0,-129.25c73.459,0 91.792,-67.5 91.792,-144.75c0,-110.083 -25.667,-232.25 -82.208,-319.541c-40.125,-61.917 -92.125,-99.75 -149.334,-99.75c-61.875,0 -111.666,46.666 -167.625,129.875c-29.75,44.208 -60.291,98.083 -94.583,158.875l-37.75,66.875c-75.833,134.458 -95.042,165.083 -132.958,215.625c-66.459,88.5 -123.209,122.041 -197.917,122.041c-88.625,0 -144.667,-38.375 -179.375,-96.208c-28.333,-47.125 -42.25,-108.958 -42.25,-179.417l129.417,4.625Z" style="fill:#fff;fill-rule:nonzero;"/><path id="Logo1" d="M102.042,155.417c59.333,-91.459 144.958,-155.417 243.166,-155.417c56.875,0 113.417,16.833 172.459,65.042c64.583,52.708 133.416,139.5 219.291,282.541l30.792,51.334c74.333,123.833 116.625,187.541 141.375,217.583c31.833,38.583 54.125,50.083 83.083,50.083c73.459,0 91.792,-67.5 91.792,-144.75l114.167,-3.583c0,80.75 -15.917,140.083 -43,186.958c-26.167,45.334 -77.167,90.625 -162.959,90.625c-53.333,0 -100.583,-11.583 -152.833,-60.875c-40.167,-37.833 -87.125,-105.041 -123.25,-165.458l-107.458,-179.5c-53.917,-90.083 -103.375,-157.25 -132,-187.667c-30.792,-32.708 -70.375,-72.208 -133.542,-72.208c-51.125,0 -94.542,35.875 -130.875,90.75l-110.208,-65.458Z" style="fill:url(#_Linear2);fill-rule:nonzero;"/><path id="Logo2" d="M343.125,130.125c-51.125,0 -94.542,35.875 -130.875,90.75c-51.375,77.542 -82.833,193.042 -82.833,303.958c0,45.75 10.041,80.875 23.166,102.125l-110.333,72.667c-28.333,-47.125 -42.25,-108.958 -42.25,-179.417c0,-128.125 35.167,-261.666 102.042,-364.791c59.333,-91.459 144.958,-155.417 243.166,-155.417l-2.083,130.125Z" style="fill:url(#_Linear3);fill-rule:nonzero;"/><path id="Text" d="M1449.75,25.167l149.708,0l254.542,460.5l254.583,-460.5l146.459,0l0,756.666l-122.125,0l0,-579.916l-223.25,401.583l-114.584,0l-223.208,-401.583l0,579.916l-122.125,0l0,-756.666Zm1187.96,282.125c-87.583,0 -140.333,65.916 -152.958,147.541l297.25,0c-6.125,-84.083 -54.625,-147.541 -144.292,-147.541Zm-274.041,194.041c0,-171.75 111,-296.75 276.166,-296.75c162.459,0 259.459,123.417 259.459,305.917l0,33.542l-414.542,0c14.708,88.791 73.625,148.625 168.625,148.625c75.792,0 123.167,-23.125 168.083,-65.417l64.875,79.458c-61.125,56.209 -138.875,88.625 -237.291,88.625c-178.792,0 -285.375,-130.375 -285.375,-294Zm683.708,-183.208l-112.417,0l0,-100l112.417,0l0,-165.375l117.833,0l0,165.375l170.792,0l0,100l-170.792,0l0,253.458c0,86.542 27.667,117.292 95.667,117.292c31.042,0 48.833,-2.667 75.125,-7.042l0,98.917c-32.75,9.25 -64,13.5 -97.833,13.5c-127.209,0 -190.792,-69.5 -190.792,-208.625l0,-267.5Zm784.792,97.25c-23.667,-59.75 -76.459,-103.75 -154.042,-103.75c-100.833,0 -165.375,71.542 -165.375,188.083c0,113.625 59.417,188.625 160.542,188.625c79.5,0 136.25,-46.25 158.875,-103.791l0,-169.167Zm117.833,366.458l-115.667,0l0,-78.916c-32.333,46.458 -91.166,92.416 -186.458,92.416c-153.25,0 -255.667,-128.291 -255.667,-295.625c0,-168.916 104.875,-295.125 262.167,-295.125c77.75,0 138.75,31.084 179.958,85.959l0,-72.417l115.667,0l0,563.708Z" style="fill:#fff;fill-rule:nonzero;"/></g><defs><linearGradient id="_Linear2" x1="0" y1="0" x2="1" y2="0" gradientUnits="userSpaceOnUse" gradientTransform="matrix(825,41.6667,-41.6667,825,254.167,487.5)"><stop offset="0" style="stop-color:#fff;stop-opacity:1"/><stop offset="0.4" style="stop-color:#fff;stop-opacity:1"/><stop offset="0.83" style="stop-color:#fff;stop-opacity:1"/><stop offset="1" style="stop-color:#fff;stop-opacity:1"/></linearGradient><linearGradient id="_Linear3" x1="0" y1="0" x2="1" y2="0" gradientUnits="userSpaceOnUse" gradientTransform="matrix(1.86248e-14,-304.167,304.167,1.86248e-14,187.5,579.167)"><stop offset="0" style="stop-color:#fff;stop-opacity:1"/><stop offset="1" style="stop-color:#fff;stop-opacity:1"/></linearGradient></defs></svg>