<?xml version="1.0" encoding="UTF-8" standalone="no"?><!DOCTYPE svg PUBLIC "-//W3C//DTD SVG 1.1//EN" "http://www.w3.org/Graphics/SVG/1.1/DTD/svg11.dtd"><svg width="100%" height="100%" viewBox="0 0 659 839" version="1.1" xmlns="http://www.w3.org/2000/svg" xmlns:xlink="http://www.w3.org/1999/xlink" xml:space="preserve" xmlns:serif="http://www.serif.com/" style="fill-rule:evenodd;clip-rule:evenodd;stroke-linejoin:round;stroke-miterlimit:10;"><g id="Layer"><g><g><path d="M78.458,124.158c0,-34.383 25.125,-62.258 56.167,-62.258l252.083,0c31,0 56.125,27.875 56.125,62.258l0,544.209c0,34.383 -25.125,62.254 -56.125,62.254l-252.083,0c-31.042,0 -56.167,-27.871 -56.167,-62.254l0,-544.209Z" style="fill:#c0a3ff;fill-rule:nonzero;stroke:#463174;stroke-width:11.67px;"/><path d="M211.917,83.992c0,-6.534 5.291,-11.829 11.791,-11.829l73.875,0c6.542,0 11.834,5.295 11.834,11.829c0,6.533 -5.292,11.829 -11.834,11.829l-73.875,0c-6.5,0 -11.791,-5.296 -11.791,-11.829Z" style="fill:#463174;fill-rule:nonzero;"/><path d="M444.958,213.471l-7.875,0l0,92.866l7.875,0c4.334,0 7.875,-3.52 7.875,-7.866l0,-77.138c0,-4.341 -3.541,-7.862 -7.875,-7.862Z" style="fill:#463174;fill-rule:nonzero;"/><path d="M73.125,177.742l5.333,0l0,35.729l-5.333,0c-2.958,0 -5.333,-2.392 -5.333,-5.346l0,-25.037c0,-2.95 2.375,-5.346 5.333,-5.346Z" style="fill:#463174;fill-rule:nonzero;"/><path d="M73.125,235.629l5.333,0l0,51.034l-5.333,0c-2.958,0 -5.333,-2.396 -5.333,-5.346l0,-40.346c0,-2.95 2.375,-5.342 5.333,-5.342Z" style="fill:#463174;fill-rule:nonzero;"/><path d="M73.125,292.775l5.333,0l0,51.033l-5.333,0c-2.958,0 -5.333,-2.396 -5.333,-5.346l0,-40.341c0,-2.954 2.375,-5.346 5.333,-5.346Z" style="fill:#463174;fill-rule:nonzero;"/><path d="M476.25,808.942c0,-15.088 40.917,-27.321 91.375,-27.321c50.458,0 91.375,12.233 91.375,27.321c0,15.091 -40.917,27.321 -91.375,27.321c-50.458,0 -91.375,-12.23 -91.375,-27.321Z" style="fill:#7451c2;fill-rule:nonzero;"/><g><path d="M469.917,753.721c6.625,-38.825 42.916,-65.021 81.083,-58.508c38.125,6.508 63.667,43.266 57.042,82.091c-6.625,38.829 -11.375,66.688 -81.042,58.513c-69.625,-8.167 -63.708,-43.267 -57.083,-82.096Z" style="fill:#fff;fill-rule:nonzero;stroke:#463174;stroke-width:3.12px;"/></g><path d="M472.5,743.942c9,7.35 12,8.458 12.958,9.058c0,0 -0.5,1.096 -1.166,2.192c-2.042,3.533 -11,3.758 -15.042,2.475l3.25,-13.725Z" style="fill:#463174;fill-rule:nonzero;"/><g><path d="M492.042,727.85c0.833,-5.483 5.916,-9.271 11.375,-8.458c5.458,0.816 9.25,5.921 8.416,11.408c-0.791,5.483 -5.916,9.271 -11.375,8.458c-5.458,-0.812 -9.25,-5.92 -8.416,-11.408Z" style="fill:#463174;fill-rule:nonzero;"/><path d="M495.083,724.279c0.334,-2.404 2.584,-4.062 4.959,-3.708c2.416,0.358 4.041,2.596 3.708,5c-0.375,2.404 -2.583,4.062 -5,3.704c-2.375,-0.354 -4.042,-2.592 -3.667,-4.996Z" style="fill:#fff;fill-rule:nonzero;"/></g><path d="M470.667,758.008c0,0 1.791,-4.787 5.958,-6.254c4.25,-1.487 8.833,1.242 8.833,1.242c0,0 -1.458,5.592 -8.791,5.6c-4.25,0.004 -6,-0.588 -6,-0.588Z" style="fill:#593f92;fill-rule:nonzero;"/><path d="M530.958,584.092l3.334,0c0.791,0 1.458,0.654 1.458,1.446l0,3.316c0,0.8 -0.667,1.446 -1.458,1.446l-3.334,0c-0.791,0 -1.416,-0.646 -1.416,-1.446l0,-3.316c-0.042,-0.384 0.125,-0.75 0.416,-1.025c0.25,-0.271 0.625,-0.421 1,-0.421Zm11.5,0l3.334,0c0.791,0.004 1.416,0.65 1.416,1.446l0,3.316c0,0.8 -0.625,1.446 -1.416,1.446l-3.334,0c-0.791,0 -1.416,-0.646 -1.458,-1.446l0,-3.316c0,-0.796 0.667,-1.442 1.458,-1.446Zm11.5,0l3.334,0c0.791,0.004 1.458,0.65 1.458,1.446l0,3.316c0,0.8 -0.667,1.446 -1.458,1.446l-3.334,0c-0.791,0 -1.416,-0.646 -1.416,-1.446l0,-3.316c-0.042,-0.384 0.125,-0.75 0.416,-1.025c0.25,-0.271 0.625,-0.421 1,-0.421Zm11.5,0l3.334,0c0.791,0.004 1.416,0.65 1.458,1.446l0,3.316c0,0.8 -0.667,1.446 -1.458,1.446l-3.334,0c-0.791,0 -1.458,-0.646 -1.458,-1.446l0,-3.316c0.042,-0.796 0.667,-1.442 1.458,-1.446Zm11.5,0l3.334,0c0.791,0 1.458,0.654 1.458,1.446l0,3.316c0,0.8 -0.667,1.446 -1.458,1.446l-3.334,0c-0.791,0 -1.458,-0.646 -1.458,-1.446l0,-3.316c0,-0.796 0.667,-1.442 1.458,-1.446Zm-34.083,12.537l3.333,0c0.792,0.004 1.459,0.65 1.459,1.446l0,3.325c0,0.792 -0.667,1.446 -1.459,1.446l-3.333,0c-0.792,0 -1.417,-0.646 -1.417,-1.446l0,-3.317c-0.041,-0.387 0.125,-0.758 0.417,-1.029c0.25,-0.275 0.625,-0.429 1,-0.425Zm11.5,0l3.333,0c0.792,0.004 1.417,0.65 1.459,1.446l0,3.325c0,0.792 -0.667,1.446 -1.459,1.446l-3.333,0c-0.792,-0.004 -1.417,-0.65 -1.458,-1.446l0,-3.317c0,-0.387 0.166,-0.758 0.458,-1.029c0.25,-0.275 0.625,-0.429 1,-0.425Zm11.5,0l3.333,0c0.792,0 1.459,0.65 1.459,1.446l0,3.325c0,0.8 -0.667,1.446 -1.459,1.446l-3.333,0c-0.792,-0.004 -1.417,-0.65 -1.458,-1.446l0,-3.317c0,-0.804 0.666,-1.454 1.458,-1.454Zm-11.917,-26.004l3.334,0c0.791,0 1.458,0.65 1.458,1.446l0,3.316c0,0.8 -0.667,1.446 -1.458,1.446l-3.334,0c-0.791,-0.004 -1.416,-0.65 -1.416,-1.446l0,-3.316c-0.042,-0.384 0.125,-0.754 0.416,-1.025c0.25,-0.271 0.625,-0.425 1,-0.421Zm11.5,0l3.334,0c0.791,0 1.458,0.65 1.458,1.446l0,3.316c0,0.8 -0.667,1.446 -1.458,1.446l-3.334,0c-0.791,0 -1.458,-0.646 -1.458,-1.446l0,-3.316c0.042,-0.8 0.667,-1.442 1.458,-1.446Z" style="fill:#593f92;"/><path d="M76.833,33.338l-3.833,0c-0.917,0 -1.625,-0.746 -1.625,-1.655l0,-3.795c0,-0.917 0.75,-1.655 1.625,-1.655l3.833,0c0.875,0.004 1.625,0.742 1.625,1.655l0,3.795c0,0.438 -0.166,0.863 -0.458,1.171c-0.333,0.313 -0.75,0.488 -1.167,0.484Zm-13.166,0l-3.792,0c-0.917,-0.005 -1.667,-0.742 -1.667,-1.655l0,-3.795c0,-0.917 0.75,-1.655 1.667,-1.655l3.792,0c0.916,0.004 1.625,0.742 1.666,1.655l0,3.795c-0.041,0.913 -0.75,1.655 -1.666,1.655Zm-13.167,0l-3.792,0c-0.916,-0.005 -1.666,-0.742 -1.666,-1.655l0,-3.795c0,-0.917 0.75,-1.655 1.666,-1.655l3.792,0c0.917,0.004 1.667,0.742 1.667,1.655l0,3.795c0,0.438 -0.167,0.863 -0.5,1.171c-0.292,0.313 -0.75,0.488 -1.167,0.484Zm-13.167,0l-3.791,0c-0.917,-0.005 -1.667,-0.742 -1.667,-1.655l0,-3.795c0,-0.917 0.75,-1.655 1.667,-1.655l3.791,0c0.917,0 1.667,0.742 1.667,1.655l0,3.795c0,0.913 -0.75,1.65 -1.667,1.655Zm-13.166,0l-3.792,0c-0.917,0 -1.667,-0.746 -1.667,-1.655l0,-3.795c0,-0.917 0.75,-1.655 1.667,-1.655l3.792,0c0.916,0.004 1.666,0.742 1.666,1.655l0,3.795c0,0.913 -0.75,1.65 -1.666,1.655Zm39,-14.342l-3.792,0c-0.917,-0.004 -1.625,-0.746 -1.667,-1.658l0,-3.8c0,-0.913 0.75,-1.659 1.667,-1.659l3.792,0c0.916,0 1.666,0.742 1.666,1.659l0,3.795c0,0.438 -0.166,0.863 -0.5,1.175c-0.291,0.313 -0.708,0.488 -1.166,0.488Zm-13.125,0l-3.834,0c-0.875,-0.004 -1.625,-0.746 -1.625,-1.658l0,-3.8c0,-0.913 0.75,-1.659 1.625,-1.659l3.834,0c0.875,0.004 1.625,0.746 1.625,1.659l0,3.795c0,0.438 -0.167,0.863 -0.459,1.175c-0.333,0.313 -0.75,0.488 -1.166,0.488Zm-13.167,0l-3.792,0c-0.916,0 -1.666,-0.746 -1.666,-1.658l0,-3.8c0,-0.917 0.75,-1.659 1.666,-1.659l3.792,0c0.917,0.004 1.625,0.746 1.667,1.659l0,3.795c0,0.917 -0.75,1.663 -1.667,1.663Zm13.625,29.754l-3.792,0c-0.916,0 -1.666,-0.746 -1.666,-1.658l0,-3.792c0,-0.917 0.75,-1.658 1.666,-1.658l3.792,0c0.917,0.004 1.667,0.746 1.667,1.658l0,3.792c0,0.441 -0.167,0.862 -0.5,1.175c-0.292,0.308 -0.75,0.483 -1.167,0.483Zm-13.167,0l-3.791,0c-0.917,0 -1.667,-0.746 -1.667,-1.658l0,-3.792c0,-0.917 0.75,-1.658 1.667,-1.658l3.791,0c0.917,0 1.667,0.741 1.667,1.658l0,3.792c0,0.916 -0.75,1.65 -1.667,1.658Z" style="fill:#593f92;"/><path d="M309.625,5.938c0,3.283 2.708,5.941 6,5.941c3.333,0 6,-2.658 6,-5.941c0,-3.28 -2.667,-5.938 -6,-5.938c-3.292,0 -6,2.658 -6,5.938Z" style="fill:#593f92;fill-rule:nonzero;"/><path d="M0,261.004c0,3.279 2.708,5.942 6,5.942c3.333,0 6,-2.663 6,-5.942c0,-3.283 -2.667,-5.942 -6,-5.942c-3.292,0 -6,2.659 -6,5.942Z" style="fill:#593f92;fill-rule:nonzero;"/><path d="M127.375,800.817c0,3.283 2.708,5.941 6,5.941c3.333,0 6,-2.658 6,-5.941c0,-3.279 -2.667,-5.942 -6,-5.942c-3.292,0 -6,2.663 -6,5.942Z" style="fill:#593f92;fill-rule:nonzero;"/><path d="M522.917,265.733c5.291,-2.879 6.625,-10.737 6.625,-10.737c0,0 -7.334,-3.179 -12.625,-0.292c-5.292,2.879 -6.625,10.734 -6.625,10.734c0,0 7.291,3.179 12.625,0.295Z" style="fill:#593f92;fill-rule:nonzero;"/><path d="M300.25,811.254c2.958,-5.267 -0.125,-12.612 -0.125,-12.612c0,0 -7.875,1.2 -10.833,6.466c-2.959,5.267 0.125,12.609 0.125,12.609c0,0 7.875,-1.196 10.833,-6.463Z" style="fill:#593f92;fill-rule:nonzero;"/><path d="M14.167,498.142c10.333,4.375 23.291,-2.817 23.291,-2.817c0,0 -3.833,-14.292 -14.166,-18.662c-10.334,-4.38 -23.292,2.808 -23.292,2.808c0,0 3.833,14.292 14.167,18.671Z" style="fill:#593f92;fill-rule:nonzero;"/></g></g></g></svg>