<?xml version="1.0" encoding="UTF-8" standalone="no"?><!DOCTYPE svg PUBLIC "-//W3C//DTD SVG 1.1//EN" "http://www.w3.org/Graphics/SVG/1.1/DTD/svg11.dtd"><svg width="100%" height="100%" viewBox="0 0 659 839" version="1.1" xmlns="http://www.w3.org/2000/svg" xmlns:xlink="http://www.w3.org/1999/xlink" xml:space="preserve" xmlns:serif="http://www.serif.com/" style="fill-rule:evenodd;clip-rule:evenodd;stroke-linejoin:round;stroke-miterlimit:2;"><g id="Layer"><g><g><g><path d="M107.171,268.05c0,-28.396 23.041,-51.412 51.416,-51.412l206.375,0c28.376,0 51.417,23.016 51.417,51.412l0,268.971c0,28.392 -23.041,51.408 -51.417,51.408l-206.375,0c-28.375,0 -51.416,-23.016 -51.416,-51.408l0,-268.971Z" style="fill:#fff;fill-rule:nonzero;"/><g><g><path d="M152.713,384.25c0,-5.95 4.791,-10.775 10.749,-10.775l37.5,0c5.917,0 10.75,4.825 10.75,10.775c0,5.954 -4.833,10.779 -10.75,10.779l-37.5,0c-5.958,0 -10.749,-4.825 -10.749,-10.779Z" style="fill:#ddd;fill-rule:nonzero;"/><path d="M232.837,384.25c0,-5.95 4.834,-10.775 10.792,-10.775l37.458,0c5.959,0 10.792,4.825 10.792,10.775c0,5.954 -4.833,10.779 -10.792,10.779l-37.458,0c-5.958,0 -10.792,-4.825 -10.792,-10.779Z" style="fill:#ddd;fill-rule:nonzero;"/><path d="M312.962,384.25c0,-5.95 4.834,-10.775 10.792,-10.775l37.458,0c5.959,0 10.792,4.825 10.792,10.775c0,5.954 -4.833,10.779 -10.792,10.779l-37.458,0c-5.958,0 -10.792,-4.825 -10.792,-10.779Z" style="fill:#ddd;fill-rule:nonzero;"/></g><path d="M200.504,422.55c0,-5.95 4.833,-10.775 10.792,-10.775l102.125,0c5.958,0 10.75,4.825 10.75,10.775c0,5.954 -4.792,10.779 -10.75,10.779l-102.125,0c-5.959,0 -10.792,-4.825 -10.792,-10.779Z" style="fill:#ddd;fill-rule:nonzero;"/></g><path d="M142.546,282.879c0,-11.992 9.75,-21.708 21.708,-21.708l196.208,0c11.959,0 21.709,9.716 21.709,21.708l0,38.875c0,11.988 -9.75,21.708 -21.709,21.708l-196.208,0c-11.958,0 -21.708,-9.72 -21.708,-21.708l0,-38.875Z" style="fill:#ddd;fill-rule:nonzero;"/><g><g><path d="M266.65,537.729c0,-12.142 9.875,-21.979 22,-21.979l76.417,0c12.125,0 21.958,9.837 21.958,21.979c0,12.138 -9.833,21.979 -21.958,21.979l-76.417,0c-12.125,0 -22,-9.841 -22,-21.979Z" style="fill:#25d366;fill-rule:nonzero;"/><g><path d="M302.37,532.34l-2.63,10.089l-2.975,0l-1.61,-6.639l-1.667,6.639l-2.975,0l-2.558,-10.089l2.63,0l1.452,7.344l1.796,-7.344l2.702,0l1.725,7.344l1.466,-7.344l2.644,0Z" style="fill:#fff;fill-rule:nonzero;"/><path d="M308.535,534.324c0.92,0 1.658,0.304 2.214,0.912c0.555,0.609 0.833,1.445 0.833,2.508l0,4.685l-2.443,0l0,-4.354c0,-0.537 -0.139,-0.954 -0.417,-1.251c-0.278,-0.297 -0.651,-0.445 -1.121,-0.445c-0.469,0 -0.843,0.148 -1.121,0.445c-0.278,0.297 -0.417,0.714 -0.417,1.251l0,4.354l-2.457,0l0,-10.635l2.457,0l0,3.694c0.25,-0.355 0.59,-0.637 1.021,-0.848c0.431,-0.211 0.915,-0.316 1.451,-0.316Z" style="fill:#fff;fill-rule:nonzero;"/><path d="M312.804,538.405c0,-0.824 0.155,-1.547 0.467,-2.17c0.311,-0.623 0.735,-1.102 1.272,-1.437c0.536,-0.335 1.135,-0.503 1.796,-0.503c0.565,0 1.061,0.115 1.488,0.345c0.426,0.23 0.754,0.532 0.984,0.905l0,-1.135l2.458,0l0,8.019l-2.458,0l0,-1.135c-0.24,0.373 -0.572,0.675 -0.999,0.905c-0.426,0.23 -0.922,0.345 -1.487,0.345c-0.652,0 -1.246,-0.17 -1.782,-0.51c-0.537,-0.34 -0.961,-0.824 -1.272,-1.452c-0.312,-0.627 -0.467,-1.353 -0.467,-2.177Zm6.007,0.015c0,-0.614 -0.17,-1.098 -0.51,-1.452c-0.34,-0.355 -0.755,-0.532 -1.243,-0.532c-0.489,0 -0.903,0.175 -1.243,0.525c-0.341,0.35 -0.511,0.831 -0.511,1.444c0,0.613 0.17,1.1 0.511,1.459c0.34,0.359 0.754,0.539 1.243,0.539c0.488,0 0.903,-0.177 1.243,-0.532c0.34,-0.354 0.51,-0.838 0.51,-1.451Z" style="fill:#fff;fill-rule:nonzero;"/><path d="M327.52,540.345l0,2.084l-1.25,0c-0.891,0 -1.586,-0.218 -2.084,-0.654c-0.498,-0.436 -0.747,-1.147 -0.747,-2.134l0,-3.19l-0.978,0l0,-2.041l0.978,0l0,-1.955l2.457,0l0,1.955l1.61,0l0,2.041l-1.61,0l0,3.219c0,0.239 0.058,0.412 0.173,0.517c0.115,0.106 0.306,0.158 0.574,0.158l0.877,0Z" style="fill:#fff;fill-rule:nonzero;"/><path d="M332.148,542.544c-0.7,0 -1.322,-0.12 -1.869,-0.359c-0.546,-0.24 -0.977,-0.568 -1.293,-0.985c-0.316,-0.416 -0.493,-0.883 -0.532,-1.401l2.429,0c0.029,0.278 0.158,0.503 0.388,0.676c0.23,0.172 0.513,0.258 0.848,0.258c0.307,0 0.544,-0.06 0.711,-0.179c0.168,-0.12 0.252,-0.276 0.252,-0.467c0,-0.23 -0.12,-0.4 -0.359,-0.511c-0.24,-0.11 -0.628,-0.232 -1.164,-0.366c-0.575,-0.134 -1.054,-0.276 -1.438,-0.424c-0.383,-0.149 -0.713,-0.383 -0.991,-0.704c-0.278,-0.321 -0.417,-0.755 -0.417,-1.301c0,-0.46 0.127,-0.879 0.381,-1.257c0.254,-0.379 0.627,-0.678 1.121,-0.899c0.493,-0.22 1.08,-0.33 1.76,-0.33c1.006,0 1.799,0.249 2.379,0.747c0.579,0.498 0.912,1.159 0.999,1.983l-2.271,0c-0.038,-0.277 -0.161,-0.498 -0.367,-0.661c-0.206,-0.163 -0.476,-0.244 -0.812,-0.244c-0.287,0 -0.507,0.055 -0.661,0.165c-0.153,0.111 -0.23,0.261 -0.23,0.453c0,0.23 0.123,0.402 0.367,0.517c0.244,0.115 0.625,0.23 1.142,0.345c0.594,0.154 1.078,0.305 1.452,0.453c0.374,0.149 0.702,0.388 0.984,0.719c0.283,0.33 0.429,0.773 0.439,1.329c0,0.469 -0.132,0.889 -0.395,1.257c-0.264,0.369 -0.642,0.659 -1.136,0.87c-0.493,0.211 -1.066,0.316 -1.717,0.316Z" style="fill:#fff;fill-rule:nonzero;"/><path d="M343.185,540.647l-3.765,0l-0.604,1.782l-2.572,0l3.65,-10.089l2.846,0l3.65,10.089l-2.601,0l-0.604,-1.782Zm-0.632,-1.897l-1.251,-3.693l-1.235,3.693l2.486,0Z" style="fill:#fff;fill-rule:nonzero;"/><path d="M349.954,535.545c0.24,-0.373 0.57,-0.675 0.992,-0.905c0.421,-0.23 0.915,-0.345 1.48,-0.345c0.661,0 1.26,0.168 1.796,0.503c0.537,0.335 0.961,0.814 1.272,1.437c0.312,0.623 0.467,1.346 0.467,2.17c0,0.824 -0.155,1.55 -0.467,2.177c-0.311,0.628 -0.735,1.112 -1.272,1.452c-0.536,0.34 -1.135,0.51 -1.796,0.51c-0.556,0 -1.047,-0.115 -1.473,-0.345c-0.426,-0.23 -0.759,-0.527 -0.999,-0.891l0,4.944l-2.457,0l0,-11.842l2.457,0l0,1.135Zm3.507,2.86c0,-0.613 -0.17,-1.094 -0.51,-1.444c-0.341,-0.35 -0.76,-0.525 -1.258,-0.525c-0.489,0 -0.903,0.177 -1.243,0.532c-0.34,0.354 -0.51,0.838 -0.51,1.452c0,0.613 0.17,1.097 0.51,1.451c0.34,0.355 0.754,0.532 1.243,0.532c0.489,0 0.905,-0.18 1.25,-0.539c0.345,-0.359 0.518,-0.846 0.518,-1.459Z" style="fill:#fff;fill-rule:nonzero;"/><path d="M359.712,535.545c0.24,-0.373 0.57,-0.675 0.992,-0.905c0.422,-0.23 0.915,-0.345 1.48,-0.345c0.661,0 1.26,0.168 1.797,0.503c0.536,0.335 0.96,0.814 1.272,1.437c0.311,0.623 0.467,1.346 0.467,2.17c0,0.824 -0.156,1.55 -0.467,2.177c-0.312,0.628 -0.736,1.112 -1.272,1.452c-0.537,0.34 -1.136,0.51 -1.797,0.51c-0.555,0 -1.046,-0.115 -1.473,-0.345c-0.426,-0.23 -0.759,-0.527 -0.999,-0.891l0,4.944l-2.457,0l0,-11.842l2.457,0l0,1.135Zm3.507,2.86c0,-0.613 -0.17,-1.094 -0.51,-1.444c-0.34,-0.35 -0.759,-0.525 -1.258,-0.525c-0.488,0 -0.903,0.177 -1.243,0.532c-0.34,0.354 -0.51,0.838 -0.51,1.452c0,0.613 0.17,1.097 0.51,1.451c0.34,0.355 0.755,0.532 1.243,0.532c0.489,0 0.906,-0.18 1.251,-0.539c0.345,-0.359 0.517,-0.846 0.517,-1.459Z" style="fill:#fff;fill-rule:nonzero;"/></g></g><g><path d="M136.525,537.729c0,-12.142 9.833,-21.979 22,-21.979l76.417,0c12.125,0 21.958,9.837 21.958,21.979c0,12.138 -9.833,21.979 -21.958,21.979l-76.417,0c-12.167,0 -22,-9.841 -22,-21.979Z" style="fill:url(#_Linear1);fill-rule:nonzero;"/><g><rect x="161.522" y="532.609" width="1.564" height="9.533" style="fill:#fff;fill-rule:nonzero;"/><path d="M168.957,534.46c0.594,0 1.127,0.124 1.598,0.371c0.471,0.247 0.839,0.612 1.104,1.097c0.265,0.485 0.398,1.07 0.398,1.756l0,4.458l-1.55,0l0,-4.225c0,-0.677 -0.169,-1.196 -0.508,-1.557c-0.338,-0.361 -0.8,-0.542 -1.385,-0.542c-0.585,0 -1.05,0.181 -1.392,0.542c-0.343,0.361 -0.515,0.88 -0.515,1.557l0,4.225l-1.564,0l0,-7.558l1.564,0l0,0.864c0.256,-0.311 0.583,-0.553 0.981,-0.727c0.398,-0.174 0.821,-0.261 1.269,-0.261Z" style="fill:#fff;fill-rule:nonzero;"/><path d="M176.789,542.265c-0.594,0 -1.127,-0.107 -1.598,-0.322c-0.471,-0.215 -0.844,-0.508 -1.118,-0.878c-0.274,-0.37 -0.421,-0.784 -0.439,-1.241l1.619,0c0.027,0.32 0.18,0.587 0.459,0.802c0.279,0.215 0.629,0.322 1.05,0.322c0.438,0 0.779,-0.084 1.021,-0.253c0.243,-0.17 0.364,-0.387 0.364,-0.652c0,-0.283 -0.135,-0.494 -0.405,-0.631c-0.269,-0.137 -0.697,-0.288 -1.282,-0.453c-0.567,-0.155 -1.029,-0.306 -1.386,-0.452c-0.356,-0.147 -0.665,-0.371 -0.925,-0.672c-0.261,-0.302 -0.391,-0.7 -0.391,-1.194c0,-0.402 0.118,-0.77 0.356,-1.104c0.238,-0.334 0.579,-0.597 1.022,-0.789c0.444,-0.192 0.953,-0.288 1.53,-0.288c0.859,0 1.552,0.217 2.078,0.652c0.525,0.434 0.807,1.026 0.843,1.776l-1.564,0c-0.027,-0.338 -0.164,-0.608 -0.411,-0.809c-0.247,-0.201 -0.581,-0.302 -1.001,-0.302c-0.412,0 -0.727,0.078 -0.947,0.233c-0.219,0.156 -0.329,0.362 -0.329,0.618c0,0.201 0.073,0.37 0.219,0.507c0.147,0.137 0.325,0.245 0.535,0.322c0.211,0.078 0.522,0.176 0.933,0.295c0.549,0.147 0.999,0.295 1.351,0.446c0.352,0.151 0.656,0.373 0.912,0.665c0.256,0.293 0.389,0.682 0.398,1.166c0,0.43 -0.119,0.814 -0.356,1.152c-0.238,0.339 -0.574,0.604 -1.009,0.796c-0.434,0.192 -0.944,0.288 -1.529,0.288Z" style="fill:#fff;fill-rule:nonzero;"/><path d="M183.195,535.859l0,4.184c0,0.283 0.066,0.487 0.199,0.61c0.132,0.124 0.358,0.186 0.679,0.186l0.96,0l0,1.303l-1.235,0c-0.704,0 -1.243,-0.165 -1.618,-0.494c-0.375,-0.329 -0.563,-0.864 -0.563,-1.605l0,-4.184l-0.891,0l0,-1.275l0.891,0l0,-1.879l1.578,0l0,1.879l1.838,0l0,1.275l-1.838,0Z" style="fill:#fff;fill-rule:nonzero;"/><path d="M185.952,538.328c0,-0.759 0.157,-1.431 0.473,-2.016c0.315,-0.585 0.745,-1.04 1.289,-1.365c0.544,-0.324 1.146,-0.487 1.804,-0.487c0.594,0 1.113,0.117 1.557,0.35c0.443,0.233 0.798,0.524 1.063,0.871l0,-1.097l1.577,0l0,7.558l-1.577,0l0,-1.125c-0.265,0.357 -0.626,0.654 -1.084,0.891c-0.457,0.238 -0.978,0.357 -1.563,0.357c-0.65,0 -1.244,-0.167 -1.784,-0.501c-0.539,-0.333 -0.967,-0.8 -1.282,-1.399c-0.316,-0.599 -0.473,-1.278 -0.473,-2.037Zm6.186,0.028c0,-0.521 -0.107,-0.974 -0.322,-1.358c-0.215,-0.384 -0.496,-0.677 -0.844,-0.878c-0.347,-0.201 -0.722,-0.302 -1.125,-0.302c-0.402,0 -0.777,0.099 -1.124,0.295c-0.348,0.197 -0.629,0.485 -0.844,0.864c-0.215,0.38 -0.322,0.83 -0.322,1.351c0,0.522 0.107,0.979 0.322,1.372c0.215,0.393 0.498,0.693 0.85,0.899c0.352,0.205 0.725,0.308 1.118,0.308c0.403,0 0.778,-0.1 1.125,-0.302c0.348,-0.201 0.629,-0.496 0.844,-0.884c0.215,-0.389 0.322,-0.844 0.322,-1.365Z" style="fill:#fff;fill-rule:nonzero;"/><path d="M198.818,534.46c0.585,0 1.104,0.117 1.557,0.35c0.453,0.233 0.807,0.524 1.063,0.871l0,-1.097l1.577,0l0,7.681c0,0.695 -0.146,1.315 -0.439,1.859c-0.292,0.544 -0.715,0.971 -1.268,1.282c-0.554,0.311 -1.214,0.467 -1.982,0.467c-1.025,0 -1.875,-0.24 -2.552,-0.721c-0.676,-0.48 -1.061,-1.131 -1.152,-1.954l1.55,0c0.119,0.393 0.373,0.711 0.761,0.953c0.389,0.242 0.853,0.364 1.393,0.364c0.631,0 1.14,-0.192 1.529,-0.576c0.389,-0.385 0.583,-0.942 0.583,-1.674l0,-1.262c-0.265,0.357 -0.624,0.656 -1.077,0.899c-0.453,0.242 -0.967,0.363 -1.543,0.363c-0.658,0 -1.26,-0.167 -1.804,-0.501c-0.544,-0.333 -0.974,-0.8 -1.289,-1.399c-0.316,-0.599 -0.473,-1.278 -0.473,-2.037c0,-0.759 0.157,-1.431 0.473,-2.016c0.315,-0.585 0.745,-1.04 1.289,-1.365c0.544,-0.324 1.146,-0.487 1.804,-0.487Zm2.62,3.896c0,-0.521 -0.108,-0.974 -0.322,-1.358c-0.215,-0.384 -0.497,-0.677 -0.844,-0.878c-0.348,-0.201 -0.722,-0.302 -1.125,-0.302c-0.402,0 -0.777,0.099 -1.125,0.295c-0.347,0.197 -0.628,0.485 -0.843,0.864c-0.215,0.38 -0.322,0.83 -0.322,1.351c0,0.522 0.107,0.979 0.322,1.372c0.215,0.393 0.498,0.693 0.85,0.899c0.352,0.205 0.725,0.308 1.118,0.308c0.403,0 0.777,-0.1 1.125,-0.302c0.347,-0.201 0.629,-0.496 0.844,-0.884c0.214,-0.389 0.322,-0.844 0.322,-1.365Z" style="fill:#fff;fill-rule:nonzero;"/><path d="M206.637,535.681c0.228,-0.384 0.532,-0.683 0.912,-0.898c0.379,-0.215 0.83,-0.323 1.351,-0.323l0,1.619l-0.398,0c-0.613,0 -1.077,0.155 -1.392,0.466c-0.316,0.311 -0.473,0.851 -0.473,1.619l0,3.978l-1.564,0l0,-7.558l1.564,0l0,1.097Z" style="fill:#fff;fill-rule:nonzero;"/><path d="M209.819,538.328c0,-0.759 0.158,-1.431 0.473,-2.016c0.316,-0.585 0.745,-1.04 1.289,-1.365c0.545,-0.324 1.146,-0.487 1.804,-0.487c0.595,0 1.113,0.117 1.557,0.35c0.444,0.233 0.798,0.524 1.063,0.871l0,-1.097l1.577,0l0,7.558l-1.577,0l0,-1.125c-0.265,0.357 -0.626,0.654 -1.084,0.891c-0.457,0.238 -0.978,0.357 -1.563,0.357c-0.65,0 -1.244,-0.167 -1.783,-0.501c-0.54,-0.333 -0.967,-0.8 -1.283,-1.399c-0.315,-0.599 -0.473,-1.278 -0.473,-2.037Zm6.186,0.028c0,-0.521 -0.107,-0.974 -0.322,-1.358c-0.215,-0.384 -0.496,-0.677 -0.844,-0.878c-0.347,-0.201 -0.722,-0.302 -1.125,-0.302c-0.402,0 -0.777,0.099 -1.124,0.295c-0.348,0.197 -0.629,0.485 -0.844,0.864c-0.215,0.38 -0.322,0.83 -0.322,1.351c0,0.522 0.107,0.979 0.322,1.372c0.215,0.393 0.498,0.693 0.85,0.899c0.353,0.205 0.725,0.308 1.118,0.308c0.403,0 0.778,-0.1 1.125,-0.302c0.348,-0.201 0.629,-0.496 0.844,-0.884c0.215,-0.389 0.322,-0.844 0.322,-1.365Z" style="fill:#fff;fill-rule:nonzero;"/><path d="M228.789,534.46c0.594,0 1.127,0.124 1.598,0.371c0.471,0.247 0.841,0.612 1.111,1.097c0.27,0.485 0.405,1.07 0.405,1.756l0,4.458l-1.55,0l0,-4.225c0,-0.677 -0.169,-1.196 -0.508,-1.557c-0.338,-0.361 -0.8,-0.542 -1.385,-0.542c-0.585,0 -1.05,0.181 -1.392,0.542c-0.343,0.361 -0.515,0.88 -0.515,1.557l0,4.225l-1.55,0l0,-4.225c0,-0.677 -0.169,-1.196 -0.507,-1.557c-0.339,-0.361 -0.8,-0.542 -1.386,-0.542c-0.585,0 -1.049,0.181 -1.392,0.542c-0.343,0.361 -0.514,0.88 -0.514,1.557l0,4.225l-1.564,0l0,-7.558l1.564,0l0,0.864c0.256,-0.311 0.58,-0.553 0.974,-0.727c0.393,-0.174 0.813,-0.261 1.262,-0.261c0.603,0 1.143,0.128 1.618,0.384c0.476,0.256 0.841,0.627 1.097,1.111c0.229,-0.457 0.586,-0.82 1.07,-1.09c0.485,-0.27 1.006,-0.405 1.564,-0.405Z" style="fill:#fff;fill-rule:nonzero;"/></g></g></g><g><path d="M187.616,491.004l0,5.925l-1.443,0l0,-3.553l-1.325,3.553l-1.165,0l-1.333,-3.562l0,3.562l-1.444,0l0,-5.925l1.705,0l1.663,4.102l1.646,-4.102l1.696,0Z" style="fill:#593f92;fill-rule:nonzero;"/><path d="M190.098,492.16l0,1.199l1.933,0l0,1.114l-1.933,0l0,1.3l2.186,0l0,1.156l-3.629,0l0,-5.925l3.629,0l0,1.156l-2.186,0Z" style="fill:#593f92;fill-rule:nonzero;"/><path d="M195.365,496.988c-0.433,0 -0.822,-0.07 -1.165,-0.211c-0.343,-0.14 -0.618,-0.349 -0.823,-0.624c-0.205,-0.276 -0.314,-0.608 -0.325,-0.996l1.536,0c0.023,0.219 0.099,0.387 0.228,0.502c0.13,0.115 0.298,0.173 0.507,0.173c0.213,0 0.382,-0.049 0.506,-0.148c0.124,-0.098 0.186,-0.235 0.186,-0.409c0,-0.146 -0.049,-0.267 -0.148,-0.363c-0.098,-0.096 -0.219,-0.175 -0.363,-0.236c-0.143,-0.062 -0.347,-0.133 -0.612,-0.211c-0.382,-0.119 -0.695,-0.237 -0.937,-0.355c-0.242,-0.118 -0.45,-0.293 -0.624,-0.523c-0.175,-0.231 -0.262,-0.532 -0.262,-0.903c0,-0.552 0.2,-0.984 0.599,-1.296c0.4,-0.312 0.92,-0.468 1.562,-0.468c0.653,0 1.179,0.156 1.578,0.468c0.4,0.312 0.613,0.747 0.642,1.304l-1.562,0c-0.011,-0.191 -0.081,-0.342 -0.211,-0.452c-0.129,-0.109 -0.295,-0.164 -0.498,-0.164c-0.174,0 -0.315,0.046 -0.422,0.139c-0.107,0.093 -0.16,0.227 -0.16,0.401c0,0.191 0.09,0.34 0.27,0.447c0.18,0.107 0.461,0.223 0.844,0.346c0.383,0.13 0.693,0.254 0.933,0.372c0.239,0.118 0.446,0.29 0.62,0.515c0.174,0.225 0.262,0.515 0.262,0.869c0,0.338 -0.086,0.644 -0.258,0.92c-0.171,0.276 -0.42,0.495 -0.747,0.658c-0.326,0.164 -0.712,0.245 -1.156,0.245Z" style="fill:#593f92;fill-rule:nonzero;"/><path d="M200.556,496.988c-0.434,0 -0.822,-0.07 -1.165,-0.211c-0.343,-0.14 -0.618,-0.349 -0.823,-0.624c-0.205,-0.276 -0.314,-0.608 -0.325,-0.996l1.536,0c0.023,0.219 0.099,0.387 0.228,0.502c0.13,0.115 0.298,0.173 0.507,0.173c0.213,0 0.382,-0.049 0.506,-0.148c0.124,-0.098 0.186,-0.235 0.186,-0.409c0,-0.146 -0.05,-0.267 -0.148,-0.363c-0.099,-0.096 -0.219,-0.175 -0.363,-0.236c-0.143,-0.062 -0.347,-0.133 -0.612,-0.211c-0.383,-0.119 -0.695,-0.237 -0.937,-0.355c-0.242,-0.118 -0.45,-0.293 -0.624,-0.523c-0.175,-0.231 -0.262,-0.532 -0.262,-0.903c0,-0.552 0.2,-0.984 0.599,-1.296c0.4,-0.312 0.92,-0.468 1.562,-0.468c0.652,0 1.179,0.156 1.578,0.468c0.4,0.312 0.613,0.747 0.642,1.304l-1.562,0c-0.011,-0.191 -0.082,-0.342 -0.211,-0.452c-0.129,-0.109 -0.295,-0.164 -0.498,-0.164c-0.174,0 -0.315,0.046 -0.422,0.139c-0.107,0.093 -0.16,0.227 -0.16,0.401c0,0.191 0.09,0.34 0.27,0.447c0.18,0.107 0.461,0.223 0.844,0.346c0.382,0.13 0.693,0.254 0.932,0.372c0.24,0.118 0.446,0.29 0.621,0.515c0.174,0.225 0.262,0.515 0.262,0.869c0,0.338 -0.086,0.644 -0.258,0.92c-0.172,0.276 -0.421,0.495 -0.747,0.658c-0.326,0.164 -0.712,0.245 -1.156,0.245Z" style="fill:#593f92;fill-rule:nonzero;"/><path d="M207.291,495.883l-2.211,0l-0.355,1.046l-1.51,0l2.143,-5.925l1.672,0l2.144,5.925l-1.528,0l-0.355,-1.046Zm-0.371,-1.115l-0.734,-2.169l-0.726,2.169l1.46,0Z" style="fill:#593f92;fill-rule:nonzero;"/><path d="M213.757,492.878c-0.107,-0.197 -0.26,-0.348 -0.46,-0.452c-0.2,-0.104 -0.435,-0.156 -0.705,-0.156c-0.467,0 -0.841,0.153 -1.123,0.46c-0.281,0.307 -0.422,0.716 -0.422,1.228c0,0.546 0.148,0.972 0.443,1.279c0.296,0.307 0.702,0.46 1.22,0.46c0.355,0 0.654,-0.09 0.899,-0.27c0.245,-0.18 0.423,-0.439 0.536,-0.777l-1.832,0l0,-1.063l3.14,0l0,1.342c-0.107,0.36 -0.288,0.695 -0.544,1.004c-0.256,0.31 -0.581,0.56 -0.975,0.751c-0.394,0.192 -0.838,0.287 -1.334,0.287c-0.585,0 -1.107,-0.128 -1.565,-0.384c-0.459,-0.256 -0.816,-0.612 -1.072,-1.067c-0.256,-0.456 -0.384,-0.977 -0.384,-1.562c0,-0.585 0.128,-1.107 0.384,-1.566c0.256,-0.458 0.612,-0.816 1.067,-1.072c0.456,-0.256 0.977,-0.384 1.562,-0.384c0.709,0 1.307,0.172 1.794,0.515c0.486,0.344 0.808,0.819 0.966,1.427l-1.595,0Z" style="fill:#593f92;fill-rule:nonzero;"/><path d="M217.698,492.16l0,1.199l1.933,0l0,1.114l-1.933,0l0,1.3l2.187,0l0,1.156l-3.63,0l0,-5.925l3.63,0l0,1.156l-2.187,0Z" style="fill:#593f92;fill-rule:nonzero;"/><path d="M224.029,491.004l0,3.545c0,0.354 0.087,0.627 0.262,0.819c0.174,0.191 0.43,0.287 0.768,0.287c0.337,0 0.596,-0.096 0.776,-0.287c0.18,-0.192 0.27,-0.465 0.27,-0.819l0,-3.545l1.444,0l0,3.536c0,0.529 -0.113,0.977 -0.338,1.343c-0.225,0.365 -0.528,0.641 -0.907,0.827c-0.38,0.185 -0.804,0.278 -1.271,0.278c-0.467,0 -0.885,-0.091 -1.253,-0.274c-0.369,-0.183 -0.66,-0.459 -0.874,-0.827c-0.214,-0.369 -0.32,-0.818 -0.32,-1.347l0,-3.536l1.443,0Z" style="fill:#593f92;fill-rule:nonzero;"/><path d="M230.705,496.988c-0.433,0 -0.821,-0.07 -1.164,-0.211c-0.344,-0.14 -0.618,-0.349 -0.823,-0.624c-0.206,-0.276 -0.314,-0.608 -0.325,-0.996l1.536,0c0.022,0.219 0.098,0.387 0.228,0.502c0.129,0.115 0.298,0.173 0.506,0.173c0.214,0 0.383,-0.049 0.507,-0.148c0.123,-0.098 0.185,-0.235 0.185,-0.409c0,-0.146 -0.049,-0.267 -0.147,-0.363c-0.099,-0.096 -0.22,-0.175 -0.363,-0.236c-0.144,-0.062 -0.348,-0.133 -0.612,-0.211c-0.383,-0.119 -0.695,-0.237 -0.937,-0.355c-0.242,-0.118 -0.45,-0.293 -0.625,-0.523c-0.174,-0.231 -0.261,-0.532 -0.261,-0.903c0,-0.552 0.199,-0.984 0.599,-1.296c0.399,-0.312 0.92,-0.468 1.561,-0.468c0.653,0 1.179,0.156 1.579,0.468c0.399,0.312 0.613,0.747 0.641,1.304l-1.561,0c-0.012,-0.191 -0.082,-0.342 -0.211,-0.452c-0.13,-0.109 -0.296,-0.164 -0.498,-0.164c-0.175,0 -0.315,0.046 -0.422,0.139c-0.107,0.093 -0.161,0.227 -0.161,0.401c0,0.191 0.09,0.34 0.27,0.447c0.18,0.107 0.462,0.223 0.844,0.346c0.383,0.13 0.694,0.254 0.933,0.372c0.239,0.118 0.446,0.29 0.62,0.515c0.175,0.225 0.262,0.515 0.262,0.869c0,0.338 -0.086,0.644 -0.257,0.92c-0.172,0.276 -0.421,0.495 -0.747,0.658c-0.327,0.164 -0.712,0.245 -1.157,0.245Z" style="fill:#593f92;fill-rule:nonzero;"/><path d="M239.23,495.883l-2.211,0l-0.355,1.046l-1.51,0l2.143,-5.925l1.672,0l2.144,5.925l-1.528,0l-0.355,-1.046Zm-0.371,-1.115l-0.734,-2.169l-0.726,2.169l1.46,0Z" style="fill:#593f92;fill-rule:nonzero;"/><path d="M247.063,496.929l-1.443,0l-2.414,-3.655l0,3.655l-1.444,0l0,-5.925l1.444,0l2.414,3.672l0,-3.672l1.443,0l0,5.925Z" style="fill:#593f92;fill-rule:nonzero;"/><path d="M250.33,491.004c0.624,0 1.17,0.124 1.637,0.371c0.467,0.248 0.829,0.595 1.085,1.043c0.256,0.447 0.384,0.963 0.384,1.549c0,0.579 -0.128,1.094 -0.384,1.544c-0.256,0.45 -0.619,0.799 -1.089,1.047c-0.47,0.247 -1.014,0.371 -1.633,0.371l-2.22,0l0,-5.925l2.22,0Zm-0.093,4.676c0.546,0 0.97,-0.149 1.274,-0.447c0.304,-0.299 0.456,-0.721 0.456,-1.266c0,-0.546 -0.152,-0.971 -0.456,-1.275c-0.304,-0.304 -0.728,-0.456 -1.274,-0.456l-0.684,0l0,3.444l0.684,0Z" style="fill:#593f92;fill-rule:nonzero;"/><path d="M259.623,493.891c0.343,0.073 0.619,0.243 0.827,0.51c0.208,0.268 0.312,0.573 0.312,0.916c0,0.495 -0.173,0.888 -0.519,1.177c-0.346,0.29 -0.829,0.435 -1.448,0.435l-2.76,0l0,-5.925l2.668,0c0.602,0 1.073,0.138 1.413,0.413c0.341,0.276 0.511,0.65 0.511,1.123c0,0.349 -0.091,0.639 -0.274,0.869c-0.183,0.231 -0.426,0.392 -0.73,0.482Zm-2.144,-0.49l0.945,0c0.236,0 0.418,-0.052 0.545,-0.156c0.126,-0.104 0.189,-0.258 0.189,-0.46c0,-0.203 -0.063,-0.357 -0.189,-0.464c-0.127,-0.107 -0.309,-0.161 -0.545,-0.161l-0.945,0l0,1.241Zm1.063,2.363c0.242,0 0.429,-0.054 0.562,-0.164c0.132,-0.11 0.198,-0.269 0.198,-0.477c0,-0.208 -0.069,-0.371 -0.207,-0.49c-0.138,-0.118 -0.328,-0.177 -0.57,-0.177l-1.046,0l0,1.308l1.063,0Z" style="fill:#593f92;fill-rule:nonzero;"/><path d="M264.4,496.988c-0.557,0 -1.068,-0.129 -1.532,-0.388c-0.464,-0.259 -0.833,-0.62 -1.106,-1.085c-0.273,-0.464 -0.409,-0.986 -0.409,-1.565c0,-0.58 0.136,-1.1 0.409,-1.562c0.273,-0.461 0.642,-0.821 1.106,-1.08c0.464,-0.259 0.975,-0.388 1.532,-0.388c0.557,0 1.068,0.129 1.532,0.388c0.464,0.259 0.83,0.619 1.097,1.08c0.268,0.462 0.401,0.982 0.401,1.562c0,0.579 -0.135,1.101 -0.405,1.565c-0.27,0.465 -0.636,0.826 -1.097,1.085c-0.462,0.259 -0.971,0.388 -1.528,0.388Zm0,-1.316c0.473,0 0.851,-0.158 1.135,-0.473c0.284,-0.315 0.427,-0.732 0.427,-1.249c0,-0.524 -0.143,-0.941 -0.427,-1.254c-0.284,-0.312 -0.662,-0.468 -1.135,-0.468c-0.478,0 -0.86,0.155 -1.144,0.464c-0.284,0.31 -0.426,0.729 -0.426,1.258c0,0.523 0.142,0.941 0.426,1.253c0.284,0.312 0.666,0.469 1.144,0.469Z" style="fill:#593f92;fill-rule:nonzero;"/><path d="M271.034,496.988c-0.557,0 -1.067,-0.129 -1.532,-0.388c-0.464,-0.259 -0.832,-0.62 -1.105,-1.085c-0.273,-0.464 -0.41,-0.986 -0.41,-1.565c0,-0.58 0.137,-1.1 0.41,-1.562c0.273,-0.461 0.641,-0.821 1.105,-1.08c0.465,-0.259 0.975,-0.388 1.532,-0.388c0.557,0 1.068,0.129 1.532,0.388c0.464,0.259 0.83,0.619 1.098,1.08c0.267,0.462 0.4,0.982 0.4,1.562c0,0.579 -0.135,1.101 -0.405,1.565c-0.27,0.465 -0.636,0.826 -1.097,1.085c-0.461,0.259 -0.971,0.388 -1.528,0.388Zm0,-1.316c0.473,0 0.851,-0.158 1.136,-0.473c0.284,-0.315 0.426,-0.732 0.426,-1.249c0,-0.524 -0.142,-0.941 -0.426,-1.254c-0.285,-0.312 -0.663,-0.468 -1.136,-0.468c-0.478,0 -0.859,0.155 -1.143,0.464c-0.285,0.31 -0.427,0.729 -0.427,1.258c0,0.523 0.142,0.941 0.427,1.253c0.284,0.312 0.665,0.469 1.143,0.469Z" style="fill:#593f92;fill-rule:nonzero;"/><path d="M278.302,496.929l-1.992,-2.616l0,2.616l-1.444,0l0,-5.925l1.444,0l0,2.6l1.975,-2.6l1.696,0l-2.296,2.903l2.381,3.022l-1.764,0Z" style="fill:#593f92;fill-rule:nonzero;"/><path d="M287.62,491.004l-2.051,3.967l0,1.958l-1.443,0l0,-1.958l-2.051,-3.967l1.637,0l1.148,2.481l1.139,-2.481l1.621,0Z" style="fill:#593f92;fill-rule:nonzero;"/><path d="M291.005,496.988c-0.557,0 -1.068,-0.129 -1.532,-0.388c-0.465,-0.259 -0.833,-0.62 -1.106,-1.085c-0.273,-0.464 -0.409,-0.986 -0.409,-1.565c0,-0.58 0.136,-1.1 0.409,-1.562c0.273,-0.461 0.641,-0.821 1.106,-1.08c0.464,-0.259 0.975,-0.388 1.532,-0.388c0.557,0 1.067,0.129 1.532,0.388c0.464,0.259 0.83,0.619 1.097,1.08c0.267,0.462 0.401,0.982 0.401,1.562c0,0.579 -0.135,1.101 -0.405,1.565c-0.27,0.465 -0.636,0.826 -1.098,1.085c-0.461,0.259 -0.97,0.388 -1.527,0.388Zm0,-1.316c0.472,0 0.851,-0.158 1.135,-0.473c0.284,-0.315 0.426,-0.732 0.426,-1.249c0,-0.524 -0.142,-0.941 -0.426,-1.254c-0.284,-0.312 -0.663,-0.468 -1.135,-0.468c-0.479,0 -0.86,0.155 -1.144,0.464c-0.284,0.31 -0.426,0.729 -0.426,1.258c0,0.523 0.142,0.941 0.426,1.253c0.284,0.312 0.665,0.469 1.144,0.469Z" style="fill:#593f92;fill-rule:nonzero;"/><path d="M296.255,491.004l0,3.545c0,0.354 0.087,0.627 0.261,0.819c0.175,0.191 0.431,0.287 0.768,0.287c0.338,0 0.597,-0.096 0.777,-0.287c0.18,-0.192 0.27,-0.465 0.27,-0.819l0,-3.545l1.443,0l0,3.536c0,0.529 -0.112,0.977 -0.337,1.343c-0.225,0.365 -0.528,0.641 -0.908,0.827c-0.379,0.185 -0.803,0.278 -1.27,0.278c-0.467,0 -0.885,-0.091 -1.253,-0.274c-0.369,-0.183 -0.66,-0.459 -0.874,-0.827c-0.214,-0.369 -0.321,-0.818 -0.321,-1.347l0,-3.536l1.444,0Z" style="fill:#593f92;fill-rule:nonzero;"/><path d="M303.809,496.929l-1.232,-2.237l-0.346,0l0,2.237l-1.444,0l0,-5.925l2.423,0c0.467,0 0.865,0.081 1.194,0.245c0.329,0.163 0.575,0.387 0.739,0.671c0.163,0.284 0.244,0.6 0.244,0.949c0,0.394 -0.111,0.746 -0.333,1.055c-0.222,0.31 -0.55,0.529 -0.983,0.659l1.367,2.346l-1.629,0Zm-1.578,-3.258l0.894,0c0.265,0 0.463,-0.065 0.595,-0.194c0.133,-0.129 0.199,-0.312 0.199,-0.549c0,-0.225 -0.066,-0.402 -0.199,-0.531c-0.132,-0.13 -0.33,-0.195 -0.595,-0.195l-0.894,0l0,1.469Z" style="fill:#593f92;fill-rule:nonzero;"/><path d="M310.224,496.988c-0.434,0 -0.822,-0.07 -1.165,-0.211c-0.343,-0.14 -0.618,-0.349 -0.823,-0.624c-0.205,-0.276 -0.314,-0.608 -0.325,-0.996l1.536,0c0.023,0.219 0.099,0.387 0.228,0.502c0.129,0.115 0.298,0.173 0.507,0.173c0.213,0 0.382,-0.049 0.506,-0.148c0.124,-0.098 0.186,-0.235 0.186,-0.409c0,-0.146 -0.05,-0.267 -0.148,-0.363c-0.099,-0.096 -0.22,-0.175 -0.363,-0.236c-0.144,-0.062 -0.347,-0.133 -0.612,-0.211c-0.383,-0.119 -0.695,-0.237 -0.937,-0.355c-0.242,-0.118 -0.45,-0.293 -0.624,-0.523c-0.175,-0.231 -0.262,-0.532 -0.262,-0.903c0,-0.552 0.2,-0.984 0.599,-1.296c0.4,-0.312 0.92,-0.468 1.562,-0.468c0.652,0 1.179,0.156 1.578,0.468c0.4,0.312 0.613,0.747 0.642,1.304l-1.562,0c-0.011,-0.191 -0.082,-0.342 -0.211,-0.452c-0.129,-0.109 -0.295,-0.164 -0.498,-0.164c-0.174,0 -0.315,0.046 -0.422,0.139c-0.107,0.093 -0.16,0.227 -0.16,0.401c0,0.191 0.09,0.34 0.27,0.447c0.18,0.107 0.461,0.223 0.844,0.346c0.382,0.13 0.693,0.254 0.932,0.372c0.24,0.118 0.446,0.29 0.621,0.515c0.174,0.225 0.261,0.515 0.261,0.869c0,0.338 -0.085,0.644 -0.257,0.92c-0.172,0.276 -0.421,0.495 -0.747,0.658c-0.326,0.164 -0.712,0.245 -1.156,0.245Z" style="fill:#593f92;fill-rule:nonzero;"/><path d="M314.714,492.16l0,1.199l1.933,0l0,1.114l-1.933,0l0,1.3l2.186,0l0,1.156l-3.629,0l0,-5.925l3.629,0l0,1.156l-2.186,0Z" style="fill:#593f92;fill-rule:nonzero;"/><path d="M319.981,496.988c-0.433,0 -0.822,-0.07 -1.165,-0.211c-0.343,-0.14 -0.617,-0.349 -0.823,-0.624c-0.205,-0.276 -0.313,-0.608 -0.325,-0.996l1.536,0c0.023,0.219 0.099,0.387 0.228,0.502c0.13,0.115 0.299,0.173 0.507,0.173c0.214,0 0.382,-0.049 0.506,-0.148c0.124,-0.098 0.186,-0.235 0.186,-0.409c0,-0.146 -0.049,-0.267 -0.148,-0.363c-0.098,-0.096 -0.219,-0.175 -0.363,-0.236c-0.143,-0.062 -0.347,-0.133 -0.612,-0.211c-0.382,-0.119 -0.695,-0.237 -0.937,-0.355c-0.242,-0.118 -0.45,-0.293 -0.624,-0.523c-0.175,-0.231 -0.262,-0.532 -0.262,-0.903c0,-0.552 0.2,-0.984 0.599,-1.296c0.4,-0.312 0.92,-0.468 1.562,-0.468c0.653,0 1.179,0.156 1.578,0.468c0.4,0.312 0.614,0.747 0.642,1.304l-1.562,0c-0.011,-0.191 -0.081,-0.342 -0.211,-0.452c-0.129,-0.109 -0.295,-0.164 -0.498,-0.164c-0.174,0 -0.315,0.046 -0.422,0.139c-0.107,0.093 -0.16,0.227 -0.16,0.401c0,0.191 0.09,0.34 0.27,0.447c0.18,0.107 0.461,0.223 0.844,0.346c0.383,0.13 0.694,0.254 0.933,0.372c0.239,0.118 0.446,0.29 0.62,0.515c0.175,0.225 0.262,0.515 0.262,0.869c0,0.338 -0.086,0.644 -0.258,0.92c-0.171,0.276 -0.42,0.495 -0.747,0.658c-0.326,0.164 -0.711,0.245 -1.156,0.245Z" style="fill:#593f92;fill-rule:nonzero;"/><path d="M325.172,496.988c-0.433,0 -0.822,-0.07 -1.165,-0.211c-0.343,-0.14 -0.617,-0.349 -0.823,-0.624c-0.205,-0.276 -0.314,-0.608 -0.325,-0.996l1.536,0c0.023,0.219 0.099,0.387 0.228,0.502c0.13,0.115 0.299,0.173 0.507,0.173c0.214,0 0.382,-0.049 0.506,-0.148c0.124,-0.098 0.186,-0.235 0.186,-0.409c0,-0.146 -0.049,-0.267 -0.148,-0.363c-0.098,-0.096 -0.219,-0.175 -0.363,-0.236c-0.143,-0.062 -0.347,-0.133 -0.612,-0.211c-0.382,-0.119 -0.695,-0.237 -0.937,-0.355c-0.242,-0.118 -0.45,-0.293 -0.624,-0.523c-0.175,-0.231 -0.262,-0.532 -0.262,-0.903c0,-0.552 0.2,-0.984 0.599,-1.296c0.4,-0.312 0.92,-0.468 1.562,-0.468c0.653,0 1.179,0.156 1.578,0.468c0.4,0.312 0.614,0.747 0.642,1.304l-1.562,0c-0.011,-0.191 -0.081,-0.342 -0.211,-0.452c-0.129,-0.109 -0.295,-0.164 -0.498,-0.164c-0.174,0 -0.315,0.046 -0.422,0.139c-0.107,0.093 -0.16,0.227 -0.16,0.401c0,0.191 0.09,0.34 0.27,0.447c0.18,0.107 0.461,0.223 0.844,0.346c0.383,0.13 0.694,0.254 0.933,0.372c0.239,0.118 0.446,0.29 0.62,0.515c0.174,0.225 0.262,0.515 0.262,0.869c0,0.338 -0.086,0.644 -0.258,0.92c-0.171,0.276 -0.42,0.495 -0.747,0.658c-0.326,0.164 -0.712,0.245 -1.156,0.245Z" style="fill:#593f92;fill-rule:nonzero;"/><rect x="328.219" y="491.004" width="1.443" height="5.925" style="fill:#593f92;fill-rule:nonzero;"/><path d="M333.511,496.988c-0.557,0 -1.068,-0.129 -1.532,-0.388c-0.464,-0.259 -0.833,-0.62 -1.106,-1.085c-0.272,-0.464 -0.409,-0.986 -0.409,-1.565c0,-0.58 0.137,-1.1 0.409,-1.562c0.273,-0.461 0.642,-0.821 1.106,-1.08c0.464,-0.259 0.975,-0.388 1.532,-0.388c0.557,0 1.068,0.129 1.532,0.388c0.464,0.259 0.83,0.619 1.097,1.08c0.268,0.462 0.401,0.982 0.401,1.562c0,0.579 -0.135,1.101 -0.405,1.565c-0.27,0.465 -0.636,0.826 -1.097,1.085c-0.462,0.259 -0.971,0.388 -1.528,0.388Zm0,-1.316c0.473,0 0.851,-0.158 1.135,-0.473c0.285,-0.315 0.427,-0.732 0.427,-1.249c0,-0.524 -0.142,-0.941 -0.427,-1.254c-0.284,-0.312 -0.662,-0.468 -1.135,-0.468c-0.478,0 -0.859,0.155 -1.144,0.464c-0.284,0.31 -0.426,0.729 -0.426,1.258c0,0.523 0.142,0.941 0.426,1.253c0.285,0.312 0.666,0.469 1.144,0.469Z" style="fill:#593f92;fill-rule:nonzero;"/><path d="M342.644,496.929l-1.444,0l-2.413,-3.655l0,3.655l-1.444,0l0,-5.925l1.444,0l2.413,3.672l0,-3.672l1.444,0l0,5.925Z" style="fill:#593f92;fill-rule:nonzero;"/></g><g><path d="M161.171,467.233c0,-0.575 0.458,-1.041 1.041,-1.041l81.25,0c0.584,0 1.042,0.466 1.042,1.041c0,0.575 -0.458,1.042 -1.042,1.042l-81.25,0c-0.583,0 -1.041,-0.467 -1.041,-1.042Z" style="fill:#ddd;fill-rule:nonzero;"/><path d="M279.046,467.233c0,-0.575 0.458,-1.041 1.041,-1.041l81.25,0c0.584,0 1.042,0.466 1.042,1.041c0,0.575 -0.458,1.042 -1.042,1.042l-81.25,0c-0.583,0 -1.041,-0.467 -1.041,-1.042Z" style="fill:#ddd;fill-rule:nonzero;"/><g><path d="M259.26,470.417c-0.546,0 -1.044,-0.128 -1.494,-0.384c-0.45,-0.256 -0.806,-0.613 -1.068,-1.072c-0.262,-0.458 -0.392,-0.974 -0.392,-1.548c0,-0.574 0.13,-1.091 0.392,-1.549c0.262,-0.459 0.618,-0.816 1.068,-1.072c0.45,-0.256 0.948,-0.384 1.494,-0.384c0.551,0 1.052,0.128 1.502,0.384c0.45,0.256 0.805,0.612 1.064,1.068c0.258,0.455 0.388,0.973 0.388,1.553c0,0.579 -0.13,1.097 -0.388,1.553c-0.259,0.455 -0.614,0.811 -1.064,1.067c-0.45,0.256 -0.951,0.384 -1.502,0.384Zm0,-0.666c0.41,0 0.78,-0.096 1.11,-0.287c0.329,-0.192 0.588,-0.465 0.776,-0.819c0.189,-0.355 0.283,-0.765 0.283,-1.232c0,-0.473 -0.094,-0.885 -0.283,-1.237c-0.188,-0.352 -0.446,-0.623 -0.772,-0.814c-0.326,-0.192 -0.698,-0.287 -1.114,-0.287c-0.417,0 -0.788,0.095 -1.114,0.287c-0.327,0.191 -0.584,0.462 -0.773,0.814c-0.188,0.352 -0.283,0.764 -0.283,1.237c0,0.467 0.095,0.877 0.283,1.232c0.189,0.354 0.448,0.627 0.777,0.819c0.329,0.191 0.699,0.287 1.11,0.287Z" style="fill:#593f92;fill-rule:nonzero;"/><path d="M266.324,470.358l-1.401,-2.405l-0.928,0l0,2.405l-0.768,0l0,-5.883l1.899,0c0.444,0 0.82,0.076 1.127,0.228c0.306,0.152 0.536,0.357 0.688,0.616c0.152,0.259 0.228,0.555 0.228,0.887c0,0.405 -0.117,0.762 -0.351,1.072c-0.233,0.309 -0.584,0.514 -1.051,0.616l1.477,2.464l-0.92,0Zm-2.329,-3.021l1.131,0c0.416,0 0.729,-0.103 0.937,-0.308c0.208,-0.206 0.312,-0.48 0.312,-0.823c0,-0.349 -0.103,-0.619 -0.308,-0.811c-0.205,-0.191 -0.519,-0.287 -0.941,-0.287l-1.131,0l0,2.229Z" style="fill:#593f92;fill-rule:nonzero;"/></g></g></g><g><path d="M176.986,160.898l0,2.782l-3.776,0l0,11.47l-3.471,0l0,-11.47l-3.777,0l0,-2.782l11.024,0Z" style="fill:#fff;fill-rule:nonzero;"/><path d="M191.075,160.898l0,14.252l-3.471,0l0,-5.867l-5.4,0l0,5.867l-3.472,0l0,-14.252l3.472,0l0,5.583l5.4,0l0,-5.583l3.471,0Z" style="fill:#fff;fill-rule:nonzero;"/><path d="M197.044,163.68l0,2.883l4.649,0l0,2.679l-4.649,0l0,3.127l5.258,0l0,2.781l-8.73,0l0,-14.252l8.73,0l0,2.782l-5.258,0Z" style="fill:#fff;fill-rule:nonzero;"/><path d="M211.823,175.15l-2.964,-5.38l-0.832,0l0,5.38l-3.472,0l0,-14.252l5.827,0c1.123,0 2.081,0.197 2.873,0.589c0.791,0.393 1.383,0.931 1.776,1.614c0.392,0.684 0.589,1.445 0.589,2.284c0,0.947 -0.268,1.793 -0.802,2.538c-0.535,0.744 -1.323,1.272 -2.365,1.583l3.289,5.644l-3.919,0Zm-3.796,-7.836l2.152,0c0.636,0 1.113,-0.156 1.431,-0.467c0.318,-0.312 0.477,-0.751 0.477,-1.32c0,-0.541 -0.159,-0.968 -0.477,-1.279c-0.318,-0.311 -0.795,-0.467 -1.431,-0.467l-2.152,0l0,3.533Z" style="fill:#fff;fill-rule:nonzero;"/><path d="M226.664,172.633l-5.319,0l-0.853,2.517l-3.634,0l5.157,-14.252l4.019,0l5.157,14.252l-3.675,0l-0.852,-2.517Zm-0.894,-2.68l-1.766,-5.218l-1.746,5.218l3.512,0Z" style="fill:#fff;fill-rule:nonzero;"/><path d="M243.615,165.487c0,0.825 -0.189,1.58 -0.568,2.263c-0.379,0.684 -0.961,1.235 -1.746,1.655c-0.785,0.419 -1.759,0.629 -2.923,0.629l-2.152,0l0,5.116l-3.472,0l0,-14.252l5.624,0c1.136,0 2.097,0.197 2.882,0.589c0.785,0.393 1.374,0.934 1.767,1.624c0.392,0.691 0.588,1.482 0.588,2.376Zm-5.501,1.786c0.663,0 1.157,-0.156 1.482,-0.467c0.325,-0.311 0.487,-0.751 0.487,-1.319c0,-0.569 -0.162,-1.009 -0.487,-1.32c-0.325,-0.311 -0.819,-0.467 -1.482,-0.467l-1.888,0l0,3.573l1.888,0Z" style="fill:#fff;fill-rule:nonzero;"/><path d="M257.644,160.898l-4.934,9.542l0,4.71l-3.471,0l0,-4.71l-4.933,-9.542l3.938,0l2.761,5.969l2.741,-5.969l3.898,0Z" style="fill:#fff;fill-rule:nonzero;"/><path d="M271.976,167.841c0.826,0.176 1.489,0.586 1.99,1.229c0.501,0.643 0.751,1.377 0.751,2.202c0,1.191 -0.416,2.135 -1.248,2.832c-0.833,0.697 -1.993,1.046 -3.482,1.046l-6.639,0l0,-14.252l6.416,0c1.448,0 2.581,0.332 3.4,0.995c0.819,0.663 1.228,1.563 1.228,2.7c0,0.839 -0.22,1.536 -0.659,2.091c-0.44,0.555 -1.026,0.941 -1.757,1.157Zm-5.156,-1.177l2.274,0c0.568,0 1.005,-0.125 1.309,-0.376c0.305,-0.25 0.457,-0.619 0.457,-1.106c0,-0.487 -0.152,-0.859 -0.457,-1.117c-0.304,-0.257 -0.741,-0.385 -1.309,-0.385l-2.274,0l0,2.984Zm2.558,5.684c0.582,0 1.032,-0.132 1.35,-0.395c0.318,-0.264 0.477,-0.647 0.477,-1.148c0,-0.5 -0.166,-0.893 -0.497,-1.177c-0.332,-0.284 -0.789,-0.426 -1.371,-0.426l-2.517,0l0,3.146l2.558,0Z" style="fill:#fff;fill-rule:nonzero;"/><path d="M283.467,175.292c-1.34,0 -2.568,-0.311 -3.685,-0.934c-1.116,-0.622 -2.003,-1.492 -2.659,-2.608c-0.657,-1.117 -0.985,-2.372 -0.985,-3.766c0,-1.394 0.328,-2.646 0.985,-3.756c0.656,-1.11 1.543,-1.976 2.659,-2.599c1.117,-0.622 2.345,-0.934 3.685,-0.934c1.34,0 2.568,0.312 3.685,0.934c1.116,0.623 1.996,1.489 2.639,2.599c0.643,1.11 0.964,2.362 0.964,3.756c0,1.394 -0.325,2.649 -0.974,3.766c-0.65,1.116 -1.53,1.986 -2.639,2.608c-1.11,0.623 -2.335,0.934 -3.675,0.934Zm0,-3.167c1.137,0 2.047,-0.379 2.731,-1.137c0.683,-0.758 1.025,-1.759 1.025,-3.004c0,-1.259 -0.342,-2.264 -1.025,-3.015c-0.684,-0.751 -1.594,-1.127 -2.731,-1.127c-1.15,0 -2.067,0.372 -2.751,1.117c-0.683,0.744 -1.025,1.752 -1.025,3.025c0,1.258 0.342,2.263 1.025,3.014c0.684,0.752 1.601,1.127 2.751,1.127Z" style="fill:#fff;fill-rule:nonzero;"/><path d="M299.424,175.292c-1.34,0 -2.568,-0.311 -3.685,-0.934c-1.116,-0.622 -2.003,-1.492 -2.659,-2.608c-0.657,-1.117 -0.985,-2.372 -0.985,-3.766c0,-1.394 0.328,-2.646 0.985,-3.756c0.656,-1.11 1.543,-1.976 2.659,-2.599c1.117,-0.622 2.345,-0.934 3.685,-0.934c1.34,0 2.568,0.312 3.685,0.934c1.116,0.623 1.996,1.489 2.639,2.599c0.643,1.11 0.964,2.362 0.964,3.756c0,1.394 -0.325,2.649 -0.974,3.766c-0.65,1.116 -1.53,1.986 -2.639,2.608c-1.11,0.623 -2.335,0.934 -3.675,0.934Zm0,-3.167c1.137,0 2.047,-0.379 2.731,-1.137c0.683,-0.758 1.025,-1.759 1.025,-3.004c0,-1.259 -0.342,-2.264 -1.025,-3.015c-0.684,-0.751 -1.594,-1.127 -2.731,-1.127c-1.15,0 -2.067,0.372 -2.751,1.117c-0.683,0.744 -1.025,1.752 -1.025,3.025c0,1.258 0.342,2.263 1.025,3.014c0.684,0.752 1.601,1.127 2.751,1.127Z" style="fill:#fff;fill-rule:nonzero;"/><path d="M316.903,175.15l-4.791,-6.293l0,6.293l-3.471,0l0,-14.252l3.471,0l0,6.253l4.751,-6.253l4.08,0l-5.522,6.984l5.725,7.268l-4.243,0Z" style="fill:#fff;fill-rule:nonzero;"/><rect x="322.791" y="160.898" width="3.472" height="14.252" style="fill:#fff;fill-rule:nonzero;"/><path d="M341.529,175.15l-3.471,0l-5.807,-8.791l0,8.791l-3.471,0l0,-14.252l3.471,0l5.807,8.832l0,-8.832l3.471,0l0,14.252Z" style="fill:#fff;fill-rule:nonzero;"/><path d="M353.507,165.405c-0.257,-0.473 -0.626,-0.835 -1.106,-1.086c-0.481,-0.25 -1.046,-0.375 -1.696,-0.375c-1.123,0 -2.023,0.368 -2.7,1.106c-0.676,0.738 -1.015,1.722 -1.015,2.954c0,1.313 0.355,2.338 1.066,3.076c0.711,0.737 1.688,1.106 2.934,1.106c0.852,0 1.573,-0.217 2.162,-0.65c0.588,-0.433 1.018,-1.055 1.289,-1.867l-4.406,0l0,-2.558l7.553,0l0,3.228c-0.258,0.866 -0.694,1.671 -1.31,2.415c-0.616,0.745 -1.397,1.347 -2.345,1.807c-0.947,0.46 -2.016,0.691 -3.207,0.691c-1.408,0 -2.663,-0.308 -3.766,-0.924c-1.103,-0.616 -1.963,-1.472 -2.579,-2.568c-0.615,-1.097 -0.923,-2.349 -0.923,-3.756c0,-1.408 0.308,-2.663 0.923,-3.766c0.616,-1.103 1.472,-1.962 2.569,-2.578c1.096,-0.616 2.348,-0.924 3.755,-0.924c1.706,0 3.144,0.413 4.314,1.238c1.171,0.826 1.946,1.97 2.325,3.431l-3.837,0Z" style="fill:#fff;fill-rule:nonzero;"/></g></g></g></g><defs><linearGradient id="_Linear1" x1="0" y1="0" x2="1" y2="0" gradientUnits="userSpaceOnUse" gradientTransform="matrix(36.625,71.1625,-71.1625,36.625,183.342,487.152)"><stop offset="0" style="stop-color:#405de6;stop-opacity:1"/><stop offset="0.25" style="stop-color:#5851db;stop-opacity:1"/><stop offset="0.52" style="stop-color:#833ab4;stop-opacity:1"/><stop offset="0.84" style="stop-color:#c13584;stop-opacity:1"/><stop offset="1" style="stop-color:#bc2a2a;stop-opacity:0.85"/></linearGradient></defs></svg>