<?xml version="1.0" encoding="UTF-8" standalone="no"?>
<!DOCTYPE svg PUBLIC "-//W3C//DTD SVG 1.1//EN" "http://www.w3.org/Graphics/SVG/1.1/DTD/svg11.dtd">
<svg width="100%" height="100%" viewBox="0 0 159 202" version="1.1" xmlns="http://www.w3.org/2000/svg" xmlns:xlink="http://www.w3.org/1999/xlink" xml:space="preserve" xmlns:serif="http://www.serif.com/" style="fill-rule:evenodd;clip-rule:evenodd;stroke-linejoin:round;stroke-miterlimit:10;">
    <g id="Layer" transform="matrix(1,0,0,1,-1000.73,-108.807)">
        <g>
            <g>
                <path d="M1019.56,138.605C1019.56,130.353 1025.59,123.663 1033.03,123.663L1093.54,123.663C1100.98,123.663 1107.01,130.353 1107.01,138.605L1107.01,269.215C1107.01,277.467 1100.98,284.156 1093.54,284.156L1033.03,284.156C1025.59,284.156 1019.56,277.467 1019.56,269.215L1019.56,138.605Z" style="fill:rgb(192,163,255);fill-rule:nonzero;stroke:rgb(70,49,116);stroke-width:2.8px;"/>
                <path d="M1051.58,128.965C1051.58,127.397 1052.85,126.126 1054.42,126.126L1072.15,126.126C1073.72,126.126 1074.99,127.397 1074.99,128.965C1074.99,130.533 1073.72,131.804 1072.15,131.804L1054.42,131.804C1052.85,131.804 1051.58,130.533 1051.58,128.965Z" style="fill:rgb(70,49,116);fill-rule:nonzero;"/>
                <path d="M1107.52,160.04L1105.63,160.04L1105.63,182.328L1107.52,182.328C1108.56,182.328 1109.41,181.483 1109.41,180.44L1109.41,161.928C1109.41,160.885 1108.56,160.04 1107.52,160.04Z" style="fill:rgb(70,49,116);fill-rule:nonzero;"/>
                <path d="M1018.28,151.466L1019.56,151.466L1019.56,160.04L1018.28,160.04C1017.57,160.04 1016.99,159.466 1016.99,158.757L1016.99,152.749C1016.99,152.04 1017.57,151.466 1018.28,151.466Z" style="fill:rgb(70,49,116);fill-rule:nonzero;"/>
                <path d="M1018.28,165.358L1019.56,165.358L1019.56,177.606L1018.28,177.606C1017.57,177.606 1016.99,177.031 1016.99,176.323L1016.99,166.641C1016.99,165.932 1017.57,165.358 1018.28,165.358Z" style="fill:rgb(70,49,116);fill-rule:nonzero;"/>
                <path d="M1018.28,179.073L1019.56,179.073L1019.56,191.321L1018.28,191.321C1017.57,191.321 1016.99,190.747 1016.99,190.038L1016.99,180.356C1016.99,179.647 1017.57,179.073 1018.28,179.073Z" style="fill:rgb(70,49,116);fill-rule:nonzero;"/>
                <path d="M1115.03,302.954C1115.03,299.332 1124.85,296.397 1136.96,296.397C1149.07,296.397 1158.88,299.332 1158.88,302.954C1158.88,306.575 1149.07,309.511 1136.96,309.511C1124.85,309.511 1115.03,306.575 1115.03,302.954Z" style="fill:rgb(116,81,194);fill-rule:nonzero;"/>
                <g>
                    <path d="M1113.5,289.701C1115.1,280.382 1123.81,274.095 1132.96,275.658C1142.12,277.221 1148.25,286.042 1146.66,295.36C1145.07,304.679 1143.93,311.365 1127.2,309.403C1110.5,307.443 1111.91,299.019 1113.5,289.701Z" style="fill:white;fill-rule:nonzero;stroke:rgb(70,49,116);stroke-width:0.75px;"/>
                </g>
                <path d="M1114.12,287.354C1116.29,289.117 1117.01,289.383 1117.24,289.527C1117.24,289.527 1117.11,289.79 1116.96,290.053C1116.47,290.901 1114.32,290.955 1113.35,290.648L1114.12,287.354Z" style="fill:rgb(70,49,116);fill-rule:nonzero;"/>
                <g>
                    <path d="M1118.82,283.491C1119.01,282.175 1120.24,281.266 1121.55,281.461C1122.86,281.657 1123.77,282.883 1123.57,284.199C1123.37,285.516 1122.15,286.425 1120.84,286.229C1119.53,286.034 1118.62,284.808 1118.82,283.491Z" style="fill:rgb(70,49,116);fill-rule:nonzero;"/>
                    <path d="M1119.54,282.634C1119.63,282.057 1120.16,281.659 1120.74,281.745C1121.32,281.83 1121.71,282.367 1121.63,282.944C1121.54,283.521 1121,283.919 1120.43,283.834C1119.85,283.748 1119.46,283.211 1119.54,282.634Z" style="fill:white;fill-rule:nonzero;"/>
                </g>
                <path d="M1113.68,290.73C1113.68,290.73 1114.11,289.581 1115.12,289.228C1116.14,288.871 1117.24,289.526 1117.24,289.526C1117.24,289.526 1116.89,290.868 1115.13,290.87C1114.11,290.871 1113.68,290.73 1113.68,290.73Z" style="fill:rgb(89,63,146);fill-rule:nonzero;"/>
                <path d="M1128.16,248.989L1128.96,248.989C1129.15,248.989 1129.3,249.146 1129.3,249.337L1129.3,250.132C1129.3,250.325 1129.15,250.48 1128.96,250.48L1128.16,250.48C1127.97,250.479 1127.81,250.324 1127.81,250.132L1127.81,249.337C1127.81,249.244 1127.85,249.156 1127.91,249.091C1127.98,249.025 1128.07,248.989 1128.16,248.989ZM1130.92,248.989L1131.72,248.989C1131.91,248.99 1132.06,249.145 1132.06,249.337L1132.06,250.132C1132.06,250.325 1131.91,250.48 1131.72,250.48L1130.92,250.48C1130.73,250.479 1130.57,250.324 1130.57,250.132L1130.57,249.337C1130.57,249.145 1130.73,248.99 1130.92,248.989ZM1133.68,248.989L1134.48,248.989C1134.67,248.99 1134.82,249.145 1134.82,249.337L1134.82,250.132C1134.82,250.325 1134.67,250.48 1134.48,250.48L1133.68,250.48C1133.49,250.479 1133.33,250.324 1133.33,250.132L1133.33,249.337C1133.33,249.244 1133.37,249.156 1133.43,249.091C1133.5,249.025 1133.59,248.989 1133.68,248.989ZM1136.44,248.989L1137.24,248.989C1137.43,248.99 1137.58,249.145 1137.58,249.337L1137.58,250.132C1137.58,250.325 1137.43,250.48 1137.24,250.48L1136.44,250.48C1136.25,250.48 1136.09,250.324 1136.09,250.132L1136.09,249.337C1136.09,249.145 1136.25,248.99 1136.44,248.989ZM1139.2,248.989L1140,248.989C1140.19,248.989 1140.34,249.146 1140.34,249.337L1140.34,250.132C1140.34,250.325 1140.19,250.48 1140,250.48L1139.2,250.48C1139.01,250.479 1138.85,250.324 1138.85,250.132L1138.85,249.337C1138.85,249.145 1139.01,248.99 1139.2,248.989ZM1131.02,251.998L1131.82,251.998C1132.01,251.999 1132.16,252.154 1132.16,252.345L1132.16,253.143C1132.16,253.334 1132.01,253.49 1131.82,253.49L1131.02,253.49C1130.83,253.49 1130.67,253.335 1130.67,253.143L1130.67,252.347C1130.67,252.254 1130.71,252.166 1130.77,252.1C1130.84,252.034 1130.93,251.998 1131.02,251.998ZM1133.78,251.998L1134.58,251.998C1134.77,251.999 1134.92,252.154 1134.92,252.345L1134.92,253.143C1134.92,253.334 1134.77,253.49 1134.58,253.49L1133.78,253.49C1133.59,253.489 1133.43,253.334 1133.43,253.143L1133.43,252.347C1133.43,252.254 1133.47,252.166 1133.53,252.1C1133.6,252.034 1133.69,251.998 1133.78,251.998ZM1136.54,251.998L1137.34,251.998C1137.53,251.998 1137.68,252.155 1137.68,252.345L1137.68,253.143C1137.68,253.335 1137.53,253.49 1137.34,253.49L1136.54,253.49C1136.35,253.489 1136.19,253.334 1136.19,253.143L1136.19,252.347C1136.19,252.155 1136.35,251.998 1136.54,251.998ZM1133.68,245.757L1134.48,245.757C1134.67,245.757 1134.82,245.913 1134.82,246.104L1134.82,246.9C1134.82,247.092 1134.67,247.247 1134.48,247.247L1133.68,247.247C1133.49,247.247 1133.33,247.091 1133.33,246.9L1133.33,246.104C1133.33,246.012 1133.37,245.923 1133.43,245.858C1133.5,245.793 1133.59,245.757 1133.68,245.757ZM1136.44,245.757L1137.24,245.757C1137.43,245.757 1137.58,245.913 1137.58,246.104L1137.58,246.9C1137.58,247.092 1137.43,247.247 1137.24,247.247L1136.44,247.247C1136.25,247.247 1136.09,247.092 1136.09,246.9L1136.09,246.104C1136.09,245.913 1136.25,245.758 1136.44,245.757Z" style="fill:rgb(89,63,146);"/>
                <path d="M1019.16,116.809L1018.25,116.809C1018.03,116.809 1017.85,116.629 1017.85,116.411L1017.85,115.5C1017.85,115.281 1018.03,115.103 1018.25,115.103L1019.16,115.103C1019.38,115.104 1019.56,115.281 1019.56,115.5L1019.56,116.411C1019.56,116.517 1019.52,116.618 1019.44,116.692C1019.37,116.767 1019.27,116.809 1019.16,116.809ZM1016.01,116.809L1015.1,116.809C1014.88,116.808 1014.7,116.63 1014.7,116.411L1014.7,115.5C1014.7,115.281 1014.88,115.103 1015.1,115.103L1016.01,115.103C1016.23,115.104 1016.4,115.281 1016.4,115.5L1016.4,116.411C1016.4,116.63 1016.23,116.808 1016.01,116.809ZM1012.85,116.809L1011.94,116.809C1011.72,116.808 1011.54,116.63 1011.54,116.411L1011.54,115.5C1011.54,115.281 1011.72,115.103 1011.94,115.103L1012.85,115.103C1013.07,115.104 1013.24,115.281 1013.24,115.5L1013.24,116.411C1013.24,116.517 1013.2,116.618 1013.13,116.692C1013.05,116.767 1012.95,116.809 1012.85,116.809ZM1009.69,116.809L1008.78,116.809C1008.56,116.808 1008.38,116.63 1008.38,116.411L1008.38,115.5C1008.38,115.281 1008.56,115.103 1008.78,115.103L1009.69,115.103C1009.91,115.103 1010.09,115.281 1010.09,115.5L1010.09,116.411C1010.09,116.63 1009.91,116.807 1009.69,116.809ZM1006.53,116.809L1005.62,116.809C1005.4,116.809 1005.22,116.629 1005.22,116.411L1005.22,115.5C1005.22,115.281 1005.4,115.103 1005.62,115.103L1006.53,115.103C1006.75,115.104 1006.93,115.281 1006.93,115.5L1006.93,116.411C1006.93,116.63 1006.75,116.808 1006.53,116.809ZM1015.89,113.366L1014.98,113.366C1014.76,113.365 1014.58,113.188 1014.58,112.968L1014.58,112.056C1014.58,111.838 1014.76,111.659 1014.98,111.659L1015.89,111.659C1016.11,111.659 1016.29,111.836 1016.29,112.056L1016.29,112.967C1016.29,113.073 1016.25,113.174 1016.17,113.249C1016.1,113.324 1016,113.366 1015.89,113.366ZM1012.73,113.366L1011.82,113.366C1011.6,113.365 1011.43,113.188 1011.43,112.968L1011.43,112.056C1011.43,111.838 1011.6,111.659 1011.82,111.659L1012.73,111.659C1012.95,111.659 1013.13,111.837 1013.13,112.056L1013.13,112.967C1013.13,113.073 1013.09,113.174 1013.01,113.249C1012.94,113.324 1012.84,113.366 1012.73,113.366ZM1009.58,113.366L1008.67,113.366C1008.45,113.366 1008.27,113.187 1008.27,112.968L1008.27,112.056C1008.27,111.836 1008.45,111.659 1008.67,111.659L1009.58,111.659C1009.79,111.659 1009.97,111.837 1009.97,112.056L1009.97,112.967C1009.97,113.187 1009.79,113.366 1009.58,113.366ZM1012.85,120.507L1011.94,120.507C1011.72,120.507 1011.54,120.328 1011.54,120.11L1011.54,119.199C1011.54,118.979 1011.72,118.802 1011.94,118.802L1012.85,118.802C1013.07,118.802 1013.24,118.98 1013.24,119.199L1013.24,120.11C1013.24,120.215 1013.2,120.316 1013.13,120.391C1013.05,120.465 1012.95,120.507 1012.85,120.507ZM1009.69,120.507L1008.78,120.507C1008.56,120.507 1008.38,120.328 1008.38,120.11L1008.38,119.199C1008.38,118.979 1008.56,118.802 1008.78,118.802L1009.69,118.802C1009.91,118.802 1010.09,118.979 1010.09,119.199L1010.09,120.11C1010.09,120.329 1009.91,120.505 1009.69,120.507Z" style="fill:rgb(89,63,146);"/>
                <path d="M1075.04,110.233C1075.04,111.02 1075.68,111.659 1076.48,111.659C1077.27,111.659 1077.92,111.02 1077.92,110.233C1077.92,109.445 1077.27,108.807 1076.48,108.807C1075.68,108.807 1075.04,109.445 1075.04,110.233Z" style="fill:rgb(89,63,146);fill-rule:nonzero;"/>
                <path d="M1000.73,171.448C1000.73,172.235 1001.38,172.874 1002.17,172.874C1002.97,172.874 1003.61,172.235 1003.61,171.448C1003.61,170.66 1002.97,170.022 1002.17,170.022C1001.38,170.022 1000.73,170.66 1000.73,171.448Z" style="fill:rgb(89,63,146);fill-rule:nonzero;"/>
                <path d="M1031.3,301.004C1031.3,301.791 1031.95,302.43 1032.74,302.43C1033.54,302.43 1034.18,301.791 1034.18,301.004C1034.18,300.216 1033.54,299.578 1032.74,299.578C1031.95,299.578 1031.3,300.216 1031.3,301.004Z" style="fill:rgb(89,63,146);fill-rule:nonzero;"/>
                <path d="M1126.23,172.584C1127.5,171.892 1127.81,170.006 1127.81,170.006C1127.81,170.006 1126.06,169.243 1124.79,169.936C1123.51,170.628 1123.2,172.513 1123.2,172.513C1123.2,172.513 1124.95,173.276 1126.23,172.584Z" style="fill:rgb(89,63,146);fill-rule:nonzero;"/>
                <path d="M1072.78,303.508C1073.49,302.244 1072.75,300.481 1072.75,300.481C1072.75,300.481 1070.86,300.769 1070.16,302.034C1069.45,303.297 1070.19,305.06 1070.19,305.06C1070.19,305.06 1072.07,304.772 1072.78,303.508Z" style="fill:rgb(89,63,146);fill-rule:nonzero;"/>
                <path d="M1004.13,228.361C1006.61,229.412 1009.71,227.685 1009.71,227.685C1009.71,227.685 1008.8,224.255 1006.31,223.206C1003.84,222.156 1000.73,223.881 1000.73,223.881C1000.73,223.881 1001.65,227.31 1004.13,228.361Z" style="fill:rgb(89,63,146);fill-rule:nonzero;"/>
            </g>
            <g>
                <g>
                    <path d="M1026.45,173.139C1026.45,166.324 1031.98,160.8 1038.79,160.8L1088.32,160.8C1095.13,160.8 1100.66,166.324 1100.66,173.139L1100.66,237.692C1100.66,244.506 1095.13,250.03 1088.32,250.03L1038.79,250.03C1031.98,250.03 1026.45,244.506 1026.45,237.692L1026.45,173.139Z" style="fill:white;fill-rule:nonzero;"/>
                    <g>
                        <g>
                            <path d="M1037.38,201.027C1037.38,199.599 1038.53,198.441 1039.96,198.441L1048.96,198.441C1050.38,198.441 1051.54,199.599 1051.54,201.027C1051.54,202.456 1050.38,203.614 1048.96,203.614L1039.96,203.614C1038.53,203.614 1037.38,202.456 1037.38,201.027Z" style="fill:rgb(221,221,221);fill-rule:nonzero;"/>
                            <path d="M1056.61,201.027C1056.61,199.599 1057.77,198.441 1059.2,198.441L1068.19,198.441C1069.62,198.441 1070.78,199.599 1070.78,201.027C1070.78,202.456 1069.62,203.614 1068.19,203.614L1059.2,203.614C1057.77,203.614 1056.61,202.456 1056.61,201.027Z" style="fill:rgb(221,221,221);fill-rule:nonzero;"/>
                            <path d="M1075.84,201.027C1075.84,199.599 1077,198.441 1078.43,198.441L1087.42,198.441C1088.85,198.441 1090.01,199.599 1090.01,201.027C1090.01,202.456 1088.85,203.614 1087.42,203.614L1078.43,203.614C1077,203.614 1075.84,202.456 1075.84,201.027Z" style="fill:rgb(221,221,221);fill-rule:nonzero;"/>
                        </g>
                        <path d="M1048.85,210.219C1048.85,208.791 1050.01,207.633 1051.44,207.633L1075.95,207.633C1077.38,207.633 1078.53,208.791 1078.53,210.219C1078.53,211.648 1077.38,212.806 1075.95,212.806L1051.44,212.806C1050.01,212.806 1048.85,211.648 1048.85,210.219Z" style="fill:rgb(221,221,221);fill-rule:nonzero;"/>
                    </g>
                    <path d="M1034.94,176.698C1034.94,173.82 1037.28,171.488 1040.15,171.488L1087.24,171.488C1090.11,171.488 1092.45,173.82 1092.45,176.698L1092.45,186.028C1092.45,188.905 1090.11,191.238 1087.24,191.238L1040.15,191.238C1037.28,191.238 1034.94,188.905 1034.94,186.028L1034.94,176.698Z" style="fill:rgb(221,221,221);fill-rule:nonzero;"/>
                    <g transform="matrix(1,0,0,1,-0.135,0)">
                        <g>
                            <path d="M1064.86,237.862C1064.86,234.948 1067.23,232.587 1070.14,232.587L1088.48,232.587C1091.39,232.587 1093.75,234.948 1093.75,237.862C1093.75,240.775 1091.39,243.137 1088.48,243.137L1070.14,243.137C1067.23,243.137 1064.86,240.775 1064.86,237.862Z" style="fill:rgb(37,211,102);fill-rule:nonzero;"/>
                            <g transform="matrix(1,0,0,1,1069.89,238.99)">
                                <g transform="matrix(3.44917,0,0,3.44917,0,0)">
                                    <path d="M1.028,-0.702L0.845,0L0.638,0L0.526,-0.462L0.41,0L0.203,0L0.025,-0.702L0.208,-0.702L0.309,-0.191L0.434,-0.702L0.622,-0.702L0.742,-0.191L0.844,-0.702L1.028,-0.702Z" style="fill:white;fill-rule:nonzero;"/>
                                </g>
                                <g transform="matrix(3.44917,0,0,3.44917,3.62853,0)">
                                    <path d="M0.405,-0.564C0.469,-0.564 0.52,-0.543 0.559,-0.501C0.598,-0.458 0.617,-0.4 0.617,-0.326L0.617,0L0.447,0L0.447,-0.303C0.447,-0.34 0.437,-0.369 0.418,-0.39C0.399,-0.411 0.373,-0.421 0.34,-0.421C0.307,-0.421 0.281,-0.411 0.262,-0.39C0.243,-0.369 0.233,-0.34 0.233,-0.303L0.233,0L0.062,0L0.062,-0.74L0.233,-0.74L0.233,-0.483C0.25,-0.508 0.274,-0.527 0.304,-0.542C0.334,-0.557 0.368,-0.564 0.405,-0.564Z" style="fill:white;fill-rule:nonzero;"/>
                                </g>
                                <g transform="matrix(3.44917,0,0,3.44917,5.95327,0)">
                                    <path d="M0.028,-0.28C0.028,-0.337 0.039,-0.388 0.061,-0.431C0.082,-0.474 0.112,-0.508 0.149,-0.531C0.186,-0.554 0.228,-0.566 0.274,-0.566C0.313,-0.566 0.348,-0.558 0.378,-0.542C0.407,-0.526 0.43,-0.505 0.446,-0.479L0.446,-0.558L0.617,-0.558L0.617,0L0.446,0L0.446,-0.079C0.429,-0.053 0.406,-0.032 0.377,-0.016C0.347,0 0.312,0.008 0.273,0.008C0.228,0.008 0.186,-0.004 0.149,-0.028C0.112,-0.051 0.082,-0.085 0.061,-0.129C0.039,-0.172 0.028,-0.223 0.028,-0.28ZM0.446,-0.279C0.446,-0.322 0.434,-0.355 0.411,-0.38C0.387,-0.405 0.358,-0.417 0.324,-0.417C0.29,-0.417 0.261,-0.405 0.238,-0.381C0.214,-0.356 0.202,-0.323 0.202,-0.28C0.202,-0.237 0.214,-0.204 0.238,-0.179C0.261,-0.154 0.29,-0.141 0.324,-0.141C0.358,-0.141 0.387,-0.153 0.411,-0.178C0.434,-0.203 0.446,-0.236 0.446,-0.279Z" style="fill:white;fill-rule:nonzero;"/>
                                </g>
                                <g transform="matrix(3.44917,0,0,3.44917,8.29525,0)">
                                    <path d="M0.373,-0.145L0.373,0L0.286,0C0.224,0 0.176,-0.015 0.141,-0.046C0.106,-0.076 0.089,-0.125 0.089,-0.194L0.089,-0.416L0.021,-0.416L0.021,-0.558L0.089,-0.558L0.089,-0.694L0.26,-0.694L0.26,-0.558L0.372,-0.558L0.372,-0.416L0.26,-0.416L0.26,-0.192C0.26,-0.175 0.264,-0.163 0.272,-0.156C0.28,-0.149 0.293,-0.145 0.312,-0.145L0.373,-0.145Z" style="fill:white;fill-rule:nonzero;"/>
                                </g>
                                <g transform="matrix(3.44917,0,0,3.44917,9.69562,0)">
                                    <path d="M0.289,0.008C0.24,0.008 0.197,0 0.159,-0.017C0.121,-0.034 0.091,-0.057 0.069,-0.086C0.047,-0.115 0.035,-0.147 0.032,-0.183L0.201,-0.183C0.203,-0.164 0.212,-0.148 0.228,-0.136C0.244,-0.124 0.264,-0.118 0.287,-0.118C0.308,-0.118 0.325,-0.122 0.337,-0.131C0.348,-0.139 0.354,-0.15 0.354,-0.163C0.354,-0.179 0.346,-0.191 0.329,-0.199C0.312,-0.206 0.285,-0.215 0.248,-0.224C0.208,-0.233 0.175,-0.243 0.148,-0.254C0.121,-0.264 0.098,-0.28 0.079,-0.303C0.06,-0.325 0.05,-0.355 0.05,-0.393C0.05,-0.425 0.059,-0.454 0.077,-0.481C0.094,-0.507 0.12,-0.528 0.155,-0.543C0.189,-0.558 0.23,-0.566 0.277,-0.566C0.347,-0.566 0.402,-0.549 0.443,-0.514C0.483,-0.479 0.506,-0.433 0.512,-0.376L0.354,-0.376C0.351,-0.395 0.343,-0.411 0.329,-0.422C0.314,-0.433 0.295,-0.439 0.272,-0.439C0.252,-0.439 0.237,-0.435 0.226,-0.428C0.215,-0.42 0.21,-0.409 0.21,-0.396C0.21,-0.38 0.219,-0.368 0.236,-0.36C0.253,-0.352 0.279,-0.344 0.315,-0.336C0.356,-0.325 0.39,-0.315 0.416,-0.305C0.442,-0.294 0.465,-0.278 0.485,-0.255C0.504,-0.232 0.514,-0.201 0.515,-0.162C0.515,-0.129 0.506,-0.1 0.488,-0.075C0.469,-0.049 0.443,-0.029 0.409,-0.014C0.374,0.001 0.334,0.008 0.289,0.008Z" style="fill:white;fill-rule:nonzero;"/>
                                </g>
                                <g transform="matrix(3.44917,0,0,3.44917,11.6203,0)">
                                    <path d="M0.499,-0.124L0.237,-0.124L0.195,0L0.016,0L0.27,-0.702L0.468,-0.702L0.722,0L0.541,0L0.499,-0.124ZM0.455,-0.256L0.368,-0.513L0.282,-0.256L0.455,-0.256Z" style="fill:white;fill-rule:nonzero;"/>
                                </g>
                                <g transform="matrix(3.44917,0,0,3.44917,14.1623,0)">
                                    <path d="M0.233,-0.479C0.25,-0.505 0.273,-0.526 0.302,-0.542C0.331,-0.558 0.366,-0.566 0.405,-0.566C0.451,-0.566 0.493,-0.554 0.53,-0.531C0.567,-0.508 0.597,-0.474 0.619,-0.431C0.64,-0.388 0.651,-0.337 0.651,-0.28C0.651,-0.223 0.64,-0.172 0.619,-0.129C0.597,-0.085 0.567,-0.051 0.53,-0.028C0.493,-0.004 0.451,0.008 0.405,0.008C0.366,0.008 0.332,0 0.303,-0.016C0.273,-0.032 0.25,-0.053 0.233,-0.078L0.233,0.266L0.062,0.266L0.062,-0.558L0.233,-0.558L0.233,-0.479ZM0.477,-0.28C0.477,-0.323 0.465,-0.356 0.442,-0.381C0.418,-0.405 0.389,-0.417 0.354,-0.417C0.32,-0.417 0.291,-0.405 0.268,-0.38C0.244,-0.355 0.232,-0.322 0.232,-0.279C0.232,-0.236 0.244,-0.203 0.268,-0.178C0.291,-0.153 0.32,-0.141 0.354,-0.141C0.388,-0.141 0.417,-0.154 0.441,-0.179C0.465,-0.204 0.477,-0.237 0.477,-0.28Z" style="fill:white;fill-rule:nonzero;"/>
                                </g>
                                <g transform="matrix(3.44917,0,0,3.44917,16.5043,0)">
                                    <path d="M0.233,-0.479C0.25,-0.505 0.273,-0.526 0.302,-0.542C0.331,-0.558 0.366,-0.566 0.405,-0.566C0.451,-0.566 0.493,-0.554 0.53,-0.531C0.567,-0.508 0.597,-0.474 0.619,-0.431C0.64,-0.388 0.651,-0.337 0.651,-0.28C0.651,-0.223 0.64,-0.172 0.619,-0.129C0.597,-0.085 0.567,-0.051 0.53,-0.028C0.493,-0.004 0.451,0.008 0.405,0.008C0.366,0.008 0.332,0 0.303,-0.016C0.273,-0.032 0.25,-0.053 0.233,-0.078L0.233,0.266L0.062,0.266L0.062,-0.558L0.233,-0.558L0.233,-0.479ZM0.477,-0.28C0.477,-0.323 0.465,-0.356 0.442,-0.381C0.418,-0.405 0.389,-0.417 0.354,-0.417C0.32,-0.417 0.291,-0.405 0.268,-0.38C0.244,-0.355 0.232,-0.322 0.232,-0.279C0.232,-0.236 0.244,-0.203 0.268,-0.178C0.291,-0.153 0.32,-0.141 0.354,-0.141C0.388,-0.141 0.417,-0.154 0.441,-0.179C0.465,-0.204 0.477,-0.237 0.477,-0.28Z" style="fill:white;fill-rule:nonzero;"/>
                                </g>
                            </g>
                        </g>
                        <g>
                            <path d="M1033.63,237.862C1033.63,234.948 1035.99,232.587 1038.91,232.587L1057.25,232.587C1060.16,232.587 1062.52,234.948 1062.52,237.862C1062.52,240.775 1060.16,243.137 1057.25,243.137L1038.91,243.137C1035.99,243.137 1033.63,240.775 1033.63,237.862Z" style="fill:url(#_Linear1);fill-rule:nonzero;"/>
                            <g transform="matrix(1,0,0,1,1039.38,238.921)">
                                <g transform="matrix(3.29201,0,0,3.29201,0,0)">
                                    <rect x="0.075" y="-0.695" width="0.114" height="0.695" style="fill:white;fill-rule:nonzero;"/>
                                </g>
                                <g transform="matrix(3.29201,0,0,3.29201,0.869091,0)">
                                    <path d="M0.353,-0.56C0.396,-0.56 0.435,-0.551 0.47,-0.533C0.504,-0.515 0.531,-0.488 0.55,-0.453C0.569,-0.418 0.579,-0.375 0.579,-0.325L0.579,0L0.466,0L0.466,-0.308C0.466,-0.357 0.454,-0.395 0.429,-0.422C0.404,-0.448 0.371,-0.461 0.328,-0.461C0.285,-0.461 0.252,-0.448 0.227,-0.422C0.202,-0.395 0.189,-0.357 0.189,-0.308L0.189,0L0.075,0L0.075,-0.551L0.189,-0.551L0.189,-0.488C0.208,-0.511 0.232,-0.528 0.261,-0.541C0.29,-0.554 0.32,-0.56 0.353,-0.56Z" style="fill:white;fill-rule:nonzero;"/>
                                </g>
                                <g transform="matrix(3.29201,0,0,3.29201,3.00561,0)">
                                    <path d="M0.275,0.009C0.232,0.009 0.193,0.001 0.159,-0.015C0.124,-0.03 0.097,-0.051 0.077,-0.079C0.057,-0.106 0.046,-0.136 0.045,-0.169L0.163,-0.169C0.165,-0.146 0.176,-0.126 0.197,-0.111C0.217,-0.095 0.242,-0.087 0.273,-0.087C0.305,-0.087 0.33,-0.093 0.348,-0.106C0.365,-0.118 0.374,-0.134 0.374,-0.153C0.374,-0.174 0.364,-0.189 0.345,-0.199C0.325,-0.209 0.294,-0.22 0.251,-0.232C0.21,-0.243 0.176,-0.254 0.15,-0.265C0.124,-0.276 0.101,-0.292 0.083,-0.314C0.064,-0.336 0.054,-0.365 0.054,-0.401C0.054,-0.43 0.063,-0.457 0.08,-0.482C0.097,-0.506 0.122,-0.525 0.155,-0.539C0.187,-0.553 0.224,-0.56 0.266,-0.56C0.329,-0.56 0.379,-0.544 0.418,-0.513C0.456,-0.481 0.476,-0.438 0.479,-0.383L0.365,-0.383C0.363,-0.408 0.353,-0.427 0.335,-0.442C0.317,-0.457 0.293,-0.464 0.262,-0.464C0.232,-0.464 0.209,-0.458 0.193,-0.447C0.177,-0.436 0.169,-0.421 0.169,-0.402C0.169,-0.387 0.174,-0.375 0.185,-0.365C0.196,-0.355 0.209,-0.347 0.224,-0.342C0.239,-0.336 0.262,-0.329 0.292,-0.32C0.332,-0.309 0.365,-0.299 0.391,-0.288C0.416,-0.277 0.438,-0.26 0.457,-0.239C0.476,-0.218 0.485,-0.189 0.486,-0.154C0.486,-0.123 0.477,-0.095 0.46,-0.07C0.443,-0.045 0.418,-0.026 0.387,-0.012C0.355,0.002 0.318,0.009 0.275,0.009Z" style="fill:white;fill-rule:nonzero;"/>
                                </g>
                                <g transform="matrix(3.29201,0,0,3.29201,4.76354,0)">
                                    <path d="M0.208,-0.458L0.208,-0.153C0.208,-0.132 0.213,-0.117 0.223,-0.109C0.232,-0.099 0.249,-0.095 0.272,-0.095L0.342,-0.095L0.342,0L0.252,0C0.201,0 0.161,-0.012 0.134,-0.036C0.107,-0.06 0.093,-0.099 0.093,-0.153L0.093,-0.458L0.028,-0.458L0.028,-0.551L0.093,-0.551L0.093,-0.688L0.208,-0.688L0.208,-0.551L0.342,-0.551L0.342,-0.458L0.208,-0.458Z" style="fill:white;fill-rule:nonzero;"/>
                                </g>
                                <g transform="matrix(3.29201,0,0,3.29201,5.98817,0)">
                                    <path d="M0.037,-0.278C0.037,-0.333 0.049,-0.382 0.072,-0.425C0.094,-0.468 0.126,-0.501 0.166,-0.525C0.205,-0.548 0.249,-0.56 0.297,-0.56C0.34,-0.56 0.378,-0.552 0.411,-0.535C0.443,-0.518 0.469,-0.496 0.488,-0.471L0.488,-0.551L0.603,-0.551L0.603,0L0.488,0L0.488,-0.082C0.469,-0.056 0.442,-0.034 0.409,-0.017C0.376,0 0.338,0.009 0.295,0.009C0.248,0.009 0.204,-0.003 0.165,-0.028C0.126,-0.052 0.094,-0.086 0.072,-0.13C0.049,-0.173 0.037,-0.223 0.037,-0.278ZM0.488,-0.276C0.488,-0.314 0.48,-0.347 0.465,-0.375C0.449,-0.403 0.428,-0.424 0.403,-0.439C0.378,-0.454 0.35,-0.461 0.321,-0.461C0.292,-0.461 0.264,-0.454 0.239,-0.44C0.214,-0.425 0.193,-0.404 0.178,-0.377C0.162,-0.349 0.154,-0.316 0.154,-0.278C0.154,-0.24 0.162,-0.207 0.178,-0.178C0.193,-0.149 0.214,-0.128 0.24,-0.113C0.265,-0.097 0.292,-0.09 0.321,-0.09C0.35,-0.09 0.378,-0.097 0.403,-0.112C0.428,-0.127 0.449,-0.148 0.465,-0.177C0.48,-0.205 0.488,-0.238 0.488,-0.276Z" style="fill:white;fill-rule:nonzero;"/>
                                </g>
                                <g transform="matrix(3.29201,0,0,3.29201,8.22015,0)">
                                    <path d="M0.297,-0.56C0.34,-0.56 0.378,-0.552 0.411,-0.535C0.444,-0.518 0.469,-0.496 0.488,-0.471L0.488,-0.551L0.603,-0.551L0.603,0.009C0.603,0.06 0.592,0.105 0.571,0.145C0.55,0.184 0.519,0.215 0.479,0.238C0.438,0.261 0.39,0.272 0.334,0.272C0.259,0.272 0.197,0.255 0.148,0.22C0.099,0.185 0.071,0.137 0.064,0.077L0.177,0.077C0.186,0.106 0.204,0.129 0.233,0.147C0.261,0.164 0.295,0.173 0.334,0.173C0.38,0.173 0.417,0.159 0.446,0.131C0.474,0.103 0.488,0.062 0.488,0.009L0.488,-0.083C0.469,-0.057 0.443,-0.035 0.41,-0.018C0.377,0 0.339,0.009 0.297,0.009C0.249,0.009 0.205,-0.003 0.166,-0.028C0.126,-0.052 0.094,-0.086 0.072,-0.13C0.049,-0.173 0.037,-0.223 0.037,-0.278C0.037,-0.333 0.049,-0.382 0.072,-0.425C0.094,-0.468 0.126,-0.501 0.166,-0.525C0.205,-0.548 0.249,-0.56 0.297,-0.56ZM0.488,-0.276C0.488,-0.314 0.48,-0.347 0.465,-0.375C0.449,-0.403 0.428,-0.424 0.403,-0.439C0.378,-0.454 0.35,-0.461 0.321,-0.461C0.292,-0.461 0.264,-0.454 0.239,-0.44C0.214,-0.425 0.193,-0.404 0.178,-0.377C0.162,-0.349 0.154,-0.316 0.154,-0.278C0.154,-0.24 0.162,-0.207 0.178,-0.178C0.193,-0.149 0.214,-0.128 0.24,-0.113C0.265,-0.097 0.292,-0.09 0.321,-0.09C0.35,-0.09 0.378,-0.097 0.403,-0.112C0.428,-0.127 0.449,-0.148 0.465,-0.177C0.48,-0.205 0.488,-0.238 0.488,-0.276Z" style="fill:white;fill-rule:nonzero;"/>
                                </g>
                                <g transform="matrix(3.29201,0,0,3.29201,10.4521,0)">
                                    <path d="M0.189,-0.471C0.206,-0.499 0.228,-0.521 0.256,-0.537C0.283,-0.552 0.316,-0.56 0.354,-0.56L0.354,-0.442L0.325,-0.442C0.28,-0.442 0.247,-0.431 0.224,-0.408C0.201,-0.385 0.189,-0.346 0.189,-0.29L0.189,0L0.075,0L0.075,-0.551L0.189,-0.551L0.189,-0.471Z" style="fill:white;fill-rule:nonzero;"/>
                                </g>
                                <g transform="matrix(3.29201,0,0,3.29201,11.7163,0)">
                                    <path d="M0.037,-0.278C0.037,-0.333 0.049,-0.382 0.072,-0.425C0.094,-0.468 0.126,-0.501 0.166,-0.525C0.205,-0.548 0.249,-0.56 0.297,-0.56C0.34,-0.56 0.378,-0.552 0.411,-0.535C0.443,-0.518 0.469,-0.496 0.488,-0.471L0.488,-0.551L0.603,-0.551L0.603,0L0.488,0L0.488,-0.082C0.469,-0.056 0.442,-0.034 0.409,-0.017C0.376,0 0.338,0.009 0.295,0.009C0.248,0.009 0.204,-0.003 0.165,-0.028C0.126,-0.052 0.094,-0.086 0.072,-0.13C0.049,-0.173 0.037,-0.223 0.037,-0.278ZM0.488,-0.276C0.488,-0.314 0.48,-0.347 0.465,-0.375C0.449,-0.403 0.428,-0.424 0.403,-0.439C0.378,-0.454 0.35,-0.461 0.321,-0.461C0.292,-0.461 0.264,-0.454 0.239,-0.44C0.214,-0.425 0.193,-0.404 0.178,-0.377C0.162,-0.349 0.154,-0.316 0.154,-0.278C0.154,-0.24 0.162,-0.207 0.178,-0.178C0.193,-0.149 0.214,-0.128 0.24,-0.113C0.265,-0.097 0.292,-0.09 0.321,-0.09C0.35,-0.09 0.378,-0.097 0.403,-0.112C0.428,-0.127 0.449,-0.148 0.465,-0.177C0.48,-0.205 0.488,-0.238 0.488,-0.276Z" style="fill:white;fill-rule:nonzero;"/>
                                </g>
                                <g transform="matrix(3.29201,0,0,3.29201,13.9482,0)">
                                    <path d="M0.742,-0.56C0.785,-0.56 0.824,-0.551 0.859,-0.533C0.893,-0.515 0.92,-0.488 0.94,-0.453C0.959,-0.418 0.969,-0.375 0.969,-0.325L0.969,0L0.856,0L0.856,-0.308C0.856,-0.357 0.844,-0.395 0.819,-0.422C0.794,-0.448 0.761,-0.461 0.718,-0.461C0.675,-0.461 0.642,-0.448 0.617,-0.422C0.592,-0.395 0.579,-0.357 0.579,-0.308L0.579,0L0.466,0L0.466,-0.308C0.466,-0.357 0.454,-0.395 0.429,-0.422C0.404,-0.448 0.371,-0.461 0.328,-0.461C0.285,-0.461 0.252,-0.448 0.227,-0.422C0.202,-0.395 0.189,-0.357 0.189,-0.308L0.189,0L0.075,0L0.075,-0.551L0.189,-0.551L0.189,-0.488C0.208,-0.511 0.231,-0.528 0.26,-0.541C0.289,-0.554 0.319,-0.56 0.352,-0.56C0.396,-0.56 0.435,-0.551 0.47,-0.532C0.505,-0.513 0.531,-0.486 0.55,-0.451C0.567,-0.484 0.593,-0.511 0.628,-0.531C0.663,-0.55 0.701,-0.56 0.742,-0.56Z" style="fill:white;fill-rule:nonzero;"/>
                                </g>
                            </g>
                        </g>
                    </g>
                    <g transform="matrix(1,0,0,1,1044.02,228.07)">
                        <g transform="matrix(2.02573,0,0,2.02573,0,0)">
                            <path d="M0.857,-0.702L0.857,0L0.686,0L0.686,-0.421L0.529,0L0.391,0L0.233,-0.422L0.233,0L0.062,0L0.062,-0.702L0.264,-0.702L0.461,-0.216L0.656,-0.702L0.857,-0.702Z" style="fill:rgb(89,63,146);fill-rule:nonzero;"/>
                        </g>
                        <g transform="matrix(2.02573,0,0,2.02573,1.85962,0)">
                            <path d="M0.233,-0.565L0.233,-0.423L0.462,-0.423L0.462,-0.291L0.233,-0.291L0.233,-0.137L0.492,-0.137L0.492,0L0.062,0L0.062,-0.702L0.492,-0.702L0.492,-0.565L0.233,-0.565Z" style="fill:rgb(89,63,146);fill-rule:nonzero;"/>
                        </g>
                        <g transform="matrix(2.02573,0,0,2.02573,2.95554,0)">
                            <path d="M0.316,0.007C0.265,0.007 0.219,-0.001 0.178,-0.018C0.137,-0.035 0.105,-0.059 0.081,-0.092C0.056,-0.125 0.043,-0.164 0.042,-0.21L0.224,-0.21C0.227,-0.184 0.236,-0.164 0.251,-0.151C0.266,-0.137 0.286,-0.13 0.311,-0.13C0.336,-0.13 0.356,-0.136 0.371,-0.148C0.386,-0.159 0.393,-0.175 0.393,-0.196C0.393,-0.213 0.387,-0.228 0.376,-0.239C0.364,-0.25 0.349,-0.26 0.333,-0.267C0.316,-0.274 0.291,-0.283 0.26,-0.292C0.215,-0.306 0.178,-0.32 0.149,-0.334C0.12,-0.348 0.096,-0.369 0.075,-0.396C0.054,-0.423 0.044,-0.459 0.044,-0.503C0.044,-0.568 0.068,-0.619 0.115,-0.657C0.162,-0.693 0.224,-0.712 0.3,-0.712C0.377,-0.712 0.44,-0.693 0.487,-0.657C0.534,-0.619 0.56,-0.568 0.563,-0.502L0.378,-0.502C0.377,-0.525 0.368,-0.543 0.353,-0.556C0.338,-0.569 0.318,-0.575 0.294,-0.575C0.273,-0.575 0.257,-0.57 0.244,-0.559C0.231,-0.548 0.225,-0.532 0.225,-0.511C0.225,-0.488 0.236,-0.471 0.257,-0.458C0.278,-0.445 0.312,-0.432 0.357,-0.417C0.402,-0.402 0.439,-0.387 0.468,-0.373C0.496,-0.359 0.52,-0.339 0.541,-0.312C0.562,-0.285 0.572,-0.251 0.572,-0.209C0.572,-0.169 0.562,-0.133 0.542,-0.1C0.521,-0.067 0.492,-0.041 0.453,-0.022C0.414,-0.003 0.369,0.007 0.316,0.007Z" style="fill:rgb(89,63,146);fill-rule:nonzero;"/>
                        </g>
                        <g transform="matrix(2.02573,0,0,2.02573,4.20136,0)">
                            <path d="M0.316,0.007C0.265,0.007 0.219,-0.001 0.178,-0.018C0.137,-0.035 0.105,-0.059 0.081,-0.092C0.056,-0.125 0.043,-0.164 0.042,-0.21L0.224,-0.21C0.227,-0.184 0.236,-0.164 0.251,-0.151C0.266,-0.137 0.286,-0.13 0.311,-0.13C0.336,-0.13 0.356,-0.136 0.371,-0.148C0.386,-0.159 0.393,-0.175 0.393,-0.196C0.393,-0.213 0.387,-0.228 0.376,-0.239C0.364,-0.25 0.349,-0.26 0.333,-0.267C0.316,-0.274 0.291,-0.283 0.26,-0.292C0.215,-0.306 0.178,-0.32 0.149,-0.334C0.12,-0.348 0.096,-0.369 0.075,-0.396C0.054,-0.423 0.044,-0.459 0.044,-0.503C0.044,-0.568 0.068,-0.619 0.115,-0.657C0.162,-0.693 0.224,-0.712 0.3,-0.712C0.377,-0.712 0.44,-0.693 0.487,-0.657C0.534,-0.619 0.56,-0.568 0.563,-0.502L0.378,-0.502C0.377,-0.525 0.368,-0.543 0.353,-0.556C0.338,-0.569 0.318,-0.575 0.294,-0.575C0.273,-0.575 0.257,-0.57 0.244,-0.559C0.231,-0.548 0.225,-0.532 0.225,-0.511C0.225,-0.488 0.236,-0.471 0.257,-0.458C0.278,-0.445 0.312,-0.432 0.357,-0.417C0.402,-0.402 0.439,-0.387 0.468,-0.373C0.496,-0.359 0.52,-0.339 0.541,-0.312C0.562,-0.285 0.572,-0.251 0.572,-0.209C0.572,-0.169 0.562,-0.133 0.542,-0.1C0.521,-0.067 0.492,-0.041 0.453,-0.022C0.414,-0.003 0.369,0.007 0.316,0.007Z" style="fill:rgb(89,63,146);fill-rule:nonzero;"/>
                        </g>
                        <g transform="matrix(2.02573,0,0,2.02573,5.44719,0)">
                            <path d="M0.499,-0.124L0.237,-0.124L0.195,0L0.016,0L0.27,-0.702L0.468,-0.702L0.722,0L0.541,0L0.499,-0.124ZM0.455,-0.256L0.368,-0.513L0.282,-0.256L0.455,-0.256Z" style="fill:rgb(89,63,146);fill-rule:nonzero;"/>
                        </g>
                        <g transform="matrix(2.02573,0,0,2.02573,6.94015,0)">
                            <path d="M0.528,-0.48C0.515,-0.503 0.497,-0.521 0.474,-0.534C0.45,-0.546 0.422,-0.552 0.39,-0.552C0.335,-0.552 0.29,-0.534 0.257,-0.498C0.224,-0.461 0.207,-0.413 0.207,-0.352C0.207,-0.287 0.225,-0.237 0.26,-0.201C0.295,-0.164 0.343,-0.146 0.404,-0.146C0.446,-0.146 0.482,-0.157 0.511,-0.178C0.54,-0.199 0.561,-0.23 0.574,-0.27L0.357,-0.27L0.357,-0.396L0.729,-0.396L0.729,-0.237C0.716,-0.194 0.695,-0.155 0.665,-0.118C0.634,-0.081 0.596,-0.052 0.549,-0.029C0.502,-0.006 0.45,0.005 0.391,0.005C0.322,0.005 0.26,-0.01 0.206,-0.041C0.151,-0.071 0.109,-0.113 0.079,-0.167C0.048,-0.221 0.033,-0.283 0.033,-0.352C0.033,-0.421 0.048,-0.483 0.079,-0.538C0.109,-0.592 0.151,-0.634 0.205,-0.665C0.259,-0.695 0.321,-0.71 0.39,-0.71C0.474,-0.71 0.545,-0.69 0.603,-0.649C0.66,-0.608 0.698,-0.552 0.717,-0.48L0.528,-0.48Z" style="fill:rgb(89,63,146);fill-rule:nonzero;"/>
                        </g>
                        <g transform="matrix(2.02573,0,0,2.02573,8.48376,0)">
                            <path d="M0.233,-0.565L0.233,-0.423L0.462,-0.423L0.462,-0.291L0.233,-0.291L0.233,-0.137L0.492,-0.137L0.492,0L0.062,0L0.062,-0.702L0.492,-0.702L0.492,-0.565L0.233,-0.565Z" style="fill:rgb(89,63,146);fill-rule:nonzero;"/>
                        </g>
                        <g transform="matrix(2.02573,0,0,2.02573,10.0091,0)">
                            <path d="M0.23,-0.702L0.23,-0.282C0.23,-0.24 0.24,-0.208 0.261,-0.185C0.282,-0.162 0.312,-0.151 0.352,-0.151C0.392,-0.151 0.423,-0.162 0.444,-0.185C0.465,-0.208 0.476,-0.24 0.476,-0.282L0.476,-0.702L0.647,-0.702L0.647,-0.283C0.647,-0.22 0.634,-0.167 0.607,-0.124C0.58,-0.081 0.545,-0.048 0.5,-0.026C0.454,-0.004 0.404,0.007 0.349,0.007C0.294,0.007 0.244,-0.004 0.201,-0.026C0.157,-0.047 0.122,-0.08 0.097,-0.124C0.072,-0.167 0.059,-0.22 0.059,-0.283L0.059,-0.702L0.23,-0.702Z" style="fill:rgb(89,63,146);fill-rule:nonzero;"/>
                        </g>
                        <g transform="matrix(2.02573,0,0,2.02573,11.4373,0)">
                            <path d="M0.316,0.007C0.265,0.007 0.219,-0.001 0.178,-0.018C0.137,-0.035 0.105,-0.059 0.081,-0.092C0.056,-0.125 0.043,-0.164 0.042,-0.21L0.224,-0.21C0.227,-0.184 0.236,-0.164 0.251,-0.151C0.266,-0.137 0.286,-0.13 0.311,-0.13C0.336,-0.13 0.356,-0.136 0.371,-0.148C0.386,-0.159 0.393,-0.175 0.393,-0.196C0.393,-0.213 0.387,-0.228 0.376,-0.239C0.364,-0.25 0.349,-0.26 0.333,-0.267C0.316,-0.274 0.291,-0.283 0.26,-0.292C0.215,-0.306 0.178,-0.32 0.149,-0.334C0.12,-0.348 0.096,-0.369 0.075,-0.396C0.054,-0.423 0.044,-0.459 0.044,-0.503C0.044,-0.568 0.068,-0.619 0.115,-0.657C0.162,-0.693 0.224,-0.712 0.3,-0.712C0.377,-0.712 0.44,-0.693 0.487,-0.657C0.534,-0.619 0.56,-0.568 0.563,-0.502L0.378,-0.502C0.377,-0.525 0.368,-0.543 0.353,-0.556C0.338,-0.569 0.318,-0.575 0.294,-0.575C0.273,-0.575 0.257,-0.57 0.244,-0.559C0.231,-0.548 0.225,-0.532 0.225,-0.511C0.225,-0.488 0.236,-0.471 0.257,-0.458C0.278,-0.445 0.312,-0.432 0.357,-0.417C0.402,-0.402 0.439,-0.387 0.468,-0.373C0.496,-0.359 0.52,-0.339 0.541,-0.312C0.562,-0.285 0.572,-0.251 0.572,-0.209C0.572,-0.169 0.562,-0.133 0.542,-0.1C0.521,-0.067 0.492,-0.041 0.453,-0.022C0.414,-0.003 0.369,0.007 0.316,0.007Z" style="fill:rgb(89,63,146);fill-rule:nonzero;"/>
                        </g>
                        <g transform="matrix(2.02573,0,0,2.02573,13.1126,0)">
                            <path d="M0.499,-0.124L0.237,-0.124L0.195,0L0.016,0L0.27,-0.702L0.468,-0.702L0.722,0L0.541,0L0.499,-0.124ZM0.455,-0.256L0.368,-0.513L0.282,-0.256L0.455,-0.256Z" style="fill:rgb(89,63,146);fill-rule:nonzero;"/>
                        </g>
                        <g transform="matrix(2.02573,0,0,2.02573,14.6055,0)">
                            <path d="M0.69,0L0.519,0L0.233,-0.433L0.233,0L0.062,0L0.062,-0.702L0.233,-0.702L0.519,-0.267L0.519,-0.702L0.69,-0.702L0.69,0Z" style="fill:rgb(89,63,146);fill-rule:nonzero;"/>
                        </g>
                        <g transform="matrix(2.02573,0,0,2.02573,16.1289,0)">
                            <path d="M0.325,-0.702C0.399,-0.702 0.464,-0.687 0.519,-0.658C0.574,-0.629 0.617,-0.588 0.648,-0.535C0.678,-0.482 0.693,-0.42 0.693,-0.351C0.693,-0.282 0.678,-0.221 0.648,-0.168C0.617,-0.115 0.574,-0.073 0.519,-0.044C0.463,-0.015 0.398,0 0.325,0L0.062,0L0.062,-0.702L0.325,-0.702ZM0.314,-0.148C0.379,-0.148 0.429,-0.166 0.465,-0.201C0.501,-0.236 0.519,-0.286 0.519,-0.351C0.519,-0.416 0.501,-0.466 0.465,-0.502C0.429,-0.538 0.379,-0.556 0.314,-0.556L0.233,-0.556L0.233,-0.148L0.314,-0.148Z" style="fill:rgb(89,63,146);fill-rule:nonzero;"/>
                        </g>
                        <g transform="matrix(2.02573,0,0,2.02573,18.031,0)">
                            <path d="M0.487,-0.36C0.528,-0.351 0.56,-0.331 0.585,-0.3C0.61,-0.268 0.622,-0.232 0.622,-0.191C0.622,-0.132 0.602,-0.086 0.561,-0.052C0.52,-0.017 0.462,0 0.389,0L0.062,0L0.062,-0.702L0.378,-0.702C0.449,-0.702 0.505,-0.686 0.546,-0.653C0.586,-0.62 0.606,-0.576 0.606,-0.52C0.606,-0.479 0.595,-0.444 0.574,-0.417C0.552,-0.39 0.523,-0.371 0.487,-0.36ZM0.233,-0.418L0.345,-0.418C0.373,-0.418 0.395,-0.424 0.41,-0.437C0.425,-0.449 0.432,-0.467 0.432,-0.491C0.432,-0.515 0.425,-0.533 0.41,-0.546C0.395,-0.559 0.373,-0.565 0.345,-0.565L0.233,-0.565L0.233,-0.418ZM0.359,-0.138C0.388,-0.138 0.41,-0.145 0.426,-0.158C0.441,-0.17 0.449,-0.189 0.449,-0.214C0.449,-0.239 0.441,-0.258 0.425,-0.272C0.408,-0.286 0.386,-0.293 0.357,-0.293L0.233,-0.293L0.233,-0.138L0.359,-0.138Z" style="fill:rgb(89,63,146);fill-rule:nonzero;"/>
                        </g>
                        <g transform="matrix(2.02573,0,0,2.02573,19.366,0)">
                            <path d="M0.394,0.007C0.328,0.007 0.268,-0.008 0.213,-0.039C0.158,-0.07 0.114,-0.113 0.082,-0.168C0.049,-0.223 0.033,-0.284 0.033,-0.353C0.033,-0.422 0.049,-0.483 0.082,-0.538C0.114,-0.593 0.158,-0.635 0.213,-0.666C0.268,-0.697 0.328,-0.712 0.394,-0.712C0.46,-0.712 0.521,-0.697 0.576,-0.666C0.631,-0.635 0.674,-0.593 0.706,-0.538C0.737,-0.483 0.753,-0.422 0.753,-0.353C0.753,-0.284 0.737,-0.223 0.705,-0.168C0.673,-0.113 0.63,-0.07 0.575,-0.039C0.52,-0.008 0.46,0.007 0.394,0.007ZM0.394,-0.149C0.45,-0.149 0.495,-0.168 0.529,-0.205C0.562,-0.242 0.579,-0.292 0.579,-0.353C0.579,-0.415 0.562,-0.464 0.529,-0.502C0.495,-0.539 0.45,-0.557 0.394,-0.557C0.337,-0.557 0.292,-0.539 0.259,-0.502C0.225,-0.465 0.208,-0.416 0.208,-0.353C0.208,-0.291 0.225,-0.242 0.259,-0.205C0.292,-0.167 0.337,-0.149 0.394,-0.149Z" style="fill:rgb(89,63,146);fill-rule:nonzero;"/>
                        </g>
                        <g transform="matrix(2.02573,0,0,2.02573,20.9582,0)">
                            <path d="M0.394,0.007C0.328,0.007 0.268,-0.008 0.213,-0.039C0.158,-0.07 0.114,-0.113 0.082,-0.168C0.049,-0.223 0.033,-0.284 0.033,-0.353C0.033,-0.422 0.049,-0.483 0.082,-0.538C0.114,-0.593 0.158,-0.635 0.213,-0.666C0.268,-0.697 0.328,-0.712 0.394,-0.712C0.46,-0.712 0.521,-0.697 0.576,-0.666C0.631,-0.635 0.674,-0.593 0.706,-0.538C0.737,-0.483 0.753,-0.422 0.753,-0.353C0.753,-0.284 0.737,-0.223 0.705,-0.168C0.673,-0.113 0.63,-0.07 0.575,-0.039C0.52,-0.008 0.46,0.007 0.394,0.007ZM0.394,-0.149C0.45,-0.149 0.495,-0.168 0.529,-0.205C0.562,-0.242 0.579,-0.292 0.579,-0.353C0.579,-0.415 0.562,-0.464 0.529,-0.502C0.495,-0.539 0.45,-0.557 0.394,-0.557C0.337,-0.557 0.292,-0.539 0.259,-0.502C0.225,-0.465 0.208,-0.416 0.208,-0.353C0.208,-0.291 0.225,-0.242 0.259,-0.205C0.292,-0.167 0.337,-0.149 0.394,-0.149Z" style="fill:rgb(89,63,146);fill-rule:nonzero;"/>
                        </g>
                        <g transform="matrix(2.02573,0,0,2.02573,22.5504,0)">
                            <path d="M0.469,0L0.233,-0.31L0.233,0L0.062,0L0.062,-0.702L0.233,-0.702L0.233,-0.394L0.467,-0.702L0.668,-0.702L0.396,-0.358L0.678,0L0.469,0Z" style="fill:rgb(89,63,146);fill-rule:nonzero;"/>
                        </g>
                        <g transform="matrix(2.02573,0,0,2.02573,24.3918,0)">
                            <path d="M0.664,-0.702L0.421,-0.232L0.421,0L0.25,0L0.25,-0.232L0.007,-0.702L0.201,-0.702L0.337,-0.408L0.472,-0.702L0.664,-0.702Z" style="fill:rgb(89,63,146);fill-rule:nonzero;"/>
                        </g>
                        <g transform="matrix(2.02573,0,0,2.02573,25.7511,0)">
                            <path d="M0.394,0.007C0.328,0.007 0.268,-0.008 0.213,-0.039C0.158,-0.07 0.114,-0.113 0.082,-0.168C0.049,-0.223 0.033,-0.284 0.033,-0.353C0.033,-0.422 0.049,-0.483 0.082,-0.538C0.114,-0.593 0.158,-0.635 0.213,-0.666C0.268,-0.697 0.328,-0.712 0.394,-0.712C0.46,-0.712 0.521,-0.697 0.576,-0.666C0.631,-0.635 0.674,-0.593 0.706,-0.538C0.737,-0.483 0.753,-0.422 0.753,-0.353C0.753,-0.284 0.737,-0.223 0.705,-0.168C0.673,-0.113 0.63,-0.07 0.575,-0.039C0.52,-0.008 0.46,0.007 0.394,0.007ZM0.394,-0.149C0.45,-0.149 0.495,-0.168 0.529,-0.205C0.562,-0.242 0.579,-0.292 0.579,-0.353C0.579,-0.415 0.562,-0.464 0.529,-0.502C0.495,-0.539 0.45,-0.557 0.394,-0.557C0.337,-0.557 0.292,-0.539 0.259,-0.502C0.225,-0.465 0.208,-0.416 0.208,-0.353C0.208,-0.291 0.225,-0.242 0.259,-0.205C0.292,-0.167 0.337,-0.149 0.394,-0.149Z" style="fill:rgb(89,63,146);fill-rule:nonzero;"/>
                        </g>
                        <g transform="matrix(2.02573,0,0,2.02573,27.3433,0)">
                            <path d="M0.23,-0.702L0.23,-0.282C0.23,-0.24 0.24,-0.208 0.261,-0.185C0.282,-0.162 0.312,-0.151 0.352,-0.151C0.392,-0.151 0.423,-0.162 0.444,-0.185C0.465,-0.208 0.476,-0.24 0.476,-0.282L0.476,-0.702L0.647,-0.702L0.647,-0.283C0.647,-0.22 0.634,-0.167 0.607,-0.124C0.58,-0.081 0.545,-0.048 0.5,-0.026C0.454,-0.004 0.404,0.007 0.349,0.007C0.294,0.007 0.244,-0.004 0.201,-0.026C0.157,-0.047 0.122,-0.08 0.097,-0.124C0.072,-0.167 0.059,-0.22 0.059,-0.283L0.059,-0.702L0.23,-0.702Z" style="fill:rgb(89,63,146);fill-rule:nonzero;"/>
                        </g>
                        <g transform="matrix(2.02573,0,0,2.02573,28.7714,0)">
                            <path d="M0.42,0L0.274,-0.265L0.233,-0.265L0.233,0L0.062,0L0.062,-0.702L0.349,-0.702C0.404,-0.702 0.452,-0.692 0.491,-0.673C0.53,-0.654 0.559,-0.627 0.578,-0.594C0.597,-0.56 0.607,-0.522 0.607,-0.481C0.607,-0.434 0.594,-0.393 0.568,-0.356C0.541,-0.319 0.502,-0.293 0.451,-0.278L0.613,0L0.42,0ZM0.233,-0.386L0.339,-0.386C0.37,-0.386 0.394,-0.394 0.41,-0.409C0.425,-0.424 0.433,-0.446 0.433,-0.474C0.433,-0.501 0.425,-0.522 0.41,-0.537C0.394,-0.552 0.37,-0.56 0.339,-0.56L0.233,-0.56L0.233,-0.386Z" style="fill:rgb(89,63,146);fill-rule:nonzero;"/>
                        </g>
                        <g transform="matrix(2.02573,0,0,2.02573,30.5217,0)">
                            <path d="M0.316,0.007C0.265,0.007 0.219,-0.001 0.178,-0.018C0.137,-0.035 0.105,-0.059 0.081,-0.092C0.056,-0.125 0.043,-0.164 0.042,-0.21L0.224,-0.21C0.227,-0.184 0.236,-0.164 0.251,-0.151C0.266,-0.137 0.286,-0.13 0.311,-0.13C0.336,-0.13 0.356,-0.136 0.371,-0.148C0.386,-0.159 0.393,-0.175 0.393,-0.196C0.393,-0.213 0.387,-0.228 0.376,-0.239C0.364,-0.25 0.349,-0.26 0.333,-0.267C0.316,-0.274 0.291,-0.283 0.26,-0.292C0.215,-0.306 0.178,-0.32 0.149,-0.334C0.12,-0.348 0.096,-0.369 0.075,-0.396C0.054,-0.423 0.044,-0.459 0.044,-0.503C0.044,-0.568 0.068,-0.619 0.115,-0.657C0.162,-0.693 0.224,-0.712 0.3,-0.712C0.377,-0.712 0.44,-0.693 0.487,-0.657C0.534,-0.619 0.56,-0.568 0.563,-0.502L0.378,-0.502C0.377,-0.525 0.368,-0.543 0.353,-0.556C0.338,-0.569 0.318,-0.575 0.294,-0.575C0.273,-0.575 0.257,-0.57 0.244,-0.559C0.231,-0.548 0.225,-0.532 0.225,-0.511C0.225,-0.488 0.236,-0.471 0.257,-0.458C0.278,-0.445 0.312,-0.432 0.357,-0.417C0.402,-0.402 0.439,-0.387 0.468,-0.373C0.496,-0.359 0.52,-0.339 0.541,-0.312C0.562,-0.285 0.572,-0.251 0.572,-0.209C0.572,-0.169 0.562,-0.133 0.542,-0.1C0.521,-0.067 0.492,-0.041 0.453,-0.022C0.414,-0.003 0.369,0.007 0.316,0.007Z" style="fill:rgb(89,63,146);fill-rule:nonzero;"/>
                        </g>
                        <g transform="matrix(2.02573,0,0,2.02573,31.7675,0)">
                            <path d="M0.233,-0.565L0.233,-0.423L0.462,-0.423L0.462,-0.291L0.233,-0.291L0.233,-0.137L0.492,-0.137L0.492,0L0.062,0L0.062,-0.702L0.492,-0.702L0.492,-0.565L0.233,-0.565Z" style="fill:rgb(89,63,146);fill-rule:nonzero;"/>
                        </g>
                        <g transform="matrix(2.02573,0,0,2.02573,32.8634,0)">
                            <path d="M0.316,0.007C0.265,0.007 0.219,-0.001 0.178,-0.018C0.137,-0.035 0.105,-0.059 0.081,-0.092C0.056,-0.125 0.043,-0.164 0.042,-0.21L0.224,-0.21C0.227,-0.184 0.236,-0.164 0.251,-0.151C0.266,-0.137 0.286,-0.13 0.311,-0.13C0.336,-0.13 0.356,-0.136 0.371,-0.148C0.386,-0.159 0.393,-0.175 0.393,-0.196C0.393,-0.213 0.387,-0.228 0.376,-0.239C0.364,-0.25 0.349,-0.26 0.333,-0.267C0.316,-0.274 0.291,-0.283 0.26,-0.292C0.215,-0.306 0.178,-0.32 0.149,-0.334C0.12,-0.348 0.096,-0.369 0.075,-0.396C0.054,-0.423 0.044,-0.459 0.044,-0.503C0.044,-0.568 0.068,-0.619 0.115,-0.657C0.162,-0.693 0.224,-0.712 0.3,-0.712C0.377,-0.712 0.44,-0.693 0.487,-0.657C0.534,-0.619 0.56,-0.568 0.563,-0.502L0.378,-0.502C0.377,-0.525 0.368,-0.543 0.353,-0.556C0.338,-0.569 0.318,-0.575 0.294,-0.575C0.273,-0.575 0.257,-0.57 0.244,-0.559C0.231,-0.548 0.225,-0.532 0.225,-0.511C0.225,-0.488 0.236,-0.471 0.257,-0.458C0.278,-0.445 0.312,-0.432 0.357,-0.417C0.402,-0.402 0.439,-0.387 0.468,-0.373C0.496,-0.359 0.52,-0.339 0.541,-0.312C0.562,-0.285 0.572,-0.251 0.572,-0.209C0.572,-0.169 0.562,-0.133 0.542,-0.1C0.521,-0.067 0.492,-0.041 0.453,-0.022C0.414,-0.003 0.369,0.007 0.316,0.007Z" style="fill:rgb(89,63,146);fill-rule:nonzero;"/>
                        </g>
                        <g transform="matrix(2.02573,0,0,2.02573,34.1092,0)">
                            <path d="M0.316,0.007C0.265,0.007 0.219,-0.001 0.178,-0.018C0.137,-0.035 0.105,-0.059 0.081,-0.092C0.056,-0.125 0.043,-0.164 0.042,-0.21L0.224,-0.21C0.227,-0.184 0.236,-0.164 0.251,-0.151C0.266,-0.137 0.286,-0.13 0.311,-0.13C0.336,-0.13 0.356,-0.136 0.371,-0.148C0.386,-0.159 0.393,-0.175 0.393,-0.196C0.393,-0.213 0.387,-0.228 0.376,-0.239C0.364,-0.25 0.349,-0.26 0.333,-0.267C0.316,-0.274 0.291,-0.283 0.26,-0.292C0.215,-0.306 0.178,-0.32 0.149,-0.334C0.12,-0.348 0.096,-0.369 0.075,-0.396C0.054,-0.423 0.044,-0.459 0.044,-0.503C0.044,-0.568 0.068,-0.619 0.115,-0.657C0.162,-0.693 0.224,-0.712 0.3,-0.712C0.377,-0.712 0.44,-0.693 0.487,-0.657C0.534,-0.619 0.56,-0.568 0.563,-0.502L0.378,-0.502C0.377,-0.525 0.368,-0.543 0.353,-0.556C0.338,-0.569 0.318,-0.575 0.294,-0.575C0.273,-0.575 0.257,-0.57 0.244,-0.559C0.231,-0.548 0.225,-0.532 0.225,-0.511C0.225,-0.488 0.236,-0.471 0.257,-0.458C0.278,-0.445 0.312,-0.432 0.357,-0.417C0.402,-0.402 0.439,-0.387 0.468,-0.373C0.496,-0.359 0.52,-0.339 0.541,-0.312C0.562,-0.285 0.572,-0.251 0.572,-0.209C0.572,-0.169 0.562,-0.133 0.542,-0.1C0.521,-0.067 0.492,-0.041 0.453,-0.022C0.414,-0.003 0.369,0.007 0.316,0.007Z" style="fill:rgb(89,63,146);fill-rule:nonzero;"/>
                        </g>
                        <g transform="matrix(2.02573,0,0,2.02573,35.3551,0)">
                            <rect x="0.062" y="-0.702" width="0.171" height="0.702" style="fill:rgb(89,63,146);fill-rule:nonzero;"/>
                        </g>
                        <g transform="matrix(2.02573,0,0,2.02573,35.9527,0)">
                            <path d="M0.394,0.007C0.328,0.007 0.268,-0.008 0.213,-0.039C0.158,-0.07 0.114,-0.113 0.082,-0.168C0.049,-0.223 0.033,-0.284 0.033,-0.353C0.033,-0.422 0.049,-0.483 0.082,-0.538C0.114,-0.593 0.158,-0.635 0.213,-0.666C0.268,-0.697 0.328,-0.712 0.394,-0.712C0.46,-0.712 0.521,-0.697 0.576,-0.666C0.631,-0.635 0.674,-0.593 0.706,-0.538C0.737,-0.483 0.753,-0.422 0.753,-0.353C0.753,-0.284 0.737,-0.223 0.705,-0.168C0.673,-0.113 0.63,-0.07 0.575,-0.039C0.52,-0.008 0.46,0.007 0.394,0.007ZM0.394,-0.149C0.45,-0.149 0.495,-0.168 0.529,-0.205C0.562,-0.242 0.579,-0.292 0.579,-0.353C0.579,-0.415 0.562,-0.464 0.529,-0.502C0.495,-0.539 0.45,-0.557 0.394,-0.557C0.337,-0.557 0.292,-0.539 0.259,-0.502C0.225,-0.465 0.208,-0.416 0.208,-0.353C0.208,-0.291 0.225,-0.242 0.259,-0.205C0.292,-0.167 0.337,-0.149 0.394,-0.149Z" style="fill:rgb(89,63,146);fill-rule:nonzero;"/>
                        </g>
                        <g transform="matrix(2.02573,0,0,2.02573,37.5449,0)">
                            <path d="M0.69,0L0.519,0L0.233,-0.433L0.233,0L0.062,0L0.062,-0.702L0.233,-0.702L0.519,-0.267L0.519,-0.702L0.69,-0.702L0.69,0Z" style="fill:rgb(89,63,146);fill-rule:nonzero;"/>
                        </g>
                    </g>
                    <g transform="matrix(1,0,0,1,-0.14,0)">
                        <path d="M1039.55,220.943C1039.55,220.805 1039.66,220.693 1039.8,220.693L1059.3,220.693C1059.44,220.693 1059.55,220.805 1059.55,220.943C1059.55,221.081 1059.44,221.193 1059.3,221.193L1039.8,221.193C1039.66,221.193 1039.55,221.081 1039.55,220.943Z" style="fill:rgb(221,221,221);fill-rule:nonzero;"/>
                        <path d="M1067.84,220.943C1067.84,220.805 1067.95,220.693 1068.09,220.693L1087.59,220.693C1087.73,220.693 1087.84,220.805 1087.84,220.943C1087.84,221.081 1087.73,221.193 1087.59,221.193L1068.09,221.193C1067.95,221.193 1067.84,221.081 1067.84,220.943Z" style="fill:rgb(221,221,221);fill-rule:nonzero;"/>
                        <g transform="matrix(1,0,0,1,1062.3,221.693)">
                            <g transform="matrix(2.02573,0,0,2.02573,0,0)">
                                <path d="M0.393,0.007C0.328,0.007 0.269,-0.008 0.216,-0.039C0.163,-0.069 0.121,-0.111 0.09,-0.166C0.058,-0.22 0.043,-0.281 0.043,-0.349C0.043,-0.417 0.058,-0.478 0.09,-0.533C0.121,-0.587 0.163,-0.629 0.216,-0.66C0.269,-0.69 0.328,-0.705 0.393,-0.705C0.458,-0.705 0.518,-0.69 0.571,-0.66C0.624,-0.629 0.666,-0.587 0.697,-0.533C0.728,-0.479 0.743,-0.418 0.743,-0.349C0.743,-0.28 0.728,-0.219 0.697,-0.165C0.666,-0.111 0.624,-0.069 0.571,-0.039C0.518,-0.008 0.458,0.007 0.393,0.007ZM0.393,-0.072C0.442,-0.072 0.486,-0.083 0.525,-0.106C0.564,-0.129 0.594,-0.161 0.617,-0.203C0.639,-0.245 0.65,-0.294 0.65,-0.349C0.65,-0.405 0.639,-0.454 0.617,-0.496C0.594,-0.537 0.564,-0.569 0.525,-0.592C0.486,-0.615 0.442,-0.626 0.393,-0.626C0.344,-0.626 0.3,-0.615 0.261,-0.592C0.222,-0.569 0.192,-0.537 0.17,-0.496C0.147,-0.454 0.136,-0.405 0.136,-0.349C0.136,-0.294 0.147,-0.245 0.17,-0.203C0.192,-0.161 0.223,-0.129 0.262,-0.106C0.301,-0.083 0.344,-0.072 0.393,-0.072Z" style="fill:rgb(89,63,146);fill-rule:nonzero;"/>
                            </g>
                            <g transform="matrix(2.02573,0,0,2.02573,1.59222,0)">
                                <path d="M0.444,0L0.278,-0.285L0.168,-0.285L0.168,0L0.077,0L0.077,-0.697L0.302,-0.697C0.355,-0.697 0.399,-0.688 0.436,-0.67C0.472,-0.652 0.499,-0.628 0.517,-0.597C0.535,-0.566 0.544,-0.531 0.544,-0.492C0.544,-0.444 0.53,-0.402 0.503,-0.365C0.475,-0.328 0.433,-0.304 0.378,-0.292L0.553,0L0.444,0ZM0.168,-0.358L0.302,-0.358C0.351,-0.358 0.388,-0.37 0.413,-0.395C0.438,-0.419 0.45,-0.451 0.45,-0.492C0.45,-0.533 0.438,-0.565 0.414,-0.588C0.389,-0.611 0.352,-0.622 0.302,-0.622L0.168,-0.622L0.168,-0.358Z" style="fill:rgb(89,63,146);fill-rule:nonzero;"/>
                            </g>
                        </g>
                    </g>
                </g>
                <g transform="matrix(1,0,0,1,1040.44,150.843)">
                    <g transform="matrix(4.87234,0,0,4.87234,0,0)">
                        <path d="M0.567,-0.702L0.567,-0.565L0.381,-0.565L0.381,0L0.21,0L0.21,-0.565L0.024,-0.565L0.024,-0.702L0.567,-0.702Z" style="fill:white;fill-rule:nonzero;"/>
                    </g>
                    <g transform="matrix(4.87234,0,0,4.87234,2.87955,0)">
                        <path d="M0.67,-0.702L0.67,0L0.499,0L0.499,-0.289L0.233,-0.289L0.233,0L0.062,0L0.062,-0.702L0.233,-0.702L0.233,-0.427L0.499,-0.427L0.499,-0.702L0.67,-0.702Z" style="fill:white;fill-rule:nonzero;"/>
                    </g>
                    <g transform="matrix(4.87234,0,0,4.87234,6.44123,0)">
                        <path d="M0.233,-0.565L0.233,-0.423L0.462,-0.423L0.462,-0.291L0.233,-0.291L0.233,-0.137L0.492,-0.137L0.492,0L0.062,0L0.062,-0.702L0.492,-0.702L0.492,-0.565L0.233,-0.565Z" style="fill:white;fill-rule:nonzero;"/>
                    </g>
                    <g transform="matrix(4.87234,0,0,4.87234,9.07717,0)">
                        <path d="M0.42,0L0.274,-0.265L0.233,-0.265L0.233,0L0.062,0L0.062,-0.702L0.349,-0.702C0.404,-0.702 0.452,-0.692 0.491,-0.673C0.53,-0.654 0.559,-0.627 0.578,-0.594C0.597,-0.56 0.607,-0.522 0.607,-0.481C0.607,-0.434 0.594,-0.393 0.568,-0.356C0.541,-0.319 0.502,-0.293 0.451,-0.278L0.613,0L0.42,0ZM0.233,-0.386L0.339,-0.386C0.37,-0.386 0.394,-0.394 0.41,-0.409C0.425,-0.424 0.433,-0.446 0.433,-0.474C0.433,-0.501 0.425,-0.522 0.41,-0.537C0.394,-0.552 0.37,-0.56 0.339,-0.56L0.233,-0.56L0.233,-0.386Z" style="fill:white;fill-rule:nonzero;"/>
                    </g>
                    <g transform="matrix(4.87234,0,0,4.87234,12.2539,0)">
                        <path d="M0.499,-0.124L0.237,-0.124L0.195,0L0.016,0L0.27,-0.702L0.468,-0.702L0.722,0L0.541,0L0.499,-0.124ZM0.455,-0.256L0.368,-0.513L0.282,-0.256L0.455,-0.256Z" style="fill:white;fill-rule:nonzero;"/>
                    </g>
                    <g transform="matrix(4.87234,0,0,4.87234,15.8448,0)">
                        <path d="M0.597,-0.476C0.597,-0.435 0.588,-0.398 0.569,-0.365C0.55,-0.331 0.522,-0.304 0.483,-0.283C0.444,-0.262 0.396,-0.252 0.339,-0.252L0.233,-0.252L0.233,0L0.062,0L0.062,-0.702L0.339,-0.702C0.395,-0.702 0.442,-0.692 0.481,-0.673C0.52,-0.654 0.549,-0.627 0.568,-0.593C0.587,-0.559 0.597,-0.52 0.597,-0.476ZM0.326,-0.388C0.359,-0.388 0.383,-0.396 0.399,-0.411C0.415,-0.426 0.423,-0.448 0.423,-0.476C0.423,-0.504 0.415,-0.526 0.399,-0.541C0.383,-0.556 0.359,-0.564 0.326,-0.564L0.233,-0.564L0.233,-0.388L0.326,-0.388Z" style="fill:white;fill-rule:nonzero;"/>
                    </g>
                    <g transform="matrix(4.87234,0,0,4.87234,18.8852,0)">
                        <path d="M0.664,-0.702L0.421,-0.232L0.421,0L0.25,0L0.25,-0.232L0.007,-0.702L0.201,-0.702L0.337,-0.408L0.472,-0.702L0.664,-0.702Z" style="fill:white;fill-rule:nonzero;"/>
                    </g>
                    <g transform="matrix(4.87234,0,0,4.87234,23.1875,0)">
                        <path d="M0.487,-0.36C0.528,-0.351 0.56,-0.331 0.585,-0.3C0.61,-0.268 0.622,-0.232 0.622,-0.191C0.622,-0.132 0.602,-0.086 0.561,-0.052C0.52,-0.017 0.462,0 0.389,0L0.062,0L0.062,-0.702L0.378,-0.702C0.449,-0.702 0.505,-0.686 0.546,-0.653C0.586,-0.62 0.606,-0.576 0.606,-0.52C0.606,-0.479 0.595,-0.444 0.574,-0.417C0.552,-0.39 0.523,-0.371 0.487,-0.36ZM0.233,-0.418L0.345,-0.418C0.373,-0.418 0.395,-0.424 0.41,-0.437C0.425,-0.449 0.432,-0.467 0.432,-0.491C0.432,-0.515 0.425,-0.533 0.41,-0.546C0.395,-0.559 0.373,-0.565 0.345,-0.565L0.233,-0.565L0.233,-0.418ZM0.359,-0.138C0.388,-0.138 0.41,-0.145 0.426,-0.158C0.441,-0.17 0.449,-0.189 0.449,-0.214C0.449,-0.239 0.441,-0.258 0.425,-0.272C0.408,-0.286 0.386,-0.293 0.357,-0.293L0.233,-0.293L0.233,-0.138L0.359,-0.138Z" style="fill:white;fill-rule:nonzero;"/>
                    </g>
                    <g transform="matrix(4.87234,0,0,4.87234,26.3983,0)">
                        <path d="M0.394,0.007C0.328,0.007 0.268,-0.008 0.213,-0.039C0.158,-0.07 0.114,-0.113 0.082,-0.168C0.049,-0.223 0.033,-0.284 0.033,-0.353C0.033,-0.422 0.049,-0.483 0.082,-0.538C0.114,-0.593 0.158,-0.635 0.213,-0.666C0.268,-0.697 0.328,-0.712 0.394,-0.712C0.46,-0.712 0.521,-0.697 0.576,-0.666C0.631,-0.635 0.674,-0.593 0.706,-0.538C0.737,-0.483 0.753,-0.422 0.753,-0.353C0.753,-0.284 0.737,-0.223 0.705,-0.168C0.673,-0.113 0.63,-0.07 0.575,-0.039C0.52,-0.008 0.46,0.007 0.394,0.007ZM0.394,-0.149C0.45,-0.149 0.495,-0.168 0.529,-0.205C0.562,-0.242 0.579,-0.292 0.579,-0.353C0.579,-0.415 0.562,-0.464 0.529,-0.502C0.495,-0.539 0.45,-0.557 0.394,-0.557C0.337,-0.557 0.292,-0.539 0.259,-0.502C0.225,-0.465 0.208,-0.416 0.208,-0.353C0.208,-0.291 0.225,-0.242 0.259,-0.205C0.292,-0.167 0.337,-0.149 0.394,-0.149Z" style="fill:white;fill-rule:nonzero;"/>
                    </g>
                    <g transform="matrix(4.87234,0,0,4.87234,30.228,0)">
                        <path d="M0.394,0.007C0.328,0.007 0.268,-0.008 0.213,-0.039C0.158,-0.07 0.114,-0.113 0.082,-0.168C0.049,-0.223 0.033,-0.284 0.033,-0.353C0.033,-0.422 0.049,-0.483 0.082,-0.538C0.114,-0.593 0.158,-0.635 0.213,-0.666C0.268,-0.697 0.328,-0.712 0.394,-0.712C0.46,-0.712 0.521,-0.697 0.576,-0.666C0.631,-0.635 0.674,-0.593 0.706,-0.538C0.737,-0.483 0.753,-0.422 0.753,-0.353C0.753,-0.284 0.737,-0.223 0.705,-0.168C0.673,-0.113 0.63,-0.07 0.575,-0.039C0.52,-0.008 0.46,0.007 0.394,0.007ZM0.394,-0.149C0.45,-0.149 0.495,-0.168 0.529,-0.205C0.562,-0.242 0.579,-0.292 0.579,-0.353C0.579,-0.415 0.562,-0.464 0.529,-0.502C0.495,-0.539 0.45,-0.557 0.394,-0.557C0.337,-0.557 0.292,-0.539 0.259,-0.502C0.225,-0.465 0.208,-0.416 0.208,-0.353C0.208,-0.291 0.225,-0.242 0.259,-0.205C0.292,-0.167 0.337,-0.149 0.394,-0.149Z" style="fill:white;fill-rule:nonzero;"/>
                    </g>
                    <g transform="matrix(4.87234,0,0,4.87234,34.0577,0)">
                        <path d="M0.469,0L0.233,-0.31L0.233,0L0.062,0L0.062,-0.702L0.233,-0.702L0.233,-0.394L0.467,-0.702L0.668,-0.702L0.396,-0.358L0.678,0L0.469,0Z" style="fill:white;fill-rule:nonzero;"/>
                    </g>
                    <g transform="matrix(4.87234,0,0,4.87234,37.4537,0)">
                        <rect x="0.062" y="-0.702" width="0.171" height="0.702" style="fill:white;fill-rule:nonzero;"/>
                    </g>
                    <g transform="matrix(4.87234,0,0,4.87234,38.891,0)">
                        <path d="M0.69,0L0.519,0L0.233,-0.433L0.233,0L0.062,0L0.062,-0.702L0.233,-0.702L0.519,-0.267L0.519,-0.702L0.69,-0.702L0.69,0Z" style="fill:white;fill-rule:nonzero;"/>
                    </g>
                    <g transform="matrix(4.87234,0,0,4.87234,42.555,0)">
                        <path d="M0.528,-0.48C0.515,-0.503 0.497,-0.521 0.474,-0.534C0.45,-0.546 0.422,-0.552 0.39,-0.552C0.335,-0.552 0.29,-0.534 0.257,-0.498C0.224,-0.461 0.207,-0.413 0.207,-0.352C0.207,-0.287 0.225,-0.237 0.26,-0.201C0.295,-0.164 0.343,-0.146 0.404,-0.146C0.446,-0.146 0.482,-0.157 0.511,-0.178C0.54,-0.199 0.561,-0.23 0.574,-0.27L0.357,-0.27L0.357,-0.396L0.729,-0.396L0.729,-0.237C0.716,-0.194 0.695,-0.155 0.665,-0.118C0.634,-0.081 0.596,-0.052 0.549,-0.029C0.502,-0.006 0.45,0.005 0.391,0.005C0.322,0.005 0.26,-0.01 0.206,-0.041C0.151,-0.071 0.109,-0.113 0.079,-0.167C0.048,-0.221 0.033,-0.283 0.033,-0.352C0.033,-0.421 0.048,-0.483 0.079,-0.538C0.109,-0.592 0.151,-0.634 0.205,-0.665C0.259,-0.695 0.321,-0.71 0.39,-0.71C0.474,-0.71 0.545,-0.69 0.603,-0.649C0.66,-0.608 0.698,-0.552 0.717,-0.48L0.528,-0.48Z" style="fill:white;fill-rule:nonzero;"/>
                    </g>
                </g>
            </g>
        </g>
    </g>
    <defs>
        <linearGradient id="_Linear1" x1="0" y1="0" x2="1" y2="0" gradientUnits="userSpaceOnUse" gradientTransform="matrix(8.79,17.079,-17.079,8.79,1044.87,225.723)"><stop offset="0" style="stop-color:rgb(64,93,230);stop-opacity:1"/><stop offset="0.25" style="stop-color:rgb(88,81,219);stop-opacity:1"/><stop offset="0.52" style="stop-color:rgb(131,58,180);stop-opacity:1"/><stop offset="0.84" style="stop-color:rgb(193,53,132);stop-opacity:1"/><stop offset="1" style="stop-color:rgb(188,42,42);stop-opacity:0.85"/></linearGradient>
    </defs>
</svg>
