<?xml version="1.0" encoding="UTF-8" standalone="no"?>
<!DOCTYPE svg PUBLIC "-//W3C//DTD SVG 1.1//EN" "http://www.w3.org/Graphics/SVG/1.1/DTD/svg11.dtd">
<!-- Created with Vectornator (http://vectornator.io/) -->
<svg height="100%" stroke-miterlimit="10" style="fill-rule:nonzero;clip-rule:evenodd;stroke-linecap:round;stroke-linejoin:round;" version="1.1" viewBox="-1.30159 424.3 428 70.3894" width="100%" xml:space="preserve" xmlns="http://www.w3.org/2000/svg" xmlns:vectornator="http://vectornator.io" xmlns:xlink="http://www.w3.org/1999/xlink">
<defs/>
<clipPath id="ArtboardFrame">
<rect height="70.3894" width="428" x="-1.30159" y="424.3"/>
</clipPath>
<g clip-path="url(#ArtboardFrame)" id="Layer" vectornator:layerName="Layer">
<g opacity="1" vectornator:layerName="mountains-m 1">
<path d="M-1.30159 494.689L-1.30159 443.182C12.3518 438.335 30.3513 425.91 41.4333 425.825C54.1301 425.728 79.8143 433.505 86.5644 433.823C95.5182 434.244 114.538 424.346 125.467 424.347C137.662 424.347 166.128 432.313 176.895 432.917C194.319 433.896 206.616 425.081 218.812 424.347C231.008 423.612 250.23 431.751 259.777 432.4C265.431 432.784 293.92 425.341 305.067 424.797C316.127 424.256 344.833 433.957 353.59 433.957C362.503 433.957 378.288 428.062 386.069 427.164C396.962 425.906 426.698 436.282 426.698 436.282L426.698 494.689L-1.30159 494.689Z" fill="#c0a3ff" fill-rule="nonzero" opacity="1" stroke="none" vectornator:layerName="Curve 2"/>
<path d="M-1.30159 454.618C-1.30159 454.618 25.1809 445.976 33.5496 444.797C41.4333 443.686 58.3015 452.767 74.3369 450.831C86.5644 449.355 94.6782 443.605 106.001 443.174C113.319 442.896 134.28 452.638 144.06 450.831C155.094 448.793 172.743 443.128 180.64 443.128C189.391 443.128 207.647 452.317 228.061 449.355C248.475 446.393 255.553 442.558 265.717 443.072C277.635 443.674 289.099 453.073 303.749 450.831C318.399 448.59 340.27 442.959 348.122 443.324C356.823 443.729 368.981 447.434 386.033 449.355C403.084 451.277 401.846 441.867 426.698 449.31L426.698 494.689L-1.30159 494.689L-1.30159 454.618Z" fill="#593f92" fill-rule="nonzero" opacity="1" stroke="none" vectornator:layerName="Curve 3"/>
<path d="M0.071631 468.504C0.071631 468.504 18.5 461.071 37.6897 460.902C56.8793 460.733 71.0982 470.162 78.7183 470.575C94.2601 471.417 106.811 460.574 118.872 459.873C132.882 459.058 167.2 472.509 177.421 472.214C193.132 471.76 210.125 462.491 222.512 462.514C235.852 462.539 256.978 475.719 271.699 473.772C291.416 471.166 305.358 462.127 320.785 461.09C333.837 460.212 354.875 466.25 369.7 466.875C388.937 467.686 411.453 456.506 426.698 461.073L426.698 494.689L-1.30159 494.689L0.071631 468.504Z" fill="#463174" fill-rule="nonzero" opacity="1" stroke="none" vectornator:layerName="Curve 4"/>
</g>
</g>
</svg>
