<?xml version="1.0" encoding="UTF-8" standalone="no"?>
<!DOCTYPE svg PUBLIC "-//W3C//DTD SVG 1.1//EN" "http://www.w3.org/Graphics/SVG/1.1/DTD/svg11.dtd">
<!-- Created with Vectornator (http://vectornator.io/) -->
<svg height="100%" stroke-miterlimit="10" style="fill-rule:nonzero;clip-rule:evenodd;stroke-linecap:round;stroke-linejoin:round;" version="1.1" viewBox="-1.86899 885.938 1924.91 194.252" width="100%" xml:space="preserve" xmlns="http://www.w3.org/2000/svg" xmlns:vectornator="http://vectornator.io" xmlns:xlink="http://www.w3.org/1999/xlink">
<defs/>
<clipPath id="ArtboardFrame">
<rect height="194.252" width="1924.91" x="-1.86899" y="885.938"/>
</clipPath>
<g clip-path="url(#ArtboardFrame)" id="Layer" vectornator:layerName="Layer">
<g opacity="1" vectornator:layerName="mountain-l">
<path d="M-1.86899 1080.19L-1.86899 938.048C59.5366 924.672 140.489 890.382 190.33 890.148C247.433 889.881 362.947 911.342 393.305 912.219C433.574 913.382 519.115 886.067 568.268 886.068C623.115 886.069 751.141 908.051 799.566 909.72C877.928 912.421 933.234 888.095 988.085 886.068C1042.93 884.04 1129.38 906.501 1172.32 908.291C1197.75 909.351 1325.88 888.813 1376.01 887.309C1425.75 885.817 1554.86 912.589 1594.24 912.589C1634.33 912.589 1705.32 896.322 1740.31 893.843C1789.31 890.372 1923.05 919.006 1923.05 919.006L1923.05 1080.19L-1.86899 1080.19Z" fill="#c0a3ff" fill-rule="nonzero" opacity="1" stroke="none" vectornator:layerName="Curve 2"/>
<path d="M-1.86899 969.608C-1.86899 969.608 117.235 945.757 154.873 942.503C190.33 939.437 266.194 964.498 338.312 959.156C393.305 955.083 429.797 939.215 480.721 938.026C513.632 937.257 607.904 964.142 651.888 959.156C701.515 953.531 780.89 937.897 816.408 937.897C855.765 937.897 937.868 963.257 1029.68 955.083C1121.49 946.909 1153.32 936.326 1199.04 937.743C1252.64 939.404 1304.2 965.342 1370.09 959.156C1435.97 952.97 1534.34 937.432 1569.65 938.44C1608.78 939.556 1663.46 949.781 1740.15 955.083C1816.84 960.385 1811.27 934.419 1923.05 954.959L1923.05 1080.19L-1.86899 1080.19L-1.86899 969.608Z" fill="#593f92" fill-rule="nonzero" opacity="1" stroke="none" vectornator:layerName="Curve 3"/>
<path d="M-1.86899 999.874C-1.86899 999.874 122.904 993.265 153.009 991.963C183.114 990.661 272.46 1007.24 324.936 1007.05C405.888 1006.74 449.917 979.903 540.024 982.437C613.969 984.516 717.747 1013.71 786.841 1013.4C854.227 1013.09 1017.63 989.643 1041.36 987.799C1100.88 983.175 1266.48 1009.43 1302.49 1009.43C1333.63 1009.43 1463.35 992.055 1493.41 992.055C1531.56 992.055 1651.4 1011.01 1681.36 1011.09C1710.2 1011.16 1854.48 974.817 1923.05 987.42L1923.05 1080.19L-1.86899 1080.19L-1.86899 999.874Z" fill="#463174" fill-rule="nonzero" opacity="1" stroke="none" vectornator:layerName="Curve 4"/>
</g>
</g>
</svg>
