<?xml version="1.0" encoding="UTF-8" standalone="no"?>
<!DOCTYPE svg PUBLIC "-//W3C//DTD SVG 1.1//EN" "http://www.w3.org/Graphics/SVG/1.1/DTD/svg11.dtd">
<!-- Created with Vectornator (http://vectornator.io/) -->
<svg height="100%" stroke-miterlimit="10" style="fill-rule:nonzero;clip-rule:evenodd;stroke-linecap:round;stroke-linejoin:round;" version="1.1" viewBox="-1.30159 424.3 428 223.613" width="100%" xml:space="preserve" xmlns="http://www.w3.org/2000/svg" xmlns:vectornator="http://vectornator.io" xmlns:xlink="http://www.w3.org/1999/xlink">
<defs>
<linearGradient gradientTransform="matrix(1 0 0 1.42446 -1.30159 -273.853)" gradientUnits="userSpaceOnUse" id="LinearGradient" x1="216.38" x2="237.591" y1="721.965" y2="525.117">
<stop offset="0.03125" stop-color="#593f92"/>
<stop offset="1" stop-color="#463174"/>
</linearGradient>
</defs>
<clipPath id="ArtboardFrame">
<rect height="223.613" width="428" x="-1.30159" y="424.3"/>
</clipPath>
<g clip-path="url(#ArtboardFrame)" id="Layer" vectornator:layerName="Layer">
<g opacity="1" vectornator:layerName="Couple’s Counsellng">
<g opacity="1" vectornator:layerName="Group 2">
<path d="M-1.30159 494.689L-1.30159 443.182C12.3518 438.335 30.3513 425.91 41.4333 425.825C54.1301 425.728 79.8143 433.505 86.5644 433.823C95.5182 434.244 114.538 424.346 125.467 424.347C137.662 424.347 166.128 432.313 176.895 432.917C194.319 433.896 206.616 425.081 218.812 424.347C231.008 423.612 250.23 431.751 259.777 432.4C265.431 432.784 293.92 425.341 305.067 424.797C316.127 424.256 344.833 433.957 353.59 433.957C362.503 433.957 378.288 428.062 386.069 427.164C396.962 425.906 426.698 436.282 426.698 436.282L426.698 494.689L-1.30159 494.689Z" fill="#c0a3ff" fill-rule="nonzero" opacity="1" stroke="none" vectornator:layerName="Curve 2"/>
<path d="M-1.30159 454.618C-1.30159 454.618 25.1809 445.976 33.5496 444.797C41.4333 443.686 58.3015 452.767 74.3369 450.831C86.5644 449.355 94.6782 443.605 106.001 443.174C113.319 442.896 134.28 452.638 144.06 450.831C155.094 448.793 172.743 443.128 180.64 443.128C189.391 443.128 207.647 452.317 228.061 449.355C248.475 446.393 255.553 442.558 265.717 443.072C277.635 443.674 289.099 453.073 303.749 450.831C318.399 448.59 340.27 442.959 348.122 443.324C356.823 443.729 368.981 447.434 386.033 449.355C403.084 451.277 401.846 441.867 426.698 449.31L426.698 494.689L-1.30159 494.689L-1.30159 454.618Z" fill="#593f92" fill-rule="nonzero" opacity="1" stroke="none" vectornator:layerName="Curve 3"/>
<path d="M-1.30159 465.586C-1.30159 465.586 7.83938 460.602 14.5332 460.13C21.227 459.658 27.8584 465.996 33.5496 466.203C39.2408 466.409 46.6272 461.31 52.7608 460.13C58.8943 458.951 68.3965 468.92 76.8301 467.829C85.2637 466.738 90.3796 460.602 100.347 460.13C110.314 459.658 118.613 467.092 126.781 467.918C134.949 468.744 139.475 460.956 146.64 460.13C153.806 459.305 165.605 465.47 173.562 465.524C181.519 465.579 195.684 460.283 201.929 460.283C212.698 460.283 227.528 469.357 232.803 468.689C246.038 467.013 253.26 460.837 262.827 460.13C272.393 459.423 277.502 466.615 292.6 467.008C307.698 467.402 315.532 460.13 323.538 460.13C330.462 460.13 341.795 466.884 353.59 466.692C365.384 466.499 368.076 460.13 374.76 460.13C383.241 460.13 391.598 465.56 398.26 465.589C404.673 465.617 411.453 456.506 426.698 461.073L426.698 494.689L-1.30159 494.689L-1.30159 465.586Z" fill="#463174" fill-rule="nonzero" opacity="1" stroke="none" vectornator:layerName="Curve 4"/>
<path d="M180.64 647.913C180.64 647.913 191.769 619.165 202.957 586.609C206.261 576.995 199.623 564.321 201.929 557.866C206.755 544.358 224.162 536.307 225.71 533.46C228.446 528.426 211.738 524.259 215.069 513.464C217.801 504.611 229.348 501.488 231.557 496.05C235.334 486.754 228.998 478.342 228.998 478.342L234.454 477.415C234.454 477.415 239.542 485.457 238.142 498.489C237.598 503.552 228.935 508.222 229.278 515.179C229.734 524.423 240.863 531.534 239.408 536.106C238.037 540.414 235.873 547.47 232.642 558.315C230.702 564.827 241.801 577.379 242.142 586.478C243.369 619.206 255.734 647.913 255.734 647.913L180.64 647.913Z" fill="url(#LinearGradient)" fill-rule="nonzero" opacity="1" stroke="none" vectornator:layerName="Curve 1"/>
</g>
<g opacity="1" vectornator:layerName="Heart">
<path d="M218.173 605.396L217.21 604.759C215.881 603.883 204.226 595.979 204.226 588.532C204.226 583.797 208.139 579.946 212.947 579.946C214.843 579.946 216.677 580.569 218.18 581.694C219.684 580.569 221.517 579.946 223.413 579.946C228.222 579.946 232.134 583.797 232.134 588.532C232.134 596.106 220.47 603.904 219.141 604.767L218.173 605.396Z" fill="#c0a3ff" fill-rule="nonzero" opacity="1" stroke="none" vectornator:layerName="path"/>
</g>
<g opacity="1" vectornator:layerName="Blobs">
<path d="M191.056 628.482C191.056 622.155 203.277 617.027 218.352 617.027C233.427 617.027 245.648 622.155 245.648 628.482C245.648 634.808 233.427 639.937 218.352 639.937C203.277 639.937 191.056 634.808 191.056 628.482Z" fill="#463174" fill-rule="nonzero" opacity="1" stroke="none" vectornator:layerName="Oval 1"/>
<g opacity="1" vectornator:layerName="Group 10">
<path d="M217.956 619.716C217.956 613.638 222.918 608.711 229.039 608.711C235.16 608.711 240.122 613.638 240.122 619.716C240.122 625.793 240.122 630.154 229.039 630.72C217.969 631.285 217.956 625.793 217.956 619.716Z" fill="#ffffff" fill-rule="nonzero" opacity="1" stroke="#463174" stroke-linecap="butt" stroke-linejoin="round" stroke-width="1.18" vectornator:layerName="Oval 2"/>
<g opacity="1" vectornator:layerName="Group 11">
<g opacity="1" vectornator:layerName="Group 5">
<path d="M227.982 623.448C227.982 622.722 228.481 622.984 229.364 622.984C230.246 622.984 230.774 622.706 230.774 623.448C230.774 624.189 230.164 624.694 229.393 624.694C228.622 624.694 227.982 624.173 227.982 623.448Z" fill="#463174" fill-rule="nonzero" opacity="1" stroke="none" vectornator:layerName="Oval 4"/>
</g>
<path d="M228.222 624.157C228.054 623.912 228.737 623.543 229.363 623.519C229.988 623.495 230.715 623.857 230.55 624.14C230.359 624.466 229.867 624.692 229.394 624.692C228.921 624.692 228.446 624.481 228.222 624.157Z" fill="#7451c2" fill-rule="nonzero" opacity="0.453846" stroke="none" vectornator:layerName="Oval 5"/>
</g>
<g opacity="1" vectornator:layerName="Group 4">
<g opacity="1" vectornator:layerName="Group 2">
<path d="M223.417 620.125C223.417 619.344 224.012 618.711 224.746 618.711C225.481 618.711 226.076 619.344 226.076 620.125C226.076 620.906 225.481 621.539 224.746 621.539C224.012 621.539 223.417 620.906 223.417 620.125Z" fill="#463174" fill-rule="nonzero" opacity="1" stroke="none" vectornator:layerName="Oval 4"/>
<path d="M223.535 620.255C223.535 619.973 223.791 619.745 224.107 619.745C224.423 619.745 224.679 619.973 224.679 620.255C224.679 620.536 224.423 620.765 224.107 620.765C223.791 620.765 223.535 620.536 223.535 620.255Z" fill="#ffffff" fill-rule="nonzero" opacity="1" stroke="none" vectornator:layerName="Oval 7"/>
</g>
<g opacity="1" vectornator:layerName="Group 1">
<path d="M232.511 620.125C232.511 619.344 233.107 618.711 233.841 618.711C234.575 618.711 235.17 619.344 235.17 620.125C235.17 620.906 234.575 621.539 233.841 621.539C233.107 621.539 232.511 620.906 232.511 620.125Z" fill="#463174" fill-rule="nonzero" opacity="1" stroke="none" vectornator:layerName="Oval 4"/>
<path d="M232.652 620.21C232.652 619.928 232.908 619.7 233.224 619.7C233.54 619.7 233.796 619.928 233.796 620.21C233.796 620.492 233.54 620.72 233.224 620.72C232.908 620.72 232.652 620.492 232.652 620.21Z" fill="#ffffff" fill-rule="nonzero" opacity="1" stroke="none" vectornator:layerName="Oval 7"/>
</g>
</g>
</g>
<g opacity="1" vectornator:layerName="Group 11">
<path d="M197.168 619.68C197.168 613.602 202.13 608.676 208.251 608.676C214.372 608.676 219.334 613.602 219.334 619.68C219.334 625.758 219.334 630.119 208.251 630.685C197.181 631.25 197.168 625.758 197.168 619.68Z" fill="#ffffff" fill-rule="nonzero" opacity="1" stroke="#463174" stroke-linecap="butt" stroke-linejoin="round" stroke-width="1.18" vectornator:layerName="Oval 2"/>
<g opacity="1" vectornator:layerName="Group 6">
<g opacity="1" vectornator:layerName="Group 5">
<path d="M207.221 623.514C207.221 622.789 207.72 623.051 208.603 623.051C209.486 623.051 210.013 622.773 210.013 623.514C210.013 624.256 209.403 624.761 208.632 624.761C207.861 624.761 207.221 624.239 207.221 623.514Z" fill="#463174" fill-rule="nonzero" opacity="1" stroke="none" vectornator:layerName="Oval 4"/>
</g>
<path d="M207.462 624.224C207.293 623.979 207.976 623.61 208.602 623.586C209.228 623.562 209.954 623.923 209.789 624.207C209.599 624.533 209.106 624.759 208.633 624.759C208.16 624.759 207.685 624.548 207.462 624.224Z" fill="#7451c2" fill-rule="nonzero" opacity="0.453846" stroke="none" vectornator:layerName="Oval 5"/>
</g>
<g opacity="1" vectornator:layerName="Group 4">
<g opacity="1" vectornator:layerName="Group 2">
<path d="M202.629 620.089C202.629 619.308 203.224 618.675 203.959 618.675C204.693 618.675 205.288 619.308 205.288 620.089C205.288 620.87 204.693 621.503 203.959 621.503C203.224 621.503 202.629 620.87 202.629 620.089Z" fill="#463174" fill-rule="nonzero" opacity="1" stroke="none" vectornator:layerName="Oval 4"/>
<path d="M203.959 620.089C203.959 619.808 204.215 619.579 204.531 619.579C204.847 619.579 205.103 619.808 205.103 620.089C205.103 620.371 204.847 620.599 204.531 620.599C204.215 620.599 203.959 620.371 203.959 620.089Z" fill="#ffffff" fill-rule="nonzero" opacity="1" stroke="none" vectornator:layerName="Oval 7"/>
</g>
<g opacity="1" vectornator:layerName="Group 1">
<path d="M211.724 620.089C211.724 619.308 212.319 618.675 213.053 618.675C213.788 618.675 214.383 619.308 214.383 620.089C214.383 620.87 213.788 621.503 213.053 621.503C212.319 621.503 211.724 620.87 211.724 620.089Z" fill="#463174" fill-rule="nonzero" opacity="1" stroke="none" vectornator:layerName="Oval 4"/>
<path d="M213.053 620.089C213.053 619.808 213.309 619.579 213.625 619.579C213.941 619.579 214.197 619.808 214.197 620.089C214.197 620.371 213.941 620.599 213.625 620.599C213.309 620.599 213.053 620.371 213.053 620.089Z" fill="#ffffff" fill-rule="nonzero" opacity="1" stroke="none" vectornator:layerName="Oval 7"/>
</g>
</g>
</g>
</g>
</g>
</g>
</svg>
