<?xml version="1.0" encoding="UTF-8" standalone="no"?><!DOCTYPE svg PUBLIC "-//W3C//DTD SVG 1.1//EN" "http://www.w3.org/Graphics/SVG/1.1/DTD/svg11.dtd"><svg width="100%" height="100%" viewBox="0 0 659 839" version="1.1" xmlns="http://www.w3.org/2000/svg" xmlns:xlink="http://www.w3.org/1999/xlink" xml:space="preserve" xmlns:serif="http://www.serif.com/" style="fill-rule:evenodd;clip-rule:evenodd;stroke-linejoin:round;stroke-miterlimit:10;"><g id="Layer"><g><g><path d="M110.208,196.75c0,-17.429 14.125,-31.558 31.542,-31.558l235.375,0c17.417,0 31.542,14.129 31.542,31.558l0,443.746c0,17.429 -14.125,31.558 -31.542,31.558l-235.375,0c-17.417,0 -31.542,-14.129 -31.542,-31.558l0,-443.746Z" style="fill:#fff;fill-rule:nonzero;"/><g><g><path d="M151.333,210.904l216.209,0c3.875,0 7,3.138 7,7.009l0,132.054c0,3.866 -3.125,7.004 -7,7.004l-216.209,0c-3.875,0 -7,-3.138 -7,-7.004l0,-132.054c0,-3.871 3.125,-7.009 7,-7.009Z" style="fill:#593f92;fill-rule:nonzero;"/><g><path d="M180.208,289.217l-2,0l0,2.608l-1,0l0,-2.608l-5.583,0l0,-0.734l5.25,-6.516l1.125,0l-5.083,6.404l4.333,0l0,-2.296l0.958,0l0,2.296l2,0l0,0.846Z" style="fill:#fff;fill-rule:nonzero;"/><path d="M187.5,288.975c0,1.629 -1.208,2.933 -3.625,2.933c-1.292,0.046 -2.583,-0.408 -3.542,-1.27l0.5,-0.817c0.834,0.775 1.917,1.187 3.042,1.158c1.667,0 2.583,-0.766 2.583,-2.004c0,-1.237 -0.833,-1.971 -2.708,-1.971l-0.667,0l0,-0.733l2.75,-3.442l-5.083,0l0,-0.912l6.375,0l0,0.733l-2.792,3.521c2.125,0.1 3.167,1.221 3.167,2.804Z" style="fill:#fff;fill-rule:nonzero;"/><path d="M195.542,288.908c0,1.63 -1.209,3 -3.625,3c-1.292,0.046 -2.584,-0.408 -3.542,-1.27l0.5,-0.817c0.833,0.775 1.917,1.192 3.042,1.158c1.625,0 2.583,-0.833 2.583,-2.037c0,-1.204 -0.792,-2.071 -3.292,-2.071l-2.083,0l0.5,-4.971l5.417,0l0,0.912l-4.5,0l-0.375,3.163l1.291,0c2.917,0 4.084,1.175 4.084,2.933Z" style="fill:#fff;fill-rule:nonzero;"/><path d="M204.25,288.858c0,0.867 -0.375,1.692 -1,2.271c-0.667,0.579 -1.5,0.859 -2.375,0.779c-2.625,0 -4.042,-1.825 -4.042,-4.891c0,-3.063 1.834,-5.129 4.5,-5.129c0.834,-0.034 1.625,0.15 2.375,0.537l-0.416,0.813c-0.584,-0.33 -1.25,-0.488 -1.917,-0.455c-2.167,0 -3.542,1.367 -3.542,4.055l0,0.816c0.625,-1.096 1.792,-1.737 3.042,-1.629c0.833,-0.112 1.667,0.133 2.333,0.671c0.625,0.542 1,1.325 1.042,2.162Zm-1,0c0,-1.3 -0.958,-2.133 -2.5,-2.133c-0.625,-0.071 -1.25,0.121 -1.75,0.529c-0.458,0.413 -0.75,1.004 -0.792,1.638c0,1.091 0.917,2.121 2.625,2.121c0.584,0.07 1.209,-0.117 1.667,-0.521c0.458,-0.404 0.75,-0.984 0.75,-1.6l0,-0.034Z" style="fill:#fff;fill-rule:nonzero;"/><path d="M225.708,291.825l-2.375,-3.112l-2.375,3.112l-1.125,0l2.959,-3.829l-2.834,-3.617l1.125,0l2.25,2.917l2.25,-2.917l1.084,0l-2.792,3.617l2.958,3.829l-1.125,0Z" style="fill:#fff;fill-rule:nonzero;"/><path d="M233.25,291.825l-2.333,-3.112l-2.417,3.112l-1.125,0l2.958,-3.829l-2.833,-3.617l1.167,0l2.208,2.917l2.25,-2.917l1.125,0l-2.833,3.617l3,3.829l-1.167,0Z" style="fill:#fff;fill-rule:nonzero;"/><path d="M240.833,291.825l-2.375,-3.112l-2.375,3.112l-1.041,0l2.916,-3.829l-2.916,-3.617l1.125,0l2.25,2.917l2.25,-2.917l1.083,0l-2.792,3.617l2.959,3.829l-1.084,0Z" style="fill:#fff;fill-rule:nonzero;"/><path d="M248.417,291.825l-2.375,-3.112l-2.375,3.112l-1.125,0l2.916,-3.829l-2.791,-3.617l1.125,0l2.25,2.917l2.25,-2.917l1.083,0l-2.792,3.617l2.959,3.829l-1.125,0Z" style="fill:#fff;fill-rule:nonzero;"/><path d="M274.542,291.825l-2.375,-3.112l-2.375,3.112l-1.125,0l2.958,-3.829l-2.833,-3.617l1.125,0l2.25,2.917l2.25,-2.917l1.125,0l-2.834,3.617l2.959,3.829l-1.125,0Z" style="fill:#fff;fill-rule:nonzero;"/><path d="M282.125,291.825l-2.375,-3.112l-2.375,3.112l-1.125,0l2.958,-3.829l-2.791,-3.617l1.125,0l2.25,2.917l2.208,-2.917l1.125,0l-2.833,3.617l3,3.829l-1.167,0Z" style="fill:#fff;fill-rule:nonzero;"/><path d="M289.667,291.825l-2.375,-3.112l-2.375,3.112l-1.125,0l2.958,-3.829l-2.833,-3.617l1.125,0l2.25,2.917l2.25,-2.917l1.083,0l-2.792,3.617l2.959,3.829l-1.125,0Z" style="fill:#fff;fill-rule:nonzero;"/><path d="M297.25,291.825l-2.375,-3.112l-2.375,3.112l-1.125,0l2.917,-3.829l-2.792,-3.617l1.125,0l2.25,2.917l2.25,-2.917l1.083,0l-2.791,3.617l2.958,3.829l-1.125,0Z" style="fill:#fff;fill-rule:nonzero;"/><path d="M320.708,281.9l0,9.925l-0.958,0l0,-9.013l-2.333,0l0,-0.912l3.291,0Z" style="fill:#fff;fill-rule:nonzero;"/><path d="M329.625,288.975c0,1.629 -1.208,2.933 -3.583,2.933c-1.334,0.046 -2.584,-0.408 -3.584,-1.27l0.5,-0.817c0.834,0.775 1.959,1.192 3.084,1.158c1.625,0 2.541,-0.766 2.541,-2.004c0,-1.237 -0.833,-1.971 -2.666,-1.971l-0.709,0l0,-0.733l2.75,-3.442l-5.083,0l0,-0.912l6.375,0l0,0.733l-2.792,3.521c2.125,0.1 3.167,1.221 3.167,2.804Z" style="fill:#fff;fill-rule:nonzero;"/><path d="M339.5,289.217l-2,0l0,2.608l-1,0l0,-2.608l-5.625,0l0,-0.734l5.292,-6.516l1.125,0l-5.084,6.404l4.292,0l0,-2.296l1,0l0,2.296l2,0l0,0.846Z" style="fill:#fff;fill-rule:nonzero;"/><path d="M347.167,290.913l0,0.912l-6.959,0l0,-0.667l4.125,-4.041c1.125,-1.109 1.334,-1.775 1.334,-2.463c0,-1.137 -0.834,-1.854 -2.334,-1.854c-1.041,-0.062 -2.041,0.346 -2.708,1.108l-0.75,-0.62c0.917,-0.976 2.208,-1.496 3.542,-1.417c2,0 3.25,1.025 3.25,2.671c-0.042,1.229 -0.625,2.375 -1.625,3.112l-3.375,3.259l5.5,0Z" style="fill:#fff;fill-rule:nonzero;"/></g><g><path d="M310.583,327.804c0,-3.012 1.625,-4.708 3.917,-4.708c2.25,0 3.875,1.629 3.875,4.708c0,3.079 -1.625,4.725 -3.875,4.725c-2.292,0 -3.917,-1.708 -3.917,-4.725Zm5.667,0c0,-2.071 -0.708,-2.933 -1.75,-2.933c-1.083,0 -1.792,0.862 -1.792,2.933c0,2.071 0.75,2.934 1.792,2.934c1.042,0 1.75,-0.863 1.75,-2.934Z" style="fill:#fff;fill-rule:nonzero;"/><path d="M326.917,329.483c0,0.871 -0.375,1.696 -1.042,2.275c-0.667,0.58 -1.5,0.859 -2.375,0.771c-2.542,0 -4.083,-1.629 -4.083,-4.529c-0.125,-1.292 0.291,-2.575 1.208,-3.517c0.875,-0.937 2.125,-1.441 3.458,-1.37c0.875,-0.03 1.75,0.183 2.542,0.616l-0.792,1.629c-0.541,-0.32 -1.125,-0.479 -1.708,-0.454c-0.708,-0.046 -1.417,0.221 -1.917,0.734c-0.5,0.512 -0.75,1.212 -0.666,1.92c0.625,-0.566 1.416,-0.858 2.25,-0.812c0.791,-0.067 1.583,0.187 2.166,0.704c0.584,0.517 0.917,1.25 0.959,2.033Zm-2.042,0.113c0,-0.392 -0.167,-0.767 -0.458,-1.029c-0.292,-0.263 -0.667,-0.384 -1.084,-0.338c-0.375,-0.058 -0.791,0.063 -1.125,0.321c-0.291,0.263 -0.458,0.642 -0.5,1.046c0,0.783 0.584,1.354 1.625,1.354c0.417,0.05 0.792,-0.067 1.084,-0.325c0.291,-0.262 0.458,-0.633 0.458,-1.029Z" style="fill:#fff;fill-rule:nonzero;"/><path d="M331.167,321.4l1.833,0l-4.292,12.271l-1.833,0l4.292,-12.271Z" style="fill:#fff;fill-rule:nonzero;"/><path d="M339.75,330.642l0,1.725l-6.958,0l0,-1.367l3.541,-3.262c0.792,-0.763 0.959,-1.238 0.959,-1.63c0,-0.716 -0.5,-1.137 -1.5,-1.137c-0.709,-0.029 -1.417,0.312 -1.875,0.912l-1.542,-0.979c0.875,-1.116 2.25,-1.729 3.625,-1.629c2.042,0 3.417,1.042 3.417,2.688c-0.042,1.145 -0.584,2.216 -1.542,2.883l-2.083,1.975l3.958,-0.179Z" style="fill:#fff;fill-rule:nonzero;"/><path d="M348.833,330.446l-1.5,0l0,1.921l-2.041,0l0,-1.921l-4.875,0l0,-1.421l4.291,-5.783l2.209,0l-4,5.491l2.458,0l0,-1.729l2,0l0,1.713l1.5,0l-0.042,1.729Z" style="fill:#fff;fill-rule:nonzero;"/></g><path d="M305.708,242.704c0,-8.558 6.75,-15.491 15.042,-15.491c8.333,0 15.042,6.933 15.042,15.491c0,8.554 -6.709,15.492 -15.042,15.492c-8.292,0 -15.042,-6.938 -15.042,-15.492Z" style="fill:#fff;fill-opacity:0.61;fill-rule:nonzero;"/><path d="M323.917,242.704c0,-8.558 6.708,-15.491 15.041,-15.491c8.292,0 15,6.933 15,15.491c0,8.554 -6.708,15.492 -15,15.492c-8.333,0 -15.041,-6.938 -15.041,-15.492Z" style="fill:#fff;fill-opacity:0.74;fill-rule:nonzero;"/><g><path d="M171.729,237.055l-3.923,7.556l0,4.297l-1.944,0l0,-4.297l-3.94,-7.556l2.166,0l2.746,5.816l2.746,-5.816l2.149,0Z" style="fill:#fff;fill-rule:nonzero;"/><path d="M178.67,249.028c-1.103,0 -2.117,-0.259 -3.044,-0.776c-0.927,-0.518 -1.66,-1.24 -2.2,-2.166c-0.54,-0.927 -0.81,-1.97 -0.81,-3.13c0,-1.16 0.27,-2.2 0.81,-3.121c0.54,-0.921 1.273,-1.64 2.2,-2.157c0.927,-0.518 1.941,-0.776 3.044,-0.776c1.115,0 2.135,0.258 3.062,0.776c0.926,0.517 1.657,1.236 2.191,2.157c0.535,0.921 0.802,1.961 0.802,3.121c0,1.16 -0.267,2.203 -0.802,3.13c-0.534,0.926 -1.265,1.648 -2.191,2.166c-0.927,0.517 -1.947,0.776 -3.062,0.776Zm0,-1.689c0.785,0 1.484,-0.179 2.098,-0.537c0.614,-0.358 1.094,-0.87 1.441,-1.535c0.347,-0.665 0.52,-1.435 0.52,-2.311c0,-0.875 -0.173,-1.643 -0.52,-2.302c-0.347,-0.66 -0.827,-1.166 -1.441,-1.518c-0.614,-0.353 -1.313,-0.529 -2.098,-0.529c-0.784,0 -1.483,0.176 -2.097,0.529c-0.614,0.352 -1.095,0.858 -1.442,1.518c-0.346,0.659 -0.52,1.427 -0.52,2.302c0,0.876 0.174,1.646 0.52,2.311c0.347,0.665 0.828,1.177 1.442,1.535c0.614,0.358 1.313,0.537 2.097,0.537Z" style="fill:#fff;fill-rule:nonzero;"/><path d="M188.562,237.055l0,7.556c0,0.898 0.236,1.574 0.708,2.029c0.472,0.455 1.128,0.682 1.97,0.682c0.853,0 1.515,-0.227 1.987,-0.682c0.472,-0.455 0.707,-1.131 0.707,-2.029l0,-7.556l1.945,0l0,7.521c0,0.967 -0.211,1.785 -0.631,2.456c-0.421,0.671 -0.984,1.171 -1.689,1.501c-0.705,0.33 -1.483,0.495 -2.336,0.495c-0.853,0 -1.629,-0.165 -2.328,-0.495c-0.699,-0.33 -1.254,-0.83 -1.663,-1.501c-0.409,-0.671 -0.614,-1.489 -0.614,-2.456l0,-7.521l1.944,0Z" style="fill:#fff;fill-rule:nonzero;"/><path d="M204.56,248.908l-2.729,-4.741l-1.484,0l0,4.741l-1.944,0l0,-11.853l4.093,0c0.91,0 1.68,0.159 2.311,0.478c0.631,0.318 1.103,0.744 1.416,1.279c0.312,0.534 0.469,1.131 0.469,1.791c0,0.773 -0.225,1.475 -0.674,2.106c-0.449,0.631 -1.14,1.06 -2.072,1.288l2.933,4.911l-2.319,0Zm-4.213,-6.293l2.149,0c0.728,0 1.276,-0.182 1.646,-0.546c0.369,-0.364 0.554,-0.852 0.554,-1.466c0,-0.614 -0.182,-1.095 -0.546,-1.442c-0.363,-0.346 -0.915,-0.52 -1.654,-0.52l-2.149,0l0,3.974Z" style="fill:#fff;fill-rule:nonzero;"/><path d="M219.96,242.82c0.637,0.113 1.177,0.449 1.62,1.006c0.444,0.557 0.666,1.188 0.666,1.893c0,0.603 -0.157,1.146 -0.469,1.629c-0.313,0.483 -0.765,0.864 -1.356,1.142c-0.592,0.279 -1.279,0.418 -2.064,0.418l-4.741,0l0,-11.853l4.519,0c0.808,0 1.501,0.137 2.081,0.41c0.58,0.272 1.018,0.639 1.313,1.1c0.296,0.46 0.444,0.975 0.444,1.543c0,0.682 -0.182,1.251 -0.546,1.706c-0.364,0.454 -0.853,0.79 -1.467,1.006Zm-4.4,-0.785l2.405,0c0.637,0 1.134,-0.145 1.492,-0.435c0.358,-0.29 0.537,-0.707 0.537,-1.253c0,-0.535 -0.179,-0.952 -0.537,-1.254c-0.358,-0.301 -0.855,-0.452 -1.492,-0.452l-2.405,0l0,3.394Zm2.627,5.287c0.659,0 1.176,-0.159 1.552,-0.477c0.375,-0.319 0.562,-0.762 0.562,-1.331c0,-0.579 -0.199,-1.04 -0.597,-1.381c-0.398,-0.341 -0.926,-0.512 -1.586,-0.512l-2.558,0l0,3.701l2.627,0Z" style="fill:#fff;fill-rule:nonzero;"/><path d="M231.506,246.487l-4.963,0l-0.852,2.421l-2.03,0l4.247,-11.87l2.251,0l4.247,11.87l-2.047,0l-0.853,-2.421Zm-0.545,-1.587l-1.928,-5.508l-1.944,5.508l3.872,0Z" style="fill:#fff;fill-rule:nonzero;"/><path d="M245.986,248.908l-1.944,0l-5.85,-8.851l0,8.851l-1.944,0l0,-11.87l1.944,0l5.85,8.835l0,-8.835l1.944,0l0,11.87Z" style="fill:#fff;fill-rule:nonzero;"/><path d="M255.076,248.908l-4.588,-5.304l0,5.304l-1.944,0l0,-11.853l1.944,0l0,5.407l4.605,-5.407l2.439,0l-5.15,5.935l5.235,5.918l-2.541,0Z" style="fill:#fff;fill-rule:nonzero;"/></g><g><path d="M171.512,327.466l-2.433,4.638l0,2.954l-0.76,0l0,-2.954l-2.455,-4.638l0.858,0l1.977,3.943l1.966,-3.943l0.847,0Z" style="fill:#fff;fill-rule:nonzero;"/><path d="M175.216,335.145c-0.558,0 -1.059,-0.125 -1.505,-0.374c-0.445,-0.25 -0.796,-0.605 -1.053,-1.065c-0.257,-0.46 -0.386,-0.997 -0.386,-1.613c0,-0.615 0.13,-1.153 0.391,-1.613c0.261,-0.46 0.616,-0.814 1.065,-1.064c0.449,-0.25 0.952,-0.375 1.509,-0.375c0.558,0 1.063,0.125 1.515,0.375c0.453,0.25 0.808,0.604 1.065,1.064c0.257,0.46 0.385,0.998 0.385,1.613c0,0.608 -0.13,1.144 -0.391,1.608c-0.26,0.463 -0.619,0.82 -1.075,1.07c-0.456,0.249 -0.963,0.374 -1.52,0.374Zm0,-0.662c0.391,0 0.753,-0.089 1.086,-0.266c0.333,-0.178 0.603,-0.446 0.809,-0.804c0.206,-0.359 0.309,-0.798 0.309,-1.32c0,-0.521 -0.101,-0.961 -0.304,-1.319c-0.202,-0.359 -0.47,-0.627 -0.803,-0.804c-0.333,-0.178 -0.696,-0.266 -1.087,-0.266c-0.391,0 -0.753,0.088 -1.086,0.266c-0.333,0.177 -0.599,0.445 -0.798,0.804c-0.199,0.358 -0.299,0.798 -0.299,1.319c0,0.522 0.1,0.961 0.299,1.32c0.199,0.358 0.463,0.626 0.793,0.804c0.329,0.177 0.69,0.266 1.081,0.266Z" style="fill:#fff;fill-rule:nonzero;"/><path d="M184.73,329.128l0,5.93l-0.76,0l0,-1.042c-0.174,0.369 -0.442,0.651 -0.804,0.847c-0.362,0.195 -0.767,0.293 -1.216,0.293c-0.71,0 -1.289,-0.219 -1.738,-0.657c-0.449,-0.438 -0.674,-1.073 -0.674,-1.906l0,-3.465l0.75,0l0,3.378c0,0.644 0.161,1.137 0.483,1.477c0.322,0.34 0.762,0.511 1.32,0.511c0.572,0 1.028,-0.181 1.368,-0.544c0.341,-0.362 0.511,-0.894 0.511,-1.596l0,-3.226l0.76,0Z" style="fill:#fff;fill-rule:nonzero;"/><path d="M187.228,330.182c0.167,-0.37 0.422,-0.656 0.766,-0.858c0.344,-0.203 0.766,-0.305 1.265,-0.305l0,0.793l-0.206,0c-0.55,0 -0.992,0.149 -1.325,0.446c-0.333,0.296 -0.5,0.792 -0.5,1.488l0,3.312l-0.76,0l0,-5.93l0.76,0l0,1.054Z" style="fill:#fff;fill-rule:nonzero;"/><path d="M199.1,335.058l-0.761,0l-4.203,-6.386l0,6.386l-0.76,0l0,-7.592l0.76,0l4.203,6.376l0,-6.376l0.761,0l0,7.592Z" style="fill:#fff;fill-rule:nonzero;"/><path d="M200.479,332.082c0,-0.608 0.121,-1.142 0.364,-1.602c0.243,-0.46 0.579,-0.814 1.01,-1.064c0.431,-0.25 0.918,-0.375 1.461,-0.375c0.565,0 1.052,0.13 1.461,0.391c0.409,0.261 0.704,0.594 0.885,0.999l0,-1.303l0.76,0l0,5.93l-0.76,0l0,-1.314c-0.188,0.406 -0.487,0.74 -0.896,1.005c-0.409,0.264 -0.896,0.396 -1.461,0.396c-0.536,0 -1.019,-0.126 -1.45,-0.38c-0.431,-0.253 -0.767,-0.612 -1.01,-1.075c-0.243,-0.464 -0.364,-0.999 -0.364,-1.608Zm5.181,0.011c0,-0.478 -0.098,-0.898 -0.293,-1.26c-0.196,-0.362 -0.462,-0.641 -0.799,-0.836c-0.336,-0.196 -0.707,-0.293 -1.113,-0.293c-0.42,0 -0.796,0.094 -1.129,0.282c-0.333,0.188 -0.596,0.462 -0.788,0.82c-0.192,0.359 -0.288,0.784 -0.288,1.276c0,0.485 0.096,0.911 0.288,1.277c0.192,0.365 0.455,0.644 0.788,0.836c0.333,0.192 0.709,0.288 1.129,0.288c0.406,0 0.777,-0.098 1.113,-0.294c0.337,-0.195 0.603,-0.474 0.799,-0.836c0.195,-0.362 0.293,-0.782 0.293,-1.26Z" style="fill:#fff;fill-rule:nonzero;"/><path d="M215.218,329.019c0.695,0 1.262,0.219 1.7,0.658c0.438,0.438 0.657,1.073 0.657,1.906l0,3.475l-0.749,0l0,-3.388c0,-0.645 -0.156,-1.137 -0.468,-1.478c-0.311,-0.34 -0.734,-0.51 -1.27,-0.51c-0.558,0 -1.003,0.185 -1.336,0.554c-0.333,0.369 -0.5,0.905 -0.5,1.607l0,3.215l-0.749,0l0,-3.388c0,-0.645 -0.156,-1.137 -0.467,-1.478c-0.312,-0.34 -0.739,-0.51 -1.282,-0.51c-0.558,0 -1.003,0.185 -1.336,0.554c-0.333,0.369 -0.5,0.905 -0.5,1.607l0,3.215l-0.76,0l0,-5.93l0.76,0l0,1.021c0.189,-0.369 0.457,-0.65 0.804,-0.842c0.348,-0.192 0.735,-0.288 1.162,-0.288c0.514,0 0.965,0.124 1.353,0.37c0.387,0.246 0.668,0.608 0.841,1.086c0.16,-0.471 0.433,-0.831 0.82,-1.081c0.388,-0.25 0.828,-0.375 1.32,-0.375Z" style="fill:#fff;fill-rule:nonzero;"/><path d="M224.624,331.789c0,0.261 -0.007,0.46 -0.022,0.597l-4.92,0c0.022,0.449 0.13,0.833 0.326,1.152c0.195,0.318 0.452,0.559 0.771,0.722c0.319,0.163 0.666,0.244 1.043,0.244c0.492,0 0.907,-0.119 1.243,-0.358c0.337,-0.239 0.56,-0.561 0.668,-0.967l0.804,0c-0.145,0.58 -0.454,1.052 -0.929,1.418c-0.474,0.365 -1.069,0.548 -1.786,0.548c-0.558,0 -1.057,-0.125 -1.499,-0.374c-0.442,-0.25 -0.788,-0.605 -1.037,-1.065c-0.25,-0.46 -0.375,-0.997 -0.375,-1.613c0,-0.615 0.123,-1.155 0.369,-1.618c0.246,-0.464 0.59,-0.818 1.032,-1.065c0.442,-0.246 0.945,-0.369 1.51,-0.369c0.565,0 1.059,0.123 1.482,0.369c0.424,0.247 0.75,0.578 0.978,0.994c0.228,0.417 0.342,0.878 0.342,1.385Zm-0.771,-0.022c0.007,-0.441 -0.082,-0.818 -0.266,-1.129c-0.185,-0.312 -0.437,-0.547 -0.755,-0.706c-0.319,-0.16 -0.666,-0.239 -1.043,-0.239c-0.565,0 -1.046,0.181 -1.444,0.543c-0.399,0.362 -0.619,0.872 -0.663,1.531l4.171,0Z" style="fill:#fff;fill-rule:nonzero;"/></g><g><path d="M165.555,314.623c0,-0.641 0.138,-1.212 0.416,-1.714c0.277,-0.502 0.663,-0.893 1.159,-1.173c0.496,-0.28 1.058,-0.421 1.686,-0.421c0.77,0 1.429,0.204 1.977,0.61c0.548,0.407 0.915,0.961 1.1,1.663l-1.737,0c-0.13,-0.271 -0.313,-0.477 -0.55,-0.619c-0.237,-0.141 -0.507,-0.212 -0.808,-0.212c-0.487,0 -0.881,0.169 -1.183,0.508c-0.302,0.339 -0.453,0.791 -0.453,1.358c0,0.567 0.151,1.019 0.453,1.358c0.302,0.339 0.696,0.508 1.183,0.508c0.301,0 0.571,-0.071 0.808,-0.212c0.237,-0.142 0.42,-0.348 0.55,-0.619l1.737,0c-0.185,0.702 -0.552,1.255 -1.1,1.658c-0.548,0.403 -1.207,0.605 -1.977,0.605c-0.628,0 -1.19,-0.14 -1.686,-0.42c-0.496,-0.28 -0.882,-0.67 -1.159,-1.169c-0.278,-0.499 -0.416,-1.068 -0.416,-1.709Z" style="fill:#fff;fill-rule:nonzero;"/><path d="M176.9,316.729l-2.42,0l-0.388,1.146l-1.654,0l2.346,-6.486l1.83,0l2.346,6.486l-1.672,0l-0.388,-1.146Zm-0.406,-1.219l-0.804,-2.375l-0.795,2.375l1.599,0Z" style="fill:#fff;fill-rule:nonzero;"/><path d="M182.979,317.875l-1.349,-2.448l-0.378,0l0,2.448l-1.58,0l0,-6.486l2.651,0c0.512,0 0.947,0.09 1.308,0.268c0.36,0.179 0.629,0.424 0.808,0.735c0.179,0.311 0.268,0.657 0.268,1.039c0,0.431 -0.122,0.816 -0.365,1.155c-0.243,0.339 -0.602,0.579 -1.076,0.721l1.496,2.568l-1.783,0Zm-1.727,-3.566l0.979,0c0.289,0 0.506,-0.071 0.651,-0.213c0.145,-0.141 0.217,-0.342 0.217,-0.6c0,-0.247 -0.072,-0.441 -0.217,-0.582c-0.145,-0.142 -0.362,-0.213 -0.651,-0.213l-0.979,0l0,1.608Z" style="fill:#fff;fill-rule:nonzero;"/><path d="M188.125,311.389c0.684,0 1.281,0.136 1.793,0.407c0.511,0.271 0.907,0.651 1.187,1.141c0.28,0.49 0.42,1.055 0.42,1.695c0,0.635 -0.14,1.198 -0.42,1.691c-0.28,0.493 -0.678,0.874 -1.192,1.145c-0.514,0.271 -1.11,0.407 -1.788,0.407l-2.43,0l0,-6.486l2.43,0Zm-0.101,5.119c0.597,0 1.062,-0.164 1.395,-0.49c0.332,-0.326 0.499,-0.788 0.499,-1.386c0,-0.597 -0.167,-1.062 -0.499,-1.395c-0.333,-0.332 -0.798,-0.499 -1.395,-0.499l-0.749,0l0,3.77l0.749,0Z" style="fill:#fff;fill-rule:nonzero;"/><path d="M199.988,311.389l0,6.486l-1.58,0l0,-2.67l-2.457,0l0,2.67l-1.58,0l0,-6.486l1.58,0l0,2.541l2.457,0l0,-2.541l1.58,0Z" style="fill:#fff;fill-rule:nonzero;"/><path d="M204.192,317.94c-0.61,0 -1.169,-0.142 -1.677,-0.425c-0.508,-0.284 -0.912,-0.679 -1.211,-1.187c-0.298,-0.509 -0.448,-1.08 -0.448,-1.714c0,-0.635 0.15,-1.204 0.448,-1.709c0.299,-0.506 0.703,-0.9 1.211,-1.183c0.508,-0.283 1.067,-0.425 1.677,-0.425c0.609,0 1.168,0.142 1.676,0.425c0.508,0.283 0.909,0.677 1.201,1.183c0.293,0.505 0.439,1.074 0.439,1.709c0,0.634 -0.148,1.205 -0.443,1.714c-0.296,0.508 -0.696,0.903 -1.201,1.187c-0.505,0.283 -1.063,0.425 -1.672,0.425Zm0,-1.442c0.517,0 0.931,-0.172 1.242,-0.517c0.311,-0.345 0.467,-0.801 0.467,-1.367c0,-0.573 -0.156,-1.03 -0.467,-1.372c-0.311,-0.342 -0.725,-0.513 -1.242,-0.513c-0.524,0 -0.941,0.169 -1.252,0.508c-0.311,0.339 -0.467,0.798 -0.467,1.377c0,0.573 0.156,1.03 0.467,1.372c0.311,0.342 0.728,0.512 1.252,0.512Z" style="fill:#fff;fill-rule:nonzero;"/><path d="M209.966,316.655l2.069,0l0,1.22l-3.649,0l0,-6.486l1.58,0l0,5.266Z" style="fill:#fff;fill-rule:nonzero;"/><path d="M215.223,311.389c0.683,0 1.281,0.136 1.792,0.407c0.511,0.271 0.907,0.651 1.187,1.141c0.28,0.49 0.42,1.055 0.42,1.695c0,0.635 -0.14,1.198 -0.42,1.691c-0.28,0.493 -0.677,0.874 -1.192,1.145c-0.514,0.271 -1.11,0.407 -1.787,0.407l-2.43,0l0,-6.486l2.43,0Zm-0.102,5.119c0.597,0 1.062,-0.164 1.395,-0.49c0.333,-0.326 0.499,-0.788 0.499,-1.386c0,-0.597 -0.166,-1.062 -0.499,-1.395c-0.333,-0.332 -0.798,-0.499 -1.395,-0.499l-0.748,0l0,3.77l0.748,0Z" style="fill:#fff;fill-rule:nonzero;"/><path d="M221.089,312.655l0,1.312l2.116,0l0,1.22l-2.116,0l0,1.422l2.393,0l0,1.266l-3.973,0l0,-6.486l3.973,0l0,1.266l-2.393,0Z" style="fill:#fff;fill-rule:nonzero;"/><path d="M227.815,317.875l-1.349,-2.448l-0.379,0l0,2.448l-1.579,0l0,-6.486l2.651,0c0.511,0 0.947,0.09 1.307,0.268c0.361,0.179 0.63,0.424 0.809,0.735c0.178,0.311 0.268,0.657 0.268,1.039c0,0.431 -0.122,0.816 -0.365,1.155c-0.243,0.339 -0.602,0.579 -1.077,0.721l1.497,2.568l-1.783,0Zm-1.728,-3.566l0.98,0c0.289,0 0.506,-0.071 0.651,-0.213c0.145,-0.141 0.217,-0.342 0.217,-0.6c0,-0.247 -0.072,-0.441 -0.217,-0.582c-0.145,-0.142 -0.362,-0.213 -0.651,-0.213l-0.98,0l0,1.608Z" style="fill:#fff;fill-rule:nonzero;"/></g></g><g><path d="M153.625,423.767c0,-15.05 12.208,-27.25 27.25,-27.25l157.125,0c15.083,0 27.25,12.2 27.25,27.25l0,87.8c0,15.05 -12.167,27.254 -27.25,27.254l-157.125,0c-15.042,0 -27.25,-12.204 -27.25,-27.254l0,-87.8Z" style="fill:#ddd;fill-opacity:0.39;fill-rule:nonzero;"/><g><g><g><path d="M173,448.008c0,-12.85 10.417,-23.266 23.292,-23.266l40.541,0c12.834,0 23.25,10.416 23.25,23.266l0,44.434c0,12.846 -10.416,23.262 -23.25,23.262l-40.541,0c-12.875,0 -23.292,-10.416 -23.292,-23.262l0,-44.434Z" style="fill:#fff;fill-rule:nonzero;stroke:#593f92;stroke-width:1.73px;"/><path d="M184.583,443.592c0,-3.121 2.5,-5.646 5.625,-5.646l50.375,0c3.125,0 5.667,2.525 5.667,5.646l0,2.579c0,3.121 -2.542,5.65 -5.667,5.65l-50.375,0c-3.125,0 -5.625,-2.529 -5.625,-5.65l0,-2.579Z" style="fill:#593f92;fill-rule:nonzero;"/><g><path d="M204.752,446.823c-0.26,0 -0.494,-0.042 -0.7,-0.127c-0.207,-0.085 -0.372,-0.21 -0.495,-0.376c-0.124,-0.165 -0.189,-0.365 -0.196,-0.599l0.924,0c0.014,0.132 0.059,0.233 0.137,0.302c0.078,0.07 0.18,0.104 0.305,0.104c0.128,0 0.23,-0.029 0.304,-0.088c0.075,-0.06 0.112,-0.142 0.112,-0.247c0,-0.088 -0.029,-0.16 -0.089,-0.218c-0.059,-0.057 -0.132,-0.105 -0.218,-0.142c-0.086,-0.037 -0.209,-0.08 -0.368,-0.127c-0.23,-0.071 -0.418,-0.142 -0.564,-0.213c-0.145,-0.071 -0.27,-0.176 -0.375,-0.315c-0.105,-0.139 -0.158,-0.32 -0.158,-0.543c0,-0.332 0.12,-0.592 0.361,-0.78c0.24,-0.187 0.553,-0.281 0.939,-0.281c0.393,0 0.709,0.094 0.949,0.281c0.241,0.188 0.369,0.45 0.386,0.785l-0.939,0c-0.007,-0.115 -0.049,-0.206 -0.127,-0.272c-0.078,-0.066 -0.178,-0.099 -0.299,-0.099c-0.105,0 -0.19,0.028 -0.254,0.084c-0.065,0.056 -0.097,0.136 -0.097,0.241c0,0.115 0.054,0.205 0.163,0.269c0.108,0.065 0.277,0.134 0.507,0.208c0.231,0.078 0.418,0.153 0.561,0.224c0.144,0.071 0.269,0.174 0.374,0.309c0.105,0.136 0.157,0.31 0.157,0.523c0,0.203 -0.052,0.388 -0.155,0.554c-0.103,0.166 -0.253,0.298 -0.449,0.396c-0.197,0.098 -0.428,0.147 -0.696,0.147Z" style="fill:#fff;fill-rule:nonzero;"/><path d="M207.453,443.919l0,0.721l1.163,0l0,0.67l-1.163,0l0,0.782l1.315,0l0,0.696l-2.183,0l0,-3.565l2.183,0l0,0.696l-1.315,0Z" style="fill:#fff;fill-rule:nonzero;"/><path d="M210.621,446.823c-0.26,0 -0.494,-0.042 -0.7,-0.127c-0.207,-0.085 -0.372,-0.21 -0.495,-0.376c-0.124,-0.165 -0.189,-0.365 -0.196,-0.599l0.924,0c0.014,0.132 0.06,0.233 0.137,0.302c0.078,0.07 0.18,0.104 0.305,0.104c0.129,0 0.23,-0.029 0.305,-0.088c0.074,-0.06 0.111,-0.142 0.111,-0.247c0,-0.088 -0.029,-0.16 -0.089,-0.218c-0.059,-0.057 -0.132,-0.105 -0.218,-0.142c-0.086,-0.037 -0.209,-0.08 -0.368,-0.127c-0.23,-0.071 -0.418,-0.142 -0.564,-0.213c-0.145,-0.071 -0.27,-0.176 -0.375,-0.315c-0.105,-0.139 -0.158,-0.32 -0.158,-0.543c0,-0.332 0.121,-0.592 0.361,-0.78c0.24,-0.187 0.553,-0.281 0.939,-0.281c0.393,0 0.709,0.094 0.95,0.281c0.24,0.188 0.368,0.45 0.385,0.785l-0.939,0c-0.007,-0.115 -0.049,-0.206 -0.127,-0.272c-0.078,-0.066 -0.177,-0.099 -0.299,-0.099c-0.105,0 -0.19,0.028 -0.254,0.084c-0.064,0.056 -0.097,0.136 -0.097,0.241c0,0.115 0.055,0.205 0.163,0.269c0.108,0.065 0.277,0.134 0.508,0.208c0.23,0.078 0.417,0.153 0.561,0.224c0.143,0.071 0.268,0.174 0.373,0.309c0.105,0.136 0.157,0.31 0.157,0.523c0,0.203 -0.052,0.388 -0.155,0.554c-0.103,0.166 -0.253,0.298 -0.449,0.396c-0.196,0.098 -0.428,0.147 -0.696,0.147Z" style="fill:#fff;fill-rule:nonzero;"/><path d="M213.744,446.823c-0.261,0 -0.494,-0.042 -0.701,-0.127c-0.206,-0.085 -0.371,-0.21 -0.495,-0.376c-0.123,-0.165 -0.189,-0.365 -0.195,-0.599l0.924,0c0.013,0.132 0.059,0.233 0.137,0.302c0.078,0.07 0.179,0.104 0.304,0.104c0.129,0 0.231,-0.029 0.305,-0.088c0.074,-0.06 0.112,-0.142 0.112,-0.247c0,-0.088 -0.03,-0.16 -0.089,-0.218c-0.059,-0.057 -0.132,-0.105 -0.218,-0.142c-0.087,-0.037 -0.209,-0.08 -0.369,-0.127c-0.23,-0.071 -0.418,-0.142 -0.563,-0.213c-0.146,-0.071 -0.271,-0.176 -0.376,-0.315c-0.105,-0.139 -0.157,-0.32 -0.157,-0.543c0,-0.332 0.12,-0.592 0.36,-0.78c0.241,-0.187 0.554,-0.281 0.94,-0.281c0.392,0 0.709,0.094 0.949,0.281c0.24,0.188 0.369,0.45 0.386,0.785l-0.939,0c-0.007,-0.115 -0.05,-0.206 -0.127,-0.272c-0.078,-0.066 -0.178,-0.099 -0.3,-0.099c-0.105,0 -0.189,0.028 -0.254,0.084c-0.064,0.056 -0.096,0.136 -0.096,0.241c0,0.115 0.054,0.205 0.162,0.269c0.109,0.065 0.278,0.134 0.508,0.208c0.23,0.078 0.417,0.153 0.561,0.224c0.144,0.071 0.268,0.174 0.373,0.309c0.105,0.136 0.158,0.31 0.158,0.523c0,0.203 -0.052,0.388 -0.155,0.554c-0.104,0.166 -0.253,0.298 -0.45,0.396c-0.196,0.098 -0.428,0.147 -0.695,0.147Z" style="fill:#fff;fill-rule:nonzero;"/><rect x="215.577" y="443.223" width="0.868" height="3.564" style="fill:#fff;fill-rule:nonzero;"/><path d="M218.76,446.823c-0.335,0 -0.642,-0.078 -0.922,-0.234c-0.279,-0.155 -0.501,-0.373 -0.665,-0.652c-0.164,-0.279 -0.246,-0.593 -0.246,-0.942c0,-0.348 0.082,-0.661 0.246,-0.939c0.164,-0.278 0.386,-0.494 0.665,-0.65c0.28,-0.156 0.587,-0.233 0.922,-0.233c0.335,0 0.642,0.077 0.921,0.233c0.28,0.156 0.5,0.372 0.66,0.65c0.161,0.278 0.242,0.591 0.242,0.939c0,0.349 -0.082,0.663 -0.244,0.942c-0.163,0.279 -0.383,0.497 -0.66,0.652c-0.278,0.156 -0.584,0.234 -0.919,0.234Zm0,-0.792c0.284,0 0.512,-0.095 0.683,-0.284c0.171,-0.19 0.256,-0.44 0.256,-0.752c0,-0.314 -0.085,-0.566 -0.256,-0.754c-0.171,-0.188 -0.399,-0.281 -0.683,-0.281c-0.288,0 -0.517,0.093 -0.688,0.279c-0.171,0.186 -0.256,0.438 -0.256,0.756c0,0.315 0.085,0.566 0.256,0.754c0.171,0.188 0.4,0.282 0.688,0.282Z" style="fill:#fff;fill-rule:nonzero;"/><path d="M224.253,446.788l-0.868,0l-1.452,-2.199l0,2.199l-0.868,0l0,-3.565l0.868,0l1.452,2.209l0,-2.209l0.868,0l0,3.565Z" style="fill:#fff;fill-rule:nonzero;"/><path d="M226.172,446.823c-0.26,0 -0.494,-0.042 -0.7,-0.127c-0.207,-0.085 -0.372,-0.21 -0.495,-0.376c-0.124,-0.165 -0.189,-0.365 -0.196,-0.599l0.924,0c0.014,0.132 0.06,0.233 0.137,0.302c0.078,0.07 0.18,0.104 0.305,0.104c0.129,0 0.23,-0.029 0.305,-0.088c0.074,-0.06 0.111,-0.142 0.111,-0.247c0,-0.088 -0.029,-0.16 -0.088,-0.218c-0.06,-0.057 -0.132,-0.105 -0.219,-0.142c-0.086,-0.037 -0.209,-0.08 -0.368,-0.127c-0.23,-0.071 -0.418,-0.142 -0.563,-0.213c-0.146,-0.071 -0.271,-0.176 -0.376,-0.315c-0.105,-0.139 -0.157,-0.32 -0.157,-0.543c0,-0.332 0.12,-0.592 0.36,-0.78c0.24,-0.187 0.553,-0.281 0.939,-0.281c0.393,0 0.709,0.094 0.95,0.281c0.24,0.188 0.369,0.45 0.386,0.785l-0.94,0c-0.007,-0.115 -0.049,-0.206 -0.127,-0.272c-0.078,-0.066 -0.177,-0.099 -0.299,-0.099c-0.105,0 -0.19,0.028 -0.254,0.084c-0.064,0.056 -0.097,0.136 -0.097,0.241c0,0.115 0.055,0.205 0.163,0.269c0.108,0.065 0.277,0.134 0.508,0.208c0.23,0.078 0.417,0.153 0.561,0.224c0.143,0.071 0.268,0.174 0.373,0.309c0.105,0.136 0.157,0.31 0.157,0.523c0,0.203 -0.051,0.388 -0.155,0.554c-0.103,0.166 -0.253,0.298 -0.449,0.396c-0.196,0.098 -0.428,0.147 -0.696,0.147Z" style="fill:#fff;fill-rule:nonzero;"/></g><path d="M218,463.067c0,-0.667 0.5,-1.209 1.167,-1.209l23.041,0c0.667,0 1.209,0.542 1.209,1.209l0,0.379c0,0.662 -0.542,1.204 -1.209,1.204l-23.041,0c-0.667,0 -1.167,-0.542 -1.167,-1.204l0,-0.379Z" style="fill:#ddd;fill-rule:nonzero;"/><path d="M189.708,463.067c0,-0.667 0.542,-1.209 1.209,-1.209l23,0c0.666,0 1.208,0.542 1.208,1.209l0,0.379c0,0.662 -0.542,1.204 -1.208,1.204l-23,0c-0.667,0 -1.209,-0.542 -1.209,-1.204l0,-0.379Z" style="fill:#ddd;fill-rule:nonzero;"/><path d="M218,471.438c0,-0.667 0.5,-1.209 1.167,-1.209l23.041,0c0.667,0 1.209,0.542 1.209,1.209l0,0.379c0,0.662 -0.542,1.204 -1.209,1.204l-23.041,0c-0.667,0 -1.167,-0.542 -1.167,-1.204l0,-0.379Z" style="fill:#ddd;fill-rule:nonzero;"/><path d="M189.708,471.438c0,-0.667 0.542,-1.209 1.209,-1.209l23,0c0.666,0 1.208,0.542 1.208,1.209l0,0.379c0,0.662 -0.542,1.204 -1.208,1.204l-23,0c-0.667,0 -1.209,-0.542 -1.209,-1.204l0,-0.379Z" style="fill:#ddd;fill-rule:nonzero;"/><path d="M218,479.808c0,-0.666 0.5,-1.208 1.167,-1.208l23.041,0c0.667,0 1.209,0.542 1.209,1.208l0,0.38c0,0.666 -0.542,1.204 -1.209,1.204l-23.041,0c-0.667,0 -1.167,-0.538 -1.167,-1.204l0,-0.38Z" style="fill:#ddd;fill-rule:nonzero;"/><path d="M218,488.179c0,-0.666 0.5,-1.208 1.167,-1.208l23.041,0c0.667,0 1.209,0.542 1.209,1.208l0,0.379c0,0.667 -0.542,1.205 -1.209,1.205l-23.041,0c-0.667,0 -1.167,-0.538 -1.167,-1.205l0,-0.379Z" style="fill:#ddd;fill-rule:nonzero;"/><path d="M189.708,479.808c0,-0.666 0.542,-1.208 1.209,-1.208l23,0c0.666,0 1.208,0.542 1.208,1.208l0,0.38c0,0.666 -0.542,1.204 -1.208,1.204l-23,0c-0.667,0 -1.209,-0.538 -1.209,-1.204l0,-0.38Z" style="fill:#ddd;fill-rule:nonzero;"/><path d="M189.708,488.179c0,-0.666 0.542,-1.208 1.209,-1.208l23,0c0.666,0 1.208,0.542 1.208,1.208l0,0.379c0,0.667 -0.542,1.205 -1.208,1.205l-23,0c-0.667,0 -1.209,-0.538 -1.209,-1.205l0,-0.379Z" style="fill:#ddd;fill-rule:nonzero;"/><g><path d="M204.833,497.133c-0.166,0.205 -0.166,0.505 0.042,0.675l1.458,1.225c0.209,0.171 0.5,0.146 0.667,-0.054c0.167,-0.204 0.167,-0.504 -0.042,-0.675l-1.458,-1.229c-0.208,-0.167 -0.5,-0.142 -0.667,0.058Zm-7.041,1.846c0.166,0.2 0.5,0.225 0.708,0.054l1.458,-1.225c0.167,-0.17 0.209,-0.47 0.042,-0.675c-0.167,-0.2 -0.458,-0.225 -0.667,-0.058l-1.458,1.229c-0.208,0.171 -0.25,0.471 -0.083,0.675Zm4.625,-1.016c-2.375,0 -4.292,1.916 -4.292,4.287c0,2.371 1.917,4.288 4.292,4.288c2.375,0 4.291,-1.917 4.291,-4.288c0,-2.371 -1.916,-4.287 -4.291,-4.287Zm1.25,5.929l-1.459,-0.738c-0.166,-0.083 -0.291,-0.246 -0.291,-0.429l0,-2.379c0,-0.267 0.25,-0.479 0.5,-0.479c0.25,0 0.458,0.212 0.458,0.479l0,2.087l1.25,0.609c0.208,0.116 0.292,0.404 0.208,0.637c-0.125,0.238 -0.416,0.334 -0.666,0.213Z" style="fill:#d1bef9;fill-rule:nonzero;"/></g><g><path d="M218.958,497.133c-0.166,0.205 -0.125,0.505 0.084,0.675l1.458,1.225c0.167,0.171 0.5,0.146 0.667,-0.054c0.166,-0.204 0.125,-0.504 -0.084,-0.675l-1.458,-1.229c-0.208,-0.167 -0.5,-0.142 -0.667,0.058Zm-7,1.846c0.167,0.2 0.459,0.225 0.667,0.054l1.458,-1.225c0.209,-0.17 0.209,-0.47 0.042,-0.675c-0.167,-0.2 -0.458,-0.225 -0.667,-0.058l-1.458,1.229c-0.208,0.171 -0.208,0.471 -0.042,0.675Zm4.584,-1.016c-2.375,0 -4.292,1.916 -4.292,4.287c0,2.371 1.917,4.288 4.292,4.288c2.375,0 4.291,-1.917 4.291,-4.288c0,-2.371 -1.916,-4.287 -4.291,-4.287Zm1.291,5.929l-1.5,-0.738c-0.166,-0.083 -0.25,-0.246 -0.25,-0.429l0,-2.379c0,-0.267 0.209,-0.479 0.459,-0.479c0.291,0 0.5,0.212 0.5,0.479l0,2.087l1.208,0.609c0.25,0.116 0.333,0.404 0.208,0.637c-0.125,0.238 -0.416,0.334 -0.625,0.213Z" style="fill:#d1bef9;fill-rule:nonzero;"/></g><g><path d="M233.125,497.133c-0.208,0.205 -0.167,0.505 0.042,0.675l1.458,1.225c0.208,0.171 0.5,0.146 0.667,-0.054c0.166,-0.204 0.166,-0.504 -0.042,-0.675l-1.458,-1.229c-0.209,-0.167 -0.5,-0.142 -0.667,0.058Zm-7.042,1.846c0.167,0.2 0.459,0.225 0.667,0.054l1.458,-1.225c0.209,-0.17 0.25,-0.47 0.084,-0.675c-0.167,-0.2 -0.5,-0.225 -0.667,-0.058l-1.458,1.229c-0.209,0.171 -0.25,0.471 -0.084,0.675Zm4.625,-1.016c-2.375,0 -4.291,1.916 -4.291,4.287c0,2.371 1.916,4.288 4.291,4.288c2.334,0 4.292,-1.917 4.292,-4.288c0,-2.371 -1.958,-4.287 -4.292,-4.287Zm1.25,5.929l-1.5,-0.738c-0.125,-0.083 -0.25,-0.246 -0.25,-0.429l0,-2.379c0,-0.267 0.209,-0.479 0.5,-0.479c0.25,0 0.459,0.212 0.459,0.479l0,2.087l1.208,0.609c0.25,0.116 0.333,0.404 0.208,0.637c-0.083,0.238 -0.375,0.334 -0.625,0.213Z" style="fill:#d1bef9;fill-rule:nonzero;"/></g></g><g><path d="M244.083,429.692c0,-4.834 3.834,-8.75 8.542,-8.75c4.708,0 8.5,3.916 8.5,8.75c0,4.829 -3.792,8.745 -8.5,8.745c-4.708,0 -8.542,-3.916 -8.542,-8.745Z" style="fill:#593f92;fill-rule:nonzero;"/><g><path d="M254.042,426.683l-1.209,0c-0.041,0 -0.041,0.005 -0.083,0.021l-1.667,1.021c0,0.025 -0.041,0.067 -0.041,0.113l0,0.995c0,0.046 0.041,0.092 0.083,0.113c0.042,0.025 0.083,0.021 0.125,-0.004l1.625,-1.009l0,4.634c0,0.071 0.042,0.129 0.125,0.129l1.042,0c0.083,0 0.125,-0.058 0.125,-0.129l0,-5.754c0,-0.071 -0.042,-0.13 -0.125,-0.13Z" style="fill:#fff;fill-rule:nonzero;"/></g></g></g><g><path d="M277.75,465.296c0,-0.288 0.25,-0.521 0.5,-0.521l61.458,0c0.292,0 0.542,0.233 0.542,0.521c0,0.287 -0.25,0.521 -0.542,0.521l-61.458,0c-0.25,0 -0.5,-0.234 -0.5,-0.521Z" style="fill:#463174;fill-rule:nonzero;"/><g><path d="M279.722,482.875c0,-4.233 3.458,-7.662 7.666,-7.662l41.75,0c4.209,0 7.667,3.429 7.667,7.662l0,12.408c0,4.234 -3.458,7.667 -7.667,7.667l-41.75,0c-4.208,0 -7.666,-3.433 -7.666,-7.667l0,-12.408Z" style="fill:#fff;fill-rule:nonzero;"/><path d="M295.972,484.742l-0.125,0c-0.167,-0.554 -0.417,-1.104 -0.75,-1.58l0.875,0c0.666,0 1.208,-0.512 1.208,-1.183c0,-0.671 -0.542,-1.183 -1.208,-1.183l-9.042,0c-0.667,0 -1.208,0.512 -1.208,1.183c0,0.671 0.541,1.183 1.208,1.183l3.833,0c1.125,0.117 2.042,0.788 2.5,1.58l-6.333,0c-0.667,0 -1.208,0.512 -1.208,1.183c0,0.671 0.541,1.183 1.208,1.183l6.417,0c-0.417,0.946 -1.375,1.575 -2.5,1.575l-3.917,0c-0.542,0 -0.958,0.317 -1.125,0.792c-0.167,0.471 0,0.983 0.417,1.3l7.875,6.313c0.25,0.158 0.458,0.275 0.75,0.275c0.333,0 0.708,-0.159 0.916,-0.434c0.375,-0.512 0.292,-1.262 -0.208,-1.658l-5.25,-4.221l0.542,0c2.458,0 4.458,-1.696 5,-3.942l0.125,0c0.666,0 1.208,-0.512 1.208,-1.183c0,-0.671 -0.542,-1.183 -1.208,-1.183Z" style="fill:#593f92;fill-rule:nonzero;"/><path d="M312.805,484.742l-0.167,0c-0.166,-0.554 -0.375,-1.104 -0.75,-1.58l0.917,0c0.667,0 1.167,-0.512 1.167,-1.183c0,-0.671 -0.5,-1.183 -1.167,-1.183l-9.083,0c-0.667,0 -1.167,0.512 -1.167,1.183c0,0.671 0.5,1.183 1.167,1.183l3.875,0c1.083,0.117 2,0.788 2.5,1.58l-6.375,0c-0.667,0 -1.167,0.512 -1.167,1.183c0,0.671 0.5,1.183 1.167,1.183l6.416,0c-0.416,0.946 -1.375,1.575 -2.458,1.575l-3.958,0c-0.5,0 -0.959,0.317 -1.084,0.792c-0.166,0.471 0,0.983 0.375,1.3l7.875,6.313c0.25,0.158 0.5,0.275 0.75,0.275c0.375,0 0.709,-0.159 0.917,-0.434c0.417,-0.512 0.333,-1.262 -0.208,-1.658l-5.209,-4.221l0.542,0c2.417,0 4.458,-1.696 4.958,-3.942l0.167,0c0.667,0 1.167,-0.512 1.167,-1.183c0,-0.671 -0.5,-1.183 -1.167,-1.183Z" style="fill:#593f92;fill-rule:nonzero;"/><path d="M329.597,484.742l-0.125,0c-0.167,-0.554 -0.417,-1.104 -0.75,-1.58l0.875,0c0.666,0 1.208,-0.512 1.208,-1.183c0,-0.671 -0.542,-1.183 -1.208,-1.183l-9.042,0c-0.708,0 -1.208,0.512 -1.208,1.183c0,0.671 0.5,1.183 1.208,1.183l3.833,0c1.125,0.117 2.042,0.788 2.5,1.58l-6.333,0c-0.708,0 -1.208,0.512 -1.208,1.183c0,0.671 0.5,1.183 1.208,1.183l6.417,0c-0.459,0.946 -1.375,1.575 -2.5,1.575l-3.917,0c-0.542,0 -0.958,0.317 -1.125,0.792c-0.167,0.471 0,0.983 0.417,1.3l7.875,6.313c0.25,0.158 0.458,0.275 0.75,0.275c0.333,0 0.708,-0.159 0.916,-0.434c0.375,-0.512 0.292,-1.262 -0.208,-1.658l-5.25,-4.221l0.542,0c2.458,0 4.458,-1.696 5,-3.942l0.125,0c0.666,0 1.208,-0.512 1.208,-1.183c0,-0.671 -0.542,-1.183 -1.208,-1.183Z" style="fill:#593f92;fill-rule:nonzero;"/></g><g><path d="M292.876,443.639l0,2.054l-2.789,0l0,8.474l-2.564,0l0,-8.474l-2.79,0l0,-2.054l8.143,0Z" style="fill:#593f92;fill-rule:nonzero;"/><path d="M299.145,454.272c-0.99,0 -1.897,-0.23 -2.722,-0.69c-0.825,-0.46 -1.479,-1.102 -1.964,-1.927c-0.485,-0.825 -0.728,-1.752 -0.728,-2.782c0,-1.03 0.243,-1.955 0.728,-2.775c0.485,-0.82 1.139,-1.459 1.964,-1.919c0.825,-0.46 1.732,-0.69 2.722,-0.69c0.99,0 1.897,0.23 2.722,0.69c0.825,0.46 1.475,1.099 1.95,1.919c0.475,0.82 0.712,1.745 0.712,2.775c0,1.03 -0.24,1.957 -0.72,2.782c-0.48,0.825 -1.13,1.467 -1.949,1.927c-0.82,0.46 -1.725,0.69 -2.715,0.69Zm0,-2.34c0.84,0 1.512,-0.28 2.017,-0.84c0.505,-0.56 0.758,-1.299 0.758,-2.219c0,-0.93 -0.253,-1.672 -0.758,-2.227c-0.505,-0.555 -1.177,-0.833 -2.017,-0.833c-0.85,0 -1.527,0.275 -2.032,0.825c-0.505,0.55 -0.757,1.295 -0.757,2.235c0,0.93 0.252,1.672 0.757,2.227c0.505,0.555 1.182,0.832 2.032,0.832Z" style="fill:#593f92;fill-rule:nonzero;"/><path d="M313.527,443.639l0,2.054l-2.789,0l0,8.474l-2.565,0l0,-8.474l-2.789,0l0,-2.054l8.143,0Z" style="fill:#593f92;fill-rule:nonzero;"/><path d="M321.371,452.307l-3.93,0l-0.629,1.86l-2.685,0l3.809,-10.528l2.97,0l3.809,10.528l-2.715,0l-0.629,-1.86Zm-0.66,-1.98l-1.305,-3.854l-1.29,3.854l2.595,0Z" style="fill:#593f92;fill-rule:nonzero;"/><path d="M328.434,452.187l3.359,0l0,1.98l-5.923,0l0,-10.528l2.564,0l0,8.548Z" style="fill:#593f92;fill-rule:nonzero;"/></g></g></g></g><g><path d="M189.542,577.988l139.833,0c12.25,0 22.167,9.937 22.167,22.199l0,3.955c0,12.258 -9.917,22.2 -22.167,22.2l-139.833,0c-12.25,0 -22.209,-9.942 -22.209,-22.2l0,-3.955c0,-12.262 9.959,-22.199 22.209,-22.199Z" style="fill:#593f92;fill-rule:nonzero;"/><g><path d="M250.842,599.249c0,0.783 -0.18,1.499 -0.539,2.147c-0.359,0.648 -0.911,1.171 -1.655,1.569c-0.745,0.397 -1.669,0.596 -2.772,0.596l-2.041,0l0,4.852l-3.292,0l0,-13.514l5.333,0c1.078,0 1.989,0.186 2.733,0.558c0.744,0.372 1.303,0.885 1.675,1.54c0.372,0.654 0.558,1.405 0.558,2.252Zm-5.217,1.694c0.629,0 1.098,-0.147 1.406,-0.442c0.308,-0.296 0.462,-0.713 0.462,-1.252c0,-0.539 -0.154,-0.956 -0.462,-1.251c-0.308,-0.295 -0.777,-0.443 -1.406,-0.443l-1.79,0l0,3.388l1.79,0Z" style="fill:#fff;fill-rule:nonzero;"/><path d="M260.968,606.025l-5.044,0l-0.808,2.388l-3.446,0l4.89,-13.514l3.811,0l4.89,13.514l-3.485,0l-0.808,-2.388Zm-0.847,-2.541l-1.675,-4.947l-1.655,4.947l3.33,0Z" style="fill:#fff;fill-rule:nonzero;"/><path d="M278.332,594.899l-4.678,9.047l0,4.467l-3.292,0l0,-4.467l-4.678,-9.047l3.735,0l2.618,5.659l2.599,-5.659l3.696,0Z" style="fill:#fff;fill-rule:nonzero;"/></g></g></g></g></g></g></svg>