<?xml version="1.0" encoding="UTF-8" standalone="no"?>
<!DOCTYPE svg PUBLIC "-//W3C//DTD SVG 1.1//EN" "http://www.w3.org/Graphics/SVG/1.1/DTD/svg11.dtd">
<svg width="100%" height="100%" viewBox="0 0 159 202" version="1.1" xmlns="http://www.w3.org/2000/svg" xmlns:xlink="http://www.w3.org/1999/xlink" xml:space="preserve" xmlns:serif="http://www.serif.com/" style="fill-rule:evenodd;clip-rule:evenodd;stroke-linejoin:round;stroke-miterlimit:10;">
    <g id="Layer" transform="matrix(1,0,0,1,-1102.33,-388.253)">
        <g>
            <g>
                <path d="M1121.15,418.051C1121.15,409.799 1127.19,403.109 1134.63,403.109L1195.13,403.109C1202.57,403.109 1208.6,409.799 1208.6,418.051L1208.6,548.661C1208.6,556.913 1202.57,563.602 1195.13,563.602L1134.63,563.602C1127.19,563.602 1121.15,556.913 1121.15,548.661L1121.15,418.051Z" style="fill:rgb(192,163,255);fill-rule:nonzero;stroke:rgb(70,49,116);stroke-width:2.8px;"/>
                <path d="M1153.18,408.411C1153.18,406.843 1154.45,405.572 1156.02,405.572L1173.74,405.572C1175.31,405.572 1176.58,406.843 1176.58,408.411C1176.58,409.979 1175.31,411.25 1173.74,411.25L1156.02,411.25C1154.45,411.25 1153.18,409.979 1153.18,408.411Z" style="fill:rgb(70,49,116);fill-rule:nonzero;"/>
                <path d="M1209.11,439.486L1207.23,439.486L1207.23,461.774L1209.11,461.774C1210.15,461.774 1211,460.929 1211,459.886L1211,441.373C1211,440.331 1210.15,439.486 1209.11,439.486Z" style="fill:rgb(70,49,116);fill-rule:nonzero;"/>
                <path d="M1119.87,430.912L1121.15,430.912L1121.15,439.486L1119.87,439.486C1119.16,439.486 1118.59,438.912 1118.59,438.203L1118.59,432.195C1118.59,431.486 1119.16,430.912 1119.87,430.912Z" style="fill:rgb(70,49,116);fill-rule:nonzero;"/>
                <path d="M1119.87,444.804L1121.15,444.804L1121.15,457.052L1119.87,457.052C1119.16,457.052 1118.59,456.477 1118.59,455.769L1118.59,446.087C1118.59,445.378 1119.16,444.804 1119.87,444.804Z" style="fill:rgb(70,49,116);fill-rule:nonzero;"/>
                <path d="M1119.87,458.519L1121.15,458.519L1121.15,470.767L1119.87,470.767C1119.16,470.767 1118.59,470.193 1118.59,469.484L1118.59,459.802C1118.59,459.093 1119.16,458.519 1119.87,458.519Z" style="fill:rgb(70,49,116);fill-rule:nonzero;"/>
                <path d="M1216.62,582.4C1216.62,578.778 1226.44,575.843 1238.55,575.843C1250.66,575.843 1260.48,578.778 1260.48,582.4C1260.48,586.021 1250.66,588.957 1238.55,588.957C1226.44,588.957 1216.62,586.021 1216.62,582.4Z" style="fill:rgb(116,81,194);fill-rule:nonzero;"/>
                <g>
                    <path d="M1215.1,569.147C1216.69,559.828 1225.4,553.541 1234.56,555.104C1243.71,556.667 1249.85,565.488 1248.25,574.806C1246.66,584.125 1245.52,590.811 1228.8,588.849C1212.09,586.889 1213.51,578.465 1215.1,569.147Z" style="fill:white;fill-rule:nonzero;stroke:rgb(70,49,116);stroke-width:0.75px;"/>
                </g>
                <path d="M1215.72,566.8C1217.88,568.563 1218.6,568.829 1218.83,568.973C1218.83,568.973 1218.71,569.236 1218.56,569.499C1218.07,570.347 1215.91,570.401 1214.94,570.094L1215.72,566.8Z" style="fill:rgb(70,49,116);fill-rule:nonzero;"/>
                <g>
                    <path d="M1220.41,562.937C1220.61,561.621 1221.83,560.712 1223.14,560.907C1224.45,561.103 1225.36,562.329 1225.16,563.645C1224.97,564.962 1223.74,565.871 1222.43,565.675C1221.12,565.48 1220.21,564.254 1220.41,562.937Z" style="fill:rgb(70,49,116);fill-rule:nonzero;"/>
                    <path d="M1221.14,562.08C1221.22,561.503 1221.76,561.105 1222.33,561.191C1222.91,561.276 1223.3,561.813 1223.22,562.39C1223.13,562.967 1222.6,563.365 1222.02,563.28C1221.45,563.194 1221.05,562.657 1221.14,562.08Z" style="fill:white;fill-rule:nonzero;"/>
                </g>
                <path d="M1215.28,570.176C1215.28,570.176 1215.71,569.027 1216.71,568.674C1217.73,568.317 1218.83,568.972 1218.83,568.972C1218.83,568.972 1218.48,570.314 1216.72,570.316C1215.7,570.317 1215.28,570.176 1215.28,570.176Z" style="fill:rgb(89,63,146);fill-rule:nonzero;"/>
                <path d="M1229.75,528.435L1230.55,528.435C1230.74,528.435 1230.9,528.592 1230.9,528.783L1230.9,529.578C1230.9,529.771 1230.74,529.926 1230.55,529.926L1229.75,529.926C1229.56,529.925 1229.41,529.77 1229.41,529.578L1229.41,528.783C1229.41,528.69 1229.44,528.602 1229.51,528.537C1229.57,528.471 1229.66,528.435 1229.75,528.435ZM1232.51,528.435L1233.31,528.435C1233.5,528.436 1233.66,528.591 1233.66,528.783L1233.66,529.578C1233.66,529.771 1233.5,529.926 1233.31,529.926L1232.51,529.926C1232.32,529.925 1232.17,529.77 1232.17,529.578L1232.17,528.783C1232.17,528.591 1232.32,528.436 1232.51,528.435ZM1235.27,528.435L1236.07,528.435C1236.26,528.436 1236.42,528.591 1236.42,528.783L1236.42,529.578C1236.42,529.771 1236.26,529.926 1236.07,529.926L1235.27,529.926C1235.08,529.925 1234.93,529.77 1234.93,529.578L1234.93,528.783C1234.93,528.69 1234.96,528.602 1235.03,528.537C1235.09,528.471 1235.18,528.435 1235.27,528.435ZM1238.03,528.435L1238.83,528.435C1239.02,528.436 1239.18,528.591 1239.18,528.783L1239.18,529.578C1239.18,529.771 1239.02,529.926 1238.83,529.926L1238.03,529.926C1237.84,529.926 1237.69,529.77 1237.68,529.578L1237.68,528.783C1237.69,528.591 1237.84,528.436 1238.03,528.435ZM1240.79,528.435L1241.59,528.435C1241.78,528.435 1241.94,528.592 1241.94,528.783L1241.94,529.578C1241.94,529.771 1241.78,529.926 1241.59,529.926L1240.79,529.926C1240.6,529.925 1240.45,529.77 1240.45,529.578L1240.45,528.783C1240.45,528.591 1240.6,528.436 1240.79,528.435ZM1232.61,531.444L1233.41,531.444C1233.6,531.445 1233.76,531.6 1233.76,531.791L1233.76,532.589C1233.76,532.78 1233.6,532.936 1233.41,532.936L1232.61,532.936C1232.42,532.936 1232.27,532.781 1232.27,532.589L1232.27,531.793C1232.27,531.7 1232.3,531.611 1232.37,531.546C1232.43,531.48 1232.52,531.444 1232.61,531.444ZM1235.37,531.444L1236.17,531.444C1236.36,531.445 1236.52,531.6 1236.52,531.791L1236.52,532.589C1236.52,532.78 1236.36,532.936 1236.17,532.936L1235.37,532.936C1235.18,532.935 1235.03,532.78 1235.03,532.589L1235.03,531.793C1235.03,531.7 1235.06,531.611 1235.13,531.546C1235.19,531.48 1235.28,531.444 1235.37,531.444ZM1238.13,531.444L1238.93,531.444C1239.12,531.444 1239.28,531.601 1239.28,531.791L1239.28,532.589C1239.28,532.781 1239.12,532.936 1238.93,532.936L1238.13,532.936C1237.94,532.935 1237.79,532.78 1237.79,532.589L1237.79,531.793C1237.79,531.601 1237.94,531.444 1238.13,531.444ZM1235.27,525.203L1236.07,525.203C1236.26,525.203 1236.42,525.359 1236.42,525.55L1236.42,526.346C1236.42,526.538 1236.26,526.693 1236.07,526.693L1235.27,526.693C1235.08,526.693 1234.93,526.537 1234.93,526.346L1234.93,525.55C1234.93,525.458 1234.96,525.369 1235.03,525.304C1235.09,525.239 1235.18,525.203 1235.27,525.203ZM1238.03,525.203L1238.83,525.203C1239.02,525.203 1239.18,525.359 1239.18,525.55L1239.18,526.346C1239.18,526.538 1239.02,526.693 1238.83,526.693L1238.03,526.693C1237.84,526.693 1237.69,526.538 1237.68,526.346L1237.68,525.55C1237.69,525.359 1237.84,525.204 1238.03,525.203Z" style="fill:rgb(89,63,146);"/>
                <path d="M1120.76,396.255L1119.85,396.255C1119.63,396.255 1119.45,396.075 1119.45,395.857L1119.45,394.946C1119.45,394.727 1119.63,394.549 1119.85,394.549L1120.76,394.549C1120.98,394.55 1121.15,394.727 1121.15,394.946L1121.15,395.857C1121.15,395.963 1121.11,396.064 1121.04,396.138C1120.96,396.213 1120.86,396.255 1120.76,396.255ZM1117.6,396.255L1116.69,396.255C1116.47,396.254 1116.29,396.076 1116.29,395.857L1116.29,394.946C1116.29,394.727 1116.47,394.549 1116.69,394.549L1117.6,394.549C1117.82,394.55 1118,394.727 1118,394.946L1118,395.857C1118,396.076 1117.82,396.254 1117.6,396.255ZM1114.44,396.255L1113.53,396.255C1113.31,396.254 1113.13,396.076 1113.13,395.857L1113.13,394.946C1113.13,394.727 1113.31,394.549 1113.53,394.549L1114.44,394.549C1114.66,394.55 1114.84,394.727 1114.84,394.946L1114.84,395.857C1114.84,395.963 1114.8,396.064 1114.72,396.138C1114.65,396.213 1114.55,396.255 1114.44,396.255ZM1111.28,396.255L1110.37,396.255C1110.15,396.254 1109.98,396.076 1109.98,395.857L1109.98,394.946C1109.98,394.727 1110.15,394.549 1110.37,394.549L1111.28,394.549C1111.5,394.549 1111.68,394.727 1111.68,394.946L1111.68,395.857C1111.68,396.076 1111.5,396.253 1111.28,396.255ZM1108.13,396.255L1107.22,396.255C1106.99,396.255 1106.82,396.075 1106.82,395.857L1106.82,394.946C1106.82,394.727 1106.99,394.549 1107.22,394.549L1108.13,394.549C1108.34,394.55 1108.52,394.727 1108.52,394.946L1108.52,395.857C1108.52,396.076 1108.34,396.254 1108.13,396.255ZM1117.48,392.812L1116.57,392.812C1116.35,392.811 1116.18,392.634 1116.18,392.414L1116.18,391.502C1116.18,391.284 1116.35,391.105 1116.57,391.105L1117.48,391.105C1117.7,391.105 1117.88,391.282 1117.88,391.502L1117.88,392.413C1117.88,392.519 1117.84,392.62 1117.77,392.695C1117.69,392.77 1117.59,392.812 1117.48,392.812ZM1114.33,392.812L1113.42,392.812C1113.2,392.811 1113.02,392.634 1113.02,392.414L1113.02,391.502C1113.02,391.284 1113.2,391.105 1113.42,391.105L1114.33,391.105C1114.55,391.105 1114.72,391.283 1114.72,391.502L1114.72,392.413C1114.72,392.519 1114.68,392.62 1114.61,392.695C1114.53,392.77 1114.43,392.812 1114.33,392.812ZM1111.17,392.812L1110.26,392.812C1110.04,392.812 1109.86,392.633 1109.86,392.414L1109.86,391.502C1109.86,391.282 1110.04,391.105 1110.26,391.105L1111.17,391.105C1111.39,391.105 1111.57,391.283 1111.57,391.502L1111.57,392.413C1111.57,392.633 1111.39,392.812 1111.17,392.812ZM1114.44,399.953L1113.53,399.953C1113.31,399.953 1113.13,399.774 1113.13,399.556L1113.13,398.645C1113.13,398.425 1113.31,398.248 1113.53,398.248L1114.44,398.248C1114.66,398.248 1114.84,398.426 1114.84,398.645L1114.84,399.556C1114.84,399.661 1114.8,399.762 1114.72,399.837C1114.65,399.911 1114.55,399.953 1114.44,399.953ZM1111.28,399.953L1110.37,399.953C1110.15,399.953 1109.98,399.774 1109.98,399.556L1109.98,398.645C1109.98,398.425 1110.15,398.248 1110.37,398.248L1111.28,398.248C1111.5,398.248 1111.68,398.425 1111.68,398.645L1111.68,399.556C1111.68,399.775 1111.5,399.951 1111.28,399.953Z" style="fill:rgb(89,63,146);"/>
                <path d="M1176.63,389.679C1176.63,390.466 1177.28,391.105 1178.07,391.105C1178.87,391.105 1179.51,390.466 1179.51,389.679C1179.51,388.891 1178.87,388.253 1178.07,388.253C1177.28,388.253 1176.63,388.891 1176.63,389.679Z" style="fill:rgb(89,63,146);fill-rule:nonzero;"/>
                <path d="M1102.33,450.894C1102.33,451.681 1102.97,452.32 1103.76,452.32C1104.56,452.32 1105.2,451.681 1105.2,450.894C1105.2,450.106 1104.56,449.468 1103.76,449.468C1102.97,449.468 1102.33,450.106 1102.33,450.894Z" style="fill:rgb(89,63,146);fill-rule:nonzero;"/>
                <path d="M1132.9,580.45C1132.9,581.237 1133.54,581.876 1134.33,581.876C1135.13,581.876 1135.77,581.237 1135.77,580.45C1135.77,579.662 1135.13,579.024 1134.33,579.024C1133.54,579.024 1132.9,579.662 1132.9,580.45Z" style="fill:rgb(89,63,146);fill-rule:nonzero;"/>
                <path d="M1227.82,452.03C1229.09,451.338 1229.41,449.452 1229.41,449.452C1229.41,449.452 1227.65,448.689 1226.38,449.382C1225.11,450.074 1224.79,451.959 1224.79,451.959C1224.79,451.959 1226.55,452.721 1227.82,452.03Z" style="fill:rgb(89,63,146);fill-rule:nonzero;"/>
                <path d="M1174.38,582.954C1175.09,581.69 1174.35,579.927 1174.35,579.927C1174.35,579.927 1172.46,580.215 1171.75,581.48C1171.04,582.743 1171.78,584.506 1171.78,584.506C1171.78,584.506 1173.67,584.218 1174.38,582.954Z" style="fill:rgb(89,63,146);fill-rule:nonzero;"/>
                <path d="M1105.72,507.807C1108.2,508.858 1111.31,507.131 1111.31,507.131C1111.31,507.131 1110.39,503.701 1107.91,502.652C1105.43,501.602 1102.33,503.326 1102.33,503.326C1102.33,503.326 1103.24,506.756 1105.72,507.807Z" style="fill:rgb(89,63,146);fill-rule:nonzero;"/>
            </g>
            <g>
                <path d="M1128.78,435.473C1128.78,431.29 1132.17,427.899 1136.35,427.899L1192.84,427.899C1197.02,427.899 1200.41,431.29 1200.41,435.473L1200.41,541.972C1200.41,546.155 1197.02,549.546 1192.84,549.546L1136.35,549.546C1132.17,549.546 1128.78,546.155 1128.78,541.972L1128.78,435.473Z" style="fill:white;fill-rule:nonzero;"/>
                <g>
                    <g>
                        <path d="M1138.65,438.87L1190.54,438.87C1191.47,438.87 1192.22,439.623 1192.22,440.552L1192.22,472.245C1192.22,473.173 1191.47,473.926 1190.54,473.926L1138.65,473.926C1137.72,473.926 1136.97,473.173 1136.97,472.245L1136.97,440.552C1136.97,439.623 1137.72,438.87 1138.65,438.87Z" style="fill:rgb(89,63,146);fill-rule:nonzero;"/>
                        <g>
                            <path d="M1145.58,457.665L1145.1,457.665L1145.1,458.291L1144.86,458.291L1144.86,457.665L1143.52,457.665L1143.52,457.489L1144.78,455.925L1145.05,455.925L1143.83,457.462L1144.87,457.462L1144.87,456.911L1145.1,456.911L1145.1,457.462L1145.58,457.462L1145.58,457.665Z" style="fill:white;fill-rule:nonzero;"/>
                            <path d="M1147.33,457.607C1147.33,457.998 1147.04,458.311 1146.46,458.311C1146.15,458.322 1145.84,458.213 1145.61,458.006L1145.73,457.81C1145.93,457.996 1146.19,458.095 1146.46,458.088C1146.86,458.088 1147.08,457.904 1147.08,457.607C1147.08,457.31 1146.88,457.134 1146.43,457.134L1146.27,457.134L1146.27,456.958L1146.93,456.132L1145.71,456.132L1145.71,455.913L1147.24,455.913L1147.24,456.089L1146.57,456.934C1147.08,456.958 1147.33,457.227 1147.33,457.607Z" style="fill:white;fill-rule:nonzero;"/>
                            <path d="M1149.26,457.591C1149.26,457.982 1148.97,458.311 1148.39,458.311C1148.08,458.322 1147.77,458.213 1147.54,458.006L1147.66,457.81C1147.86,457.996 1148.12,458.096 1148.39,458.088C1148.78,458.088 1149.01,457.888 1149.01,457.599C1149.01,457.31 1148.82,457.102 1148.22,457.102L1147.72,457.102L1147.84,455.909L1149.14,455.909L1149.14,456.128L1148.06,456.128L1147.97,456.887L1148.28,456.887C1148.98,456.887 1149.26,457.169 1149.26,457.591Z" style="fill:white;fill-rule:nonzero;"/>
                            <path d="M1151.35,457.579C1151.35,457.787 1151.26,457.985 1151.11,458.124C1150.95,458.263 1150.75,458.33 1150.54,458.311C1149.91,458.311 1149.57,457.873 1149.57,457.137C1149.57,456.402 1150.01,455.906 1150.65,455.906C1150.85,455.898 1151.04,455.942 1151.22,456.035L1151.12,456.23C1150.98,456.151 1150.82,456.113 1150.66,456.121C1150.14,456.121 1149.81,456.449 1149.81,457.094L1149.81,457.29C1149.96,457.027 1150.24,456.873 1150.54,456.899C1150.74,456.872 1150.94,456.931 1151.1,457.06C1151.25,457.19 1151.34,457.378 1151.35,457.579ZM1151.11,457.579C1151.11,457.267 1150.88,457.067 1150.51,457.067C1150.36,457.05 1150.21,457.096 1150.09,457.194C1149.98,457.293 1149.91,457.435 1149.9,457.587C1149.9,457.849 1150.12,458.096 1150.53,458.096C1150.67,458.113 1150.82,458.068 1150.93,457.971C1151.04,457.874 1151.11,457.735 1151.11,457.587L1151.11,457.579Z" style="fill:white;fill-rule:nonzero;"/>
                            <path d="M1156.5,458.291L1155.93,457.544L1155.36,458.291L1155.09,458.291L1155.8,457.372L1155.12,456.504L1155.39,456.504L1155.93,457.204L1156.47,456.504L1156.73,456.504L1156.06,457.372L1156.77,458.291L1156.5,458.291Z" style="fill:white;fill-rule:nonzero;"/>
                            <path d="M1158.31,458.291L1157.75,457.544L1157.17,458.291L1156.9,458.291L1157.61,457.372L1156.93,456.504L1157.21,456.504L1157.74,457.204L1158.28,456.504L1158.55,456.504L1157.87,457.372L1158.59,458.291L1158.31,458.291Z" style="fill:white;fill-rule:nonzero;"/>
                            <path d="M1160.13,458.291L1159.56,457.544L1158.99,458.291L1158.74,458.291L1159.44,457.372L1158.74,456.504L1159.01,456.504L1159.55,457.204L1160.09,456.504L1160.35,456.504L1159.68,457.372L1160.39,458.291L1160.13,458.291Z" style="fill:white;fill-rule:nonzero;"/>
                            <path d="M1161.95,458.291L1161.38,457.544L1160.81,458.291L1160.54,458.291L1161.24,457.372L1160.57,456.504L1160.84,456.504L1161.38,457.204L1161.92,456.504L1162.18,456.504L1161.51,457.372L1162.22,458.291L1161.95,458.291Z" style="fill:white;fill-rule:nonzero;"/>
                            <path d="M1168.22,458.291L1167.65,457.544L1167.08,458.291L1166.81,458.291L1167.52,457.372L1166.84,456.504L1167.11,456.504L1167.65,457.204L1168.19,456.504L1168.46,456.504L1167.78,457.372L1168.49,458.291L1168.22,458.291Z" style="fill:white;fill-rule:nonzero;"/>
                            <path d="M1170.04,458.291L1169.47,457.544L1168.9,458.291L1168.63,458.291L1169.34,457.372L1168.67,456.504L1168.94,456.504L1169.48,457.204L1170.01,456.504L1170.28,456.504L1169.6,457.372L1170.32,458.291L1170.04,458.291Z" style="fill:white;fill-rule:nonzero;"/>
                            <path d="M1171.85,458.291L1171.28,457.544L1170.71,458.291L1170.44,458.291L1171.15,457.372L1170.47,456.504L1170.74,456.504L1171.28,457.204L1171.82,456.504L1172.08,456.504L1171.41,457.372L1172.12,458.291L1171.85,458.291Z" style="fill:white;fill-rule:nonzero;"/>
                            <path d="M1173.67,458.291L1173.1,457.544L1172.53,458.291L1172.26,458.291L1172.96,457.372L1172.29,456.504L1172.56,456.504L1173.1,457.204L1173.64,456.504L1173.9,456.504L1173.23,457.372L1173.94,458.291L1173.67,458.291Z" style="fill:white;fill-rule:nonzero;"/>
                            <path d="M1179.3,455.909L1179.3,458.291L1179.07,458.291L1179.07,456.128L1178.51,456.128L1178.51,455.909L1179.3,455.909Z" style="fill:white;fill-rule:nonzero;"/>
                            <path d="M1181.44,457.607C1181.44,457.998 1181.15,458.311 1180.58,458.311C1180.26,458.322 1179.96,458.213 1179.72,458.006L1179.84,457.81C1180.04,457.996 1180.31,458.096 1180.58,458.088C1180.97,458.088 1181.19,457.904 1181.19,457.607C1181.19,457.31 1180.99,457.134 1180.55,457.134L1180.38,457.134L1180.38,456.958L1181.04,456.132L1179.82,456.132L1179.82,455.913L1181.35,455.913L1181.35,456.089L1180.68,456.934C1181.19,456.958 1181.44,457.227 1181.44,457.607Z" style="fill:white;fill-rule:nonzero;"/>
                            <path d="M1183.81,457.665L1183.33,457.665L1183.33,458.291L1183.09,458.291L1183.09,457.665L1181.74,457.665L1181.74,457.489L1183.01,455.925L1183.28,455.925L1182.06,457.462L1183.09,457.462L1183.09,456.911L1183.33,456.911L1183.33,457.462L1183.81,457.462L1183.81,457.665Z" style="fill:white;fill-rule:nonzero;"/>
                            <path d="M1185.65,458.072L1185.65,458.291L1183.98,458.291L1183.98,458.131L1184.97,457.161C1185.24,456.895 1185.29,456.735 1185.29,456.57C1185.29,456.297 1185.09,456.125 1184.73,456.125C1184.48,456.11 1184.24,456.208 1184.08,456.391L1183.9,456.242C1184.12,456.008 1184.43,455.883 1184.75,455.902C1185.23,455.902 1185.53,456.148 1185.53,456.543C1185.52,456.838 1185.38,457.113 1185.14,457.29L1184.33,458.072L1185.65,458.072Z" style="fill:white;fill-rule:nonzero;"/>
                        </g>
                        <g>
                            <path d="M1176.87,466.926C1176.87,466.203 1177.26,465.796 1177.81,465.796C1178.35,465.796 1178.74,466.187 1178.74,466.926C1178.74,467.665 1178.35,468.06 1177.81,468.06C1177.26,468.06 1176.87,467.65 1176.87,466.926ZM1178.23,466.926C1178.23,466.429 1178.06,466.222 1177.81,466.222C1177.55,466.222 1177.38,466.429 1177.38,466.926C1177.38,467.423 1177.56,467.63 1177.81,467.63C1178.06,467.63 1178.23,467.423 1178.23,466.926Z" style="fill:white;fill-rule:nonzero;"/>
                            <path d="M1180.79,467.329C1180.79,467.538 1180.7,467.736 1180.54,467.875C1180.38,468.014 1180.18,468.081 1179.97,468.06C1179.36,468.06 1178.99,467.669 1178.99,466.973C1178.96,466.663 1179.06,466.355 1179.28,466.129C1179.49,465.904 1179.79,465.783 1180.11,465.8C1180.32,465.793 1180.53,465.844 1180.72,465.948L1180.53,466.339C1180.4,466.262 1180.26,466.224 1180.12,466.23C1179.95,466.219 1179.78,466.283 1179.66,466.406C1179.54,466.529 1179.48,466.697 1179.5,466.867C1179.65,466.731 1179.84,466.661 1180.04,466.672C1180.23,466.656 1180.42,466.717 1180.56,466.841C1180.7,466.965 1180.78,467.141 1180.79,467.329ZM1180.3,467.356C1180.3,467.262 1180.26,467.172 1180.19,467.109C1180.12,467.046 1180.03,467.017 1179.93,467.028C1179.84,467.014 1179.74,467.043 1179.66,467.105C1179.59,467.168 1179.55,467.259 1179.54,467.356C1179.54,467.544 1179.68,467.681 1179.93,467.681C1180.03,467.693 1180.12,467.665 1180.19,467.603C1180.26,467.54 1180.3,467.451 1180.3,467.356Z" style="fill:white;fill-rule:nonzero;"/>
                            <path d="M1181.81,465.389L1182.25,465.389L1181.22,468.334L1180.78,468.334L1181.81,465.389Z" style="fill:white;fill-rule:nonzero;"/>
                            <path d="M1183.87,467.607L1183.87,468.021L1182.2,468.021L1182.2,467.693L1183.05,466.91C1183.24,466.727 1183.28,466.613 1183.28,466.519C1183.28,466.347 1183.16,466.246 1182.92,466.246C1182.75,466.239 1182.58,466.321 1182.47,466.465L1182.1,466.23C1182.31,465.962 1182.64,465.815 1182.97,465.839C1183.46,465.839 1183.79,466.089 1183.79,466.484C1183.78,466.759 1183.65,467.016 1183.42,467.176L1182.92,467.65L1183.87,467.607Z" style="fill:white;fill-rule:nonzero;"/>
                            <path d="M1186.05,467.56L1185.69,467.56L1185.69,468.021L1185.2,468.021L1185.2,467.56L1184.03,467.56L1184.03,467.219L1185.06,465.831L1185.59,465.831L1184.63,467.149L1185.22,467.149L1185.22,466.734L1185.7,466.734L1185.7,467.145L1186.06,467.145L1186.05,467.56Z" style="fill:white;fill-rule:nonzero;"/>
                        </g>
                        <path d="M1175.7,446.502C1175.7,444.448 1177.32,442.784 1179.31,442.784C1181.31,442.784 1182.92,444.448 1182.92,446.502C1182.92,448.555 1181.31,450.22 1179.31,450.22C1177.32,450.22 1175.7,448.555 1175.7,446.502Z" style="fill:white;fill-opacity:0.61;fill-rule:nonzero;"/>
                        <path d="M1180.07,446.502C1180.07,444.448 1181.68,442.784 1183.68,442.784C1185.67,442.784 1187.28,444.448 1187.28,446.502C1187.28,448.555 1185.67,450.22 1183.68,450.22C1181.68,450.22 1180.07,448.555 1180.07,446.502Z" style="fill:white;fill-opacity:0.74;fill-rule:nonzero;"/>
                        <g transform="matrix(1,0,0,1,1141.13,447.991)">
                            <g transform="matrix(4.09317,0,0,4.09317,0,0)">
                                <path d="M0.59,-0.695L0.36,-0.252L0.36,0L0.246,0L0.246,-0.252L0.015,-0.695L0.142,-0.695L0.303,-0.354L0.464,-0.695L0.59,-0.695Z" style="fill:white;fill-rule:nonzero;"/>
                            </g>
                            <g transform="matrix(4.09317,0,0,4.09317,2.47637,0)">
                                <path d="M0.392,0.007C0.327,0.007 0.268,-0.008 0.214,-0.039C0.159,-0.069 0.116,-0.111 0.085,-0.166C0.053,-0.22 0.037,-0.281 0.037,-0.349C0.037,-0.417 0.053,-0.478 0.085,-0.532C0.116,-0.586 0.159,-0.628 0.214,-0.659C0.268,-0.689 0.327,-0.704 0.392,-0.704C0.457,-0.704 0.517,-0.689 0.572,-0.659C0.626,-0.628 0.669,-0.586 0.7,-0.532C0.731,-0.478 0.747,-0.417 0.747,-0.349C0.747,-0.281 0.731,-0.22 0.7,-0.166C0.669,-0.111 0.626,-0.069 0.572,-0.039C0.517,-0.008 0.457,0.007 0.392,0.007ZM0.392,-0.092C0.438,-0.092 0.479,-0.102 0.515,-0.124C0.551,-0.145 0.579,-0.174 0.6,-0.214C0.62,-0.253 0.63,-0.298 0.63,-0.349C0.63,-0.4 0.62,-0.445 0.6,-0.484C0.579,-0.523 0.551,-0.552 0.515,-0.573C0.479,-0.594 0.438,-0.604 0.392,-0.604C0.346,-0.604 0.305,-0.594 0.269,-0.573C0.233,-0.552 0.205,-0.523 0.185,-0.484C0.164,-0.445 0.154,-0.4 0.154,-0.349C0.154,-0.298 0.164,-0.253 0.185,-0.214C0.205,-0.174 0.233,-0.145 0.269,-0.124C0.305,-0.102 0.346,-0.092 0.392,-0.092Z" style="fill:white;fill-rule:nonzero;"/>
                            </g>
                            <g transform="matrix(4.09317,0,0,4.09317,5.68541,0)">
                                <path d="M0.188,-0.695L0.188,-0.252C0.188,-0.199 0.202,-0.16 0.23,-0.133C0.257,-0.106 0.296,-0.093 0.345,-0.093C0.395,-0.093 0.434,-0.106 0.462,-0.133C0.489,-0.16 0.503,-0.199 0.503,-0.252L0.503,-0.695L0.617,-0.695L0.617,-0.254C0.617,-0.197 0.605,-0.149 0.58,-0.11C0.555,-0.071 0.522,-0.041 0.481,-0.022C0.44,-0.003 0.394,0.007 0.344,0.007C0.294,0.007 0.249,-0.003 0.208,-0.022C0.167,-0.041 0.134,-0.071 0.11,-0.11C0.086,-0.149 0.074,-0.197 0.074,-0.254L0.074,-0.695L0.188,-0.695Z" style="fill:white;fill-rule:nonzero;"/>
                            </g>
                            <g transform="matrix(4.09317,0,0,4.09317,8.5097,0)">
                                <path d="M0.436,0L0.276,-0.278L0.189,-0.278L0.189,0L0.075,0L0.075,-0.695L0.315,-0.695C0.368,-0.695 0.413,-0.686 0.451,-0.667C0.488,-0.648 0.515,-0.623 0.534,-0.592C0.552,-0.561 0.561,-0.526 0.561,-0.487C0.561,-0.442 0.548,-0.401 0.522,-0.364C0.495,-0.327 0.455,-0.301 0.4,-0.288L0.572,0L0.436,0ZM0.189,-0.369L0.315,-0.369C0.358,-0.369 0.39,-0.38 0.412,-0.401C0.433,-0.422 0.444,-0.451 0.444,-0.487C0.444,-0.523 0.433,-0.551 0.412,-0.572C0.391,-0.592 0.358,-0.602 0.315,-0.602L0.189,-0.602L0.189,-0.369Z" style="fill:white;fill-rule:nonzero;"/>
                            </g>
                            <g transform="matrix(4.09317,0,0,4.09317,12.1608,0)">
                                <path d="M0.447,-0.357C0.484,-0.35 0.516,-0.331 0.542,-0.298C0.568,-0.265 0.581,-0.228 0.581,-0.187C0.581,-0.152 0.572,-0.12 0.554,-0.092C0.535,-0.063 0.509,-0.041 0.474,-0.025C0.439,-0.008 0.399,0 0.353,0L0.075,0L0.075,-0.695L0.34,-0.695C0.387,-0.695 0.428,-0.687 0.462,-0.671C0.496,-0.655 0.522,-0.634 0.539,-0.607C0.556,-0.58 0.565,-0.549 0.565,-0.516C0.565,-0.476 0.554,-0.443 0.533,-0.416C0.512,-0.389 0.483,-0.37 0.447,-0.357ZM0.189,-0.403L0.33,-0.403C0.367,-0.403 0.397,-0.412 0.418,-0.429C0.439,-0.446 0.449,-0.47 0.449,-0.502C0.449,-0.533 0.439,-0.558 0.418,-0.576C0.397,-0.593 0.367,-0.602 0.33,-0.602L0.189,-0.602L0.189,-0.403ZM0.343,-0.093C0.382,-0.093 0.412,-0.102 0.434,-0.121C0.456,-0.14 0.467,-0.166 0.467,-0.199C0.467,-0.233 0.455,-0.26 0.432,-0.28C0.409,-0.3 0.378,-0.31 0.339,-0.31L0.189,-0.31L0.189,-0.093L0.343,-0.093Z" style="fill:white;fill-rule:nonzero;"/>
                            </g>
                            <g transform="matrix(4.09317,0,0,4.09317,14.7395,0)">
                                <path d="M0.494,-0.142L0.203,-0.142L0.153,0L0.034,0L0.283,-0.696L0.415,-0.696L0.664,0L0.544,0L0.494,-0.142ZM0.462,-0.235L0.349,-0.558L0.235,-0.235L0.462,-0.235Z" style="fill:white;fill-rule:nonzero;"/>
                            </g>
                            <g transform="matrix(4.09317,0,0,4.09317,17.5924,0)">
                                <path d="M0.646,0L0.532,0L0.189,-0.519L0.189,0L0.075,0L0.075,-0.696L0.189,-0.696L0.532,-0.178L0.532,-0.696L0.646,-0.696L0.646,0Z" style="fill:white;fill-rule:nonzero;"/>
                            </g>
                            <g transform="matrix(4.09317,0,0,4.09317,20.5436,0)">
                                <path d="M0.458,0L0.189,-0.311L0.189,0L0.075,0L0.075,-0.695L0.189,-0.695L0.189,-0.378L0.459,-0.695L0.602,-0.695L0.3,-0.347L0.607,0L0.458,0Z" style="fill:white;fill-rule:nonzero;"/>
                            </g>
                        </g>
                        <g transform="matrix(1,0,0,1,1142.08,468.667)">
                            <g transform="matrix(2.60673,0,0,2.60673,0,0)">
                                <path d="M0.542,-0.699L0.318,-0.272L0.318,0L0.248,0L0.248,-0.272L0.022,-0.699L0.101,-0.699L0.283,-0.336L0.464,-0.699L0.542,-0.699Z" style="fill:white;fill-rule:nonzero;"/>
                            </g>
                            <g transform="matrix(2.60673,0,0,2.60673,1.4702,0)">
                                <path d="M0.319,0.008C0.268,0.008 0.222,-0.003 0.181,-0.027C0.139,-0.049 0.107,-0.082 0.084,-0.125C0.06,-0.167 0.048,-0.216 0.048,-0.273C0.048,-0.33 0.06,-0.379 0.084,-0.422C0.108,-0.464 0.141,-0.497 0.182,-0.52C0.223,-0.543 0.27,-0.554 0.321,-0.554C0.372,-0.554 0.419,-0.543 0.461,-0.52C0.502,-0.497 0.535,-0.464 0.559,-0.422C0.582,-0.379 0.594,-0.33 0.594,-0.273C0.594,-0.217 0.582,-0.168 0.558,-0.125C0.534,-0.082 0.501,-0.049 0.459,-0.027C0.417,-0.003 0.37,0.008 0.319,0.008ZM0.319,-0.053C0.355,-0.053 0.388,-0.061 0.419,-0.078C0.45,-0.094 0.474,-0.119 0.494,-0.152C0.513,-0.185 0.522,-0.225 0.522,-0.273C0.522,-0.321 0.513,-0.362 0.494,-0.395C0.475,-0.428 0.451,-0.452 0.42,-0.469C0.389,-0.485 0.356,-0.493 0.32,-0.493C0.284,-0.493 0.251,-0.485 0.22,-0.469C0.189,-0.452 0.165,-0.428 0.147,-0.395C0.128,-0.362 0.119,-0.321 0.119,-0.273C0.119,-0.225 0.128,-0.185 0.147,-0.152C0.165,-0.119 0.189,-0.094 0.22,-0.078C0.25,-0.061 0.283,-0.053 0.319,-0.053Z" style="fill:white;fill-rule:nonzero;"/>
                            </g>
                            <g transform="matrix(2.60673,0,0,2.60673,3.14372,0)">
                                <path d="M0.553,-0.546L0.553,0L0.483,0L0.483,-0.096C0.467,-0.062 0.442,-0.036 0.409,-0.018C0.376,0 0.338,0.009 0.297,0.009C0.232,0.009 0.178,-0.011 0.137,-0.052C0.096,-0.092 0.075,-0.15 0.075,-0.227L0.075,-0.546L0.144,-0.546L0.144,-0.235C0.144,-0.176 0.159,-0.13 0.189,-0.099C0.218,-0.068 0.259,-0.052 0.31,-0.052C0.363,-0.052 0.405,-0.069 0.436,-0.102C0.467,-0.135 0.483,-0.184 0.483,-0.249L0.483,-0.546L0.553,-0.546Z" style="fill:white;fill-rule:nonzero;"/>
                            </g>
                            <g transform="matrix(2.60673,0,0,2.60673,4.79378,0)">
                                <path d="M0.15,-0.449C0.165,-0.483 0.189,-0.509 0.221,-0.528C0.252,-0.547 0.291,-0.556 0.337,-0.556L0.337,-0.483L0.318,-0.483C0.267,-0.483 0.227,-0.469 0.196,-0.442C0.165,-0.415 0.15,-0.369 0.15,-0.305L0.15,0L0.08,0L0.08,-0.546L0.15,-0.546L0.15,-0.449Z" style="fill:white;fill-rule:nonzero;"/>
                            </g>
                            <g transform="matrix(2.60673,0,0,2.60673,6.45166,0)">
                                <path d="M0.607,0L0.537,0L0.15,-0.588L0.15,0L0.08,0L0.08,-0.699L0.15,-0.699L0.537,-0.112L0.537,-0.699L0.607,-0.699L0.607,0Z" style="fill:white;fill-rule:nonzero;"/>
                            </g>
                            <g transform="matrix(2.60673,0,0,2.60673,8.23987,0)">
                                <path d="M0.048,-0.274C0.048,-0.33 0.059,-0.379 0.082,-0.422C0.104,-0.464 0.135,-0.497 0.175,-0.52C0.214,-0.543 0.259,-0.554 0.309,-0.554C0.361,-0.554 0.406,-0.542 0.444,-0.518C0.481,-0.494 0.508,-0.463 0.525,-0.426L0.525,-0.546L0.595,-0.546L0.595,0L0.525,0L0.525,-0.121C0.508,-0.084 0.48,-0.053 0.443,-0.029C0.405,-0.004 0.36,0.008 0.308,0.008C0.259,0.008 0.214,-0.004 0.175,-0.027C0.135,-0.05 0.104,-0.083 0.082,-0.126C0.059,-0.169 0.048,-0.218 0.048,-0.274ZM0.525,-0.273C0.525,-0.317 0.516,-0.356 0.498,-0.389C0.48,-0.422 0.456,-0.448 0.425,-0.466C0.393,-0.484 0.359,-0.493 0.322,-0.493C0.283,-0.493 0.249,-0.484 0.218,-0.467C0.187,-0.45 0.163,-0.425 0.146,-0.392C0.128,-0.359 0.119,-0.319 0.119,-0.274C0.119,-0.229 0.128,-0.19 0.146,-0.157C0.163,-0.123 0.187,-0.097 0.218,-0.08C0.249,-0.062 0.283,-0.053 0.322,-0.053C0.359,-0.053 0.393,-0.062 0.425,-0.08C0.456,-0.098 0.48,-0.124 0.498,-0.157C0.516,-0.19 0.525,-0.229 0.525,-0.273Z" style="fill:white;fill-rule:nonzero;"/>
                            </g>
                            <g transform="matrix(2.60673,0,0,2.60673,9.99942,0)">
                                <path d="M0.73,-0.556C0.794,-0.556 0.846,-0.536 0.887,-0.496C0.927,-0.455 0.947,-0.397 0.947,-0.32L0.947,0L0.878,0L0.878,-0.312C0.878,-0.371 0.864,-0.417 0.835,-0.448C0.806,-0.479 0.767,-0.495 0.718,-0.495C0.667,-0.495 0.626,-0.478 0.595,-0.444C0.564,-0.41 0.549,-0.361 0.549,-0.296L0.549,0L0.48,0L0.48,-0.312C0.48,-0.371 0.466,-0.417 0.437,-0.448C0.408,-0.479 0.369,-0.495 0.319,-0.495C0.268,-0.495 0.227,-0.478 0.196,-0.444C0.165,-0.41 0.15,-0.361 0.15,-0.296L0.15,0L0.08,0L0.08,-0.546L0.15,-0.546L0.15,-0.452C0.167,-0.486 0.192,-0.512 0.224,-0.53C0.256,-0.547 0.292,-0.556 0.331,-0.556C0.378,-0.556 0.42,-0.545 0.456,-0.522C0.491,-0.499 0.517,-0.466 0.533,-0.422C0.548,-0.465 0.573,-0.498 0.609,-0.522C0.644,-0.545 0.685,-0.556 0.73,-0.556Z" style="fill:white;fill-rule:nonzero;"/>
                            </g>
                            <g transform="matrix(2.60673,0,0,2.60673,12.6635,0)">
                                <path d="M0.574,-0.301C0.574,-0.277 0.573,-0.259 0.572,-0.246L0.119,-0.246C0.121,-0.205 0.131,-0.169 0.149,-0.14C0.167,-0.111 0.191,-0.089 0.22,-0.074C0.249,-0.058 0.281,-0.051 0.316,-0.051C0.361,-0.051 0.4,-0.062 0.431,-0.084C0.462,-0.106 0.482,-0.136 0.492,-0.173L0.566,-0.173C0.553,-0.12 0.524,-0.076 0.481,-0.043C0.437,-0.009 0.382,0.008 0.316,0.008C0.265,0.008 0.219,-0.003 0.178,-0.027C0.137,-0.049 0.106,-0.082 0.083,-0.125C0.059,-0.167 0.048,-0.216 0.048,-0.273C0.048,-0.33 0.059,-0.379 0.082,-0.422C0.105,-0.465 0.136,-0.497 0.177,-0.52C0.218,-0.543 0.264,-0.554 0.316,-0.554C0.368,-0.554 0.413,-0.543 0.453,-0.52C0.492,-0.497 0.522,-0.467 0.543,-0.429C0.564,-0.39 0.574,-0.348 0.574,-0.301ZM0.503,-0.303C0.504,-0.344 0.496,-0.378 0.479,-0.407C0.462,-0.436 0.438,-0.457 0.409,-0.472C0.38,-0.487 0.348,-0.494 0.313,-0.494C0.261,-0.494 0.217,-0.477 0.18,-0.444C0.143,-0.411 0.123,-0.364 0.119,-0.303L0.503,-0.303Z" style="fill:white;fill-rule:nonzero;"/>
                            </g>
                        </g>
                        <g transform="matrix(1,0,0,1,1141.99,464.543)">
                            <g transform="matrix(2.21731,0,0,2.21731,0,0)">
                                <path d="M0.033,-0.352C0.033,-0.421 0.048,-0.483 0.078,-0.538C0.108,-0.592 0.15,-0.634 0.204,-0.665C0.257,-0.695 0.318,-0.71 0.386,-0.71C0.469,-0.71 0.541,-0.688 0.6,-0.644C0.659,-0.6 0.699,-0.54 0.719,-0.464L0.531,-0.464C0.517,-0.493 0.497,-0.516 0.472,-0.531C0.446,-0.546 0.417,-0.554 0.384,-0.554C0.331,-0.554 0.289,-0.536 0.256,-0.499C0.223,-0.462 0.207,-0.413 0.207,-0.352C0.207,-0.291 0.223,-0.242 0.256,-0.205C0.289,-0.168 0.331,-0.15 0.384,-0.15C0.417,-0.15 0.446,-0.158 0.472,-0.173C0.497,-0.188 0.517,-0.211 0.531,-0.24L0.719,-0.24C0.699,-0.164 0.659,-0.104 0.6,-0.061C0.541,-0.017 0.469,0.005 0.386,0.005C0.318,0.005 0.257,-0.01 0.204,-0.041C0.15,-0.071 0.108,-0.113 0.078,-0.167C0.048,-0.221 0.033,-0.283 0.033,-0.352Z" style="fill:white;fill-rule:nonzero;"/>
                            </g>
                            <g transform="matrix(2.21731,0,0,2.21731,1.68959,0)">
                                <path d="M0.499,-0.124L0.237,-0.124L0.195,0L0.016,0L0.27,-0.702L0.468,-0.702L0.722,0L0.541,0L0.499,-0.124ZM0.455,-0.256L0.368,-0.513L0.282,-0.256L0.455,-0.256Z" style="fill:white;fill-rule:nonzero;"/>
                            </g>
                            <g transform="matrix(2.21731,0,0,2.21731,3.32375,0)">
                                <path d="M0.42,0L0.274,-0.265L0.233,-0.265L0.233,0L0.062,0L0.062,-0.702L0.349,-0.702C0.404,-0.702 0.452,-0.692 0.491,-0.673C0.53,-0.654 0.559,-0.627 0.578,-0.594C0.597,-0.56 0.607,-0.522 0.607,-0.481C0.607,-0.434 0.594,-0.393 0.568,-0.356C0.541,-0.319 0.502,-0.293 0.451,-0.278L0.613,0L0.42,0ZM0.233,-0.386L0.339,-0.386C0.37,-0.386 0.394,-0.394 0.41,-0.409C0.425,-0.424 0.433,-0.446 0.433,-0.474C0.433,-0.501 0.425,-0.522 0.41,-0.537C0.394,-0.552 0.37,-0.56 0.339,-0.56L0.233,-0.56L0.233,-0.386Z" style="fill:white;fill-rule:nonzero;"/>
                            </g>
                            <g transform="matrix(2.21731,0,0,2.21731,4.76943,0)">
                                <path d="M0.325,-0.702C0.399,-0.702 0.464,-0.687 0.519,-0.658C0.574,-0.629 0.617,-0.588 0.648,-0.535C0.678,-0.482 0.693,-0.42 0.693,-0.351C0.693,-0.282 0.678,-0.221 0.648,-0.168C0.617,-0.115 0.574,-0.073 0.519,-0.044C0.463,-0.015 0.398,0 0.325,0L0.062,0L0.062,-0.702L0.325,-0.702ZM0.314,-0.148C0.379,-0.148 0.429,-0.166 0.465,-0.201C0.501,-0.236 0.519,-0.286 0.519,-0.351C0.519,-0.416 0.501,-0.466 0.465,-0.502C0.429,-0.538 0.379,-0.556 0.314,-0.556L0.233,-0.556L0.233,-0.148L0.314,-0.148Z" style="fill:white;fill-rule:nonzero;"/>
                            </g>
                            <g transform="matrix(2.21731,0,0,2.21731,6.85149,0)">
                                <path d="M0.67,-0.702L0.67,0L0.499,0L0.499,-0.289L0.233,-0.289L0.233,0L0.062,0L0.062,-0.702L0.233,-0.702L0.233,-0.427L0.499,-0.427L0.499,-0.702L0.67,-0.702Z" style="fill:white;fill-rule:nonzero;"/>
                            </g>
                            <g transform="matrix(2.21731,0,0,2.21731,8.47234,0)">
                                <path d="M0.394,0.007C0.328,0.007 0.268,-0.008 0.213,-0.039C0.158,-0.07 0.114,-0.113 0.082,-0.168C0.049,-0.223 0.033,-0.284 0.033,-0.353C0.033,-0.422 0.049,-0.483 0.082,-0.538C0.114,-0.593 0.158,-0.635 0.213,-0.666C0.268,-0.697 0.328,-0.712 0.394,-0.712C0.46,-0.712 0.521,-0.697 0.576,-0.666C0.631,-0.635 0.674,-0.593 0.706,-0.538C0.737,-0.483 0.753,-0.422 0.753,-0.353C0.753,-0.284 0.737,-0.223 0.705,-0.168C0.673,-0.113 0.63,-0.07 0.575,-0.039C0.52,-0.008 0.46,0.007 0.394,0.007ZM0.394,-0.149C0.45,-0.149 0.495,-0.168 0.529,-0.205C0.562,-0.242 0.579,-0.292 0.579,-0.353C0.579,-0.415 0.562,-0.464 0.529,-0.502C0.495,-0.539 0.45,-0.557 0.394,-0.557C0.337,-0.557 0.292,-0.539 0.259,-0.502C0.225,-0.465 0.208,-0.416 0.208,-0.353C0.208,-0.291 0.225,-0.242 0.259,-0.205C0.292,-0.167 0.337,-0.149 0.394,-0.149Z" style="fill:white;fill-rule:nonzero;"/>
                            </g>
                            <g transform="matrix(2.21731,0,0,2.21731,10.2151,0)">
                                <path d="M0.233,-0.132L0.457,-0.132L0.457,0L0.062,0L0.062,-0.702L0.233,-0.702L0.233,-0.132Z" style="fill:white;fill-rule:nonzero;"/>
                            </g>
                            <g transform="matrix(2.21731,0,0,2.21731,11.2728,0)">
                                <path d="M0.325,-0.702C0.399,-0.702 0.464,-0.687 0.519,-0.658C0.574,-0.629 0.617,-0.588 0.648,-0.535C0.678,-0.482 0.693,-0.42 0.693,-0.351C0.693,-0.282 0.678,-0.221 0.648,-0.168C0.617,-0.115 0.574,-0.073 0.519,-0.044C0.463,-0.015 0.398,0 0.325,0L0.062,0L0.062,-0.702L0.325,-0.702ZM0.314,-0.148C0.379,-0.148 0.429,-0.166 0.465,-0.201C0.501,-0.236 0.519,-0.286 0.519,-0.351C0.519,-0.416 0.501,-0.466 0.465,-0.502C0.429,-0.538 0.379,-0.556 0.314,-0.556L0.233,-0.556L0.233,-0.148L0.314,-0.148Z" style="fill:white;fill-rule:nonzero;"/>
                            </g>
                            <g transform="matrix(2.21731,0,0,2.21731,12.8848,0)">
                                <path d="M0.233,-0.565L0.233,-0.423L0.462,-0.423L0.462,-0.291L0.233,-0.291L0.233,-0.137L0.492,-0.137L0.492,0L0.062,0L0.062,-0.702L0.492,-0.702L0.492,-0.565L0.233,-0.565Z" style="fill:white;fill-rule:nonzero;"/>
                            </g>
                            <g transform="matrix(2.21731,0,0,2.21731,14.0844,0)">
                                <path d="M0.42,0L0.274,-0.265L0.233,-0.265L0.233,0L0.062,0L0.062,-0.702L0.349,-0.702C0.404,-0.702 0.452,-0.692 0.491,-0.673C0.53,-0.654 0.559,-0.627 0.578,-0.594C0.597,-0.56 0.607,-0.522 0.607,-0.481C0.607,-0.434 0.594,-0.393 0.568,-0.356C0.541,-0.319 0.502,-0.293 0.451,-0.278L0.613,0L0.42,0ZM0.233,-0.386L0.339,-0.386C0.37,-0.386 0.394,-0.394 0.41,-0.409C0.425,-0.424 0.433,-0.446 0.433,-0.474C0.433,-0.501 0.425,-0.522 0.41,-0.537C0.394,-0.552 0.37,-0.56 0.339,-0.56L0.233,-0.56L0.233,-0.386Z" style="fill:white;fill-rule:nonzero;"/>
                            </g>
                        </g>
                    </g>
                    <g>
                        <path d="M1139.2,489.957C1139.2,486.345 1142.13,483.417 1145.74,483.417L1183.45,483.417C1187.07,483.417 1189.99,486.345 1189.99,489.957L1189.99,511.029C1189.99,514.641 1187.07,517.57 1183.45,517.57L1145.74,517.57C1142.13,517.57 1139.2,514.641 1139.2,511.029L1139.2,489.957Z" style="fill:rgb(221,221,221);fill-opacity:0.39;fill-rule:nonzero;"/>
                        <g>
                            <g>
                                <g>
                                    <path d="M1143.85,495.775C1143.85,492.691 1146.35,490.191 1149.44,490.191L1159.17,490.191C1162.25,490.191 1164.75,492.691 1164.75,495.775L1164.75,506.439C1164.75,509.522 1162.25,512.022 1159.17,512.022L1149.44,512.022C1146.35,512.022 1143.85,509.522 1143.85,506.439L1143.85,495.775Z" style="fill:white;fill-rule:nonzero;stroke:rgb(89,63,146);stroke-width:0.42px;"/>
                                    <path d="M1146.63,494.715C1146.63,493.966 1147.23,493.36 1147.98,493.36L1160.07,493.36C1160.82,493.36 1161.43,493.966 1161.43,494.715L1161.43,495.334C1161.43,496.083 1160.82,496.69 1160.07,496.69L1147.98,496.69C1147.23,496.69 1146.63,496.083 1146.63,495.334L1146.63,494.715Z" style="fill:rgb(89,63,146);fill-rule:nonzero;"/>
                                    <g transform="matrix(1,0,0,1,1151.09,495.482)">
                                        <g transform="matrix(1.2185,0,0,1.2185,0,0)">
                                            <path d="M0.316,0.007C0.265,0.007 0.219,-0.001 0.178,-0.018C0.137,-0.035 0.105,-0.059 0.081,-0.092C0.056,-0.125 0.043,-0.164 0.042,-0.21L0.224,-0.21C0.227,-0.184 0.236,-0.164 0.251,-0.151C0.266,-0.137 0.286,-0.13 0.311,-0.13C0.336,-0.13 0.356,-0.136 0.371,-0.148C0.386,-0.159 0.393,-0.175 0.393,-0.196C0.393,-0.213 0.387,-0.228 0.376,-0.239C0.364,-0.25 0.349,-0.26 0.333,-0.267C0.316,-0.274 0.291,-0.283 0.26,-0.292C0.215,-0.306 0.178,-0.32 0.149,-0.334C0.12,-0.348 0.096,-0.369 0.075,-0.396C0.054,-0.423 0.044,-0.459 0.044,-0.503C0.044,-0.568 0.068,-0.619 0.115,-0.657C0.162,-0.693 0.224,-0.712 0.3,-0.712C0.377,-0.712 0.44,-0.693 0.487,-0.657C0.534,-0.619 0.56,-0.568 0.563,-0.502L0.378,-0.502C0.377,-0.525 0.368,-0.543 0.353,-0.556C0.338,-0.569 0.318,-0.575 0.294,-0.575C0.273,-0.575 0.257,-0.57 0.244,-0.559C0.231,-0.548 0.225,-0.532 0.225,-0.511C0.225,-0.488 0.236,-0.471 0.257,-0.458C0.278,-0.445 0.312,-0.432 0.357,-0.417C0.402,-0.402 0.439,-0.387 0.468,-0.373C0.496,-0.359 0.52,-0.339 0.541,-0.312C0.562,-0.285 0.572,-0.251 0.572,-0.209C0.572,-0.169 0.562,-0.133 0.542,-0.1C0.521,-0.067 0.492,-0.041 0.453,-0.022C0.414,-0.003 0.369,0.007 0.316,0.007Z" style="fill:white;fill-rule:nonzero;"/>
                                        </g>
                                        <g transform="matrix(1.2185,0,0,1.2185,0.749377,0)">
                                            <path d="M0.233,-0.565L0.233,-0.423L0.462,-0.423L0.462,-0.291L0.233,-0.291L0.233,-0.137L0.492,-0.137L0.492,0L0.062,0L0.062,-0.702L0.492,-0.702L0.492,-0.565L0.233,-0.565Z" style="fill:white;fill-rule:nonzero;"/>
                                        </g>
                                        <g transform="matrix(1.2185,0,0,1.2185,1.40859,0)">
                                            <path d="M0.316,0.007C0.265,0.007 0.219,-0.001 0.178,-0.018C0.137,-0.035 0.105,-0.059 0.081,-0.092C0.056,-0.125 0.043,-0.164 0.042,-0.21L0.224,-0.21C0.227,-0.184 0.236,-0.164 0.251,-0.151C0.266,-0.137 0.286,-0.13 0.311,-0.13C0.336,-0.13 0.356,-0.136 0.371,-0.148C0.386,-0.159 0.393,-0.175 0.393,-0.196C0.393,-0.213 0.387,-0.228 0.376,-0.239C0.364,-0.25 0.349,-0.26 0.333,-0.267C0.316,-0.274 0.291,-0.283 0.26,-0.292C0.215,-0.306 0.178,-0.32 0.149,-0.334C0.12,-0.348 0.096,-0.369 0.075,-0.396C0.054,-0.423 0.044,-0.459 0.044,-0.503C0.044,-0.568 0.068,-0.619 0.115,-0.657C0.162,-0.693 0.224,-0.712 0.3,-0.712C0.377,-0.712 0.44,-0.693 0.487,-0.657C0.534,-0.619 0.56,-0.568 0.563,-0.502L0.378,-0.502C0.377,-0.525 0.368,-0.543 0.353,-0.556C0.338,-0.569 0.318,-0.575 0.294,-0.575C0.273,-0.575 0.257,-0.57 0.244,-0.559C0.231,-0.548 0.225,-0.532 0.225,-0.511C0.225,-0.488 0.236,-0.471 0.257,-0.458C0.278,-0.445 0.312,-0.432 0.357,-0.417C0.402,-0.402 0.439,-0.387 0.468,-0.373C0.496,-0.359 0.52,-0.339 0.541,-0.312C0.562,-0.285 0.572,-0.251 0.572,-0.209C0.572,-0.169 0.562,-0.133 0.542,-0.1C0.521,-0.067 0.492,-0.041 0.453,-0.022C0.414,-0.003 0.369,0.007 0.316,0.007Z" style="fill:white;fill-rule:nonzero;"/>
                                        </g>
                                        <g transform="matrix(1.2185,0,0,1.2185,2.15796,0)">
                                            <path d="M0.316,0.007C0.265,0.007 0.219,-0.001 0.178,-0.018C0.137,-0.035 0.105,-0.059 0.081,-0.092C0.056,-0.125 0.043,-0.164 0.042,-0.21L0.224,-0.21C0.227,-0.184 0.236,-0.164 0.251,-0.151C0.266,-0.137 0.286,-0.13 0.311,-0.13C0.336,-0.13 0.356,-0.136 0.371,-0.148C0.386,-0.159 0.393,-0.175 0.393,-0.196C0.393,-0.213 0.387,-0.228 0.376,-0.239C0.364,-0.25 0.349,-0.26 0.333,-0.267C0.316,-0.274 0.291,-0.283 0.26,-0.292C0.215,-0.306 0.178,-0.32 0.149,-0.334C0.12,-0.348 0.096,-0.369 0.075,-0.396C0.054,-0.423 0.044,-0.459 0.044,-0.503C0.044,-0.568 0.068,-0.619 0.115,-0.657C0.162,-0.693 0.224,-0.712 0.3,-0.712C0.377,-0.712 0.44,-0.693 0.487,-0.657C0.534,-0.619 0.56,-0.568 0.563,-0.502L0.378,-0.502C0.377,-0.525 0.368,-0.543 0.353,-0.556C0.338,-0.569 0.318,-0.575 0.294,-0.575C0.273,-0.575 0.257,-0.57 0.244,-0.559C0.231,-0.548 0.225,-0.532 0.225,-0.511C0.225,-0.488 0.236,-0.471 0.257,-0.458C0.278,-0.445 0.312,-0.432 0.357,-0.417C0.402,-0.402 0.439,-0.387 0.468,-0.373C0.496,-0.359 0.52,-0.339 0.541,-0.312C0.562,-0.285 0.572,-0.251 0.572,-0.209C0.572,-0.169 0.562,-0.133 0.542,-0.1C0.521,-0.067 0.492,-0.041 0.453,-0.022C0.414,-0.003 0.369,0.007 0.316,0.007Z" style="fill:white;fill-rule:nonzero;"/>
                                        </g>
                                        <g transform="matrix(1.2185,0,0,1.2185,2.90734,0)">
                                            <rect x="0.062" y="-0.702" width="0.171" height="0.702" style="fill:white;fill-rule:nonzero;"/>
                                        </g>
                                        <g transform="matrix(1.2185,0,0,1.2185,3.2668,0)">
                                            <path d="M0.394,0.007C0.328,0.007 0.268,-0.008 0.213,-0.039C0.158,-0.07 0.114,-0.113 0.082,-0.168C0.049,-0.223 0.033,-0.284 0.033,-0.353C0.033,-0.422 0.049,-0.483 0.082,-0.538C0.114,-0.593 0.158,-0.635 0.213,-0.666C0.268,-0.697 0.328,-0.712 0.394,-0.712C0.46,-0.712 0.521,-0.697 0.576,-0.666C0.631,-0.635 0.674,-0.593 0.706,-0.538C0.737,-0.483 0.753,-0.422 0.753,-0.353C0.753,-0.284 0.737,-0.223 0.705,-0.168C0.673,-0.113 0.63,-0.07 0.575,-0.039C0.52,-0.008 0.46,0.007 0.394,0.007ZM0.394,-0.149C0.45,-0.149 0.495,-0.168 0.529,-0.205C0.562,-0.242 0.579,-0.292 0.579,-0.353C0.579,-0.415 0.562,-0.464 0.529,-0.502C0.495,-0.539 0.45,-0.557 0.394,-0.557C0.337,-0.557 0.292,-0.539 0.259,-0.502C0.225,-0.465 0.208,-0.416 0.208,-0.353C0.208,-0.291 0.225,-0.242 0.259,-0.205C0.292,-0.167 0.337,-0.149 0.394,-0.149Z" style="fill:white;fill-rule:nonzero;"/>
                                        </g>
                                        <g transform="matrix(1.2185,0,0,1.2185,4.22454,0)">
                                            <path d="M0.69,0L0.519,0L0.233,-0.433L0.233,0L0.062,0L0.062,-0.702L0.233,-0.702L0.519,-0.267L0.519,-0.702L0.69,-0.702L0.69,0Z" style="fill:white;fill-rule:nonzero;"/>
                                        </g>
                                        <g transform="matrix(1.2185,0,0,1.2185,5.14085,0)">
                                            <path d="M0.316,0.007C0.265,0.007 0.219,-0.001 0.178,-0.018C0.137,-0.035 0.105,-0.059 0.081,-0.092C0.056,-0.125 0.043,-0.164 0.042,-0.21L0.224,-0.21C0.227,-0.184 0.236,-0.164 0.251,-0.151C0.266,-0.137 0.286,-0.13 0.311,-0.13C0.336,-0.13 0.356,-0.136 0.371,-0.148C0.386,-0.159 0.393,-0.175 0.393,-0.196C0.393,-0.213 0.387,-0.228 0.376,-0.239C0.364,-0.25 0.349,-0.26 0.333,-0.267C0.316,-0.274 0.291,-0.283 0.26,-0.292C0.215,-0.306 0.178,-0.32 0.149,-0.334C0.12,-0.348 0.096,-0.369 0.075,-0.396C0.054,-0.423 0.044,-0.459 0.044,-0.503C0.044,-0.568 0.068,-0.619 0.115,-0.657C0.162,-0.693 0.224,-0.712 0.3,-0.712C0.377,-0.712 0.44,-0.693 0.487,-0.657C0.534,-0.619 0.56,-0.568 0.563,-0.502L0.378,-0.502C0.377,-0.525 0.368,-0.543 0.353,-0.556C0.338,-0.569 0.318,-0.575 0.294,-0.575C0.273,-0.575 0.257,-0.57 0.244,-0.559C0.231,-0.548 0.225,-0.532 0.225,-0.511C0.225,-0.488 0.236,-0.471 0.257,-0.458C0.278,-0.445 0.312,-0.432 0.357,-0.417C0.402,-0.402 0.439,-0.387 0.468,-0.373C0.496,-0.359 0.52,-0.339 0.541,-0.312C0.562,-0.285 0.572,-0.251 0.572,-0.209C0.572,-0.169 0.562,-0.133 0.542,-0.1C0.521,-0.067 0.492,-0.041 0.453,-0.022C0.414,-0.003 0.369,0.007 0.316,0.007Z" style="fill:white;fill-rule:nonzero;"/>
                                        </g>
                                    </g>
                                    <path d="M1154.65,499.389C1154.65,499.229 1154.77,499.099 1154.93,499.099L1160.46,499.099C1160.62,499.099 1160.75,499.229 1160.75,499.389L1160.75,499.48C1160.75,499.639 1160.62,499.769 1160.46,499.769L1154.93,499.769C1154.77,499.769 1154.65,499.639 1154.65,499.48L1154.65,499.389Z" style="fill:rgb(221,221,221);fill-rule:nonzero;"/>
                                    <path d="M1147.86,499.389C1147.86,499.229 1147.99,499.099 1148.15,499.099L1153.67,499.099C1153.83,499.099 1153.96,499.229 1153.96,499.389L1153.96,499.48C1153.96,499.639 1153.83,499.769 1153.67,499.769L1148.15,499.769C1147.99,499.769 1147.86,499.639 1147.86,499.48L1147.86,499.389Z" style="fill:rgb(221,221,221);fill-rule:nonzero;"/>
                                    <path d="M1154.65,501.398C1154.65,501.238 1154.77,501.108 1154.93,501.108L1160.46,501.108C1160.62,501.108 1160.75,501.238 1160.75,501.398L1160.75,501.489C1160.75,501.648 1160.62,501.778 1160.46,501.778L1154.93,501.778C1154.77,501.778 1154.65,501.648 1154.65,501.489L1154.65,501.398Z" style="fill:rgb(221,221,221);fill-rule:nonzero;"/>
                                    <path d="M1147.86,501.398C1147.86,501.238 1147.99,501.108 1148.15,501.108L1153.67,501.108C1153.83,501.108 1153.96,501.238 1153.96,501.398L1153.96,501.489C1153.96,501.648 1153.83,501.778 1153.67,501.778L1148.15,501.778C1147.99,501.778 1147.86,501.648 1147.86,501.489L1147.86,501.398Z" style="fill:rgb(221,221,221);fill-rule:nonzero;"/>
                                    <path d="M1154.65,503.407C1154.65,503.247 1154.77,503.117 1154.93,503.117L1160.46,503.117C1160.62,503.117 1160.75,503.247 1160.75,503.407L1160.75,503.498C1160.75,503.658 1160.62,503.787 1160.46,503.787L1154.93,503.787C1154.77,503.787 1154.65,503.658 1154.65,503.498L1154.65,503.407Z" style="fill:rgb(221,221,221);fill-rule:nonzero;"/>
                                    <path d="M1154.65,505.416C1154.65,505.256 1154.77,505.126 1154.93,505.126L1160.46,505.126C1160.62,505.126 1160.75,505.256 1160.75,505.416L1160.75,505.507C1160.75,505.667 1160.62,505.796 1160.46,505.796L1154.93,505.796C1154.77,505.796 1154.65,505.667 1154.65,505.507L1154.65,505.416Z" style="fill:rgb(221,221,221);fill-rule:nonzero;"/>
                                    <path d="M1147.86,503.407C1147.86,503.247 1147.99,503.117 1148.15,503.117L1153.67,503.117C1153.83,503.117 1153.96,503.247 1153.96,503.407L1153.96,503.498C1153.96,503.658 1153.83,503.787 1153.67,503.787L1148.15,503.787C1147.99,503.787 1147.86,503.658 1147.86,503.498L1147.86,503.407Z" style="fill:rgb(221,221,221);fill-rule:nonzero;"/>
                                    <path d="M1147.86,505.416C1147.86,505.256 1147.99,505.126 1148.15,505.126L1153.67,505.126C1153.83,505.126 1153.96,505.256 1153.96,505.416L1153.96,505.507C1153.96,505.667 1153.83,505.796 1153.67,505.796L1148.15,505.796C1147.99,505.796 1147.86,505.667 1147.86,505.507L1147.86,505.416Z" style="fill:rgb(221,221,221);fill-rule:nonzero;"/>
                                    <g>
                                        <path d="M1151.49,507.565C1151.45,507.614 1151.45,507.686 1151.5,507.727L1151.85,508.021C1151.9,508.062 1151.97,508.056 1152.01,508.008C1152.05,507.959 1152.05,507.887 1152,507.846L1151.65,507.551C1151.6,507.511 1151.53,507.517 1151.49,507.565ZM1149.8,508.008C1149.84,508.056 1149.92,508.062 1149.97,508.021L1150.32,507.727C1150.36,507.686 1150.37,507.614 1150.33,507.565C1150.29,507.517 1150.22,507.511 1150.17,507.551L1149.82,507.846C1149.77,507.887 1149.76,507.959 1149.8,508.008ZM1150.91,507.764C1150.34,507.764 1149.88,508.224 1149.88,508.793C1149.88,509.362 1150.34,509.822 1150.91,509.822C1151.48,509.822 1151.94,509.362 1151.94,508.793C1151.94,508.224 1151.48,507.764 1150.91,507.764ZM1151.21,509.187L1150.86,509.01C1150.82,508.99 1150.79,508.951 1150.79,508.907L1150.79,508.336C1150.79,508.272 1150.85,508.221 1150.91,508.221C1150.97,508.221 1151.02,508.272 1151.02,508.336L1151.02,508.837L1151.32,508.983C1151.37,509.011 1151.39,509.08 1151.37,509.136C1151.34,509.193 1151.27,509.216 1151.21,509.187Z" style="fill:rgb(209,190,249);fill-rule:nonzero;"/>
                                    </g>
                                    <g>
                                        <path d="M1154.88,507.565C1154.84,507.614 1154.85,507.686 1154.9,507.727L1155.25,508.021C1155.29,508.062 1155.37,508.056 1155.41,508.008C1155.45,507.959 1155.44,507.887 1155.39,507.846L1155.04,507.551C1154.99,507.511 1154.92,507.517 1154.88,507.565ZM1153.2,508.008C1153.24,508.056 1153.31,508.062 1153.36,508.021L1153.71,507.727C1153.76,507.686 1153.76,507.614 1153.72,507.565C1153.68,507.517 1153.61,507.511 1153.56,507.551L1153.21,507.846C1153.16,507.887 1153.16,507.959 1153.2,508.008ZM1154.3,507.764C1153.73,507.764 1153.27,508.224 1153.27,508.793C1153.27,509.362 1153.73,509.822 1154.3,509.822C1154.87,509.822 1155.33,509.362 1155.33,508.793C1155.33,508.224 1154.87,507.764 1154.3,507.764ZM1154.61,509.187L1154.25,509.01C1154.21,508.99 1154.19,508.951 1154.19,508.907L1154.19,508.336C1154.19,508.272 1154.24,508.221 1154.3,508.221C1154.37,508.221 1154.42,508.272 1154.42,508.336L1154.42,508.837L1154.71,508.983C1154.77,509.011 1154.79,509.08 1154.76,509.136C1154.73,509.193 1154.66,509.216 1154.61,509.187Z" style="fill:rgb(209,190,249);fill-rule:nonzero;"/>
                                    </g>
                                    <g>
                                        <path d="M1158.28,507.565C1158.23,507.614 1158.24,507.686 1158.29,507.727L1158.64,508.021C1158.69,508.062 1158.76,508.056 1158.8,508.008C1158.84,507.959 1158.84,507.887 1158.79,507.846L1158.44,507.551C1158.39,507.511 1158.32,507.517 1158.28,507.565ZM1156.59,508.008C1156.63,508.056 1156.7,508.062 1156.75,508.021L1157.1,507.727C1157.15,507.686 1157.16,507.614 1157.12,507.565C1157.08,507.517 1157,507.511 1156.96,507.551L1156.61,507.846C1156.56,507.887 1156.55,507.959 1156.59,508.008ZM1157.7,507.764C1157.13,507.764 1156.67,508.224 1156.67,508.793C1156.67,509.362 1157.13,509.822 1157.7,509.822C1158.26,509.822 1158.73,509.362 1158.73,508.793C1158.73,508.224 1158.26,507.764 1157.7,507.764ZM1158,509.187L1157.64,509.01C1157.61,508.99 1157.58,508.951 1157.58,508.907L1157.58,508.336C1157.58,508.272 1157.63,508.221 1157.7,508.221C1157.76,508.221 1157.81,508.272 1157.81,508.336L1157.81,508.837L1158.1,508.983C1158.16,509.011 1158.18,509.08 1158.15,509.136C1158.13,509.193 1158.06,509.216 1158,509.187Z" style="fill:rgb(209,190,249);fill-rule:nonzero;"/>
                                    </g>
                                </g>
                                <g>
                                    <path d="M1160.91,491.379C1160.91,490.219 1161.83,489.279 1162.96,489.279C1164.09,489.279 1165,490.219 1165,491.379C1165,492.538 1164.09,493.478 1162.96,493.478C1161.83,493.478 1160.91,492.538 1160.91,491.379Z" style="fill:rgb(89,63,146);fill-rule:nonzero;"/>
                                    <g>
                                        <path d="M1163.3,490.657L1163.01,490.657C1163,490.657 1163,490.658 1162.99,490.662L1162.59,490.907C1162.59,490.913 1162.58,490.923 1162.58,490.934L1162.58,491.173C1162.58,491.184 1162.59,491.195 1162.6,491.2C1162.61,491.206 1162.62,491.205 1162.63,491.199L1163.02,490.957L1163.02,492.069C1163.02,492.086 1163.03,492.1 1163.05,492.1L1163.3,492.1C1163.32,492.1 1163.33,492.086 1163.33,492.069L1163.33,490.688C1163.33,490.671 1163.32,490.657 1163.3,490.657Z" style="fill:white;fill-rule:nonzero;"/>
                                    </g>
                                </g>
                            </g>
                            <g>
                                <path d="M1168.99,499.924C1168.99,499.855 1169.05,499.799 1169.11,499.799L1183.86,499.799C1183.93,499.799 1183.99,499.855 1183.99,499.924C1183.99,499.993 1183.93,500.049 1183.86,500.049L1169.11,500.049C1169.05,500.049 1168.99,499.993 1168.99,499.924Z" style="fill:rgb(70,49,116);fill-rule:nonzero;"/>
                                <g transform="matrix(1,0,0,1,-0.176809,0)">
                                    <path d="M1169.64,504.143C1169.64,503.127 1170.47,502.304 1171.48,502.304L1181.5,502.304C1182.51,502.304 1183.34,503.127 1183.34,504.143L1183.34,507.121C1183.34,508.137 1182.51,508.961 1181.5,508.961L1171.48,508.961C1170.47,508.961 1169.64,508.137 1169.64,507.121L1169.64,504.143Z" style="fill:white;fill-rule:nonzero;"/>
                                    <path d="M1173.54,504.591L1173.51,504.591C1173.47,504.458 1173.41,504.326 1173.33,504.212L1173.54,504.212C1173.7,504.212 1173.83,504.089 1173.83,503.928C1173.83,503.767 1173.7,503.644 1173.54,503.644L1171.37,503.644C1171.21,503.644 1171.08,503.767 1171.08,503.928C1171.08,504.089 1171.21,504.212 1171.37,504.212L1172.29,504.212C1172.56,504.24 1172.78,504.401 1172.89,504.591L1171.37,504.591C1171.21,504.591 1171.08,504.714 1171.08,504.875C1171.08,505.036 1171.21,505.159 1171.37,505.159L1172.91,505.159C1172.81,505.386 1172.58,505.537 1172.31,505.537L1171.37,505.537C1171.24,505.537 1171.14,505.613 1171.1,505.727C1171.06,505.84 1171.1,505.963 1171.2,506.039L1173.09,507.554C1173.15,507.592 1173.2,507.62 1173.27,507.62C1173.35,507.62 1173.44,507.582 1173.49,507.516C1173.58,507.393 1173.56,507.213 1173.44,507.118L1172.18,506.105L1172.31,506.105C1172.9,506.105 1173.38,505.698 1173.51,505.159L1173.54,505.159C1173.7,505.159 1173.83,505.036 1173.83,504.875C1173.83,504.714 1173.7,504.591 1173.54,504.591Z" style="fill:rgb(89,63,146);fill-rule:nonzero;"/>
                                    <path d="M1177.58,504.591L1177.54,504.591C1177.5,504.458 1177.45,504.326 1177.36,504.212L1177.58,504.212C1177.74,504.212 1177.86,504.089 1177.86,503.928C1177.86,503.767 1177.74,503.644 1177.58,503.644L1175.4,503.644C1175.24,503.644 1175.12,503.767 1175.12,503.928C1175.12,504.089 1175.24,504.212 1175.4,504.212L1176.33,504.212C1176.59,504.24 1176.81,504.401 1176.93,504.591L1175.4,504.591C1175.24,504.591 1175.12,504.714 1175.12,504.875C1175.12,505.036 1175.24,505.159 1175.4,505.159L1176.94,505.159C1176.84,505.386 1176.61,505.537 1176.35,505.537L1175.4,505.537C1175.28,505.537 1175.17,505.613 1175.14,505.727C1175.1,505.84 1175.14,505.963 1175.23,506.039L1177.12,507.554C1177.18,507.592 1177.24,507.62 1177.3,507.62C1177.39,507.62 1177.47,507.582 1177.52,507.516C1177.62,507.393 1177.6,507.213 1177.47,507.118L1176.22,506.105L1176.35,506.105C1176.93,506.105 1177.42,505.698 1177.54,505.159L1177.58,505.159C1177.74,505.159 1177.86,505.036 1177.86,504.875C1177.86,504.714 1177.74,504.591 1177.58,504.591Z" style="fill:rgb(89,63,146);fill-rule:nonzero;"/>
                                    <path d="M1181.61,504.591L1181.58,504.591C1181.54,504.458 1181.48,504.326 1181.4,504.212L1181.61,504.212C1181.77,504.212 1181.9,504.089 1181.9,503.928C1181.9,503.767 1181.77,503.644 1181.61,503.644L1179.44,503.644C1179.27,503.644 1179.15,503.767 1179.15,503.928C1179.15,504.089 1179.27,504.212 1179.44,504.212L1180.36,504.212C1180.63,504.24 1180.85,504.401 1180.96,504.591L1179.44,504.591C1179.27,504.591 1179.15,504.714 1179.15,504.875C1179.15,505.036 1179.27,505.159 1179.44,505.159L1180.98,505.159C1180.87,505.386 1180.65,505.537 1180.38,505.537L1179.44,505.537C1179.31,505.537 1179.21,505.613 1179.17,505.727C1179.13,505.84 1179.17,505.963 1179.27,506.039L1181.16,507.554C1181.22,507.592 1181.27,507.62 1181.34,507.62C1181.42,507.62 1181.51,507.582 1181.56,507.516C1181.65,507.393 1181.63,507.213 1181.51,507.118L1180.25,506.105L1180.38,506.105C1180.97,506.105 1181.45,505.698 1181.58,505.159L1181.61,505.159C1181.77,505.159 1181.9,505.036 1181.9,504.875C1181.9,504.714 1181.77,504.591 1181.61,504.591Z" style="fill:rgb(89,63,146);fill-rule:nonzero;"/>
                                </g>
                                <g transform="matrix(1,0,0,1,1170.58,497.253)">
                                    <g transform="matrix(3.59926,0,0,3.59926,0,0)">
                                        <path d="M0.567,-0.702L0.567,-0.565L0.381,-0.565L0.381,0L0.21,0L0.21,-0.565L0.024,-0.565L0.024,-0.702L0.567,-0.702Z" style="fill:rgb(89,63,146);fill-rule:nonzero;"/>
                                    </g>
                                    <g transform="matrix(3.59926,0,0,3.59926,2.12716,0)">
                                        <path d="M0.394,0.007C0.328,0.007 0.268,-0.008 0.213,-0.039C0.158,-0.07 0.114,-0.113 0.082,-0.168C0.049,-0.223 0.033,-0.284 0.033,-0.353C0.033,-0.422 0.049,-0.483 0.082,-0.538C0.114,-0.593 0.158,-0.635 0.213,-0.666C0.268,-0.697 0.328,-0.712 0.394,-0.712C0.46,-0.712 0.521,-0.697 0.576,-0.666C0.631,-0.635 0.674,-0.593 0.706,-0.538C0.737,-0.483 0.753,-0.422 0.753,-0.353C0.753,-0.284 0.737,-0.223 0.705,-0.168C0.673,-0.113 0.63,-0.07 0.575,-0.039C0.52,-0.008 0.46,0.007 0.394,0.007ZM0.394,-0.149C0.45,-0.149 0.495,-0.168 0.529,-0.205C0.562,-0.242 0.579,-0.292 0.579,-0.353C0.579,-0.415 0.562,-0.464 0.529,-0.502C0.495,-0.539 0.45,-0.557 0.394,-0.557C0.337,-0.557 0.292,-0.539 0.259,-0.502C0.225,-0.465 0.208,-0.416 0.208,-0.353C0.208,-0.291 0.225,-0.242 0.259,-0.205C0.292,-0.167 0.337,-0.149 0.394,-0.149Z" style="fill:rgb(89,63,146);fill-rule:nonzero;"/>
                                    </g>
                                    <g transform="matrix(3.59926,0,0,3.59926,4.95618,0)">
                                        <path d="M0.567,-0.702L0.567,-0.565L0.381,-0.565L0.381,0L0.21,0L0.21,-0.565L0.024,-0.565L0.024,-0.702L0.567,-0.702Z" style="fill:rgb(89,63,146);fill-rule:nonzero;"/>
                                    </g>
                                    <g transform="matrix(3.59926,0,0,3.59926,7.08334,0)">
                                        <path d="M0.499,-0.124L0.237,-0.124L0.195,0L0.016,0L0.27,-0.702L0.468,-0.702L0.722,0L0.541,0L0.499,-0.124ZM0.455,-0.256L0.368,-0.513L0.282,-0.256L0.455,-0.256Z" style="fill:rgb(89,63,146);fill-rule:nonzero;"/>
                                    </g>
                                    <g transform="matrix(3.59926,0,0,3.59926,9.736,0)">
                                        <path d="M0.233,-0.132L0.457,-0.132L0.457,0L0.062,0L0.062,-0.702L0.233,-0.702L0.233,-0.132Z" style="fill:rgb(89,63,146);fill-rule:nonzero;"/>
                                    </g>
                                </g>
                            </g>
                        </g>
                    </g>
                    <g>
                        <path d="M1147.82,526.97L1181.38,526.97C1184.32,526.97 1186.7,529.355 1186.7,532.298L1186.7,533.247C1186.7,536.189 1184.32,538.575 1181.38,538.575L1147.82,538.575C1144.88,538.575 1142.49,536.189 1142.49,533.247L1142.49,532.298C1142.49,529.355 1144.88,526.97 1147.82,526.97Z" style="fill:rgb(89,63,146);fill-rule:nonzero;"/>
                        <g transform="matrix(1,0,0,1,1159.77,534.272)">
                            <g transform="matrix(4.62011,0,0,4.62011,0,0)">
                                <path d="M0.597,-0.476C0.597,-0.435 0.588,-0.398 0.569,-0.365C0.55,-0.331 0.522,-0.304 0.483,-0.283C0.444,-0.262 0.396,-0.252 0.339,-0.252L0.233,-0.252L0.233,0L0.062,0L0.062,-0.702L0.339,-0.702C0.395,-0.702 0.442,-0.692 0.481,-0.673C0.52,-0.654 0.549,-0.627 0.568,-0.593C0.587,-0.559 0.597,-0.52 0.597,-0.476ZM0.326,-0.388C0.359,-0.388 0.383,-0.396 0.399,-0.411C0.415,-0.426 0.423,-0.448 0.423,-0.476C0.423,-0.504 0.415,-0.526 0.399,-0.541C0.383,-0.556 0.359,-0.564 0.326,-0.564L0.233,-0.564L0.233,-0.388L0.326,-0.388Z" style="fill:white;fill-rule:nonzero;"/>
                            </g>
                            <g transform="matrix(4.62011,0,0,4.62011,2.88295,0)">
                                <path d="M0.499,-0.124L0.237,-0.124L0.195,0L0.016,0L0.27,-0.702L0.468,-0.702L0.722,0L0.541,0L0.499,-0.124ZM0.455,-0.256L0.368,-0.513L0.282,-0.256L0.455,-0.256Z" style="fill:white;fill-rule:nonzero;"/>
                            </g>
                            <g transform="matrix(4.62011,0,0,4.62011,6.28797,0)">
                                <path d="M0.664,-0.702L0.421,-0.232L0.421,0L0.25,0L0.25,-0.232L0.007,-0.702L0.201,-0.702L0.337,-0.408L0.472,-0.702L0.664,-0.702Z" style="fill:white;fill-rule:nonzero;"/>
                            </g>
                        </g>
                    </g>
                </g>
            </g>
        </g>
    </g>
</svg>
