<svg width="100%" height="100%" viewBox="0.000010251998901367188 0 607.004150390625 127.16375732421875" version="1.1" xmlns="http://www.w3.org/2000/svg" xmlns:xlink="http://www.w3.org/1999/xlink" xml:space="preserve" xmlns:serif="http://www.serif.com/" style="fill-rule:evenodd;clip-rule:evenodd;stroke-linejoin:round;stroke-miterlimit:2;"><g id="Layer"><g><path d="M583.987,13.667l0.13,0.333l0,0.333l0.125,0.167l0.383,0.25l0.125,0.208l1.783,4c1.142,2.625 1.717,6.375 1.717,11.25c0,4.875 -0.575,8.75 -1.717,11.625c-1.187,2.834 -2.587,6.042 -4.2,9.542c-1.566,3.5 -2.412,5.875 -2.541,7.125c-0.084,1.292 0.508,2.167 1.779,2.667c1.275,0.541 1.95,0.875 2.037,1.041l0.188,0.125l0,3.167l-0.188,0.125l-0.129,0.208l-0.125,0.167l-0.383,0.25l-0.125,0.208l-0.954,0c-0.638,0 -1.38,-0.291 -2.225,-0.833l-1.275,-0.75l0.129,1.25l0.191,1.292l1.588,2.833c1.058,1.917 1.654,3.083 1.779,3.5l0.129,0.667l-0.954,0c-0.637,0 -0.912,0.291 -0.825,0.916l0.188,0.959l0,0.333c0,0.208 -0.063,0.375 -0.188,0.458c-0.087,0.125 -0.383,0.042 -0.891,-0.291c-0.55,-0.334 -1.525,-0.5 -2.925,-0.5l-2.034,0l0,1.291l0.633,0.125l0.638,0.167l0.129,0.208l0.188,0.125l0.191,0.125l0.129,0.209l0.634,0.291l0.637,0.334l0.634,0.333l0.637,0.292l8.9,2.541c5.933,1.709 10.129,3.459 12.588,5.292c2.416,1.792 4.05,3.625 4.895,5.542c0.85,1.875 1.338,4.666 1.463,8.25l0.129,5.416l-3.054,13.042c-1.992,8.667 -3.092,1.75 -3.304,5.333c-0.213,3.584 -0.384,-3.416 -0.508,0l-89.267,0c-0.125,-0.458 -0.4,3.167 -0.825,0c-0.425,-3.166 -0.846,6.5 -1.271,-0.916c-0.425,-7.417 -0.954,-13.667 -1.592,-18.75c-0.633,-5.084 -0.954,-9.834 -0.954,-14.292c0,-4.458 0.575,-7.583 1.717,-9.333c1.187,-1.834 3.479,-3.584 6.867,-5.292c3.391,-1.708 7.524,-2.667 12.399,-2.875l7.313,-0.292l1.904,0l-0.125,-0.208l-0.383,-0.25l-0.125,-0.208l-0.638,-0.292l-0.633,-0.333l-0.954,-0.334c-0.638,-0.208 -1.167,-0.375 -1.592,-0.5c-0.421,-0.083 -0.633,-0.333 -0.633,-0.75c0,-0.416 -0.213,-0.625 -0.638,-0.625c-0.425,0 -0.633,-0.208 -0.633,-0.666c0,-0.417 -0.321,-0.625 -0.954,-0.625l-0.954,0l0.125,-0.959l0.191,-0.958l2.355,-1.75c1.608,-1.167 2.458,-1.792 2.541,-1.917l0.384,-0.25l0.124,-0.208l0.13,-0.167l0.187,-0.125l0.192,-0.125l0.129,-0.208l0.125,-0.208l0.192,-0.125l0.316,-0.625l0.321,-0.625l0.188,-0.125l0.129,-0.209l-1.592,0c-1.058,0 -1.904,0.209 -2.542,0.625l-0.954,0.667l-1.271,0l-0.129,-0.208l-0.187,-0.125l-0.321,-0.625l-0.317,-0.625l0,-1.292l0.192,-0.125l0.125,-0.208l0.637,-0.292l0.638,-0.333l0.125,-0.167l0.192,-0.125l0.191,-0.167l0.125,-0.166l1.271,-0.334c0.85,-0.208 1.483,-0.375 1.908,-0.5c0.425,-0.083 0.596,-1.083 0.509,-3c-0.125,-1.875 0.508,-2.833 1.908,-2.833c1.354,0 2.075,-0.542 2.163,-1.583c0.125,-1.084 -0.021,-4.042 -0.446,-8.917c-0.425,-4.875 0.487,-9.875 2.733,-14.958l3.308,-7.625l0.317,0l0.633,-1.917l2.992,-3.917c2.033,-2.666 4.533,-4.416 7.5,-5.291c2.967,-0.834 6.571,-1.167 10.808,-0.959c4.238,0.209 7.63,0.959 10.175,2.25c2.542,1.25 4.409,2.584 5.592,4c1.146,1.334 1.784,2.125 1.908,2.334Z" style="fill:#c0a3ff;"/><path d="M455.692,30.333l0,0.792l0.262,0l-0.425,4c-0.246,2.667 -0.55,4.167 -0.904,4.5c-0.354,0.375 -0.475,1.042 -0.371,2.042c0.071,0.958 -0.512,2.083 -1.754,3.416c-1.238,1.334 -2.246,2.084 -3.025,2.25c-0.817,0.209 -0.958,1.417 -0.425,3.75c0.529,2.292 1.204,3.834 2.017,4.625c0.779,0.792 3.383,2.375 7.812,4.667c4.425,2.292 9.296,4.25 14.609,5.833c5.316,1.584 8.82,3.209 10.52,4.875c1.667,1.709 2.942,3.459 3.829,5.209c0.884,1.791 1.592,4.25 2.125,7.458c0.53,3.167 1.063,8.125 1.592,14.875c0.534,6.708 1.063,11 1.596,12.75c0.529,1.792 0.975,4.333 1.329,7.708c0.354,3.375 0.617,5.292 0.796,5.834l0.267,0.291l1.858,0l-8.237,0c-5.488,0 -9.084,2.667 -10.784,0l-2.5,-0.541l-0.158,-0.125l-0.104,-0.167l-0.109,-0.125l-0.158,-0.125l-0.158,-0.083l-0.109,-0.167l-0.795,-0.292l-0.8,-0.25l-0.53,-0.166l-0.533,-0.084l-0.104,1.584c-0.108,1.041 -0.283,-1.584 -0.533,0.541c-0.284,2.125 -11.05,0 -32.305,0l-31.987,0l-0.158,-1.625l-0.159,0.125l-0.108,0.167l-0.104,0.167l-0.159,0.083l-0.162,0.125l-0.104,0.125l-0.109,0.167l-0.158,0.125l-0.158,0.083l-0.109,0.167l-0.104,0.166l-0.158,0.125l-1.329,0c-0.18,0.334 -0.567,-1.625 -1.171,0c-0.638,1.584 -3.788,0 -9.459,0l-8.499,0l1.062,0c0.179,-0.5 0.796,1.584 1.858,-0.541c1.063,-2.125 1.896,-5.834 2.5,-11.167l0.955,-7.958l0.266,0l1.063,-13.542c0.708,-9.042 1.683,-14.792 2.92,-17.292c1.242,-2.458 2.8,-4.458 4.68,-5.958c1.841,-1.5 5.95,-3.167 12.325,-4.917c6.375,-1.791 9.829,-2.75 10.362,-2.916l0.796,-0.292l0.533,-0.25l0.529,-0.292l0.109,-0.125l0.158,-0.125l0,-2.666l-0.267,-0.5l-0.266,-0.542l-0.263,-0.792c-0.179,-0.541 -0.354,-1 -0.533,-1.333c-0.175,-0.375 -0.675,-0.667 -1.488,-0.958c-0.779,-0.25 -2.408,-1.334 -4.887,-3.209c-2.479,-1.833 -3.683,-3.083 -3.613,-3.791c0.105,-0.709 -0.32,-1.292 -1.274,-1.709c-0.992,-0.458 -1.63,-0.916 -1.917,-1.375c-0.246,-0.458 -0.246,-1.291 0,-2.5c0.287,-1.25 0.25,-1.875 -0.104,-1.875c-0.355,0 -0.355,-0.5 0,-1.5c0.354,-0.958 0.675,-2 0.958,-3.166c0.246,-1.125 0.142,-2.084 -0.321,-2.792l-0.637,-1.042l0.104,-2.916c0.108,-1.959 0.871,-4 2.287,-6.125c1.417,-2.125 2.179,-3.459 2.284,-3.959c0.07,-0.541 0.425,-0.916 1.062,-1.083c0.604,-0.167 0.959,-0.458 1.063,-0.792c0.07,-0.375 0.604,-0.708 1.596,-1.083c0.954,-0.333 2.016,-0.667 3.187,-0.958c1.133,-0.25 2.408,-0.584 3.825,-1.042c1.417,-0.417 2.125,-0.458 2.125,-0.125c0,0.375 0.496,0.375 1.488,0c0.958,-0.333 1.737,-0.917 2.337,-1.667c0.638,-0.833 1.487,-1.291 2.55,-1.416c1.063,-0.042 1.737,0.25 2.021,0.958c0.25,0.708 0.85,0.792 1.808,0.292c0.992,-0.542 1.575,-0.459 1.75,0.25c0.179,0.708 0.621,1 1.329,0.791c0.709,-0.166 1.154,-0.041 1.329,0.375c0.18,0.459 0.48,0.834 0.905,1.084c0.458,0.25 0.637,0.75 0.529,1.458c-0.071,0.708 0.425,1 1.487,0.833c1.063,-0.208 1.454,0.334 1.171,1.584c-0.25,1.25 -0.071,2.208 0.529,2.916c0.638,0.709 1.346,0.959 2.129,0.792c0.813,-0.167 1.167,0.167 1.063,1.083c-0.071,0.875 0.333,1.292 1.221,1.292c0.883,0 1.187,0.458 0.904,1.333c-0.25,0.917 0.104,1.417 1.062,1.625c0.992,0.167 1.575,0.834 1.755,1.959c0.175,1.166 0.229,1.791 0.158,1.916c-0.108,0.042 -0.158,0.375 -0.158,0.875Z" style="fill:#c0a3ff;"/><path d="M224.329,0.458l0.108,-0.166l0.53,-0.167l0.533,-0.125l-0.108,0.542l-0.159,0.583l-0.158,0.083l-0.108,0.209l-0.105,0.166l-0.32,0.209c-0.071,0.125 -0.246,0.583 -0.53,1.458l-0.374,1.208l0.162,-0.125l0.104,-0.166l0.533,-0.25l0.53,-0.292l7.441,0.292c4.959,0.166 8.288,0.875 9.988,2.125c1.662,1.166 3.204,3.083 4.621,5.666c1.416,2.584 2.125,5.459 2.125,8.625c0,3.167 -0.121,5.084 -0.371,5.75c-0.284,0.625 -0.284,2.5 0,5.584c0.25,3.041 -0.034,5.458 -0.85,7.25c-0.779,1.708 -1.488,2.75 -2.125,3c-0.6,0.291 -1.167,1.458 -1.7,3.5c-0.534,2.041 -0.709,4.291 -0.534,6.708c0.18,2.375 3.988,6 11.425,10.833c7.438,4.834 12.4,8.542 14.88,11.167c2.479,2.583 4.25,5 5.312,7.25c1.063,2.208 1.771,4.917 2.125,8.083c0.354,3.125 0.442,5.75 0.267,7.792c-0.179,2.042 -0.321,3.333 -0.425,3.875l-0.109,0.875l-0.425,3.042c-0.245,2.041 -0.283,5.875 -0.104,11.416c0.175,5.584 0.442,7.292 0.796,8.75l1.329,0l-8.237,0c-5.488,0.084 -8.325,0.75 -8.5,0c-0.179,-0.75 -0.442,0 -0.796,0c-0.354,0 -0.533,-0.75 -0.533,0c0,0.75 -9.917,0 -29.755,0c-19.837,0 -29.754,1.667 -29.754,0l-1.596,0c-0.175,0.75 -0.316,-0.375 -0.425,0c-0.07,0.375 -2.937,0.084 -8.608,0l-8.5,0l1.596,0c0.529,-2.25 0.85,-6.5 0.954,-14.291l0.108,-11.709l-0.108,-1.958c-0.104,-1.292 -0.158,-3.917 -0.158,-7.792c0,-3.916 0.266,-6.875 0.796,-8.916c0.533,-2.042 1.595,-4.084 3.187,-6.125c1.596,-2.084 4.108,-4.042 7.546,-6c3.471,-1.959 7.508,-4.125 12.117,-6.542c4.604,-2.417 7.704,-3.875 9.295,-4.375c1.596,-0.417 2.359,-1.417 2.288,-2.875c-0.108,-1.5 -0.642,-3.833 -1.596,-6.958c-0.992,-3.167 -1.879,-5.042 -2.658,-5.584c-0.813,-0.583 -1.75,-3.333 -2.817,-8.375c-1.062,-5 -1.679,-8.333 -1.858,-10.041c-0.175,-1.667 -0.088,-3.584 0.266,-5.834c0.355,-2.208 1.188,-4.416 2.496,-6.583c1.346,-2.125 2.996,-3.458 4.942,-4c1.95,-0.542 3.242,-1.542 3.879,-2.917l0.904,-2.083l0.267,-0.583l0.262,-0.542l0.163,-0.125l0.104,-0.167l0.108,-0.166l0.159,-0.125l0.158,-0.084Z" style="fill:#c0a3ff;"/><path d="M352.604,36.25l0.267,0.792l0.162,0.291l0.104,0.25l0,0.25l0.109,0.167l0.158,0.125l5.154,7.833c3.471,5.209 5.346,7.959 5.63,8.209c0.249,0.291 0.425,0.458 0.533,0.541l0.104,0.125l0.108,0.167l0.159,0.125l0.158,0.083l0.108,0.167l0.105,0.167l0.162,0.125l0.267,0.5l0.262,0.541l0.267,0.542c0.179,0.333 0.567,1.25 1.171,2.667c0.637,1.416 0.779,2.083 0.425,2c-0.355,-0.125 -0.85,-0.917 -1.488,-2.459l-0.904,-2.208l-0.162,-0.125l-0.105,-0.167l-0.108,-0.125l-0.317,-0.25c-0.07,-0.083 -0.25,-0.375 -0.533,-0.833l-0.371,-0.625l-0.158,-0.125l-0.108,-0.167l-0.53,-0.125l-0.533,-0.125l0.108,1.875l0.159,1.834l0.158,0.125l0.108,0.166l0.105,0.125l0.162,0.125l0.158,0.125l0.105,0.125l0.533,0.917c0.354,0.625 1.204,1.5 2.55,2.542c1.312,1.083 2.141,2.333 2.496,3.75c0.354,1.416 0.533,3.25 0.533,5.541l0,3.459l-0.267,-2.917c-0.175,-1.958 -0.441,-3.542 -0.796,-4.792l-0.533,-1.833l-0.262,-0.542l-0.267,-0.541l-0.158,-0.084l-0.109,-0.166l-0.104,-0.167l-0.162,-0.083l-0.159,-0.125l-0.104,-0.167l-0.108,-0.167l-0.159,-0.083l-0.158,-0.125l-0.108,-0.167l-0.104,-0.125l-0.163,-0.125l-0.158,-0.125l-0.104,-0.125l-0.534,-0.166l-0.533,-0.125l0.108,0.541l0.159,0.542l0.266,0.542l0.267,0.5l0.267,0.541l0.262,0.542l1.225,6.25c0.779,4.167 1.379,6.708 1.804,7.667c0.463,1 0.779,2.708 0.959,5.208c0.175,2.458 0.495,3.917 0.954,4.333c0.425,0.459 1.171,0.792 2.233,0.959c1.063,0.208 1.946,0.208 2.654,0l1.063,-0.25l0.108,-0.167l0.158,-0.083l0.159,-0.125l0.108,-0.167l0.104,-0.167l0.163,-0.083l0.262,-0.542l0.267,-0.541l0,1.625l-0.158,0.083l-0.109,0.167l-0.104,0.166l-0.158,0.084l-0.163,0.541l-0.104,0.542l-0.533,0.083l-0.529,0.167l-0.109,0.167l-0.158,0.125l-0.158,0.083l-0.109,0.167l-1.858,0c-1.238,0 -2.038,-0.042 -2.392,-0.167l-0.529,-0.083l-0.108,1.833l-0.159,1.875l-0.158,1.333l-0.108,1.334l1.862,-0.125l1.859,-0.167l1.062,0l-0.108,0.167l-0.159,0.125l-0.266,0.5l-0.263,0.541l-1.225,0.625c-0.779,0.5 -0.991,0.75 -0.637,0.875c0.354,0.084 0.446,0.417 0.266,1.042c-0.175,0.625 0.088,1 0.796,1.167l1.063,0.291l-0.104,0.167l-0.159,0.083l-0.162,0.125l-0.104,0.167l-2.125,0.667c-1.417,0.416 -2.267,1.458 -2.55,3.041c-0.25,1.584 -0.375,4.875 -0.375,9.834c0,4.958 0.054,4.75 0.162,7.916l0.529,0c0.25,1.959 0.463,-0.541 0.638,0l0.533,0l-80.233,0l0.533,0c0.175,-0.541 0.388,2.459 0.638,0l0.425,0l-0.109,-3.958c-0.104,-7.583 -0.425,-12.667 -0.954,-15.125c-0.533,-2.5 -0.887,-5.125 -1.062,-7.958c-0.18,-2.834 0,-5.167 0.529,-6.917c0.533,-1.792 1.383,-3.5 2.55,-5.208c1.133,-1.667 3.116,-2.917 5.95,-3.709l4.254,-1.166l-0.108,-0.542l-0.159,-0.542l-0.158,-0.083l-0.108,-0.167l-0.105,-0.166l-0.162,-0.125l-0.158,-0.084c-0.071,-0.125 -0.605,-0.75 -1.596,-1.916l-1.434,-1.709l0,-2.125l0.159,-0.791l0.108,-0.792l1.063,0l0.104,0.792l0.162,0.791l0.688,1.5c0.429,0.959 0.675,1.459 0.746,1.584l0.158,0.125l0.163,0.083l0.104,0.167l0.533,0.25l0.529,0.291l2.125,0l-0.104,-0.166l-0.163,-0.125l-0.158,-0.084l-0.104,-0.166l-0.108,-0.167l-0.159,-0.083l-0.158,-0.125l-0.108,-0.167l-0.105,-0.167l-0.162,-0.083l-0.262,-0.542c-0.18,-0.333 -0.355,-0.791 -0.534,-1.333l-0.267,-0.792l-0.158,-1.041l-0.104,-1.084l1.063,0l0.104,0.542l0.158,0.542l0.533,1.291c0.354,0.917 0.584,1.375 0.692,1.459l0.104,0.166l0.108,0.167l0.159,0.083l0.266,-0.541l0.263,-0.5l0.163,0.083l0.104,0.167l0.108,0.166l0.158,0.084l0.159,0.125l0.108,0.166l0.104,0.167l0.158,0.083l0.163,0.125l0.104,0.125l0.108,0.167l0.159,0.125l0,-1.083l-0.267,-0.5l-0.267,-0.542l-0.262,-0.542l-0.267,-0.541l-0.266,-0.792c-0.175,-0.542 -0.354,-1.833 -0.53,-3.958c-0.179,-2.125 0,-4.25 0.53,-6.375c0.533,-2.125 0.921,-4.375 1.171,-6.667l0.424,-3.458l-1.062,0l-0.108,0.791l-0.159,0.834l-0.533,3.166l-0.262,-1.041l-0.267,-1.084l0,-1.041l0.267,-0.834l0.262,-0.791l0.8,-1.334c0.529,-0.875 1.063,-2.458 1.592,-4.75c0.533,-2.333 1.241,-4.708 2.125,-7.208c0.887,-2.458 1.383,-3.875 1.487,-4.25l0.109,-0.5l3.612,-4.792c2.375,-3.208 4.392,-5.291 6.058,-6.291c1.7,-0.959 4.675,-1.584 8.925,-1.959c4.25,-0.333 7.438,0 9.567,1.084c2.125,1.041 4.212,3.041 6.267,6c2.021,2.916 3.296,4.875 3.825,5.958c0.533,1.042 0.887,1.833 1.062,2.375Zm-43.462,14.5c-0.071,-0.083 -0.071,-0.208 0,-0.292c0.108,-0.083 0.162,-0.041 0.162,0.125c0,0.209 -0.054,0.25 -0.162,0.167Z" style="fill:#c0a3ff;"/><path d="M163.617,34.667l0.108,0.166l0.104,0.167l0.163,0.083l0,1.625l-0.163,0.542l-0.104,0.5l-0.638,0.292c-0.462,0.166 -0.637,0.916 -0.533,2.25c0.071,1.333 0.283,2.083 0.638,2.25c0.354,0.166 0.62,0.333 0.8,0.416l0.262,0.125l0.533,0.417c0.355,0.25 0.709,0.417 1.063,0.542l0.529,0.083l-0.104,0.542l-0.158,0.541l-1.225,-0.291c-0.78,-0.167 -1.204,1.083 -1.275,3.75c-0.105,2.625 -0.159,4.583 -0.159,5.833c0,1.25 -0.266,2.208 -0.796,2.917c-0.533,0.708 -0.445,1.25 0.263,1.583c0.712,0.375 0.975,1.708 0.8,4c-0.179,2.292 -0.267,4.5 -0.267,6.625c0,2.125 0.534,3.667 1.596,4.542c1.063,0.875 1.858,2.541 2.388,5.041c0.533,2.459 0.62,5.5 0.266,9.042c-0.354,3.542 -1.062,8.75 -2.125,15.667c-1.062,6.916 -1.858,12.75 -2.391,17.541c-0.53,4.75 -0.884,3.375 -1.063,3.75c-0.175,0.334 -0.354,-0.5 -0.529,0l-1.171,0c-0.104,0 -0.212,-0.166 -0.317,0l-0.212,0c-0.108,0 -0.213,-0.166 -0.321,0l-57.596,0c-0.108,-0.166 -0.212,0 -0.321,0l-0.212,0c-0.104,-0.166 -0.213,0 -0.317,0l-1.171,0c-0.175,-0.375 -0.883,2.292 -2.125,0c-1.237,-2.291 -1.858,-5.25 -1.858,-13.041c0,-7.792 -0.267,-12.875 -0.796,-15.167c-0.533,-2.292 -0.887,-5.292 -1.062,-9.042c-0.179,-3.708 -0.092,-6.541 0.262,-8.5c0.354,-1.916 0.125,-3.291 -0.691,-4.083c-0.78,-0.792 -0.813,-1.208 -0.105,-1.208c0.709,0 1.242,-0.5 1.596,-1.459c0.354,-0.958 1.063,-1.458 2.125,-1.458c1.063,0 1.592,-0.458 1.592,-1.333c0,-0.875 0.179,-1.334 0.533,-1.334c0.354,0 0.529,-0.291 0.529,-0.791c0,-0.542 0.446,-0.792 1.33,-0.792c0.887,0 1.291,-0.375 1.22,-1.083c-0.104,-0.709 0.071,-1.75 0.534,-3.167c0.425,-1.417 0.104,-2.292 -0.959,-2.583l-1.591,-0.375l-0.109,-0.125l-0.158,-0.125l-0.158,-0.084l-0.109,-0.166l-0.104,-0.167l-0.162,-0.125l-0.159,-0.5l-0.104,-0.542l0.529,0.084l0.534,0.166l0.266,0.292c0.175,0.167 0.617,0.292 1.325,0.417l1.063,0.083l0,-1.583l-1.592,-0.084l-1.596,-0.166l-0.104,-0.167l-0.162,-0.125l-0.159,-0.083l-0.104,-0.167l-0.108,-0.167l-0.158,-0.083l-0.159,-0.125l-0.108,-0.167l1.062,0l1.063,0.167c0.708,0.083 0.921,-0.5 0.637,-1.75c-0.245,-1.25 0.038,-1.875 0.85,-1.875c0.78,0 1.171,-0.708 1.171,-2.125c0,-1.417 -0.266,-2.167 -0.796,-2.208c-0.533,-0.125 -0.833,-0.417 -0.904,-0.875c-0.108,-0.417 0.284,-0.625 1.167,-0.625l1.329,0l0,-1.042l-0.158,-0.125l-0.109,-0.167l-1.062,-0.25c-0.708,-0.166 -1.096,-0.333 -1.167,-0.416l-0.158,-0.125l-0.163,-0.125l-0.104,-0.125l-0.108,-0.167l-0.158,-0.125l-0.159,-0.5l-0.108,-0.542l0,-0.541l0.267,0l0.158,0.125l0.108,0.125l0.105,0.166l0.32,0.209l0.104,0.166l0.534,0.292l0.529,0.25l0.533,0l0.104,-0.167l0.163,-0.083l0,-1.333c0,-0.917 0.05,-1.875 0.158,-2.917c0.071,-1.083 0.371,-1.667 0.904,-1.708c0.53,-0.125 1.009,-0.584 1.434,-1.375c0.462,-0.792 0.512,-1.625 0.158,-2.5c-0.354,-0.917 -0.621,-1.959 -0.796,-3.209l-0.266,-1.875l0.158,-0.083l0.108,-0.167l0.529,0c0.359,0 0.713,0.25 1.067,0.792c0.354,0.542 0.617,0.417 0.796,-0.417c0.175,-0.791 0.442,-1.208 0.796,-1.291c0.354,-0.084 0.921,-0.709 1.7,-1.875c0.816,-1.167 0.816,-1.792 0,-2c-0.779,-0.167 -1.167,-0.417 -1.167,-0.792l0,-0.542l1.592,-0.083c1.062,-0.125 1.629,-0.208 1.7,-0.333c0.108,-0.042 0.037,-0.25 -0.213,-0.542c-0.283,-0.208 -0.6,-0.75 -0.954,-1.583l-0.533,-1.167l0.533,-0.083l0.529,-0.167l1.063,0.167c0.708,0.041 1.154,0.25 1.329,0.5c0.179,0.25 0.442,0.041 0.796,-0.667c0.354,-0.708 1.154,-1.083 2.391,-1.083c1.242,0 2.125,-0.5 2.659,-1.584c0.529,-1.041 1.416,-1.583 2.654,-1.583c1.242,0 2.037,-0.167 2.392,-0.542c0.354,-0.333 1.508,-0.541 3.454,-0.541l5.05,0c1.416,0 3.983,0.208 7.704,0.541c3.717,0.375 5.842,0.875 6.375,1.584c0.529,0.708 1.542,1.5 3.029,2.291c1.521,0.792 2.513,1.667 2.975,2.667c0.425,0.958 1.079,1.667 1.967,2.125c0.883,0.417 1.683,1.792 2.391,4.083c0.709,2.292 1.238,3.459 1.592,3.459c0.354,0 0.621,0.541 0.796,1.583c0.179,1.083 0.658,1.875 1.437,2.417l1.38,0.875Zm-1.755,1.5l0.534,-1.084l0.158,0.125l0.108,0.167l0.105,0.167l0.158,0.083l0,0.542c0,0.333 -0.229,0.625 -0.688,0.791c-0.425,0.167 -0.604,0.084 -0.533,-0.25l0.158,-0.541Z" style="fill:#c0a3ff;"/><path d="M58.979,9.25l1.329,0l0.425,0.917c0.25,0.625 0.071,1.166 -0.529,1.583c-0.637,0.458 -0.604,0.833 0.104,1.083c0.709,0.292 1.15,0.625 1.329,1.042c0.175,0.458 0.442,0.667 0.796,0.542c0.354,-0.084 0.621,0.208 0.796,0.833c0.179,0.625 0.533,0.958 1.063,1.083c0.533,0.084 0.8,0.292 0.8,0.625l0,0.792l-0.534,0.292l-0.529,0.25l-0.533,0.25l-0.529,0.291l0.795,0.25l0.796,0.292l0.534,0.125c0.354,0.083 0.62,-0.083 0.795,-0.5c0.18,-0.458 0.3,-0.75 0.371,-0.875l0.163,-0.083l0.158,0.083l0.104,0.167l0.109,1.75c0.104,1.125 0.104,1.875 0,2.25l-0.109,0.5l0.8,-0.084c0.529,-0.125 0.971,-0.083 1.325,0.084l0.534,0.291l1.062,0l0.104,-0.166l0.163,-0.125l0.158,-0.084l0.104,-0.166l0.109,-0.167l0.158,-0.083l0,2.125l-0.158,0.083l-0.109,0.167l-0.104,0.166l-0.158,0.125l-0.163,0.084l-0.104,0.166l-1.062,0.25c-0.709,0.209 -1.596,0.459 -2.659,0.792l-1.591,0.542l-0.109,0.166l-0.158,0.125l-0.158,0.084l-0.109,0.166l-0.104,0.167l-0.162,0.083l0,1.084l0.162,0.541l0.104,0.5l0.8,0c0.529,0 0.709,0.459 0.529,1.334c-0.175,0.875 -0.087,1.291 0.267,1.208l1.063,-0.292l0.529,-0.125l0.108,0.542l0.158,0.542l0.159,0.083l0.108,0.167l0.104,0.166l0.163,0.125l0,0.5l-0.534,1.084l-0.158,-0.125l-0.108,-0.167l-0.104,-0.125c-0.109,-0.083 -0.638,-0.167 -1.596,-0.25l-1.488,-0.125l-0.104,0.125l-0.162,0.125l-0.159,0.125l-0.104,0.125l0.529,0.167l0.534,0.125l0.266,0.625c0.175,0.458 0.475,0.75 0.9,0.833c0.463,0.083 0.692,0.667 0.692,1.708l0,1.625l-0.158,0.084l-0.109,0.166l-0.104,0.167l-0.158,0.083l-0.163,-1.041l-0.104,-1.084l-0.533,0.125l-1.063,0.334c-0.354,0.041 -0.566,-0.25 -0.637,-0.959l-0.159,-1.083l-0.158,0.125l-0.108,0.125l-0.104,0.167l-0.163,0.125l-0.158,0.083l-0.104,0.167l-0.109,0.166l-0.158,0.125l-0.158,0.084l-0.109,0.166l-0.104,0.167l-0.162,0.083l-0.159,0.125l-0.104,0.167l-0.108,0.167l-0.159,0.083l-0.158,0.125l-0.108,0.125l0.108,0.167l0.158,0.125l0.796,1.333c0.534,0.875 0.709,1.75 0.534,2.625c-0.18,0.917 -0.446,1.333 -0.8,1.333c-0.355,0 -0.759,-0.083 -1.221,-0.25c-0.425,-0.166 -0.725,0.084 -0.904,0.792c-0.175,0.708 -1.33,1.333 -3.455,1.875c-2.125,0.5 -3.329,2.458 -3.612,5.833c-0.246,3.375 -0.017,5.75 0.692,7.167c0.708,1.417 2.179,2.708 4.408,3.833c2.2,1.167 3.475,1.792 3.829,1.917l0.529,0.083l0,0.125c0,0.125 0.088,0.209 0.267,0.334l0.267,0.083l0.262,0l0.163,0.125l0.104,0.167l0.108,0.125l0.158,0.125l0.159,0.083l0.108,0.167l0.529,0.291l0.534,0.25l1.062,0.25c0.708,0.209 1.946,0.375 3.717,0.542c1.775,0.167 3.546,0.708 5.316,1.583c1.771,0.917 3.221,2.167 4.355,3.834c1.17,1.708 1.841,3.791 2.02,6.291c0.175,2.459 -0.266,5.667 -1.329,9.542c-1.062,3.917 -2.3,9.917 -3.721,18.083c-1.416,8.125 -2.833,13.917 -4.25,17.25c-1.416,3.375 -13.229,-0.041 -35.437,0.125c-22.246,0.167 -33.758,3 -34.538,0c-0.816,-3 -1.224,-7.541 -1.224,-15.541c0,-7.959 -0.176,-14.334 -0.53,-19.125c-0.354,-4.75 -0.533,-9 -0.533,-12.75c0,-3.709 0.587,-6.709 1.754,-9l1.7,-3.459l0.267,-0.125c0.179,-0.083 0.266,-0.208 0.266,-0.333l0,-0.083l0.267,-0.125c0.175,-0.084 0.263,-0.209 0.263,-0.292l0,-0.125l0.266,-0.083c0.179,-0.125 0.267,-0.209 0.267,-0.334l0,-0.125l0.267,-0.083c0.175,-0.125 0.262,-0.208 0.262,-0.333l0,-0.084l1.863,-0.666c1.237,-0.459 3.983,-0.75 8.233,-0.959c4.25,-0.166 6.733,-0.5 7.442,-1.041c0.708,-0.542 2.479,-0.875 5.312,-0.959l4.25,-0.125l0.104,-1.041l0.163,-1.084l0.158,-2.625c0.071,-1.791 -0.337,-2.666 -1.221,-2.666c-0.887,0 -1.329,-0.875 -1.329,-2.542l0,-2.5l-0.108,-0.167l-0.159,-0.125l-0.158,-0.083l-0.108,-0.167l-1.063,0l-0.104,0.167l-0.158,0.083l-0.163,0.125c-0.071,0.084 -0.546,0.167 -1.433,0.167c-0.888,0 -1.858,0.333 -2.921,1.042l-1.596,1.083l-0.529,0l-0.108,-0.167l-0.159,-0.125l0,-1.041l0.267,-0.542l0.263,-0.542l0,-0.5c0,-0.375 -0.05,-1.25 -0.159,-2.666c-0.071,-1.417 0.25,-2.125 0.959,-2.125l1.062,0l0.104,-0.542l0.159,-0.542l0.162,-0.083l0.104,-0.167l-2.391,0c-0.53,0 -0.83,-0.291 -0.9,-0.916c-0.109,-0.625 -0.463,-1.084 -1.067,-1.375c-0.638,-0.25 -0.921,-0.834 -0.85,-1.792c0.108,-1 -0.317,-1.542 -1.275,-1.625l-1.488,-0.125l-0.529,-0.292l-0.533,-0.25l-0.104,-0.166l-0.159,-0.084l-0.162,-0.125l-0.104,-0.166l0.104,-0.167l0.162,-0.083l0.159,-0.125l0.104,-0.167l1.862,-0.125l1.859,-0.125l-0.109,-0.792l-0.158,-0.791l-0.158,-0.542l-0.109,-0.542l-0.795,0c-0.53,0 -0.834,-0.25 -0.904,-0.791c-0.105,-0.542 -0.638,-1 -1.592,-1.417l-1.488,-0.708l-0.108,-0.167l-0.158,-0.083l-0.159,-0.125l-0.108,-0.167l-0.104,-0.125l-0.163,-0.125l-0.262,-0.542l-0.267,-0.5l-0.158,-0.541l-0.109,-0.542l0.534,0.125l0.529,0.125l0.796,0.542c0.533,0.375 0.887,0.458 1.066,0.291c0.175,-0.208 0.442,-0.375 0.796,-0.541l0.529,-0.292l0.109,-0.125l0.158,-0.125l0.533,-1.083l0,-0.5c0,-0.375 -0.054,-0.542 -0.162,-0.542l-0.104,0l0,-0.25l-0.534,-0.292c-0.354,-0.166 -0.708,-0.291 -1.062,-0.416l-0.529,-0.125l0.104,-0.5l0.162,-0.542l0.159,-0.125l0.104,-0.125l2.125,-0.167c1.417,-0.083 2.125,-0.291 2.125,-0.666c0,-0.334 0.708,-0.542 2.129,-0.625l2.125,-0.167l0.529,-0.125l0.534,-0.125l0,-1.083l-0.534,-0.084l-0.529,-0.166l-0.533,0c-0.354,0 -0.671,-0.125 -0.954,-0.375c-0.25,-0.292 -0.675,-0.542 -1.275,-0.834l-0.959,-0.375l-0.108,-0.166l-0.158,-0.125l-0.159,-1.292l-0.108,-1.333l0.533,0.083l0.534,0.167l0.104,0.166l0.158,0.084l0.163,0.125l0.104,0.166l0.533,0.25l0.529,0.292l0.109,0.125l0.158,0.125l1.754,0.417c1.133,0.25 2.408,0.25 3.825,0c1.417,-0.292 2.3,-0.959 2.654,-2c0.354,-1.084 1.204,-1.792 2.554,-2.125c1.309,-0.375 2.905,-0.792 4.78,-1.334c1.841,-0.541 2.854,-1.125 3.029,-1.75c0.179,-0.625 0.654,-0.791 1.433,-0.541c0.817,0.291 1.4,0.166 1.754,-0.375c0.354,-0.542 0.655,-0.334 0.905,0.541c0.283,0.875 0.816,1.334 1.595,1.334c0.813,0 1.346,0.208 1.592,0.625c0.283,0.458 1.312,0.583 3.083,0.416c1.771,-0.166 3.363,-0.083 4.779,0.292c1.417,0.333 2.217,0.5 2.392,0.5Z" style="fill:#c0a3ff;"/></g></g></svg>