<?xml version="1.0" encoding="UTF-8" standalone="no"?><!DOCTYPE svg PUBLIC "-//W3C//DTD SVG 1.1//EN" "http://www.w3.org/Graphics/SVG/1.1/DTD/svg11.dtd"><svg width="100%" height="100%" viewBox="0 0 1002 976" version="1.1" xmlns="http://www.w3.org/2000/svg" xmlns:xlink="http://www.w3.org/1999/xlink" xml:space="preserve" xmlns:serif="http://www.serif.com/" style="fill-rule:evenodd;clip-rule:evenodd;stroke-linejoin:round;stroke-miterlimit:10;"><g id="Layer"><g><path d="M0,603.263c0,-211.755 211.446,-603.263 477.488,-603.263c266.037,0 524.041,391.508 524.041,603.263c0,211.754 -242.971,110.875 -509.012,110.875c-266.042,0 -492.517,100.879 -492.517,-110.875Z" style="fill:#593f92;fill-rule:nonzero;"/><path d="M158.729,286.442l-4.925,0c-1.192,0 -2.15,-0.967 -2.15,-2.15l0,-4.921c0,-1.188 0.971,-2.15 2.15,-2.15l4.925,0c1.184,0.004 2.142,0.967 2.146,2.15l0,4.921c0,0.571 -0.225,1.121 -0.629,1.525c-0.4,0.4 -0.95,0.629 -1.517,0.625Zm-17.071,0l-4.92,0c-1.188,-0.005 -2.146,-0.963 -2.15,-2.15l0,-4.921c0,-1.188 0.97,-2.15 2.15,-2.15l4.92,0c1.188,0.008 2.146,0.967 2.15,2.15l0,4.921c-0.004,1.187 -0.962,2.145 -2.15,2.15Zm-17.075,0l-4.925,0c-1.183,-0.005 -2.141,-0.963 -2.15,-2.15l0,-4.921c0,-1.188 0.971,-2.15 2.15,-2.15l4.925,0c1.184,0.004 2.142,0.967 2.146,2.15l0,4.921c0.004,0.571 -0.225,1.121 -0.625,1.525c-0.404,0.4 -0.95,0.629 -1.521,0.625Zm-17.07,0l-4.921,0c-1.188,-0.005 -2.146,-0.963 -2.15,-2.15l0,-4.921c0,-1.188 0.966,-2.15 2.15,-2.15l4.921,0c1.187,0 2.154,0.962 2.158,2.15l0,4.921c-0.013,1.187 -0.971,2.145 -2.158,2.15Zm-17.067,0l-4.925,0c-1.188,0 -2.159,-0.967 -2.159,-2.15l0,-4.921c0,-1.188 0.971,-2.15 2.159,-2.15l4.925,0c1.183,0.004 2.142,0.967 2.146,2.15l0,4.921c-0.004,1.187 -0.963,2.145 -2.146,2.15Zm50.587,-18.609l-4.925,0c-1.183,-0.008 -2.141,-0.966 -2.145,-2.15l0,-4.933c0,-1.179 0.966,-2.15 2.145,-2.15l4.925,0c1.188,0 2.15,0.963 2.15,2.15l0,4.925c0.004,0.571 -0.225,1.121 -0.625,1.525c-0.404,0.404 -0.954,0.633 -1.525,0.633Zm-17.066,0l-4.925,0c-1.184,-0.008 -2.142,-0.966 -2.146,-2.15l0,-4.933c0,-1.179 0.967,-2.15 2.146,-2.15l4.925,0c1.183,0.004 2.141,0.967 2.15,2.15l0,4.925c0,0.571 -0.225,1.121 -0.629,1.525c-0.405,0.404 -0.95,0.633 -1.521,0.633Zm-17.071,0l-4.921,0c-1.192,0 -2.158,-0.97 -2.158,-2.15l0,-4.933c0.004,-1.187 0.97,-2.15 2.158,-2.15l4.921,0c1.187,0.004 2.146,0.967 2.15,2.15l0,4.925c0,1.188 -0.967,2.158 -2.15,2.158Zm17.687,38.605l-4.925,0c-1.179,0 -2.15,-0.971 -2.15,-2.151l0,-4.92c0,-1.192 0.971,-2.15 2.15,-2.15l4.925,0c1.184,0.004 2.142,0.962 2.146,2.15l0,4.92c0.004,0.571 -0.225,1.117 -0.625,1.521c-0.404,0.405 -0.95,0.63 -1.521,0.63Zm-17.07,0l-4.921,0c-1.184,0 -2.15,-0.971 -2.15,-2.151l0,-4.92c0,-1.192 0.966,-2.15 2.15,-2.15l4.921,0c1.187,0 2.154,0.962 2.158,2.15l0,4.92c-0.013,1.184 -0.975,2.142 -2.158,2.151Z" style="fill:#e1e4e5;"/><path d="M926.196,495.417l4.917,0c1.166,0 2.125,0.971 2.125,2.15l0,4.925c0,1.187 -0.959,2.146 -2.125,2.146l-4.917,0c-1.208,-0.005 -2.167,-0.963 -2.167,-2.146l0,-4.925c0,-0.571 0.209,-1.117 0.625,-1.521c0.417,-0.404 0.959,-0.629 1.542,-0.629Zm17.042,0l4.916,0c1.209,0.008 2.167,0.966 2.167,2.15l0,4.925c0,1.187 -0.958,2.146 -2.167,2.146l-4.916,0c-1.167,-0.005 -2.125,-0.963 -2.125,-2.146l0,-4.925c0,-1.184 0.958,-2.146 2.125,-2.15Zm17.083,0l4.917,0c1.208,0.008 2.166,0.966 2.166,2.15l0,4.925c0,1.187 -0.958,2.146 -2.166,2.146l-4.917,0c-1.167,-0.005 -2.125,-0.963 -2.167,-2.146l0,-4.925c0,-0.571 0.25,-1.117 0.667,-1.521c0.375,-0.404 0.917,-0.629 1.5,-0.629Zm17.083,0l4.917,0c1.167,0.008 2.125,0.966 2.125,2.15l0,4.925c0,1.187 -0.958,2.146 -2.125,2.146l-4.917,0c-1.208,0 -2.166,-0.959 -2.166,-2.146l0,-4.925c0,-1.184 0.958,-2.142 2.166,-2.15Zm17.042,0l4.917,0c1.208,0 2.166,0.971 2.166,2.15l0,4.925c0,1.187 -0.958,2.146 -2.166,2.146l-4.917,0c-1.167,-0.005 -2.125,-0.963 -2.125,-2.146l0,-4.925c0,-1.184 0.958,-2.142 2.125,-2.15Zm-50.583,18.612l4.916,0c1.209,0.004 2.167,0.967 2.167,2.15l0,4.934c0,1.179 -0.958,2.145 -2.167,2.145l-4.916,0c-1.167,0 -2.125,-0.958 -2.125,-2.145l0,-4.925c0,-0.571 0.208,-1.121 0.625,-1.525c0.375,-0.409 0.958,-0.634 1.5,-0.634Zm17.083,0l4.917,0c1.166,0.004 2.125,0.967 2.166,2.15l0,4.934c0,1.179 -1,2.145 -2.166,2.145l-4.917,0c-1.208,-0.004 -2.167,-0.962 -2.167,-2.145l0,-4.925c0,-0.571 0.25,-1.121 0.625,-1.525c0.417,-0.409 0.959,-0.634 1.542,-0.634Zm17.042,0l4.958,0c1.167,0 2.125,0.971 2.125,2.15l0,4.934c0,1.187 -0.958,2.145 -2.125,2.145l-4.958,0c-1.167,-0.004 -2.125,-0.962 -2.125,-2.145l0,-4.925c0,-1.188 0.958,-2.159 2.125,-2.159Zm-17.667,-38.604l4.917,0c1.208,0 2.166,0.967 2.166,2.15l0,4.921c0,1.192 -0.958,2.15 -2.166,2.15l-4.917,0c-1.167,-0.004 -2.125,-0.967 -2.167,-2.15l0,-4.921c0,-0.571 0.25,-1.121 0.667,-1.521c0.375,-0.404 0.917,-0.629 1.5,-0.629Zm17.083,0l4.917,0c1.167,0 2.125,0.967 2.125,2.15l0,4.921c0,1.192 -0.958,2.15 -2.125,2.15l-4.917,0c-1.208,0 -2.166,-0.963 -2.166,-2.15l0,-4.921c0,-1.187 0.958,-2.142 2.166,-2.15Z" style="fill:#e1e4e5;"/><path d="M498.179,338.117l-0.004,3.279c0,0.791 0.646,1.433 1.433,1.433l3.28,0.004c0.791,0 1.433,-0.646 1.433,-1.433l0.004,-3.279c-0.004,-0.788 -0.642,-1.429 -1.433,-1.433l-3.279,-0.005c-0.38,0 -0.746,0.15 -1.013,0.421c-0.271,0.267 -0.421,0.629 -0.421,1.013Zm-0.012,11.371l0,3.279c0,0.791 0.641,1.429 1.429,1.433l3.279,0.004c0.792,0 1.433,-0.646 1.433,-1.429l0.005,-3.283c-0.005,-0.788 -0.642,-1.429 -1.43,-1.434l-3.279,0c-0.791,0 -1.433,0.638 -1.437,1.43Zm-0.009,11.379l-0.004,3.279c0.004,0.792 0.642,1.429 1.429,1.433l3.284,0.004c0.791,0 1.429,-0.645 1.429,-1.429l0.004,-3.283c0,-0.788 -0.642,-1.429 -1.429,-1.433l-3.279,0c-0.379,-0.005 -0.746,0.145 -1.017,0.416c-0.267,0.267 -0.417,0.634 -0.417,1.013Zm-0.012,11.371l-0.004,3.283c0.004,0.787 0.641,1.425 1.433,1.429l3.279,0.004c0.792,0 1.434,-0.641 1.434,-1.429l0,-3.279c0.004,-0.792 -0.638,-1.438 -1.43,-1.442l-3.279,0c-0.787,0.004 -1.429,0.646 -1.433,1.434Zm-0.013,11.375l0,3.279c-0.004,0.791 0.642,1.437 1.43,1.437l3.279,0.004c0.791,0 1.433,-0.641 1.433,-1.437l0.004,-3.279c-0.004,-0.788 -0.641,-1.43 -1.429,-1.434l-3.283,0c-0.788,0 -1.429,0.638 -1.434,1.43Zm12.434,-33.696l0,3.279c0,0.792 0.641,1.429 1.429,1.433l3.287,0.004c0.788,0 1.434,-0.645 1.434,-1.429l0.004,-3.279c0,-0.792 -0.642,-1.433 -1.434,-1.437l-3.279,0c-0.383,-0.005 -0.745,0.145 -1.016,0.416c-0.271,0.267 -0.425,0.634 -0.425,1.013Zm-0.009,11.371l-0.004,3.283c0.004,0.787 0.642,1.429 1.429,1.429l3.288,0.004c0.787,0 1.433,-0.641 1.433,-1.429l0.004,-3.279c-0.004,-0.792 -0.641,-1.429 -1.429,-1.433l-3.283,-0.005c-0.379,-0.004 -0.746,0.146 -1.017,0.417c-0.271,0.267 -0.421,0.633 -0.421,1.013Zm-0.012,11.375l-0.004,3.279c0,0.791 0.646,1.437 1.433,1.441l3.288,0c0.791,0 1.429,-0.645 1.429,-1.437l0.004,-3.279c0,-0.788 -0.642,-1.429 -1.429,-1.434l-3.279,-0.004c-0.796,0 -1.442,0.646 -1.442,1.434Zm-25.708,-11.809l-0.005,3.279c0,0.788 0.642,1.434 1.43,1.434l3.279,0.004c0.796,0 1.433,-0.646 1.433,-1.429l0.004,-3.284c-0.004,-0.787 -0.641,-1.429 -1.429,-1.433l-3.283,-0.004c-0.38,0 -0.742,0.15 -1.013,0.421c-0.266,0.266 -0.416,0.629 -0.416,1.012Zm-0.013,11.371l-0.004,3.279c0,0.788 0.646,1.434 1.429,1.434l3.283,0.004c0.792,0 1.43,-0.642 1.43,-1.429l0.004,-3.28c0,-0.791 -0.638,-1.437 -1.429,-1.441l-3.28,-0.004c-0.791,0.008 -1.429,0.65 -1.433,1.437Z" style="fill:#e1e4e5;"/><path d="M546.604,111.392c0,6.158 5.038,11.15 11.25,11.15c6.217,0 11.254,-4.992 11.254,-11.15c0,-6.159 -5.037,-11.154 -11.254,-11.154c-6.212,0 -11.25,4.995 -11.25,11.154Z" style="fill:#fff;fill-rule:nonzero;"/><path d="M362.967,562.721c0,6.158 5.037,11.154 11.25,11.154c6.216,0 11.254,-4.996 11.254,-11.154c0,-6.158 -5.038,-11.15 -11.254,-11.15c-6.213,0 -11.25,4.992 -11.25,11.15Z" style="fill:#e1e4e5;fill-rule:nonzero;"/><path d="M355.442,367.45c0,5.263 4.304,9.529 9.612,9.529c5.308,0 9.613,-4.266 9.613,-9.529c0,-5.258 -4.305,-9.525 -9.613,-9.525c-5.308,0 -9.612,4.267 -9.612,9.525Z" style="fill:#fff;fill-rule:nonzero;"/><path d="M845.058,582.267c0,6.158 5.038,11.154 11.25,11.154c6.217,0 11.263,-4.996 11.263,-11.154c0,-6.159 -5.046,-11.15 -11.263,-11.15c-6.212,0 -11.25,4.991 -11.25,11.15Z" style="fill:#fff;fill-rule:nonzero;"/><path d="M262.317,84.883c11.125,17.88 38.754,20.813 38.754,20.813c0,0 9.567,-26.067 -1.575,-43.942c-11.129,-17.879 -38.738,-20.812 -38.738,-20.812c0,0 -9.571,26.062 1.559,43.941Z" style="fill:#fff;fill-rule:nonzero;"/><path d="M757.971,281.388c-8.571,-8.838 -24.713,-7.092 -24.713,-7.092c0,0 -2.241,16.071 6.334,24.904c8.57,8.838 24.704,7.096 24.704,7.096c0,0 2.242,-16.071 -6.325,-24.908Z" style="fill:#fff;fill-rule:nonzero;"/><path d="M741.642,160.867c-21.817,10.821 -50.771,-3.092 -50.771,-3.092c0,0 6.437,-31.454 28.262,-42.262c21.817,-10.821 50.759,3.079 50.759,3.079c0,0 -6.438,31.454 -28.25,42.275Z" style="fill:#fff;fill-rule:nonzero;"/><path d="M609.733,518.267c0,9.596 -7.779,17.375 -17.375,17.375c-9.596,0 -17.375,-7.779 -17.375,-17.375c0,-9.596 7.779,-17.375 17.375,-17.375c9.596,0 17.375,7.779 17.375,17.375Z" style="fill:#c0a3ff;fill-rule:nonzero;"/><path d="M546.604,582.267c0,10.796 -8.754,19.546 -19.55,19.546c-10.791,0 -19.546,-8.75 -19.546,-19.546c0,-10.796 8.755,-19.546 19.546,-19.546c10.796,0 19.55,8.75 19.55,19.546Z" style="fill:#c0a3ff;fill-rule:nonzero;"/><path d="M850.846,455.879c0,10.796 -8.75,19.546 -19.546,19.546c-10.796,0 -19.55,-8.75 -19.55,-19.546c0,-10.796 8.754,-19.546 19.55,-19.546c10.796,0 19.546,8.75 19.546,19.546Z" style="fill:#c0a3ff;fill-rule:nonzero;"/><path d="M305.904,220.4c0,-8.996 -7.291,-16.287 -16.287,-16.287c-8.996,0 -16.288,7.291 -16.288,16.287c0,8.996 7.292,16.288 16.288,16.288c8.996,0 16.287,-7.292 16.287,-16.288Z" style="fill:#c0a3ff;fill-rule:nonzero;"/><path d="M194.113,436.333c0,-7.8 -6.321,-14.116 -14.117,-14.116c-7.796,0 -14.117,6.316 -14.117,14.116c0,7.796 6.321,14.117 14.117,14.117c7.796,0 14.117,-6.321 14.117,-14.117Z" style="fill:#fff;fill-rule:nonzero;"/><g><path d="M401.802,874.883c0,-54.275 44.308,-98.27 98.967,-98.27c54.662,0 98.971,43.995 98.971,98.27c0,54.271 0.129,97.909 -98.971,98.267c-98.967,0.358 -98.967,-43.996 -98.967,-98.267Z" style="fill:#fff;fill-rule:nonzero;stroke:#463174;stroke-width:4.92px;"/><path d="M488.306,920.158c0,-5.862 6.234,-4.866 12.463,-4.866c6.233,0 12.466,-0.996 12.466,4.866c0,5.863 -5.579,10.613 -12.466,10.613c-6.884,0 -12.463,-4.75 -12.463,-10.613Z" style="fill:#463174;fill-rule:nonzero;"/><g><g><path d="M450.565,878.538c0,-6.975 5.316,-12.63 11.875,-12.63c6.554,0 11.87,5.655 11.87,12.63c0,6.975 -5.316,12.629 -11.87,12.629c-6.559,0 -11.875,-5.654 -11.875,-12.629Z" style="fill:#463174;fill-rule:nonzero;"/><path d="M456.894,874.883c0,-2.516 2.283,-4.554 5.108,-4.554c2.821,0 5.108,2.038 5.108,4.554c0,2.517 -2.287,4.555 -5.108,4.555c-2.825,0 -5.108,-2.038 -5.108,-4.555Z" style="fill:#fff;fill-rule:nonzero;"/></g><g><path d="M531.781,878.538c0,-6.975 5.313,-12.63 11.871,-12.63c6.558,0 11.871,5.655 11.871,12.63c0,6.975 -5.313,12.629 -11.871,12.629c-6.558,0 -11.871,-5.654 -11.871,-12.629Z" style="fill:#463174;fill-rule:nonzero;"/><path d="M538.827,874.883c0,-2.516 2.288,-4.554 5.108,-4.554c2.825,0 5.113,2.038 5.113,4.554c0,2.517 -2.288,4.555 -5.113,4.555c-2.82,0 -5.108,-2.038 -5.108,-4.555Z" style="fill:#fff;fill-rule:nonzero;"/></g></g></g><g id="package-3"><path d="M375.877,166.863c0,-30.638 27.742,-55.471 61.963,-55.471l125.862,0c34.221,0 61.963,24.833 61.963,55.471l0,135.591c0,30.638 -27.742,55.471 -61.963,55.471l-125.862,0c-34.221,0 -61.963,-24.833 -61.963,-55.471l0,-135.591Z" style="fill:#fff;fill-rule:nonzero;stroke:#463174;stroke-width:4.92px;"/><g id="time"><path d="M455.202,286.821l6.763,0m6.187,8.721l3.138,-3.65" style="fill:#9f89cf;fill-rule:nonzero;stroke:#c0a3ff;stroke-width:8.33px;stroke-linecap:round;"/><path d="M458.585,290.2c-8.391,0 -15.216,6.825 -15.216,15.217c0,8.391 6.825,15.216 15.216,15.216c8.388,0 15.213,-6.825 15.213,-15.216c0,-8.392 -6.825,-15.217 -15.213,-15.217Zm-0.733,18.521c-1.225,-0.258 -2.25,-1.242 -2.546,-2.458c-0.387,-1.596 0.359,-3.046 1.588,-3.759l0,-5.541c0,-0.934 0.758,-1.692 1.691,-1.692c0.934,0 1.688,0.758 1.688,1.692l0,5.541c1.008,0.584 1.692,1.663 1.692,2.913c0,2.104 -1.925,3.762 -4.113,3.304Z" style="fill:#c0a3ff;fill-rule:nonzero;"/></g><g id="time1" serif:id="time"><path d="M497.39,286.821l6.762,0m6.188,8.721l3.137,-3.65" style="fill:#9f89cf;fill-rule:nonzero;stroke:#c0a3ff;stroke-width:8.33px;stroke-linecap:round;"/><path d="M500.773,290.2c-8.392,0 -15.217,6.825 -15.217,15.217c0,8.391 6.825,15.216 15.217,15.216c8.387,0 15.212,-6.825 15.212,-15.216c0,-8.392 -6.825,-15.217 -15.212,-15.217Zm-0.733,18.521c-1.225,-0.258 -2.25,-1.242 -2.546,-2.458c-0.392,-1.596 0.358,-3.046 1.587,-3.759l0,-5.541c0,-0.934 0.759,-1.692 1.692,-1.692c0.933,0 1.687,0.758 1.687,1.692l0,5.541c1.009,0.584 1.692,1.663 1.692,2.913c0,2.104 -1.929,3.762 -4.112,3.304Z" style="fill:#c0a3ff;fill-rule:nonzero;"/></g><g id="time2" serif:id="time"><path d="M539.577,286.821l6.763,0m6.187,8.721l3.138,-3.65" style="fill:#9f89cf;fill-rule:nonzero;stroke:#c0a3ff;stroke-width:8.33px;stroke-linecap:round;"/><path d="M542.956,290.2c-8.387,0 -15.212,6.825 -15.212,15.217c0,8.391 6.825,15.216 15.212,15.216c8.392,0 15.217,-6.825 15.217,-15.216c0,-8.392 -6.825,-15.217 -15.217,-15.217Zm-0.729,18.521c-1.225,-0.258 -2.25,-1.242 -2.546,-2.458c-0.391,-1.596 0.359,-3.046 1.588,-3.759l0,-5.541c0,-0.934 0.754,-1.692 1.687,-1.692c0.934,0 1.692,0.758 1.692,1.692l0,5.541c1.008,0.584 1.692,1.663 1.692,2.913c0,2.104 -1.93,3.762 -4.113,3.304Z" style="fill:#c0a3ff;fill-rule:nonzero;"/></g><g><path d="M471.31,216.646l97.521,0l-97.521,0Z" style="fill:#c0a3ff;fill-rule:nonzero;stroke:#c0a3ff;stroke-width:8.33px;"/><path d="M471.31,234.658l97.521,0l-97.521,0Z" style="fill:#c0a3ff;fill-rule:nonzero;stroke:#c0a3ff;stroke-width:8.33px;"/><path d="M471.31,252.667l97.521,0l-97.521,0Z" style="fill:#c0a3ff;fill-rule:nonzero;stroke:#c0a3ff;stroke-width:8.33px;"/><path d="M432.71,216.646l20.338,0l-20.338,0Z" style="fill:#c0a3ff;fill-rule:nonzero;stroke:#c0a3ff;stroke-width:8.33px;"/><path d="M432.71,234.658l20.338,0l-20.338,0Z" style="fill:#c0a3ff;fill-rule:nonzero;stroke:#c0a3ff;stroke-width:8.33px;"/><path d="M432.71,252.667l20.338,0l-20.338,0Z" style="fill:#c0a3ff;fill-rule:nonzero;stroke:#c0a3ff;stroke-width:8.33px;"/></g><path d="M420.215,168.971c0,-8.146 6.604,-14.75 14.75,-14.75l131.612,0c8.146,0 14.75,6.604 14.75,14.75l0,6.746c0,8.146 -6.604,14.75 -14.75,14.75l-131.612,0c-8.146,0 -14.75,-6.604 -14.75,-14.75l0,-6.746Z" style="fill:#593f92;fill-rule:nonzero;"/><g><text x="452.019px" y="179.87px" style="font-family:'Arial-BoldMT', 'Arial', sans-serif;font-weight:700;font-size:20.145px;fill:#fff;">SESSIONS</text></g></g><g id="package-2"><path d="M574.983,449.8c0,-30.637 27.742,-55.471 61.967,-55.471l125.863,0c34.22,0 61.962,24.834 61.962,55.471l0,135.592c0,30.637 -27.742,55.471 -61.962,55.471l-125.863,0c-34.225,0 -61.967,-24.834 -61.967,-55.471l0,-135.592Z" style="fill:#fff;fill-rule:nonzero;stroke:#463174;stroke-width:4.92px;"/><g id="time3" serif:id="time"><path d="M654.313,569.758l6.762,0m6.183,8.721l3.142,-3.65" style="fill:#9f89cf;fill-rule:nonzero;stroke:#c0a3ff;stroke-width:8.33px;stroke-linecap:round;"/><path d="M657.692,573.138c-8.388,0 -15.213,6.825 -15.213,15.216c0,8.392 6.825,15.217 15.213,15.217c8.391,0 15.216,-6.825 15.216,-15.217c0,-8.391 -6.825,-15.216 -15.216,-15.216Zm-0.729,18.52c-1.23,-0.258 -2.25,-1.241 -2.546,-2.458c-0.392,-1.596 0.358,-3.042 1.587,-3.758l0,-5.542c0,-0.933 0.754,-1.687 1.688,-1.687c0.933,0 1.691,0.754 1.691,1.687l0,5.542c1.005,0.583 1.692,1.662 1.692,2.912c0,2.109 -1.929,3.763 -4.112,3.304Z" style="fill:#c0a3ff;fill-rule:nonzero;"/></g><g id="time4" serif:id="time"><path d="M696.5,569.758l6.763,0m6.183,8.721l3.137,-3.65" style="fill:#9f89cf;fill-rule:nonzero;stroke:#c0a3ff;stroke-width:8.33px;stroke-linecap:round;"/><path d="M699.879,573.138c-8.387,0 -15.217,6.825 -15.217,15.216c0,8.392 6.83,15.217 15.217,15.217c8.392,0 15.217,-6.825 15.217,-15.217c0,-8.391 -6.825,-15.216 -15.217,-15.216Zm-0.729,18.52c-1.229,-0.258 -2.25,-1.241 -2.546,-2.458c-0.391,-1.596 0.354,-3.042 1.584,-3.758l0,-5.542c0,-0.933 0.758,-1.687 1.691,-1.687c0.934,0 1.692,0.754 1.692,1.687l0,5.542c1.004,0.583 1.692,1.662 1.692,2.912c0,2.109 -1.93,3.763 -4.113,3.304Z" style="fill:#c0a3ff;fill-rule:nonzero;"/></g><g id="time5" serif:id="time"><path d="M738.688,569.758l6.762,0m6.183,8.721l3.138,-3.65" style="fill:#9f89cf;fill-rule:nonzero;stroke:#c0a3ff;stroke-width:8.33px;stroke-linecap:round;"/><path d="M742.067,573.138c-8.388,0 -15.217,6.825 -15.217,15.216c0,8.392 6.829,15.217 15.217,15.217c8.387,0 15.216,-6.825 15.216,-15.217c0,-8.391 -6.829,-15.216 -15.216,-15.216Zm-0.734,18.52c-1.225,-0.258 -2.245,-1.241 -2.541,-2.458c-0.392,-1.596 0.354,-3.042 1.583,-3.758l0,-5.542c0,-0.933 0.758,-1.687 1.692,-1.687c0.933,0 1.691,0.754 1.691,1.687l0,5.542c1.005,0.583 1.692,1.662 1.692,2.912c0,2.109 -1.929,3.763 -4.117,3.304Z" style="fill:#c0a3ff;fill-rule:nonzero;"/></g><g><path d="M670.421,499.588l97.521,0l-97.521,0Z" style="fill:#c0a3ff;fill-rule:nonzero;stroke:#c0a3ff;stroke-width:8.33px;"/><path d="M670.421,517.596l97.521,0l-97.521,0Z" style="fill:#c0a3ff;fill-rule:nonzero;stroke:#c0a3ff;stroke-width:8.33px;"/><path d="M670.421,535.608l97.521,0l-97.521,0Z" style="fill:#c0a3ff;fill-rule:nonzero;stroke:#c0a3ff;stroke-width:8.33px;"/><path d="M631.821,499.588l20.333,0l-20.333,0Z" style="fill:#c0a3ff;fill-rule:nonzero;stroke:#c0a3ff;stroke-width:8.33px;"/><path d="M631.821,517.596l20.333,0l-20.333,0Z" style="fill:#c0a3ff;fill-rule:nonzero;stroke:#c0a3ff;stroke-width:8.33px;"/><path d="M631.821,535.608l20.333,0l-20.333,0Z" style="fill:#c0a3ff;fill-rule:nonzero;stroke:#c0a3ff;stroke-width:8.33px;"/></g><path d="M619.325,451.913c0,-8.15 6.6,-14.75 14.75,-14.75l131.612,0c8.146,0 14.75,6.6 14.75,14.75l0,6.741c0,8.146 -6.604,14.75 -14.75,14.75l-131.612,0c-8.15,0 -14.75,-6.604 -14.75,-14.75l0,-6.741Z" style="fill:#593f92;fill-rule:nonzero;"/><g><text x="651.434px" y="462.113px" style="font-family:'Arial-BoldMT', 'Arial', sans-serif;font-weight:700;font-size:20.145px;fill:#fff;">SESSIONS</text></g></g><g id="package-1"><path d="M179.996,449.8c0,-30.637 27.742,-55.471 61.962,-55.471l125.863,0c34.225,0 61.967,24.834 61.967,55.471l0,135.592c0,30.637 -27.742,55.471 -61.967,55.471l-125.863,0c-34.22,0 -61.962,-24.834 -61.962,-55.471l0,-135.592Z" style="fill:#fff;fill-rule:nonzero;stroke:#463174;stroke-width:4.92px;"/><g id="time6" serif:id="time"><path d="M259.321,569.758l6.762,0m6.188,8.721l3.137,-3.65" style="fill:#9f89cf;fill-rule:nonzero;stroke:#c0a3ff;stroke-width:8.33px;stroke-linecap:round;"/><path d="M262.704,573.138c-8.387,0 -15.216,6.825 -15.216,15.216c0,8.392 6.829,15.217 15.216,15.217c8.388,0 15.217,-6.825 15.217,-15.217c0,-8.391 -6.829,-15.216 -15.217,-15.216Zm-0.733,18.52c-1.225,-0.258 -2.246,-1.241 -2.542,-2.458c-0.392,-1.596 0.354,-3.042 1.584,-3.758l0,-5.542c0,-0.933 0.758,-1.687 1.691,-1.687c0.934,0 1.692,0.754 1.692,1.687l0,5.542c1.004,0.583 1.687,1.662 1.687,2.912c0,2.109 -1.925,3.763 -4.112,3.304Z" style="fill:#c0a3ff;fill-rule:nonzero;"/></g><g id="time7" serif:id="time"><path d="M301.508,569.758l6.763,0m6.187,8.721l3.138,-3.65" style="fill:#9f89cf;fill-rule:nonzero;stroke:#c0a3ff;stroke-width:8.33px;stroke-linecap:round;"/><path d="M304.892,573.138c-8.392,0 -15.217,6.825 -15.217,15.216c0,8.392 6.825,15.217 15.217,15.217c8.387,0 15.216,-6.825 15.216,-15.217c0,-8.391 -6.829,-15.216 -15.216,-15.216Zm-0.734,18.52c-1.225,-0.258 -2.25,-1.241 -2.546,-2.458c-0.387,-1.596 0.359,-3.042 1.588,-3.758l0,-5.542c0,-0.933 0.758,-1.687 1.692,-1.687c0.933,0 1.691,0.754 1.691,1.687l0,5.542c1.005,0.583 1.688,1.662 1.688,2.912c0,2.109 -1.925,3.763 -4.113,3.304Z" style="fill:#c0a3ff;fill-rule:nonzero;"/></g><g id="time8" serif:id="time"><path d="M343.696,569.758l6.762,0m6.188,8.721l3.137,-3.65" style="fill:#9f89cf;fill-rule:nonzero;stroke:#c0a3ff;stroke-width:8.33px;stroke-linecap:round;"/><path d="M347.079,573.138c-8.392,0 -15.216,6.825 -15.216,15.216c0,8.392 6.825,15.217 15.216,15.217c8.388,0 15.213,-6.825 15.213,-15.217c0,-8.391 -6.825,-15.216 -15.213,-15.216Zm-0.733,18.52c-1.225,-0.258 -2.25,-1.241 -2.546,-2.458c-0.388,-1.596 0.358,-3.042 1.588,-3.758l0,-5.542c0,-0.933 0.758,-1.687 1.691,-1.687c0.934,0 1.688,0.754 1.688,1.687l0,5.542c1.008,0.583 1.691,1.662 1.691,2.912c0,2.109 -1.925,3.763 -4.112,3.304Z" style="fill:#c0a3ff;fill-rule:nonzero;"/></g><g><path d="M275.429,499.588l97.521,0l-97.521,0Z" style="fill:#c0a3ff;fill-rule:nonzero;stroke:#c0a3ff;stroke-width:8.33px;"/><path d="M275.429,517.596l97.521,0l-97.521,0Z" style="fill:#c0a3ff;fill-rule:nonzero;stroke:#c0a3ff;stroke-width:8.33px;"/><path d="M275.429,535.608l97.521,0l-97.521,0Z" style="fill:#c0a3ff;fill-rule:nonzero;stroke:#c0a3ff;stroke-width:8.33px;"/><path d="M236.829,499.588l20.338,0l-20.338,0Z" style="fill:#c0a3ff;fill-rule:nonzero;stroke:#c0a3ff;stroke-width:8.33px;"/><path d="M236.829,517.596l20.338,0l-20.338,0Z" style="fill:#c0a3ff;fill-rule:nonzero;stroke:#c0a3ff;stroke-width:8.33px;"/><path d="M236.829,535.608l20.338,0l-20.338,0Z" style="fill:#c0a3ff;fill-rule:nonzero;stroke:#c0a3ff;stroke-width:8.33px;"/></g><path d="M224.333,451.913c0,-8.15 6.605,-14.75 14.75,-14.75l131.613,0c8.15,0 14.75,6.6 14.75,14.75l0,6.741c0,8.146 -6.6,14.75 -14.75,14.75l-131.613,0c-8.146,0 -14.75,-6.604 -14.75,-14.75l0,-6.741Z" style="fill:#593f92;fill-rule:nonzero;"/><g><text x="254.898px" y="462.629px" style="font-family:'Arial-BoldMT', 'Arial', sans-serif;font-weight:700;font-size:20.145px;fill:#fff;">SESSIONS</text></g></g></g></g></svg>