<?xml version="1.0" encoding="UTF-8" standalone="no"?><!DOCTYPE svg PUBLIC "-//W3C//DTD SVG 1.1//EN" "http://www.w3.org/Graphics/SVG/1.1/DTD/svg11.dtd"><svg width="100%" height="100%" viewBox="0 0 1042 834" version="1.1" xmlns="http://www.w3.org/2000/svg" xmlns:xlink="http://www.w3.org/1999/xlink" xml:space="preserve" xmlns:serif="http://www.serif.com/" style="fill-rule:evenodd;clip-rule:evenodd;stroke-linejoin:round;stroke-miterlimit:2;"><path d="M257.831,398.998c0,6.778 -1.555,12.972 -4.667,18.583c-3.111,5.611 -7.888,10.139 -14.333,13.583c-6.444,3.445 -14.444,5.167 -24,5.167l-17.667,0l0,42l-28.5,0l0,-117l46.167,0c9.333,0 17.222,1.611 23.667,4.833c6.444,3.223 11.278,7.667 14.5,13.334c3.222,5.666 4.833,12.166 4.833,19.5Zm-45.167,14.666c5.445,0 9.5,-1.277 12.167,-3.833c2.667,-2.555 4,-6.167 4,-10.833c0,-4.667 -1.333,-8.278 -4,-10.834c-2.667,-2.555 -6.722,-3.833 -12.167,-3.833l-15.5,0l0,29.333l15.5,0Z" style="fill:#463174;fill-rule:nonzero;"/><path d="M300.664,361.331l0,70c0,7 1.723,12.389 5.167,16.167c3.445,3.778 8.5,5.666 15.167,5.666c6.666,0 11.778,-1.888 15.333,-5.666c3.556,-3.778 5.333,-9.167 5.333,-16.167l0,-70l28.5,0l0,69.833c0,10.445 -2.222,19.278 -6.666,26.5c-4.445,7.223 -10.417,12.667 -17.917,16.334c-7.5,3.666 -15.861,5.5 -25.083,5.5c-9.222,0 -17.472,-1.806 -24.75,-5.417c-7.278,-3.611 -13.028,-9.055 -17.25,-16.333c-4.222,-7.278 -6.334,-16.139 -6.334,-26.584l0,-69.833l28.5,0Z" style="fill:#463174;fill-rule:nonzero;"/><path d="M494.831,478.331l-28.5,0l-47.667,-72.167l0,72.167l-28.5,0l0,-117l28.5,0l47.667,72.5l0,-72.5l28.5,0l0,117Z" style="fill:#463174;fill-rule:nonzero;"/><path d="M588.831,361.331l0,79.667c0,12.333 -3.472,21.833 -10.417,28.5c-6.944,6.666 -16.305,10 -28.083,10c-12.333,0 -22.222,-3.5 -29.667,-10.5c-7.444,-7 -11.166,-16.945 -11.166,-29.834l28.333,0c0,4.889 1,8.584 3,11.084c2,2.5 4.889,3.75 8.667,3.75c3.444,0 6.111,-1.111 8,-3.334c1.889,-2.222 2.833,-5.444 2.833,-9.666l0,-79.667l28.5,0Z" style="fill:#463174;fill-rule:nonzero;"/><path d="M684.664,457.664l-43.666,0l-7,20.667l-29.834,0l42.334,-117l33,0l42.333,117l-30.167,0l-7,-20.667Zm-7.333,-22l-14.5,-42.833l-14.333,42.833l28.833,0Z" style="fill:#463174;fill-rule:nonzero;"/><path d="M805.498,418.331c6.778,1.445 12.222,4.806 16.333,10.083c4.111,5.278 6.167,11.306 6.167,18.084c0,9.778 -3.417,17.528 -10.25,23.25c-6.834,5.722 -16.361,8.583 -28.584,8.583l-54.5,0l0,-117l52.667,0c11.889,0 21.195,2.722 27.917,8.167c6.722,5.444 10.083,12.833 10.083,22.166c0,6.889 -1.805,12.612 -5.417,17.167c-3.611,4.556 -8.416,7.722 -14.416,9.5Zm-42.334,-9.667l18.667,0c4.667,0 8.25,-1.027 10.75,-3.083c2.5,-2.055 3.75,-5.083 3.75,-9.083c0,-4 -1.25,-7.056 -3.75,-9.167c-2.5,-2.111 -6.083,-3.167 -10.75,-3.167l-18.667,0l0,24.5Zm21,46.667c4.778,0 8.473,-1.083 11.084,-3.25c2.611,-2.167 3.916,-5.305 3.916,-9.417c0,-4.111 -1.361,-7.333 -4.083,-9.666c-2.722,-2.334 -6.472,-3.5 -11.25,-3.5l-20.667,0l0,25.833l21,0Z" style="fill:#463174;fill-rule:nonzero;"/><rect x="844.498" y="361.331" width="28.5" height="117" style="fill:#463174;fill-rule:nonzero;"/></svg>