<?xml version="1.0" encoding="UTF-8" standalone="no"?><!DOCTYPE svg PUBLIC "-//W3C//DTD SVG 1.1//EN" "http://www.w3.org/Graphics/SVG/1.1/DTD/svg11.dtd"><svg width="100%" height="100%" viewBox="0 0 1042 834" version="1.1" xmlns="http://www.w3.org/2000/svg" xmlns:xlink="http://www.w3.org/1999/xlink" xml:space="preserve" xmlns:serif="http://www.serif.com/" style="fill-rule:evenodd;clip-rule:evenodd;stroke-linejoin:round;stroke-miterlimit:2;"><path d="M317.006,402.973c0,5.253 -1.205,10.053 -3.616,14.402c-2.412,4.349 -6.114,7.858 -11.109,10.527c-4.994,2.669 -11.194,4.004 -18.6,4.004l-13.691,0l0,32.55l-22.088,0l0,-90.675l35.779,0c7.234,0 13.347,1.249 18.342,3.746c4.994,2.497 8.74,5.942 11.237,10.333c2.498,4.392 3.746,9.43 3.746,15.113Zm-35.004,11.367c4.219,0 7.363,-0.991 9.429,-2.971c2.067,-1.981 3.1,-4.779 3.1,-8.396c0,-3.617 -1.033,-6.415 -3.1,-8.396c-2.066,-1.981 -5.21,-2.971 -9.429,-2.971l-12.012,0l0,22.734l12.012,0Z" style="fill:#463174;fill-rule:nonzero;"/><path d="M350.202,373.781l0,54.25c0,5.425 1.335,9.602 4.004,12.529c2.67,2.928 6.588,4.392 11.754,4.392c5.167,0 9.128,-1.464 11.884,-4.392c2.755,-2.927 4.133,-7.104 4.133,-12.529l0,-54.25l22.088,0l0,54.121c0,8.094 -1.723,14.94 -5.167,20.538c-3.445,5.597 -8.073,9.816 -13.886,12.658c-5.812,2.842 -12.292,4.262 -19.439,4.262c-7.147,0 -13.541,-1.399 -19.181,-4.198c-5.641,-2.798 -10.097,-7.018 -13.369,-12.658c-3.272,-5.64 -4.908,-12.508 -4.908,-20.602l0,-54.121l22.087,0Z" style="fill:#463174;fill-rule:nonzero;"/><path d="M500.681,464.456l-22.087,0l-36.942,-55.929l0,55.929l-22.087,0l0,-90.675l22.087,0l36.942,56.188l0,-56.188l22.087,0l0,90.675Z" style="fill:#463174;fill-rule:nonzero;"/><path d="M573.531,373.781l0,61.742c0,9.558 -2.691,16.921 -8.073,22.087c-5.382,5.167 -12.637,7.75 -21.764,7.75c-9.559,0 -17.223,-2.712 -22.992,-8.137c-5.769,-5.425 -8.654,-13.132 -8.654,-23.121l21.958,0c0,3.789 0.775,6.652 2.325,8.59c1.55,1.937 3.789,2.906 6.717,2.906c2.669,0 4.736,-0.861 6.2,-2.583c1.464,-1.723 2.196,-4.22 2.196,-7.492l0,-61.742l22.087,0Z" style="fill:#463174;fill-rule:nonzero;"/><path d="M647.802,448.44l-33.842,0l-5.425,16.016l-23.12,0l32.808,-90.675l25.575,0l32.808,90.675l-23.379,0l-5.425,-16.016Zm-5.683,-17.05l-11.238,-33.196l-11.108,33.196l22.346,0Z" style="fill:#463174;fill-rule:nonzero;"/><path d="M741.448,417.956c5.253,1.12 9.472,3.724 12.658,7.815c3.186,4.09 4.779,8.762 4.779,14.014c0,7.578 -2.648,13.584 -7.943,18.019c-5.296,4.435 -12.68,6.652 -22.152,6.652l-42.238,0l0,-90.675l40.817,0c9.214,0 16.425,2.11 21.635,6.329c5.21,4.22 7.815,9.946 7.815,17.18c0,5.338 -1.4,9.773 -4.198,13.304c-2.799,3.53 -6.523,5.984 -11.173,7.362Zm-32.808,-7.491l14.466,0c3.617,0 6.394,-0.797 8.331,-2.39c1.938,-1.593 2.907,-3.94 2.907,-7.04c0,-3.1 -0.969,-5.468 -2.907,-7.104c-1.937,-1.636 -4.714,-2.454 -8.331,-2.454l-14.466,0l0,18.988Zm16.275,36.166c3.702,0 6.566,-0.839 8.589,-2.519c2.024,-1.679 3.036,-4.111 3.036,-7.297c0,-3.187 -1.055,-5.684 -3.165,-7.492c-2.11,-1.808 -5.016,-2.713 -8.719,-2.713l-16.016,0l0,20.021l16.275,0Z" style="fill:#463174;fill-rule:nonzero;"/><rect x="771.673" y="373.781" width="22.087" height="90.675" style="fill:#463174;fill-rule:nonzero;"/></svg>