<?xml version="1.0" encoding="UTF-8" standalone="no"?>
<!DOCTYPE svg PUBLIC "-//W3C//DTD SVG 1.1//EN" "http://www.w3.org/Graphics/SVG/1.1/DTD/svg11.dtd">
<!-- Created with Vectornator (http://vectornator.io/) -->
<svg height="100%" stroke-miterlimit="10" style="fill-rule:nonzero;clip-rule:evenodd;stroke-linecap:round;stroke-linejoin:round;" version="1.1" viewBox="45.0792 100.088 59.1036 22.0618" width="100%" xml:space="preserve" xmlns="http://www.w3.org/2000/svg" xmlns:vectornator="http://vectornator.io" xmlns:xlink="http://www.w3.org/1999/xlink">
<defs/>
<clipPath id="ArtboardFrame">
<rect height="22.0618" width="59.1036" x="45.0792" y="100.088"/>
</clipPath>
<g clip-path="url(#ArtboardFrame)" id="Layer" vectornator:layerName="Layer">
<g opacity="1" vectornator:layerName="Group 7">
<path d="M49.2651 106.959C49.6513 107.626 49.9496 108.306 50.1603 108.999C50.3709 109.693 50.4762 110.364 50.4762 111.013C50.4762 112.049 50.3533 112.953 50.1076 113.725C49.8619 114.497 49.546 115.261 49.1598 116.015C49.5284 116.559 50.033 116.985 50.6736 117.292C51.3143 117.599 52.047 117.753 52.8719 117.753C53.6442 117.753 54.3023 117.648 54.8464 117.437C55.3905 117.226 55.8644 116.946 56.2681 116.595L56.2681 106.959L61.0069 106.959L61.0069 108.591L58.2163 108.591L58.2163 122.15L56.2681 122.15L56.2681 118.622C55.8468 118.867 55.3554 119.065 54.7938 119.214C54.2321 119.363 53.574 119.438 52.8193 119.438C52.0997 119.438 51.4371 119.346 50.8316 119.161C50.2261 118.977 49.6732 118.731 49.173 118.424C48.6728 118.117 48.2384 117.762 47.8698 117.358C47.5013 116.954 47.1941 116.524 46.9484 116.068C47.3696 115.278 47.7382 114.48 48.0541 113.672C48.37 112.865 48.528 111.979 48.528 111.013C48.528 110.575 48.4841 110.149 48.3964 109.736C48.3086 109.324 48.1945 108.942 48.0541 108.591L45.0792 108.591L45.0792 106.959L49.2651 106.959Z" fill="#463174" fill-rule="nonzero" opacity="1" stroke="none"/>
<path d="M54.1356 103.589C54.1356 103.185 54.2146 102.813 54.3725 102.47C54.5305 102.128 54.7455 101.834 55.0176 101.588C55.2896 101.343 55.6055 101.154 55.9653 101.022C56.3251 100.891 56.7156 100.825 57.1369 100.825C57.9969 100.825 58.7209 101.079 59.3088 101.588C59.8968 102.097 60.1908 102.773 60.1908 103.615C60.1908 104.089 60.0898 104.484 59.888 104.8C59.6862 105.116 59.515 105.335 59.3746 105.458L58.1899 104.827C58.2601 104.721 58.3347 104.576 58.4137 104.392C58.4927 104.208 58.5322 103.993 58.5322 103.747C58.5322 103.238 58.3874 102.861 58.0978 102.615C57.8082 102.369 57.4967 102.246 57.1632 102.246C56.8122 102.246 56.4962 102.369 56.2154 102.615C55.9346 102.861 55.7942 103.238 55.7942 103.747C55.7942 103.958 55.8337 104.164 55.9127 104.366C55.9916 104.568 56.0662 104.721 56.1364 104.827L54.9517 105.458C54.8113 105.353 54.6402 105.142 54.4384 104.827C54.2365 104.511 54.1356 104.098 54.1356 103.589Z" fill="#463174" fill-rule="nonzero" opacity="1" stroke="none"/>
<path d="M59.9538 106.959L76.4081 106.959L76.4081 108.591L73.6174 108.591L73.6174 122.15L71.6692 122.15L71.6692 115.278L65.1402 115.278L65.1402 122.15L63.192 122.15L63.192 115.305C62.7357 115.269 62.3452 115.133 62.0205 114.896C61.6958 114.66 61.5334 114.295 61.5334 113.804C61.5334 113.488 61.5993 113.198 61.7309 112.935C61.8625 112.672 62.0336 112.439 62.2443 112.237C62.4549 112.036 62.7006 111.878 62.9814 111.764C63.2622 111.65 63.5518 111.592 63.8502 111.592C64.1837 111.592 64.4469 111.619 64.64 111.671C64.8331 111.724 64.9998 111.794 65.1402 111.882L65.1402 113.593L71.6692 113.593L71.6692 108.591L59.9538 108.591L59.9538 106.959Z" fill="#463174" fill-rule="nonzero" opacity="1" stroke="none"/>
<path d="M79.9622 108.591L79.9622 116.068L78.014 116.068L78.014 108.591L75.355 108.591L75.355 106.959L82.6212 106.959L82.6212 108.591L79.9622 108.591Z" fill="#463174" fill-rule="nonzero" opacity="1" stroke="none"/>
<path d="M92.9676 119.438C92.5639 119.666 92.0857 119.85 91.5328 119.991C90.9799 120.131 90.3086 120.201 89.5188 120.201C88.9572 120.201 88.3736 120.144 87.7681 120.03C87.1626 119.916 86.5746 119.723 86.0042 119.451C85.4338 119.179 84.8941 118.824 84.3851 118.385C83.8761 117.946 83.4285 117.402 83.0424 116.753C83.4285 115.945 83.9507 115.234 84.6089 114.62C85.267 114.006 86.0086 113.541 86.8335 113.225C86.4298 113.049 86.0437 112.808 85.6751 112.501C85.3065 112.194 84.9643 111.838 84.6484 111.435C84.3324 111.031 84.0604 110.588 83.8322 110.105C83.6041 109.622 83.4373 109.118 83.332 108.591L81.0416 108.591L81.0416 106.959L97.7064 106.959L97.7064 108.591L94.9158 108.591L94.9158 122.15L92.9676 122.15L92.9676 119.438ZM89.5715 118.516C90.3613 118.516 91.0282 118.42 91.5723 118.227C92.1164 118.034 92.5815 117.797 92.9676 117.516L92.9676 114.12L89.8874 114.12C88.887 114.12 87.9699 114.361 87.1362 114.844C86.3026 115.327 85.6575 115.936 85.2012 116.674C85.6927 117.235 86.3069 117.683 87.0441 118.016C87.7812 118.35 88.6237 118.516 89.5715 118.516ZM85.3065 108.591C85.4294 109.083 85.6224 109.561 85.8857 110.026C86.149 110.491 86.4649 110.899 86.8335 111.25C87.2021 111.601 87.6057 111.886 88.0445 112.106C88.4833 112.325 88.9572 112.435 89.4662 112.435L92.9676 112.435L92.9676 108.591L85.3065 108.591Z" fill="#463174" fill-rule="nonzero" opacity="1" stroke="none"/>
<path d="M97.1273 101.72C96.8289 101.72 96.5393 101.764 96.2585 101.852C95.9777 101.939 95.7319 102.089 95.5213 102.299C95.3107 102.51 95.144 102.782 95.0211 103.115C94.8983 103.449 94.8368 103.852 94.8368 104.326L94.8368 104.905L92.8886 104.905L92.8886 104.195C92.8886 103.475 93.0027 102.856 93.2309 102.339C93.4591 101.821 93.7706 101.395 94.1655 101.062C94.5604 100.728 95.0079 100.483 95.5082 100.325C96.0084 100.167 96.5393 100.088 97.1009 100.088C97.6977 100.088 98.2593 100.18 98.7858 100.364C99.3124 100.548 99.7687 100.816 100.155 101.167C100.541 101.518 100.844 101.957 101.063 102.483C101.282 103.01 101.392 103.615 101.392 104.3L101.392 106.959L104.183 106.959L104.183 108.591L101.392 108.591L101.392 122.15L99.444 122.15L99.444 108.591L96.6534 108.591L96.6534 106.959L99.444 106.959L99.444 104.274C99.444 103.449 99.2246 102.817 98.7858 102.378C98.3471 101.939 97.7942 101.72 97.1273 101.72Z" fill="#463174" fill-rule="nonzero" opacity="1" stroke="none"/>
</g>
</g>
</svg>
