<?xml version="1.0" encoding="UTF-8" standalone="no"?><!DOCTYPE svg PUBLIC "-//W3C//DTD SVG 1.1//EN" "http://www.w3.org/Graphics/SVG/1.1/DTD/svg11.dtd"><svg width="100%" height="100%" viewBox="0 0 375 343" version="1.1" xmlns="http://www.w3.org/2000/svg" xmlns:xlink="http://www.w3.org/1999/xlink" xml:space="preserve" xmlns:serif="http://www.serif.com/" style="fill-rule:evenodd;clip-rule:evenodd;stroke-linejoin:round;stroke-miterlimit:10;"><g id="Layer"><g><g><path d="M6.907,164.792c-37.874,-125.625 87.906,-146.5 184.819,-146.5c96.908,0 228.616,90.916 167.825,163.208c-45.592,54.208 -83.667,161.833 -180.571,160.75c-99.502,-1.167 -144.946,-87.5 -172.073,-177.458Z" style="fill:#c0a3ff;fill-rule:nonzero;"/><g id="heart"><path d="M187.473,106.042l-4.013,-2.667c-5.537,-3.625 -54.1,-36.583 -54.1,-67.625c0,-19.708 16.3,-35.75 36.338,-35.75c7.9,0 15.537,2.583 21.804,7.292c6.263,-4.709 13.9,-7.292 21.8,-7.292c20.038,0 36.338,16.042 36.338,35.75c0,31.583 -48.596,64.083 -54.134,67.667l-4.033,2.625Z" style="fill:#463174;fill-rule:nonzero;"/></g><g id="blobs"><path id="shadow" d="M73.766,216.094c0,-26.333 50.922,-47.708 113.734,-47.708c62.813,0 113.734,21.375 113.734,47.708c0,26.375 -50.921,47.75 -113.734,47.75c-62.812,0 -113.734,-21.375 -113.734,-47.75Z" style="fill:#7451c2;fill-rule:nonzero;"/><g id="blob-2"><path d="M182.588,165.344c0,-25.291 20.675,-45.833 46.179,-45.833c25.504,0 46.179,20.542 46.179,45.833c0,25.334 0,43.5 -46.179,45.875c-46.125,2.334 -46.179,-20.541 -46.179,-45.875Z" style="fill:#fff;fill-rule:nonzero;stroke:#463174;stroke-width:4.92px;"/><g><g><path d="M205.342,167.053c0,-3.25 2.479,-5.875 5.542,-5.875c3.058,0 5.537,2.625 5.537,5.875c0,3.25 -2.479,5.916 -5.537,5.916c-3.063,0 -5.542,-2.666 -5.542,-5.916Z" style="fill:#463174;fill-rule:nonzero;"/><path d="M206.117,169.178c0,-1.167 1.067,-2.125 2.383,-2.125c1.317,0 2.384,0.958 2.384,2.125c0,1.166 -1.067,2.125 -2.384,2.125c-1.316,0 -2.383,-0.959 -2.383,-2.125Z" style="fill:#fff;fill-rule:nonzero;"/></g><g><path d="M243.238,167.053c0,-3.25 2.479,-5.875 5.537,-5.875c3.059,0 5.542,2.625 5.542,5.875c0,3.25 -2.483,5.916 -5.542,5.916c-3.058,0 -5.537,-2.666 -5.537,-5.916Z" style="fill:#463174;fill-rule:nonzero;"/><path d="M244.009,169.178c0,-1.167 1.066,-2.125 2.383,-2.125c1.317,0 2.383,0.958 2.383,2.125c0,1.166 -1.066,2.125 -2.383,2.125c-1.317,0 -2.383,-0.959 -2.383,-2.125Z" style="fill:#fff;fill-rule:nonzero;"/></g></g><g><g><path d="M224.138,184.928c0,-3 2.079,-1.917 5.758,-1.917c3.679,0 5.875,-1.167 5.875,1.917c0,3.083 -2.541,5.208 -5.754,5.208c-3.212,0 -5.879,-2.167 -5.879,-5.208Z" style="fill:#463174;fill-rule:nonzero;"/></g><path d="M225.142,187.886c-0.704,-1 2.142,-2.542 4.75,-2.667c2.608,-0.083 5.633,1.417 4.946,2.584c-0.792,1.375 -2.846,2.333 -4.817,2.333c-1.971,0 -3.95,-0.875 -4.879,-2.25Z" style="fill:#7451c2;fill-opacity:0.45;fill-rule:nonzero;"/></g></g><g id="blob-1"><path d="M100.884,189.803c0,-25.334 20.675,-45.834 46.179,-45.834c25.504,0 46.179,20.5 46.179,45.834c0,25.333 0,43.5 -46.179,45.833c-46.125,2.375 -46.179,-20.5 -46.179,-45.833Z" style="fill:#fff;fill-rule:nonzero;stroke:#463174;stroke-width:4.92px;"/><g><g><path d="M123.638,191.511c0,-3.25 2.479,-5.875 5.542,-5.875c3.058,0 5.537,2.625 5.537,5.875c0,3.25 -2.479,5.875 -5.537,5.875c-3.063,0 -5.542,-2.625 -5.542,-5.875Z" style="fill:#463174;fill-rule:nonzero;"/><path d="M129.18,191.511c0,-1.167 1.066,-2.125 2.383,-2.125c1.317,0 2.383,0.958 2.383,2.125c0,1.167 -1.066,2.125 -2.383,2.125c-1.317,0 -2.383,-0.958 -2.383,-2.125Z" style="fill:#fff;fill-rule:nonzero;"/></g><g><path d="M161.534,191.511c0,-3.25 2.479,-5.875 5.537,-5.875c3.059,0 5.542,2.625 5.542,5.875c0,3.25 -2.483,5.875 -5.542,5.875c-3.058,0 -5.537,-2.625 -5.537,-5.875Z" style="fill:#463174;fill-rule:nonzero;"/><path d="M167.071,191.511c0,-1.167 1.067,-2.125 2.384,-2.125c1.316,0 2.383,0.958 2.383,2.125c0,1.167 -1.067,2.125 -2.383,2.125c-1.317,0 -2.384,-0.958 -2.384,-2.125Z" style="fill:#fff;fill-rule:nonzero;"/></g></g><g><g><path d="M142.175,205.886c0,-3.042 2.08,-1.917 5.755,-1.917c3.679,0 5.879,-1.166 5.879,1.917c0,3.083 -2.546,5.208 -5.759,5.208c-3.212,0 -5.875,-2.166 -5.875,-5.208Z" style="fill:#463174;fill-rule:nonzero;"/></g><path d="M143.175,208.844c-0.704,-1.041 2.142,-2.541 4.75,-2.666c2.609,-0.084 5.638,1.416 4.946,2.583c-0.791,1.375 -2.841,2.292 -4.812,2.292c-1.971,0 -3.95,-0.875 -4.884,-2.209Z" style="fill:#7451c2;fill-opacity:0.45;fill-rule:nonzero;"/></g></g></g></g></g></g></svg>