<?xml version="1.0" encoding="UTF-8" standalone="no"?><!DOCTYPE svg PUBLIC "-//W3C//DTD SVG 1.1//EN" "http://www.w3.org/Graphics/SVG/1.1/DTD/svg11.dtd"><svg width="100%" height="100%" viewBox="0 0 375 343" version="1.1" xmlns="http://www.w3.org/2000/svg" xmlns:xlink="http://www.w3.org/1999/xlink" xml:space="preserve" xmlns:serif="http://www.serif.com/" style="fill-rule:evenodd;clip-rule:evenodd;stroke-linejoin:round;stroke-miterlimit:10;"><g id="Layer"><g><path d="M6.907,164.792c-34.075,-103.528 87.906,-146.5 184.819,-146.5c96.908,0 206.198,81.204 174.941,169.208c-38.595,108.662 -90.783,155.833 -187.687,154.75c-99.502,-1.167 -144.551,-93.843 -172.073,-177.458Z" style="fill:#c0a3ff;fill-rule:nonzero;"/><g><path d="M176.372,106.042l-4.013,-2.667c-5.537,-3.625 -54.1,-36.583 -54.1,-67.625c0,-19.708 16.3,-35.75 36.338,-35.75c7.9,0 15.537,2.583 21.804,7.292c6.262,-4.709 13.9,-7.292 21.8,-7.292c20.037,0 36.337,16.042 36.337,35.75c0,31.583 -48.596,64.083 -54.133,67.667l-4.033,2.625Z" style="fill:#463174;fill-rule:nonzero;"/></g><g><path d="M73.767,217.25c0,-26.333 50.921,-47.708 113.734,-47.708c62.812,0 113.733,21.375 113.733,47.708c0,26.375 -50.921,47.75 -113.733,47.75c-62.813,0 -113.734,-21.375 -113.734,-47.75Z" style="fill:#7451c2;fill-rule:nonzero;"/><g><path d="M182.588,166.5c0,-25.292 20.675,-45.833 46.18,-45.833c25.504,0 46.179,20.541 46.179,45.833c0,25.333 0,43.5 -46.179,45.875c-46.126,2.333 -46.18,-20.542 -46.18,-45.875Z" style="fill:#fff;fill-rule:nonzero;stroke:#463174;stroke-width:4.92px;"/><path d="M222.951,187.625c0,-2.708 2.908,-2.25 5.817,-2.25c2.908,0 5.816,-0.458 5.816,2.25c0,2.75 -2.604,4.958 -5.816,4.958c-3.213,0 -5.817,-2.208 -5.817,-4.958Z" style="fill:#463174;fill-rule:nonzero;"/><path d="M225.697,190.125c0,-1.375 1.375,-2.5 3.071,-2.5c1.695,0 3.07,1.125 3.07,2.5c0,1.375 -1.375,2.458 -3.07,2.458c-1.696,0 -3.071,-1.083 -3.071,-2.458Z" style="fill:#7451c2;fill-rule:nonzero;"/><g><g><path d="M205.342,168.208c0,-3.25 2.48,-5.875 5.542,-5.875c3.058,0 5.538,2.625 5.538,5.875c0,3.25 -2.48,5.917 -5.538,5.917c-3.062,0 -5.542,-2.667 -5.542,-5.917Z" style="fill:#463174;fill-rule:nonzero;"/><path d="M206.117,170.333c0,-1.166 1.067,-2.125 2.384,-2.125c1.317,0 2.383,0.959 2.383,2.125c0,1.167 -1.066,2.125 -2.383,2.125c-1.317,0 -2.384,-0.958 -2.384,-2.125Z" style="fill:#fff;fill-rule:nonzero;"/></g><g><path d="M243.238,168.208c0,-3.25 2.479,-5.875 5.538,-5.875c3.058,0 5.541,2.625 5.541,5.875c0,3.25 -2.483,5.917 -5.541,5.917c-3.059,0 -5.538,-2.667 -5.538,-5.917Z" style="fill:#463174;fill-rule:nonzero;"/><path d="M244.009,170.333c0,-1.166 1.067,-2.125 2.383,-2.125c1.317,0 2.384,0.959 2.384,2.125c0,1.167 -1.067,2.125 -2.384,2.125c-1.316,0 -2.383,-0.958 -2.383,-2.125Z" style="fill:#fff;fill-rule:nonzero;"/></g></g></g><g><path d="M100.884,190.958c0,-25.333 20.675,-45.833 46.179,-45.833c25.504,0 46.179,20.5 46.179,45.833c0,25.334 0,43.5 -46.179,45.834c-46.125,2.375 -46.179,-20.5 -46.179,-45.834Z" style="fill:#fff;fill-rule:nonzero;stroke:#463174;stroke-width:4.92px;"/><path d="M141.247,212.083c0,-2.75 2.908,-2.25 5.816,-2.25c2.909,0 5.817,-0.5 5.817,2.25c0,2.75 -2.604,4.959 -5.817,4.959c-3.212,0 -5.816,-2.209 -5.816,-4.959Z" style="fill:#463174;fill-rule:nonzero;"/><path d="M143.993,214.542c0,-1.334 1.374,-2.459 3.07,-2.459c1.696,0 3.071,1.125 3.071,2.459c0,1.375 -1.375,2.5 -3.071,2.5c-1.696,0 -3.07,-1.125 -3.07,-2.5Z" style="fill:#7451c2;fill-rule:nonzero;"/><g><g><path d="M123.638,192.667c0,-3.25 2.479,-5.875 5.542,-5.875c3.058,0 5.537,2.625 5.537,5.875c0,3.25 -2.479,5.875 -5.537,5.875c-3.063,0 -5.542,-2.625 -5.542,-5.875Z" style="fill:#463174;fill-rule:nonzero;"/><path d="M129.18,192.667c0,-1.167 1.067,-2.125 2.383,-2.125c1.317,0 2.384,0.958 2.384,2.125c0,1.166 -1.067,2.125 -2.384,2.125c-1.316,0 -2.383,-0.959 -2.383,-2.125Z" style="fill:#fff;fill-rule:nonzero;"/></g><g><path d="M161.534,192.667c0,-3.25 2.479,-5.875 5.538,-5.875c3.058,0 5.541,2.625 5.541,5.875c0,3.25 -2.483,5.875 -5.541,5.875c-3.059,0 -5.538,-2.625 -5.538,-5.875Z" style="fill:#463174;fill-rule:nonzero;"/><path d="M167.072,192.667c0,-1.167 1.066,-2.125 2.383,-2.125c1.317,0 2.383,0.958 2.383,2.125c0,1.166 -1.066,2.125 -2.383,2.125c-1.317,0 -2.383,-0.959 -2.383,-2.125Z" style="fill:#fff;fill-rule:nonzero;"/></g></g></g></g></g></g></svg>