<?xml version="1.0" encoding="UTF-8" standalone="no"?><!DOCTYPE svg PUBLIC "-//W3C//DTD SVG 1.1//EN" "http://www.w3.org/Graphics/SVG/1.1/DTD/svg11.dtd"><svg width="100%" height="100%" viewBox="0 0 1260 829" version="1.1" xmlns="http://www.w3.org/2000/svg" xmlns:xlink="http://www.w3.org/1999/xlink" xml:space="preserve" xmlns:serif="http://www.serif.com/" style="fill-rule:evenodd;clip-rule:evenodd;stroke-linejoin:round;stroke-miterlimit:2;"><g id="Layer-30"><g><path d="M1209.18,152.095c0.681,0.001 1.237,0.546 1.249,1.227c1.21,61.692 13.929,126.046 47.889,187.757c0.213,0.387 0.207,0.858 -0.018,1.239c-0.225,0.381 -0.634,0.614 -1.076,0.614c-32.24,0.001 -64.424,0.001 -96.667,0.001l0,345.291l6.482,0c0.49,0 0.935,0.286 1.138,0.731c4.852,10.66 8.05,21.556 11.272,32.424c5.074,17.087 8.683,34.23 7.596,50.993c-0.045,0.655 -0.59,1.164 -1.247,1.164c-21.634,0.001 -43.414,0.001 -65.048,0.001c-0.658,0.001 -1.204,-0.508 -1.249,-1.165c-1.087,-16.759 2.479,-33.906 7.598,-50.993c3.255,-10.873 6.637,-21.761 11.498,-32.424c0.203,-0.445 0.648,-0.731 1.137,-0.731c2.088,0 4.166,0 6.257,0l0,-345.291l-35.054,0l0,168.804c4.208,1.029 7.737,6.796 7.737,14.558c0,8.475 -3.875,15.363 -8.65,15.363c-4.771,0 -8.646,-6.888 -8.646,-15.363c0,-7.883 3.434,-13.883 7.738,-14.758l0,-168.604l-59.792,0c-0.442,-0.001 -0.851,-0.234 -1.076,-0.615c-0.224,-0.381 -0.231,-0.852 -0.017,-1.239c33.967,-61.719 46.69,-126.065 47.887,-187.757c0.013,-0.681 0.569,-1.226 1.25,-1.226c37.269,-0.001 74.543,-0.001 111.812,-0.001Z" style="fill:#d1bef9;fill-rule:nonzero;"/><g><path d="M305.812,151.567c-1.284,0 -2.515,0.51 -3.423,1.418c-0.908,0.908 -1.419,2.139 -1.419,3.423c0,0.003 0,0.006 0,0.009c0,1.284 0.511,2.515 1.419,3.423c0.908,0.908 2.139,1.418 3.423,1.418c36.175,0 263.821,0 299.996,0c1.284,0 2.515,-0.51 3.423,-1.418c0.908,-0.908 1.419,-2.139 1.419,-3.423c0,-0.003 0,-0.006 0,-0.009c0,-1.284 -0.511,-2.515 -1.419,-3.423c-0.908,-0.908 -2.139,-1.418 -3.423,-1.418c-36.175,0 -263.821,0 -299.996,0Z" style="fill:#d1bef9;fill-rule:nonzero;"/><path d="M537.55,73.841c-0.553,0 -1.083,0.22 -1.473,0.61c-0.391,0.391 -0.61,0.921 -0.61,1.474c0,12.371 0,75.642 0,75.642l31.2,0l0,-75.642c0,-0.553 -0.22,-1.083 -0.611,-1.474c-0.39,-0.39 -0.92,-0.61 -1.473,-0.61c-5.674,0 -21.359,0 -27.033,0Z" style="fill:#d1bef9;fill-rule:nonzero;"/><path d="M414.61,37.506c-0.546,-0.093 -1.107,0.035 -1.558,0.357c-0.452,0.321 -0.757,0.809 -0.847,1.356c-2.525,15.218 -18.149,109.406 -18.149,109.406l17.108,2.942c0,0 15.747,-94.259 18.28,-109.423c0.189,-1.132 -0.573,-2.204 -1.705,-2.397c-3.311,-0.565 -9.807,-1.674 -13.129,-2.241Z" style="fill:#d1bef9;fill-rule:nonzero;"/><path d="M501.569,52.75c-1.151,0 -2.084,0.932 -2.084,2.083c0,14.246 0,96.734 0,96.734l24.278,0l0,-96.734c0,-1.151 -0.933,-2.083 -2.083,-2.083c-4.589,0 -15.523,0 -20.111,0Z" style="fill:#d1bef9;fill-rule:nonzero;"/><path d="M466.593,56.202c-0.552,0 -1.082,0.22 -1.473,0.611c-0.391,0.39 -0.61,0.92 -0.61,1.473l0,93.281l24.278,0l0,-93.281c0,-0.553 -0.22,-1.083 -0.611,-1.473c-0.39,-0.391 -0.92,-0.611 -1.473,-0.611l-20.111,0Z" style="fill:#d1bef9;fill-rule:nonzero;"/><path d="M430.231,52.75c-0.553,0 -1.083,0.219 -1.474,0.61c-0.39,0.39 -0.61,0.92 -0.61,1.473c0,14.246 0,96.734 0,96.734l31.205,0l0,-96.734c0,-0.553 -0.22,-1.083 -0.61,-1.473c-0.391,-0.391 -0.921,-0.61 -1.474,-0.61c-5.675,0 -21.362,0 -27.037,0Z" style="fill:#d1bef9;fill-rule:nonzero;"/><path d="M360.154,59.783c-0.553,0 -1.083,0.22 -1.473,0.61c-0.391,0.391 -0.611,0.921 -0.611,1.473c0,13.646 0,89.701 0,89.701l31.331,0l0,-89.701c0,-0.552 -0.22,-1.082 -0.611,-1.473c-0.39,-0.39 -0.92,-0.61 -1.473,-0.61c-5.694,0 -21.469,0 -27.163,0Z" style="fill:#d1bef9;fill-rule:nonzero;"/></g><g><path d="M64.566,696.27l3.304,-0.562c-0.396,-1.484 -38.982,-148.9 9.845,-198.475l-2.651,-1.659c-49.79,50.563 -12.133,194.588 -10.498,200.696Z" style="fill:url(#_Linear1);fill-rule:nonzero;"/><path d="M54.136,699.383c1.102,-5.742 26.608,-140.942 -7.469,-164.009c-5.748,-3.891 -12.839,-4.483 -21.066,-1.762l1.239,2.633c7.108,-2.358 12.908,-1.925 17.71,1.329c32.562,22.038 6.523,159.959 6.247,161.346l3.339,0.463Z" style="fill:url(#_Linear2);fill-rule:nonzero;"/><path d="M64.455,692.974l3.373,-0.016c0,-0.775 -0.172,-77.671 23.148,-94.554l-1.979,-2.734c-24.715,17.896 -24.56,94.071 -24.542,97.304Z" style="fill:url(#_Linear3);fill-rule:nonzero;"/><path d="M75.081,687.799l-3.373,-0.012c0,-0.625 0.172,-62.554 -23.148,-76.154l1.979,-2.204c24.714,14.416 24.56,75.766 24.542,78.37Z" style="fill:url(#_Linear4);fill-rule:nonzero;"/><g><path d="M37.984,773.537c-14.139,-19.154 -13.504,-57.158 -13.504,-85.721l0,0c0,-0.009 0.007,-0.017 0.016,-0.017c1.289,0 76.835,0 78.124,0c0.009,0 0.016,0.008 0.016,0.017c0,0 0,0 0,0c0,28.305 -1.161,65.914 -15.548,85.223c-0.236,0.313 -0.605,0.497 -0.997,0.497c-5.654,0.001 -48.107,0.001 -48.107,0.001Z" style="fill:#d1bef9;fill-rule:nonzero;"/><path d="M37.593,773.018c0.235,0.325 0.611,0.517 1.012,0.517c2.704,0.002 13.113,0.002 13.113,0.002c-14.138,-19.154 -13.504,-57.158 -13.504,-85.721l0,-0.017l-13.749,0l0,0.017c0.014,28.307 -0.623,65.887 13.128,85.202Z" style="fill:#b9a6e1;fill-opacity:0.2;fill-rule:nonzero;"/><path d="M96.842,689.962c-0.619,6.025 -1.715,12.05 -2.536,18.042c-0.994,7.308 -1.801,14.629 -2.882,21.92c-0.995,7.28 -1.989,14.559 -3.229,21.792c-1.023,5.983 -2.45,11.775 -4.136,17.6c7.134,-11.458 9.512,-25.167 11.472,-38.308c1.124,-7.509 1.629,-15.163 1.859,-22.729c0.187,-6.038 0.332,-12.309 -0.548,-18.317Z" style="fill:#fff;fill-opacity:0.3;fill-rule:nonzero;"/></g><path d="M84.115,576.724c-3.842,-7.97 -20.913,-2.383 -22.176,5.105c-0.393,2.308 0.264,4.395 0.988,6.579c1.65,-1.534 10.905,-10.654 12.96,-6.642c-4.359,5.538 -13.896,6.108 -12.035,15.046c0.408,1.925 1.241,3.429 2.893,4.558c1.467,-2.929 2.894,-6.012 4.764,-8.708c0.892,-1.288 6.393,-6.458 6.246,-2.138c-0.078,2.509 -4.536,6.088 -5.963,8.121c-1.994,2.85 -2.874,4.609 -1.587,8.013c1.432,3.787 3.009,6.491 7.14,7.45c0.479,-2.592 4.882,-19.971 9.784,-15.942c2.468,2.021 -1.97,6.358 -2.936,8.175c-1.371,2.579 -3.646,6.013 -3.63,9.004c0.018,4.125 3.197,6.538 6.692,7.909c1.696,-1.338 0.275,-6.9 0.406,-8.984c0.168,-2.646 1.407,-5.996 4.128,-6.962c1.888,3.616 0.535,6.454 -0.2,10.141c-0.601,3.025 -0.034,7.6 4.051,6.617c1.912,-0.462 3.474,-1.992 5.461,-2.283c1.725,-0.254 2.851,0.637 4.446,0.966c3.73,0.759 5.913,-3.07 5.023,-6.45c-0.955,-3.645 -5.113,-6.45 -7.218,-9.504c3.445,-0.912 5.455,1.638 7.08,4.346c1.172,1.946 2.365,7.279 5.195,4.333c2.525,-2.633 0.587,-5.737 -0.519,-8.47c-1.342,-3.288 -2.929,-4.409 -5.921,-6.163c-2.649,-1.558 -5.645,-2.129 -7.619,-4.637c2.467,-3.238 6.624,0.395 8.722,2.083c2.517,2.054 5.163,3.521 7.138,6.058c2.224,-2.725 3.847,-5.275 1.682,-8.612c-1.911,-2.942 -5.048,-4.442 -8.304,-5.392c-3.045,-0.887 -7.802,0.058 -10.389,-1.825c-4.503,-3.287 4.493,-3.6 6.439,-2.996c3.911,1.204 7.788,3.538 11.014,5.984c1.503,-3.521 0.241,-7.105 -3.253,-8.638c-2.72,-1.192 -6.444,-2.825 -9.407,-2.617c-1.799,0.117 -3.953,1.121 -5.673,0.28c2.204,-3.288 11.24,-1.671 14.476,-0.4c0.197,-3.725 -5.5,-4.792 -8.157,-4.48c-1.488,0.175 -9.481,2.446 -9.276,-0.545c0.122,-1.763 3.312,-1.767 4.552,-1.634c1.155,-4.308 -6.101,-3.508 -8.142,-2.846c-1.931,0.617 -3.624,1.655 -5.115,3.013c-1.156,1.046 -2.524,3.075 -4.284,2.908" style="fill:#d1bef9;fill-rule:nonzero;"/><path d="M61.821,620.437c-0.313,-0.713 -0.717,-1.371 -1.229,-2.013c1.228,-1.183 -0.03,-2.516 -0.603,-3.662c-0.643,-1.304 -1.109,-2.604 -1.92,-3.838c-0.905,-1.379 -2.183,-2.095 -3.253,-3.287c-1.126,-1.238 -0.849,-2.1 0.723,-1.242c0.988,0.546 2.535,0.946 1.66,-0.841c-0.442,-0.9 -1.852,-1.784 -2.618,-2.413c-2.127,-1.771 -5.273,-2.633 -8.024,-2.637c-2.541,0.004 -4.898,1.704 -7.227,2.595c-1.304,-0.125 -1.92,-1.12 -2.808,-2.2c-2.289,-2.783 -5.675,-3.587 -9.122,-3.708c-3.144,-0.104 -7.598,-0.304 -8.401,3.492c1.609,-0.367 5.056,-1.013 6.326,0.387c-0.928,1.067 -2.862,0.45 -4.073,0.404c-4.55,-0.183 -12.464,-0.35 -14.216,5.142c0.962,0.167 2.411,-0.392 3.446,-0.571c4.456,-0.787 8.705,-1.533 13.065,-0.087c-3.947,-0.071 -7.859,-0.104 -11.723,0.866c-3.438,0.867 -7.198,2.263 -8.931,5.605c-1.407,2.716 -1.066,6.441 2.654,4.545c3.48,-1.775 6.357,-3.65 10.266,-4.437c3.704,-0.742 6.729,-0.475 10.253,0.875c-2.743,0.996 -5.634,1.158 -8.429,1.933c-2.817,0.784 -5.236,1.784 -7.509,3.625c-2.033,1.646 -5.286,2.813 -6.398,5.313c-0.982,2.191 -0.075,5.016 -0.034,7.325c0.048,2.537 -0.064,5.021 0.236,7.554c0.239,-0.333 0.48,-0.675 0.71,-1.017c1.06,-1.596 1.733,-3.416 2.851,-4.979c1.344,-1.875 3.247,-3.142 5.042,-4.533c1.057,-0.817 8.958,-7.875 9.644,-3.792c0.455,2.692 -6.018,5.717 -7.697,7.175c-3.031,2.621 -5.175,6.179 -7.01,9.717c-1.97,3.796 0.818,6.129 2.762,9.183c0.071,-1.104 0.145,-2.217 0.319,-3.3c0.458,-2.967 1.954,-4.808 3.975,-6.929c0.86,-0.9 7.037,-7.454 8.046,-4.75c0.411,1.1 -1.079,3.05 -1.542,3.954c-0.6,1.192 -0.91,2.342 -1.249,3.613c-0.789,2.937 -3.818,4.57 -4.565,7.366c-1.22,4.604 6.797,7.009 9.923,7.588c2.758,0.508 5.972,0.712 8.735,0.212c3.498,-0.637 3.85,-2.408 2.435,-5.279c-1.546,-3.121 -1.557,-6.662 -3.114,-9.846c-0.522,-1.066 -5.177,-10.158 -1.14,-9.846c1.266,0.1 1.87,2.155 2.255,3.084c0.715,1.733 1.493,3.396 2.365,5.058c1.019,1.95 1.845,3.925 2.461,6.033c0.542,1.834 0.869,4.121 2.027,5.705c1.901,2.575 4.1,-0.938 4.949,-2.667c1.163,-2.346 0.421,-4.6 0.036,-7.063c-0.487,-3.17 -1.604,-5.65 -2.843,-8.579c-0.784,-1.829 -1.377,-3.746 -2.319,-5.504c-1.09,-2.033 -2.603,-3.7 -4.032,-5.5c-0.627,-0.787 -1.975,-2.221 -0.846,-3.092c0.929,-0.729 2.839,0.042 3.705,0.496c2.158,1.146 4.607,3.429 6.134,5.35c1.898,2.384 3.089,6.042 3.814,8.963c0.834,3.383 0.25,6.833 0.689,10.258c0.432,-0.429 0.866,-0.867 1.28,-1.317c3.311,-3.641 7.097,-8.758 5.585,-13.912c-0.734,-2.517 -2.74,-4.392 -4.182,-6.521c-2.207,-3.262 -4.528,-5.483 -7.633,-7.871c-0.669,-0.512 -2.514,-1.712 -2.13,-2.8c0.349,-0.987 2.009,-0.716 2.76,-0.541c2.437,0.545 4.682,2.304 6.283,4.15c1.637,1.887 3.067,4.17 4.237,6.362c0.559,1.029 1.923,6.613 3.212,6.554c0.169,-0.004 0.327,-0.075 0.477,-0.166l1.47,-9.746l0.01,0.004Zm-22.463,-17.313l0.265,-0.087l0.442,0.067c-0.258,0.033 -0.49,0.041 -0.707,0.02Z" style="fill:#d1bef9;fill-rule:nonzero;"/><path d="M57.515,522.491c0.047,-0.867 0.208,-1.717 0.488,-2.592c-1.753,-0.75 -0.966,-2.645 -0.823,-4.07c0.155,-1.621 0.127,-3.167 0.485,-4.78c0.402,-1.8 1.454,-3.058 2.101,-4.729c0.685,-1.746 0.054,-2.537 -1.251,-1.016c-0.817,0.966 -2.275,2 -2.071,-0.221c0.106,-1.113 1.231,-2.6 1.782,-3.563c1.524,-2.696 4.473,-4.85 7.349,-5.946c2.662,-1.004 5.804,-0.158 8.593,-0.154c1.317,-0.646 1.566,-1.933 2.066,-3.416c1.292,-3.817 4.515,-6.005 8.074,-7.5c3.248,-1.359 7.829,-3.338 10.177,0.316c-1.829,0.254 -5.693,0.95 -6.465,2.917c1.394,0.75 3.172,-0.663 4.421,-1.192c4.69,-2 12.906,-5.312 16.919,-0.262c-0.941,0.554 -2.68,0.546 -3.834,0.766c-4.975,0.946 -9.718,1.855 -13.707,5.096c4.103,-1.641 8.183,-3.229 12.612,-3.746c3.943,-0.458 8.431,-0.487 11.571,2.321c2.551,2.284 3.674,6.317 -0.971,5.813c-4.347,-0.475 -8.102,-1.3 -12.505,-0.567c-4.171,0.692 -7.231,2.171 -10.382,4.983c3.265,-0.05 6.355,-1.029 9.587,-1.325c3.259,-0.3 6.187,-0.212 9.296,0.813c2.782,0.912 6.65,0.846 8.805,3.021c1.899,1.904 2.071,5.221 2.944,7.65c0.957,2.675 2.06,5.229 2.751,8c-0.381,-0.254 -0.769,-0.517 -1.146,-0.784c-1.741,-1.245 -3.169,-2.883 -4.959,-4.079c-2.151,-1.429 -4.645,-2 -7.075,-2.737c-1.431,-0.438 -12.502,-4.688 -11.6,-0.146c0.594,3 8.568,3.596 10.905,4.454c4.211,1.538 7.869,4.417 11.193,7.383c3.568,3.196 1.577,6.742 0.755,10.709c-0.513,-1.125 -1.031,-2.259 -1.645,-3.325c-1.656,-2.925 -3.953,-4.259 -6.91,-5.675c-1.258,-0.6 -10.323,-5.009 -10.306,-1.775c0.007,1.316 2.341,2.762 3.185,3.529c1.1,1.004 1.881,2.087 2.741,3.283c1.992,2.759 5.809,3.267 7.701,5.896c3.104,4.333 -4.329,10.033 -7.371,11.879c-2.684,1.629 -5.968,3.113 -9.056,3.692c-3.914,0.721 -4.987,-0.996 -4.645,-4.563c0.378,-3.879 -1.015,-7.587 -0.651,-11.537c0.123,-1.325 1.386,-12.688 -2.714,-10.754c-1.287,0.604 -1.103,2.996 -1.137,4.121c-0.059,2.1 -0.214,4.145 -0.466,6.233c-0.292,2.446 -0.373,4.837 -0.181,7.287c0.162,2.138 0.727,4.659 0.143,6.775c-0.966,3.45 -4.662,0.646 -6.237,-0.825c-2.147,-1.991 -2.266,-4.645 -2.841,-7.375c-0.749,-3.512 -0.564,-6.55 -0.43,-10.104c0.094,-2.229 -0.046,-4.471 0.241,-6.683c0.334,-2.563 1.255,-4.904 2.035,-7.358c0.344,-1.071 1.186,-3.109 -0.34,-3.567c-1.263,-0.396 -2.956,1.167 -3.681,1.987c-1.804,2.055 -3.461,5.413 -4.296,8.03c-1.039,3.254 -0.834,7.55 -0.432,10.895c0.469,3.871 2.45,7.25 3.351,11.009c-0.622,-0.275 -1.25,-0.563 -1.863,-0.871c-4.909,-2.492 -10.903,-6.346 -11.367,-12.342c-0.231,-2.921 1.122,-5.683 1.787,-8.483c1.014,-4.292 2.563,-7.533 4.863,-11.267c0.497,-0.8 1.95,-2.791 1.117,-3.775c-0.757,-0.896 -2.386,0.05 -3.102,0.529c-2.333,1.542 -3.986,4.271 -4.927,6.838c-0.965,2.625 -1.554,5.583 -1.909,8.342c-0.176,1.3 0.614,7.679 -0.759,8.133c-0.179,0.062 -0.372,0.05 -0.566,0.012l-5.407,-9.612l-0.01,0.004Zm16.634,-27.033l-0.311,0.016l-0.436,0.242c0.283,-0.062 0.529,-0.15 0.747,-0.258Z" style="fill:#d1bef9;fill-rule:nonzero;"/><path d="M61.821,546.57c-0.324,-0.733 -0.742,-1.416 -1.272,-2.087c1.273,-1.221 -0.029,-2.604 -0.622,-3.792c-0.665,-1.35 -1.146,-2.696 -1.986,-3.975c-0.937,-1.425 -2.26,-2.171 -3.367,-3.404c-1.165,-1.288 -0.877,-2.179 0.75,-1.288c1.023,0.567 2.624,0.984 1.72,-0.87c-0.458,-0.93 -1.918,-1.846 -2.711,-2.5c-2.201,-1.834 -5.459,-2.73 -8.308,-2.738c-2.632,0.004 -5.074,1.767 -7.487,2.683c-1.351,-0.129 -1.988,-1.162 -2.906,-2.279c-2.37,-2.883 -5.876,-3.716 -9.446,-3.846c-3.256,-0.112 -7.869,-0.32 -8.704,3.609c1.667,-0.379 5.238,-1.046 6.552,0.404c-0.962,1.108 -2.964,0.467 -4.218,0.417c-4.713,-0.192 -12.909,-0.367 -14.727,5.316c0.996,0.175 2.497,-0.404 3.57,-0.587c4.615,-0.813 9.016,-1.584 13.531,-0.084c-4.089,-0.075 -8.14,-0.112 -12.142,0.892c-3.562,0.896 -7.457,2.338 -9.253,5.796c-1.46,2.817 -1.109,6.675 2.745,4.712c3.606,-1.833 6.586,-3.775 10.635,-4.587c3.837,-0.767 6.97,-0.488 10.619,0.912c-2.842,1.03 -5.837,1.192 -8.731,1.996c-2.918,0.809 -5.424,1.842 -7.779,3.746c-2.107,1.704 -5.477,2.913 -6.63,5.5c-1.019,2.271 -0.081,5.2 -0.04,7.588c0.048,2.629 -0.07,5.2 0.239,7.825c0.248,-0.346 0.497,-0.7 0.736,-1.055c1.098,-1.65 1.797,-3.533 2.956,-5.154c1.393,-1.941 3.365,-3.254 5.225,-4.687c1.095,-0.846 9.283,-8.154 9.991,-3.925c0.469,2.787 -6.237,5.916 -7.977,7.425c-3.141,2.712 -5.364,6.4 -7.267,10.058c-2.042,3.933 0.844,6.35 2.855,9.517c0.075,-1.142 0.152,-2.296 0.333,-3.421c0.477,-3.071 2.027,-4.979 4.122,-7.175c0.891,-0.929 7.292,-7.717 8.336,-4.913c0.425,1.142 -1.12,3.159 -1.6,4.096c-0.621,1.234 -0.943,2.425 -1.295,3.742c-0.82,3.042 -3.958,4.729 -4.733,7.625c-1.267,4.767 7.034,7.267 10.272,7.862c2.856,0.534 6.185,0.742 9.047,0.23c3.623,-0.659 3.989,-2.496 2.525,-5.467c-1.599,-3.233 -1.609,-6.9 -3.219,-10.2c-0.539,-1.104 -5.355,-10.525 -1.174,-10.196c1.311,0.1 1.935,2.229 2.333,3.192c0.739,1.796 1.544,3.516 2.447,5.241c1.054,2.021 1.908,4.063 2.545,6.25c0.56,1.9 0.897,4.267 2.096,5.909c1.966,2.666 4.247,-0.967 5.127,-2.759c1.205,-2.429 0.439,-4.762 0.042,-7.312c-0.503,-3.288 -1.659,-5.854 -2.939,-8.888c-0.812,-1.895 -1.425,-3.879 -2.399,-5.704c-1.127,-2.104 -2.693,-3.833 -4.172,-5.7c-0.649,-0.816 -2.044,-2.3 -0.875,-3.2c0.963,-0.754 2.941,0.046 3.837,0.517c2.235,1.187 4.77,3.55 6.35,5.542c1.964,2.47 3.196,6.258 3.944,9.287c0.862,3.5 0.255,7.075 0.708,10.625c0.447,-0.446 0.897,-0.9 1.327,-1.367c3.43,-3.766 7.355,-9.066 5.793,-14.404c-0.759,-2.604 -2.835,-4.55 -4.328,-6.754c-2.283,-3.383 -4.687,-5.683 -7.9,-8.158c-0.692,-0.529 -2.603,-1.775 -2.204,-2.9c0.362,-1.025 2.081,-0.742 2.858,-0.559c2.524,0.567 4.848,2.388 6.505,4.305c1.694,1.95 3.174,4.316 4.385,6.591c0.578,1.067 1.986,6.846 3.322,6.788c0.175,-0.004 0.338,-0.079 0.494,-0.175l1.529,-10.092l0.01,0.004Zm-23.254,-17.946l0.275,-0.087l0.457,0.067c-0.267,0.037 -0.507,0.045 -0.732,0.02Z" style="fill:#d1bef9;fill-rule:nonzero;"/></g><path d="M438.083,132.271l2.6,0l0,3.133l9.15,0l0,3.267l-9.15,0l0,3.1l-2.6,0l0,-9.5Z" style="fill:#463174;fill-rule:nonzero;"/><path d="M438.083,120.537l11.75,0l0,3.267l-4.716,0l0,3.983l4.716,0l0,3.267l-11.75,0l0,-3.267l4.417,0l0,-3.983l-4.417,0l0,-3.267Z" style="fill:#463174;fill-rule:nonzero;"/><path d="M440.7,115.404l1.917,0l0,-3.75l2.483,0l0,3.75l2.117,0l0,-4.25l2.616,0l0,7.517l-11.75,0l0,-7.517l2.617,0l0,4.25Z" style="fill:#463174;fill-rule:nonzero;"/><path d="M449.833,103.587l-4.333,2.334l0,0.35l4.333,0l0,3.266l-11.75,0l0,-5.15c0,-0.944 0.164,-1.744 0.492,-2.4c0.328,-0.655 0.778,-1.15 1.35,-1.483c0.572,-0.333 1.214,-0.5 1.925,-0.5c0.8,0 1.503,0.219 2.108,0.658c0.606,0.439 1.036,1.081 1.292,1.925l4.583,-2.65l0,3.65Zm-6.566,2.684l0,-1.617c0,-0.445 -0.106,-0.778 -0.317,-1c-0.211,-0.222 -0.517,-0.333 -0.917,-0.333c-0.377,0 -0.675,0.113 -0.891,0.341c-0.217,0.228 -0.325,0.559 -0.325,0.992l0,1.617l2.45,0Z" style="fill:#463174;fill-rule:nonzero;"/><path d="M447.917,91.087l0,4.167l1.916,0.633l0,3.434l-11.75,-4.284l0,-3.766l11.75,-4.267l0,3.45l-1.916,0.633Zm-2.5,0.817l-3.8,1.267l3.8,1.25l0,-2.517Z" style="fill:#463174;fill-rule:nonzero;"/><path d="M442,76.654c0.711,0 1.358,0.164 1.942,0.492c0.583,0.327 1.05,0.822 1.4,1.483c0.35,0.661 0.525,1.469 0.525,2.425l0,1.617l3.966,0l0,3.266l-11.75,0l0,-4.883c0,-0.945 0.167,-1.747 0.5,-2.408c0.334,-0.662 0.795,-1.159 1.384,-1.492c0.589,-0.333 1.266,-0.5 2.033,-0.5Zm1.267,4.717c0,-0.923 -0.423,-1.384 -1.267,-1.384c-0.856,0 -1.283,0.461 -1.283,1.384l0,1.3l2.55,0l0,-1.3Z" style="fill:#463174;fill-rule:nonzero;"/><path d="M438.083,64.654l8.017,4.133l3.733,0l0,3.284l-3.733,0l-8.017,4.133l0,-3.733l4.534,-2.067l-4.534,-2.067l0,-3.683Z" style="fill:#463174;fill-rule:nonzero;"/></g></g><defs><linearGradient id="_Linear1" x1="0" y1="0" x2="1" y2="0" gradientUnits="userSpaceOnUse" gradientTransform="matrix(-28.325,3.46881e-15,-3.46881e-15,-28.325,77.7107,595.913)"><stop offset="0" style="stop-color:#abafe9;stop-opacity:1"/><stop offset="0.03" style="stop-color:#abafe9;stop-opacity:1"/><stop offset="1" style="stop-color:#d1bef9;stop-opacity:1"/></linearGradient><linearGradient id="_Linear2" x1="0" y1="0" x2="1" y2="0" gradientUnits="userSpaceOnUse" gradientTransform="matrix(-38.7339,4.74353e-15,-4.74353e-15,-38.7339,64.3347,615.659)"><stop offset="0" style="stop-color:#abafe9;stop-opacity:1"/><stop offset="0.03" style="stop-color:#abafe9;stop-opacity:1"/><stop offset="1" style="stop-color:#d1bef9;stop-opacity:1"/></linearGradient><linearGradient id="_Linear3" x1="0" y1="0" x2="1" y2="0" gradientUnits="userSpaceOnUse" gradientTransform="matrix(-26.5127,3.24687e-15,-3.24687e-15,-26.5127,90.968,644.326)"><stop offset="0" style="stop-color:#abafe9;stop-opacity:1"/><stop offset="0.03" style="stop-color:#abafe9;stop-opacity:1"/><stop offset="1" style="stop-color:#d1bef9;stop-opacity:1"/></linearGradient><linearGradient id="_Linear4" x1="0" y1="0" x2="1" y2="0" gradientUnits="userSpaceOnUse" gradientTransform="matrix(26.5127,0,0,26.5127,48.5686,648.615)"><stop offset="0" style="stop-color:#abafe9;stop-opacity:1"/><stop offset="0.03" style="stop-color:#abafe9;stop-opacity:1"/><stop offset="1" style="stop-color:#d1bef9;stop-opacity:1"/></linearGradient></defs></svg>