<?xml version="1.0" encoding="UTF-8" standalone="no"?>
<!DOCTYPE svg PUBLIC "-//W3C//DTD SVG 1.1//EN" "http://www.w3.org/Graphics/SVG/1.1/DTD/svg11.dtd">
<svg width="100%" height="100%" viewBox="0 0 303 199" version="1.1" xmlns="http://www.w3.org/2000/svg" xmlns:xlink="http://www.w3.org/1999/xlink" xml:space="preserve" xmlns:serif="http://www.serif.com/" style="fill-rule:evenodd;clip-rule:evenodd;stroke-linejoin:round;stroke-miterlimit:2;">
    <g id="Layer-30" transform="matrix(1,0,0,1,-61.9981,-394.935)">
        <g>
            <g transform="matrix(1,0,0,1,0.0001,1.27787)">
                <path d="M352.202,430.16C352.365,430.16 352.498,430.291 352.501,430.454C352.792,445.261 355.844,460.706 363.995,475.516C364.046,475.609 364.044,475.722 363.99,475.813C363.936,475.905 363.838,475.961 363.732,475.961C355.994,475.961 348.27,475.961 340.532,475.961L340.532,558.831L342.088,558.831C342.205,558.831 342.312,558.899 342.361,559.006C343.525,561.565 344.293,564.18 345.066,566.788C346.284,570.889 347.15,575.003 346.889,579.026C346.878,579.184 346.748,579.306 346.59,579.306C341.398,579.306 336.17,579.306 330.978,579.306C330.82,579.306 330.689,579.184 330.678,579.026C330.417,575.004 331.273,570.889 332.502,566.788C333.283,564.179 334.095,561.565 335.261,559.006C335.31,558.899 335.417,558.831 335.534,558.831C336.035,558.831 336.534,558.831 337.036,558.831L337.036,475.961L328.623,475.961L328.623,516.474C329.633,516.721 330.48,518.105 330.48,519.968C330.48,522.002 329.55,523.655 328.404,523.655C327.259,523.655 326.329,522.002 326.329,519.968C326.329,518.076 327.153,516.636 328.186,516.426L328.186,475.961L313.836,475.961C313.73,475.961 313.632,475.905 313.578,475.813C313.524,475.722 313.522,475.609 313.574,475.516C321.726,460.704 324.779,445.261 325.067,430.454C325.07,430.291 325.203,430.16 325.367,430.16C334.311,430.16 343.257,430.16 352.202,430.16Z" style="fill:rgb(209,190,249);fill-rule:nonzero;"/>
            </g>
            <g>
                <path d="M135.393,431.311C135.085,431.311 134.789,431.433 134.571,431.651C134.353,431.869 134.231,432.165 134.231,432.473C134.231,432.474 134.231,432.474 134.231,432.475C134.231,432.783 134.353,433.079 134.571,433.297C134.789,433.515 135.085,433.637 135.393,433.637C144.075,433.637 198.71,433.637 207.392,433.637C207.7,433.637 207.996,433.515 208.214,433.297C208.432,433.079 208.554,432.783 208.554,432.475C208.554,432.474 208.554,432.474 208.554,432.473C208.554,432.165 208.432,431.869 208.214,431.651C207.996,431.433 207.7,431.311 207.392,431.311C198.71,431.311 144.075,431.311 135.393,431.311Z" style="fill:rgb(209,190,249);fill-rule:nonzero;"/>
                <g transform="matrix(1.07741,0,0,1.09472,-11.4522,-40.8556)">
                    <path d="M187.915,414.271C187.792,414.271 187.674,414.319 187.587,414.405C187.5,414.49 187.451,414.607 187.451,414.728C187.451,417.44 187.451,431.311 187.451,431.311L194.401,431.311L194.401,414.728C194.401,414.607 194.352,414.49 194.265,414.405C194.178,414.319 194.06,414.271 193.937,414.271C192.673,414.271 189.179,414.271 187.915,414.271Z" style="fill:rgb(209,190,249);fill-rule:nonzero;"/>
                </g>
                <g transform="matrix(1.07741,0,0,1.09472,-11.4522,-40.8556)">
                    <path d="M160.53,406.305C160.408,406.285 160.283,406.313 160.182,406.383C160.082,406.454 160.014,406.561 159.994,406.681C159.431,410.017 155.951,430.666 155.951,430.666L159.762,431.311C159.762,431.311 163.27,410.646 163.834,407.322C163.876,407.074 163.706,406.839 163.454,406.796C162.717,406.673 161.27,406.429 160.53,406.305Z" style="fill:rgb(209,190,249);fill-rule:nonzero;"/>
                </g>
                <g transform="matrix(1.07741,0,0,1.09472,-11.4522,-40.8556)">
                    <path d="M179.9,409.647C179.644,409.647 179.436,409.851 179.436,410.104C179.436,413.227 179.436,431.311 179.436,431.311L184.844,431.311L184.844,410.104C184.844,409.851 184.636,409.647 184.38,409.647C183.358,409.647 180.922,409.647 179.9,409.647Z" style="fill:rgb(209,190,249);fill-rule:nonzero;"/>
                </g>
                <g transform="matrix(1.07741,0,0,1.09472,-11.4522,-40.8556)">
                    <path d="M172.109,410.404C171.986,410.404 171.868,410.452 171.781,410.538C171.694,410.623 171.645,410.74 171.645,410.861L171.645,431.311L177.053,431.311L177.053,410.861C177.053,410.74 177.004,410.623 176.917,410.538C176.83,410.452 176.712,410.404 176.589,410.404L172.109,410.404Z" style="fill:rgb(209,190,249);fill-rule:nonzero;"/>
                </g>
                <g transform="matrix(1.07741,0,0,1.09472,-11.4522,-40.8556)">
                    <path d="M164.009,409.647C163.886,409.647 163.768,409.695 163.681,409.781C163.594,409.866 163.545,409.983 163.545,410.104C163.545,413.227 163.545,431.311 163.545,431.311L170.496,431.311L170.496,410.104C170.496,409.983 170.447,409.866 170.36,409.781C170.273,409.695 170.155,409.647 170.032,409.647C168.768,409.647 165.273,409.647 164.009,409.647Z" style="fill:rgb(209,190,249);fill-rule:nonzero;"/>
                </g>
                <g transform="matrix(1.07741,0,0,1.09472,-11.4522,-40.8556)">
                    <path d="M148.399,411.189C148.276,411.189 148.158,411.237 148.071,411.323C147.984,411.408 147.935,411.525 147.935,411.646C147.935,414.637 147.935,431.311 147.935,431.311L154.914,431.311L154.914,411.646C154.914,411.525 154.865,411.408 154.778,411.323C154.691,411.237 154.573,411.189 154.45,411.189C153.182,411.189 149.667,411.189 148.399,411.189Z" style="fill:rgb(209,190,249);fill-rule:nonzero;"/>
                </g>
            </g>
            <g transform="matrix(1.17959,0,0,1.16626,-53.1693,-63.2272)">
                <g>
                    <path d="M262.694,430.667L262.694,433.206C262.694,433.78 263.584,433.78 263.584,433.206L263.584,430.667C263.584,430.093 262.694,430.093 262.694,430.667Z" style="fill:rgb(209,190,249);fill-rule:nonzero;"/>
                    <path d="M254.639,428.273L253.294,430.451C252.992,430.941 253.762,431.387 254.063,430.9L255.407,428.722C255.71,428.233 254.94,427.786 254.639,428.273Z" style="fill:rgb(209,190,249);fill-rule:nonzero;"/>
                    <path d="M248.727,422.049L246.524,423.362C246.032,423.655 246.479,424.425 246.974,424.13L249.176,422.818C249.669,422.524 249.221,421.755 248.727,422.049Z" style="fill:rgb(209,190,249);fill-rule:nonzero;"/>
                    <path d="M246.718,413.841L244.218,413.841C243.644,413.841 243.644,414.731 244.218,414.731L246.718,414.731C247.292,414.731 247.292,413.841 246.718,413.841Z" style="fill:rgb(209,190,249);fill-rule:nonzero;"/>
                    <path d="M249.208,405.683L246.974,404.441C246.472,404.162 246.023,404.931 246.524,405.21L248.759,406.451C249.261,406.73 249.71,405.962 249.208,405.683Z" style="fill:rgb(209,190,249);fill-rule:nonzero;"/>
                    <path d="M255.279,399.827L254.062,397.672C253.78,397.172 253.011,397.621 253.294,398.121L254.511,400.276C254.793,400.775 255.562,400.327 255.279,399.827Z" style="fill:rgb(209,190,249);fill-rule:nonzero;"/>
                    <path d="M263.584,397.871L263.584,395.365C263.584,394.791 262.694,394.791 262.694,395.365L262.694,397.871C262.694,398.445 263.584,398.445 263.584,397.871Z" style="fill:rgb(209,190,249);fill-rule:nonzero;"/>
                    <path d="M271.782,400.347L272.983,398.121C273.256,397.616 272.487,397.167 272.215,397.672L271.014,399.898C270.741,400.403 271.51,400.852 271.782,400.347Z" style="fill:rgb(209,190,249);fill-rule:nonzero;"/>
                    <path d="M277.549,406.522L279.752,405.209C280.244,404.916 279.797,404.146 279.303,404.441L277.1,405.754C276.608,406.047 277.055,406.817 277.549,406.522Z" style="fill:rgb(209,190,249);fill-rule:nonzero;"/>
                    <path d="M279.514,414.731L282.06,414.731C282.633,414.731 282.633,413.841 282.06,413.841L279.514,413.841C278.941,413.841 278.941,414.731 279.514,414.731Z" style="fill:rgb(209,190,249);fill-rule:nonzero;"/>
                    <path d="M277.133,422.891L279.304,424.13C279.803,424.415 280.251,423.646 279.753,423.362L277.582,422.122C277.083,421.837 276.635,422.606 277.133,422.891Z" style="fill:rgb(209,190,249);fill-rule:nonzero;"/>
                    <path d="M270.95,428.649L272.215,430.9C272.496,431.4 273.265,430.951 272.983,430.451L271.718,428.2C271.437,427.7 270.668,428.148 270.95,428.649Z" style="fill:rgb(209,190,249);fill-rule:nonzero;"/>
                </g>
            </g>
            <g transform="matrix(1,0,0,1,-7.00829e-06,5.40187)">
                <path d="M77.494,556.638L78.287,556.503C78.192,556.147 68.931,520.767 80.65,508.869L80.013,508.471C68.064,520.606 77.102,555.172 77.494,556.638Z" style="fill:url(#_Linear1);fill-rule:nonzero;"/>
                <path d="M74.991,557.385C75.255,556.007 81.377,523.559 73.198,518.023C71.819,517.089 70.117,516.947 68.142,517.6L68.44,518.232C70.146,517.666 71.538,517.77 72.69,518.551C80.505,523.84 74.256,556.941 74.19,557.274L74.991,557.385Z" style="fill:url(#_Linear2);fill-rule:nonzero;"/>
                <path d="M77.467,555.847L78.277,555.843C78.277,555.657 78.236,537.202 83.832,533.15L83.357,532.494C77.426,536.789 77.463,555.071 77.467,555.847Z" style="fill:url(#_Linear3);fill-rule:nonzero;"/>
                <path d="M80.018,554.605L79.208,554.602C79.208,554.452 79.249,539.589 73.653,536.325L74.128,535.796C80.059,539.256 80.022,553.98 80.018,554.605Z" style="fill:url(#_Linear4);fill-rule:nonzero;"/>
                <g>
                    <path d="M71.114,575.182C67.721,570.585 67.873,561.464 67.873,554.609L67.873,554.609C67.873,554.607 67.875,554.605 67.877,554.605C68.186,554.605 86.318,554.605 86.627,554.605C86.629,554.605 86.631,554.607 86.631,554.609C86.631,554.609 86.631,554.609 86.631,554.609C86.631,561.402 86.352,570.428 82.899,575.062C82.843,575.138 82.754,575.182 82.66,575.182C81.303,575.182 71.114,575.182 71.114,575.182Z" style="fill:rgb(209,190,249);fill-rule:nonzero;"/>
                    <path d="M71.02,575.057C71.077,575.135 71.167,575.182 71.263,575.182C71.912,575.182 74.411,575.182 74.411,575.182C71.017,570.585 71.17,561.464 71.17,554.609L71.17,554.605L67.87,554.605L67.87,554.609C67.873,561.403 67.72,570.422 71.02,575.057Z" style="fill:rgb(185,166,225);fill-opacity:0.2;fill-rule:nonzero;"/>
                    <path d="M85.24,555.124C85.092,556.57 84.829,558.016 84.632,559.454C84.393,561.208 84.199,562.965 83.94,564.715C83.701,566.462 83.463,568.209 83.165,569.945C82.919,571.381 82.577,572.771 82.172,574.169C83.884,571.419 84.455,568.129 84.926,564.975C85.195,563.173 85.316,561.336 85.372,559.52C85.417,558.071 85.451,556.566 85.24,555.124Z" style="fill:white;fill-opacity:0.3;fill-rule:nonzero;"/>
                </g>
                <path d="M82.186,527.947C81.264,526.034 77.167,527.375 76.864,529.172C76.769,529.726 76.927,530.227 77.101,530.751C77.497,530.383 79.718,528.194 80.211,529.157C79.165,530.486 76.876,530.623 77.323,532.768C77.42,533.23 77.621,533.591 78.017,533.862C78.369,533.159 78.712,532.419 79.16,531.772C79.374,531.463 80.695,530.222 80.659,531.259C80.641,531.861 79.571,532.72 79.228,533.208C78.75,533.892 78.539,534.314 78.847,535.131C79.191,536.04 79.57,536.689 80.561,536.919C80.676,536.297 81.733,532.126 82.909,533.093C83.501,533.578 82.436,534.619 82.205,535.055C81.875,535.674 81.329,536.498 81.333,537.216C81.338,538.206 82.1,538.785 82.939,539.114C83.346,538.793 83.005,537.458 83.037,536.958C83.077,536.323 83.375,535.519 84.028,535.287C84.481,536.155 84.156,536.836 83.98,537.721C83.835,538.447 83.971,539.545 84.952,539.309C85.411,539.198 85.786,538.831 86.262,538.761C86.676,538.7 86.947,538.914 87.33,538.993C88.225,539.175 88.749,538.256 88.535,537.445C88.306,536.57 87.308,535.897 86.803,535.164C87.629,534.945 88.112,535.557 88.502,536.207C88.783,536.674 89.069,537.954 89.749,537.247C90.355,536.615 89.89,535.87 89.624,535.214C89.302,534.425 88.921,534.156 88.203,533.735C87.567,533.361 86.848,533.224 86.375,532.622C86.967,531.845 87.964,532.717 88.468,533.122C89.072,533.615 89.707,533.967 90.181,534.576C90.715,533.922 91.104,533.31 90.584,532.509C90.126,531.803 89.373,531.443 88.592,531.215C87.861,531.002 86.719,531.229 86.098,530.777C85.017,529.988 87.176,529.913 87.644,530.058C88.582,530.347 89.513,530.907 90.287,531.494C90.648,530.649 90.345,529.789 89.506,529.421C88.853,529.135 87.96,528.743 87.249,528.793C86.817,528.821 86.3,529.062 85.887,528.86C86.416,528.071 88.585,528.459 89.361,528.764C89.409,527.87 88.041,527.614 87.404,527.689C87.046,527.731 85.128,528.276 85.177,527.558C85.207,527.135 85.972,527.134 86.27,527.166C86.547,526.132 84.806,526.324 84.316,526.483C83.852,526.631 83.446,526.88 83.088,527.206C82.811,527.457 82.482,527.944 82.06,527.904" style="fill:rgb(209,190,249);fill-rule:nonzero;"/>
                <path d="M76.835,538.438C76.76,538.267 76.663,538.109 76.54,537.955C76.835,537.671 76.533,537.351 76.396,537.076C76.241,536.763 76.129,536.451 75.935,536.155C75.717,535.824 75.411,535.652 75.154,535.366C74.884,535.069 74.95,534.862 75.328,535.068C75.565,535.199 75.936,535.295 75.726,534.866C75.62,534.65 75.281,534.438 75.098,534.287C74.587,533.862 73.832,533.655 73.172,533.654C72.562,533.655 71.996,534.063 71.437,534.277C71.124,534.247 70.976,534.008 70.763,533.749C70.214,533.081 69.401,532.888 68.574,532.859C67.82,532.834 66.751,532.786 66.558,533.697C66.944,533.609 67.771,533.454 68.076,533.79C67.853,534.046 67.389,533.898 67.099,533.887C66.007,533.843 64.107,533.803 63.687,535.121C63.918,535.161 64.265,535.027 64.514,534.984C65.583,534.795 66.603,534.616 67.65,534.963C66.702,534.946 65.763,534.938 64.836,535.171C64.011,535.379 63.108,535.714 62.693,536.516C62.355,537.168 62.437,538.062 63.329,537.607C64.165,537.181 64.855,536.731 65.793,536.542C66.682,536.364 67.408,536.428 68.254,536.752C67.596,536.991 66.902,537.03 66.231,537.216C65.555,537.404 64.974,537.644 64.429,538.086C63.941,538.481 63.16,538.761 62.893,539.361C62.658,539.887 62.875,540.565 62.885,541.119C62.897,541.728 62.87,542.324 62.942,542.932C62.999,542.852 63.057,542.77 63.112,542.688C63.367,542.305 63.528,541.868 63.796,541.493C64.119,541.043 64.576,540.739 65.006,540.405C65.26,540.209 67.156,538.515 67.321,539.495C67.43,540.141 65.877,540.867 65.474,541.217C64.746,541.846 64.232,542.7 63.791,543.549C63.319,544.46 63.988,545.02 64.454,545.753C64.471,545.488 64.489,545.221 64.531,544.961C64.641,544.249 65,543.807 65.485,543.298C65.691,543.082 67.174,541.509 67.416,542.158C67.515,542.422 67.157,542.89 67.046,543.107C66.902,543.393 66.828,543.669 66.746,543.974C66.557,544.679 65.83,545.071 65.65,545.742C65.358,546.847 67.282,547.424 68.032,547.563C68.694,547.685 69.465,547.734 70.128,547.614C70.968,547.461 71.052,547.036 70.713,546.347C70.342,545.598 70.339,544.748 69.965,543.984C69.84,543.728 68.723,541.546 69.692,541.621C69.996,541.645 70.141,542.138 70.233,542.361C70.405,542.777 70.591,543.176 70.801,543.575C71.045,544.043 71.243,544.517 71.391,545.023C71.521,545.463 71.6,546.012 71.878,546.392C72.334,547.01 72.862,546.167 73.066,545.752C73.345,545.189 73.167,544.648 73.074,544.057C72.957,543.296 72.689,542.701 72.392,541.998C72.204,541.559 72.061,541.099 71.835,540.677C71.574,540.189 71.211,539.789 70.868,539.357C70.717,539.168 70.394,538.824 70.664,538.615C70.887,538.44 71.346,538.625 71.554,538.734C72.072,539.009 72.659,539.557 73.026,540.018C73.481,540.59 73.767,541.468 73.941,542.169C74.141,542.981 74.001,543.809 74.107,544.631C74.21,544.528 74.314,544.423 74.414,544.315C75.208,543.441 76.117,542.213 75.754,540.976C75.578,540.372 75.097,539.922 74.75,539.411C74.221,538.628 73.664,538.095 72.919,537.522C72.758,537.399 72.315,537.111 72.408,536.85C72.491,536.613 72.89,536.678 73.07,536.72C73.655,536.851 74.193,537.273 74.578,537.716C74.971,538.169 75.314,538.717 75.595,539.243C75.729,539.49 76.056,540.83 76.366,540.816C76.406,540.815 76.444,540.798 76.48,540.776L76.833,538.437L76.835,538.438ZM71.444,534.283L71.508,534.262L71.614,534.278C71.552,534.286 71.496,534.288 71.444,534.283Z" style="fill:rgb(209,190,249);fill-rule:nonzero;"/>
                <path d="M75.802,514.931C75.813,514.723 75.852,514.519 75.919,514.309C75.498,514.129 75.687,513.674 75.721,513.332C75.759,512.943 75.752,512.572 75.838,512.185C75.934,511.753 76.187,511.451 76.342,511.05C76.506,510.631 76.355,510.441 76.042,510.806C75.846,511.038 75.496,511.286 75.545,510.753C75.57,510.486 75.84,510.129 75.972,509.898C76.338,509.251 77.046,508.734 77.736,508.471C78.375,508.23 79.129,508.433 79.799,508.434C80.114,508.279 80.174,507.97 80.294,507.614C80.604,506.698 81.378,506.173 82.232,505.814C83.012,505.488 84.111,505.013 84.675,505.89C84.236,505.951 83.308,506.118 83.123,506.59C83.457,506.77 83.884,506.431 84.184,506.304C85.31,505.824 87.281,505.029 88.244,506.241C88.019,506.374 87.601,506.372 87.324,506.425C86.13,506.652 84.992,506.87 84.035,507.648C85.019,507.254 85.999,506.873 87.062,506.749C88.008,506.639 89.085,506.632 89.839,507.306C90.451,507.854 90.72,508.822 89.606,508.701C88.562,508.587 87.661,508.389 86.604,508.565C85.603,508.731 84.869,509.086 84.113,509.761C84.896,509.749 85.638,509.514 86.414,509.443C87.196,509.371 87.898,509.392 88.645,509.638C89.312,509.857 90.241,509.841 90.758,510.363C91.214,510.82 91.255,511.616 91.464,512.199C91.694,512.841 91.959,513.454 92.125,514.119C92.033,514.058 91.94,513.995 91.85,513.931C91.432,513.632 91.089,513.239 90.659,512.952C90.143,512.609 89.545,512.472 88.961,512.295C88.618,512.19 85.961,511.17 86.178,512.26C86.32,512.98 88.234,513.123 88.795,513.329C89.805,513.698 90.683,514.389 91.481,515.101C92.337,515.868 91.859,516.719 91.662,517.671C91.539,517.401 91.415,517.129 91.267,516.873C90.87,516.171 90.319,515.851 89.609,515.511C89.307,515.367 87.132,514.309 87.135,515.085C87.137,515.401 87.697,515.748 87.9,515.932C88.164,516.173 88.351,516.433 88.558,516.72C89.036,517.382 89.952,517.504 90.406,518.135C91.151,519.175 89.367,520.543 88.637,520.986C87.993,521.377 87.205,521.733 86.463,521.872C85.524,522.045 85.267,521.633 85.349,520.777C85.439,519.846 85.105,518.956 85.193,518.008C85.222,517.69 85.525,514.963 84.541,515.427C84.232,515.572 84.276,516.146 84.268,516.416C84.254,516.92 84.217,517.411 84.156,517.912C84.086,518.499 84.067,519.073 84.113,519.661C84.152,520.174 84.287,520.779 84.147,521.287C83.915,522.115 83.028,521.442 82.65,521.089C82.135,520.611 82.106,519.974 81.968,519.319C81.789,518.476 81.833,517.747 81.865,516.894C81.888,516.359 81.854,515.821 81.923,515.29C82.003,514.675 82.224,514.113 82.412,513.524C82.494,513.267 82.696,512.778 82.33,512.668C82.027,512.573 81.621,512.948 81.447,513.145C81.014,513.638 80.616,514.444 80.415,515.072C80.166,515.853 80.215,516.884 80.312,517.687C80.424,518.616 80.9,519.427 81.116,520.329C80.967,520.263 80.816,520.194 80.669,520.12C79.491,519.522 78.052,518.597 77.941,517.158C77.885,516.457 78.21,515.794 78.37,515.122C78.613,514.092 78.985,513.314 79.537,512.418C79.656,512.226 80.005,511.748 79.805,511.512C79.623,511.297 79.232,511.524 79.061,511.639C78.5,512.009 78.104,512.664 77.878,513.28C77.646,513.91 77.505,514.62 77.42,515.282C77.378,515.594 77.567,517.125 77.238,517.234C77.195,517.249 77.148,517.246 77.102,517.237L75.804,514.93L75.802,514.931ZM79.794,508.443L79.719,508.447L79.615,508.505C79.683,508.49 79.742,508.469 79.794,508.443Z" style="fill:rgb(209,190,249);fill-rule:nonzero;"/>
                <path d="M76.835,520.71C76.757,520.534 76.657,520.37 76.53,520.209C76.835,519.916 76.523,519.584 76.381,519.299C76.221,518.975 76.106,518.652 75.904,518.345C75.679,518.003 75.362,517.824 75.096,517.528C74.816,517.219 74.885,517.005 75.276,517.219C75.522,517.355 75.906,517.455 75.689,517.01C75.579,516.787 75.228,516.567 75.038,516.41C74.51,515.97 73.728,515.755 73.044,515.753C72.412,515.754 71.826,516.177 71.247,516.397C70.923,516.366 70.77,516.118 70.55,515.85C69.981,515.158 69.14,514.958 68.283,514.927C67.501,514.9 66.394,514.85 66.194,515.793C66.594,515.702 67.451,515.542 67.766,515.89C67.536,516.156 67.055,516.002 66.754,515.99C65.623,515.944 63.656,515.902 63.219,517.266C63.459,517.308 63.819,517.169 64.076,517.125C65.184,516.93 66.24,516.745 67.324,517.105C66.342,517.087 65.37,517.078 64.41,517.319C63.555,517.534 62.62,517.88 62.189,518.71C61.839,519.386 61.923,520.312 62.848,519.841C63.713,519.401 64.428,518.935 65.4,518.74C66.321,518.556 67.073,518.623 67.949,518.959C67.267,519.206 66.548,519.245 65.853,519.438C65.153,519.632 64.552,519.88 63.986,520.337C63.481,520.746 62.672,521.036 62.395,521.657C62.151,522.202 62.376,522.905 62.385,523.478C62.397,524.109 62.369,524.726 62.443,525.356C62.502,525.273 62.562,525.188 62.62,525.103C62.883,524.707 63.051,524.255 63.329,523.866C63.663,523.4 64.136,523.085 64.583,522.741C64.846,522.538 66.811,520.784 66.981,521.799C67.093,522.468 65.484,523.219 65.066,523.581C64.313,524.232 63.779,525.117 63.322,525.995C62.832,526.939 63.525,527.519 64.007,528.279C64.025,528.005 64.044,527.728 64.087,527.458C64.202,526.721 64.574,526.263 65.076,525.736C65.29,525.513 66.827,523.884 67.077,524.557C67.179,524.831 66.808,525.315 66.693,525.54C66.544,525.836 66.467,526.122 66.382,526.438C66.186,527.168 65.433,527.573 65.246,528.268C64.942,529.412 66.935,530.012 67.712,530.155C68.397,530.283 69.196,530.333 69.883,530.21C70.753,530.052 70.84,529.611 70.489,528.898C70.105,528.122 70.103,527.242 69.717,526.45C69.587,526.185 68.431,523.924 69.435,524.003C69.75,524.027 69.899,524.538 69.995,524.769C70.172,525.2 70.365,525.613 70.582,526.027C70.835,526.512 71.04,527.002 71.193,527.527C71.327,527.983 71.408,528.551 71.696,528.945C72.168,529.585 72.715,528.713 72.926,528.283C73.216,527.7 73.032,527.14 72.936,526.528C72.816,525.739 72.538,525.123 72.231,524.395C72.036,523.94 71.889,523.464 71.655,523.026C71.385,522.521 71.009,522.106 70.654,521.658C70.498,521.462 70.163,521.106 70.444,520.89C70.675,520.709 71.15,520.901 71.365,521.014C71.901,521.299 72.51,521.866 72.889,522.344C73.36,522.937 73.656,523.846 73.836,524.573C74.042,525.413 73.897,526.271 74.005,527.123C74.113,527.016 74.221,526.907 74.324,526.795C75.147,525.891 76.089,524.619 75.714,523.338C75.532,522.713 75.034,522.246 74.675,521.717C74.127,520.905 73.551,520.353 72.779,519.759C72.613,519.632 72.155,519.333 72.251,519.063C72.337,518.817 72.75,518.885 72.936,518.929C73.542,519.065 74.1,519.502 74.498,519.962C74.904,520.43 75.259,520.998 75.55,521.544C75.689,521.8 76.027,523.187 76.347,523.173C76.389,523.172 76.428,523.154 76.466,523.131L76.833,520.709L76.835,520.71ZM71.254,516.403L71.32,516.382L71.43,516.398C71.366,516.407 71.308,516.409 71.254,516.403Z" style="fill:rgb(209,190,249);fill-rule:nonzero;"/>
            </g>
            <g transform="matrix(6.18545e-17,-1,1,5.54673e-17,146.998,508.028)">
                <g transform="matrix(4,0,0,4,79,22.96)">
                    <path d="M0.587,-0.705L0.587,-0.549L0.399,-0.549L0.399,0L0.203,0L0.203,-0.549L0.017,-0.549L0.017,-0.705L0.587,-0.705Z" style="fill:rgb(70,49,116);fill-rule:nonzero;"/>
                </g>
                <g transform="matrix(4,0,0,4,81.416,22.96)">
                    <path d="M0.687,-0.705L0.687,0L0.491,0L0.491,-0.283L0.252,-0.283L0.252,0L0.056,0L0.056,-0.705L0.252,-0.705L0.252,-0.44L0.491,-0.44L0.491,-0.705L0.687,-0.705Z" style="fill:rgb(70,49,116);fill-rule:nonzero;"/>
                </g>
                <g transform="matrix(4,0,0,4,84.388,22.96)">
                    <path d="M0.252,-0.548L0.252,-0.433L0.477,-0.433L0.477,-0.284L0.252,-0.284L0.252,-0.157L0.507,-0.157L0.507,0L0.056,0L0.056,-0.705L0.507,-0.705L0.507,-0.548L0.252,-0.548Z" style="fill:rgb(70,49,116);fill-rule:nonzero;"/>
                </g>
                <g transform="matrix(4,0,0,4,86.58,22.96)">
                    <path d="M0.413,0L0.273,-0.26L0.252,-0.26L0.252,0L0.056,0L0.056,-0.705L0.365,-0.705C0.422,-0.705 0.47,-0.695 0.509,-0.676C0.548,-0.656 0.578,-0.629 0.598,-0.595C0.618,-0.56 0.628,-0.522 0.628,-0.479C0.628,-0.431 0.615,-0.389 0.589,-0.353C0.562,-0.316 0.524,-0.29 0.473,-0.275L0.632,0L0.413,0ZM0.252,-0.394L0.349,-0.394C0.376,-0.394 0.396,-0.4 0.409,-0.413C0.422,-0.426 0.429,-0.444 0.429,-0.468C0.429,-0.491 0.422,-0.509 0.409,-0.522C0.395,-0.535 0.375,-0.541 0.349,-0.541L0.252,-0.541L0.252,-0.394Z" style="fill:rgb(70,49,116);fill-rule:nonzero;"/>
                </g>
                <g transform="matrix(4,0,0,4,89.224,22.96)">
                    <path d="M0.502,-0.115L0.252,-0.115L0.214,0L0.008,0L0.265,-0.705L0.491,-0.705L0.747,0L0.54,0L0.502,-0.115ZM0.453,-0.265L0.377,-0.493L0.302,-0.265L0.453,-0.265Z" style="fill:rgb(70,49,116);fill-rule:nonzero;"/>
                </g>
                <g transform="matrix(4,0,0,4,92.244,22.96)">
                    <path d="M0.613,-0.47C0.613,-0.427 0.603,-0.389 0.584,-0.354C0.564,-0.319 0.534,-0.291 0.495,-0.27C0.455,-0.249 0.406,-0.238 0.349,-0.238L0.252,-0.238L0.252,0L0.056,0L0.056,-0.705L0.349,-0.705C0.406,-0.705 0.454,-0.695 0.494,-0.675C0.533,-0.655 0.563,-0.627 0.583,-0.592C0.603,-0.557 0.613,-0.516 0.613,-0.47ZM0.33,-0.394C0.385,-0.394 0.413,-0.419 0.413,-0.47C0.413,-0.521 0.385,-0.547 0.33,-0.547L0.252,-0.547L0.252,-0.394L0.33,-0.394Z" style="fill:rgb(70,49,116);fill-rule:nonzero;"/>
                </g>
                <g transform="matrix(4,0,0,4,94.788,22.96)">
                    <path d="M0.697,-0.705L0.449,-0.224L0.449,0L0.252,0L0.252,-0.224L0.004,-0.705L0.228,-0.705L0.352,-0.433L0.476,-0.705L0.697,-0.705Z" style="fill:rgb(70,49,116);fill-rule:nonzero;"/>
                </g>
            </g>
        </g>
    </g>
    <defs>
        <linearGradient id="_Linear1" x1="0" y1="0" x2="1" y2="0" gradientUnits="userSpaceOnUse" gradientTransform="matrix(-6.79799,8.32514e-16,-8.32514e-16,-6.79799,80.6487,532.552)"><stop offset="0" style="stop-color:rgb(171,175,233);stop-opacity:1"/><stop offset="0.03" style="stop-color:rgb(171,175,233);stop-opacity:1"/><stop offset="1" style="stop-color:rgb(209,190,249);stop-opacity:1"/></linearGradient>
        <linearGradient id="_Linear2" x1="0" y1="0" x2="1" y2="0" gradientUnits="userSpaceOnUse" gradientTransform="matrix(-9.29613,1.13845e-15,-1.13845e-15,-9.29613,77.4384,537.291)"><stop offset="0" style="stop-color:rgb(171,175,233);stop-opacity:1"/><stop offset="0.03" style="stop-color:rgb(171,175,233);stop-opacity:1"/><stop offset="1" style="stop-color:rgb(209,190,249);stop-opacity:1"/></linearGradient>
        <linearGradient id="_Linear3" x1="0" y1="0" x2="1" y2="0" gradientUnits="userSpaceOnUse" gradientTransform="matrix(-6.36305,7.79249e-16,-7.79249e-16,-6.36305,83.8304,544.171)"><stop offset="0" style="stop-color:rgb(171,175,233);stop-opacity:1"/><stop offset="0.03" style="stop-color:rgb(171,175,233);stop-opacity:1"/><stop offset="1" style="stop-color:rgb(209,190,249);stop-opacity:1"/></linearGradient>
        <linearGradient id="_Linear4" x1="0" y1="0" x2="1" y2="0" gradientUnits="userSpaceOnUse" gradientTransform="matrix(6.36305,0,0,6.36305,73.6546,545.201)"><stop offset="0" style="stop-color:rgb(171,175,233);stop-opacity:1"/><stop offset="0.03" style="stop-color:rgb(171,175,233);stop-opacity:1"/><stop offset="1" style="stop-color:rgb(209,190,249);stop-opacity:1"/></linearGradient>
    </defs>
</svg>
