<?xml version="1.0" encoding="UTF-8" standalone="no"?>
<!DOCTYPE svg PUBLIC "-//W3C//DTD SVG 1.1//EN" "http://www.w3.org/Graphics/SVG/1.1/DTD/svg11.dtd">
<!-- Created with Vectornator (http://vectornator.io/) -->
<svg height="100%" stroke-miterlimit="10" style="fill-rule:nonzero;clip-rule:evenodd;stroke-linecap:round;stroke-linejoin:round;" version="1.1" viewBox="61.6912 394.935 300.956 198.95" width="100%" xml:space="preserve" xmlns="http://www.w3.org/2000/svg" xmlns:vectornator="http://vectornator.io" xmlns:xlink="http://www.w3.org/1999/xlink">
<defs>
<linearGradient gradientTransform="matrix(-0.413051 0 0 0.3293 357.382 479.549)" gradientUnits="userSpaceOnUse" id="LinearGradient" x1="670.717" x2="687.175" y1="178.3" y2="178.3">
<stop offset="0.025" stop-color="#abafe9"/>
<stop offset="1" stop-color="#d1bef9"/>
</linearGradient>
<linearGradient gradientTransform="matrix(-0.413051 0 0 0.347259 357.382 475.152)" gradientUnits="userSpaceOnUse" id="LinearGradient_2" x1="678.489" x2="700.995" y1="195.385" y2="195.385">
<stop offset="0.025" stop-color="#abafe9"/>
<stop offset="1" stop-color="#d1bef9"/>
</linearGradient>
<linearGradient gradientTransform="matrix(-0.413051 0 0 0.413051 354.786 458.985)" gradientUnits="userSpaceOnUse" id="LinearGradient_3" x1="656.729" x2="672.134" y1="220.061" y2="220.061">
<stop offset="0.025" stop-color="#abafe9"/>
<stop offset="1" stop-color="#d1bef9"/>
</linearGradient>
<linearGradient gradientTransform="matrix(0.413051 4.07393e-17 0 0.332661 -197.915 477.706)" gradientUnits="userSpaceOnUse" id="LinearGradient_4" x1="656.729" x2="672.134" y1="220.061" y2="220.061">
<stop offset="0.025" stop-color="#abafe9"/>
<stop offset="1" stop-color="#d1bef9"/>
</linearGradient>
</defs>
<clipPath id="ArtboardFrame">
<rect height="198.95" width="300.956" x="61.6912" y="394.935"/>
</clipPath>
<g clip-path="url(#ArtboardFrame)" id="Layer" vectornator:layerName="Layer">
<g opacity="1" vectornator:layerName="Group 1">
<g opacity="0" vectornator:layerName="Group 1">
<path d="M114.715 536.238C114.715 520.481 128.665 507.708 145.873 507.708L270.564 507.708C287.773 507.708 301.722 520.481 301.722 536.238L301.722 544.237C301.722 559.994 287.773 572.767 270.564 572.767L145.873 572.767C128.665 572.767 114.715 559.994 114.715 544.237L114.715 536.238Z" fill="#d1bef9" fill-rule="nonzero" opacity="1" stroke="#463174" stroke-linecap="butt" stroke-linejoin="round" stroke-width="2.16483" vectornator:layerName="Rectangle 1"/>
<path d="M114.649 521.969C114.652 452.299 136.815 468.709 210.754 468.709C284.693 468.709 303.594 454.86 301.657 521.969C300.988 545.111 254.905 545.121 208.153 545.121C161.401 545.121 114.648 545.542 114.649 521.969Z" fill="#d1bef9" fill-rule="nonzero" opacity="1" stroke="#463174" stroke-linecap="butt" stroke-linejoin="round" stroke-width="1.84828" vectornator:layerName="Curve 1"/>
<path d="M266.812 592.802" fill="none" opacity="1" stroke="#463174" stroke-linecap="butt" stroke-linejoin="round" stroke-width="2.16483" vectornator:layerName="Curve 2"/>
<path d="M105.374 543.123C105.374 532.613 113.729 524.093 124.036 524.093L124.036 524.093C134.342 524.093 142.697 532.613 142.697 543.123L142.697 551.784C142.697 562.294 134.342 570.814 124.036 570.814L124.036 570.814C113.729 570.814 105.374 562.294 105.374 551.784L105.374 543.123Z" fill="#d1bef9" fill-rule="nonzero" opacity="1" stroke="#463174" stroke-linecap="butt" stroke-linejoin="round" stroke-width="2.16483" vectornator:layerName="Rectangle 6"/>
<path d="M140.588 576.552C142.251 573.672 145.391 572.371 147.602 573.647L147.602 573.647C149.812 574.923 150.255 578.293 148.592 581.174L147.221 583.548C145.558 586.428 142.418 587.729 140.208 586.453L140.208 586.453C137.997 585.177 137.554 581.807 139.217 578.926L140.588 576.552Z" fill="#d1bef9" fill-rule="nonzero" opacity="1" stroke="#463174" stroke-linecap="butt" stroke-linejoin="round" stroke-width="2.16483" vectornator:layerName="Rectangle 7"/>
<path d="M271.393 581.174C269.73 578.293 270.173 574.923 272.384 573.647L272.384 573.647C274.594 572.371 277.734 573.672 279.397 576.552L280.768 578.926C282.431 581.807 281.988 585.177 279.777 586.453L279.777 586.453C277.567 587.729 274.427 586.428 272.764 583.548L271.393 581.174Z" fill="#d1bef9" fill-rule="nonzero" opacity="1" stroke="#463174" stroke-linecap="butt" stroke-linejoin="round" stroke-width="2.16483" vectornator:layerName="Rectangle 5"/>
<path d="M274.411 543.123C274.411 532.613 282.765 524.093 293.072 524.093L293.072 524.093C303.378 524.093 311.733 532.613 311.733 543.123L311.733 551.784C311.733 562.294 303.378 570.814 293.072 570.814L293.072 570.814C282.765 570.814 274.411 562.294 274.411 551.784L274.411 543.123Z" fill="#d1bef9" fill-rule="nonzero" opacity="1" stroke="#463174" stroke-linecap="butt" stroke-linejoin="round" stroke-width="2.16483" vectornator:layerName="Rectangle 4"/>
<path d="M166.498 504.308C166.498 504.308 172.202 496.13 179.437 504.5" fill="none" opacity="1" stroke="#463174" stroke-linecap="square" stroke-linejoin="round" stroke-width="2.16483" vectornator:layerName="Curve 5"/>
<path d="M242.173 504.308C242.173 504.308 247.877 496.13 255.112 504.5" fill="none" opacity="1" stroke="#463174" stroke-linecap="square" stroke-linejoin="round" stroke-width="2.16483" vectornator:layerName="Curve 4"/>
<path d="M189.244 532.871C191.066 545.842 201.286 542.986 211.286 542.973C221.286 542.96 228.703 545.311 230.324 534.718C231.995 523.794 228.51 503.882 210.469 503.593C192.427 503.304 188.063 524.466 189.244 532.871Z" fill="#ffffff" fill-rule="nonzero" opacity="1" stroke="#463174" stroke-linecap="butt" stroke-linejoin="round" stroke-width="2.16483" vectornator:layerName="Curve 1"/>
<path d="M181.082 530.073C182.822 524.82 188.444 523.686 192.873 525.113C197.301 526.539 203.094 528.497 201.355 533.748C199.566 539.15 191.673 542.486 187.268 540.988C182.864 539.489 179.342 535.327 181.082 530.073Z" fill="#d1bef9" fill-rule="nonzero" opacity="1" stroke="none" vectornator:layerName="Oval 2"/>
<path d="M238.68 530.073C236.94 524.82 231.317 523.686 226.888 525.113C222.46 526.539 216.667 528.497 218.406 533.748C220.195 539.15 228.088 542.486 232.493 540.988C236.897 539.489 240.42 535.327 238.68 530.073Z" fill="#d1bef9" fill-rule="nonzero" opacity="1" stroke="none" vectornator:layerName="Oval 1"/>
<path d="M199.768 517.386C199.768 517.386 200.598 521.759 204.029 518.43" fill="none" opacity="1" stroke="#463174" stroke-linecap="butt" stroke-linejoin="round" stroke-width="1.18" vectornator:layerName="Curve 4"/>
<path d="M216.186 517.386C216.186 517.386 217.017 521.759 220.447 518.43" fill="none" opacity="1" stroke="#463174" stroke-linecap="butt" stroke-linejoin="round" stroke-width="1.18" vectornator:layerName="Curve 3"/>
<path d="M208.601 522.347C208.799 521.608 209.56 521.169 210.299 521.367C211.039 521.565 211.478 522.325 211.279 523.065C211.081 523.804 210.321 524.243 209.582 524.045C208.842 523.847 208.403 523.087 208.601 522.347Z" fill="#463174" fill-rule="nonzero" opacity="1" stroke="none" vectornator:layerName="Oval 1"/>
</g>
<path d="M350.902 431.746C351.16 446.791 354.257 462.503 362.647 477.548C354.74 477.548 346.846 477.548 338.938 477.548L338.938 560.418C339.518 560.418 340.107 560.418 340.686 560.418C341.896 563.032 342.681 565.707 343.473 568.375C344.718 572.571 345.596 576.781 345.275 580.893C339.898 580.893 334.482 580.893 329.105 580.893C328.784 576.782 329.651 572.57 330.908 568.375C331.707 565.706 332.539 563.033 333.749 560.418C334.314 560.418 334.876 560.418 335.442 560.418L335.442 477.548C332.641 477.548 329.831 477.548 327.029 477.548L327.029 518.061C328.04 518.308 328.887 519.691 328.886 521.554C328.887 523.589 327.956 525.242 326.811 525.242C325.665 525.242 324.735 523.589 324.735 521.554C324.735 519.663 325.559 518.223 326.592 518.012L326.592 477.548C321.638 477.548 316.687 477.548 311.733 477.548C320.125 462.502 323.223 446.791 323.478 431.746C332.619 431.746 341.761 431.746 350.902 431.746Z" fill="#d1bef9" fill-rule="nonzero" opacity="1" stroke="none"/>
<g opacity="1" vectornator:layerName="Group 1">
<path d="M134.231 431.311L134.231 433.637L208.554 433.637L208.554 431.311L134.231 431.311Z" fill="#d1bef9" fill-rule="nonzero" opacity="1" stroke="none" vectornator:layerName="Curve 102"/>
<path d="M187.451 414.271L187.451 431.311L194.401 431.311L194.401 414.271L187.451 414.271Z" fill="#d1bef9" fill-rule="nonzero" opacity="1" stroke="none" vectornator:layerName="Curve 103"/>
<path d="M160.07 406.228L155.951 430.666L159.762 431.311L163.91 406.873L160.07 406.228Z" fill="#d1bef9" fill-rule="nonzero" opacity="1" stroke="none" vectornator:layerName="Curve 104"/>
<path d="M179.436 409.647L179.436 431.311L184.844 431.311L184.844 409.647L179.436 409.647Z" fill="#d1bef9" fill-rule="nonzero" opacity="1" stroke="none" vectornator:layerName="Curve 105"/>
<path d="M171.645 410.404L171.645 431.311L177.053 431.311L177.053 410.404L171.645 410.404Z" fill="#d1bef9" fill-rule="nonzero" opacity="1" stroke="none" vectornator:layerName="Curve 106"/>
<path d="M163.545 409.647L163.545 431.311L170.496 431.311L170.496 409.647L163.545 409.647Z" fill="#d1bef9" fill-rule="nonzero" opacity="1" stroke="none" vectornator:layerName="Curve 107"/>
<path d="M147.935 411.189L147.935 431.311L154.914 431.311L154.914 411.189L147.935 411.189Z" fill="#d1bef9" fill-rule="nonzero" opacity="1" stroke="none" vectornator:layerName="Curve 108"/>
</g>
<g opacity="1" vectornator:layerName="Group 7">
<g opacity="1" vectornator:layerName="Group 4">
<path d="M262.694 430.667L262.694 433.206C262.694 433.78 263.584 433.78 263.584 433.206L263.584 430.667C263.584 430.093 262.694 430.093 262.694 430.667Z" fill="#d1bef9" fill-rule="nonzero" opacity="1" stroke="none" vectornator:layerName="path"/>
<path d="M254.639 428.273L253.294 430.451C252.992 430.941 253.762 431.387 254.063 430.9L255.407 428.722C255.71 428.233 254.94 427.786 254.639 428.273Z" fill="#d1bef9" fill-rule="nonzero" opacity="1" stroke="none" vectornator:layerName="path 1"/>
<path d="M248.727 422.049L246.524 423.362C246.032 423.655 246.479 424.425 246.974 424.13L249.176 422.818C249.669 422.524 249.221 421.755 248.727 422.049Z" fill="#d1bef9" fill-rule="nonzero" opacity="1" stroke="none" vectornator:layerName="path 2"/>
<path d="M246.718 413.841L244.218 413.841C243.644 413.841 243.644 414.731 244.218 414.731L246.718 414.731C247.292 414.731 247.292 413.841 246.718 413.841Z" fill="#d1bef9" fill-rule="nonzero" opacity="1" stroke="none" vectornator:layerName="path 3"/>
<path d="M249.208 405.683L246.974 404.441C246.472 404.162 246.023 404.931 246.524 405.21L248.759 406.451C249.261 406.73 249.71 405.962 249.208 405.683Z" fill="#d1bef9" fill-rule="nonzero" opacity="1" stroke="none" vectornator:layerName="path 4"/>
<path d="M255.279 399.827L254.062 397.672C253.78 397.172 253.011 397.621 253.294 398.121L254.511 400.276C254.793 400.775 255.562 400.327 255.279 399.827Z" fill="#d1bef9" fill-rule="nonzero" opacity="1" stroke="none" vectornator:layerName="path 5"/>
<path d="M263.584 397.871L263.584 395.365C263.584 394.791 262.694 394.791 262.694 395.365L262.694 397.871C262.694 398.445 263.584 398.445 263.584 397.871Z" fill="#d1bef9" fill-rule="nonzero" opacity="1" stroke="none" vectornator:layerName="path 6"/>
<path d="M271.782 400.347L272.983 398.121C273.256 397.616 272.487 397.167 272.215 397.672L271.014 399.898C270.741 400.403 271.51 400.852 271.782 400.347Z" fill="#d1bef9" fill-rule="nonzero" opacity="1" stroke="none" vectornator:layerName="path 7"/>
<path d="M277.549 406.522L279.752 405.209C280.244 404.916 279.797 404.146 279.303 404.441L277.1 405.754C276.608 406.047 277.055 406.817 277.549 406.522Z" fill="#d1bef9" fill-rule="nonzero" opacity="1" stroke="none" vectornator:layerName="path 8"/>
<path d="M279.514 414.731L282.06 414.731C282.633 414.731 282.633 413.841 282.06 413.841L279.514 413.841C278.941 413.841 278.941 414.731 279.514 414.731Z" fill="#d1bef9" fill-rule="nonzero" opacity="1" stroke="none" vectornator:layerName="path 9"/>
<path d="M277.133 422.891L279.304 424.13C279.803 424.415 280.251 423.646 279.753 423.362L277.582 422.122C277.083 421.837 276.635 422.606 277.133 422.891Z" fill="#d1bef9" fill-rule="nonzero" opacity="1" stroke="none" vectornator:layerName="path 10"/>
<path d="M270.95 428.649L272.215 430.9C272.496 431.4 273.265 430.951 272.983 430.451L271.718 428.2C271.437 427.7 270.668 428.148 270.95 428.649Z" fill="#d1bef9" fill-rule="nonzero" opacity="1" stroke="none" vectornator:layerName="path 11"/>
<path d="M263.241 413.151L263.179 413.151C262.572 413.151 262.066 413.657 262.066 414.263C262.066 414.87 262.572 415.376 263.179 415.376L263.241 415.376C263.848 415.376 264.354 414.87 264.354 414.263C264.354 413.657 263.848 413.151 263.241 413.151Z" fill="#d1bef9" fill-rule="nonzero" opacity="1" stroke="none" vectornator:layerName="path 12"/>
<path d="M263.393 414.329L263.393 404.333C263.393 404.046 262.948 404.046 262.948 404.333L262.948 414.329C262.948 414.616 263.393 414.616 263.393 414.329Z" fill="#d1bef9" fill-rule="nonzero" opacity="1" stroke="none" vectornator:layerName="path 13"/>
<path d="M263.292 414.151L256.701 402.746L256.173 401.833C256.03 401.585 255.645 401.809 255.789 402.058L262.38 413.463L262.908 414.375C263.051 414.623 263.436 414.399 263.292 414.151Z" fill="#d1bef9" fill-rule="nonzero" opacity="1" stroke="none" vectornator:layerName="path 14"/>
</g>
</g>
<g opacity="1" vectornator:layerName="g 3">
<path d="M77.1869 562.348L77.98 562.213C77.885 561.857 68.6244 526.477 80.3427 514.58L79.7066 514.181C67.757 526.316 76.7946 560.883 77.1869 562.348Z" fill="url(#LinearGradient)" fill-rule="nonzero" opacity="1" stroke="none" vectornator:layerName="path"/>
<path d="M74.6839 563.096C74.9482 561.717 81.0696 529.269 72.8912 523.734C71.5116 522.8 69.8099 522.657 67.8355 523.31L68.1329 523.942C69.8388 523.376 71.2308 523.48 72.3832 524.262C80.1981 529.55 73.9486 562.651 73.8825 562.985L74.6839 563.096Z" fill="url(#LinearGradient_2)" fill-rule="nonzero" opacity="1" stroke="none" vectornator:layerName="path"/>
<path d="M77.1603 561.558L77.9698 561.554C77.9698 561.368 77.9285 542.913 83.5254 538.861L83.0504 538.204C77.1189 542.5 77.1561 560.781 77.1603 561.558Z" fill="url(#LinearGradient_3)" fill-rule="nonzero" opacity="1" stroke="none" vectornator:layerName="path 6"/>
<path d="M79.7107 560.315L78.9011 560.312C78.9011 560.162 78.9424 545.299 73.3456 542.036L73.8206 541.507C79.752 544.966 79.7148 559.69 79.7107 560.315Z" fill="url(#LinearGradient_4)" fill-rule="nonzero" opacity="1" stroke="none" vectornator:layerName="path"/>
<g opacity="1" vectornator:layerName="g">
<path d="M70.8072 580.893C67.414 576.296 67.5662 567.174 67.5662 560.319L67.5662 560.315L86.3239 560.315L86.3239 560.319C86.3239 567.171 86.0402 576.296 82.5018 580.893L70.8072 580.893Z" fill="#d1bef9" fill-rule="nonzero" opacity="1" stroke="none" vectornator:layerName="path"/>
<path d="M70.8038 580.893L74.1036 580.893C70.7104 576.296 70.8626 567.174 70.8626 560.319L70.8626 560.315L67.5628 560.315L67.5628 560.319C67.5662 567.174 67.4106 576.296 70.8038 580.893Z" fill="#b9a6e1" fill-rule="nonzero" opacity="0.2" stroke="none" vectornator:layerName="path"/>
<path d="M84.9334 560.834C84.7847 562.28 84.5218 563.726 84.3246 565.165C84.086 566.919 83.8923 568.676 83.6328 570.426C83.3942 572.173 83.1555 573.919 82.858 575.656C82.6125 577.091 82.27 578.482 81.8653 579.879C83.5775 577.129 84.1482 573.84 84.6186 570.685C84.8884 568.883 85.0095 567.047 85.0648 565.231C85.1098 563.781 85.1444 562.277 84.9334 560.834Z" fill="#ffffff" fill-rule="nonzero" opacity="0.3" stroke="none" vectornator:layerName="path"/>
</g>
<path d="M81.8787 533.657C80.9567 531.745 76.8596 533.085 76.5565 534.882C76.4623 535.436 76.6199 535.937 76.7935 536.461C77.1896 536.094 79.4107 533.904 79.9041 534.868C78.8579 536.196 76.5689 536.333 77.0157 538.478C77.1135 538.94 77.3136 539.301 77.7099 539.572C78.062 538.87 78.4046 538.13 78.8533 537.482C79.0675 537.173 80.3876 535.932 80.3525 536.969C80.3337 537.571 79.2636 538.43 78.9213 538.918C78.4428 539.603 78.2316 540.024 78.5405 540.842C78.884 541.751 79.2626 542.4 80.2541 542.629C80.3689 542.007 81.4255 537.836 82.602 538.804C83.1945 539.289 82.1294 540.329 81.8976 540.765C81.5685 541.384 81.0224 542.208 81.0263 542.926C81.0305 543.917 81.7935 544.495 82.6323 544.824C83.0394 544.504 82.6984 543.168 82.7297 542.669C82.77 542.034 83.0675 541.229 83.7206 540.998C84.1736 541.866 83.849 542.546 83.6726 543.432C83.5284 544.158 83.6642 545.256 84.6446 545.019C85.1036 544.909 85.4786 544.542 85.9554 544.472C86.3694 544.41 86.6397 544.624 87.0226 544.703C87.9176 544.885 88.4416 543.967 88.228 543.155C87.9988 542.281 87.0009 541.608 86.4955 540.874C87.3225 540.656 87.805 541.267 88.1948 541.917C88.476 542.384 88.7624 543.664 89.4418 542.957C90.0477 542.325 89.5825 541.581 89.3172 540.924C88.995 540.135 88.6141 539.867 87.896 539.445C87.2603 539.072 86.5414 538.934 86.0675 538.333C86.6597 537.555 87.6573 538.427 88.1608 538.832C88.7647 539.325 89.3998 539.678 89.8739 540.286C90.4078 539.632 90.7972 539.02 90.2774 538.219C89.819 537.514 89.0661 537.153 88.2845 536.925C87.5538 536.712 86.4122 536.939 85.7912 536.487C84.7104 535.699 86.8695 535.624 87.3366 535.768C88.2752 536.058 89.2056 536.618 89.98 537.204C90.3408 536.359 90.0377 535.499 89.1993 535.131C88.5463 534.845 87.6526 534.454 86.9415 534.504C86.5098 534.532 85.9928 534.773 85.5801 534.571C86.1089 533.781 88.2776 534.169 89.0542 534.475C89.1016 533.58 87.7343 533.325 87.0966 533.399C86.7394 533.441 84.8212 533.987 84.8705 533.269C84.8997 532.845 85.6653 532.844 85.9629 532.877C86.2402 531.842 84.4986 532.034 84.0088 532.193C83.5453 532.341 83.1391 532.59 82.7811 532.916C82.5037 533.167 82.1753 533.655 81.7529 533.614" fill="#d1bef9" fill-rule="nonzero" opacity="1" stroke="none" vectornator:layerName="path 5"/>
<path d="M76.5283 544.148C76.4531 543.978 76.3561 543.82 76.2332 543.665C76.5279 543.382 76.226 543.062 76.0886 542.786C75.9342 542.473 75.8224 542.161 75.6278 541.865C75.4104 541.535 75.1038 541.363 74.847 541.077C74.5769 540.779 74.6434 540.572 75.0206 540.778C75.2578 540.909 75.6288 541.006 75.419 540.576C75.3128 540.361 74.9744 540.149 74.7906 539.997C74.2801 539.573 73.5251 539.365 72.865 539.364C72.2549 539.365 71.6893 539.774 71.1304 539.987C70.8174 539.957 70.6695 539.718 70.4565 539.459C69.907 538.792 69.0945 538.599 68.2672 538.57C67.5125 538.544 66.4437 538.496 66.2508 539.407C66.637 539.319 67.4643 539.164 67.769 539.5C67.5464 539.756 67.0824 539.608 66.7917 539.597C65.6995 539.553 63.8003 539.514 63.3798 540.831C63.6106 540.871 63.9585 540.737 64.2069 540.694C65.2762 540.505 66.2961 540.326 67.3426 540.673C66.395 540.656 65.4563 540.648 64.529 540.881C63.7037 541.089 62.8014 541.424 62.3856 542.226C62.0478 542.878 62.1296 543.773 63.0223 543.318C63.8577 542.892 64.5481 542.441 65.4863 542.253C66.3751 542.074 67.1013 542.139 67.947 542.463C67.2886 542.701 66.5947 542.74 65.924 542.926C65.248 543.114 64.6675 543.354 64.122 543.796C63.634 544.191 62.8533 544.471 62.5864 545.071C62.3507 545.598 62.5685 546.276 62.5783 546.829C62.5897 547.438 62.5628 548.034 62.6349 548.642C62.6923 548.563 62.75 548.481 62.8053 548.398C63.0595 548.016 63.2212 547.579 63.4895 547.204C63.812 546.753 64.2686 546.449 64.6994 546.116C64.9533 545.92 66.8495 544.225 67.0142 545.205C67.1233 545.852 65.5698 546.577 65.1667 546.927C64.4393 547.556 63.9248 548.411 63.4843 549.259C63.0116 550.171 63.6807 550.73 64.1472 551.463C64.1645 551.199 64.1821 550.932 64.2239 550.671C64.3338 549.959 64.6929 549.517 65.1779 549.008C65.3844 548.792 66.8666 547.219 67.1089 547.868C67.2077 548.132 66.8498 548.6 66.7389 548.818C66.5949 549.103 66.5205 549.379 66.4392 549.685C66.2497 550.389 65.5228 550.781 65.3434 551.452C65.0507 552.557 66.9746 553.135 67.7249 553.273C68.3869 553.396 69.1583 553.444 69.8214 553.325C70.661 553.172 70.7454 552.746 70.4058 552.057C70.0349 551.308 70.032 550.459 69.6585 549.694C69.5333 549.438 68.4159 547.256 69.3848 547.332C69.6888 547.355 69.8336 547.848 69.926 548.071C70.0975 548.488 70.2844 548.886 70.4937 549.286C70.7382 549.754 70.9364 550.227 71.0843 550.733C71.2144 551.174 71.293 551.722 71.5709 552.102C72.027 552.72 72.5548 551.877 72.7586 551.462C73.0375 550.899 72.8596 550.358 72.7673 549.767C72.6503 549.006 72.3822 548.411 72.0849 547.709C71.8967 547.27 71.7544 546.81 71.5282 546.388C71.2667 545.899 70.9037 545.499 70.5606 545.067C70.4102 544.878 70.0866 544.534 70.3574 544.326C70.5805 544.15 71.0389 544.335 71.2467 544.445C71.7647 544.72 72.3525 545.267 72.7189 545.728C73.1744 546.301 73.4603 547.178 73.6342 547.88C73.8344 548.691 73.6943 549.519 73.7996 550.341C73.9033 550.239 74.0074 550.133 74.1069 550.025C74.9014 549.152 75.8101 547.923 75.4473 546.686C75.2712 546.083 74.7898 545.632 74.4435 545.121C73.914 544.338 73.3567 543.806 72.6116 543.232C72.4512 543.11 72.0083 542.821 72.1006 542.56C72.1842 542.323 72.5826 542.388 72.7627 542.431C73.3478 542.562 73.8865 542.983 74.2707 543.427C74.6636 543.879 75.0068 544.427 75.2878 544.954C75.4219 545.201 75.749 546.54 76.0586 546.527C76.0991 546.525 76.1369 546.508 76.1731 546.486L76.5258 544.148L76.5283 544.148ZM71.1371 539.993L71.2007 539.972L71.3066 539.988C71.2449 539.997 71.1892 539.998 71.1371 539.993Z" fill="#d1bef9" fill-rule="nonzero" opacity="1" stroke="none" vectornator:layerName="path 3"/>
<path d="M75.4949 520.642C75.506 520.434 75.5447 520.23 75.6119 520.019C75.1911 519.84 75.3799 519.385 75.4144 519.042C75.4517 518.653 75.4449 518.283 75.5309 517.895C75.6272 517.463 75.8798 517.161 76.0351 516.76C76.1995 516.342 76.0479 516.152 75.7347 516.517C75.5387 516.748 75.1887 516.996 75.2376 516.463C75.2633 516.196 75.5331 515.84 75.6655 515.608C76.0311 514.961 76.7389 514.445 77.4291 514.181C78.068 513.94 78.8222 514.143 79.4915 514.144C79.8074 513.989 79.8673 513.68 79.9873 513.325C80.2973 512.408 81.071 511.883 81.9251 511.525C82.7047 511.198 83.8042 510.724 84.3676 511.6C83.9286 511.662 83.0014 511.828 82.8158 512.3C83.1505 512.48 83.5773 512.141 83.877 512.014C85.0026 511.535 86.9743 510.739 87.9374 511.951C87.7117 512.084 87.2945 512.082 87.0174 512.136C85.8234 512.362 84.6851 512.58 83.7278 513.359C84.7126 512.965 85.6918 512.584 86.7547 512.459C87.7009 512.35 88.7782 512.342 89.5315 513.016C90.1439 513.564 90.4134 514.533 89.2986 514.411C88.2553 514.297 87.3541 514.1 86.2974 514.275C85.2965 514.441 84.5621 514.797 83.8057 515.472C84.5894 515.46 85.3309 515.225 86.1067 515.153C86.8887 515.082 87.5915 515.102 88.3377 515.348C89.0053 515.568 89.9335 515.551 90.451 516.073C90.9066 516.53 90.9478 517.326 91.1573 517.909C91.3871 518.551 91.6518 519.164 91.8178 519.829C91.7262 519.769 91.6332 519.706 91.5426 519.641C91.1247 519.342 90.7821 518.949 90.3524 518.663C89.8361 518.32 89.2375 518.183 88.6545 518.005C88.311 517.901 85.6538 516.88 85.8706 517.971C86.013 518.691 87.9268 518.833 88.4876 519.04C89.4983 519.409 90.3761 520.099 91.1738 520.812C92.0304 521.578 91.5523 522.429 91.3552 523.382C91.2322 523.112 91.1078 522.839 90.9604 522.583C90.5629 521.882 90.0116 521.562 89.3019 521.222C89.0002 521.078 86.8245 520.02 86.8286 520.795C86.8302 521.111 87.3904 521.458 87.5929 521.642C87.8569 521.884 88.0444 522.143 88.2507 522.43C88.7287 523.093 89.645 523.214 90.0991 523.845C90.8441 524.885 89.06 526.253 88.3299 526.696C87.6858 527.087 86.8977 527.444 86.1565 527.582C85.2171 527.756 84.9598 527.343 85.0417 526.488C85.1325 525.557 84.7981 524.667 84.8856 523.718C84.9151 523.401 85.218 520.674 84.2341 521.138C83.9252 521.282 83.9694 521.856 83.9613 522.126C83.9472 522.63 83.9099 523.121 83.8494 523.623C83.7794 524.209 83.7599 524.783 83.806 525.372C83.8447 525.884 83.9804 526.49 83.8402 526.997C83.6084 527.825 82.7215 527.153 82.3433 526.799C81.828 526.321 81.7995 525.684 81.6614 525.029C81.4818 524.186 81.5262 523.457 81.5583 522.604C81.581 522.07 81.5473 521.532 81.6163 521C81.6962 520.386 81.9173 519.823 82.1047 519.234C82.187 518.977 82.3893 518.489 82.023 518.378C81.7199 518.283 81.3136 518.659 81.1397 518.856C80.7066 519.349 80.3088 520.155 80.1084 520.783C79.8592 521.563 79.9082 522.595 80.0048 523.398C80.1175 524.326 80.5928 525.137 80.8091 526.04C80.6597 525.973 80.509 525.904 80.3618 525.83C79.1838 525.232 77.7451 524.307 77.6338 522.869C77.5784 522.167 77.9033 521.505 78.0629 520.833C78.3062 519.803 78.6778 519.024 79.2298 518.128C79.3491 517.936 79.698 517.459 79.4979 517.222C79.3163 517.008 78.9253 517.234 78.7536 517.35C78.1934 517.719 77.797 518.374 77.571 518.991C77.3395 519.62 77.198 520.33 77.1129 520.992C77.0706 521.304 77.2601 522.836 76.9307 522.944C76.8877 522.959 76.8414 522.956 76.7948 522.947L75.4973 520.64L75.4949 520.642ZM79.487 514.153L79.4122 514.157L79.3077 514.216C79.3756 514.2 79.4346 514.18 79.487 514.153Z" fill="#d1bef9" fill-rule="nonzero" opacity="1" stroke="none" vectornator:layerName="path 2"/>
<path d="M76.5283 526.42C76.4506 526.244 76.3501 526.08 76.223 525.92C76.5284 525.627 76.2159 525.295 76.0737 525.01C75.914 524.685 75.7985 524.362 75.5971 524.055C75.3722 523.713 75.0547 523.535 74.7889 523.238C74.5094 522.93 74.5783 522.716 74.9689 522.929C75.2145 523.065 75.5987 523.165 75.3817 522.72C75.2719 522.497 74.9215 522.277 74.7312 522.12C74.2027 521.68 73.4209 521.465 72.7373 521.463C72.1054 521.464 71.5193 521.887 70.9404 522.107C70.6162 522.076 70.4631 521.829 70.2427 521.56C69.6741 520.869 68.8326 520.668 67.9758 520.638C67.1942 520.611 66.0872 520.56 65.8869 521.504C66.287 521.413 67.1439 521.253 67.4593 521.601C67.2285 521.866 66.748 521.712 66.447 521.701C65.3159 521.655 63.3488 521.612 62.9125 522.977C63.1515 523.018 63.5119 522.88 63.7692 522.835C64.8768 522.64 65.9332 522.456 67.0168 522.815C66.0355 522.797 65.0632 522.788 64.1027 523.029C63.2478 523.244 62.313 523.591 61.8819 524.421C61.5316 525.096 61.6158 526.022 62.5407 525.552C63.4062 525.111 64.1215 524.645 65.0933 524.45C66.0139 524.266 66.766 524.333 67.6417 524.669C66.9597 524.916 66.241 524.956 65.5462 525.148C64.846 525.342 64.2445 525.591 63.6793 526.048C63.1736 526.457 62.3648 526.747 62.088 527.368C61.8436 527.913 62.0687 528.615 62.0785 529.188C62.0899 529.819 62.0617 530.436 62.136 531.066C62.1954 530.984 62.2553 530.899 62.3126 530.813C62.5762 530.417 62.7439 529.965 63.022 529.577C63.3563 529.11 63.8294 528.796 64.2758 528.451C64.5389 528.248 66.5039 526.494 66.6738 527.509C66.7864 528.179 65.177 528.929 64.7593 529.292C64.0055 529.942 63.4721 530.827 63.0154 531.706C62.5252 532.649 63.2178 533.229 63.7005 533.989C63.7185 533.715 63.7369 533.439 63.7804 533.168C63.8947 532.431 64.2669 531.974 64.7696 531.447C64.9835 531.223 66.5197 529.595 66.7703 530.267C66.8723 530.541 66.5014 531.025 66.3864 531.25C66.2371 531.546 66.1599 531.832 66.0754 532.148C65.8787 532.878 65.1256 533.283 64.9394 533.978C64.6356 535.123 66.6278 535.722 67.4048 535.866C68.0903 535.993 68.8892 536.044 69.5761 535.921C70.4458 535.763 70.5334 535.322 70.1821 534.608C69.7985 533.832 69.7961 532.952 69.4097 532.16C69.2801 531.895 68.1243 529.634 69.1277 529.713C69.4425 529.737 69.5923 530.248 69.6878 530.479C69.8652 530.911 70.0584 531.324 70.275 531.738C70.5279 532.222 70.7329 532.713 70.8858 533.237C71.0202 533.694 71.1012 534.262 71.3888 534.655C71.8608 535.296 72.408 534.423 72.6193 533.993C72.9086 533.411 72.7246 532.85 72.6294 532.238C72.5087 531.45 72.2314 530.833 71.924 530.106C71.7293 529.651 71.5822 529.174 71.3483 528.737C71.0777 528.231 70.702 527.816 70.347 527.369C70.1913 527.173 69.8563 526.817 70.137 526.601C70.3681 526.419 70.8428 526.611 71.058 526.724C71.5943 527.009 72.2027 527.577 72.5819 528.054C73.0532 528.648 73.3489 529.557 73.5285 530.283C73.7353 531.124 73.5897 531.981 73.6982 532.833C73.8057 532.727 73.9136 532.618 74.0167 532.506C74.8402 531.602 75.782 530.33 75.407 529.049C75.2251 528.423 74.7268 527.956 74.3684 527.427C73.8205 526.616 73.2437 526.064 72.4724 525.469C72.3063 525.342 71.8478 525.043 71.9435 524.773C72.0303 524.528 72.4429 524.595 72.6294 524.639C73.2352 524.776 73.7929 525.212 74.1906 525.672C74.5972 526.141 74.9523 526.709 75.243 527.254C75.3817 527.51 75.7197 528.898 76.0403 528.884C76.0822 528.882 76.1214 528.865 76.1589 528.842L76.5257 526.42L76.5283 526.42ZM70.9473 522.114L71.0132 522.092L71.1229 522.109C71.0589 522.117 71.0012 522.119 70.9473 522.114Z" fill="#d1bef9" fill-rule="nonzero" opacity="1" stroke="none" vectornator:layerName="path"/>
</g>
</g>
</g>
</svg>
