<?xml version="1.0" encoding="UTF-8" standalone="no"?>
<!DOCTYPE svg PUBLIC "-//W3C//DTD SVG 1.1//EN" "http://www.w3.org/Graphics/SVG/1.1/DTD/svg11.dtd">
<svg width="100%" height="100%" viewBox="0 0 159 202" version="1.1" xmlns="http://www.w3.org/2000/svg" xmlns:xlink="http://www.w3.org/1999/xlink" xml:space="preserve" xmlns:serif="http://www.serif.com/" style="fill-rule:evenodd;clip-rule:evenodd;stroke-linejoin:round;stroke-miterlimit:10;">
    <g id="Layer" transform="matrix(1,0,0,1,-1687.93,-118.631)">
        <g>
            <g>
                <path d="M1706.75,148.429C1706.75,140.177 1712.79,133.487 1720.23,133.487L1780.73,133.487C1788.17,133.487 1794.2,140.177 1794.2,148.429L1794.2,279.039C1794.2,287.291 1788.17,293.98 1780.73,293.98L1720.23,293.98C1712.79,293.98 1706.75,287.291 1706.75,279.039L1706.75,148.429Z" style="fill:rgb(192,163,255);fill-rule:nonzero;stroke:rgb(70,49,116);stroke-width:2.8px;"/>
                <path d="M1738.78,138.789C1738.78,137.221 1740.05,135.95 1741.62,135.95L1759.34,135.95C1760.91,135.95 1762.18,137.221 1762.18,138.789C1762.18,140.357 1760.91,141.628 1759.34,141.628L1741.62,141.628C1740.05,141.628 1738.78,140.357 1738.78,138.789Z" style="fill:rgb(70,49,116);fill-rule:nonzero;"/>
                <path d="M1794.71,169.864L1792.83,169.864L1792.83,192.152L1794.71,192.152C1795.76,192.152 1796.6,191.307 1796.6,190.264L1796.6,171.751C1796.6,170.709 1795.76,169.864 1794.71,169.864Z" style="fill:rgb(70,49,116);fill-rule:nonzero;"/>
                <path d="M1705.47,161.289L1706.75,161.289L1706.75,169.864L1705.47,169.864C1704.76,169.864 1704.19,169.29 1704.19,168.581L1704.19,162.572C1704.19,161.864 1704.76,161.289 1705.47,161.289Z" style="fill:rgb(70,49,116);fill-rule:nonzero;"/>
                <path d="M1705.47,175.182L1706.75,175.182L1706.75,187.43L1705.47,187.43C1704.76,187.43 1704.19,186.855 1704.19,186.147L1704.19,176.464C1704.19,175.756 1704.76,175.182 1705.47,175.182Z" style="fill:rgb(70,49,116);fill-rule:nonzero;"/>
                <path d="M1705.47,188.897L1706.75,188.897L1706.75,201.145L1705.47,201.145C1704.76,201.145 1704.19,200.57 1704.19,199.862L1704.19,190.18C1704.19,189.471 1704.76,188.897 1705.47,188.897Z" style="fill:rgb(70,49,116);fill-rule:nonzero;"/>
                <path d="M1802.22,312.777C1802.22,309.156 1812.04,306.22 1824.15,306.22C1836.26,306.22 1846.08,309.156 1846.08,312.777C1846.08,316.399 1836.26,319.334 1824.15,319.334C1812.04,319.334 1802.22,316.399 1802.22,312.777Z" style="fill:rgb(116,81,194);fill-rule:nonzero;"/>
                <g>
                    <path d="M1800.7,299.524C1802.29,290.206 1811,283.919 1820.16,285.482C1829.31,287.044 1835.45,295.866 1833.86,305.184C1832.27,314.503 1831.12,321.189 1814.4,319.227C1797.69,317.267 1799.11,308.843 1800.7,299.524Z" style="fill:white;fill-rule:nonzero;stroke:rgb(70,49,116);stroke-width:0.75px;"/>
                </g>
                <path d="M1801.32,297.177C1803.48,298.941 1804.2,299.207 1804.43,299.351C1804.43,299.351 1804.31,299.614 1804.16,299.877C1803.67,300.725 1801.51,300.779 1800.54,300.471L1801.32,297.177Z" style="fill:rgb(70,49,116);fill-rule:nonzero;"/>
                <g>
                    <path d="M1806.01,293.315C1806.21,291.999 1807.43,291.09 1808.74,291.285C1810.05,291.481 1810.96,292.706 1810.76,294.023C1810.57,295.339 1809.34,296.248 1808.03,296.053C1806.72,295.858 1805.82,294.632 1806.01,293.315Z" style="fill:rgb(70,49,116);fill-rule:nonzero;"/>
                    <path d="M1806.74,292.458C1806.82,291.881 1807.36,291.483 1807.93,291.568C1808.51,291.654 1808.91,292.191 1808.82,292.768C1808.73,293.345 1808.2,293.743 1807.62,293.657C1807.05,293.572 1806.65,293.035 1806.74,292.458Z" style="fill:white;fill-rule:nonzero;"/>
                </g>
                <path d="M1800.88,300.553C1800.88,300.553 1801.31,299.404 1802.31,299.052C1803.33,298.695 1804.43,299.35 1804.43,299.35C1804.43,299.35 1804.08,300.692 1802.32,300.694C1801.31,300.695 1800.88,300.553 1800.88,300.553Z" style="fill:rgb(89,63,146);fill-rule:nonzero;"/>
                <path d="M1815.35,258.813L1816.15,258.813C1816.34,258.813 1816.5,258.97 1816.5,259.16L1816.5,259.956C1816.5,260.148 1816.34,260.303 1816.15,260.303L1815.35,260.303C1815.16,260.303 1815.01,260.148 1815.01,259.956L1815.01,259.16C1815.01,259.068 1815.04,258.98 1815.11,258.914C1815.17,258.849 1815.26,258.813 1815.35,258.813ZM1818.11,258.813L1818.91,258.813C1819.1,258.814 1819.26,258.969 1819.26,259.16L1819.26,259.956C1819.26,260.148 1819.1,260.303 1818.91,260.303L1818.11,260.303C1817.92,260.303 1817.77,260.148 1817.77,259.956L1817.77,259.16C1817.77,258.969 1817.92,258.814 1818.11,258.813ZM1820.87,258.813L1821.67,258.813C1821.86,258.814 1822.02,258.969 1822.02,259.16L1822.02,259.956C1822.02,260.148 1821.86,260.303 1821.67,260.303L1820.87,260.303C1820.68,260.303 1820.53,260.148 1820.53,259.956L1820.53,259.16C1820.53,259.068 1820.56,258.98 1820.63,258.914C1820.69,258.849 1820.78,258.813 1820.87,258.813ZM1823.63,258.813L1824.43,258.813C1824.62,258.814 1824.78,258.969 1824.78,259.16L1824.78,259.956C1824.78,260.148 1824.62,260.303 1824.43,260.303L1823.63,260.303C1823.44,260.303 1823.29,260.148 1823.29,259.956L1823.29,259.16C1823.29,258.969 1823.44,258.814 1823.63,258.813ZM1826.39,258.813L1827.19,258.813C1827.38,258.813 1827.54,258.97 1827.54,259.16L1827.54,259.956C1827.54,260.148 1827.38,260.303 1827.19,260.303L1826.39,260.303C1826.2,260.303 1826.05,260.148 1826.05,259.956L1826.05,259.16C1826.05,258.969 1826.2,258.814 1826.39,258.813ZM1818.21,261.822L1819.01,261.822C1819.2,261.823 1819.36,261.978 1819.36,262.169L1819.36,262.967C1819.36,263.157 1819.2,263.314 1819.01,263.314L1818.21,263.314C1818.02,263.314 1817.87,263.159 1817.87,262.967L1817.87,262.171C1817.87,262.078 1817.9,261.989 1817.97,261.924C1818.03,261.858 1818.12,261.821 1818.21,261.822ZM1820.97,261.822L1821.77,261.822C1821.96,261.823 1822.12,261.978 1822.12,262.169L1822.12,262.967C1822.12,263.157 1821.96,263.314 1821.77,263.314L1820.97,263.314C1820.78,263.313 1820.63,263.158 1820.63,262.967L1820.63,262.171C1820.63,262.078 1820.66,261.989 1820.73,261.924C1820.79,261.858 1820.88,261.821 1820.97,261.822ZM1823.73,261.822L1824.53,261.822C1824.72,261.822 1824.88,261.978 1824.88,262.169L1824.88,262.967C1824.88,263.159 1824.72,263.314 1824.53,263.314L1823.73,263.314C1823.54,263.313 1823.39,263.158 1823.39,262.967L1823.39,262.171C1823.39,261.978 1823.54,261.822 1823.73,261.822ZM1820.87,255.581L1821.67,255.581C1821.86,255.581 1822.02,255.737 1822.02,255.928L1822.02,256.724C1822.02,256.916 1821.86,257.071 1821.67,257.071L1820.87,257.071C1820.68,257.07 1820.53,256.915 1820.53,256.724L1820.53,255.928C1820.53,255.836 1820.56,255.747 1820.63,255.682C1820.69,255.617 1820.78,255.58 1820.87,255.581ZM1823.63,255.581L1824.43,255.581C1824.62,255.581 1824.78,255.737 1824.78,255.928L1824.78,256.724C1824.78,256.916 1824.62,257.071 1824.43,257.071L1823.63,257.071C1823.44,257.071 1823.29,256.916 1823.29,256.724L1823.29,255.928C1823.29,255.736 1823.44,255.582 1823.63,255.581Z" style="fill:rgb(89,63,146);"/>
                <path d="M1706.36,126.632L1705.45,126.632C1705.23,126.632 1705.05,126.453 1705.05,126.235L1705.05,125.324C1705.05,125.104 1705.23,124.927 1705.45,124.927L1706.36,124.927C1706.58,124.928 1706.75,125.105 1706.75,125.324L1706.75,126.235C1706.75,126.34 1706.71,126.442 1706.64,126.516C1706.56,126.591 1706.46,126.633 1706.36,126.632ZM1703.2,126.632L1702.29,126.632C1702.07,126.631 1701.89,126.454 1701.89,126.235L1701.89,125.324C1701.89,125.104 1702.07,124.927 1702.29,124.927L1703.2,124.927C1703.42,124.928 1703.6,125.105 1703.6,125.324L1703.6,126.235C1703.6,126.454 1703.42,126.632 1703.2,126.632ZM1700.04,126.632L1699.13,126.632C1698.91,126.631 1698.73,126.454 1698.73,126.235L1698.73,125.324C1698.73,125.104 1698.91,124.927 1699.13,124.927L1700.04,124.927C1700.26,124.928 1700.44,125.105 1700.44,125.324L1700.44,126.235C1700.44,126.34 1700.4,126.442 1700.32,126.516C1700.25,126.591 1700.15,126.633 1700.04,126.632ZM1696.88,126.632L1695.97,126.632C1695.75,126.631 1695.58,126.454 1695.58,126.235L1695.58,125.324C1695.58,125.104 1695.75,124.927 1695.97,124.927L1696.88,124.927C1697.1,124.927 1697.28,125.105 1697.28,125.324L1697.28,126.235C1697.28,126.454 1697.1,126.631 1696.88,126.632ZM1693.73,126.632L1692.82,126.632C1692.6,126.632 1692.42,126.453 1692.42,126.235L1692.42,125.324C1692.42,125.104 1692.6,124.927 1692.82,124.927L1693.73,124.927C1693.95,124.928 1694.12,125.105 1694.12,125.324L1694.12,126.235C1694.12,126.454 1693.95,126.631 1693.73,126.632ZM1703.08,123.19L1702.17,123.19C1701.95,123.189 1701.78,123.011 1701.78,122.792L1701.78,121.88C1701.78,121.661 1701.96,121.482 1702.17,121.482L1703.08,121.482C1703.3,121.482 1703.48,121.66 1703.48,121.88L1703.48,122.791C1703.48,122.896 1703.44,122.998 1703.37,123.073C1703.29,123.148 1703.19,123.19 1703.08,123.19ZM1699.93,123.19L1699.02,123.19C1698.8,123.189 1698.62,123.011 1698.62,122.792L1698.62,121.88C1698.62,121.661 1698.8,121.482 1699.02,121.482L1699.93,121.482C1700.15,121.483 1700.32,121.661 1700.32,121.88L1700.32,122.791C1700.33,122.896 1700.28,122.998 1700.21,123.073C1700.13,123.148 1700.03,123.19 1699.93,123.19ZM1696.77,123.19L1695.86,123.19C1695.64,123.19 1695.46,123.011 1695.46,122.792L1695.46,121.88C1695.46,121.66 1695.64,121.482 1695.86,121.482L1696.77,121.482C1696.99,121.483 1697.17,121.661 1697.17,121.88L1697.17,122.791C1697.17,123.011 1696.99,123.19 1696.77,123.19ZM1700.04,130.331L1699.13,130.331C1698.91,130.331 1698.73,130.152 1698.73,129.933L1698.73,129.023C1698.73,128.803 1698.91,128.625 1699.13,128.625L1700.04,128.625C1700.26,128.626 1700.44,128.804 1700.44,129.023L1700.44,129.933C1700.44,130.039 1700.4,130.14 1700.32,130.215C1700.25,130.289 1700.15,130.331 1700.04,130.331ZM1696.88,130.331L1695.97,130.331C1695.75,130.331 1695.58,130.152 1695.58,129.933L1695.58,129.023C1695.58,128.803 1695.75,128.625 1695.97,128.625L1696.88,128.625C1697.1,128.625 1697.28,128.803 1697.28,129.023L1697.28,129.933C1697.28,130.153 1697.1,130.329 1696.88,130.331Z" style="fill:rgb(89,63,146);"/>
                <path d="M1762.23,120.056C1762.23,120.844 1762.88,121.482 1763.67,121.482C1764.47,121.482 1765.11,120.844 1765.11,120.056C1765.11,119.269 1764.47,118.631 1763.67,118.631C1762.88,118.631 1762.23,119.269 1762.23,120.056Z" style="fill:rgb(89,63,146);fill-rule:nonzero;"/>
                <path d="M1687.93,181.272C1687.93,182.059 1688.57,182.698 1689.37,182.698C1690.16,182.698 1690.8,182.059 1690.8,181.272C1690.8,180.484 1690.16,179.846 1689.37,179.846C1688.57,179.846 1687.93,180.484 1687.93,181.272Z" style="fill:rgb(89,63,146);fill-rule:nonzero;"/>
                <path d="M1718.5,310.827C1718.5,311.615 1719.14,312.253 1719.94,312.253C1720.73,312.253 1721.37,311.615 1721.37,310.827C1721.37,310.04 1720.73,309.401 1719.94,309.401C1719.14,309.401 1718.5,310.04 1718.5,310.827Z" style="fill:rgb(89,63,146);fill-rule:nonzero;"/>
                <path d="M1813.42,182.407C1814.69,181.716 1815.01,179.83 1815.01,179.83C1815.01,179.83 1813.26,179.067 1811.98,179.76C1810.71,180.451 1810.4,182.336 1810.4,182.336C1810.4,182.336 1812.15,183.099 1813.42,182.407Z" style="fill:rgb(89,63,146);fill-rule:nonzero;"/>
                <path d="M1759.98,313.332C1760.69,312.068 1759.95,310.305 1759.95,310.305C1759.95,310.305 1758.06,310.593 1757.35,311.857C1756.64,313.121 1757.38,314.883 1757.38,314.883C1757.38,314.883 1759.27,314.596 1759.98,313.332Z" style="fill:rgb(89,63,146);fill-rule:nonzero;"/>
                <path d="M1691.32,238.185C1693.8,239.235 1696.91,237.509 1696.91,237.509C1696.91,237.509 1695.99,234.079 1693.51,233.03C1691.03,231.979 1687.93,233.704 1687.93,233.704C1687.93,233.704 1688.84,237.134 1691.32,238.185Z" style="fill:rgb(89,63,146);fill-rule:nonzero;"/>
            </g>
            <g>
                <g>
                    <path d="M1715.98,192.423C1715.98,185.924 1721.25,180.656 1727.75,180.656L1773.74,180.656C1780.24,180.656 1785.5,185.924 1785.5,192.423L1785.5,237.04C1785.5,243.539 1780.24,248.807 1773.74,248.807L1727.75,248.807C1721.25,248.807 1715.98,243.539 1715.98,237.04L1715.98,192.423Z" style="fill:white;fill-rule:nonzero;"/>
                    <path d="M1732.26,202.876C1732.26,202.526 1732.54,202.243 1732.89,202.243C1733.24,202.243 1733.53,202.526 1733.53,202.876L1733.53,240.696C1733.53,241.045 1733.24,241.328 1732.89,241.328C1732.54,241.328 1732.26,241.045 1732.26,240.696L1732.26,202.876Z" style="fill:rgb(221,221,221);fill-opacity:0.56;fill-rule:nonzero;"/>
                    <path d="M1743.74,202.876C1743.74,202.526 1744.02,202.243 1744.37,202.243C1744.72,202.243 1745,202.526 1745,202.876L1745,240.696C1745,241.045 1744.72,241.328 1744.37,241.328C1744.02,241.328 1743.74,241.045 1743.74,240.696L1743.74,202.876Z" style="fill:rgb(221,221,221);fill-opacity:0.56;fill-rule:nonzero;"/>
                    <path d="M1755.21,202.876C1755.21,202.526 1755.49,202.243 1755.84,202.243C1756.19,202.243 1756.48,202.526 1756.48,202.876L1756.48,240.696C1756.48,241.045 1756.19,241.328 1755.84,241.328C1755.49,241.328 1755.21,241.045 1755.21,240.696L1755.21,202.876Z" style="fill:rgb(221,221,221);fill-opacity:0.56;fill-rule:nonzero;"/>
                    <path d="M1766.69,202.876C1766.69,202.526 1766.97,202.243 1767.32,202.243C1767.67,202.243 1767.95,202.526 1767.95,202.876L1767.95,240.696C1767.95,241.045 1767.67,241.328 1767.32,241.328C1766.97,241.328 1766.69,241.045 1766.69,240.696L1766.69,202.876Z" style="fill:rgb(221,221,221);fill-opacity:0.56;fill-rule:nonzero;"/>
                    <path d="M1774.75,226.272C1775.1,226.272 1775.39,226.555 1775.39,226.905C1775.39,227.254 1775.1,227.537 1774.75,227.537L1726.02,227.537C1725.67,227.537 1725.39,227.254 1725.39,226.905C1725.39,226.555 1725.67,226.272 1726.02,226.272L1774.75,226.272Z" style="fill:rgb(221,221,221);fill-opacity:0.56;fill-rule:nonzero;"/>
                    <path d="M1774.75,235.326C1775.1,235.326 1775.39,235.609 1775.39,235.958C1775.39,236.308 1775.1,236.591 1774.75,236.591L1726.02,236.591C1725.67,236.591 1725.39,236.308 1725.39,235.958C1725.39,235.609 1725.67,235.326 1726.02,235.326L1774.75,235.326Z" style="fill:rgb(221,221,221);fill-opacity:0.56;fill-rule:nonzero;"/>
                    <path d="M1774.75,217.218C1775.1,217.218 1775.39,217.501 1775.39,217.851C1775.39,218.2 1775.1,218.483 1774.75,218.483L1726.02,218.483C1725.67,218.483 1725.39,218.2 1725.39,217.851C1725.39,217.501 1725.67,217.218 1726.02,217.218L1774.75,217.218Z" style="fill:rgb(221,221,221);fill-opacity:0.56;fill-rule:nonzero;"/>
                    <path d="M1774.75,208.164C1775.1,208.164 1775.39,208.447 1775.39,208.797C1775.39,209.146 1775.1,209.429 1774.75,209.429L1726.02,209.429C1725.67,209.429 1725.39,209.146 1725.39,208.797C1725.39,208.447 1725.67,208.164 1726.02,208.164L1774.75,208.164Z" style="fill:rgb(221,221,221);fill-opacity:0.56;fill-rule:nonzero;"/>
                    <path d="M1724.31,189.286C1724.31,187.128 1726.06,185.378 1728.22,185.378L1772.56,185.378C1774.71,185.378 1776.46,187.128 1776.46,189.286C1776.46,191.445 1774.71,193.195 1772.56,193.195L1728.22,193.195C1726.06,193.195 1724.31,191.445 1724.31,189.286Z" style="fill:rgb(89,63,146);fill-rule:nonzero;"/>
                    <g>
                        <path d="M1757.97,222.393C1757.97,220.447 1759.55,218.869 1761.5,218.869C1763.44,218.869 1765.02,220.447 1765.02,222.393C1765.02,224.34 1763.44,225.917 1761.5,225.917C1759.55,225.917 1757.97,224.34 1757.97,222.393Z" style="fill:rgb(209,190,249);fill-rule:nonzero;"/>
                        <path d="M1762.95,221.369L1761.06,223.418L1760.04,222.376" style="fill:none;fill-rule:nonzero;stroke:rgb(89,63,146);stroke-width:1px;stroke-linecap:round;"/>
                    </g>
                </g>
                <g transform="matrix(1,0,0,1,1738.98,190.915)">
                    <g transform="matrix(4.62011,0,0,4.62011,0,0)">
                        <path d="M0.316,0.007C0.265,0.007 0.219,-0.001 0.178,-0.018C0.137,-0.035 0.105,-0.059 0.081,-0.092C0.056,-0.125 0.043,-0.164 0.042,-0.21L0.224,-0.21C0.227,-0.184 0.236,-0.164 0.251,-0.151C0.266,-0.137 0.286,-0.13 0.311,-0.13C0.336,-0.13 0.356,-0.136 0.371,-0.148C0.386,-0.159 0.393,-0.175 0.393,-0.196C0.393,-0.213 0.387,-0.228 0.376,-0.239C0.364,-0.25 0.349,-0.26 0.333,-0.267C0.316,-0.274 0.291,-0.283 0.26,-0.292C0.215,-0.306 0.178,-0.32 0.149,-0.334C0.12,-0.348 0.096,-0.369 0.075,-0.396C0.054,-0.423 0.044,-0.459 0.044,-0.503C0.044,-0.568 0.068,-0.619 0.115,-0.657C0.162,-0.693 0.224,-0.712 0.3,-0.712C0.377,-0.712 0.44,-0.693 0.487,-0.657C0.534,-0.619 0.56,-0.568 0.563,-0.502L0.378,-0.502C0.377,-0.525 0.368,-0.543 0.353,-0.556C0.338,-0.569 0.318,-0.575 0.294,-0.575C0.273,-0.575 0.257,-0.57 0.244,-0.559C0.231,-0.548 0.225,-0.532 0.225,-0.511C0.225,-0.488 0.236,-0.471 0.257,-0.458C0.278,-0.445 0.312,-0.432 0.357,-0.417C0.402,-0.402 0.439,-0.387 0.468,-0.373C0.496,-0.359 0.52,-0.339 0.541,-0.312C0.562,-0.285 0.572,-0.251 0.572,-0.209C0.572,-0.169 0.562,-0.133 0.542,-0.1C0.521,-0.067 0.492,-0.041 0.453,-0.022C0.414,-0.003 0.369,0.007 0.316,0.007Z" style="fill:white;fill-rule:nonzero;"/>
                    </g>
                    <g transform="matrix(4.62011,0,0,4.62011,2.84137,0)">
                        <path d="M0.033,-0.352C0.033,-0.421 0.048,-0.483 0.078,-0.538C0.108,-0.592 0.15,-0.634 0.204,-0.665C0.257,-0.695 0.318,-0.71 0.386,-0.71C0.469,-0.71 0.541,-0.688 0.6,-0.644C0.659,-0.6 0.699,-0.54 0.719,-0.464L0.531,-0.464C0.517,-0.493 0.497,-0.516 0.472,-0.531C0.446,-0.546 0.417,-0.554 0.384,-0.554C0.331,-0.554 0.289,-0.536 0.256,-0.499C0.223,-0.462 0.207,-0.413 0.207,-0.352C0.207,-0.291 0.223,-0.242 0.256,-0.205C0.289,-0.168 0.331,-0.15 0.384,-0.15C0.417,-0.15 0.446,-0.158 0.472,-0.173C0.497,-0.188 0.517,-0.211 0.531,-0.24L0.719,-0.24C0.699,-0.164 0.659,-0.104 0.6,-0.061C0.541,-0.017 0.469,0.005 0.386,0.005C0.318,0.005 0.257,-0.01 0.204,-0.041C0.15,-0.071 0.108,-0.113 0.078,-0.167C0.048,-0.221 0.033,-0.283 0.033,-0.352Z" style="fill:white;fill-rule:nonzero;"/>
                    </g>
                    <g transform="matrix(4.62011,0,0,4.62011,6.36189,0)">
                        <path d="M0.67,-0.702L0.67,0L0.499,0L0.499,-0.289L0.233,-0.289L0.233,0L0.062,0L0.062,-0.702L0.233,-0.702L0.233,-0.427L0.499,-0.427L0.499,-0.702L0.67,-0.702Z" style="fill:white;fill-rule:nonzero;"/>
                    </g>
                    <g transform="matrix(4.62011,0,0,4.62011,9.73919,0)">
                        <path d="M0.233,-0.565L0.233,-0.423L0.462,-0.423L0.462,-0.291L0.233,-0.291L0.233,-0.137L0.492,-0.137L0.492,0L0.062,0L0.062,-0.702L0.492,-0.702L0.492,-0.565L0.233,-0.565Z" style="fill:white;fill-rule:nonzero;"/>
                    </g>
                    <g transform="matrix(4.62011,0,0,4.62011,12.2387,0)">
                        <path d="M0.325,-0.702C0.399,-0.702 0.464,-0.687 0.519,-0.658C0.574,-0.629 0.617,-0.588 0.648,-0.535C0.678,-0.482 0.693,-0.42 0.693,-0.351C0.693,-0.282 0.678,-0.221 0.648,-0.168C0.617,-0.115 0.574,-0.073 0.519,-0.044C0.463,-0.015 0.398,0 0.325,0L0.062,0L0.062,-0.702L0.325,-0.702ZM0.314,-0.148C0.379,-0.148 0.429,-0.166 0.465,-0.201C0.501,-0.236 0.519,-0.286 0.519,-0.351C0.519,-0.416 0.501,-0.466 0.465,-0.502C0.429,-0.538 0.379,-0.556 0.314,-0.556L0.233,-0.556L0.233,-0.148L0.314,-0.148Z" style="fill:white;fill-rule:nonzero;"/>
                    </g>
                    <g transform="matrix(4.62011,0,0,4.62011,15.5975,0)">
                        <path d="M0.23,-0.702L0.23,-0.282C0.23,-0.24 0.24,-0.208 0.261,-0.185C0.282,-0.162 0.312,-0.151 0.352,-0.151C0.392,-0.151 0.423,-0.162 0.444,-0.185C0.465,-0.208 0.476,-0.24 0.476,-0.282L0.476,-0.702L0.647,-0.702L0.647,-0.283C0.647,-0.22 0.634,-0.167 0.607,-0.124C0.58,-0.081 0.545,-0.048 0.5,-0.026C0.454,-0.004 0.404,0.007 0.349,0.007C0.294,0.007 0.244,-0.004 0.201,-0.026C0.157,-0.047 0.122,-0.08 0.097,-0.124C0.072,-0.167 0.059,-0.22 0.059,-0.283L0.059,-0.702L0.23,-0.702Z" style="fill:white;fill-rule:nonzero;"/>
                    </g>
                    <g transform="matrix(4.62011,0,0,4.62011,18.8547,0)">
                        <path d="M0.233,-0.132L0.457,-0.132L0.457,0L0.062,0L0.062,-0.702L0.233,-0.702L0.233,-0.132Z" style="fill:white;fill-rule:nonzero;"/>
                    </g>
                    <g transform="matrix(4.62011,0,0,4.62011,21.0585,0)">
                        <path d="M0.233,-0.565L0.233,-0.423L0.462,-0.423L0.462,-0.291L0.233,-0.291L0.233,-0.137L0.492,-0.137L0.492,0L0.062,0L0.062,-0.702L0.492,-0.702L0.492,-0.565L0.233,-0.565Z" style="fill:white;fill-rule:nonzero;"/>
                    </g>
                </g>
            </g>
        </g>
    </g>
</svg>
