<?xml version="1.0" encoding="UTF-8" standalone="no"?><!DOCTYPE svg PUBLIC "-//W3C//DTD SVG 1.1//EN" "http://www.w3.org/Graphics/SVG/1.1/DTD/svg11.dtd"><svg width="100%" height="100%" viewBox="0 0 659 839" version="1.1" xmlns="http://www.w3.org/2000/svg" xmlns:xlink="http://www.w3.org/1999/xlink" xml:space="preserve" xmlns:serif="http://www.serif.com/" style="fill-rule:evenodd;clip-rule:evenodd;stroke-linecap:round;stroke-linejoin:round;stroke-miterlimit:10;"><g id="Layer"><g><g><g><path d="M116.875,307.467c0,-27.079 21.958,-49.029 49.042,-49.029l191.625,0c27.083,0 49,21.95 49,49.029l0,185.904c0,27.079 -21.917,49.029 -49,49.029l-191.625,0c-27.084,0 -49.042,-21.95 -49.042,-49.029l0,-185.904Z" style="fill:#fff;fill-rule:nonzero;"/><path d="M184.708,351.021c0,-1.458 1.167,-2.638 2.625,-2.638c1.459,0 2.667,1.18 2.667,2.638l0,157.583c0,1.454 -1.208,2.634 -2.667,2.634c-1.458,0 -2.625,-1.18 -2.625,-2.634l0,-157.583Z" style="fill:#ddd;fill-opacity:0.56;fill-rule:nonzero;"/><path d="M232.542,351.021c0,-1.458 1.166,-2.638 2.625,-2.638c1.458,0 2.625,1.18 2.625,2.638l0,157.583c0,1.454 -1.167,2.634 -2.625,2.634c-1.459,0 -2.625,-1.18 -2.625,-2.634l0,-157.583Z" style="fill:#ddd;fill-opacity:0.56;fill-rule:nonzero;"/><path d="M280.333,351.021c0,-1.458 1.167,-2.638 2.625,-2.638c1.459,0 2.667,1.18 2.667,2.638l0,157.583c0,1.454 -1.208,2.634 -2.667,2.634c-1.458,0 -2.625,-1.18 -2.625,-2.634l0,-157.583Z" style="fill:#ddd;fill-opacity:0.56;fill-rule:nonzero;"/><path d="M328.167,351.021c0,-1.458 1.166,-2.638 2.625,-2.638c1.458,0 2.625,1.18 2.625,2.638l0,157.583c0,1.454 -1.167,2.634 -2.625,2.634c-1.459,0 -2.625,-1.18 -2.625,-2.634l0,-157.583Z" style="fill:#ddd;fill-opacity:0.56;fill-rule:nonzero;"/><path d="M361.75,448.504c1.458,0 2.667,1.179 2.667,2.638c0,1.454 -1.209,2.633 -2.667,2.633l-203.042,0c-1.458,0 -2.625,-1.179 -2.625,-2.633c0,-1.459 1.167,-2.638 2.625,-2.638l203.042,0Z" style="fill:#ddd;fill-opacity:0.56;fill-rule:nonzero;"/><path d="M361.75,486.229c1.458,0 2.667,1.179 2.667,2.634c0,1.458 -1.209,2.637 -2.667,2.637l-203.042,0c-1.458,0 -2.625,-1.179 -2.625,-2.637c0,-1.455 1.167,-2.634 2.625,-2.634l203.042,0Z" style="fill:#ddd;fill-opacity:0.56;fill-rule:nonzero;"/><path d="M361.75,410.779c1.458,0 2.667,1.179 2.667,2.638c0,1.454 -1.209,2.633 -2.667,2.633l-203.042,0c-1.458,0 -2.625,-1.179 -2.625,-2.633c0,-1.459 1.167,-2.638 2.625,-2.638l203.042,0Z" style="fill:#ddd;fill-opacity:0.56;fill-rule:nonzero;"/><path d="M361.75,373.054c1.458,0 2.667,1.179 2.667,2.638c0,1.454 -1.209,2.633 -2.667,2.633l-203.042,0c-1.458,0 -2.625,-1.179 -2.625,-2.633c0,-1.459 1.167,-2.638 2.625,-2.638l203.042,0Z" style="fill:#ddd;fill-opacity:0.56;fill-rule:nonzero;"/><path d="M151.583,294.396c0,-8.992 7.292,-16.284 16.292,-16.284l184.75,0c8.958,0 16.25,7.292 16.25,16.284c0,8.996 -7.292,16.287 -16.25,16.287l-184.75,0c-9,0 -16.292,-7.291 -16.292,-16.287Z" style="fill:#593f92;fill-rule:nonzero;"/><g><path d="M291.833,432.342c0,-8.109 6.584,-14.684 14.709,-14.684c8.083,0 14.666,6.575 14.666,14.684c0,8.112 -6.583,14.683 -14.666,14.683c-8.125,0 -14.709,-6.571 -14.709,-14.683Z" style="fill:#d1bef9;fill-rule:nonzero;"/><path d="M312.583,428.075l-7.875,8.538l-4.25,-4.342" style="fill:none;fill-rule:nonzero;stroke:#593f92;stroke-width:4.17px;"/></g></g><g><path d="M218.78,301.318c-0.988,0 -1.874,-0.16 -2.657,-0.481c-0.783,-0.321 -1.408,-0.795 -1.877,-1.424c-0.468,-0.629 -0.715,-1.386 -0.741,-2.272l3.504,0c0.051,0.501 0.224,0.882 0.52,1.146c0.295,0.263 0.68,0.394 1.155,0.394c0.487,0 0.872,-0.112 1.155,-0.337c0.282,-0.224 0.423,-0.536 0.423,-0.933c0,-0.334 -0.112,-0.61 -0.337,-0.828c-0.224,-0.218 -0.5,-0.398 -0.828,-0.539c-0.327,-0.141 -0.792,-0.302 -1.395,-0.481c-0.873,-0.27 -1.585,-0.539 -2.137,-0.809c-0.552,-0.269 -1.027,-0.667 -1.425,-1.193c-0.397,-0.527 -0.596,-1.213 -0.596,-2.06c0,-1.258 0.455,-2.243 1.366,-2.955c0.912,-0.712 2.099,-1.069 3.562,-1.069c1.489,0 2.688,0.357 3.6,1.069c0.911,0.712 1.399,1.703 1.463,2.974l-3.562,0c-0.025,-0.436 -0.186,-0.78 -0.481,-1.03c-0.295,-0.25 -0.674,-0.375 -1.136,-0.375c-0.398,0 -0.718,0.106 -0.962,0.317c-0.244,0.212 -0.366,0.517 -0.366,0.915c0,0.436 0.205,0.776 0.616,1.02c0.411,0.244 1.052,0.507 1.925,0.789c0.873,0.295 1.582,0.578 2.127,0.847c0.546,0.27 1.017,0.661 1.415,1.175c0.398,0.513 0.597,1.174 0.597,1.982c0,0.77 -0.196,1.47 -0.587,2.099c-0.392,0.629 -0.96,1.129 -1.704,1.501c-0.744,0.372 -1.623,0.558 -2.637,0.558Z" style="fill:#fff;fill-rule:nonzero;"/><path d="M225.171,294.408c0,-1.335 0.289,-2.525 0.866,-3.571c0.578,-1.046 1.383,-1.861 2.416,-2.445c1.033,-0.584 2.204,-0.876 3.513,-0.876c1.605,0 2.978,0.423 4.12,1.27c1.142,0.847 1.906,2.002 2.291,3.465l-3.619,0c-0.27,-0.564 -0.652,-0.994 -1.146,-1.289c-0.494,-0.295 -1.055,-0.443 -1.684,-0.443c-1.014,0 -1.835,0.353 -2.464,1.059c-0.629,0.706 -0.943,1.649 -0.943,2.83c0,1.18 0.314,2.124 0.943,2.829c0.629,0.706 1.45,1.059 2.464,1.059c0.629,0 1.19,-0.147 1.684,-0.443c0.494,-0.295 0.876,-0.725 1.146,-1.289l3.619,0c-0.385,1.463 -1.149,2.614 -2.291,3.455c-1.142,0.841 -2.515,1.261 -4.12,1.261c-1.309,0 -2.48,-0.292 -3.513,-0.876c-1.033,-0.584 -1.838,-1.396 -2.416,-2.435c-0.577,-1.04 -0.866,-2.227 -0.866,-3.561Z" style="fill:#fff;fill-rule:nonzero;"/><path d="M252.102,287.67l0,13.514l-3.291,0l0,-5.564l-5.121,0l0,5.564l-3.292,0l0,-13.514l3.292,0l0,5.294l5.121,0l0,-5.294l3.291,0Z" style="fill:#fff;fill-rule:nonzero;"/><path d="M257.762,290.307l0,2.734l4.408,0l0,2.541l-4.408,0l0,2.964l4.986,0l0,2.638l-8.278,0l0,-13.514l8.278,0l0,2.637l-4.986,0Z" style="fill:#fff;fill-rule:nonzero;"/><path d="M269.948,287.67c1.424,0 2.669,0.282 3.734,0.847c1.065,0.565 1.89,1.357 2.474,2.377c0.584,1.021 0.876,2.198 0.876,3.533c0,1.322 -0.292,2.496 -0.876,3.523c-0.584,1.026 -1.412,1.822 -2.484,2.387c-1.071,0.564 -2.313,0.847 -3.724,0.847l-5.063,0l0,-13.514l5.063,0Zm-0.212,10.665c1.245,0 2.214,-0.34 2.907,-1.021c0.693,-0.68 1.039,-1.642 1.039,-2.887c0,-1.245 -0.346,-2.214 -1.039,-2.907c-0.693,-0.693 -1.662,-1.04 -2.907,-1.04l-1.56,0l0,7.855l1.56,0Z" style="fill:#fff;fill-rule:nonzero;"/><path d="M282.114,287.67l0,8.085c0,0.809 0.199,1.431 0.597,1.867c0.397,0.437 0.981,0.655 1.751,0.655c0.77,0 1.361,-0.218 1.771,-0.655c0.411,-0.436 0.616,-1.058 0.616,-1.867l0,-8.085l3.292,0l0,8.066c0,1.206 -0.256,2.226 -0.77,3.061c-0.513,0.834 -1.203,1.463 -2.069,1.886c-0.866,0.424 -1.832,0.635 -2.897,0.635c-1.066,0 -2.018,-0.208 -2.859,-0.625c-0.841,-0.417 -1.505,-1.046 -1.992,-1.887c-0.488,-0.84 -0.732,-1.864 -0.732,-3.07l0,-8.066l3.292,0Z" style="fill:#fff;fill-rule:nonzero;"/><path d="M295.743,298.643l4.312,0l0,2.541l-7.604,0l0,-13.514l3.292,0l0,10.973Z" style="fill:#fff;fill-rule:nonzero;"/><path d="M304.926,290.307l0,2.734l4.408,0l0,2.541l-4.408,0l0,2.964l4.985,0l0,2.638l-8.277,0l0,-13.514l8.277,0l0,2.637l-4.985,0Z" style="fill:#fff;fill-rule:nonzero;"/></g></g></g></g></svg>