<?xml version="1.0" encoding="UTF-8" standalone="no"?><!DOCTYPE svg PUBLIC "-//W3C//DTD SVG 1.1//EN" "http://www.w3.org/Graphics/SVG/1.1/DTD/svg11.dtd"><svg width="100%" height="100%" viewBox="0 0 659 839" version="1.1" xmlns="http://www.w3.org/2000/svg" xmlns:xlink="http://www.w3.org/1999/xlink" xml:space="preserve" xmlns:serif="http://www.serif.com/" style="fill-rule:evenodd;clip-rule:evenodd;stroke-linejoin:round;stroke-miterlimit:2;"><g id="Layer"><g><g><path d="M302.292,203.217c0,-18.955 15.375,-34.317 34.333,-34.317l54.167,0c18.958,0 34.333,15.362 34.333,34.317l0,109.675c0,18.954 -15.375,34.316 -34.333,34.316l-54.167,0c-18.958,0 -34.333,-15.362 -34.333,-34.316l0,-109.675Z" style="fill:#593f92;fill-rule:nonzero;"/><path d="M84.083,592.229c0,-95.879 79,-173.604 176.5,-173.604c97.459,0 176.459,77.725 176.459,173.604c0,95.879 -76.584,42.196 -174.042,42.196c-97.458,0 -178.917,53.683 -178.917,-42.196Z" style="fill:#593f92;fill-rule:nonzero;"/><g><path d="M316.5,281.171c0,-25.892 21.125,-46.883 47.208,-46.883c26.084,0 47.209,20.991 47.209,46.883c0,25.892 0.291,46.883 -47.209,46.883c-47.208,0 -47.208,-20.991 -47.208,-46.883Z" style="fill:#fff;fill-rule:nonzero;"/><g><g><path d="M359.333,297.508c0,-3.091 2.917,-3.816 5.875,-3.816c3,0 6,0.658 6,3.816c0,3.159 -2.708,5.309 -6,5.309c-3.291,0 -5.875,-2.221 -5.875,-5.309Z" style="fill:#463174;fill-rule:nonzero;"/></g><path d="M360.333,300.529c-0.708,-1.042 2.209,-2.616 4.875,-2.716c2.667,-0.105 5.75,1.437 5.042,2.645c-0.792,1.388 -2.917,2.35 -4.917,2.35c-2,0 -4.041,-0.896 -5,-2.279Z" style="fill:#7451c2;fill-opacity:0.45;fill-rule:nonzero;"/></g><g><g><path d="M339.75,282.917c0,-3.33 2.542,-6.025 5.667,-6.025c3.125,0 5.666,2.695 5.666,6.025c0,3.325 -2.541,6.025 -5.666,6.025c-3.125,0 -5.667,-2.7 -5.667,-6.025Z" style="fill:#463174;fill-rule:nonzero;"/><path d="M343.083,286.004c0,-1.2 1.084,-2.175 2.417,-2.175c1.375,0 2.458,0.975 2.458,2.175c0,1.2 -1.083,2.171 -2.458,2.171c-1.333,0 -2.417,-0.971 -2.417,-2.171Z" style="fill:#fff;fill-rule:nonzero;"/></g><g><path d="M378.5,282.917c0,-3.33 2.542,-6.025 5.667,-6.025c3.125,0 5.666,2.695 5.666,6.025c0,3.325 -2.541,6.025 -5.666,6.025c-3.125,0 -5.667,-2.7 -5.667,-6.025Z" style="fill:#463174;fill-rule:nonzero;"/><path d="M381.417,286.188c0,-1.2 1.083,-2.171 2.458,-2.171c1.333,0 2.417,0.971 2.417,2.171c0,1.2 -1.084,2.17 -2.417,2.17c-1.375,0 -2.458,-0.97 -2.458,-2.171Z" style="fill:#fff;fill-rule:nonzero;"/></g></g></g><g><path d="M136.083,488.067c0,-68.479 55.917,-123.996 124.875,-123.996c69,0 124.917,55.517 124.917,123.996c0,68.483 0.708,123.995 -124.917,124c-124.875,0 -124.875,-55.517 -124.875,-124Z" style="fill:#fff;fill-rule:nonzero;"/><g><g><path d="M249.375,531.271c0,-8.171 7.708,-10.083 15.583,-10.083c7.875,0 15.875,1.729 15.875,10.083c0,8.354 -7.208,14.046 -15.875,14.046c-8.708,0 -15.583,-5.875 -15.583,-14.046Z" style="fill:#463174;fill-rule:nonzero;"/></g><path d="M252.083,539.262c-1.916,-2.754 5.792,-6.916 12.834,-7.187c7.041,-0.267 15.25,3.808 13.375,7.004c-2.125,3.675 -7.667,6.217 -13,6.217c-5.334,0 -10.709,-2.375 -13.209,-6.034Z" style="fill:#7451c2;fill-opacity:0.45;fill-rule:nonzero;"/></g><g><g><path d="M197.625,492.679c0,-8.8 6.708,-15.937 15,-15.937c8.25,0 14.958,7.137 14.958,15.937c0,8.8 -6.708,15.933 -14.958,15.933c-8.292,0 -15,-7.133 -15,-15.933Z" style="fill:#463174;fill-rule:nonzero;"/><path d="M208.792,500.563c0,-3.875 2.875,-7.017 6.458,-7.017c3.542,0 6.417,3.142 6.417,7.017c0,3.879 -2.875,7.02 -6.417,7.02c-3.583,0 -6.458,-3.141 -6.458,-7.02Z" style="fill:#fff;fill-rule:nonzero;"/></g><g><path d="M300.083,492.679c0,-8.8 6.709,-15.937 15,-15.937c8.292,0 15,7.137 15,15.937c0,8.8 -6.708,15.933 -15,15.933c-8.291,0 -15,-7.133 -15,-15.933Z" style="fill:#463174;fill-rule:nonzero;"/><path d="M307.25,500.596c0,-4.05 2.917,-7.333 6.458,-7.333c3.542,0 6.459,3.283 6.459,7.333c0,4.05 -2.917,7.333 -6.459,7.333c-3.541,0 -6.458,-3.283 -6.458,-7.333Z" style="fill:#fff;fill-rule:nonzero;"/></g></g></g><path d="M113.125,684.975c0,-13.808 11.208,-25 25,-25c13.792,0 25,11.192 25,25c0,13.804 -11.208,25 -25,25c-13.792,0 -25,-11.196 -25,-25Z" style="fill:#d61d33;fill-rule:nonzero;"/><path d="M175.583,684.975c0,-13.808 11.167,-25 25,-25c13.792,0 25,11.192 25,25c0,13.804 -11.208,25 -25,25c-13.833,0 -25,-11.196 -25,-25Z" style="fill:#fff;fill-rule:nonzero;"/><path d="M238,684.975c0,-13.808 11.208,-25 25,-25c13.792,0 25,11.192 25,25c0,13.804 -11.208,25 -25,25c-13.792,0 -25,-11.196 -25,-25Z" style="fill:#fff;fill-rule:nonzero;"/><path d="M300.458,684.975c0,-13.808 11.167,-25 25,-25c13.792,0 25,11.192 25,25c0,13.804 -11.208,25 -25,25c-13.833,0 -25,-11.196 -25,-25Z" style="fill:#fff;fill-rule:nonzero;"/><path d="M362.875,684.975c0,-13.808 11.208,-25 25,-25c13.833,0 25,11.192 25,25c0,13.804 -11.167,25 -25,25c-13.792,0 -25,-11.196 -25,-25Z" style="fill:#fff;fill-rule:nonzero;"/><g><path d="M152.042,685.358c-3.75,-3.696 -8.792,-5.716 -13.959,-5.725c-5.125,0.05 -10.166,2.117 -13.875,5.846c-0.541,0.55 -0.375,1.279 0,1.638l2.875,2.858c0.459,0.446 1.167,0.45 1.625,0.013c0.542,-0.505 1.209,-1.125 1.709,-1.467c0.5,-0.367 1.208,-0.75 1.666,-1.013c0.417,-0.204 0.625,-0.604 0.625,-1.041l0,-3.617c1.917,-0.604 3.709,-0.846 5.375,-0.85c1.709,-0.013 3.5,0.217 5.417,0.8l0.042,3.621c0,0.317 0.125,0.617 0.333,0.833c0.083,0.079 0.167,0.15 0.292,0.204c0.5,0.259 1.166,0.638 1.708,1c0.458,0.334 1.167,0.95 1.667,1.45c0.458,0.434 1.208,0.421 1.625,-0.025l2.875,-2.887c0.333,-0.358 0.541,-1.088 0,-1.638Zm-21.625,0.442c-0.542,0.296 -1,0.575 -1.334,0.833c-0.333,0.221 -0.708,0.525 -1.125,0.917l-1.25,-1.238c1.125,-0.987 2.375,-1.82 3.709,-2.491l0,1.979Zm17.916,1.663c-0.458,-0.388 -0.833,-0.688 -1.166,-0.909c-0.334,-0.254 -0.792,-0.529 -1.334,-0.821l0,-1.979c1.334,0.658 2.584,1.484 3.709,2.463l-1.209,1.246Z" style="fill:#fff;fill-rule:nonzero;"/></g><g><g><path d="M197.958,678.8l10.417,10.396l2,1.629c0.208,0.146 0.417,0.221 0.667,0.221c0.125,0 0.291,-0.058 0.416,-0.125c0.375,-0.171 0.584,-0.504 0.584,-0.896l0,-8.163c0,-0.391 -0.209,-0.754 -0.584,-0.924c-0.333,-0.167 -0.75,-0.117 -1.083,0.129l-3.417,2.741l0,-2.966c0,-1.125 -0.916,-2.042 -2.041,-2.042l-6.959,0Z" style="fill:#303030;fill-rule:nonzero;"/><path d="M191.625,678.8c-1.125,0 -2.042,0.917 -2.042,2.042l0,10.204c0,1.125 0.917,2.042 2.042,2.042l13.292,0c0.833,0 1.416,-0.58 1.75,-1.309c0.083,-0.246 0.291,-0.446 0.291,-0.733l0,-0.384l-11.875,-11.862l-3.458,0Z" style="fill:#303030;fill-rule:nonzero;"/></g><path d="M189.792,676.308c-0.375,-0.4 -0.375,-1.046 0,-1.445l0.375,-0.342c0.375,-0.396 1.041,-0.392 1.416,0.008l18.917,19.113c0.417,0.4 0.417,1.045 0,1.441l-0.333,0.342c-0.417,0.396 -1.042,0.396 -1.459,-0.004l-18.916,-19.113Z" style="fill:#303030;fill-rule:nonzero;"/></g><g><path d="M252.083,675.613l1.542,-1.546l20.292,20.27l-1.542,1.546l-20.292,-20.27Z" style="fill:#303030;fill-rule:nonzero;"/><path d="M266.292,683.663l0,-6.35c0,-1.859 -1.417,-3.28 -3.292,-3.28c-1.75,0 -3.167,1.421 -3.292,3.063l6.584,6.567Zm3.916,3.937c0.334,-0.767 0.459,-1.642 0.459,-2.625l-2.209,0c0,0.329 0,0.546 -0.083,0.767l1.833,1.858Zm-2.708,0.438c-1,1.425 -2.625,2.408 -4.5,2.408c-3.042,0 -5.458,-2.409 -5.458,-5.471l-2.209,0c0,3.829 2.875,7.004 6.584,7.55l0,3.392l2.166,0l0,-3.392c2.084,-0.329 3.834,-1.425 5.042,-2.954l-1.625,-1.534Z" style="fill:#303030;fill-rule:nonzero;"/><path d="M263,688.258c1.333,0 2.417,-0.766 2.958,-1.862l-6.25,-6.238l0,4.817c0,1.858 1.417,3.283 3.292,3.283Z" style="fill:#303030;fill-rule:nonzero;"/></g><g><path d="M318.25,676.892l-0.875,0c-0.5,0 -0.917,0.404 -0.917,0.9l2.709,0c0,-0.496 -0.417,-0.9 -0.917,-0.9Z" style="fill:#303030;fill-rule:nonzero;"/><path d="M335.333,678.688l-3.833,0c-0.667,0 -1.292,-0.384 -1.625,-0.992l-0.333,-0.708c-0.334,-0.609 -0.917,-0.992 -1.625,-0.992l-4.959,0c-0.666,0 -1.291,0.383 -1.583,0.991l-0.375,0.709c-0.292,0.608 -0.917,0.992 -1.583,0.992l-3.834,0c-1,0 -1.791,0.804 -1.791,1.795l0,11.675c0,0.992 0.791,1.796 1.791,1.796l19.75,0c1,0 1.792,-0.804 1.792,-1.796l0,-11.675c0,-0.991 -0.792,-1.795 -1.792,-1.795Zm-9.875,13.47c-1.625,0 -3.25,-0.625 -4.458,-1.841c-1.208,-1.196 -1.833,-2.792 -1.833,-4.446l-1.792,0l2.667,-2.692l2.708,2.692l-1.792,0c0,1.179 0.459,2.321 1.334,3.175c1.5,1.529 3.916,1.754 5.666,0.537l1.042,1.479c-1.083,0.738 -2.333,1.096 -3.542,1.096Zm5.375,-3.591l-2.708,-2.696l1.792,0c0,-1.179 -0.459,-2.321 -1.292,-3.175c-1.542,-1.525 -3.917,-1.75 -5.708,-0.534l-1,-1.483c2.458,-1.704 5.833,-1.387 7.958,0.75c1.208,1.192 1.833,2.792 1.833,4.442l1.834,0l-2.709,2.696Z" style="fill:#303030;fill-rule:nonzero;"/></g><g><path d="M387.875,671.917c-1.583,0 -2.875,1.3 -2.875,2.904c0,1.6 1.292,2.9 2.875,2.9c1.625,0 2.917,-1.3 2.917,-2.9c0,-1.604 -1.292,-2.904 -2.917,-2.904Zm0,10.154c-1.583,0 -2.875,1.3 -2.875,2.904c0,1.6 1.292,2.9 2.875,2.9c1.625,0 2.917,-1.3 2.917,-2.9c0,-1.604 -1.292,-2.904 -2.917,-2.904Zm0,10.158c-1.583,0 -2.875,1.296 -2.875,2.9c0,1.6 1.292,2.9 2.875,2.9c1.625,0 2.917,-1.3 2.917,-2.9c0,-1.604 -1.292,-2.9 -2.917,-2.9Z" style="fill:#303030;fill-rule:nonzero;"/></g><g><path d="M185.428,131.078l0,2.637l-3.581,0l0,10.877l-3.291,0l0,-10.877l-3.581,0l0,-2.637l10.453,0Z" style="fill:#fff;fill-rule:nonzero;"/><path d="M198.788,131.078l0,13.514l-3.292,0l0,-5.564l-5.121,0l0,5.564l-3.291,0l0,-13.514l3.291,0l0,5.294l5.121,0l0,-5.294l3.292,0Z" style="fill:#fff;fill-rule:nonzero;"/><path d="M204.447,133.715l0,2.734l4.409,0l0,2.541l-4.409,0l0,2.964l4.986,0l0,2.638l-8.277,0l0,-13.514l8.277,0l0,2.637l-4.986,0Z" style="fill:#fff;fill-rule:nonzero;"/><path d="M218.462,144.592l-2.811,-5.102l-0.789,0l0,5.102l-3.292,0l0,-13.514l5.525,0c1.065,0 1.973,0.186 2.724,0.558c0.751,0.372 1.312,0.882 1.684,1.531c0.372,0.648 0.559,1.37 0.559,2.165c0,0.899 -0.254,1.701 -0.761,2.407c-0.507,0.705 -1.254,1.206 -2.242,1.501l3.118,5.352l-3.715,0Zm-3.6,-7.431l2.04,0c0.604,0 1.056,-0.148 1.358,-0.443c0.301,-0.295 0.452,-0.712 0.452,-1.251c0,-0.513 -0.151,-0.918 -0.452,-1.213c-0.302,-0.295 -0.754,-0.443 -1.358,-0.443l-2.04,0l0,3.35Z" style="fill:#fff;fill-rule:nonzero;"/><path d="M232.534,142.205l-5.044,0l-0.808,2.387l-3.446,0l4.889,-13.514l3.812,0l4.89,13.514l-3.485,0l-0.808,-2.387Zm-0.847,-2.541l-1.675,-4.948l-1.656,4.948l3.331,0Z" style="fill:#fff;fill-rule:nonzero;"/><path d="M248.608,135.428c0,0.783 -0.18,1.499 -0.539,2.147c-0.359,0.648 -0.911,1.171 -1.656,1.569c-0.744,0.398 -1.668,0.597 -2.772,0.597l-2.04,0l0,4.851l-3.292,0l0,-13.514l5.332,0c1.078,0 1.99,0.186 2.734,0.558c0.744,0.372 1.303,0.886 1.675,1.54c0.372,0.655 0.558,1.405 0.558,2.252Zm-5.217,1.694c0.629,0 1.097,-0.147 1.405,-0.442c0.308,-0.295 0.462,-0.713 0.462,-1.252c0,-0.539 -0.154,-0.956 -0.462,-1.251c-0.308,-0.295 -0.776,-0.443 -1.405,-0.443l-1.79,0l0,3.388l1.79,0Z" style="fill:#fff;fill-rule:nonzero;"/><path d="M261.91,131.078l-4.678,9.048l0,4.466l-3.292,0l0,-4.466l-4.678,-9.048l3.735,0l2.618,5.659l2.599,-5.659l3.696,0Z" style="fill:#fff;fill-rule:nonzero;"/><path d="M272.209,144.726c-0.988,0 -1.874,-0.16 -2.657,-0.481c-0.782,-0.321 -1.408,-0.796 -1.876,-1.424c-0.469,-0.629 -0.716,-1.386 -0.742,-2.272l3.504,0c0.051,0.501 0.225,0.882 0.52,1.145c0.295,0.264 0.68,0.395 1.155,0.395c0.487,0 0.872,-0.112 1.155,-0.337c0.282,-0.224 0.423,-0.536 0.423,-0.933c0,-0.334 -0.112,-0.61 -0.337,-0.828c-0.224,-0.218 -0.5,-0.398 -0.827,-0.539c-0.328,-0.141 -0.793,-0.302 -1.396,-0.481c-0.873,-0.27 -1.585,-0.539 -2.137,-0.809c-0.552,-0.269 -1.026,-0.667 -1.424,-1.194c-0.398,-0.526 -0.597,-1.212 -0.597,-2.059c0,-1.258 0.455,-2.243 1.367,-2.955c0.911,-0.713 2.098,-1.069 3.561,-1.069c1.489,0 2.689,0.356 3.6,1.069c0.911,0.712 1.399,1.703 1.463,2.974l-3.561,0c-0.026,-0.436 -0.187,-0.78 -0.482,-1.03c-0.295,-0.25 -0.673,-0.375 -1.135,-0.375c-0.398,0 -0.719,0.106 -0.963,0.317c-0.244,0.212 -0.366,0.517 -0.366,0.915c0,0.436 0.206,0.776 0.616,1.02c0.411,0.244 1.053,0.507 1.925,0.789c0.873,0.295 1.582,0.578 2.127,0.847c0.546,0.27 1.018,0.661 1.415,1.175c0.398,0.513 0.597,1.174 0.597,1.982c0,0.77 -0.196,1.47 -0.587,2.099c-0.391,0.628 -0.959,1.129 -1.704,1.501c-0.744,0.372 -1.623,0.558 -2.637,0.558Z" style="fill:#fff;fill-rule:nonzero;"/><path d="M282.45,133.715l0,2.734l4.409,0l0,2.541l-4.409,0l0,2.964l4.986,0l0,2.638l-8.278,0l0,-13.514l8.278,0l0,2.637l-4.986,0Z" style="fill:#fff;fill-rule:nonzero;"/><path d="M294.463,144.726c-0.989,0 -1.874,-0.16 -2.657,-0.481c-0.783,-0.321 -1.408,-0.796 -1.877,-1.424c-0.468,-0.629 -0.715,-1.386 -0.741,-2.272l3.504,0c0.051,0.501 0.224,0.882 0.519,1.145c0.295,0.264 0.68,0.395 1.155,0.395c0.488,0 0.873,-0.112 1.155,-0.337c0.283,-0.224 0.424,-0.536 0.424,-0.933c0,-0.334 -0.112,-0.61 -0.337,-0.828c-0.225,-0.218 -0.501,-0.398 -0.828,-0.539c-0.327,-0.141 -0.792,-0.302 -1.395,-0.481c-0.873,-0.27 -1.585,-0.539 -2.137,-0.809c-0.552,-0.269 -1.027,-0.667 -1.425,-1.194c-0.398,-0.526 -0.597,-1.212 -0.597,-2.059c0,-1.258 0.456,-2.243 1.367,-2.955c0.911,-0.713 2.099,-1.069 3.562,-1.069c1.488,0 2.688,0.356 3.599,1.069c0.912,0.712 1.399,1.703 1.463,2.974l-3.561,0c-0.026,-0.436 -0.186,-0.78 -0.481,-1.03c-0.295,-0.25 -0.674,-0.375 -1.136,-0.375c-0.398,0 -0.719,0.106 -0.962,0.317c-0.244,0.212 -0.366,0.517 -0.366,0.915c0,0.436 0.205,0.776 0.616,1.02c0.41,0.244 1.052,0.507 1.925,0.789c0.873,0.295 1.582,0.578 2.127,0.847c0.545,0.27 1.017,0.661 1.415,1.175c0.398,0.513 0.597,1.174 0.597,1.982c0,0.77 -0.196,1.47 -0.587,2.099c-0.392,0.628 -0.96,1.129 -1.704,1.501c-0.744,0.372 -1.624,0.558 -2.637,0.558Z" style="fill:#fff;fill-rule:nonzero;"/><path d="M306.302,144.726c-0.989,0 -1.874,-0.16 -2.657,-0.481c-0.783,-0.321 -1.408,-0.796 -1.877,-1.424c-0.468,-0.629 -0.715,-1.386 -0.741,-2.272l3.504,0c0.051,0.501 0.224,0.882 0.519,1.145c0.295,0.264 0.68,0.395 1.155,0.395c0.488,0 0.873,-0.112 1.155,-0.337c0.283,-0.224 0.424,-0.536 0.424,-0.933c0,-0.334 -0.112,-0.61 -0.337,-0.828c-0.225,-0.218 -0.501,-0.398 -0.828,-0.539c-0.327,-0.141 -0.792,-0.302 -1.395,-0.481c-0.873,-0.27 -1.585,-0.539 -2.137,-0.809c-0.552,-0.269 -1.027,-0.667 -1.425,-1.194c-0.398,-0.526 -0.597,-1.212 -0.597,-2.059c0,-1.258 0.456,-2.243 1.367,-2.955c0.911,-0.713 2.099,-1.069 3.562,-1.069c1.488,0 2.688,0.356 3.599,1.069c0.912,0.712 1.399,1.703 1.463,2.974l-3.561,0c-0.026,-0.436 -0.186,-0.78 -0.481,-1.03c-0.295,-0.25 -0.674,-0.375 -1.136,-0.375c-0.398,0 -0.719,0.106 -0.962,0.317c-0.244,0.212 -0.366,0.517 -0.366,0.915c0,0.436 0.205,0.776 0.616,1.02c0.41,0.244 1.052,0.507 1.925,0.789c0.873,0.295 1.582,0.578 2.127,0.847c0.545,0.27 1.017,0.661 1.415,1.175c0.398,0.513 0.597,1.174 0.597,1.982c0,0.77 -0.196,1.47 -0.587,2.099c-0.392,0.628 -0.96,1.129 -1.704,1.501c-0.744,0.372 -1.624,0.558 -2.637,0.558Z" style="fill:#fff;fill-rule:nonzero;"/><rect x="313.251" y="131.078" width="3.292" height="13.514" style="fill:#fff;fill-rule:nonzero;"/><path d="M325.321,144.726c-1.27,0 -2.435,-0.295 -3.494,-0.885c-1.059,-0.59 -1.899,-1.415 -2.522,-2.474c-0.622,-1.059 -0.933,-2.249 -0.933,-3.571c0,-1.322 0.311,-2.509 0.933,-3.561c0.623,-1.052 1.463,-1.874 2.522,-2.464c1.059,-0.59 2.224,-0.886 3.494,-0.886c1.271,0 2.435,0.296 3.494,0.886c1.059,0.59 1.893,1.412 2.503,2.464c0.609,1.052 0.914,2.239 0.914,3.561c0,1.322 -0.308,2.512 -0.924,3.571c-0.616,1.059 -1.45,1.884 -2.503,2.474c-1.052,0.59 -2.213,0.885 -3.484,0.885Zm0,-3.003c1.078,0 1.941,-0.359 2.589,-1.078c0.648,-0.718 0.972,-1.668 0.972,-2.849c0,-1.193 -0.324,-2.146 -0.972,-2.858c-0.648,-0.713 -1.511,-1.069 -2.589,-1.069c-1.091,0 -1.96,0.353 -2.608,1.059c-0.648,0.706 -0.973,1.662 -0.973,2.868c0,1.194 0.325,2.147 0.973,2.859c0.648,0.712 1.517,1.068 2.608,1.068Z" style="fill:#fff;fill-rule:nonzero;"/><path d="M346.15,144.592l-3.292,0l-5.505,-8.336l0,8.336l-3.292,0l0,-13.514l3.292,0l5.505,8.374l0,-8.374l3.292,0l0,13.514Z" style="fill:#fff;fill-rule:nonzero;"/></g></g></g></g></svg>