<?xml version="1.0" encoding="UTF-8" standalone="no"?>
<!DOCTYPE svg PUBLIC "-//W3C//DTD SVG 1.1//EN" "http://www.w3.org/Graphics/SVG/1.1/DTD/svg11.dtd">
<svg width="100%" height="100%" viewBox="0 0 159 202" version="1.1" xmlns="http://www.w3.org/2000/svg" xmlns:xlink="http://www.w3.org/1999/xlink" xml:space="preserve" xmlns:serif="http://www.serif.com/" style="fill-rule:evenodd;clip-rule:evenodd;stroke-linejoin:round;stroke-miterlimit:10;">
    <g id="Layer" transform="matrix(1,0,0,1,-1745.51,-108.807)">
        <g>
            <g>
                <g>
                    <path d="M1764.34,138.605C1764.34,130.353 1770.37,123.663 1777.81,123.663L1838.32,123.663C1845.76,123.663 1851.79,130.353 1851.79,138.605L1851.79,269.215C1851.79,277.467 1845.76,284.156 1838.32,284.156L1777.81,284.156C1770.37,284.156 1764.34,277.467 1764.34,269.215L1764.34,138.605Z" style="fill:rgb(192,163,255);fill-rule:nonzero;stroke:rgb(70,49,116);stroke-width:2.8px;"/>
                    <path d="M1796.36,128.965C1796.36,127.397 1797.63,126.126 1799.2,126.126L1816.93,126.126C1818.49,126.126 1819.77,127.397 1819.77,128.965C1819.77,130.533 1818.49,131.804 1816.93,131.804L1799.2,131.804C1797.63,131.804 1796.36,130.533 1796.36,128.965Z" style="fill:rgb(70,49,116);fill-rule:nonzero;"/>
                    <path d="M1852.3,160.04L1850.41,160.04L1850.41,182.328L1852.3,182.328C1853.34,182.328 1854.19,181.483 1854.19,180.44L1854.19,161.928C1854.19,160.885 1853.34,160.04 1852.3,160.04Z" style="fill:rgb(70,49,116);fill-rule:nonzero;"/>
                    <path d="M1763.06,151.466L1764.34,151.466L1764.34,160.04L1763.06,160.04C1762.35,160.04 1761.77,159.466 1761.77,158.757L1761.77,152.749C1761.77,152.04 1762.35,151.466 1763.06,151.466Z" style="fill:rgb(70,49,116);fill-rule:nonzero;"/>
                    <path d="M1763.06,165.358L1764.34,165.358L1764.34,177.606L1763.06,177.606C1762.35,177.606 1761.77,177.031 1761.77,176.323L1761.77,166.641C1761.77,165.932 1762.35,165.358 1763.06,165.358Z" style="fill:rgb(70,49,116);fill-rule:nonzero;"/>
                    <path d="M1763.06,179.073L1764.34,179.073L1764.34,191.321L1763.06,191.321C1762.35,191.321 1761.77,190.747 1761.77,190.038L1761.77,180.356C1761.77,179.647 1762.35,179.073 1763.06,179.073Z" style="fill:rgb(70,49,116);fill-rule:nonzero;"/>
                    <path d="M1859.81,302.954C1859.81,299.332 1869.62,296.397 1881.74,296.397C1893.85,296.397 1903.66,299.332 1903.66,302.954C1903.66,306.575 1893.85,309.511 1881.74,309.511C1869.62,309.511 1859.81,306.575 1859.81,302.954Z" style="fill:rgb(116,81,194);fill-rule:nonzero;"/>
                    <g>
                        <path d="M1858.28,289.701C1859.87,280.382 1868.59,274.095 1877.74,275.658C1886.9,277.221 1893.03,286.042 1891.44,295.36C1889.85,304.679 1888.71,311.365 1871.98,309.403C1855.28,307.443 1856.69,299.019 1858.28,289.701Z" style="fill:white;fill-rule:nonzero;stroke:rgb(70,49,116);stroke-width:0.75px;"/>
                    </g>
                    <path d="M1858.9,287.354C1861.06,289.117 1861.79,289.383 1862.02,289.527C1862.02,289.527 1861.89,289.79 1861.74,290.053C1861.25,290.901 1859.1,290.955 1858.12,290.648L1858.9,287.354Z" style="fill:rgb(70,49,116);fill-rule:nonzero;"/>
                    <g>
                        <path d="M1863.6,283.491C1863.79,282.175 1865.02,281.266 1866.33,281.461C1867.64,281.657 1868.54,282.883 1868.35,284.199C1868.15,285.516 1866.93,286.425 1865.62,286.229C1864.31,286.034 1863.4,284.808 1863.6,283.491Z" style="fill:rgb(70,49,116);fill-rule:nonzero;"/>
                        <path d="M1864.32,282.634C1864.41,282.057 1864.94,281.659 1865.52,281.745C1866.09,281.83 1866.49,282.367 1866.4,282.944C1866.32,283.521 1865.78,283.919 1865.21,283.834C1864.63,283.748 1864.24,283.211 1864.32,282.634Z" style="fill:white;fill-rule:nonzero;"/>
                    </g>
                    <path d="M1858.46,290.73C1858.46,290.73 1858.89,289.581 1859.9,289.228C1860.92,288.871 1862.02,289.526 1862.02,289.526C1862.02,289.526 1861.67,290.868 1859.91,290.87C1858.89,290.871 1858.46,290.73 1858.46,290.73Z" style="fill:rgb(89,63,146);fill-rule:nonzero;"/>
                    <path d="M1872.94,248.989L1873.74,248.989C1873.93,248.989 1874.08,249.146 1874.08,249.337L1874.08,250.132C1874.08,250.325 1873.93,250.48 1873.74,250.48L1872.94,250.48C1872.75,250.479 1872.59,250.324 1872.59,250.132L1872.59,249.337C1872.59,249.244 1872.63,249.156 1872.69,249.091C1872.76,249.025 1872.85,248.989 1872.94,248.989ZM1875.7,248.989L1876.49,248.989C1876.69,248.99 1876.84,249.145 1876.84,249.337L1876.84,250.132C1876.84,250.325 1876.69,250.48 1876.49,250.48L1875.7,250.48C1875.51,250.479 1875.35,250.324 1875.35,250.132L1875.35,249.337C1875.35,249.145 1875.51,248.99 1875.7,248.989ZM1878.46,248.989L1879.26,248.989C1879.45,248.99 1879.6,249.145 1879.6,249.337L1879.6,250.132C1879.6,250.325 1879.45,250.48 1879.26,250.48L1878.46,250.48C1878.27,250.479 1878.11,250.324 1878.11,250.132L1878.11,249.337C1878.11,249.244 1878.15,249.156 1878.21,249.091C1878.28,249.025 1878.37,248.989 1878.46,248.989ZM1881.22,248.989L1882.01,248.989C1882.21,248.99 1882.36,249.145 1882.36,249.337L1882.36,250.132C1882.36,250.325 1882.21,250.48 1882.01,250.48L1881.22,250.48C1881.03,250.48 1880.87,250.324 1880.87,250.132L1880.87,249.337C1880.87,249.145 1881.03,248.99 1881.22,248.989ZM1883.98,248.989L1884.77,248.989C1884.97,248.989 1885.12,249.146 1885.12,249.337L1885.12,250.132C1885.12,250.325 1884.97,250.48 1884.77,250.48L1883.98,250.48C1883.79,250.479 1883.63,250.324 1883.63,250.132L1883.63,249.337C1883.63,249.145 1883.79,248.99 1883.98,248.989ZM1875.8,251.998L1876.6,251.998C1876.79,251.999 1876.94,252.154 1876.94,252.345L1876.94,253.143C1876.94,253.334 1876.79,253.49 1876.6,253.49L1875.8,253.49C1875.61,253.49 1875.45,253.335 1875.45,253.143L1875.45,252.347C1875.45,252.254 1875.49,252.166 1875.55,252.1C1875.62,252.034 1875.71,251.998 1875.8,251.998ZM1878.56,251.998L1879.36,251.998C1879.55,251.999 1879.7,252.154 1879.7,252.345L1879.7,253.143C1879.7,253.334 1879.55,253.49 1879.36,253.49L1878.56,253.49C1878.37,253.489 1878.21,253.334 1878.21,253.143L1878.21,252.347C1878.21,252.254 1878.25,252.166 1878.31,252.1C1878.38,252.034 1878.47,251.998 1878.56,251.998ZM1881.32,251.998L1882.11,251.998C1882.31,251.998 1882.46,252.155 1882.46,252.345L1882.46,253.143C1882.46,253.335 1882.31,253.49 1882.11,253.49L1881.32,253.49C1881.13,253.489 1880.97,253.334 1880.97,253.143L1880.97,252.347C1880.97,252.155 1881.13,251.998 1881.32,251.998ZM1878.46,245.757L1879.26,245.757C1879.45,245.757 1879.6,245.913 1879.6,246.104L1879.6,246.9C1879.6,247.092 1879.45,247.247 1879.26,247.247L1878.46,247.247C1878.27,247.247 1878.11,247.091 1878.11,246.9L1878.11,246.104C1878.11,246.012 1878.15,245.923 1878.21,245.858C1878.28,245.793 1878.37,245.757 1878.46,245.757ZM1881.22,245.757L1882.01,245.757C1882.21,245.757 1882.36,245.913 1882.36,246.104L1882.36,246.9C1882.36,247.092 1882.21,247.247 1882.01,247.247L1881.22,247.247C1881.03,247.247 1880.87,247.092 1880.87,246.9L1880.87,246.104C1880.87,245.913 1881.03,245.758 1881.22,245.757Z" style="fill:rgb(89,63,146);"/>
                    <path d="M1763.94,116.809L1763.03,116.809C1762.81,116.809 1762.63,116.629 1762.63,116.411L1762.63,115.5C1762.63,115.281 1762.81,115.103 1763.03,115.103L1763.94,115.103C1764.16,115.104 1764.34,115.281 1764.34,115.5L1764.34,116.411C1764.34,116.517 1764.3,116.618 1764.22,116.692C1764.15,116.767 1764.05,116.809 1763.94,116.809ZM1760.79,116.809L1759.87,116.809C1759.66,116.808 1759.48,116.63 1759.48,116.411L1759.48,115.5C1759.48,115.281 1759.66,115.103 1759.87,115.103L1760.79,115.103C1761,115.104 1761.18,115.281 1761.18,115.5L1761.18,116.411C1761.18,116.63 1761,116.808 1760.79,116.809ZM1757.63,116.809L1756.72,116.809C1756.5,116.808 1756.32,116.63 1756.32,116.411L1756.32,115.5C1756.32,115.281 1756.5,115.103 1756.72,115.103L1757.63,115.103C1757.85,115.104 1758.02,115.281 1758.02,115.5L1758.02,116.411C1758.02,116.517 1757.98,116.618 1757.91,116.692C1757.83,116.767 1757.73,116.809 1757.63,116.809ZM1754.47,116.809L1753.56,116.809C1753.34,116.808 1753.16,116.63 1753.16,116.411L1753.16,115.5C1753.16,115.281 1753.34,115.103 1753.56,115.103L1754.47,115.103C1754.69,115.103 1754.87,115.281 1754.87,115.5L1754.87,116.411C1754.87,116.63 1754.69,116.807 1754.47,116.809ZM1751.31,116.809L1750.4,116.809C1750.18,116.809 1750,116.629 1750,116.411L1750,115.5C1750,115.281 1750.18,115.103 1750.4,115.103L1751.31,115.103C1751.53,115.104 1751.71,115.281 1751.71,115.5L1751.71,116.411C1751.71,116.63 1751.53,116.808 1751.31,116.809ZM1760.67,113.366L1759.76,113.366C1759.54,113.365 1759.36,113.188 1759.36,112.968L1759.36,112.056C1759.36,111.838 1759.54,111.659 1759.76,111.659L1760.67,111.659C1760.89,111.659 1761.07,111.836 1761.07,112.056L1761.07,112.967C1761.07,113.073 1761.03,113.174 1760.95,113.249C1760.88,113.324 1760.77,113.366 1760.67,113.366ZM1757.51,113.366L1756.6,113.366C1756.38,113.365 1756.2,113.188 1756.2,112.968L1756.2,112.056C1756.2,111.838 1756.38,111.659 1756.6,111.659L1757.51,111.659C1757.73,111.659 1757.91,111.837 1757.91,112.056L1757.91,112.967C1757.91,113.073 1757.87,113.174 1757.79,113.249C1757.72,113.324 1757.62,113.366 1757.51,113.366ZM1754.35,113.366L1753.44,113.366C1753.22,113.366 1753.04,113.187 1753.04,112.968L1753.04,112.056C1753.05,111.836 1753.22,111.659 1753.44,111.659L1754.35,111.659C1754.57,111.659 1754.75,111.837 1754.75,112.056L1754.75,112.967C1754.75,113.187 1754.57,113.366 1754.35,113.366ZM1757.63,120.507L1756.72,120.507C1756.5,120.507 1756.32,120.328 1756.32,120.11L1756.32,119.199C1756.32,118.979 1756.5,118.802 1756.72,118.802L1757.63,118.802C1757.85,118.802 1758.02,118.98 1758.02,119.199L1758.02,120.11C1758.02,120.215 1757.98,120.316 1757.91,120.391C1757.83,120.465 1757.73,120.507 1757.63,120.507ZM1754.47,120.507L1753.56,120.507C1753.34,120.507 1753.16,120.328 1753.16,120.11L1753.16,119.199C1753.16,118.979 1753.34,118.802 1753.56,118.802L1754.47,118.802C1754.69,118.802 1754.87,118.979 1754.87,119.199L1754.87,120.11C1754.87,120.329 1754.69,120.505 1754.47,120.507Z" style="fill:rgb(89,63,146);"/>
                    <path d="M1819.82,110.233C1819.82,111.02 1820.46,111.659 1821.26,111.659C1822.05,111.659 1822.7,111.02 1822.7,110.233C1822.7,109.445 1822.05,108.807 1821.26,108.807C1820.46,108.807 1819.82,109.445 1819.82,110.233Z" style="fill:rgb(89,63,146);fill-rule:nonzero;"/>
                    <path d="M1745.51,171.448C1745.51,172.235 1746.16,172.874 1746.95,172.874C1747.74,172.874 1748.39,172.235 1748.39,171.448C1748.39,170.66 1747.74,170.022 1746.95,170.022C1746.16,170.022 1745.51,170.66 1745.51,171.448Z" style="fill:rgb(89,63,146);fill-rule:nonzero;"/>
                    <path d="M1776.08,301.004C1776.08,301.791 1776.73,302.43 1777.52,302.43C1778.31,302.43 1778.96,301.791 1778.96,301.004C1778.96,300.216 1778.31,299.578 1777.52,299.578C1776.73,299.578 1776.08,300.216 1776.08,301.004Z" style="fill:rgb(89,63,146);fill-rule:nonzero;"/>
                    <path d="M1871.01,172.584C1872.28,171.892 1872.59,170.006 1872.59,170.006C1872.59,170.006 1870.84,169.243 1869.57,169.936C1868.29,170.628 1867.98,172.513 1867.98,172.513C1867.98,172.513 1869.73,173.276 1871.01,172.584Z" style="fill:rgb(89,63,146);fill-rule:nonzero;"/>
                    <path d="M1817.56,303.508C1818.27,302.244 1817.53,300.481 1817.53,300.481C1817.53,300.481 1815.64,300.769 1814.94,302.034C1814.23,303.297 1814.97,305.06 1814.97,305.06C1814.97,305.06 1816.85,304.772 1817.56,303.508Z" style="fill:rgb(89,63,146);fill-rule:nonzero;"/>
                    <path d="M1748.91,228.361C1751.39,229.412 1754.49,227.685 1754.49,227.685C1754.49,227.685 1753.57,224.255 1751.09,223.206C1748.61,222.156 1745.51,223.881 1745.51,223.881C1745.51,223.881 1746.43,227.31 1748.91,228.361Z" style="fill:rgb(89,63,146);fill-rule:nonzero;"/>
                </g>
            </g>
            <g>
                <path d="M1818.06,157.579C1818.06,153.03 1821.75,149.343 1826.3,149.343L1839.3,149.343C1843.85,149.343 1847.54,153.03 1847.54,157.579L1847.54,183.901C1847.54,188.45 1843.85,192.137 1839.3,192.137L1826.3,192.137C1821.75,192.137 1818.06,188.45 1818.06,183.901L1818.06,157.579Z" style="fill:rgb(89,63,146);fill-rule:nonzero;"/>
                <path d="M1765.69,250.942C1765.69,227.931 1784.65,209.277 1808.05,209.277C1831.44,209.277 1850.4,227.931 1850.4,250.942C1850.4,273.953 1832.02,261.069 1808.63,261.069C1785.24,261.069 1765.69,273.953 1765.69,250.942Z" style="fill:rgb(89,63,146);fill-rule:nonzero;"/>
                <g>
                    <path d="M1821.47,176.288C1821.47,170.074 1826.54,165.036 1832.8,165.036C1839.06,165.036 1844.13,170.074 1844.13,176.288C1844.13,182.502 1844.2,187.54 1832.8,187.54C1821.47,187.54 1821.47,182.502 1821.47,176.288Z" style="fill:white;fill-rule:nonzero;"/>
                    <g>
                        <g>
                            <path d="M1831.75,180.209C1831.75,179.467 1832.45,179.293 1833.16,179.293C1833.88,179.293 1834.6,179.451 1834.6,180.209C1834.6,180.967 1833.95,181.483 1833.16,181.483C1832.37,181.483 1831.75,180.95 1831.75,180.209Z" style="fill:rgb(70,49,116);fill-rule:nonzero;"/>
                        </g>
                        <path d="M1831.99,180.934C1831.82,180.684 1832.52,180.306 1833.16,180.282C1833.8,180.257 1834.54,180.627 1834.37,180.917C1834.18,181.25 1833.67,181.481 1833.19,181.481C1832.71,181.481 1832.22,181.266 1831.99,180.934Z" style="fill:rgb(116,81,194);fill-opacity:0.45;fill-rule:nonzero;"/>
                    </g>
                    <g>
                        <g>
                            <path d="M1827.05,176.707C1827.05,175.908 1827.66,175.261 1828.41,175.261C1829.16,175.261 1829.77,175.908 1829.77,176.707C1829.77,177.505 1829.16,178.153 1828.41,178.153C1827.66,178.153 1827.05,177.505 1827.05,176.707Z" style="fill:rgb(70,49,116);fill-rule:nonzero;"/>
                            <path d="M1827.85,177.448C1827.85,177.16 1828.11,176.926 1828.43,176.926C1828.76,176.926 1829.02,177.16 1829.02,177.448C1829.02,177.736 1828.76,177.969 1828.43,177.969C1828.11,177.969 1827.85,177.736 1827.85,177.448Z" style="fill:white;fill-rule:nonzero;"/>
                        </g>
                        <g>
                            <path d="M1836.35,176.707C1836.35,175.908 1836.96,175.261 1837.71,175.261C1838.46,175.261 1839.07,175.908 1839.07,176.707C1839.07,177.505 1838.46,178.153 1837.71,178.153C1836.96,178.153 1836.35,177.505 1836.35,176.707Z" style="fill:rgb(70,49,116);fill-rule:nonzero;"/>
                            <path d="M1837.05,177.492C1837.05,177.204 1837.31,176.971 1837.64,176.971C1837.96,176.971 1838.22,177.204 1838.22,177.492C1838.22,177.78 1837.96,178.013 1837.64,178.013C1837.31,178.013 1837.05,177.78 1837.05,177.492Z" style="fill:white;fill-rule:nonzero;"/>
                        </g>
                    </g>
                </g>
                <g>
                    <path d="M1778.17,225.943C1778.17,209.508 1791.59,196.184 1808.14,196.184C1824.7,196.184 1838.12,209.508 1838.12,225.943C1838.12,242.379 1838.29,255.702 1808.14,255.703C1778.17,255.703 1778.17,242.379 1778.17,225.943Z" style="fill:white;fill-rule:nonzero;"/>
                    <g>
                        <g>
                            <path d="M1805.36,236.312C1805.36,234.351 1807.21,233.892 1809.1,233.892C1810.99,233.892 1812.91,234.307 1812.91,236.312C1812.91,238.317 1811.18,239.683 1809.1,239.683C1807.01,239.683 1805.36,238.273 1805.36,236.312Z" style="fill:rgb(70,49,116);fill-rule:nonzero;"/>
                        </g>
                        <path d="M1806.01,238.23C1805.55,237.569 1807.4,236.57 1809.09,236.505C1810.78,236.441 1812.75,237.419 1812.3,238.186C1811.79,239.068 1810.46,239.678 1809.18,239.678C1807.9,239.678 1806.61,239.108 1806.01,238.23Z" style="fill:rgb(116,81,194);fill-opacity:0.45;fill-rule:nonzero;"/>
                    </g>
                    <g>
                        <g>
                            <path d="M1792.94,227.05C1792.94,224.938 1794.55,223.225 1796.54,223.225C1798.52,223.225 1800.13,224.938 1800.13,227.05C1800.13,229.162 1798.52,230.874 1796.54,230.874C1794.55,230.874 1792.94,229.162 1792.94,227.05Z" style="fill:rgb(70,49,116);fill-rule:nonzero;"/>
                            <path d="M1795.62,228.942C1795.62,228.012 1796.31,227.258 1797.17,227.258C1798.02,227.258 1798.71,228.012 1798.71,228.942C1798.71,229.873 1798.02,230.627 1797.17,230.627C1796.31,230.627 1795.62,229.873 1795.62,228.942Z" style="fill:white;fill-rule:nonzero;"/>
                        </g>
                        <g>
                            <path d="M1817.53,227.05C1817.53,224.938 1819.14,223.225 1821.13,223.225C1823.12,223.225 1824.73,224.938 1824.73,227.05C1824.73,229.162 1823.12,230.874 1821.13,230.874C1819.14,230.874 1817.53,229.162 1817.53,227.05Z" style="fill:rgb(70,49,116);fill-rule:nonzero;"/>
                            <path d="M1819.25,228.95C1819.25,227.978 1819.95,227.19 1820.8,227.19C1821.65,227.19 1822.35,227.978 1822.35,228.95C1822.35,229.922 1821.65,230.71 1820.8,230.71C1819.95,230.71 1819.25,229.922 1819.25,228.95Z" style="fill:white;fill-rule:nonzero;"/>
                        </g>
                    </g>
                </g>
                <path d="M1772.66,273.201C1772.66,269.887 1775.35,267.201 1778.66,267.201C1781.97,267.201 1784.66,269.887 1784.66,273.201C1784.66,276.514 1781.97,279.201 1778.66,279.201C1775.35,279.201 1772.66,276.514 1772.66,273.201Z" style="fill:rgb(214,29,51);fill-rule:nonzero;"/>
                <path d="M1787.65,273.201C1787.65,269.887 1790.33,267.201 1793.65,267.201C1796.96,267.201 1799.65,269.887 1799.65,273.201C1799.65,276.514 1796.96,279.201 1793.65,279.201C1790.33,279.201 1787.65,276.514 1787.65,273.201Z" style="fill:white;fill-rule:nonzero;"/>
                <path d="M1802.63,273.201C1802.63,269.887 1805.32,267.201 1808.63,267.201C1811.94,267.201 1814.63,269.887 1814.63,273.201C1814.63,276.514 1811.94,279.201 1808.63,279.201C1805.32,279.201 1802.63,276.514 1802.63,273.201Z" style="fill:white;fill-rule:nonzero;"/>
                <path d="M1817.62,273.201C1817.62,269.887 1820.3,267.201 1823.62,267.201C1826.93,267.201 1829.62,269.887 1829.62,273.201C1829.62,276.514 1826.93,279.201 1823.62,279.201C1820.3,279.201 1817.62,276.514 1817.62,273.201Z" style="fill:white;fill-rule:nonzero;"/>
                <path d="M1832.6,273.201C1832.6,269.887 1835.29,267.201 1838.6,267.201C1841.92,267.201 1844.6,269.887 1844.6,273.201C1844.6,276.514 1841.92,279.201 1838.6,279.201C1835.29,279.201 1832.6,276.514 1832.6,273.201Z" style="fill:white;fill-rule:nonzero;"/>
                <g>
                    <path d="M1782,273.293C1781.1,272.406 1779.89,271.921 1778.65,271.919C1777.42,271.931 1776.21,272.427 1775.32,273.322C1775.19,273.454 1775.23,273.629 1775.32,273.715L1776.01,274.401C1776.12,274.508 1776.29,274.509 1776.4,274.404C1776.53,274.283 1776.69,274.134 1776.81,274.052C1776.93,273.964 1777.1,273.872 1777.21,273.809C1777.31,273.76 1777.36,273.664 1777.36,273.559L1777.36,272.691C1777.82,272.546 1778.25,272.488 1778.65,272.487C1779.06,272.484 1779.49,272.539 1779.95,272.679L1779.96,273.548C1779.96,273.624 1779.99,273.696 1780.04,273.748C1780.06,273.767 1780.08,273.784 1780.11,273.797C1780.23,273.859 1780.39,273.95 1780.52,274.037C1780.63,274.117 1780.8,274.265 1780.92,274.385C1781.03,274.489 1781.21,274.486 1781.31,274.379L1782,273.686C1782.08,273.6 1782.13,273.425 1782,273.293ZM1776.81,273.399C1776.68,273.47 1776.57,273.537 1776.49,273.599C1776.41,273.652 1776.32,273.725 1776.22,273.819L1775.92,273.522C1776.19,273.285 1776.49,273.085 1776.81,272.924L1776.81,273.399ZM1781.11,273.798C1781,273.705 1780.91,273.633 1780.83,273.58C1780.75,273.519 1780.64,273.453 1780.51,273.383L1780.51,272.908C1780.83,273.066 1781.13,273.264 1781.4,273.499L1781.11,273.798Z" style="fill:white;fill-rule:nonzero;"/>
                </g>
                <g>
                    <g>
                        <path d="M1793.02,271.719L1795.52,274.214L1796,274.605C1796.05,274.64 1796.1,274.658 1796.16,274.658C1796.19,274.658 1796.23,274.644 1796.26,274.628C1796.35,274.587 1796.4,274.507 1796.4,274.413L1796.4,272.454C1796.4,272.36 1796.35,272.273 1796.26,272.232C1796.18,272.192 1796.08,272.204 1796,272.263L1795.18,272.921L1795.18,272.209C1795.18,271.939 1794.96,271.719 1794.69,271.719L1793.02,271.719Z" style="fill:rgb(48,48,48);fill-rule:nonzero;"/>
                        <path d="M1791.5,271.719C1791.23,271.719 1791.01,271.939 1791.01,272.209L1791.01,274.658C1791.01,274.928 1791.23,275.148 1791.5,275.148L1794.69,275.148C1794.89,275.148 1795.03,275.009 1795.11,274.834C1795.13,274.775 1795.18,274.727 1795.18,274.658L1795.18,274.566L1792.33,271.719L1791.5,271.719Z" style="fill:rgb(48,48,48);fill-rule:nonzero;"/>
                    </g>
                    <path d="M1791.06,271.121C1790.97,271.025 1790.97,270.87 1791.06,270.774L1791.15,270.692C1791.24,270.597 1791.4,270.598 1791.49,270.694L1796.03,275.281C1796.13,275.377 1796.13,275.532 1796.03,275.627L1795.95,275.709C1795.85,275.804 1795.7,275.804 1795.6,275.708L1791.06,271.121Z" style="fill:rgb(48,48,48);fill-rule:nonzero;"/>
                </g>
                <g>
                    <path d="M1806.01,270.954L1806.38,270.583L1811.25,275.448L1810.88,275.819L1806.01,270.954Z" style="fill:rgb(48,48,48);fill-rule:nonzero;"/>
                    <path d="M1809.42,272.886L1809.42,271.362C1809.42,270.916 1809.08,270.575 1808.63,270.575C1808.21,270.575 1807.87,270.916 1807.84,271.31L1809.42,272.886ZM1810.36,273.831C1810.44,273.647 1810.47,273.437 1810.47,273.201L1809.94,273.201C1809.94,273.28 1809.94,273.332 1809.92,273.385L1810.36,273.831ZM1809.71,273.936C1809.47,274.278 1809.08,274.514 1808.63,274.514C1807.9,274.514 1807.32,273.936 1807.32,273.201L1806.79,273.201C1806.79,274.12 1807.48,274.882 1808.37,275.013L1808.37,275.827L1808.89,275.827L1808.89,275.013C1809.39,274.934 1809.81,274.671 1810.1,274.304L1809.71,273.936Z" style="fill:rgb(48,48,48);fill-rule:nonzero;"/>
                    <path d="M1808.63,273.989C1808.95,273.989 1809.21,273.805 1809.34,273.542L1807.84,272.045L1807.84,273.201C1807.84,273.647 1808.18,273.989 1808.63,273.989Z" style="fill:rgb(48,48,48);fill-rule:nonzero;"/>
                </g>
                <g>
                    <path d="M1821.89,271.261L1821.68,271.261C1821.56,271.261 1821.46,271.358 1821.46,271.477L1822.11,271.477C1822.11,271.358 1822.01,271.261 1821.89,271.261Z" style="fill:rgb(48,48,48);fill-rule:nonzero;"/>
                    <path d="M1825.99,271.692L1825.07,271.692C1824.91,271.692 1824.76,271.6 1824.68,271.454L1824.6,271.284C1824.52,271.138 1824.38,271.046 1824.21,271.046L1823.02,271.046C1822.86,271.046 1822.71,271.138 1822.64,271.284L1822.55,271.454C1822.48,271.6 1822.33,271.692 1822.17,271.692L1821.25,271.692C1821.01,271.692 1820.82,271.885 1820.82,272.123L1820.82,274.925C1820.82,275.163 1821.01,275.356 1821.25,275.356L1825.99,275.356C1826.23,275.356 1826.42,275.163 1826.42,274.925L1826.42,272.123C1826.42,271.885 1826.23,271.692 1825.99,271.692ZM1823.62,274.925C1823.23,274.925 1822.84,274.775 1822.55,274.483C1822.26,274.196 1822.11,273.813 1822.11,273.416L1821.68,273.416L1822.32,272.77L1822.97,273.416L1822.54,273.416C1822.54,273.699 1822.65,273.973 1822.86,274.178C1823.22,274.545 1823.8,274.599 1824.22,274.307L1824.47,274.662C1824.21,274.839 1823.91,274.925 1823.62,274.925ZM1824.91,274.063L1824.26,273.416L1824.69,273.416C1824.69,273.133 1824.58,272.859 1824.38,272.654C1824.01,272.288 1823.44,272.234 1823.01,272.526L1822.77,272.17C1823.36,271.761 1824.17,271.837 1824.68,272.35C1824.97,272.636 1825.12,273.02 1825.12,273.416L1825.56,273.416L1824.91,274.063Z" style="fill:rgb(48,48,48);fill-rule:nonzero;"/>
                </g>
                <g>
                    <path d="M1838.6,270.067C1838.22,270.067 1837.91,270.379 1837.91,270.764C1837.91,271.148 1838.22,271.46 1838.6,271.46C1838.99,271.46 1839.3,271.148 1839.3,270.764C1839.3,270.379 1838.99,270.067 1838.6,270.067ZM1838.6,272.504C1838.22,272.504 1837.91,272.816 1837.91,273.201C1837.91,273.585 1838.22,273.897 1838.6,273.897C1838.99,273.897 1839.3,273.585 1839.3,273.201C1839.3,272.816 1838.99,272.504 1838.6,272.504ZM1838.6,274.942C1838.22,274.942 1837.91,275.253 1837.91,275.638C1837.91,276.022 1838.22,276.334 1838.6,276.334C1838.99,276.334 1839.3,276.022 1839.3,275.638C1839.3,275.253 1838.99,274.942 1838.6,274.942Z" style="fill:rgb(48,48,48);fill-rule:nonzero;"/>
                </g>
                <g transform="matrix(1,0,0,1,1787.39,143.509)">
                    <g transform="matrix(4.62011,0,0,4.62011,0,0)">
                        <path d="M0.567,-0.702L0.567,-0.565L0.381,-0.565L0.381,0L0.21,0L0.21,-0.565L0.024,-0.565L0.024,-0.702L0.567,-0.702Z" style="fill:white;fill-rule:nonzero;"/>
                    </g>
                    <g transform="matrix(4.62011,0,0,4.62011,2.73049,0)">
                        <path d="M0.67,-0.702L0.67,0L0.499,0L0.499,-0.289L0.233,-0.289L0.233,0L0.062,0L0.062,-0.702L0.233,-0.702L0.233,-0.427L0.499,-0.427L0.499,-0.702L0.67,-0.702Z" style="fill:white;fill-rule:nonzero;"/>
                    </g>
                    <g transform="matrix(4.62011,0,0,4.62011,6.10779,0)">
                        <path d="M0.233,-0.565L0.233,-0.423L0.462,-0.423L0.462,-0.291L0.233,-0.291L0.233,-0.137L0.492,-0.137L0.492,0L0.062,0L0.062,-0.702L0.492,-0.702L0.492,-0.565L0.233,-0.565Z" style="fill:white;fill-rule:nonzero;"/>
                    </g>
                    <g transform="matrix(4.62011,0,0,4.62011,8.60726,0)">
                        <path d="M0.42,0L0.274,-0.265L0.233,-0.265L0.233,0L0.062,0L0.062,-0.702L0.349,-0.702C0.404,-0.702 0.452,-0.692 0.491,-0.673C0.53,-0.654 0.559,-0.627 0.578,-0.594C0.597,-0.56 0.607,-0.522 0.607,-0.481C0.607,-0.434 0.594,-0.393 0.568,-0.356C0.541,-0.319 0.502,-0.293 0.451,-0.278L0.613,0L0.42,0ZM0.233,-0.386L0.339,-0.386C0.37,-0.386 0.394,-0.394 0.41,-0.409C0.425,-0.424 0.433,-0.446 0.433,-0.474C0.433,-0.501 0.425,-0.522 0.41,-0.537C0.394,-0.552 0.37,-0.56 0.339,-0.56L0.233,-0.56L0.233,-0.386Z" style="fill:white;fill-rule:nonzero;"/>
                    </g>
                    <g transform="matrix(4.62011,0,0,4.62011,11.6196,0)">
                        <path d="M0.499,-0.124L0.237,-0.124L0.195,0L0.016,0L0.27,-0.702L0.468,-0.702L0.722,0L0.541,0L0.499,-0.124ZM0.455,-0.256L0.368,-0.513L0.282,-0.256L0.455,-0.256Z" style="fill:white;fill-rule:nonzero;"/>
                    </g>
                    <g transform="matrix(4.62011,0,0,4.62011,15.0246,0)">
                        <path d="M0.597,-0.476C0.597,-0.435 0.588,-0.398 0.569,-0.365C0.55,-0.331 0.522,-0.304 0.483,-0.283C0.444,-0.262 0.396,-0.252 0.339,-0.252L0.233,-0.252L0.233,0L0.062,0L0.062,-0.702L0.339,-0.702C0.395,-0.702 0.442,-0.692 0.481,-0.673C0.52,-0.654 0.549,-0.627 0.568,-0.593C0.587,-0.559 0.597,-0.52 0.597,-0.476ZM0.326,-0.388C0.359,-0.388 0.383,-0.396 0.399,-0.411C0.415,-0.426 0.423,-0.448 0.423,-0.476C0.423,-0.504 0.415,-0.526 0.399,-0.541C0.383,-0.556 0.359,-0.564 0.326,-0.564L0.233,-0.564L0.233,-0.388L0.326,-0.388Z" style="fill:white;fill-rule:nonzero;"/>
                    </g>
                    <g transform="matrix(4.62011,0,0,4.62011,17.9075,0)">
                        <path d="M0.664,-0.702L0.421,-0.232L0.421,0L0.25,0L0.25,-0.232L0.007,-0.702L0.201,-0.702L0.337,-0.408L0.472,-0.702L0.664,-0.702Z" style="fill:white;fill-rule:nonzero;"/>
                    </g>
                    <g transform="matrix(4.62011,0,0,4.62011,21.9871,0)">
                        <path d="M0.316,0.007C0.265,0.007 0.219,-0.001 0.178,-0.018C0.137,-0.035 0.105,-0.059 0.081,-0.092C0.056,-0.125 0.043,-0.164 0.042,-0.21L0.224,-0.21C0.227,-0.184 0.236,-0.164 0.251,-0.151C0.266,-0.137 0.286,-0.13 0.311,-0.13C0.336,-0.13 0.356,-0.136 0.371,-0.148C0.386,-0.159 0.393,-0.175 0.393,-0.196C0.393,-0.213 0.387,-0.228 0.376,-0.239C0.364,-0.25 0.349,-0.26 0.333,-0.267C0.316,-0.274 0.291,-0.283 0.26,-0.292C0.215,-0.306 0.178,-0.32 0.149,-0.334C0.12,-0.348 0.096,-0.369 0.075,-0.396C0.054,-0.423 0.044,-0.459 0.044,-0.503C0.044,-0.568 0.068,-0.619 0.115,-0.657C0.162,-0.693 0.224,-0.712 0.3,-0.712C0.377,-0.712 0.44,-0.693 0.487,-0.657C0.534,-0.619 0.56,-0.568 0.563,-0.502L0.378,-0.502C0.377,-0.525 0.368,-0.543 0.353,-0.556C0.338,-0.569 0.318,-0.575 0.294,-0.575C0.273,-0.575 0.257,-0.57 0.244,-0.559C0.231,-0.548 0.225,-0.532 0.225,-0.511C0.225,-0.488 0.236,-0.471 0.257,-0.458C0.278,-0.445 0.312,-0.432 0.357,-0.417C0.402,-0.402 0.439,-0.387 0.468,-0.373C0.496,-0.359 0.52,-0.339 0.541,-0.312C0.562,-0.285 0.572,-0.251 0.572,-0.209C0.572,-0.169 0.562,-0.133 0.542,-0.1C0.521,-0.067 0.492,-0.041 0.453,-0.022C0.414,-0.003 0.369,0.007 0.316,0.007Z" style="fill:white;fill-rule:nonzero;"/>
                    </g>
                    <g transform="matrix(4.62011,0,0,4.62011,24.8285,0)">
                        <path d="M0.233,-0.565L0.233,-0.423L0.462,-0.423L0.462,-0.291L0.233,-0.291L0.233,-0.137L0.492,-0.137L0.492,0L0.062,0L0.062,-0.702L0.492,-0.702L0.492,-0.565L0.233,-0.565Z" style="fill:white;fill-rule:nonzero;"/>
                    </g>
                    <g transform="matrix(4.62011,0,0,4.62011,27.328,0)">
                        <path d="M0.316,0.007C0.265,0.007 0.219,-0.001 0.178,-0.018C0.137,-0.035 0.105,-0.059 0.081,-0.092C0.056,-0.125 0.043,-0.164 0.042,-0.21L0.224,-0.21C0.227,-0.184 0.236,-0.164 0.251,-0.151C0.266,-0.137 0.286,-0.13 0.311,-0.13C0.336,-0.13 0.356,-0.136 0.371,-0.148C0.386,-0.159 0.393,-0.175 0.393,-0.196C0.393,-0.213 0.387,-0.228 0.376,-0.239C0.364,-0.25 0.349,-0.26 0.333,-0.267C0.316,-0.274 0.291,-0.283 0.26,-0.292C0.215,-0.306 0.178,-0.32 0.149,-0.334C0.12,-0.348 0.096,-0.369 0.075,-0.396C0.054,-0.423 0.044,-0.459 0.044,-0.503C0.044,-0.568 0.068,-0.619 0.115,-0.657C0.162,-0.693 0.224,-0.712 0.3,-0.712C0.377,-0.712 0.44,-0.693 0.487,-0.657C0.534,-0.619 0.56,-0.568 0.563,-0.502L0.378,-0.502C0.377,-0.525 0.368,-0.543 0.353,-0.556C0.338,-0.569 0.318,-0.575 0.294,-0.575C0.273,-0.575 0.257,-0.57 0.244,-0.559C0.231,-0.548 0.225,-0.532 0.225,-0.511C0.225,-0.488 0.236,-0.471 0.257,-0.458C0.278,-0.445 0.312,-0.432 0.357,-0.417C0.402,-0.402 0.439,-0.387 0.468,-0.373C0.496,-0.359 0.52,-0.339 0.541,-0.312C0.562,-0.285 0.572,-0.251 0.572,-0.209C0.572,-0.169 0.562,-0.133 0.542,-0.1C0.521,-0.067 0.492,-0.041 0.453,-0.022C0.414,-0.003 0.369,0.007 0.316,0.007Z" style="fill:white;fill-rule:nonzero;"/>
                    </g>
                    <g transform="matrix(4.62011,0,0,4.62011,30.1693,0)">
                        <path d="M0.316,0.007C0.265,0.007 0.219,-0.001 0.178,-0.018C0.137,-0.035 0.105,-0.059 0.081,-0.092C0.056,-0.125 0.043,-0.164 0.042,-0.21L0.224,-0.21C0.227,-0.184 0.236,-0.164 0.251,-0.151C0.266,-0.137 0.286,-0.13 0.311,-0.13C0.336,-0.13 0.356,-0.136 0.371,-0.148C0.386,-0.159 0.393,-0.175 0.393,-0.196C0.393,-0.213 0.387,-0.228 0.376,-0.239C0.364,-0.25 0.349,-0.26 0.333,-0.267C0.316,-0.274 0.291,-0.283 0.26,-0.292C0.215,-0.306 0.178,-0.32 0.149,-0.334C0.12,-0.348 0.096,-0.369 0.075,-0.396C0.054,-0.423 0.044,-0.459 0.044,-0.503C0.044,-0.568 0.068,-0.619 0.115,-0.657C0.162,-0.693 0.224,-0.712 0.3,-0.712C0.377,-0.712 0.44,-0.693 0.487,-0.657C0.534,-0.619 0.56,-0.568 0.563,-0.502L0.378,-0.502C0.377,-0.525 0.368,-0.543 0.353,-0.556C0.338,-0.569 0.318,-0.575 0.294,-0.575C0.273,-0.575 0.257,-0.57 0.244,-0.559C0.231,-0.548 0.225,-0.532 0.225,-0.511C0.225,-0.488 0.236,-0.471 0.257,-0.458C0.278,-0.445 0.312,-0.432 0.357,-0.417C0.402,-0.402 0.439,-0.387 0.468,-0.373C0.496,-0.359 0.52,-0.339 0.541,-0.312C0.562,-0.285 0.572,-0.251 0.572,-0.209C0.572,-0.169 0.562,-0.133 0.542,-0.1C0.521,-0.067 0.492,-0.041 0.453,-0.022C0.414,-0.003 0.369,0.007 0.316,0.007Z" style="fill:white;fill-rule:nonzero;"/>
                    </g>
                    <g transform="matrix(4.62011,0,0,4.62011,33.0107,0)">
                        <rect x="0.062" y="-0.702" width="0.171" height="0.702" style="fill:white;fill-rule:nonzero;"/>
                    </g>
                    <g transform="matrix(4.62011,0,0,4.62011,34.3736,0)">
                        <path d="M0.394,0.007C0.328,0.007 0.268,-0.008 0.213,-0.039C0.158,-0.07 0.114,-0.113 0.082,-0.168C0.049,-0.223 0.033,-0.284 0.033,-0.353C0.033,-0.422 0.049,-0.483 0.082,-0.538C0.114,-0.593 0.158,-0.635 0.213,-0.666C0.268,-0.697 0.328,-0.712 0.394,-0.712C0.46,-0.712 0.521,-0.697 0.576,-0.666C0.631,-0.635 0.674,-0.593 0.706,-0.538C0.737,-0.483 0.753,-0.422 0.753,-0.353C0.753,-0.284 0.737,-0.223 0.705,-0.168C0.673,-0.113 0.63,-0.07 0.575,-0.039C0.52,-0.008 0.46,0.007 0.394,0.007ZM0.394,-0.149C0.45,-0.149 0.495,-0.168 0.529,-0.205C0.562,-0.242 0.579,-0.292 0.579,-0.353C0.579,-0.415 0.562,-0.464 0.529,-0.502C0.495,-0.539 0.45,-0.557 0.394,-0.557C0.337,-0.557 0.292,-0.539 0.259,-0.502C0.225,-0.465 0.208,-0.416 0.208,-0.353C0.208,-0.291 0.225,-0.242 0.259,-0.205C0.292,-0.167 0.337,-0.149 0.394,-0.149Z" style="fill:white;fill-rule:nonzero;"/>
                    </g>
                    <g transform="matrix(4.62011,0,0,4.62011,38.005,0)">
                        <path d="M0.69,0L0.519,0L0.233,-0.433L0.233,0L0.062,0L0.062,-0.702L0.233,-0.702L0.519,-0.267L0.519,-0.702L0.69,-0.702L0.69,0Z" style="fill:white;fill-rule:nonzero;"/>
                    </g>
                </g>
            </g>
        </g>
    </g>
</svg>
