<?xml version="1.0" encoding="UTF-8" standalone="no"?><!DOCTYPE svg PUBLIC "-//W3C//DTD SVG 1.1//EN" "http://www.w3.org/Graphics/SVG/1.1/DTD/svg11.dtd"><svg width="100%" height="100%" viewBox="0 0 379 342" version="1.1" xmlns="http://www.w3.org/2000/svg" xmlns:xlink="http://www.w3.org/1999/xlink" xml:space="preserve" xmlns:serif="http://www.serif.com/" style="fill-rule:evenodd;clip-rule:evenodd;stroke-linejoin:round;stroke-miterlimit:10;"><g id="Layer"><g><path d="M92.041,45.326c133.543,-83.409 191.03,-22.929 251.791,61.163c60.762,84.092 16.618,179.057 -36.813,209.709c-53.43,30.652 -246.846,29.215 -283.771,-25.797c-49.028,-73.073 -9.928,-195.907 68.793,-245.075Z" style="fill:#c0a3ff;fill-rule:nonzero;"/><g><path d="M97.175,20.431c-3.143,1.591 -5.878,3.956 -8.174,6.837c-12.288,-2.838 -23.493,6.019 -26.124,18.144c-2.631,-1.118 -5.43,-1.677 -8.264,-1.634c-12.322,0.086 -22.284,11.05 -22.185,24.464c0.004,0.602 0.064,1.118 0.116,1.677c-9.029,3.268 -15.324,12.598 -15.242,23.218c0.086,11.867 7.92,21.756 18.26,23.777c-1.492,3.138 -2.391,6.578 -2.704,10.104c-9.223,3.224 -15.608,12.382 -15.526,23.174c0.107,14.017 11.037,25.454 24.241,24.035c3.061,9.717 11.647,16.51 21.326,16.424c6.716,-0.043 12.86,-3.268 17.043,-8.9c1.875,0.43 3.663,0.602 5.383,0.602c4.248,-0.043 8.268,-1.591 12.095,-3.483c0.748,4.3 1.354,9.459 1.354,9.459c0,0 0.602,7.009 0.632,10.921c0.086,11.394 -10.568,31.387 -21.313,32.763c-5.658,0.688 80.673,-2.193 80.673,-2.193c-15.788,-4.987 -22.126,-15.134 -22.431,-26.528c-0.047,-1.634 -0.137,-14.017 -0.206,-24.121c3.108,-1.247 6.002,-3.138 8.109,-5.976c6.905,1.978 14.386,1.075 20.668,-2.752c4.102,7.008 11.351,11.222 19.09,11.179c12.322,-0.086 22.164,-11.05 22.065,-24.465c-0.051,-6.75 -2.657,-13.07 -7.141,-17.585c8.564,-3.568 14.485,-12.597 14.408,-22.873c-0.086,-11.179 -7.215,-20.638 -16.967,-23.261c-2.128,-8.212 -8.126,-14.576 -15.504,-16.854c1.127,-2.924 1.707,-6.192 1.681,-9.373c-0.099,-13.415 -10.211,-24.164 -22.534,-24.078c-3.874,0 -7.554,1.075 -10.852,3.139c-3.93,-7.181 -10.912,-11.609 -18.81,-11.695c-3.763,-10.018 -12.826,-16.768 -22.969,-16.682c-3.577,0 -7.055,0.945 -10.198,2.536Z" style="fill:#463174;fill-rule:nonzero;"/></g><path d="M4.339,264.948c22.147,-27.905 64.828,-30.398 98.09,-42.351c19.275,-6.922 68.569,-19.176 137.349,-5.805c64.098,12.469 147.648,6.751 136.034,30.613c-25.689,52.713 -101.878,57.744 -186.863,64.15c-149.036,11.179 -199.84,-27.431 -184.61,-46.607Z" style="fill:#7451c2;fill-rule:nonzero;"/><path d="M102.171,240.397c0,-4.6 18.995,-8.298 42.428,-8.298c23.437,0 42.432,3.698 42.432,8.298c0,4.558 -18.995,8.298 -42.432,8.298c-23.433,0 -42.428,-3.74 -42.428,-8.298Z" style="fill:#c0a3ff;fill-rule:nonzero;"/><g><path d="M112.451,211.977c0.684,-17.026 14.765,-30.226 31.451,-29.581c16.691,0.688 29.663,15.005 28.984,31.989c-0.684,16.983 -1.174,29.151 -31.452,29.538c-30.243,0.387 -29.662,-14.963 -28.983,-31.946Z" style="fill:#fff;fill-rule:nonzero;stroke:#463174;stroke-width:5.07px;"/><g><path d="M128.781,209.483c0,0 3.564,3.01 7.09,-0.086" style="fill:none;fill-rule:nonzero;stroke:#463174;stroke-width:2.36px;"/></g><g><path d="M149.238,208.967c0,0 3.56,3.053 7.086,-0.086" style="fill:none;fill-rule:nonzero;stroke:#463174;stroke-width:2.36px;"/></g></g><path d="M141.74,220.103c0,-1.204 0.804,-2.193 1.793,-2.193c0.989,0 1.793,0.989 1.793,2.193c0,1.247 -0.804,2.236 -1.793,2.236c-0.989,0 -1.793,-0.989 -1.793,-2.236Z" style="fill:#463174;fill-rule:nonzero;"/><path d="M257.501,138.153c0,-19.047 15.436,-34.482 34.479,-34.482c19.038,0 34.473,15.435 34.473,34.482c0,19.047 -15.435,34.483 -34.473,34.483c-19.043,0 -34.479,-15.436 -34.479,-34.483Z" style="fill:#fff;fill-rule:nonzero;"/></g></g></svg>