<?xml version="1.0" encoding="UTF-8" standalone="no"?>
<!DOCTYPE svg PUBLIC "-//W3C//DTD SVG 1.1//EN" "http://www.w3.org/Graphics/SVG/1.1/DTD/svg11.dtd">
<!-- Created with Vectornator (http://vectornator.io/) -->
<svg height="100%" stroke-miterlimit="10" style="fill-rule:nonzero;clip-rule:evenodd;stroke-linecap:round;stroke-linejoin:round;" version="1.1" viewBox="37.8761 68.2088 53.8648 26.0937" width="100%" xml:space="preserve" xmlns="http://www.w3.org/2000/svg" xmlns:vectornator="http://vectornator.io" xmlns:xlink="http://www.w3.org/1999/xlink">
<defs/>
<clipPath id="ArtboardFrame">
<rect height="26.0937" width="53.8648" x="37.8761" y="68.2088"/>
</clipPath>
<g clip-path="url(#ArtboardFrame)" id="Layer" vectornator:layerName="Layer">
<g opacity="1" vectornator:layerName="Group 6">
<path d="M42.5803 91.0361L44.7999 91.0361C49.7185 91.0361 53.0228 88.3876 53.0228 83.7212C53.0228 81.2115 51.6103 79.9125 48.924 79.9125L47.7763 79.9125L47.7763 81.3629L48.8987 81.3629C50.2482 81.3629 51.4085 81.8673 51.4085 83.7465C51.4085 87.5174 48.8231 89.5479 44.7999 89.5479L42.5046 89.5479C39.6165 89.5479 37.8761 90.5568 37.8761 93.2809L37.8761 94.2647L39.4904 94.2647L39.4904 93.6215C39.4904 91.4396 40.4741 91.0361 42.5803 91.0361ZM43.2108 87.984C46.1242 87.984 48.2051 85.8779 48.2051 83.0528L48.2051 76.5326L51.3706 76.5326L51.3706 75.0191L41.7731 75.0191L41.7731 79.9125C39.9696 79.9125 38.3175 81.1863 38.3175 83.4942C38.3175 86.0923 40.4363 87.984 43.2108 87.984ZM43.2235 86.4328C41.4326 86.4328 39.9318 85.3103 39.9318 83.5068C39.9318 82.0691 40.9029 81.3629 42.0127 81.3629L46.8809 81.3629L46.8809 79.9125L43.3117 79.9125L43.3117 76.5326L46.5908 76.5326L46.5908 83.0528C46.5908 84.7806 45.4179 86.4328 43.2235 86.4328Z" fill="#463174" fill-rule="nonzero" opacity="1" stroke="none"/>
<path d="M56.0748 87.8579L66.1768 87.8579C68.9388 87.8579 70.2378 85.4617 70.2378 82.2331C70.2378 78.8909 67.892 75.0191 64.676 75.0191C62.8726 75.0191 61.7123 76.1794 61.7123 77.9955L61.7123 86.3823L57.6891 86.3823L57.6891 75.0191L56.0748 75.0191L56.0748 87.8579ZM63.3266 86.3823L63.3266 77.9955C63.3266 77.2514 63.8689 76.5704 64.676 76.5704C66.8074 76.5704 68.6235 79.5089 68.6235 82.2331C68.6235 84.8311 67.8164 86.3823 66.139 86.3823L63.3266 86.3823ZM72.5836 87.8579L74.1979 87.8579L74.1979 74.0102C74.1979 72.0428 73.7439 68.2088 69.418 68.2088C66.4417 68.2088 64.0328 70.1636 64.0328 72.913C64.0202 74.1111 64.5247 75.1957 65.1553 75.902L66.1894 75.3597C65.7102 74.5147 65.5715 73.9345 65.5715 73.2409C65.5715 71.2735 67.0723 69.7222 69.3928 69.7222C72.4827 69.7222 72.5836 72.522 72.5836 73.985L72.5836 87.8579Z" fill="#463174" fill-rule="nonzero" opacity="1" stroke="none"/>
<path d="M81.5001 94.3025C84.6909 94.3025 83.8207 91.3892 86.6457 91.3892L88.6131 91.3892L88.6131 89.901L86.4439 89.901C85.2836 89.901 84.8296 88.6272 84.8296 87.8579L84.8296 87.366L83.2153 87.366L83.2153 87.8579C83.2153 88.8921 83.7954 90.6451 85.3088 90.8343L85.1575 90.3172C82.8874 90.582 83.5432 92.7134 81.5505 92.7134C80.302 92.7134 79.7471 91.6793 79.5201 90.3172L77.9814 90.7712C78.385 92.8648 79.5831 94.3025 81.5001 94.3025ZM77.5778 87.8579L87.6799 87.8579C90.4292 87.8579 91.7408 85.4617 91.7408 82.2331C91.7408 78.8909 89.395 75.0191 86.1791 75.0191C84.3756 75.0191 83.2153 76.1794 83.2153 77.9955L83.2153 86.3823L79.1921 86.3823L79.1921 75.0191L77.5778 75.0191L77.5778 87.8579ZM84.8296 86.3823L84.8296 77.9955C84.8296 77.2514 85.3719 76.5704 86.1791 76.5704C88.3104 76.5704 90.1265 79.5089 90.1265 82.2331C90.1265 84.8311 89.3194 86.3823 87.642 86.3823L84.8296 86.3823ZM84.0981 71.6518C84.9053 71.6518 85.5737 70.996 85.5737 70.1888C85.5737 69.3943 84.8927 68.7259 84.0981 68.7259C83.2657 68.7259 82.5973 69.3817 82.5973 70.1888C82.5973 70.9834 83.2531 71.6518 84.0981 71.6518Z" fill="#463174" fill-rule="nonzero" opacity="1" stroke="none"/>
</g>
</g>
</svg>
