<?xml version="1.0" encoding="UTF-8" standalone="no"?><!DOCTYPE svg PUBLIC "-//W3C//DTD SVG 1.1//EN" "http://www.w3.org/Graphics/SVG/1.1/DTD/svg11.dtd"><svg width="100%" height="100%" viewBox="0 0 1042 834" version="1.1" xmlns="http://www.w3.org/2000/svg" xmlns:xlink="http://www.w3.org/1999/xlink" xml:space="preserve" xmlns:serif="http://www.serif.com/" style="fill-rule:evenodd;clip-rule:evenodd;stroke-linejoin:round;stroke-miterlimit:2;"><path d="M399.156,373.781l0,17.696l-24.025,0l0,72.979l-22.087,0l0,-72.979l-24.025,0l0,-17.696l70.137,0Z" style="fill:#463174;fill-rule:nonzero;"/><path d="M466.71,448.44l-33.841,0l-5.425,16.016l-23.121,0l32.808,-90.675l25.575,0l32.809,90.675l-23.38,0l-5.425,-16.016Zm-5.683,-17.05l-11.237,-33.196l-11.109,33.196l22.346,0Z" style="fill:#463174;fill-rule:nonzero;"/><path d="M608.148,373.781l0,90.675l-22.088,0l0,-54.379l-20.279,54.379l-17.825,0l-20.408,-54.508l0,54.508l-22.088,0l0,-90.675l26.092,0l25.446,62.775l25.187,-62.775l25.963,0Z" style="fill:#463174;fill-rule:nonzero;"/><rect x="624.035" y="373.781" width="22.087" height="90.675" style="fill:#463174;fill-rule:nonzero;"/><path d="M684.227,447.406l28.933,0l0,17.05l-51.02,0l0,-90.675l22.087,0l0,73.625Z" style="fill:#463174;fill-rule:nonzero;"/></svg>