<?xml version="1.0" encoding="UTF-8" standalone="no"?><!DOCTYPE svg PUBLIC "-//W3C//DTD SVG 1.1//EN" "http://www.w3.org/Graphics/SVG/1.1/DTD/svg11.dtd"><svg width="100%" height="100%" viewBox="0 0 1042 834" version="1.1" xmlns="http://www.w3.org/2000/svg" xmlns:xlink="http://www.w3.org/1999/xlink" xml:space="preserve" xmlns:serif="http://www.serif.com/" style="fill-rule:evenodd;clip-rule:evenodd;stroke-linejoin:round;stroke-miterlimit:2;"><path d="M363.831,361.331l0,22.833l-31,0l0,94.167l-28.5,0l0,-94.167l-31,0l0,-22.833l90.5,0Z" style="fill:#463174;fill-rule:nonzero;"/><path d="M450.998,457.664l-43.667,0l-7,20.667l-29.833,0l42.333,-117l33,0l42.334,117l-30.167,0l-7,-20.667Zm-7.333,-22l-14.5,-42.833l-14.334,42.833l28.834,0Z" style="fill:#463174;fill-rule:nonzero;"/><path d="M633.498,361.331l0,117l-28.5,0l0,-70.167l-26.167,70.167l-23,0l-26.333,-70.333l0,70.333l-28.5,0l0,-117l33.667,0l32.833,81l32.5,-81l33.5,0Z" style="fill:#463174;fill-rule:nonzero;"/><rect x="653.998" y="361.331" width="28.5" height="117" style="fill:#463174;fill-rule:nonzero;"/><path d="M731.665,456.331l37.333,0l0,22l-65.833,0l0,-117l28.5,0l0,95Z" style="fill:#463174;fill-rule:nonzero;"/></svg>