<?xml version="1.0" encoding="UTF-8" standalone="no"?>
<!DOCTYPE svg PUBLIC "-//W3C//DTD SVG 1.1//EN" "http://www.w3.org/Graphics/SVG/1.1/DTD/svg11.dtd">
<!-- Created with Vectornator (http://vectornator.io/) -->
<svg height="100%" stroke-miterlimit="10" style="fill-rule:nonzero;clip-rule:evenodd;stroke-linecap:round;stroke-linejoin:round;" version="1.1" viewBox="113.032 130.706 48.3605 13.614" width="100%" xml:space="preserve" xmlns="http://www.w3.org/2000/svg" xmlns:vectornator="http://vectornator.io" xmlns:xlink="http://www.w3.org/1999/xlink">
<defs/>
<clipPath id="ArtboardFrame">
<rect height="13.614" width="48.3605" x="113.032" y="130.706"/>
</clipPath>
<g clip-path="url(#ArtboardFrame)" id="Layer" vectornator:layerName="Layer">
<g opacity="1" vectornator:layerName="Group 2">
<path d="M125.522 139.278C125.522 138.751 125.399 138.277 125.188 137.873C125.188 137.82 125.188 137.767 125.188 137.715C125.188 136.573 124.749 135.747 123.959 135.238C124.784 134.939 125.276 134.254 125.276 133.358C125.276 132.058 124.31 131.268 122.782 131.268L113.489 131.268L113.489 132.181L122.641 132.181C123.765 132.181 124.292 132.585 124.292 133.358C124.292 134.113 123.783 134.518 122.659 134.518L120.147 134.518L120.147 135.431L121.359 135.431C122.852 135.431 123.801 135.94 124.134 136.784C123.73 136.573 123.274 136.45 122.764 136.45C121.201 136.45 120.147 137.504 120.147 138.979C120.147 140.437 121.236 141.439 122.606 141.439C123.221 141.439 123.642 141.298 123.994 140.982L124.046 141.035C123.309 142.37 121.657 143.318 119.268 143.318C116.879 143.318 115.246 142.37 114.49 141.035L114.543 140.982C114.894 141.298 115.334 141.439 115.948 141.439C117.319 141.439 118.39 140.437 118.39 138.979C118.39 137.504 117.354 136.45 115.79 136.45C114.209 136.45 113.032 137.627 113.032 139.278C113.032 142.001 115.316 144.267 119.268 144.267C123.221 144.267 125.522 142.001 125.522 139.278ZM114.051 139.067C114.051 138.154 114.736 137.363 115.773 137.363C116.756 137.363 117.389 137.996 117.389 138.979C117.389 139.928 116.792 140.648 115.755 140.648C114.596 140.648 114.051 139.963 114.051 139.067ZM121.148 138.979C121.148 137.996 121.798 137.363 122.764 137.363C123.783 137.363 124.486 138.083 124.486 139.067C124.486 139.963 123.959 140.648 122.799 140.648C121.745 140.648 121.148 139.928 121.148 138.979Z" fill="#463174" fill-rule="nonzero" opacity="1" stroke="none"/>
<path d="M138.943 138.927C138.943 136.098 137.379 134.377 135.482 134.236L135.482 135.22C136.642 135.343 137.889 136.485 137.889 138.927C137.889 141.474 135.957 143.301 133.216 143.301C130.283 143.301 128.473 141 128.473 138.733C128.473 138.101 128.543 137.925 128.649 137.451L128.719 137.451C128.737 138.119 129.404 139.506 131.143 139.506C132.566 139.506 133.673 138.54 133.673 136.959C133.673 135.519 132.636 134.359 131.055 134.359C129.053 134.359 127.454 136.274 127.454 138.733C127.454 141.667 129.65 144.267 133.216 144.267C134.938 144.267 136.378 143.687 137.379 142.721C138.24 143.705 139.329 144.267 140.752 144.267C143.106 144.267 144.705 142.563 144.705 139.383C144.705 136.432 142.983 134.518 140.559 134.518L140.559 135.484C142.228 135.484 143.668 136.907 143.668 139.366C143.668 141.931 142.474 143.301 140.717 143.301C139.593 143.301 138.679 142.844 138.012 141.983C138.609 141.122 138.943 140.086 138.943 138.927ZM129.299 136.907C129.299 136.116 129.914 135.29 131.055 135.29C132.145 135.29 132.636 136.134 132.636 136.942C132.636 137.908 132.022 138.558 131.055 138.558C129.896 138.558 129.299 137.697 129.299 136.907Z" fill="#463174" fill-rule="nonzero" opacity="1" stroke="none"/>
<path d="M148.833 143.88C148.235 142.932 147.744 141.72 147.744 139.91C147.744 137.328 149.131 135.413 150.87 135.484C152.627 135.484 154.015 137.346 154.015 139.91C154.015 141.72 153.681 142.879 153.066 143.88L153.962 144.32C154.173 144.039 154.366 143.652 154.542 143.195C155.315 143.88 156.263 144.267 157.44 144.267C159.794 144.267 161.393 142.563 161.393 139.383C161.393 136.432 159.671 134.518 157.247 134.518L157.247 135.484C158.916 135.484 160.356 136.907 160.356 139.366C160.356 141.931 159.162 143.301 157.405 143.301C156.351 143.301 155.49 142.897 154.84 142.141C154.963 141.491 155.051 140.754 155.051 139.91C155.051 137.398 153.892 135.308 152.03 134.693L155.332 131.426L154.647 130.706L152.118 133.235C151.327 134.026 151.064 134.307 150.923 134.518L150.853 134.518C150.695 134.289 150.484 134.061 149.676 133.253L148.499 132.076L147.796 132.796L149.746 134.693C147.867 135.29 146.69 137.363 146.69 139.91C146.69 142.001 147.34 143.512 147.937 144.32L148.833 143.88Z" fill="#463174" fill-rule="nonzero" opacity="1" stroke="none"/>
</g>
</g>
</svg>
