<?xml version="1.0" encoding="UTF-8" standalone="no"?><!DOCTYPE svg PUBLIC "-//W3C//DTD SVG 1.1//EN" "http://www.w3.org/Graphics/SVG/1.1/DTD/svg11.dtd"><svg width="100%" height="100%" viewBox="0 0 1042 834" version="1.1" xmlns="http://www.w3.org/2000/svg" xmlns:xlink="http://www.w3.org/1999/xlink" xml:space="preserve" xmlns:serif="http://www.serif.com/" style="fill-rule:evenodd;clip-rule:evenodd;stroke-linejoin:round;stroke-miterlimit:2;"><path d="M349.879,373.781l0,17.696l-24.025,0l0,72.979l-22.087,0l0,-72.979l-24.025,0l0,-17.696l70.137,0Z" style="fill:#463174;fill-rule:nonzero;"/><path d="M383.075,391.477l0,18.342l29.579,0l0,17.05l-29.579,0l0,19.891l33.454,0l0,17.696l-55.542,0l0,-90.675l55.542,0l0,17.696l-33.454,0Z" style="fill:#463174;fill-rule:nonzero;"/><path d="M452.954,447.406l28.933,0l0,17.05l-51.02,0l0,-90.675l22.087,0l0,73.625Z" style="fill:#463174;fill-rule:nonzero;"/><path d="M514.179,373.781l0,54.25c0,5.425 1.335,9.602 4.004,12.529c2.67,2.928 6.588,4.392 11.754,4.392c5.167,0 9.128,-1.464 11.884,-4.392c2.755,-2.927 4.133,-7.104 4.133,-12.529l0,-54.25l22.088,0l0,54.121c0,8.094 -1.723,14.94 -5.167,20.538c-3.445,5.597 -8.073,9.816 -13.886,12.658c-5.812,2.842 -12.292,4.262 -19.439,4.262c-7.147,0 -13.541,-1.399 -19.181,-4.198c-5.641,-2.798 -10.097,-7.018 -13.369,-12.658c-3.272,-5.64 -4.908,-12.508 -4.908,-20.602l0,-54.121l22.087,0Z" style="fill:#463174;fill-rule:nonzero;"/><path d="M643.733,402.456c-1.636,-3.014 -3.982,-5.317 -7.039,-6.91c-3.057,-1.593 -6.652,-2.39 -10.786,-2.39c-7.147,0 -12.873,2.347 -17.179,7.04c-4.306,4.693 -6.458,10.957 -6.458,18.794c0,8.352 2.26,14.875 6.781,19.568c4.521,4.693 10.742,7.04 18.665,7.04c5.425,0 10.01,-1.378 13.756,-4.133c3.746,-2.756 6.48,-6.717 8.202,-11.884l-28.029,0l0,-16.275l48.05,0l0,20.538c-1.636,5.511 -4.414,10.634 -8.332,15.371c-3.918,4.736 -8.891,8.568 -14.918,11.495c-6.028,2.928 -12.831,4.392 -20.409,4.392c-8.955,0 -16.942,-1.959 -23.96,-5.877c-7.018,-3.918 -12.486,-9.365 -16.404,-16.34c-3.918,-6.975 -5.877,-14.94 -5.877,-23.895c0,-8.956 1.959,-16.943 5.877,-23.961c3.918,-7.018 9.364,-12.486 16.339,-16.404c6.975,-3.918 14.941,-5.877 23.896,-5.877c10.85,0 19.999,2.626 27.448,7.879c7.449,5.253 12.379,12.529 14.79,21.829l-24.413,0Z" style="fill:#463174;fill-rule:nonzero;"/><path d="M703.667,373.781l0,54.25c0,5.425 1.334,9.602 4.004,12.529c2.669,2.928 6.587,4.392 11.754,4.392c5.167,0 9.128,-1.464 11.883,-4.392c2.756,-2.927 4.134,-7.104 4.134,-12.529l0,-54.25l22.087,0l0,54.121c0,8.094 -1.722,14.94 -5.167,20.538c-3.444,5.597 -8.073,9.816 -13.885,12.658c-5.813,2.842 -12.292,4.262 -19.44,4.262c-7.147,0 -13.541,-1.399 -19.181,-4.198c-5.64,-2.798 -10.096,-7.018 -13.369,-12.658c-3.272,-5.64 -4.908,-12.508 -4.908,-20.602l0,-54.121l22.088,0Z" style="fill:#463174;fill-rule:nonzero;"/></svg>