<?xml version="1.0" encoding="UTF-8" standalone="no"?><!DOCTYPE svg PUBLIC "-//W3C//DTD SVG 1.1//EN" "http://www.w3.org/Graphics/SVG/1.1/DTD/svg11.dtd"><svg width="100%" height="100%" viewBox="0 0 1042 834" version="1.1" xmlns="http://www.w3.org/2000/svg" xmlns:xlink="http://www.w3.org/1999/xlink" xml:space="preserve" xmlns:serif="http://www.serif.com/" style="fill-rule:evenodd;clip-rule:evenodd;stroke-linejoin:round;stroke-miterlimit:2;"><path d="M300.248,361.331l0,22.833l-31,0l0,94.167l-28.5,0l0,-94.167l-31,0l0,-22.833l90.5,0Z" style="fill:#463174;fill-rule:nonzero;"/><path d="M343.081,384.164l0,23.667l38.167,0l0,22l-38.167,0l0,25.667l43.167,0l0,22.833l-71.667,0l0,-117l71.667,0l0,22.833l-43.167,0Z" style="fill:#463174;fill-rule:nonzero;"/><path d="M433.248,456.331l37.333,0l0,22l-65.833,0l0,-117l28.5,0l0,95Z" style="fill:#463174;fill-rule:nonzero;"/><path d="M512.248,361.331l0,70c0,7 1.722,12.389 5.167,16.167c3.444,3.778 8.5,5.666 15.166,5.666c6.667,0 11.778,-1.888 15.334,-5.666c3.555,-3.778 5.333,-9.167 5.333,-16.167l0,-70l28.5,0l0,69.833c0,10.445 -2.222,19.278 -6.667,26.5c-4.444,7.223 -10.416,12.667 -17.916,16.334c-7.5,3.666 -15.862,5.5 -25.084,5.5c-9.222,0 -17.472,-1.806 -24.75,-5.417c-7.278,-3.611 -13.028,-9.055 -17.25,-16.333c-4.222,-7.278 -6.333,-16.139 -6.333,-26.584l0,-69.833l28.5,0Z" style="fill:#463174;fill-rule:nonzero;"/><path d="M679.415,398.331c-2.112,-3.889 -5.139,-6.861 -9.084,-8.917c-3.944,-2.055 -8.583,-3.083 -13.916,-3.083c-9.223,0 -16.612,3.028 -22.167,9.083c-5.556,6.056 -8.333,14.139 -8.333,24.25c0,10.778 2.916,19.195 8.75,25.25c5.833,6.056 13.861,9.084 24.083,9.084c7,0 12.917,-1.778 17.75,-5.334c4.833,-3.555 8.361,-8.666 10.583,-15.333l-36.166,0l0,-21l62,0l0,26.5c-2.112,7.111 -5.695,13.722 -10.75,19.833c-5.056,6.112 -11.473,11.056 -19.25,14.834c-7.778,3.778 -16.556,5.666 -26.334,5.666c-11.555,0 -21.861,-2.527 -30.916,-7.583c-9.056,-5.055 -16.112,-12.083 -21.167,-21.083c-5.056,-9 -7.583,-19.278 -7.583,-30.834c0,-11.555 2.527,-21.861 7.583,-30.916c5.055,-9.056 12.083,-16.111 21.083,-21.167c9,-5.055 19.278,-7.583 30.834,-7.583c14,0 25.805,3.389 35.416,10.166c9.611,6.778 15.972,16.167 19.084,28.167l-31.5,0Z" style="fill:#463174;fill-rule:nonzero;"/><path d="M756.748,361.331l0,70c0,7 1.722,12.389 5.167,16.167c3.444,3.778 8.5,5.666 15.166,5.666c6.667,0 11.778,-1.888 15.334,-5.666c3.555,-3.778 5.333,-9.167 5.333,-16.167l0,-70l28.5,0l0,69.833c0,10.445 -2.222,19.278 -6.667,26.5c-4.444,7.223 -10.416,12.667 -17.916,16.334c-7.5,3.666 -15.862,5.5 -25.084,5.5c-9.222,0 -17.472,-1.806 -24.75,-5.417c-7.278,-3.611 -13.028,-9.055 -17.25,-16.333c-4.222,-7.278 -6.333,-16.139 -6.333,-26.584l0,-69.833l28.5,0Z" style="fill:#463174;fill-rule:nonzero;"/></svg>