<?xml version="1.0" encoding="UTF-8" standalone="no"?><!DOCTYPE svg PUBLIC "-//W3C//DTD SVG 1.1//EN" "http://www.w3.org/Graphics/SVG/1.1/DTD/svg11.dtd"><svg width="100%" height="100%" viewBox="0 0 396 250" version="1.1" xmlns="http://www.w3.org/2000/svg" xmlns:xlink="http://www.w3.org/1999/xlink" xml:space="preserve" xmlns:serif="http://www.serif.com/" style="fill-rule:evenodd;clip-rule:evenodd;stroke-linejoin:round;stroke-miterlimit:2;"><rect x="0" y="0" width="395.833" height="250" style="fill:#35144f;"/><rect x="1.488" y="0" width="392.857" height="250" style="fill:#fff;fill-opacity:0;fill-rule:nonzero;"/><g><path d="M101.274,135.399l-7.298,-7.887c-9.601,-10.518 -19.464,-21 -29.101,-31.613c-1.105,-1.317 -2.765,-2.042 -4.482,-1.959c-5.857,0 -11.75,-0.19 -17.607,-0.547c-4.121,-0.139 -8.132,-1.372 -11.619,-3.572c-4.398,-2.977 -7.421,-7.599 -8.387,-12.821c-0.65,-3.229 -0.909,-6.524 -0.774,-9.815l0,-8.977c0,-5.256 0.167,-10.482 0.357,-15.738c0.011,-3.712 0.491,-7.408 1.429,-11c1.396,-5.552 6.058,-9.717 11.732,-10.482c3.419,-0.542 6.895,-0.64 10.339,-0.292c4.762,0.366 9.524,0.879 14.286,1.542c5.613,0.678 11.187,1.641 16.702,2.887c6.679,1.459 12.116,6.338 14.286,12.821c1.416,4.179 2.487,8.468 3.202,12.822c1.536,7.5 2.911,15.006 4.256,22.44c0.648,3.26 0.648,6.616 0,9.875c-0.838,4.338 -4.11,7.822 -8.387,8.929l-1.315,0.351c-1.119,0.256 -1.119,0.256 -0.798,1.28l13.03,41.262l0,0.494l0.149,0Z" style="fill:#febf0f;fill-rule:nonzero;"/><path d="M124.429,180.137c-1.445,2.625 -3.471,4.885 -5.923,6.607c-2.653,1.804 -5.788,2.769 -8.996,2.769c-7.42,0 -13.912,-5.16 -15.587,-12.388c-1.143,-4.923 -0.937,-10.065 0.595,-14.881c2.548,-10.003 8.934,-18.612 17.768,-23.952c4.732,-2.944 10.207,-4.478 15.779,-4.423c4.1,-0.202 7.862,2.365 9.167,6.256c0.674,-1.037 1.294,-2.108 1.857,-3.208c0.473,-1.036 1.463,-1.744 2.596,-1.857c3.94,-0.596 7.845,-1.316 11.75,-2.018l0.416,0l-3.809,12.119c-8.754,28.031 -17.528,56.107 -26.322,84.226c-0.226,0.673 -0.446,0.964 -1.19,0.964l-12.828,0c-0.833,0 -0.928,-0.19 -0.702,-0.964c4.738,-14.96 9.454,-29.825 14.149,-44.595c0.482,-1.506 0.899,-2.977 1.345,-4.488c0,0 0.191,-0.286 0,-0.352c-0.19,-0.065 -0.065,0.113 -0.065,0.185Zm-17.197,-2.53c-0.009,1.073 0.054,2.145 0.191,3.208c-0.003,0.065 -0.004,0.129 -0.004,0.193c0,2.583 2.125,4.709 4.708,4.709c0.582,0 1.158,-0.108 1.7,-0.318c2.409,-0.641 4.551,-2.035 6.113,-3.976c4.33,-4.996 7.597,-10.821 9.602,-17.119c2.047,-5.899 3.809,-11.864 5.732,-17.792c0.326,-0.969 0.404,-2.005 0.226,-3.012c-0.517,-3.82 -3.814,-6.7 -7.668,-6.7c-1.004,0 -1.998,0.195 -2.927,0.575c-2.589,1.11 -4.811,2.933 -6.405,5.256c-3.152,4.316 -5.566,9.125 -7.143,14.232c-2.399,6.671 -3.789,13.663 -4.125,20.744Z" style="fill:#fff;fill-rule:nonzero;"/><path d="M187.554,80.917c0.351,0 0.416,-0.512 0.595,-0.768c2.568,-4.53 5.929,-8.563 9.922,-11.905c3.949,-3.291 9.149,-4.687 14.215,-3.815c4.361,0.667 7.682,4.343 7.904,8.75c0.294,4.886 -0.482,9.778 -2.273,14.333c-1.786,5.095 -4.292,9.905 -6.405,14.845c-0.822,1.742 -1.445,3.571 -1.857,5.453c-0.28,1.212 -0.28,2.472 0,3.684c0.33,1.701 1.89,2.904 3.619,2.792c2.47,-0.022 4.812,-1.123 6.405,-3.012c1.24,-1.399 2.315,-2.937 3.202,-4.584c0.256,-0.482 0.542,-0.595 0.994,-0.321l0.512,0.226c1.726,0.703 1.786,0.738 0.768,2.381c-3.135,5.661 -8.694,9.585 -15.078,10.643c-3.42,0.8 -7.026,0.062 -9.857,-2.018c-2.232,-1.759 -3.514,-4.468 -3.458,-7.309c0.058,-3.659 0.853,-7.269 2.339,-10.613c1.786,-4.554 4,-8.929 5.572,-13.53c1.083,-2.916 1.657,-5.997 1.696,-9.107c-0.012,-0.723 -0.098,-1.443 -0.256,-2.149c-0.251,-1.67 -1.701,-2.918 -3.39,-2.918c-0.227,0 -0.453,0.022 -0.675,0.067c-2.537,0.305 -4.885,1.499 -6.625,3.369c-2.794,2.958 -5.222,6.242 -7.233,9.779c-0.446,0.703 -0.833,1.477 -1.315,2.179c-3.089,5.21 -5.356,10.866 -6.72,16.768c-1.441,4.553 -2.881,9.137 -4.256,13.72c-0.066,0.472 -0.473,0.826 -0.949,0.826c-0.069,0 -0.138,-0.007 -0.206,-0.022l-12.577,0c-0.798,0 -0.959,0 -0.703,-0.965c4.822,-15.408 9.623,-30.819 14.405,-46.232l10.786,-34.69c0.321,-1.024 0.256,-1.089 -0.798,-1.089l-5.952,0c-0.595,0 -0.738,0 -0.595,-0.703c0.595,-2.309 0.595,-2.339 2.946,-2.381l17,-0.351l2.179,0c1.119,0 1.119,0 0.767,1.089l-4.452,14.286l-10.083,32.476c-0.048,0.203 -0.238,0.494 -0.113,0.816Z" style="fill:#fff;fill-rule:nonzero;"/><path d="M193.095,172.381c-0.672,1.089 -1.315,2.149 -1.982,3.208c-2.498,4.144 -5.755,7.779 -9.601,10.715c-4.031,3.019 -9.284,3.907 -14.083,2.381c-4.048,-1.214 -6.894,-4.891 -7.054,-9.114c-0.146,-4.357 0.516,-8.704 1.952,-12.821c1.727,-5.548 4.256,-10.714 6.405,-16.03c0.743,-1.715 1.354,-3.484 1.828,-5.291c0.308,-1.362 0.308,-2.776 0,-4.137c-0.069,-1.285 -1.145,-2.304 -2.431,-2.304c-0.263,0 -0.523,0.042 -0.772,0.125c-1.288,0.504 -2.401,1.373 -3.202,2.5c-0.908,1.094 -1.682,2.293 -2.304,3.572c-0.226,0.446 -0.446,0.547 -0.899,0.351c-0.58,-0.241 -1.177,-0.439 -1.785,-0.596c-0.512,0 -0.482,-0.386 -0.286,-0.767c2.217,-5.4 7.056,-9.301 12.804,-10.322c2.021,-0.367 4.099,-0.28 6.083,0.256c3.572,0.854 6.184,3.965 6.405,7.631c0.203,3.782 -0.523,7.557 -2.113,10.994c-1.697,4.262 -3.62,8.464 -5.358,12.822c-1.415,3.245 -2.222,6.724 -2.381,10.261c-0.038,0.85 0.026,1.702 0.191,2.536c0.16,1.862 1.737,3.309 3.606,3.309c0.285,0 0.569,-0.034 0.846,-0.1c3.007,-0.519 5.701,-2.173 7.524,-4.62c2.863,-3.462 5.392,-7.186 7.554,-11.125c0.446,-0.767 0.863,-1.601 1.345,-2.339c1.871,-3.378 3.25,-7.006 4.095,-10.774c1.828,-5.642 3.572,-11.309 5.28,-16.994c0.066,-0.454 0.47,-0.788 0.928,-0.768l13.096,-0.642c0.863,0 0.833,0.226 0.643,0.928c-3.052,9.703 -6.094,19.425 -9.125,29.167c-1.623,5.194 -3.244,10.399 -4.864,15.613c-0.767,2.47 0.227,3.75 2.786,3.881c2.609,0.133 5.112,-1.079 6.625,-3.208c1.043,-1.326 1.965,-2.743 2.756,-4.233c0.226,-0.416 0.447,-0.547 0.899,-0.351c0.639,0.258 1.29,0.482 1.952,0.673c0.387,0 0.482,0.286 0.256,0.643c-2.718,6.152 -8.241,10.632 -14.821,12.024c-3.138,0.677 -6.419,0.089 -9.125,-1.637c-2.556,-1.698 -4.169,-4.503 -4.351,-7.566c-0.2,-2.261 0.001,-4.541 0.595,-6.732c0.213,-0.335 0.244,-0.756 0.083,-1.119Z" style="fill:#fff;fill-rule:nonzero;"/><path d="M291.083,150.738c0.596,-0.964 1.191,-1.893 1.786,-2.792c2.425,-3.94 5.512,-7.431 9.125,-10.321c3.71,-2.931 8.422,-4.301 13.125,-3.815c4.991,0.387 8.887,4.612 8.869,9.619c0.107,5.124 -0.865,10.215 -2.851,14.94c-1.827,4.905 -4.292,9.619 -6.405,14.393c-0.758,1.676 -1.296,3.442 -1.601,5.256c-0.114,0.934 -0.05,1.882 0.19,2.792c0.308,1.774 1.952,3.026 3.744,2.851c2.786,-0.162 5.349,-1.594 6.947,-3.881c0.941,-1.104 1.767,-2.3 2.464,-3.572c0.322,-0.643 0.703,-0.702 1.25,-0.387l0.256,0c1.828,0.739 1.857,0.768 0.798,2.5c-3.15,5.607 -8.672,9.499 -15.012,10.578c-2.202,0.43 -4.475,0.32 -6.625,-0.322c-4.552,-1.321 -7.482,-5.82 -6.851,-10.517c0.666,-4.454 2.015,-8.779 4,-12.822c1.962,-4.133 3.578,-8.422 4.833,-12.821c0.526,-2.095 0.762,-4.252 0.702,-6.411c0,-3.786 -1.982,-5.226 -5.666,-4.327c-1.97,0.579 -3.743,1.689 -5.125,3.208c-2.855,2.99 -5.319,6.33 -7.334,9.94c-0.994,1.637 -1.857,3.209 -2.881,4.905c-1.795,3.243 -3.14,6.716 -4,10.322c-1.857,5.769 -3.66,11.551 -5.41,17.345c-0.072,0.485 -0.493,0.848 -0.984,0.848c-0.057,0 -0.114,-0.005 -0.171,-0.015l-12.816,0c-0.738,0 -0.928,0 -0.672,-0.899c4.611,-14 9.135,-28.021 13.571,-42.065c0.263,-0.768 0.414,-1.57 0.447,-2.381c0.014,-0.125 0.022,-0.25 0.022,-0.375c0,-1.757 -1.446,-3.202 -3.203,-3.202c-0.52,0 -1.032,0.126 -1.492,0.369c-1.096,0.437 -2.049,1.168 -2.756,2.113c-0.901,1.15 -1.653,2.41 -2.238,3.75c-0.226,0.512 -0.512,0.708 -1.024,0.416l-0.416,0c-1.887,-0.643 -1.923,-0.672 -0.929,-2.381c2.573,-4.939 7.319,-8.395 12.81,-9.327c2.464,-0.521 5.033,-0.205 7.297,0.899c2.981,1.664 4.861,4.795 4.929,8.208c0.164,2.262 -0.037,4.535 -0.596,6.732c-0.091,0.204 -0.128,0.427 -0.107,0.649Z" style="fill:#fff;fill-rule:nonzero;"/><path d="M349.024,136.893l-8.101,0c-0.899,0 -0.959,-0.256 -0.768,-1.024c0.595,-2.274 0.541,-2.274 2.881,-2.274l6.149,0c0.702,0 0.958,-0.256 1.154,-0.899c1.588,-5.289 3.199,-10.557 4.834,-15.803c0.082,-0.557 0.594,-0.956 1.154,-0.899c4.292,0 8.613,-0.256 12.804,-0.482c0.833,0 0.863,0.19 0.643,0.899c-1.726,5.357 -3.423,10.714 -5.155,16.029c-0.351,1.09 -0.351,1.09 0.798,1.09l7.494,0c0.595,0 0.768,0 0.643,0.768c-0.447,2.5 -0.483,2.535 -3.012,2.535l-6.405,0c-0.542,0 -0.833,0 -1.024,0.703c-4.365,14 -8.762,27.99 -13.19,41.97c-0.18,0.538 -0.276,1.1 -0.286,1.667c-0.003,0.044 -0.004,0.089 -0.004,0.134c0,1.336 1.099,2.434 2.435,2.434c0.043,0 0.086,-0.001 0.128,-0.003c2.856,0.015 5.551,-1.347 7.233,-3.655c1.004,-1.201 1.884,-2.501 2.625,-3.881c0.285,-0.512 0.595,-0.595 1.053,-0.351c0.458,0.244 1.857,0.447 2.048,0.964c0.19,0.518 -0.595,1.441 -0.994,2.114c-2.74,5.09 -7.573,8.735 -13.221,9.97c-2.025,0.48 -4.127,0.545 -6.178,0.19c-4.046,-0.827 -7.128,-4.173 -7.619,-8.274c-0.43,-3.116 -0.122,-6.291 0.899,-9.267l10.756,-33.929c0.087,-0.238 0.163,-0.48 0.226,-0.726Z" style="fill:#fff;fill-rule:nonzero;"/><path d="M158.935,67.315l-3.715,0c-1.25,0 -1.089,0.191 -1.315,0.965c-3.544,11.393 -7.115,22.774 -10.715,34.143l-2.38,7.601c-0.13,0.388 -0.226,0.786 -0.286,1.19c-0.036,0.172 -0.055,0.347 -0.055,0.523c0,1.387 1.142,2.529 2.53,2.529c0.05,0 0.1,-0.001 0.15,-0.004c2.629,0.011 5.126,-1.17 6.786,-3.208c1.227,-1.33 2.301,-2.794 3.202,-4.364c0.256,-0.446 0.482,-0.547 0.899,-0.321l0.256,0c0.672,0.286 1.785,0.351 1.922,0.929c0.137,0.577 -0.595,1.315 -0.958,1.958c-2.726,5.135 -7.578,8.819 -13.256,10.065c-2.728,0.745 -5.623,0.599 -8.262,-0.416c-3.474,-1.497 -5.786,-4.875 -5.923,-8.655c-0.151,-3.466 0.416,-6.925 1.667,-10.161c3.393,-10.577 6.72,-21.19 10.119,-31.774c0.226,-0.738 0,-0.928 -0.643,-0.898l-7.297,0c-0.768,0 -0.834,-0.286 -0.703,-0.899c0.512,-2.381 0.512,-2.381 2.977,-2.381l6.017,0c0.055,0.008 0.111,0.013 0.166,0.013c0.543,0 1.008,-0.404 1.084,-0.942c1.588,-5.289 3.189,-10.557 4.804,-15.803c0.068,-0.533 0.555,-0.919 1.089,-0.863l13,-0.482c0.703,0 0.863,0 0.643,0.833c-1.786,5.417 -3.458,10.839 -5.22,16.256c-0.226,0.738 -0.226,1.024 0.702,0.994l7.59,0c0.672,0 0.833,0.19 0.702,0.833c-0.512,2.47 -0.482,2.47 -2.976,2.47l-2.601,-0.131Z" style="fill:#fff;fill-rule:nonzero;"/><path d="M232.018,99.125c0.094,-14.369 8.71,-27.387 21.899,-33.089c5.772,-2.478 12.292,-2.593 18.148,-0.322c3.74,1.287 6.533,4.461 7.334,8.334c0.97,4.286 -0.602,8.769 -4.036,11.512c-3.312,2.777 -7.241,4.722 -11.458,5.672c-5.022,1.271 -10.19,1.872 -15.369,1.786c-0.059,-0.01 -0.118,-0.016 -0.177,-0.016c-0.507,0 -0.942,0.377 -1.014,0.879c-1.569,4.822 -2.337,9.87 -2.274,14.94c0.023,1.303 0.223,2.597 0.596,3.846c0.599,2.366 2.743,4.037 5.184,4.041c5.234,0.353 10.408,-1.324 14.441,-4.678c1.805,-1.457 3.496,-3.049 5.059,-4.762c0.417,-0.447 0.643,-0.447 1.024,0c1.345,1.667 1.375,1.637 0,3.208c-3.616,4.144 -8.382,7.123 -13.69,8.56c-5.955,1.791 -12.412,0.788 -17.542,-2.726c-4.118,-2.963 -6.901,-7.438 -7.738,-12.441c-0.314,-1.561 -0.444,-3.153 -0.387,-4.744Zm16.292,-9.202c3.856,0.249 7.725,-0.24 11.398,-1.441c2.596,-0.827 4.76,-2.649 6.018,-5.065c1.883,-4.113 2.356,-8.734 1.345,-13.143c-0.236,-1.574 -1.611,-2.744 -3.202,-2.726c-2.298,-0.352 -4.638,0.316 -6.405,1.827c-1.449,1.284 -2.644,2.829 -3.524,4.554c-1.533,2.972 -2.777,6.086 -3.714,9.297c-0.595,2.214 -1.25,4.423 -1.952,6.703l0.036,-0.006Z" style="fill:#fff;fill-rule:nonzero;"/><path d="M229.619,178.952c0.139,-4.184 1.096,-8.301 2.816,-12.119c1.785,-4.363 3.94,-8.529 5.827,-12.821c1.287,-2.685 2.203,-5.532 2.72,-8.464c0.212,-1.181 0.212,-2.391 0,-3.572c-0.282,-1.51 -1.612,-2.615 -3.148,-2.615c-0.567,0 -1.124,0.151 -1.614,0.437c-1.459,0.864 -2.724,2.022 -3.714,3.398c-0.379,0.505 -0.731,1.03 -1.054,1.572c-0.833,1.315 -0.797,1.345 -2.303,0.833c-1.506,-0.512 -1.572,-0.547 -0.768,-1.958c3.108,-6.124 9.461,-9.955 16.327,-9.845c0.135,-0.006 0.27,-0.009 0.405,-0.009c5.273,0 9.613,4.34 9.613,9.613c0,0.108 -0.002,0.216 -0.006,0.324c-0.139,4.295 -1.118,8.522 -2.881,12.441c-1.785,4.488 -4.065,8.75 -6.083,13.095c-1.335,2.634 -2.304,5.437 -2.881,8.333c-0.239,1.179 -0.239,2.393 0,3.572c0.245,1.673 1.774,2.879 3.458,2.726c3.01,-0.047 5.813,-1.571 7.488,-4.072c0.883,-1.103 1.666,-2.282 2.34,-3.523c0.256,-0.447 0.482,-0.548 0.899,-0.322c0.518,0.25 1.053,0.464 1.601,0.643c0.595,0.191 0.595,0.446 0.321,0.929c-3.501,7.136 -10.72,11.739 -18.667,11.904c-0.381,0.046 -0.766,0.069 -1.15,0.069c-5.274,0 -9.613,-4.339 -9.613,-9.613c0,-0.325 0.016,-0.65 0.049,-0.973l0.018,0.017Z" style="fill:#fff;fill-rule:nonzero;"/><path d="M124.423,180.137c0,0 0,-0.322 0.19,-0.226c0.191,0.095 0,0.226 0,0.351l-0.19,-0.125Z" style="fill:#fff;fill-rule:nonzero;"/></g></svg>