<?xml version="1.0" encoding="UTF-8" standalone="no"?>
<!DOCTYPE svg PUBLIC "-//W3C//DTD SVG 1.1//EN" "http://www.w3.org/Graphics/SVG/1.1/DTD/svg11.dtd">
<!-- Created with Vectornator (http://vectornator.io/) -->
<svg height="100%" stroke-miterlimit="10" style="fill-rule:nonzero;clip-rule:evenodd;stroke-linecap:round;stroke-linejoin:round;" version="1.1" viewBox="386.082 309.105 457.548 431.758" width="100%" xml:space="preserve" xmlns="http://www.w3.org/2000/svg" xmlns:vectornator="http://vectornator.io" xmlns:xlink="http://www.w3.org/1999/xlink">
<defs>
<filter color-interpolation-filters="sRGB" filterUnits="userSpaceOnUse" height="148.11" id="Filter" width="148.11" x="560.108" y="309.105">
<feDropShadow dx="0" dy="0" flood-color="#b9a6e1" flood-opacity="0.3" in="SourceGraphic" result="Shadow" stdDeviation="5.73055"/>
</filter>
<filter color-interpolation-filters="sRGB" filterUnits="userSpaceOnUse" height="121.915" id="Filter_2" width="121.915" x="573.206" y="322.203">
<feDropShadow dx="0" dy="0" flood-color="#b9a6e1" flood-opacity="0.5" in="SourceGraphic" result="Shadow" stdDeviation="5.99315"/>
</filter>
<filter color-interpolation-filters="sRGB" filterUnits="userSpaceOnUse" height="100.96" id="Filter_3" width="100.96" x="583.683" y="332.68">
<feDropShadow dx="0" dy="0" flood-color="#b9a6e1" flood-opacity="0.5" in="SourceGraphic" result="Shadow" stdDeviation="6.59247"/>
</filter>
<filter color-interpolation-filters="sRGB" filterUnits="userSpaceOnUse" height="81.8215" id="Filter_4" width="112.54" x="386.082" y="406.527">
<feDropShadow dx="0.0410131" dy="1.88312" flood-color="#b9a6e1" flood-opacity="0.3" in="SourceGraphic" result="Shadow" stdDeviation="7.08931"/>
</filter>
<filter color-interpolation-filters="sRGB" filterUnits="userSpaceOnUse" height="81.8215" id="Filter_5" width="112.54" x="519.037" y="434.438">
<feDropShadow dx="0.0410131" dy="1.88312" flood-color="#b9a6e1" flood-opacity="0.3" in="SourceGraphic" result="Shadow" stdDeviation="7.08931"/>
</filter>
<filter color-interpolation-filters="sRGB" filterUnits="userSpaceOnUse" height="81.8215" id="Filter_6" width="112.54" x="731.09" y="462.925">
<feDropShadow dx="0.0410131" dy="1.88312" flood-color="#b9a6e1" flood-opacity="0.3" in="SourceGraphic" result="Shadow" stdDeviation="7.08931"/>
</filter>
<filter color-interpolation-filters="sRGB" filterUnits="userSpaceOnUse" height="69.4778" id="Filter_7" width="89.3222" x="685.694" y="389.512">
<feDropShadow dx="0.0410131" dy="1.88312" flood-color="#b9a6e1" flood-opacity="0.3" in="SourceGraphic" result="Shadow" stdDeviation="7.08931"/>
</filter>
</defs>
<clipPath id="ArtboardFrame">
<rect height="431.758" width="457.548" x="386.082" y="309.105"/>
</clipPath>
<g clip-path="url(#ArtboardFrame)" id="Layer" vectornator:layerName="Layer">
<g opacity="1" vectornator:layerName="Group 11">
<path d="M399.455 545.723C399.455 438.427 488.998 351.446 599.455 351.446C709.912 351.446 799.455 438.427 799.455 545.723C799.455 653.019 709.912 740 599.455 740C488.998 740 399.455 653.019 399.455 545.723Z" fill="#ffffff" fill-rule="nonzero" opacity="1" stroke="none" vectornator:layerName="Oval 3"/>
<path d="M403.764 586.101C403.764 586.101 454.575 513.598 599.455 502.774C732.476 492.836 797.542 572.694 797.542 572.694C790.635 637.697 729.212 740 597.935 740C493.148 740 413.522 656.477 403.764 586.101Z" fill="#463174" fill-rule="nonzero" opacity="1" stroke="none" vectornator:layerName="Oval 1"/>
<path d="M403.764 586.101C403.764 586.101 488.998 545.723 599.455 545.723C709.912 545.723 797.542 572.694 797.542 572.694C771.905 704.887 661.491 740.864 598.013 740.864C468.146 740.864 411.409 631.317 403.764 586.101Z" fill="#593f92" fill-rule="nonzero" opacity="1" stroke="none" vectornator:layerName="Oval 2"/>
<path d="M626.669 501.953C626.669 501.953 636.111 502.082 645.619 502.88C655.128 503.679 664.703 505.147 664.703 505.147C664.703 505.147 670.164 519.594 673.367 530.805C676.57 542.017 677.516 549.992 677.516 549.992L627.92 546.308C627.92 546.308 629.132 539.226 628.819 528.137C628.506 517.048 626.669 501.953 626.669 501.953Z" fill="#d1bef9" fill-rule="nonzero" opacity="1" stroke="none" vectornator:layerName="Rectangle 3"/>
<path d="M557.674 547.603C557.674 547.603 570.894 546.421 584.249 545.976C597.603 545.531 611.093 545.822 611.093 545.822C611.093 545.822 605.345 594.583 604.163 643.293C602.981 692.004 606.363 740.664 606.363 740.664C606.363 740.664 586.8 741.439 568.215 738.845C549.63 736.251 511.764 722.011 511.764 722.011C511.764 722.011 518.985 676.471 530.463 632.869C541.94 589.267 557.674 547.603 557.674 547.603Z" fill="#d1bef9" fill-rule="nonzero" opacity="1" stroke="none" vectornator:layerName="Rectangle 2"/>
<path d="M598.518 556.09C595.765 552.086 587.783 552.794 580.689 557.671C573.597 562.548 570.078 569.748 572.831 573.752C575.584 577.756 583.566 577.047 590.66 572.17C597.752 567.293 601.27 560.094 598.518 556.09Z" fill="#7451c2" fill-rule="nonzero" opacity="1" stroke="none" vectornator:layerName="Oval 5"/>
<path d="M568.096 612.684C567.324 611.561 565.634 611.382 564.32 612.285C563.007 613.188 562.568 614.832 563.34 615.955C564.113 617.078 565.804 617.257 567.117 616.354C568.431 615.451 568.87 613.808 568.096 612.684Z" fill="#7451c2" fill-rule="nonzero" opacity="1" stroke="none" vectornator:layerName="Oval 6"/>
<path d="M572.581 593.689C571.808 592.566 570.117 592.387 568.804 593.29C567.49 594.193 567.053 595.835 567.825 596.959C568.597 598.082 570.288 598.262 571.601 597.359C572.915 596.456 573.353 594.813 572.581 593.689Z" fill="#7451c2" fill-rule="nonzero" opacity="1" stroke="none" vectornator:layerName="Oval 7"/>
<path d="M580.403 604.54C579.631 603.416 577.94 603.238 576.626 604.141C575.314 605.044 574.875 606.687 575.647 607.811C576.419 608.934 578.111 609.113 579.424 608.21C580.737 607.307 581.176 605.663 580.403 604.54Z" fill="#7451c2" fill-rule="nonzero" opacity="1" stroke="none" vectornator:layerName="Oval 8"/>
<path d="M575.389 624.963C574.616 623.84 572.925 623.661 571.612 624.564C570.298 625.467 569.861 627.11 570.633 628.234C571.405 629.357 573.097 629.536 574.409 628.633C575.722 627.73 576.161 626.086 575.389 624.963Z" fill="#7451c2" fill-rule="nonzero" opacity="1" stroke="none" vectornator:layerName="Oval 9"/>
<path d="M563.239 635.227C562.467 634.103 560.776 633.925 559.463 634.828C558.149 635.731 557.711 637.374 558.484 638.498C559.256 639.621 560.947 639.8 562.26 638.897C563.574 637.994 564.012 636.35 563.239 635.227Z" fill="#7451c2" fill-rule="nonzero" opacity="1" stroke="none" vectornator:layerName="Oval 10"/>
<path d="M570.192 649.233C569.42 648.11 567.729 647.931 566.416 648.834C565.102 649.737 564.663 651.381 565.436 652.504C566.209 653.627 567.899 653.806 569.213 652.903C570.526 652 570.965 650.357 570.192 649.233Z" fill="#7451c2" fill-rule="nonzero" opacity="1" stroke="none" vectornator:layerName="Oval 11"/>
<path d="M559.222 657.908C558.449 656.784 556.759 656.605 555.445 657.509C554.132 658.412 553.693 660.054 554.466 661.177C555.239 662.301 556.929 662.479 558.243 661.576C559.556 660.673 559.995 659.031 559.222 657.908Z" fill="#7451c2" fill-rule="nonzero" opacity="1" stroke="none" vectornator:layerName="Oval 12"/>
<path d="M565.963 693.21C565.19 692.087 563.499 691.908 562.185 692.811C560.873 693.714 560.434 695.358 561.206 696.481C561.978 697.605 563.67 697.783 564.984 696.88C566.296 695.977 566.735 694.334 565.963 693.21Z" fill="#7451c2" fill-rule="nonzero" opacity="1" stroke="none" vectornator:layerName="Oval 18"/>
<path d="M552.909 708.341C552.137 707.218 550.445 707.039 549.132 707.942C547.819 708.845 547.381 710.488 548.153 711.612C548.925 712.735 550.617 712.914 551.93 712.011C553.243 711.108 553.681 709.465 552.909 708.341Z" fill="#7451c2" fill-rule="nonzero" opacity="1" stroke="none" vectornator:layerName="Oval 19"/>
<path d="M561.187 724.098C560.415 722.975 558.723 722.796 557.41 723.699C556.097 724.602 555.659 726.245 556.431 727.369C557.203 728.492 558.895 728.671 560.208 727.768C561.521 726.865 561.959 725.222 561.187 724.098Z" fill="#7451c2" fill-rule="nonzero" opacity="1" stroke="none" vectornator:layerName="Oval 13"/>
<path d="M555.668 680.681C554.896 679.557 553.205 679.379 551.892 680.282C550.578 681.185 550.14 682.828 550.912 683.951C551.685 685.075 553.376 685.253 554.689 684.35C556.003 683.447 556.441 681.804 555.668 680.681Z" fill="#7451c2" fill-rule="nonzero" opacity="1" stroke="none" vectornator:layerName="Oval 14"/>
<path d="M567.906 670.313C567.134 669.189 565.443 669.011 564.129 669.914C562.817 670.817 562.378 672.46 563.15 673.583C563.922 674.707 565.614 674.885 566.928 673.982C568.24 673.079 568.679 671.436 567.906 670.313Z" fill="#7451c2" fill-rule="nonzero" opacity="1" stroke="none" vectornator:layerName="Oval 15"/>
<path d="M585.163 585.514C584.39 584.391 582.7 584.212 581.386 585.115C580.073 586.018 579.634 587.66 580.407 588.784C581.18 589.907 582.87 590.087 584.184 589.184C585.497 588.28 585.936 586.638 585.163 585.514Z" fill="#7451c2" fill-rule="nonzero" opacity="1" stroke="none" vectornator:layerName="Oval 16"/>
<path d="M598.153 551.417C596.348 543.538 588.609 538.586 580.867 540.36C573.125 542.133 568.311 549.958 570.115 557.838C571.919 565.717 573.214 571.372 587.402 568.895C601.571 566.421 599.958 559.297 598.153 551.417Z" fill="#ffffff" fill-rule="nonzero" opacity="1" stroke="#463174" stroke-linecap="butt" stroke-linejoin="round" stroke-width="0.749812" vectornator:layerName="Oval 17"/>
<g opacity="1" vectornator:layerName="Group 10">
<path d="M593.373 547.336C593.143 546.222 592.055 545.504 590.945 545.734C589.834 545.964 589.12 547.054 589.351 548.169C589.58 549.283 590.668 550.001 591.779 549.77C592.89 549.541 593.604 548.451 593.373 547.336Z" fill="#463174" fill-rule="nonzero" opacity="1" stroke="none" vectornator:layerName="Oval 3"/>
<path d="M592.271 546.553C592.169 546.065 591.693 545.75 591.207 545.852C590.72 545.952 590.407 546.43 590.508 546.918C590.609 547.407 591.086 547.721 591.573 547.62C592.059 547.52 592.372 547.043 592.271 546.553Z" fill="#ffffff" fill-rule="nonzero" opacity="1" stroke="none" vectornator:layerName="Oval 2"/>
</g>
<g opacity="1" vectornator:layerName="Group 4">
<path d="M574.435 383.16C574.435 350.173 601.176 323.432 634.163 323.432C667.15 323.432 693.892 350.173 693.892 383.16C693.892 416.147 667.15 442.888 634.163 442.888C601.176 442.888 574.435 416.147 574.435 383.16Z" fill="#ffffff" fill-rule="nonzero" filter="url(#Filter)" stroke="none" vectornator:layerName="Oval 2" vectornator:shadowAngle="1.29346" vectornator:shadowColor="#b9a6e1" vectornator:shadowOffset="0" vectornator:shadowOpacity="0.3" vectornator:shadowRadius="11.4611"/>
<path d="M588.189 383.16C588.189 357.769 608.772 337.186 634.163 337.186C659.554 337.186 680.138 357.769 680.138 383.16C680.138 408.551 659.554 429.135 634.163 429.135C608.772 429.135 588.189 408.551 588.189 383.16Z" fill="#ffffff" fill-rule="nonzero" filter="url(#Filter_2)" stroke="none" vectornator:layerName="Oval 3" vectornator:shadowAngle="1.29346" vectornator:shadowColor="#b9a6e1" vectornator:shadowOffset="0" vectornator:shadowOpacity="0.5" vectornator:shadowRadius="11.9863"/>
<path d="M600.164 383.16C600.164 364.383 615.386 349.161 634.163 349.161C652.94 349.161 668.162 364.383 668.162 383.16C668.162 401.937 652.94 417.159 634.163 417.159C615.386 417.159 600.164 401.937 600.164 383.16Z" fill="#ffffff" fill-rule="nonzero" filter="url(#Filter_3)" stroke="none" vectornator:layerName="Oval 4" vectornator:shadowAngle="1.29346" vectornator:shadowColor="#b9a6e1" vectornator:shadowOffset="0" vectornator:shadowOpacity="0.5" vectornator:shadowRadius="13.1849"/>
</g>
<path d="M437.326 422.368C429.254 422.368 422.182 426.519 418.045 432.805C410.068 433.396 403.764 439.967 403.764 448.118C403.764 456.656 410.656 463.586 419.17 463.586C420.304 463.586 421.418 463.444 422.483 463.211C426.508 466.619 431.646 468.743 437.326 468.743C443.536 468.743 449.141 466.268 453.295 462.274C455.489 463.074 457.826 463.586 460.295 463.586C471.648 463.586 480.858 454.378 480.858 442.993C480.858 431.608 471.648 422.368 460.295 422.368C456.177 422.368 452.355 423.62 449.139 425.711C445.673 423.633 441.658 422.368 437.326 422.368Z" fill="#ffffff" fill-rule="nonzero" filter="url(#Filter_4)" stroke="none" vectornator:layerName="Curve 1" vectornator:shadowAngle="1.54902" vectornator:shadowColor="#b9a6e1" vectornator:shadowOffset="1.88356" vectornator:shadowOpacity="0.3" vectornator:shadowRadius="14.1786"/>
<path d="M580.25 496.653C588.322 496.653 595.395 492.501 599.532 486.215C607.508 485.625 613.813 479.053 613.813 470.903C613.813 462.364 606.921 455.434 598.407 455.434C597.273 455.434 596.159 455.576 595.094 455.809C591.069 452.402 585.931 450.278 580.25 450.278C574.041 450.278 568.436 452.753 564.282 456.747C562.088 455.946 559.751 455.434 557.282 455.434C545.929 455.434 536.719 464.643 536.719 476.028C536.719 487.413 545.929 496.653 557.282 496.653C561.4 496.653 565.222 495.4 568.438 493.309C571.904 495.388 575.919 496.653 580.25 496.653Z" fill="#ffffff" fill-rule="nonzero" filter="url(#Filter_5)" stroke="none" vectornator:layerName="Curve 2" vectornator:shadowAngle="1.54902" vectornator:shadowColor="#b9a6e1" vectornator:shadowOffset="1.88356" vectornator:shadowOpacity="0.3" vectornator:shadowRadius="14.1786"/>
<path d="M792.303 525.14C800.375 525.14 807.448 520.989 811.584 514.703C819.561 514.112 825.866 507.54 825.866 499.39C825.866 490.851 818.974 483.921 810.459 483.922C809.325 483.922 808.211 484.063 807.147 484.297C803.121 480.889 797.983 478.765 792.303 478.765C786.094 478.765 780.489 481.24 776.334 485.234C774.141 484.433 771.804 483.921 769.334 483.922C757.982 483.922 748.772 493.13 748.772 504.515C748.772 515.9 757.982 525.14 769.334 525.14C773.452 525.14 777.275 523.887 780.491 521.797C783.957 523.875 787.971 525.14 792.303 525.14Z" fill="#ffffff" fill-rule="nonzero" filter="url(#Filter_6)" stroke="none" vectornator:shadowAngle="1.54902" vectornator:shadowColor="#b9a6e1" vectornator:shadowOffset="1.88356" vectornator:shadowOpacity="0.3" vectornator:shadowRadius="14.1786"/>
<path d="M726.835 405.352C719.084 405.352 712.917 410.954 711.346 418.276C706.785 419.538 703.376 423.56 703.376 428.547C703.376 434.532 708.201 439.383 714.152 439.383C716.807 439.383 719.176 438.332 721.054 436.731C722.86 437.432 724.783 437.86 726.835 437.859C729.457 437.859 731.828 437.112 734.018 435.997C736.484 437.999 739.47 439.383 742.885 439.383C750.82 439.383 757.252 432.915 757.252 424.936C757.252 416.956 750.82 410.488 742.885 410.488C741.522 410.488 740.319 410.921 739.069 411.278C736.104 407.744 731.793 405.352 726.835 405.352Z" fill="#ffffff" fill-rule="nonzero" filter="url(#Filter_7)" stroke="none" vectornator:shadowAngle="1.54902" vectornator:shadowColor="#b9a6e1" vectornator:shadowOffset="1.88356" vectornator:shadowOpacity="0.3" vectornator:shadowRadius="14.1786"/>
</g>
</g>
</svg>
