<?xml version="1.0" encoding="UTF-8" standalone="no"?>
<!DOCTYPE svg PUBLIC "-//W3C//DTD SVG 1.1//EN" "http://www.w3.org/Graphics/SVG/1.1/DTD/svg11.dtd">
<!-- Created with Vectornator (http://vectornator.io/) -->
<svg height="100%" stroke-miterlimit="10" style="fill-rule:nonzero;clip-rule:evenodd;stroke-linecap:round;stroke-linejoin:round;" version="1.1" viewBox="-2.84217e-14 243.668 428 222.616" width="100%" xml:space="preserve" xmlns="http://www.w3.org/2000/svg" xmlns:vectornator="http://vectornator.io" xmlns:xlink="http://www.w3.org/1999/xlink">
<defs/>
<clipPath id="ArtboardFrame">
<rect height="222.616" width="428" x="-2.84217e-14" y="243.668"/>
</clipPath>
<g clip-path="url(#ArtboardFrame)" id="Layer" vectornator:layerName="Layer">
<g opacity="1" vectornator:layerName="Group 10">
<g opacity="1" vectornator:layerName="Group 1">
<g opacity="1" vectornator:layerName="Group 1">
<path d="M428 262.301C428 262.301 214.113 213.094 0 280.821L0 466.284L428 466.284L428 262.301Z" fill="#593f92" fill-rule="nonzero" opacity="1" stroke="none" vectornator:layerName="Curve 2"/>
</g>
<path d="M281.059 245.23C281.059 245.23 272.036 244.255 263.735 244.087C255.435 243.92 247.857 244.56 247.857 244.56C247.857 244.56 257.557 311.702 244.579 343.816L299.78 347.978C301.598 318.696 281.059 245.23 281.059 245.23Z" fill="#d1bef9" fill-rule="nonzero" opacity="1" stroke="#d1bef9" stroke-linecap="butt" stroke-linejoin="round" stroke-width="0.782677" vectornator:layerName="Rectangle 5"/>
<path d="M0 303.914C0 303.914 273.472 295.341 428 399.853L428 466.284L-2.84217e-14 466.284L0 303.914Z" fill="#463174" fill-rule="nonzero" opacity="1" stroke="none" vectornator:layerName="Curve 1"/>
<path d="M147.196 311.058C147.196 311.058 154.096 311.837 172.668 314.049C191.241 316.261 213.087 320.283 213.087 320.283C213.087 320.283 199.733 352.28 192.289 388.797C184.845 425.314 181.62 465.469 181.62 465.469L87.7271 465.469C87.7271 465.469 99.4413 425.144 112.538 386.666C125.635 348.188 147.196 311.058 147.196 311.058Z" fill="#d1bef9" fill-rule="nonzero" opacity="1" stroke="#d1bef9" stroke-linecap="butt" stroke-linejoin="round" stroke-width="0.782677" vectornator:layerName="Rectangle 6"/>
</g>
<path d="M186.139 321.042C183.615 316.89 175.606 317.15 168.25 321.622C160.895 326.094 156.979 333.085 159.503 337.237C162.027 341.389 170.036 341.129 177.392 336.657C184.747 332.185 188.663 325.194 186.139 321.042Z" fill="#7451c2" fill-rule="nonzero" opacity="1" stroke="none" vectornator:layerName="Oval 2"/>
<path d="M152.594 375.843C151.886 374.678 150.208 374.405 148.846 375.233C147.484 376.061 146.954 377.677 147.662 378.842C148.371 380.007 150.049 380.28 151.411 379.452C152.773 378.624 153.303 377.008 152.594 375.843Z" fill="#7451c2" fill-rule="nonzero" opacity="1" stroke="none" vectornator:layerName="Oval 3"/>
<path d="M158.136 357.129C157.427 355.964 155.749 355.691 154.387 356.519C153.025 357.347 152.496 358.962 153.204 360.127C153.912 361.292 155.59 361.566 156.952 360.738C158.314 359.91 158.844 358.294 158.136 357.129Z" fill="#7451c2" fill-rule="nonzero" opacity="1" stroke="none" vectornator:layerName="Oval 4"/>
<path d="M165.338 368.401C164.63 367.236 162.951 366.963 161.589 367.791C160.228 368.619 159.698 370.235 160.406 371.4C161.114 372.565 162.793 372.838 164.155 372.01C165.516 371.182 166.046 369.566 165.338 368.401Z" fill="#7451c2" fill-rule="nonzero" opacity="1" stroke="none" vectornator:layerName="Oval 5"/>
<path d="M159.187 388.511C158.478 387.346 156.8 387.073 155.438 387.901C154.076 388.729 153.547 390.345 154.255 391.51C154.963 392.675 156.642 392.948 158.003 392.12C159.365 391.292 159.895 389.676 159.187 388.511Z" fill="#7451c2" fill-rule="nonzero" opacity="1" stroke="none" vectornator:layerName="Oval 6"/>
<path d="M146.481 398.078C145.773 396.913 144.095 396.64 142.733 397.468C141.371 398.296 140.841 399.912 141.55 401.077C142.258 402.242 143.936 402.515 145.298 401.687C146.66 400.859 147.19 399.243 146.481 398.078Z" fill="#7451c2" fill-rule="nonzero" opacity="1" stroke="none" vectornator:layerName="Oval 7"/>
<path d="M152.638 412.452C151.93 411.287 150.252 411.014 148.89 411.842C147.528 412.67 146.998 414.286 147.706 415.451C148.415 416.616 150.093 416.889 151.455 416.061C152.817 415.233 153.347 413.617 152.638 412.452Z" fill="#7451c2" fill-rule="nonzero" opacity="1" stroke="none" vectornator:layerName="Oval 8"/>
<path d="M141.199 420.498C140.491 419.333 138.813 419.059 137.451 419.888C136.089 420.716 135.559 422.331 136.268 423.496C136.976 424.661 138.654 424.934 140.016 424.106C141.378 423.278 141.908 421.663 141.199 420.498Z" fill="#7451c2" fill-rule="nonzero" opacity="1" stroke="none" vectornator:layerName="Oval 9"/>
<path d="M145.951 456.123C145.243 454.958 143.564 454.685 142.202 455.513C140.841 456.341 140.311 457.957 141.019 459.122C141.727 460.287 143.406 460.56 144.768 459.732C146.129 458.904 146.659 457.288 145.951 456.123Z" fill="#7451c2" fill-rule="nonzero" opacity="1" stroke="none" vectornator:layerName="Oval 13"/>
<path d="M136.375 443.036C135.667 441.871 133.989 441.598 132.627 442.426C131.265 443.254 130.735 444.87 131.443 446.035C132.152 447.2 133.83 447.473 135.192 446.645C136.554 445.817 137.084 444.201 136.375 443.036Z" fill="#7451c2" fill-rule="nonzero" opacity="1" stroke="none" vectornator:layerName="Oval 14"/>
<path d="M149.175 433.37C148.467 432.205 146.788 431.932 145.426 432.76C144.065 433.588 143.535 435.204 144.243 436.369C144.951 437.534 146.63 437.807 147.992 436.979C149.353 436.151 149.883 434.535 149.175 433.37Z" fill="#7451c2" fill-rule="nonzero" opacity="1" stroke="none" vectornator:layerName="Oval 12"/>
<path d="M171.156 349.672C170.448 348.507 168.77 348.234 167.408 349.062C166.046 349.89 165.516 351.505 166.225 352.67C166.933 353.835 168.611 354.109 169.973 353.281C171.335 352.452 171.865 350.837 171.156 349.672Z" fill="#7451c2" fill-rule="nonzero" opacity="1" stroke="none" vectornator:layerName="Oval 10"/>
<g opacity="1" vectornator:layerName="Group 8">
<path d="M186.037 316.356C184.676 308.388 177.227 303.011 169.397 304.348C161.568 305.684 156.323 313.227 157.683 321.196C159.043 329.164 160.019 334.882 174.323 333.204C188.609 331.528 187.397 324.325 186.037 316.356Z" fill="#ffffff" fill-rule="nonzero" opacity="1" stroke="#463174" stroke-linecap="butt" stroke-linejoin="round" stroke-width="0.749812" vectornator:layerName="Oval 2"/>
</g>
<g opacity="1" vectornator:layerName="Group 10">
<path d="M181.493 312.014C181.326 310.889 180.28 310.111 179.158 310.278C178.036 310.446 177.262 311.494 177.43 312.62C177.597 313.745 178.643 314.523 179.765 314.355C180.887 314.188 181.661 313.14 181.493 312.014Z" fill="#463174" fill-rule="nonzero" opacity="1" stroke="none" vectornator:layerName="Oval 3"/>
<path d="M180.873 311.281C180.799 310.788 180.341 310.447 179.85 310.521C179.358 310.594 179.019 311.053 179.092 311.546C179.166 312.04 179.624 312.38 180.116 312.307C180.607 312.234 180.946 311.775 180.873 311.281Z" fill="#ffffff" fill-rule="nonzero" opacity="1" stroke="none" vectornator:layerName="Oval 2"/>
</g>
</g>
</g>
</svg>
