<?xml version="1.0" encoding="UTF-8" standalone="no"?>
<!DOCTYPE svg PUBLIC "-//W3C//DTD SVG 1.1//EN" "http://www.w3.org/Graphics/SVG/1.1/DTD/svg11.dtd">
<!-- Created with Vectornator (http://vectornator.io/) -->
<svg height="100%" stroke-miterlimit="10" style="fill-rule:nonzero;clip-rule:evenodd;stroke-linecap:round;stroke-linejoin:round;" version="1.1" viewBox="316.175 852.69 164.68 116.234" width="100%" xml:space="preserve" xmlns="http://www.w3.org/2000/svg" xmlns:vectornator="http://vectornator.io" xmlns:xlink="http://www.w3.org/1999/xlink">
<defs/>
<clipPath id="ArtboardFrame">
<rect height="116.234" width="164.68" x="316.175" y="852.69"/>
</clipPath>
<g clip-path="url(#ArtboardFrame)" id="Layer" vectornator:layerName="Layer">
<g opacity="1" vectornator:layerName="Group 27">
<g opacity="1" vectornator:layerName="Group 16">
<path d="M430.307 879.836L430.618 879.51L430.618 879.51L451.959 899.827L451.959 899.827L451.648 900.154L451.648 900.154L430.307 879.836L430.307 879.836Z" fill="#e6e6e6" fill-rule="nonzero" opacity="1" stroke="none" vectornator:layerName="rect"/>
<path d="M451.993 897.624L451.542 897.651L451.678 899.871L449.454 899.844L449.449 900.296L452.158 900.328L451.993 897.624Z" fill="#e6e6e6" fill-rule="nonzero" opacity="1" stroke="none" vectornator:layerName="polygon"/>
<path d="M432.817 879.368L432.812 879.819L430.588 879.792L430.724 882.012L430.273 882.039L430.109 879.335L432.817 879.368Z" fill="#e6e6e6" fill-rule="nonzero" opacity="1" stroke="none" vectornator:layerName="polygon"/>
<path d="M438.652 889.832C438.652 888.462 439.763 887.351 441.133 887.351C442.503 887.351 443.614 888.462 443.614 889.832C443.614 891.202 442.503 892.312 441.133 892.312C439.763 892.312 438.652 891.202 438.652 889.832Z" fill="#c0a3ff" fill-rule="nonzero" opacity="1" stroke="none" vectornator:layerName="circle"/>
<path d="M345.597 899.827L366.937 879.51L366.937 879.51L367.248 879.836L367.248 879.836L345.908 900.154L345.908 900.154L345.597 899.827L345.597 899.827Z" fill="#e6e6e6" fill-rule="nonzero" opacity="1" stroke="none" vectornator:layerName="rect"/>
<path d="M345.397 900.328L348.106 900.296L348.101 899.844L345.877 899.871L346.013 897.651L345.563 897.624L345.397 900.328Z" fill="#e6e6e6" fill-rule="nonzero" opacity="1" stroke="none" vectornator:layerName="polygon"/>
<path d="M366.093 960.316C366.093 955.562 380.726 951.708 398.778 951.708C416.829 951.708 431.463 955.562 431.463 960.316C431.463 965.07 416.829 968.924 398.778 968.924C380.726 968.924 366.093 965.07 366.093 960.316Z" fill="#593f92" fill-rule="nonzero" opacity="1" stroke="none" vectornator:layerName="Oval 1"/>
<path d="M367.447 879.335L367.282 882.039L366.831 882.012L366.967 879.792L364.743 879.819L364.738 879.368L367.447 879.335Z" fill="#e6e6e6" fill-rule="nonzero" opacity="1" stroke="none" vectornator:layerName="polygon"/>
<path d="M378.478 872.461C378.478 866.449 384.312 861.576 391.508 861.576L406.446 861.576C413.642 861.576 419.476 866.449 419.476 872.461L419.476 895.544C419.476 901.556 413.642 906.429 406.446 906.429L391.508 906.429C384.312 906.429 378.478 901.556 378.478 895.544L378.478 872.461Z" fill="#ffffff" fill-rule="nonzero" opacity="1" stroke="none" vectornator:layerName="Rectangle 5"/>
<g opacity="1" vectornator:layerName="Group 15">
<path d="M376.376 938.618C376.376 926.224 386.495 916.177 398.977 916.177C411.459 916.177 421.578 926.224 421.578 938.618C421.578 951.011 421.578 961.14 398.977 961.058C376.373 960.976 376.376 951.011 376.376 938.618Z" fill="#ffffff" fill-rule="nonzero" opacity="1" stroke="none" vectornator:layerName="Oval 2"/>
<g opacity="1" vectornator:layerName="Group 6">
<g opacity="1" vectornator:layerName="Group 5">
<path d="M396.877 946.436C396.877 944.958 398.274 944.611 399.698 944.611C401.121 944.611 402.57 944.925 402.57 946.436C402.57 947.948 401.27 948.978 399.698 948.978C398.125 948.978 396.877 947.915 396.877 946.436Z" fill="#463174" fill-rule="nonzero" opacity="1" stroke="none" vectornator:layerName="Oval 4"/>
</g>
<path d="M397.367 947.883C397.023 947.384 398.415 946.631 399.692 946.582C400.968 946.533 402.45 947.271 402.112 947.849C401.725 948.514 400.72 948.974 399.756 948.974C398.792 948.974 397.823 948.545 397.367 947.883Z" fill="#7451c2" fill-rule="nonzero" opacity="0.453846" stroke="none" vectornator:layerName="Oval 5"/>
</g>
<g opacity="1" vectornator:layerName="Group 4">
<g opacity="1" vectornator:layerName="Group 2">
<path d="M387.512 939.452C387.512 937.859 388.726 936.568 390.223 936.568C391.721 936.568 392.935 937.859 392.935 939.452C392.935 941.045 391.721 942.336 390.223 942.336C388.726 942.336 387.512 941.045 387.512 939.452Z" fill="#463174" fill-rule="nonzero" opacity="1" stroke="none" vectornator:layerName="Oval 4"/>
<path d="M389.421 938.39C389.421 937.816 389.944 937.35 390.588 937.35C391.232 937.35 391.754 937.816 391.754 938.39C391.754 938.965 391.232 939.43 390.588 939.43C389.944 939.43 389.421 938.965 389.421 938.39Z" fill="#ffffff" fill-rule="nonzero" opacity="1" stroke="none" vectornator:layerName="Oval 7"/>
</g>
<g opacity="1" vectornator:layerName="Group 1">
<path d="M406.058 939.452C406.058 937.859 407.272 936.568 408.769 936.568C410.267 936.568 411.48 937.859 411.48 939.452C411.48 941.045 410.267 942.336 408.769 942.336C407.272 942.336 406.058 941.045 406.058 939.452Z" fill="#463174" fill-rule="nonzero" opacity="1" stroke="none" vectornator:layerName="Oval 4"/>
<path d="M407.362 938.307C407.362 937.733 407.884 937.267 408.528 937.267C409.173 937.267 409.695 937.733 409.695 938.307C409.695 938.882 409.173 939.347 408.528 939.347C407.884 939.347 407.362 938.882 407.362 938.307Z" fill="#ffffff" fill-rule="nonzero" opacity="1" stroke="none" vectornator:layerName="Oval 7"/>
</g>
</g>
</g>
<path d="M353.942 889.832C353.942 888.462 355.052 887.351 356.422 887.351C357.792 887.351 358.903 888.462 358.903 889.832C358.903 891.202 357.792 892.312 356.422 892.312C355.052 892.312 353.942 891.202 353.942 889.832Z" fill="#c0a3ff" fill-rule="nonzero" opacity="1" stroke="none" vectornator:layerName="circle"/>
<path d="M395.438 881.535L387.198 881.535C386.638 881.535 386.184 881.081 386.183 880.52L386.183 870.797C386.184 870.236 386.638 869.782 387.198 869.782L395.438 869.782C395.998 869.782 396.452 870.236 396.453 870.797L396.453 880.52C396.452 881.081 395.998 881.535 395.438 881.535Z" fill="#463174" fill-rule="nonzero" opacity="1" stroke="none" vectornator:layerName="path"/>
<path d="M411.449 886.045L403.209 886.045C402.649 886.045 402.195 885.591 402.194 885.031L402.194 875.307C402.195 874.747 402.649 874.293 403.209 874.292L411.449 874.292C412.01 874.293 412.464 874.747 412.464 875.307L412.464 885.031C412.464 885.591 412.01 886.045 411.449 886.045Z" fill="#d1bef9" fill-rule="nonzero" opacity="1" stroke="none" vectornator:layerName="path"/>
<path d="M398.595 899.802L390.355 899.802C389.795 899.801 389.341 899.347 389.34 898.787L389.34 889.063C389.341 888.503 389.795 888.049 390.355 888.048L398.595 888.048C399.155 888.049 399.609 888.503 399.61 889.063L399.61 898.787C399.609 899.347 399.155 899.801 398.595 899.802Z" fill="#9f89cf" fill-rule="nonzero" opacity="1" stroke="none" vectornator:layerName="path"/>
<g opacity="1" vectornator:layerName="Group 14">
<path d="M437.092 923.476C437.092 916.956 443.319 911.671 451.001 911.671L466.946 911.671C474.628 911.671 480.855 916.956 480.855 923.476L480.855 948.512C480.855 955.031 474.628 960.316 466.946 960.316L451.001 960.316C443.319 960.316 437.092 955.031 437.092 948.512L437.092 923.476Z" fill="#ffffff" fill-rule="nonzero" opacity="1" stroke="none" vectornator:layerName="Rectangle 3"/>
<path d="M465.401 922.249L452.546 922.249C452.048 922.249 451.644 921.845 451.644 921.347C451.644 920.849 452.048 920.445 452.546 920.445L465.401 920.445C465.899 920.445 466.303 920.849 466.303 921.347C466.303 921.845 465.899 922.249 465.401 922.249Z" fill="#593f92" fill-rule="nonzero" opacity="1" stroke="none" vectornator:layerName="path"/>
<path d="M471.715 927.036L446.232 927.036C445.91 927.036 445.611 926.865 445.45 926.585C445.288 926.306 445.288 925.962 445.45 925.682C445.611 925.403 445.91 925.231 446.232 925.232L471.715 925.232C472.037 925.231 472.336 925.403 472.497 925.682C472.659 925.962 472.659 926.306 472.497 926.585C472.336 926.865 472.037 927.036 471.715 927.036Z" fill="#d1bef9" fill-rule="nonzero" opacity="1" stroke="none" vectornator:layerName="path"/>
<path d="M471.715 931.771L446.232 931.771C445.91 931.772 445.611 931.6 445.45 931.321C445.288 931.042 445.288 930.697 445.45 930.418C445.611 930.139 445.91 929.967 446.232 929.967L471.715 929.967C472.037 929.967 472.336 930.139 472.497 930.418C472.659 930.697 472.659 931.042 472.497 931.321C472.336 931.6 472.037 931.772 471.715 931.771Z" fill="#d1bef9" fill-rule="nonzero" opacity="1" stroke="none" vectornator:layerName="path"/>
<path d="M471.715 936.507L446.232 936.507C445.91 936.508 445.611 936.336 445.45 936.057C445.288 935.777 445.288 935.433 445.45 935.154C445.611 934.874 445.91 934.703 446.232 934.703L471.715 934.703C472.037 934.703 472.336 934.874 472.497 935.154C472.659 935.433 472.659 935.777 472.497 936.057C472.336 936.336 472.037 936.508 471.715 936.507Z" fill="#d1bef9" fill-rule="nonzero" opacity="1" stroke="none" vectornator:layerName="path"/>
<path d="M471.715 941.243L446.232 941.243C445.91 941.243 445.611 941.072 445.45 940.792C445.288 940.513 445.288 940.169 445.45 939.889C445.611 939.61 445.91 939.438 446.232 939.439L471.715 939.439C472.037 939.438 472.336 939.61 472.497 939.889C472.659 940.169 472.659 940.513 472.497 940.792C472.336 941.072 472.037 941.243 471.715 941.243Z" fill="#d1bef9" fill-rule="nonzero" opacity="1" stroke="none" vectornator:layerName="path"/>
<path d="M471.715 945.979L446.232 945.979C445.91 945.979 445.611 945.807 445.45 945.528C445.288 945.249 445.288 944.904 445.45 944.625C445.611 944.346 445.91 944.174 446.232 944.175L471.715 944.175C472.037 944.174 472.336 944.346 472.497 944.625C472.659 944.904 472.659 945.249 472.497 945.528C472.336 945.807 472.037 945.979 471.715 945.979Z" fill="#d1bef9" fill-rule="nonzero" opacity="1" stroke="none" vectornator:layerName="path"/>
<path d="M471.715 950.714L446.232 950.714C445.91 950.715 445.611 950.543 445.45 950.264C445.288 949.984 445.288 949.64 445.45 949.361C445.611 949.081 445.91 948.91 446.232 948.91L471.715 948.91C472.037 948.91 472.336 949.081 472.497 949.361C472.659 949.64 472.659 949.984 472.497 950.264C472.336 950.543 472.037 950.715 471.715 950.714Z" fill="#d1bef9" fill-rule="nonzero" opacity="1" stroke="none" vectornator:layerName="path"/>
</g>
<g opacity="1" vectornator:layerName="Group 13">
<path d="M316.175 923.094C316.175 916.375 322.412 910.929 330.107 910.929L346.077 910.929C353.771 910.929 360.009 916.375 360.009 923.094L360.009 948.894C360.009 955.612 353.771 961.058 346.077 961.058L330.107 961.058C322.412 961.058 316.175 955.612 316.175 948.894L316.175 923.094Z" fill="#ffffff" fill-rule="nonzero" opacity="1" stroke="none" vectornator:layerName="Rectangle 4"/>
<path d="M350.052 923.54L338.776 923.54C338.278 923.54 337.874 923.136 337.874 922.638C337.874 922.139 338.278 921.736 338.776 921.736L350.052 921.736C350.55 921.736 350.954 922.139 350.954 922.638C350.954 923.136 350.55 923.54 350.052 923.54Z" fill="#593f92" fill-rule="nonzero" opacity="1" stroke="none" vectornator:layerName="path 1"/>
<path d="M350.052 926.744L338.776 926.744C338.278 926.744 337.874 926.34 337.874 925.842C337.874 925.344 338.278 924.94 338.776 924.94L350.052 924.94C350.55 924.94 350.954 925.344 350.954 925.842C350.954 926.34 350.55 926.744 350.052 926.744Z" fill="#593f92" fill-rule="nonzero" opacity="1" stroke="none" vectornator:layerName="path"/>
<path d="M350.833 933.08L325.35 933.08C325.028 933.081 324.729 932.909 324.568 932.63C324.406 932.35 324.406 932.006 324.568 931.727C324.729 931.448 325.028 931.276 325.35 931.276L350.833 931.276C351.156 931.276 351.454 931.448 351.616 931.727C351.777 932.006 351.777 932.35 351.616 932.63C351.454 932.909 351.156 933.081 350.833 933.08Z" fill="#d1bef9" fill-rule="nonzero" opacity="1" stroke="none" vectornator:layerName="path"/>
<path d="M350.833 937.816L325.35 937.816C325.028 937.817 324.729 937.645 324.568 937.365C324.406 937.086 324.406 936.742 324.568 936.463C324.729 936.183 325.028 936.011 325.35 936.012L350.833 936.012C351.156 936.011 351.454 936.183 351.616 936.463C351.777 936.742 351.777 937.086 351.616 937.365C351.454 937.645 351.156 937.817 350.833 937.816Z" fill="#d1bef9" fill-rule="nonzero" opacity="1" stroke="none" vectornator:layerName="path"/>
<path d="M350.833 942.552L325.35 942.552C325.028 942.552 324.729 942.381 324.568 942.101C324.406 941.822 324.406 941.478 324.568 941.198C324.729 940.919 325.028 940.747 325.35 940.748L350.833 940.748C351.156 940.747 351.454 940.919 351.616 941.198C351.777 941.478 351.777 941.822 351.616 942.101C351.454 942.381 351.156 942.552 350.833 942.552Z" fill="#d1bef9" fill-rule="nonzero" opacity="1" stroke="none" vectornator:layerName="path"/>
<path d="M350.833 947.287L325.35 947.287C325.028 947.288 324.729 947.116 324.568 946.837C324.406 946.558 324.406 946.213 324.568 945.934C324.729 945.655 325.028 945.483 325.35 945.483L350.833 945.483C351.156 945.483 351.454 945.655 351.616 945.934C351.777 946.213 351.777 946.558 351.616 946.837C351.454 947.116 351.156 947.288 350.833 947.287Z" fill="#d1bef9" fill-rule="nonzero" opacity="1" stroke="none" vectornator:layerName="path"/>
<path d="M350.833 952.023L325.35 952.023C325.028 952.024 324.729 951.852 324.568 951.573C324.406 951.293 324.406 950.949 324.568 950.67C324.729 950.39 325.028 950.219 325.35 950.219L350.833 950.219C351.156 950.219 351.454 950.39 351.616 950.67C351.777 950.949 351.777 951.293 351.616 951.573C351.454 951.852 351.156 952.024 350.833 952.023Z" fill="#d1bef9" fill-rule="nonzero" opacity="1" stroke="none" vectornator:layerName="path"/>
<path d="M324.903 924.273C324.903 921.619 327.193 919.467 330.018 919.467C332.842 919.467 335.132 921.619 335.132 924.273C335.132 926.927 332.842 929.078 330.018 929.078C327.193 929.078 324.903 926.927 324.903 924.273Z" fill="#463174" fill-rule="nonzero" opacity="1" stroke="none" vectornator:layerName="Oval 1"/>
</g>
</g>
<path d="M424.719 908.878C424.719 909.666 425.363 910.304 426.158 910.304C426.952 910.304 427.597 909.666 427.597 908.878C427.597 908.091 426.952 907.452 426.158 907.452C425.363 907.452 424.719 908.091 424.719 908.878Z" fill="#ffffff" fill-rule="nonzero" opacity="1" stroke="none" vectornator:layerName="ellipse 10"/>
<path d="M367.71 903.974C367.71 904.761 368.354 905.4 369.149 905.4C369.944 905.4 370.588 904.761 370.588 903.974C370.588 903.186 369.944 902.548 369.149 902.548C368.354 902.548 367.71 903.186 367.71 903.974Z" fill="#ffffff" fill-rule="nonzero" opacity="1" stroke="none" vectornator:layerName="ellipse 11"/>
<path d="M330.284 892.02C330.284 892.808 330.928 893.446 331.723 893.446C332.517 893.446 333.161 892.808 333.161 892.02C333.161 891.233 332.517 890.594 331.723 890.594C330.928 890.594 330.284 891.233 330.284 892.02Z" fill="#ffffff" fill-rule="nonzero" opacity="1" stroke="none" vectornator:layerName="ellipse 12"/>
<path d="M370.588 857.601C370.588 858.388 371.232 859.027 372.027 859.027C372.821 859.027 373.466 858.388 373.466 857.601C373.466 856.813 372.821 856.175 372.027 856.175C371.232 856.175 370.588 856.813 370.588 857.601Z" fill="#ffffff" fill-rule="nonzero" opacity="1" stroke="none" vectornator:layerName="ellipse 13"/>
<path d="M463 887.152C463 887.94 463.644 888.578 464.439 888.578C465.233 888.578 465.878 887.94 465.878 887.152C465.878 886.365 465.233 885.726 464.439 885.726C463.644 885.726 463 886.365 463 887.152Z" fill="#ffffff" fill-rule="nonzero" opacity="1" stroke="none" vectornator:layerName="ellipse 14"/>
<path d="M421.841 854.116C421.841 854.903 422.485 855.542 423.28 855.542C424.075 855.542 424.719 854.903 424.719 854.116C424.719 853.328 424.075 852.69 423.28 852.69C422.485 852.69 421.841 853.328 421.841 854.116Z" fill="#ffffff" fill-rule="nonzero" opacity="1" stroke="none" vectornator:layerName="ellipse"/>
</g>
</g>
</svg>
