<?xml version="1.0" encoding="UTF-8" standalone="no"?>
<!DOCTYPE svg PUBLIC "-//W3C//DTD SVG 1.1//EN" "http://www.w3.org/Graphics/SVG/1.1/DTD/svg11.dtd">
<!-- Created with Vectornator (http://vectornator.io/) -->
<svg height="100%" stroke-miterlimit="10" style="fill-rule:nonzero;clip-rule:evenodd;stroke-linecap:round;stroke-linejoin:round;" version="1.1" viewBox="1.84268e-14 702.77 1920 377.621" width="100%" xml:space="preserve" xmlns="http://www.w3.org/2000/svg" xmlns:vectornator="http://vectornator.io" xmlns:xlink="http://www.w3.org/1999/xlink">
<defs/>
<g id="Layer-1" vectornator:layerName="Layer 1">
<path d="M1920 792.772C1920 792.772 1021.44 590.606 9.14824e-14 808.822L9.14824e-14 1080L1920 1080L1920 792.772Z" fill="#593f92" fill-rule="nonzero" opacity="1" stroke="none" vectornator:layerName="Curve 6"/>
<path d="M1196.59 711.273C1196.59 711.273 1163 708.539 1131.57 706.511C1100.14 704.483 1070.87 703.162 1070.87 703.162C1070.87 703.162 1107.64 841.171 1076.81 939.385L1248.18 944.13C1261.54 788.268 1196.59 711.273 1196.59 711.273Z" fill="#d1bef9" fill-rule="nonzero" opacity="1" stroke="#d1bef9" stroke-linecap="butt" stroke-linejoin="round" stroke-width="0.782677" vectornator:layerName="Rectangle 5"/>
<path d="M9.14824e-14 878.563C9.14824e-14 878.563 1255.94 688.829 1920 987.316L1920 1080L1.84268e-14 1080L9.14824e-14 878.563Z" fill="#463174" fill-rule="nonzero" opacity="1" stroke="none" vectornator:layerName="Curve 1"/>
<path d="M858.726 740.939C858.726 740.939 907.885 741.398 922.881 743.115C937.878 744.832 989.336 747.228 989.336 747.228C989.336 747.228 953.065 804.056 937.537 887.031C922.009 970.005 927.224 1079.12 927.224 1079.12L779.41 1080C779.41 1080 787.964 963.804 807.793 879.039C827.622 794.274 858.726 740.939 858.726 740.939Z" fill="#d1bef9" fill-rule="nonzero" opacity="1" stroke="#d1bef9" stroke-linecap="butt" stroke-linejoin="round" stroke-width="0.782677" vectornator:layerName="Rectangle 6"/>
<g opacity="1" vectornator:layerName="Group 6">
<g opacity="1" vectornator:layerName="Group 11">
<path d="M1019.36 772.938C1014.75 765.355 1000.13 765.83 986.694 773.997C973.261 782.165 966.108 794.933 970.718 802.515C975.328 810.098 989.956 809.623 1003.39 801.456C1016.82 793.288 1023.97 780.52 1019.36 772.938Z" fill="#7451c2" fill-rule="nonzero" opacity="1" stroke="none" vectornator:layerName="Oval 1"/>
<g opacity="1" vectornator:layerName="Group 8">
<path d="M1019.18 764.38C1016.69 749.827 1003.09 740.008 988.789 742.448C974.489 744.889 964.911 758.665 967.395 773.219C969.879 787.772 971.662 798.215 997.784 795.15C1023.88 792.089 1021.66 778.933 1019.18 764.38Z" fill="#ffffff" fill-rule="nonzero" opacity="1" stroke="#463174" stroke-linecap="butt" stroke-linejoin="round" stroke-width="0.749812" vectornator:layerName="Oval 2"/>
</g>
</g>
<g opacity="1" vectornator:layerName="Group 10">
<path d="M1010.88 756.45C1010.57 754.394 1008.66 752.975 1006.62 753.28C1004.57 753.585 1003.15 755.499 1003.46 757.556C1003.76 759.612 1005.67 761.031 1007.72 760.726C1009.77 760.421 1011.19 758.507 1010.88 756.45Z" fill="#463174" fill-rule="nonzero" opacity="1" stroke="none" vectornator:layerName="Oval 3"/>
<path d="M1009.75 755.111C1009.61 754.211 1008.78 753.589 1007.88 753.722C1006.98 753.856 1006.36 754.695 1006.5 755.596C1006.63 756.497 1007.47 757.119 1008.36 756.985C1009.26 756.851 1009.88 756.012 1009.75 755.111Z" fill="#ffffff" fill-rule="nonzero" opacity="1" stroke="none" vectornator:layerName="Oval 2"/>
</g>
</g>
</g>
</svg>
