<?xml version="1.0" encoding="UTF-8" standalone="no"?>
<!DOCTYPE svg PUBLIC "-//W3C//DTD SVG 1.1//EN" "http://www.w3.org/Graphics/SVG/1.1/DTD/svg11.dtd">
<!-- Created with Vectornator (http://vectornator.io/) -->
<svg height="100%" stroke-miterlimit="10" style="fill-rule:nonzero;clip-rule:evenodd;stroke-linecap:round;stroke-linejoin:round;" version="1.1" viewBox="111.019 872.668 83.3617 92.1456" width="100%" xml:space="preserve" xmlns="http://www.w3.org/2000/svg" xmlns:vectornator="http://vectornator.io" xmlns:xlink="http://www.w3.org/1999/xlink">
<defs/>
<clipPath id="ArtboardFrame">
<rect height="92.1456" width="83.3617" x="111.019" y="872.668"/>
</clipPath>
<g clip-path="url(#ArtboardFrame)" id="Layer" vectornator:layerName="Layer">
<g opacity="1" vectornator:layerName="Group 22">
<path d="M114.678 956.481C114.678 951.88 131.406 948.149 152.041 948.149C172.675 948.149 189.403 951.88 189.403 956.481C189.403 961.083 172.675 964.814 152.041 964.814C131.406 964.814 114.678 961.083 114.678 956.481Z" fill="#593f92" fill-rule="nonzero" opacity="1" stroke="none" vectornator:layerName="Oval 1"/>
<g opacity="1" vectornator:layerName="Group 11">
<path d="M129.897 934.439C129.897 922.045 140.015 911.998 152.497 911.998C164.979 911.998 175.098 922.045 175.098 934.439C175.098 946.832 175.098 955.725 152.497 956.879C129.923 958.031 129.897 946.832 129.897 934.439Z" fill="#ffffff" fill-rule="nonzero" opacity="1" stroke="none" vectornator:layerName="Oval 2"/>
<g opacity="1" vectornator:layerName="Group 6">
<g opacity="1" vectornator:layerName="Group 5">
<path d="M150.397 942.257C150.397 940.779 151.795 940.432 153.218 940.432C154.641 940.432 156.091 940.746 156.091 942.257C156.091 943.769 154.79 944.799 153.218 944.799C151.646 944.799 150.397 943.736 150.397 942.257Z" fill="#463174" fill-rule="nonzero" opacity="1" stroke="none" vectornator:layerName="Oval 4"/>
</g>
<path d="M150.887 943.704C150.543 943.205 151.936 942.452 153.212 942.403C154.488 942.354 155.97 943.092 155.633 943.67C155.245 944.335 154.241 944.795 153.277 944.795C152.312 944.795 151.343 944.366 150.887 943.704Z" fill="#7451c2" fill-rule="nonzero" opacity="0.453846" stroke="none" vectornator:layerName="Oval 5"/>
</g>
<g opacity="1" vectornator:layerName="Group 4">
<g opacity="1" vectornator:layerName="Group 2">
<path d="M141.033 935.273C141.033 933.68 142.247 932.389 143.744 932.389C145.241 932.389 146.455 933.68 146.455 935.273C146.455 936.866 145.241 938.157 143.744 938.157C142.247 938.157 141.033 936.866 141.033 935.273Z" fill="#463174" fill-rule="nonzero" opacity="1" stroke="none" vectornator:layerName="Oval 4"/>
<path d="M142.942 934.211C142.942 933.637 143.464 933.171 144.108 933.171C144.753 933.171 145.275 933.637 145.275 934.211C145.275 934.786 144.753 935.251 144.108 935.251C143.464 935.251 142.942 934.786 142.942 934.211Z" fill="#ffffff" fill-rule="nonzero" opacity="1" stroke="none" vectornator:layerName="Oval 7"/>
</g>
<g opacity="1" vectornator:layerName="Group 1">
<path d="M159.579 935.273C159.579 933.68 160.792 932.389 162.29 932.389C163.787 932.389 165.001 933.68 165.001 935.273C165.001 936.866 163.787 938.157 162.29 938.157C160.792 938.157 159.579 936.866 159.579 935.273Z" fill="#463174" fill-rule="nonzero" opacity="1" stroke="none" vectornator:layerName="Oval 4"/>
<path d="M160.882 934.128C160.882 933.554 161.405 933.088 162.049 933.088C162.693 933.088 163.216 933.554 163.216 934.128C163.216 934.703 162.693 935.168 162.049 935.168C161.405 935.168 160.882 934.703 160.882 934.128Z" fill="#ffffff" fill-rule="nonzero" opacity="1" stroke="none" vectornator:layerName="Oval 7"/>
</g>
</g>
</g>
<g opacity="1" vectornator:layerName="Group 12">
<path d="M129.897 934.439C129.897 922.045 140.015 911.998 152.497 911.998C164.979 911.998 175.098 922.045 175.098 934.439C175.098 946.832 175.098 955.725 152.497 956.879C129.923 958.031 129.897 946.832 129.897 934.439Z" fill="#ffffff" fill-rule="nonzero" opacity="1" stroke="none" vectornator:layerName="Oval 2"/>
<g opacity="1" vectornator:layerName="Group 6">
<g opacity="1" vectornator:layerName="Group 5">
<path d="M150.397 942.257C150.397 940.779 151.795 940.432 153.218 940.432C154.641 940.432 156.091 940.746 156.091 942.257C156.091 943.769 154.79 944.799 153.218 944.799C151.646 944.799 150.397 943.736 150.397 942.257Z" fill="#463174" fill-rule="nonzero" opacity="1" stroke="none" vectornator:layerName="Oval 4"/>
</g>
<path d="M150.887 943.704C150.543 943.205 151.936 942.452 153.212 942.403C154.488 942.354 155.97 943.092 155.633 943.67C155.245 944.335 154.241 944.795 153.277 944.795C152.312 944.795 151.343 944.366 150.887 943.704Z" fill="#7451c2" fill-rule="nonzero" opacity="0.453846" stroke="none" vectornator:layerName="Oval 5"/>
</g>
<g opacity="1" vectornator:layerName="Group 4">
<g opacity="1" vectornator:layerName="Group 2">
<path d="M141.033 935.273C141.033 933.68 142.247 932.389 143.744 932.389C145.241 932.389 146.455 933.68 146.455 935.273C146.455 936.866 145.241 938.157 143.744 938.157C142.247 938.157 141.033 936.866 141.033 935.273Z" fill="#463174" fill-rule="nonzero" opacity="1" stroke="none" vectornator:layerName="Oval 4"/>
<path d="M142.942 934.211C142.942 933.637 143.464 933.171 144.108 933.171C144.753 933.171 145.275 933.637 145.275 934.211C145.275 934.786 144.753 935.251 144.108 935.251C143.464 935.251 142.942 934.786 142.942 934.211Z" fill="#ffffff" fill-rule="nonzero" opacity="1" stroke="none" vectornator:layerName="Oval 7"/>
</g>
<g opacity="1" vectornator:layerName="Group 1">
<path d="M159.579 935.273C159.579 933.68 160.792 932.389 162.29 932.389C163.787 932.389 165.001 933.68 165.001 935.273C165.001 936.866 163.787 938.157 162.29 938.157C160.792 938.157 159.579 936.866 159.579 935.273Z" fill="#463174" fill-rule="nonzero" opacity="1" stroke="none" vectornator:layerName="Oval 4"/>
<path d="M160.882 934.128C160.882 933.554 161.405 933.088 162.049 933.088C162.693 933.088 163.216 933.554 163.216 934.128C163.216 934.703 162.693 935.168 162.049 935.168C161.405 935.168 160.882 934.703 160.882 934.128Z" fill="#ffffff" fill-rule="nonzero" opacity="1" stroke="none" vectornator:layerName="Oval 7"/>
</g>
</g>
</g>
<path d="M172.539 877.794C172.256 877.794 172.027 878.023 172.027 878.306C172.027 878.589 172.256 878.818 172.539 878.818C172.822 878.818 173.051 878.589 173.051 878.306C173.051 878.023 172.822 877.794 172.539 877.794Z" fill="#ffffff" fill-rule="nonzero" opacity="1" stroke="none" vectornator:layerName="path"/>
<path d="M174.074 888.98C173.509 888.98 173.051 889.438 173.051 890.004C173.051 890.569 173.509 891.028 174.074 891.028C174.64 891.028 175.098 890.569 175.098 890.004C175.098 889.438 174.64 888.98 174.074 888.98Z" fill="#ffffff" fill-rule="nonzero" opacity="1" stroke="none" vectornator:layerName="path 12"/>
<path d="M193.357 908.878C192.792 908.878 192.334 909.336 192.334 909.902C192.334 910.467 192.792 910.926 193.357 910.926C193.923 910.926 194.381 910.467 194.381 909.902C194.381 909.336 193.923 908.878 193.357 908.878Z" fill="#ffffff" fill-rule="nonzero" opacity="1" stroke="none" vectornator:layerName="path"/>
<path d="M115.702 939.354C115.137 939.354 114.678 939.813 114.678 940.378C114.678 940.944 115.137 941.402 115.702 941.402C116.267 941.402 116.726 940.944 116.726 940.378C116.726 939.813 116.267 939.354 115.702 939.354Z" fill="#ffffff" fill-rule="nonzero" opacity="1" stroke="none" vectornator:layerName="path 1"/>
<path d="M190.427 938.759C189.861 938.759 189.403 939.217 189.403 939.782C189.403 940.348 189.861 940.806 190.427 940.806C190.992 940.806 191.45 940.348 191.45 939.782C191.45 939.217 190.992 938.759 190.427 938.759Z" fill="#ffffff" fill-rule="nonzero" opacity="1" stroke="none" vectornator:layerName="path 3"/>
<path d="M128.617 888.724C127.91 888.724 127.337 889.297 127.337 890.004C127.337 890.711 127.91 891.283 128.617 891.283C129.324 891.283 129.897 890.711 129.897 890.004C129.897 889.297 129.324 888.724 128.617 888.724Z" fill="#ffffff" fill-rule="nonzero" opacity="1" stroke="none" vectornator:layerName="path 7"/>
<path d="M140.606 905.749C140.324 905.749 140.094 905.978 140.094 906.261C140.094 906.544 140.324 906.773 140.606 906.773C140.889 906.773 141.118 906.544 141.118 906.261C141.118 905.978 140.889 905.749 140.606 905.749Z" fill="#ffffff" fill-rule="nonzero" opacity="1" stroke="none" vectornator:layerName="path 8"/>
<path d="M136.252 877.282C135.969 877.282 135.74 877.512 135.74 877.794C135.74 878.077 135.969 878.306 136.252 878.306C136.535 878.306 136.764 878.077 136.764 877.794C136.764 877.512 136.535 877.282 136.252 877.282Z" fill="#ffffff" fill-rule="nonzero" opacity="1" stroke="none" vectornator:layerName="path 5"/>
<path d="M121.343 927.442C121.061 927.442 120.831 927.671 120.831 927.953C120.831 928.236 121.061 928.465 121.343 928.465C121.626 928.465 121.855 928.236 121.855 927.953C121.855 927.671 121.626 927.442 121.343 927.442Z" fill="#ffffff" fill-rule="nonzero" opacity="1" stroke="none" vectornator:layerName="path 6"/>
<path d="M114.166 918.003C113.884 918.003 113.655 918.232 113.655 918.515C113.655 918.797 113.884 919.026 114.166 919.026C114.449 919.026 114.678 918.797 114.678 918.515C114.678 918.232 114.449 918.003 114.166 918.003Z" fill="#ffffff" fill-rule="nonzero" opacity="1" stroke="none" vectornator:layerName="path"/>
<path d="M162.451 895.724C162.169 895.724 161.939 895.953 161.939 896.236C161.939 896.519 162.169 896.748 162.451 896.748C162.734 896.748 162.963 896.519 162.963 896.236C162.963 895.953 162.734 895.724 162.451 895.724Z" fill="#ffffff" fill-rule="nonzero" opacity="1" stroke="none" vectornator:layerName="path 10"/>
<path d="M182.692 920.846C182.409 920.846 182.18 921.075 182.18 921.357C182.18 921.64 182.409 921.869 182.692 921.869C182.975 921.869 183.204 921.64 183.204 921.357C183.204 921.075 182.975 920.846 182.692 920.846Z" fill="#ffffff" fill-rule="nonzero" opacity="1" stroke="none" vectornator:layerName="path 11"/>
<path d="M193.869 927.442C193.587 927.442 193.357 927.671 193.357 927.953C193.357 928.236 193.587 928.465 193.869 928.465C194.152 928.465 194.381 928.236 194.381 927.953C194.381 927.671 194.152 927.442 193.869 927.442Z" fill="#ffffff" fill-rule="nonzero" opacity="1" stroke="none" vectornator:layerName="path 9"/>
<path d="M168.159 909.792C167.876 909.792 167.647 910.021 167.647 910.304C167.647 910.587 167.876 910.816 168.159 910.816C168.442 910.816 168.671 910.587 168.671 910.304C168.671 910.021 168.442 909.792 168.159 909.792Z" fill="#ffffff" fill-rule="nonzero" opacity="1" stroke="none" vectornator:layerName="path"/>
<g opacity="1" vectornator:layerName="Question Mark 2">
<path d="M141.118 881.806C141.118 880.424 141.566 879.022 142.45 877.6C143.335 876.178 144.638 875.005 146.338 874.07C148.038 873.136 150.027 872.668 152.304 872.668C154.412 872.668 156.281 873.056 157.892 873.842C159.513 874.617 160.756 875.681 161.641 877.024C162.526 878.366 162.963 879.818 162.963 881.389C162.963 882.631 162.714 883.715 162.207 884.64C161.7 885.575 161.104 886.38 160.418 887.056C159.722 887.732 158.489 888.876 156.689 890.477C156.192 890.924 155.794 891.322 155.496 891.67C155.198 892.008 154.979 892.326 154.83 892.604C154.68 892.893 154.571 893.171 154.492 893.459C154.412 893.748 154.293 894.245 154.134 894.961C153.855 896.472 152.99 897.238 151.538 897.238C150.783 897.238 150.146 896.989 149.629 896.492C149.112 895.995 148.854 895.259 148.854 894.285C148.854 893.062 149.043 891.998 149.421 891.103C149.798 890.208 150.306 889.423 150.932 888.746C151.558 888.07 152.404 887.265 153.467 886.33C154.402 885.515 155.068 884.898 155.486 884.481C155.903 884.063 156.251 883.606 156.53 883.089C156.818 882.582 156.957 882.025 156.957 881.428C156.957 880.265 156.52 879.281 155.655 878.475C154.79 877.67 153.666 877.272 152.304 877.272C150.703 877.272 149.52 877.68 148.764 878.485C148.009 879.291 147.362 880.484 146.845 882.055C146.348 883.705 145.413 884.521 144.031 884.521C143.216 884.521 142.53 884.232 141.963 883.656C141.406 883.099 141.118 882.482 141.118 881.806ZM151.787 905.749C150.902 905.749 150.127 905.461 149.46 904.884C148.794 904.307 148.466 903.502 148.466 902.468C148.466 901.553 148.784 900.778 149.431 900.151C150.067 899.525 150.862 899.217 151.787 899.217C152.702 899.217 153.477 899.535 154.104 900.151C154.73 900.778 155.038 901.553 155.038 902.468C155.038 903.492 154.71 904.288 154.054 904.874C153.398 905.461 152.642 905.749 151.787 905.749Z" fill="#ffffff" fill-rule="nonzero" opacity="1" stroke="none" vectornator:layerName="path"/>
</g>
<g opacity="1" vectornator:layerName="Question Mark 3">
<path d="M180.67 896.59C181.123 895.8 181.839 895.146 182.811 894.624C183.783 894.102 184.912 893.859 186.19 893.882C187.468 893.906 188.758 894.291 190.059 895.038C191.263 895.73 192.204 896.564 192.866 897.541C193.538 898.516 193.899 899.532 193.965 900.589C194.03 901.646 193.804 902.619 193.288 903.517C192.881 904.227 192.383 904.765 191.79 905.127C191.194 905.494 190.589 905.759 189.975 905.92C189.355 906.078 188.276 906.327 186.723 906.651C186.292 906.744 185.934 906.841 185.649 906.942C185.368 907.037 185.139 907.147 184.962 907.257C184.782 907.373 184.629 907.496 184.489 907.635C184.349 907.774 184.117 908.018 183.792 908.375C183.137 909.147 182.391 909.301 181.562 908.825C181.13 908.577 180.848 908.226 180.716 907.773C180.583 907.319 180.677 906.814 180.997 906.257C181.398 905.558 181.855 905.012 182.364 904.625C182.874 904.238 183.421 903.955 184.001 903.774C184.58 903.594 185.327 903.411 186.242 903.226C187.043 903.066 187.626 902.933 188.002 902.831C188.377 902.729 188.726 902.582 189.055 902.378C189.386 902.183 189.648 901.91 189.844 901.57C190.225 900.905 190.298 900.199 190.068 899.455C189.838 898.711 189.327 898.115 188.548 897.669C187.634 897.143 186.824 896.988 186.128 897.201C185.432 897.413 184.672 897.883 183.861 898.611C183.035 899.391 182.234 899.55 181.444 899.096C180.978 898.829 180.681 898.439 180.546 897.924C180.411 897.423 180.448 896.976 180.67 896.59ZM178.912 913.77C178.407 913.479 178.058 913.06 177.867 912.512C177.675 911.964 177.752 911.396 178.091 910.805C178.391 910.283 178.827 909.944 179.402 909.798C179.971 909.649 180.527 909.734 181.055 910.037C181.578 910.337 181.916 910.773 182.072 911.331C182.225 911.894 182.146 912.439 181.846 912.961C181.51 913.546 181.062 913.893 180.494 914.013C179.927 914.133 179.401 914.05 178.912 913.77Z" fill="#ffffff" fill-rule="nonzero" opacity="1" stroke="none" vectornator:layerName="path"/>
</g>
<g opacity="1" vectornator:layerName="Question Mark 1">
<path d="M111.649 903.787C111.194 902.999 110.987 902.051 111.024 900.949C111.06 899.846 111.417 898.747 112.079 897.654C112.741 896.561 113.722 895.639 115.021 894.889C116.224 894.195 117.418 893.8 118.596 893.718C119.776 893.626 120.836 893.824 121.783 894.298C122.73 894.773 123.457 895.457 123.975 896.353C124.384 897.062 124.6 897.762 124.615 898.457C124.633 899.157 124.558 899.813 124.39 900.425C124.215 901.04 123.888 902.099 123.389 903.605C123.253 904.024 123.157 904.382 123.101 904.679C123.042 904.97 123.022 905.224 123.029 905.432C123.039 905.645 123.068 905.84 123.118 906.031C123.167 906.221 123.263 906.544 123.408 907.005C123.747 907.959 123.506 908.681 122.678 909.159C122.246 909.408 121.801 909.476 121.343 909.363C120.884 909.249 120.494 908.915 120.173 908.359C119.77 907.661 119.527 906.992 119.448 906.357C119.369 905.722 119.4 905.106 119.534 904.514C119.669 903.922 119.886 903.184 120.185 902.301C120.45 901.527 120.627 900.956 120.727 900.58C120.828 900.205 120.876 899.829 120.865 899.442C120.862 899.058 120.758 898.694 120.562 898.354C120.178 897.69 119.604 897.273 118.846 897.098C118.087 896.924 117.315 897.067 116.537 897.516C115.624 898.043 115.083 898.665 114.917 899.374C114.752 900.082 114.776 900.976 114.998 902.042C115.258 903.148 114.994 903.921 114.205 904.376C113.74 904.645 113.254 904.706 112.74 904.564C112.239 904.43 111.872 904.173 111.649 903.787ZM125.623 913.934C125.118 914.225 124.581 914.316 124.011 914.206C123.441 914.097 122.988 913.745 122.647 913.155C122.346 912.634 122.272 912.086 122.435 911.516C122.591 910.949 122.944 910.511 123.471 910.206C123.993 909.905 124.54 909.831 125.101 909.976C125.665 910.128 126.096 910.469 126.397 910.99C126.735 911.575 126.809 912.137 126.628 912.688C126.447 913.238 126.111 913.652 125.623 913.934Z" fill="#ffffff" fill-rule="nonzero" opacity="1" stroke="none" vectornator:layerName="path"/>
</g>
</g>
</g>
</svg>
