<?xml version="1.0" encoding="UTF-8" standalone="no"?>
<!DOCTYPE svg PUBLIC "-//W3C//DTD SVG 1.1//EN" "http://www.w3.org/Graphics/SVG/1.1/DTD/svg11.dtd">
<!-- Created with Vectornator (http://vectornator.io/) -->
<svg height="100%" stroke-miterlimit="10" style="fill-rule:nonzero;clip-rule:evenodd;stroke-linecap:round;stroke-linejoin:round;" version="1.1" viewBox="591.989 781.053 158.152 200.704" width="100%" xml:space="preserve" xmlns="http://www.w3.org/2000/svg" xmlns:vectornator="http://vectornator.io" xmlns:xlink="http://www.w3.org/1999/xlink">
<defs/>
<clipPath id="ArtboardFrame">
<rect height="200.704" width="158.152" x="591.989" y="781.053"/>
</clipPath>
<g clip-path="url(#ArtboardFrame)" id="Layer" vectornator:layerName="Layer">
<g opacity="1" vectornator:layerName="Group 3">
<path d="M610.817 810.851C610.817 802.599 616.85 795.909 624.291 795.909L684.793 795.909C692.234 795.909 698.266 802.599 698.266 810.851L698.266 941.461C698.266 949.713 692.234 956.402 684.793 956.402L624.291 956.402C616.85 956.402 610.817 949.713 610.817 941.461L610.817 810.851Z" fill="#593f92" fill-rule="nonzero" opacity="1" stroke="#ffffff" stroke-linecap="butt" stroke-linejoin="round" stroke-width="0.749812" vectornator:layerName="Rectangle 2"/>
<g opacity="1" vectornator:layerName="Group 1">
<path d="M625.437 819.435C625.437 815.71 628.457 812.689 632.183 812.689L676.901 812.689C680.627 812.689 683.647 815.71 683.647 819.435L683.647 833.139C683.647 836.865 680.627 839.885 676.901 839.885L632.183 839.885C628.457 839.885 625.437 836.865 625.437 833.139L625.437 819.435Z" fill="#463174" fill-rule="nonzero" opacity="1" stroke="none" vectornator:layerName="Rectangle 1"/>
<path d="M632.543 827.55C634.231 828.111 636.001 828.678 637.803 828.582C638.623 828.539 639.412 828.343 640.156 827.995C640.919 827.638 641.617 827.154 642.389 826.816C645.227 825.574 648.042 827.696 650.689 828.492C652.01 828.89 653.399 828.985 654.691 828.431C656.118 827.82 657.195 826.653 658.37 825.678C661.005 823.494 664.443 822.316 667.862 822.405C671.614 822.502 675.245 824.159 677.828 826.87C678.045 827.097 678.389 826.752 678.173 826.526C675.915 824.157 672.873 822.56 669.633 822.076C666.387 821.591 663.016 822.239 660.162 823.856C658.717 824.674 657.559 825.794 656.286 826.839C655.047 827.857 653.669 828.513 652.035 828.296C649.221 827.924 646.8 825.755 643.881 825.951C642.017 826.077 640.685 827.48 638.931 827.927C636.838 828.46 634.65 827.737 632.672 827.081C632.374 826.982 632.246 827.452 632.543 827.55L632.543 827.55C632.543 827.55 632.543 827.55 632.543 827.55Z" fill="#c0a3ff" fill-rule="nonzero" opacity="1" stroke="none" vectornator:layerName="path"/>
<path d="M636.024 828.341C636.024 827.345 636.831 826.537 637.827 826.537C638.823 826.537 639.63 827.345 639.63 828.341C639.63 829.337 638.823 830.144 637.827 830.144C636.831 830.144 636.024 829.337 636.024 828.341Z" fill="#ffffff" fill-rule="nonzero" opacity="1" stroke="none" vectornator:layerName="circle"/>
<path d="M651.591 828.421C651.591 827.425 652.398 826.617 653.394 826.617C654.39 826.617 655.197 827.425 655.197 828.421C655.197 829.416 654.39 830.224 653.394 830.224C652.398 830.224 651.591 829.416 651.591 828.421Z" fill="#ffffff" fill-rule="nonzero" opacity="1" stroke="none" vectornator:layerName="circle"/>
<path d="M667.4 822.304C667.4 821.308 668.207 820.5 669.203 820.5C670.199 820.5 671.006 821.308 671.006 822.304C671.006 823.3 670.199 824.107 669.203 824.107C668.207 824.107 667.4 823.3 667.4 822.304Z" fill="#ffffff" fill-rule="nonzero" opacity="1" stroke="none" vectornator:layerName="circle"/>
</g>
<g opacity="1" vectornator:layerName="Group 1">
<path d="M682.365 916.81L626.718 916.81C626.15 916.81 625.689 916.349 625.688 915.78L625.688 901.976C625.689 901.408 626.15 900.947 626.718 900.946L682.365 900.946C682.934 900.947 683.395 901.408 683.396 901.976L683.396 915.78C683.395 916.349 682.934 916.81 682.365 916.81L682.365 916.81ZM626.718 901.358C626.377 901.358 626.101 901.635 626.1 901.976L626.1 915.78C626.101 916.121 626.377 916.398 626.718 916.398L676.044 915.912C676.385 915.912 681.561 913.982 681.561 913.64L682.984 901.976C682.983 901.635 682.707 901.358 682.365 901.358C682.365 901.358 626.718 901.358 626.718 901.358Z" fill="#e6e6e6" fill-rule="nonzero" opacity="1" stroke="none" vectornator:layerName="path"/>
<path d="M643.928 908.049C643.529 908.041 643.2 908.357 643.191 908.755C643.183 909.154 643.499 909.483 643.897 909.492C643.907 909.492 643.918 909.492 643.928 909.492L677.934 909.492C678.332 909.507 678.667 909.196 678.682 908.798C678.698 908.4 678.387 908.065 677.989 908.05L643.928 908.05C643.928 908.05 643.928 908.049 643.928 908.049Z" fill="#e6e6e6" fill-rule="nonzero" opacity="1" stroke="none" vectornator:layerName="path"/>
<path d="M631.489 908.878C631.489 907.285 632.781 905.993 634.375 905.993C635.969 905.993 637.261 907.285 637.261 908.878C637.261 910.472 635.969 911.764 634.375 911.764C632.781 911.764 631.489 910.472 631.489 908.878Z" fill="#e6e6e6" fill-rule="nonzero" opacity="1" stroke="none" vectornator:layerName="circle"/>
</g>
<path d="M706.285 975.199C706.285 971.578 716.103 968.642 728.213 968.642C740.324 968.642 750.141 971.578 750.141 975.199C750.141 978.821 740.324 981.756 728.213 981.756C716.103 981.756 706.285 978.821 706.285 975.199Z" fill="#7451c2" fill-rule="nonzero" opacity="1" stroke="none" vectornator:layerName="Oval 1"/>
<g opacity="1" vectornator:layerName="Group 15">
<g opacity="1" vectornator:layerName="Group 8">
<path d="M704.762 960.815C706.352 951.496 715.064 945.209 724.22 946.772C733.376 948.334 739.509 957.156 737.919 966.474C736.328 975.793 735.187 982.479 718.46 980.517C701.753 978.557 703.171 970.133 704.762 960.815Z" fill="#ffffff" fill-rule="nonzero" opacity="1" stroke="#463174" stroke-linecap="butt" stroke-linejoin="round" stroke-width="0.749812" vectornator:layerName="Oval 2"/>
</g>
<path d="M704.89 961.768C704.89 961.768 708.01 962.04 708.117 963.059C708.269 964.506 705.469 964.889 704.447 964.889C704.447 964.889 704.543 964.135 704.659 963.351C704.775 962.566 704.89 961.768 704.89 961.768Z" fill="#463174" fill-rule="nonzero" opacity="1" stroke="none" vectornator:layerName="Oval 2"/>
<g opacity="1" vectornator:layerName="Group 10">
<path d="M710.074 955.737C710.271 954.421 711.493 953.512 712.806 953.707C714.118 953.903 715.023 955.128 714.827 956.445C714.631 957.762 713.408 958.67 712.096 958.475C710.783 958.28 709.878 957.054 710.074 955.737Z" fill="#463174" fill-rule="nonzero" opacity="1" stroke="none" vectornator:layerName="Oval 3"/>
<path d="M710.8 954.88C710.886 954.303 711.422 953.905 711.997 953.99C712.572 954.076 712.968 954.613 712.883 955.19C712.797 955.767 712.261 956.165 711.686 956.08C711.111 955.994 710.714 955.457 710.8 954.88Z" fill="#ffffff" fill-rule="nonzero" opacity="1" stroke="none" vectornator:layerName="Oval 2"/>
</g>
<path d="M704.447 964.889C704.447 964.889 705.295 963.265 706.282 962.83C708.123 962.018 708.117 963.145 708.117 963.145C708.117 963.145 708.259 964.04 706.58 964.572C705.612 964.879 704.447 964.889 704.447 964.889Z" fill="#593f92" fill-rule="nonzero" opacity="1" stroke="none" vectornator:layerName="Oval 3"/>
</g>
<path d="M719.417 921.235L720.213 921.235C720.406 921.235 720.561 921.392 720.561 921.582L720.561 922.378C720.561 922.57 720.404 922.726 720.213 922.726L719.417 922.726C719.226 922.725 719.071 922.57 719.07 922.378L719.07 921.582C719.07 921.49 719.106 921.402 719.171 921.337C719.237 921.271 719.325 921.235 719.417 921.235ZM722.177 921.235L722.972 921.235C723.164 921.236 723.319 921.391 723.32 921.582L723.32 922.378C723.32 922.57 723.163 922.726 722.972 922.726L722.177 922.726C721.985 922.725 721.83 922.57 721.829 922.378L721.829 921.582C721.83 921.391 721.985 921.236 722.177 921.235ZM724.937 921.235L725.734 921.235C725.925 921.236 726.08 921.391 726.081 921.582L726.081 922.378C726.081 922.57 725.924 922.726 725.734 922.726L724.937 922.726C724.746 922.725 724.591 922.57 724.59 922.378L724.59 921.582C724.59 921.49 724.626 921.402 724.692 921.337C724.757 921.271 724.845 921.235 724.937 921.235ZM727.697 921.235L728.493 921.235C728.684 921.236 728.839 921.391 728.84 921.582L728.84 922.378C728.84 922.57 728.684 922.726 728.493 922.726L727.697 922.726C727.505 922.726 727.349 922.57 727.348 922.378L727.348 921.582C727.35 921.391 727.505 921.236 727.697 921.235ZM730.456 921.235L731.252 921.235C731.445 921.235 731.601 921.392 731.601 921.582L731.601 922.378C731.601 922.57 731.445 922.726 731.252 922.726L730.456 922.726C730.265 922.725 730.11 922.57 730.109 922.378L730.109 921.582C730.11 921.391 730.265 921.236 730.456 921.235ZM722.278 924.244L723.074 924.244C723.265 924.245 723.42 924.4 723.421 924.591L723.421 925.389C723.421 925.58 723.265 925.736 723.074 925.736L722.278 925.736C722.086 925.736 721.931 925.581 721.93 925.389L721.93 924.593C721.93 924.5 721.966 924.411 722.032 924.346C722.097 924.28 722.185 924.244 722.278 924.244ZM725.037 924.244L725.833 924.244C726.025 924.245 726.18 924.4 726.18 924.591L726.18 925.389C726.18 925.58 726.024 925.736 725.833 925.736L725.037 925.736C724.846 925.735 724.691 925.58 724.69 925.389L724.69 924.593C724.689 924.5 724.726 924.411 724.791 924.346C724.856 924.28 724.945 924.244 725.037 924.244ZM727.797 924.244L728.592 924.244C728.785 924.244 728.941 924.4 728.941 924.591L728.941 925.389C728.94 925.581 728.784 925.736 728.592 925.736L727.797 925.736C727.605 925.735 727.45 925.58 727.449 925.389L727.449 924.593C727.449 924.4 727.606 924.244 727.797 924.244ZM724.937 918.003L725.734 918.003C725.924 918.003 726.081 918.159 726.081 918.35L726.081 919.146C726.081 919.338 725.924 919.493 725.734 919.493L724.937 919.493C724.746 919.492 724.591 919.337 724.59 919.146L724.59 918.35C724.59 918.258 724.626 918.169 724.692 918.104C724.757 918.039 724.845 918.002 724.937 918.003ZM727.697 918.003L728.493 918.003C728.684 918.003 728.84 918.159 728.84 918.35L728.84 919.146C728.84 919.338 728.684 919.493 728.493 919.493L727.697 919.493C727.505 919.493 727.349 919.338 727.348 919.146L727.348 918.35C727.35 918.158 727.505 918.004 727.697 918.003Z" fill="#ffffff" fill-rule="evenodd" opacity="1" stroke="none" vectornator:layerName="path 14"/>
<path d="M610.42 789.055L609.51 789.055C609.289 789.055 609.112 788.875 609.112 788.657L609.112 787.746C609.112 787.526 609.291 787.349 609.51 787.349L610.42 787.349C610.639 787.35 610.817 787.527 610.817 787.746L610.817 788.657C610.818 788.762 610.776 788.864 610.701 788.938C610.627 789.013 610.526 789.055 610.42 789.055ZM607.263 789.055L606.352 789.055C606.133 789.054 605.956 788.876 605.955 788.657L605.955 787.746C605.955 787.526 606.134 787.349 606.352 787.349L607.263 787.349C607.482 787.35 607.66 787.527 607.661 787.746L607.661 788.657C607.66 788.876 607.482 789.054 607.263 789.055ZM604.104 789.055L603.193 789.055C602.974 789.054 602.797 788.876 602.796 788.657L602.796 787.746C602.796 787.526 602.975 787.349 603.193 787.349L604.104 787.349C604.323 787.35 604.501 787.527 604.502 787.746L604.502 788.657C604.502 788.762 604.46 788.864 604.385 788.938C604.311 789.013 604.21 789.055 604.104 789.055ZM600.947 789.055L600.036 789.055C599.817 789.054 599.64 788.876 599.639 788.657L599.639 787.746C599.639 787.526 599.818 787.349 600.036 787.349L600.947 787.349C601.166 787.349 601.345 787.527 601.346 787.746L601.346 788.657C601.344 788.876 601.166 789.053 600.947 789.055ZM597.79 789.055L596.879 789.055C596.659 789.055 596.48 788.875 596.48 788.657L596.48 787.746C596.48 787.526 596.659 787.349 596.879 787.349L597.79 787.349C598.009 787.35 598.186 787.527 598.187 787.746L598.187 788.657C598.186 788.876 598.009 789.054 597.79 789.055ZM607.147 785.612L606.237 785.612C606.017 785.611 605.84 785.433 605.839 785.214L605.839 784.302C605.839 784.084 606.018 783.904 606.237 783.904L607.147 783.904C607.367 783.904 607.545 784.082 607.545 784.302L607.545 785.213C607.545 785.318 607.504 785.42 607.429 785.495C607.354 785.57 607.253 785.612 607.147 785.612ZM603.99 785.612L603.079 785.612C602.86 785.611 602.683 785.433 602.682 785.214L602.682 784.302C602.682 784.084 602.861 783.904 603.079 783.904L603.99 783.904C604.209 783.905 604.387 784.083 604.388 784.302L604.388 785.213C604.388 785.318 604.346 785.42 604.272 785.495C604.197 785.57 604.096 785.612 603.99 785.612ZM600.833 785.612L599.922 785.612C599.702 785.612 599.523 785.433 599.523 785.214L599.523 784.302C599.524 784.082 599.702 783.904 599.922 783.904L600.833 783.904C601.052 783.905 601.229 784.083 601.23 784.302L601.23 785.213C601.23 785.433 601.051 785.612 600.833 785.612ZM604.104 792.753L603.193 792.753C602.975 792.753 602.796 792.574 602.796 792.355L602.796 791.445C602.796 791.225 602.975 791.048 603.193 791.048L604.104 791.048C604.323 791.048 604.501 791.226 604.502 791.445L604.502 792.355C604.502 792.461 604.46 792.562 604.385 792.637C604.311 792.711 604.21 792.753 604.104 792.753ZM600.947 792.753L600.036 792.753C599.818 792.753 599.639 792.574 599.639 792.355L599.639 791.445C599.639 791.225 599.818 791.048 600.036 791.048L600.947 791.048C601.166 791.048 601.345 791.225 601.346 791.445L601.346 792.355C601.344 792.575 601.166 792.751 600.947 792.753Z" fill="#ffffff" fill-rule="evenodd" opacity="1" stroke="none" vectornator:layerName="path 7"/>
<path d="M666.298 782.479C666.298 783.266 666.942 783.904 667.736 783.904C668.531 783.904 669.175 783.266 669.175 782.479C669.175 781.691 668.531 781.053 667.736 781.053C666.942 781.053 666.298 781.691 666.298 782.479Z" fill="#ffffff" fill-rule="nonzero" opacity="1" stroke="none" vectornator:layerName="ellipse 15"/>
<path d="M591.989 843.694C591.989 844.481 592.634 845.12 593.428 845.12C594.223 845.12 594.867 844.481 594.867 843.694C594.867 842.906 594.223 842.268 593.428 842.268C592.634 842.268 591.989 842.906 591.989 843.694Z" fill="#ffffff" fill-rule="nonzero" opacity="1" stroke="none" vectornator:layerName="ellipse 8"/>
<path d="M622.559 973.249C622.559 974.037 623.203 974.675 623.998 974.675C624.793 974.675 625.437 974.037 625.437 973.249C625.437 972.462 624.793 971.824 623.998 971.824C623.203 971.824 622.559 972.462 622.559 973.249Z" fill="#ffffff" fill-rule="nonzero" opacity="1" stroke="none" vectornator:layerName="ellipse 9"/>
<path d="M717.483 844.83C718.757 844.138 719.07 842.252 719.07 842.252C719.07 842.252 717.318 841.489 716.045 842.182C714.772 842.874 714.458 844.758 714.458 844.758C714.458 844.758 716.21 845.521 717.483 844.83Z" fill="#ffffff" fill-rule="nonzero" opacity="1" stroke="none" vectornator:layerName="path 25"/>
<path d="M664.041 975.754C664.75 974.49 664.01 972.727 664.01 972.727C664.01 972.727 662.122 973.015 661.413 974.279C660.704 975.543 661.443 977.305 661.443 977.305C661.443 977.305 663.332 977.018 664.041 975.754Z" fill="#ffffff" fill-rule="nonzero" opacity="1" stroke="none" vectornator:layerName="path 19"/>
<path d="M595.386 900.607C597.866 901.658 600.97 899.931 600.97 899.931C600.97 899.931 600.052 896.501 597.572 895.452C595.093 894.401 591.989 896.126 591.989 896.126C591.989 896.126 592.907 899.556 595.386 900.607Z" fill="#ffffff" fill-rule="nonzero" opacity="1" stroke="none" vectornator:layerName="path 17"/>
<g opacity="1" vectornator:layerName="Group 13">
<path d="M682.365 941.6L626.718 941.6C626.15 941.6 625.689 941.139 625.688 940.57L625.688 926.766C625.689 926.198 626.15 925.737 626.718 925.736L682.365 925.736C682.934 925.737 683.395 926.198 683.396 926.766L683.396 940.57C683.395 941.139 682.934 941.6 682.365 941.601L682.365 941.6ZM626.718 926.148C626.377 926.149 626.101 926.425 626.1 926.766L626.1 940.57C626.101 940.911 626.377 941.188 626.718 941.188L676.044 940.702C676.385 940.702 681.561 938.772 681.561 938.43L682.984 926.766C682.983 926.425 682.707 926.149 682.365 926.148C682.365 926.148 626.718 926.148 626.718 926.148Z" fill="#e6e6e6" fill-rule="nonzero" opacity="1" stroke="none" vectornator:layerName="path"/>
<path d="M643.928 932.839C643.529 932.831 643.2 933.147 643.191 933.545C643.183 933.944 643.499 934.273 643.897 934.282C643.907 934.282 643.918 934.282 643.928 934.282L677.934 934.282C678.332 934.297 678.667 933.987 678.682 933.588C678.698 933.19 678.387 932.855 677.989 932.84L643.928 932.84C643.928 932.84 643.928 932.839 643.928 932.839Z" fill="#e6e6e6" fill-rule="nonzero" opacity="1" stroke="none" vectornator:layerName="path"/>
<path d="M631.489 933.668C631.489 932.075 632.781 930.783 634.375 930.783C635.969 930.783 637.261 932.075 637.261 933.668C637.261 935.262 635.969 936.554 634.375 936.554C632.781 936.554 631.489 935.262 631.489 933.668Z" fill="#e6e6e6" fill-rule="nonzero" opacity="1" stroke="none" vectornator:layerName="circle"/>
</g>
<g opacity="1" vectornator:layerName="Group 2">
<path d="M682.365 892.02L626.718 892.02C626.15 892.019 625.689 891.558 625.688 890.989L625.688 877.186C625.689 876.617 626.15 876.156 626.718 876.156L682.365 876.156C682.934 876.156 683.395 876.617 683.396 877.186L683.396 890.99C683.395 891.559 682.934 892.02 682.365 892.02L682.365 892.02ZM626.718 876.568C626.377 876.568 626.101 876.845 626.1 877.186L626.1 890.99C626.101 891.331 626.377 891.608 626.718 891.608L682.365 891.608C682.707 891.608 682.983 891.331 682.984 890.99L682.984 877.186C682.983 876.845 682.707 876.568 682.365 876.568C682.365 876.568 626.718 876.568 626.718 876.568Z" fill="#e6e6e6" fill-rule="nonzero" opacity="1" stroke="none" vectornator:layerName="path"/>
<path d="M643.928 881.201C643.529 881.21 643.213 881.539 643.222 881.938C643.23 882.324 643.541 882.636 643.928 882.644L677.934 882.644C678.332 882.659 678.667 882.349 678.682 881.95C678.698 881.552 678.387 881.217 677.989 881.202L643.928 881.202L643.928 881.201Z" fill="#e6e6e6" fill-rule="nonzero" opacity="1" stroke="none" vectornator:layerName="path"/>
<path d="M643.928 885.53C643.529 885.539 643.213 885.869 643.222 886.267C643.23 886.654 643.541 886.965 643.928 886.973L677.934 886.973C678.332 886.988 678.667 886.678 678.682 886.28C678.698 885.882 678.387 885.546 677.989 885.531L643.928 885.531L643.928 885.53Z" fill="#e6e6e6" fill-rule="nonzero" opacity="1" stroke="none" vectornator:layerName="path"/>
<path d="M631.489 884.088C631.489 882.494 632.781 881.203 634.375 881.203C635.969 881.203 637.261 882.494 637.261 884.088C637.261 885.682 635.969 886.974 634.375 886.974C632.781 886.974 631.489 885.682 631.489 884.088Z" fill="#e6e6e6" fill-rule="nonzero" opacity="1" stroke="none" vectornator:layerName="circle"/>
</g>
<g opacity="1" vectornator:layerName="Group 1">
<path d="M682.365 867.23L626.718 867.23C626.15 867.229 625.689 866.768 625.688 866.199L625.688 852.396C625.689 851.827 626.15 851.366 626.718 851.366L682.365 851.366C682.934 851.366 683.395 851.827 683.396 852.396L683.396 866.2C683.395 866.768 682.934 867.229 682.365 867.23L682.365 867.23ZM626.718 851.778C626.377 851.778 626.101 852.055 626.1 852.396L626.1 866.2C626.101 866.541 626.377 866.818 626.718 866.818L682.365 866.818C682.707 866.818 682.983 866.541 682.984 866.2L682.984 852.396C682.983 852.055 682.707 851.778 682.365 851.778C682.365 851.778 626.718 851.778 626.718 851.778Z" fill="#e6e6e6" fill-rule="nonzero" opacity="1" stroke="none" vectornator:layerName="path"/>
<path d="M643.928 856.411C643.529 856.42 643.213 856.749 643.222 857.148C643.23 857.534 643.541 857.846 643.928 857.854L677.934 857.854C678.332 857.869 678.667 857.559 678.682 857.16C678.698 856.762 678.387 856.427 677.989 856.412L643.928 856.412L643.928 856.411Z" fill="#e6e6e6" fill-rule="nonzero" opacity="1" stroke="none" vectornator:layerName="path"/>
<path d="M643.928 860.74C643.529 860.749 643.213 861.079 643.222 861.477C643.23 861.863 643.541 862.175 643.928 862.183L677.934 862.183C678.332 862.198 678.667 861.888 678.682 861.49C678.698 861.091 678.387 860.756 677.989 860.741L643.928 860.741L643.928 860.74Z" fill="#e6e6e6" fill-rule="nonzero" opacity="1" stroke="none" vectornator:layerName="path"/>
<path d="M631.489 859.298C631.489 857.704 632.781 856.412 634.375 856.412C635.969 856.412 637.261 857.704 637.261 859.298C637.261 860.892 635.969 862.184 634.375 862.184C632.781 862.184 631.489 860.892 631.489 859.298Z" fill="#e6e6e6" fill-rule="nonzero" opacity="1" stroke="none" vectornator:layerName="circle"/>
</g>
</g>
</g>
</svg>
