<?xml version="1.0" encoding="UTF-8" standalone="no"?><!DOCTYPE svg PUBLIC "-//W3C//DTD SVG 1.1//EN" "http://www.w3.org/Graphics/SVG/1.1/DTD/svg11.dtd"><svg width="100%" height="100%" viewBox="0 0 375 343" version="1.1" xmlns="http://www.w3.org/2000/svg" xmlns:xlink="http://www.w3.org/1999/xlink" xml:space="preserve" xmlns:serif="http://www.serif.com/" style="fill-rule:evenodd;clip-rule:evenodd;stroke-linejoin:round;stroke-miterlimit:10;"><g id="Layer"><g><path d="M175,8.333c129.088,-39.131 195.948,73.542 199.148,161.792c3.2,88.25 -119.109,206.168 -207.481,159.042c-107.084,-57.104 -164.741,-57.542 -166.667,-145.834c-1.977,-90.666 122.917,-159.212 175,-175Z" style="fill:#c0a3ff;fill-rule:nonzero;"/><g><path d="M98.831,212.667c0,-28.125 34.642,-50.959 77.375,-50.959c42.737,0 77.379,22.834 77.379,50.959c0,28.125 -34.642,50.916 -77.379,50.916c-42.733,0 -77.375,-22.791 -77.375,-50.916Z" style="fill:#7451c2;fill-rule:nonzero;"/><g><path d="M215.918,181.833c0,-24.875 19.8,-45 44.23,-45c24.429,0 44.233,20.125 44.233,45c0,24.875 0,42.709 -44.233,45c-44.18,2.334 -44.23,-20.125 -44.23,-45Z" style="fill:#fff;fill-rule:nonzero;stroke:#463174;stroke-width:4.92px;"/><g><g><path d="M234.377,181.917c0,-3.209 2.375,-5.792 5.304,-5.792c2.933,0 5.308,2.583 5.308,5.792c0,3.208 -2.375,5.791 -5.308,5.791c-2.929,0 -5.304,-2.583 -5.304,-5.791Z" style="fill:#463174;fill-rule:nonzero;"/><path d="M235.114,184c0,-1.167 1.025,-2.083 2.283,-2.083c1.263,0 2.284,0.916 2.284,2.083c0,1.167 -1.021,2.083 -2.284,2.083c-1.258,0 -2.283,-0.916 -2.283,-2.083Z" style="fill:#fff;fill-rule:nonzero;"/></g><g><path d="M270.673,181.917c0,-3.209 2.375,-5.792 5.304,-5.792c2.933,0 5.308,2.583 5.308,5.792c0,3.208 -2.375,5.791 -5.308,5.791c-2.929,0 -5.304,-2.583 -5.304,-5.791Z" style="fill:#463174;fill-rule:nonzero;"/><path d="M271.414,184c0,-1.167 1.021,-2.083 2.279,-2.083c1.263,0 2.284,0.916 2.284,2.083c0,1.167 -1.021,2.083 -2.284,2.083c-1.258,0 -2.279,-0.916 -2.279,-2.083Z" style="fill:#fff;fill-rule:nonzero;"/></g></g></g><g><path d="M129.302,189.083c0,-26.333 21,-47.708 46.904,-47.708c25.908,0 46.908,21.375 46.908,47.708c0,26.375 0,45.292 -46.908,47.75c-46.85,2.459 -46.904,-21.375 -46.904,-47.75Z" style="fill:#fff;fill-rule:nonzero;stroke:#463174;stroke-width:4.92px;"/><g><g><path d="M152.414,190.875c0,-3.375 2.521,-6.125 5.625,-6.125c3.109,0 5.629,2.75 5.629,6.125c0,3.375 -2.52,6.125 -5.629,6.125c-3.104,0 -5.625,-2.75 -5.625,-6.125Z" style="fill:#463174;fill-rule:nonzero;"/><path d="M155.714,193.083c0,-1.208 1.084,-2.208 2.421,-2.208c1.338,0 2.421,1 2.421,2.208c0,1.209 -1.083,2.209 -2.421,2.209c-1.337,0 -2.421,-1 -2.421,-2.209Z" style="fill:#fff;fill-rule:nonzero;"/></g><g><path d="M190.906,190.875c0,-3.375 2.517,-6.125 5.625,-6.125c3.108,0 5.625,2.75 5.625,6.125c0,3.375 -2.517,6.125 -5.625,6.125c-3.108,0 -5.625,-2.75 -5.625,-6.125Z" style="fill:#463174;fill-rule:nonzero;"/><path d="M194.202,193.083c0,-1.208 1.083,-2.208 2.421,-2.208c1.337,0 2.42,1 2.42,2.208c0,1.209 -1.083,2.209 -2.42,2.209c-1.338,0 -2.421,-1 -2.421,-2.209Z" style="fill:#fff;fill-rule:nonzero;"/></g></g></g></g><path d="M247.181,126.625c0,-1.75 1.558,-3.208 3.483,-3.208c1.921,0 3.484,1.458 3.484,3.208c0,1.792 -1.563,3.208 -3.484,3.208c-1.925,0 -3.483,-1.416 -3.483,-3.208Z" style="fill:#fff;fill-rule:nonzero;"/><path d="M160.531,126.625c0,-2.458 2.133,-4.458 4.762,-4.458c2.63,0 4.763,2 4.763,4.458c0,2.458 -2.133,4.458 -4.763,4.458c-2.629,0 -4.762,-2 -4.762,-4.458Z" style="fill:#fff;fill-rule:nonzero;"/><path d="M141.131,84.417c0,-17.542 15.775,-31.792 35.233,-31.792c19.459,0 35.234,14.25 35.234,31.792c0,17.541 -15.775,31.791 -35.234,31.791c-19.458,0 -35.233,-14.25 -35.233,-31.791Z" style="fill:#fff;fill-rule:nonzero;"/><path d="M186.848,100.542c0,-17.542 15.774,-31.792 35.233,-31.792c19.458,0 35.233,14.25 35.233,31.792c0,17.541 -15.775,31.791 -35.233,31.791c-19.459,0 -35.233,-14.25 -35.233,-31.791Z" style="fill:#fff;fill-rule:nonzero;"/><g><path d="M206.985,80.917c-4.021,0 -6.25,2.916 -6.25,2.916c0,0 -2.229,-2.916 -6.25,-2.916c-4.217,0 -7.637,3.416 -7.637,7.666c0,5.792 6.82,11.375 8.725,13.167c2.187,2.042 5.162,4.167 5.162,4.167c0,0 2.975,-2.125 5.162,-4.167c1.905,-1.792 8.726,-7.375 8.726,-13.167c0,-4.25 -3.421,-7.666 -7.638,-7.666Z" style="fill:#7451c2;fill-opacity:0.25;fill-rule:nonzero;"/><path d="M205.606,83.667c-3.133,0 -4.871,2.291 -4.871,2.291c0,0 -1.737,-2.291 -4.871,-2.291c-3.291,0 -5.954,2.666 -5.954,5.958c0,4.542 5.317,8.917 6.8,10.292c1.704,1.583 4.025,3.25 4.025,3.25c0,0 2.317,-1.667 4.025,-3.25c1.483,-1.375 6.8,-5.75 6.8,-10.292c0,-3.292 -2.667,-5.958 -5.954,-5.958Z" style="fill:#7451c2;fill-opacity:0.44;fill-rule:nonzero;"/><path d="M203.86,87.167c-2.008,0 -3.125,1.458 -3.125,1.458c0,0 -1.117,-1.458 -3.125,-1.458c-2.108,0 -3.821,1.708 -3.821,3.833c0,2.875 3.413,5.708 4.363,6.583c1.095,1.042 2.583,2.084 2.583,2.084c0,0 1.488,-1.042 2.579,-2.084c0.954,-0.875 4.363,-3.708 4.363,-6.583c0,-2.125 -1.709,-3.833 -3.817,-3.833Z" style="fill:#7451c2;fill-rule:nonzero;"/></g></g></g></svg>