<svg id="visual" viewBox="0 0 960 540" width="960" height="540" xmlns="http://www.w3.org/2000/svg" xmlns:xlink="http://www.w3.org/1999/xlink" version="1.1"><path d="M0 375L26.7 370.7C53.3 366.3 106.7 357.7 160 356.3C213.3 355 266.7 361 320 352.2C373.3 343.3 426.7 319.7 480 317.3C533.3 315 586.7 334 640 341.5C693.3 349 746.7 345 800 349.8C853.3 354.7 906.7 368.3 933.3 375.2L960 382L960 541L933.3 541C906.7 541 853.3 541 800 541C746.7 541 693.3 541 640 541C586.7 541 533.3 541 480 541C426.7 541 373.3 541 320 541C266.7 541 213.3 541 160 541C106.7 541 53.3 541 26.7 541L0 541Z" fill="#d1bef9"></path><path d="M0 381L26.7 385.7C53.3 390.3 106.7 399.7 160 409.2C213.3 418.7 266.7 428.3 320 429.7C373.3 431 426.7 424 480 417.3C533.3 410.7 586.7 404.3 640 399.5C693.3 394.7 746.7 391.3 800 387.5C853.3 383.7 906.7 379.3 933.3 377.2L960 375L960 541L933.3 541C906.7 541 853.3 541 800 541C746.7 541 693.3 541 640 541C586.7 541 533.3 541 480 541C426.7 541 373.3 541 320 541C266.7 541 213.3 541 160 541C106.7 541 53.3 541 26.7 541L0 541Z" fill="#8974b5"></path><path d="M0 433L26.7 433C53.3 433 106.7 433 160 442.2C213.3 451.3 266.7 469.7 320 480.3C373.3 491 426.7 494 480 485.8C533.3 477.7 586.7 458.3 640 455.7C693.3 453 746.7 467 800 465C853.3 463 906.7 445 933.3 436L960 427L960 541L933.3 541C906.7 541 853.3 541 800 541C746.7 541 693.3 541 640 541C586.7 541 533.3 541 480 541C426.7 541 373.3 541 320 541C266.7 541 213.3 541 160 541C106.7 541 53.3 541 26.7 541L0 541Z" fill="#463174"></path></svg>