<?xml version="1.0" encoding="UTF-8" standalone="no"?>
<!DOCTYPE svg PUBLIC "-//W3C//DTD SVG 1.1//EN" "http://www.w3.org/Graphics/SVG/1.1/DTD/svg11.dtd">
<!-- Created with Vectornator (http://vectornator.io/) -->
<svg height="100%" stroke-miterlimit="10" style="fill-rule:nonzero;clip-rule:evenodd;stroke-linecap:round;stroke-linejoin:round;" version="1.1" viewBox="1449.1 929.766 90 77.7531" width="100%" xml:space="preserve" xmlns="http://www.w3.org/2000/svg" xmlns:vectornator="http://vectornator.io" xmlns:xlink="http://www.w3.org/1999/xlink">
<defs/>
<clipPath id="ArtboardFrame">
<rect height="77.7531" width="90" x="1449.1" y="929.766"/>
</clipPath>
<g clip-path="url(#ArtboardFrame)" id="Layer" vectornator:layerName="Layer">
<g opacity="1" vectornator:layerName="Group 20">
<path d="M1450.76 964.928C1441.67 934.78 1471.85 929.766 1495.11 929.766C1518.37 929.766 1549.98 951.594 1535.39 968.942C1524.45 981.952 1515.31 1007.78 1492.05 1007.52C1468.17 1007.24 1457.27 986.52 1450.76 964.928Z" fill="#c0a3ff" fill-rule="nonzero" opacity="1" stroke="none" vectornator:layerName="Oval 16"/>
<g opacity="0.304068" vectornator:layerName="Heart 1">
<path d="M1493.11 962.225L1492.15 961.588C1490.82 960.712 1479.16 952.808 1479.16 945.361C1479.16 940.626 1483.07 936.775 1487.88 936.775C1489.78 936.775 1491.61 937.398 1493.12 938.523C1494.62 937.398 1496.45 936.775 1498.35 936.775C1503.16 936.775 1507.07 940.626 1507.07 945.361C1507.07 952.935 1495.41 960.733 1494.08 961.596L1493.11 962.225Z" fill="#593f92" fill-rule="nonzero" opacity="1" stroke="none" vectornator:layerName="path"/>
</g>
<g opacity="0.29845" vectornator:layerName="Heart 2">
<path d="M1493.11 962.225L1492.32 961.704C1491.23 960.987 1481.7 954.52 1481.7 948.427C1481.7 944.553 1484.9 941.402 1488.83 941.402C1490.39 941.402 1491.89 941.912 1493.12 942.832C1494.35 941.912 1495.85 941.402 1497.4 941.402C1501.33 941.402 1504.53 944.553 1504.53 948.427C1504.53 954.624 1494.99 961.004 1493.9 961.711L1493.11 962.225Z" fill="#593f92" fill-rule="nonzero" opacity="1" stroke="none" vectornator:layerName="path"/>
</g>
<g opacity="0.299455" vectornator:layerName="Heart">
<path d="M1493.11 962.225L1492.51 961.83C1491.69 961.288 1484.47 956.39 1484.47 951.775C1484.47 948.841 1486.89 946.455 1489.87 946.455C1491.05 946.455 1492.18 946.841 1493.12 947.538C1494.05 946.841 1495.18 946.455 1496.36 946.455C1499.34 946.455 1501.76 948.841 1501.76 951.775C1501.76 956.468 1494.53 961.3 1493.71 961.836L1493.11 962.225Z" fill="#593f92" fill-rule="nonzero" opacity="1" stroke="none" vectornator:layerName="path"/>
</g>
<g opacity="0.300388" vectornator:layerName="Heart 4">
<path d="M1493.11 962.261L1492.72 961.999C1492.17 961.64 1487.39 958.397 1487.39 955.341C1487.39 953.398 1489 951.818 1490.97 951.818C1491.75 951.818 1492.5 952.074 1493.12 952.535C1493.73 952.074 1494.48 951.818 1495.26 951.818C1497.24 951.818 1498.84 953.398 1498.84 955.341C1498.84 958.449 1494.06 961.648 1493.51 962.003L1493.11 962.261Z" fill="#593f92" fill-rule="nonzero" opacity="1" stroke="none" vectornator:layerName="path"/>
</g>
<g opacity="0.498062" vectornator:layerName="Heart 3">
<path d="M1493.11 962.225L1492.89 962.074C1492.57 961.867 1489.81 959.994 1489.81 958.229C1489.81 957.108 1490.74 956.195 1491.88 956.195C1492.33 956.195 1492.76 956.343 1493.12 956.609C1493.47 956.343 1493.91 956.195 1494.36 956.195C1495.49 956.195 1496.42 957.108 1496.42 958.229C1496.42 960.024 1493.66 961.871 1493.34 962.076L1493.11 962.225Z" fill="#593f92" fill-rule="nonzero" opacity="1" stroke="none" vectornator:layerName="path"/>
</g>
<path d="M1465.82 982.031C1465.82 975.705 1478.04 970.576 1493.12 970.576C1508.19 970.576 1520.41 975.705 1520.41 982.031C1520.41 988.357 1508.19 993.486 1493.12 993.486C1478.04 993.486 1465.82 988.357 1465.82 982.031Z" fill="#463174" fill-rule="nonzero" opacity="1" stroke="none" vectornator:layerName="Oval 1"/>
<g opacity="1" vectornator:layerName="Group 10">
<path d="M1492.72 973.265C1492.72 967.188 1497.68 962.261 1503.8 962.261C1509.92 962.261 1514.89 967.188 1514.89 973.265C1514.89 979.343 1514.89 983.704 1503.8 984.27C1492.73 984.835 1492.72 979.343 1492.72 973.265Z" fill="#ffffff" fill-rule="nonzero" opacity="1" stroke="#463174" stroke-linecap="butt" stroke-linejoin="round" stroke-width="1.18" vectornator:layerName="Oval 2"/>
<g opacity="1" vectornator:layerName="Group 4">
<g opacity="1" vectornator:layerName="Group 2">
<path d="M1498.18 973.674C1498.18 972.893 1498.78 972.26 1499.51 972.26C1500.24 972.26 1500.84 972.893 1500.84 973.674C1500.84 974.455 1500.24 975.089 1499.51 975.089C1498.78 975.089 1498.18 974.455 1498.18 973.674Z" fill="#463174" fill-rule="nonzero" opacity="1" stroke="none" vectornator:layerName="Oval 4"/>
<path d="M1498.45 974.212C1498.45 973.93 1498.71 973.702 1499.02 973.702C1499.34 973.702 1499.6 973.93 1499.6 974.212C1499.6 974.494 1499.34 974.722 1499.02 974.722C1498.71 974.722 1498.45 974.494 1498.45 974.212Z" fill="#ffffff" fill-rule="nonzero" opacity="1" stroke="none" vectornator:layerName="Oval 7"/>
</g>
<g opacity="1" vectornator:layerName="Group 1">
<path d="M1507.28 973.674C1507.28 972.893 1507.87 972.26 1508.6 972.26C1509.34 972.26 1509.93 972.893 1509.93 973.674C1509.93 974.455 1509.34 975.089 1508.6 975.089C1507.87 975.089 1507.28 974.455 1507.28 973.674Z" fill="#463174" fill-rule="nonzero" opacity="1" stroke="none" vectornator:layerName="Oval 4"/>
<path d="M1507.52 974.196C1507.52 973.915 1507.78 973.687 1508.09 973.687C1508.41 973.687 1508.67 973.915 1508.67 974.196C1508.67 974.478 1508.41 974.706 1508.09 974.706C1507.78 974.706 1507.52 974.478 1507.52 974.196Z" fill="#ffffff" fill-rule="nonzero" opacity="1" stroke="none" vectornator:layerName="Oval 7"/>
</g>
</g>
</g>
<g opacity="1" vectornator:layerName="Group 12">
<path d="M1471.93 973.229C1471.93 967.152 1476.89 962.225 1483.02 962.225C1489.14 962.225 1494.1 967.152 1494.1 973.229C1494.1 979.307 1494.1 983.668 1483.02 984.234C1471.94 984.799 1471.93 979.307 1471.93 973.229Z" fill="#ffffff" fill-rule="nonzero" opacity="1" stroke="#463174" stroke-linecap="butt" stroke-linejoin="round" stroke-width="1.18" vectornator:layerName="Oval 2"/>
<g opacity="1" vectornator:layerName="Group 4">
<g opacity="1" vectornator:layerName="Group 2">
<path d="M1477.39 973.639C1477.39 972.857 1477.99 972.224 1478.72 972.224C1479.46 972.224 1480.05 972.857 1480.05 973.639C1480.05 974.42 1479.46 975.053 1478.72 975.053C1477.99 975.053 1477.39 974.42 1477.39 973.639Z" fill="#463174" fill-rule="nonzero" opacity="1" stroke="none" vectornator:layerName="Oval 4"/>
<path d="M1478.42 974.389C1478.42 974.107 1478.67 973.879 1478.99 973.879C1479.31 973.879 1479.56 974.107 1479.56 974.389C1479.56 974.671 1479.31 974.899 1478.99 974.899C1478.67 974.899 1478.42 974.671 1478.42 974.389Z" fill="#ffffff" fill-rule="nonzero" opacity="1" stroke="none" vectornator:layerName="Oval 7"/>
</g>
<g opacity="1" vectornator:layerName="Group 1">
<path d="M1486.49 973.639C1486.49 972.857 1487.08 972.224 1487.82 972.224C1488.55 972.224 1489.15 972.857 1489.15 973.639C1489.15 974.42 1488.55 975.053 1487.82 975.053C1487.08 975.053 1486.49 974.42 1486.49 973.639Z" fill="#463174" fill-rule="nonzero" opacity="1" stroke="none" vectornator:layerName="Oval 4"/>
<path d="M1487.52 974.389C1487.52 974.108 1487.78 973.879 1488.09 973.879C1488.41 973.879 1488.66 974.108 1488.66 974.389C1488.66 974.671 1488.41 974.899 1488.09 974.899C1487.78 974.899 1487.52 974.671 1487.52 974.389Z" fill="#ffffff" fill-rule="nonzero" opacity="1" stroke="none" vectornator:layerName="Oval 7"/>
</g>
</g>
</g>
</g>
</g>
</svg>
