<?xml version="1.0" encoding="UTF-8" standalone="no"?>
<!DOCTYPE svg PUBLIC "-//W3C//DTD SVG 1.1//EN" "http://www.w3.org/Graphics/SVG/1.1/DTD/svg11.dtd">
<!-- Created with Vectornator (http://vectornator.io/) -->
<svg height="100%" stroke-miterlimit="10" style="fill-rule:nonzero;clip-rule:evenodd;stroke-linecap:round;stroke-linejoin:round;" version="1.1" viewBox="1006.41 795.909 124.059 142.849" width="100%" xml:space="preserve" xmlns="http://www.w3.org/2000/svg" xmlns:vectornator="http://vectornator.io" xmlns:xlink="http://www.w3.org/1999/xlink">
<defs/>
<clipPath id="ArtboardFrame">
<rect height="142.849" width="124.059" x="1006.41" y="795.909"/>
</clipPath>
<g clip-path="url(#ArtboardFrame)" id="Layer" vectornator:layerName="Layer">
<g opacity="1" vectornator:layerName="Group 26">
<path d="M1006.41 856.175C1006.41 822.891 1033.39 795.909 1066.68 795.909C1099.96 795.909 1126.94 822.891 1126.94 856.175C1126.94 889.458 1099.96 916.44 1066.68 916.44C1033.39 916.44 1006.41 889.458 1006.41 856.175Z" fill="#463174" fill-rule="nonzero" opacity="1" stroke="none" vectornator:layerName="Oval 2"/>
<path d="M1038.82 830.772C1038.82 825.411 1043.17 821.066 1048.53 821.066L1084.82 821.066C1090.18 821.066 1094.53 825.411 1094.53 830.772L1094.53 881.577C1094.53 886.938 1090.18 891.283 1084.82 891.283L1048.53 891.283C1043.17 891.283 1038.82 886.938 1038.82 881.577L1038.82 830.772Z" fill="#ffffff" fill-rule="nonzero" opacity="1" stroke="none" vectornator:layerName="Rectangle 3"/>
<path d="M1050.79 830.821C1050.79 828.002 1053.08 825.716 1055.9 825.716L1077.45 825.716C1080.27 825.716 1082.56 828.002 1082.56 830.821L1082.56 832.557C1082.56 835.376 1080.27 837.661 1077.45 837.661L1055.9 837.661C1053.08 837.661 1050.79 835.376 1050.79 832.557L1050.79 830.821Z" fill="#593f92" fill-rule="nonzero" opacity="1" stroke="none" vectornator:layerName="Rectangle 2"/>
<path d="M1060.89 826.928C1060.89 824.131 1063.49 821.865 1066.69 821.865C1069.9 821.865 1072.49 824.131 1072.49 826.928C1072.49 829.724 1069.9 831.991 1066.69 831.991C1063.49 831.991 1060.89 829.724 1060.89 826.928Z" fill="#c0a3ff" fill-rule="nonzero" opacity="1" stroke="none" vectornator:layerName="Oval 1"/>
<path d="M1057.78 849.037C1057.78 848.265 1058.44 847.639 1059.26 847.639L1082.46 847.639C1083.27 847.639 1083.93 848.265 1083.93 849.037L1083.93 849.037C1083.93 849.81 1083.27 850.436 1082.46 850.436L1059.26 850.436C1058.44 850.436 1057.78 849.81 1057.78 849.037L1057.78 849.037Z" fill="#593f92" fill-rule="nonzero" opacity="1" stroke="none" vectornator:layerName="Rectangle 5"/>
<path d="M1057.78 856.94C1057.78 856.168 1058.44 855.542 1059.26 855.542L1082.46 855.542C1083.27 855.542 1083.93 856.168 1083.93 856.94L1083.93 856.94C1083.93 857.713 1083.27 858.339 1082.46 858.339L1059.26 858.339C1058.44 858.339 1057.78 857.713 1057.78 856.94L1057.78 856.94Z" fill="#593f92" fill-rule="nonzero" opacity="1" stroke="none" vectornator:layerName="Rectangle 6"/>
<path d="M1057.56 864.351C1057.56 863.579 1058.22 862.953 1059.04 862.953L1082.24 862.953C1083.05 862.953 1083.72 863.579 1083.72 864.351L1083.72 864.351C1083.72 865.123 1083.05 865.749 1082.24 865.749L1059.04 865.749C1058.22 865.749 1057.56 865.123 1057.56 864.351L1057.56 864.351Z" fill="#593f92" fill-rule="nonzero" opacity="1" stroke="none" vectornator:layerName="Rectangle 7"/>
<path d="M1057.78 871.27C1057.78 870.498 1058.44 869.872 1059.26 869.872L1082.46 869.872C1083.27 869.872 1083.93 870.498 1083.93 871.27L1083.93 871.27C1083.93 872.042 1083.27 872.668 1082.46 872.668L1059.26 872.668C1058.44 872.668 1057.78 872.042 1057.78 871.27L1057.78 871.27Z" fill="#593f92" fill-rule="nonzero" opacity="1" stroke="none" vectornator:layerName="Rectangle 8"/>
<path d="M1057.78 879.173C1057.78 878.4 1058.44 877.774 1059.26 877.774L1082.46 877.774C1083.27 877.774 1083.93 878.4 1083.93 879.173L1083.93 879.173C1083.93 879.945 1083.27 880.571 1082.46 880.571L1059.26 880.571C1058.44 880.571 1057.78 879.945 1057.78 879.173L1057.78 879.173Z" fill="#593f92" fill-rule="nonzero" opacity="1" stroke="none" vectornator:layerName="Rectangle 4"/>
<path d="M1049.42 847.639L1053.32 847.639L1053.32 851.42L1049.42 851.42L1049.42 847.639Z" fill="none" opacity="1" stroke="#463174" stroke-linecap="butt" stroke-linejoin="round" stroke-width="0.749812" vectornator:layerName="Rectangle 10"/>
<path d="M1049.42 855.05L1053.32 855.05L1053.32 858.83L1049.42 858.83L1049.42 855.05Z" fill="none" opacity="1" stroke="#463174" stroke-linecap="butt" stroke-linejoin="round" stroke-width="0.749812" vectornator:layerName="Rectangle 11"/>
<path d="M1049.42 862.461L1053.32 862.461L1053.32 866.241L1049.42 866.241L1049.42 862.461Z" fill="none" opacity="1" stroke="#463174" stroke-linecap="butt" stroke-linejoin="round" stroke-width="0.749812" vectornator:layerName="Rectangle 12"/>
<path d="M1049.42 869.872L1053.32 869.872L1053.32 873.652L1049.42 873.652L1049.42 869.872Z" fill="none" opacity="1" stroke="#463174" stroke-linecap="butt" stroke-linejoin="round" stroke-width="0.749812" vectornator:layerName="Rectangle 13"/>
<path d="M1049.42 877.282L1053.32 877.282L1053.32 881.063L1049.42 881.063L1049.42 877.282Z" fill="none" opacity="1" stroke="#463174" stroke-linecap="butt" stroke-linejoin="round" stroke-width="0.749812" vectornator:layerName="Rectangle 9"/>
<path d="M1118.29 869.474L1119.08 869.474C1119.27 869.474 1119.43 869.63 1119.43 869.821L1119.43 870.617C1119.43 870.809 1119.27 870.964 1119.08 870.964L1118.29 870.964C1118.09 870.964 1117.94 870.808 1117.94 870.617L1117.94 869.821C1117.94 869.729 1117.97 869.64 1118.04 869.575C1118.1 869.51 1118.19 869.473 1118.29 869.474ZM1121.04 869.474L1121.84 869.474C1122.03 869.474 1122.19 869.63 1122.19 869.821L1122.19 870.617C1122.19 870.809 1122.03 870.964 1121.84 870.964L1121.04 870.964C1120.85 870.963 1120.7 870.808 1120.7 870.617L1120.7 869.821C1120.7 869.629 1120.85 869.474 1121.04 869.474ZM1123.81 869.474L1124.6 869.474C1124.79 869.474 1124.95 869.63 1124.95 869.821L1124.95 870.617C1124.95 870.809 1124.79 870.964 1124.6 870.964L1123.81 870.964C1123.61 870.964 1123.46 870.808 1123.46 870.617L1123.46 869.821C1123.46 869.729 1123.49 869.64 1123.56 869.575C1123.62 869.51 1123.71 869.473 1123.81 869.474ZM1126.56 869.474L1127.36 869.474C1127.55 869.474 1127.71 869.63 1127.71 869.821L1127.71 870.617C1127.71 870.809 1127.55 870.964 1127.36 870.964L1126.56 870.964C1126.37 870.964 1126.22 870.809 1126.22 870.617L1126.22 869.821C1126.22 869.629 1126.37 869.475 1126.56 869.474ZM1129.32 869.474L1130.12 869.474C1130.31 869.474 1130.47 869.63 1130.47 869.821L1130.47 870.617C1130.47 870.809 1130.31 870.964 1130.12 870.964L1129.32 870.964C1129.13 870.964 1128.98 870.808 1128.98 870.617L1128.98 869.821C1128.98 869.63 1129.13 869.474 1129.32 869.474ZM1121.15 872.482L1121.94 872.482C1122.13 872.483 1122.29 872.638 1122.29 872.83L1122.29 873.627C1122.29 873.818 1122.13 873.975 1121.94 873.975L1121.15 873.975C1120.95 873.975 1120.8 873.819 1120.8 873.627L1120.8 872.831C1120.8 872.739 1120.83 872.65 1120.9 872.585C1120.96 872.519 1121.05 872.482 1121.15 872.482ZM1123.91 872.482L1124.7 872.482C1124.89 872.483 1125.05 872.638 1125.05 872.83L1125.05 873.627C1125.05 873.818 1124.89 873.975 1124.7 873.975L1123.91 873.975C1123.71 873.974 1123.56 873.819 1123.56 873.627L1123.56 872.831C1123.56 872.739 1123.59 872.65 1123.66 872.585C1123.72 872.519 1123.81 872.482 1123.91 872.482ZM1126.66 872.482L1127.46 872.482C1127.65 872.482 1127.81 872.639 1127.81 872.83L1127.81 873.627C1127.81 873.819 1127.65 873.975 1127.46 873.975L1126.66 873.975C1126.47 873.974 1126.32 873.819 1126.32 873.627L1126.32 872.831C1126.32 872.639 1126.47 872.482 1126.66 872.482ZM1123.81 866.241L1124.6 866.241C1124.79 866.241 1124.95 866.398 1124.95 866.589L1124.95 867.384C1124.95 867.577 1124.79 867.732 1124.6 867.732L1123.81 867.732C1123.61 867.731 1123.46 867.576 1123.46 867.384L1123.46 866.589C1123.46 866.496 1123.49 866.408 1123.56 866.343C1123.62 866.278 1123.71 866.241 1123.81 866.241ZM1126.56 866.241L1127.36 866.241C1127.55 866.241 1127.71 866.398 1127.71 866.589L1127.71 867.384C1127.71 867.577 1127.55 867.732 1127.36 867.732L1126.56 867.732C1126.37 867.732 1126.22 867.577 1126.22 867.384L1126.22 866.589C1126.22 866.397 1126.37 866.243 1126.56 866.241Z" fill="#ffffff" fill-rule="evenodd" opacity="1" stroke="none" vectornator:layerName="path 22"/>
<path d="M1025.43 822.679L1024.52 822.679C1024.3 822.679 1024.12 822.5 1024.12 822.281L1024.12 821.371C1024.12 821.151 1024.3 820.974 1024.52 820.974L1025.43 820.974C1025.65 820.974 1025.83 821.152 1025.83 821.371L1025.83 822.281C1025.83 822.387 1025.79 822.488 1025.71 822.563C1025.64 822.637 1025.54 822.679 1025.43 822.679ZM1022.27 822.679L1021.36 822.679C1021.14 822.678 1020.97 822.501 1020.97 822.281L1020.97 821.371C1020.97 821.151 1021.15 820.974 1021.36 820.974L1022.27 820.974C1022.49 820.974 1022.67 821.152 1022.67 821.371L1022.67 822.281C1022.67 822.501 1022.49 822.678 1022.27 822.679ZM1019.12 822.679L1018.2 822.679C1017.99 822.678 1017.81 822.501 1017.81 822.281L1017.81 821.371C1017.81 821.151 1017.99 820.974 1018.2 820.974L1019.12 820.974C1019.33 820.974 1019.51 821.152 1019.51 821.371L1019.51 822.281C1019.51 822.387 1019.47 822.488 1019.4 822.563C1019.32 822.637 1019.22 822.679 1019.12 822.679ZM1015.96 822.679L1015.05 822.679C1014.83 822.678 1014.65 822.501 1014.65 822.281L1014.65 821.371C1014.65 821.151 1014.83 820.974 1015.05 820.974L1015.96 820.974C1016.18 820.974 1016.36 821.151 1016.36 821.371L1016.36 822.281C1016.36 822.501 1016.18 822.678 1015.96 822.679ZM1012.8 822.679L1011.89 822.679C1011.67 822.679 1011.49 822.5 1011.49 822.281L1011.49 821.371C1011.49 821.151 1011.67 820.974 1011.89 820.974L1012.8 820.974C1013.02 820.974 1013.2 821.152 1013.2 821.371L1013.2 822.281C1013.2 822.501 1013.02 822.678 1012.8 822.679ZM1022.16 819.237L1021.25 819.237C1021.03 819.236 1020.85 819.058 1020.85 818.839L1020.85 817.926C1020.85 817.708 1021.03 817.529 1021.25 817.529L1022.16 817.529C1022.38 817.529 1022.56 817.707 1022.56 817.926L1022.56 818.837C1022.56 818.943 1022.52 819.045 1022.44 819.12C1022.37 819.195 1022.26 819.237 1022.16 819.237ZM1019 819.237L1018.09 819.237C1017.87 819.236 1017.69 819.058 1017.69 818.839L1017.69 817.926C1017.69 817.708 1017.87 817.529 1018.09 817.529L1019 817.529C1019.22 817.53 1019.4 817.707 1019.4 817.926L1019.4 818.837C1019.4 818.943 1019.36 819.045 1019.28 819.12C1019.21 819.195 1019.11 819.237 1019 819.237ZM1015.84 819.237L1014.93 819.237C1014.71 819.237 1014.53 819.057 1014.53 818.839L1014.53 817.926C1014.54 817.707 1014.71 817.529 1014.93 817.529L1015.84 817.529C1016.06 817.53 1016.24 817.707 1016.24 817.926L1016.24 818.837C1016.24 819.057 1016.06 819.237 1015.84 819.237ZM1019.12 826.377L1018.2 826.377C1017.99 826.377 1017.81 826.198 1017.81 825.98L1017.81 825.069C1017.81 824.849 1017.99 824.672 1018.2 824.672L1019.12 824.672C1019.33 824.673 1019.51 824.85 1019.51 825.069L1019.51 825.98C1019.51 826.085 1019.47 826.187 1019.4 826.261C1019.32 826.336 1019.22 826.378 1019.12 826.377ZM1015.96 826.377L1015.05 826.377C1014.83 826.377 1014.65 826.198 1014.65 825.98L1014.65 825.069C1014.65 824.849 1014.83 824.672 1015.05 824.672L1015.96 824.672C1016.18 824.672 1016.36 824.85 1016.36 825.069L1016.36 825.98C1016.36 826.199 1016.18 826.376 1015.96 826.377Z" fill="#ffffff" fill-rule="evenodd" opacity="1" stroke="none" vectornator:layerName="path 20"/>
<path d="M1100.96 858.366C1100.96 859.154 1101.61 859.792 1102.4 859.792C1103.2 859.792 1103.84 859.154 1103.84 858.366C1103.84 857.579 1103.2 856.94 1102.4 856.94C1101.61 856.94 1100.96 857.579 1100.96 858.366Z" fill="#ffffff" fill-rule="nonzero" opacity="1" stroke="none" vectornator:layerName="ellipse 5"/>
<path d="M1072.76 803.249C1072.76 804.036 1073.4 804.675 1074.2 804.675C1074.99 804.675 1075.64 804.036 1075.64 803.249C1075.64 802.461 1074.99 801.823 1074.2 801.823C1073.4 801.823 1072.76 802.461 1072.76 803.249Z" fill="#ffffff" fill-rule="nonzero" opacity="1" stroke="none" vectornator:layerName="ellipse 3"/>
<path d="M1024.39 839.087C1024.39 839.875 1025.03 840.513 1025.83 840.513C1026.62 840.513 1027.27 839.875 1027.27 839.087C1027.27 838.3 1026.62 837.661 1025.83 837.661C1025.03 837.661 1024.39 838.3 1024.39 839.087Z" fill="#ffffff" fill-rule="nonzero" opacity="1" stroke="none" vectornator:layerName="ellipse 4"/>
<path d="M1021.46 898.72C1021.46 899.507 1022.11 900.146 1022.9 900.146C1023.7 900.146 1024.34 899.507 1024.34 898.72C1024.34 897.932 1023.7 897.294 1022.9 897.294C1022.11 897.294 1021.46 897.932 1021.46 898.72Z" fill="#ffffff" fill-rule="nonzero" opacity="1" stroke="none" vectornator:layerName="ellipse 6"/>
<path d="M1111.21 828.21C1112.48 827.518 1112.79 825.632 1112.79 825.632C1112.79 825.632 1111.04 824.869 1109.77 825.562C1108.49 826.254 1108.18 828.139 1108.18 828.139C1108.18 828.139 1109.93 828.902 1111.21 828.21Z" fill="#ffffff" fill-rule="nonzero" opacity="1" stroke="none" vectornator:layerName="path 21"/>
<path d="M1060.71 899.717C1061.67 898.631 1061.32 896.752 1061.32 896.752C1061.32 896.752 1059.41 896.636 1058.45 897.723C1057.49 898.81 1057.84 900.688 1057.84 900.688C1057.84 900.688 1059.75 900.804 1060.71 899.717Z" fill="#ffffff" fill-rule="nonzero" opacity="1" stroke="none" vectornator:layerName="path 18"/>
<path d="M1054.19 813.595C1055.24 814.596 1057.13 814.318 1057.13 814.318C1057.13 814.318 1057.32 812.417 1056.28 811.417C1055.23 810.416 1053.34 810.693 1053.34 810.693C1053.34 810.693 1053.15 812.594 1054.19 813.595Z" fill="#ffffff" fill-rule="nonzero" opacity="1" stroke="none" vectornator:layerName="path 9"/>
<path d="M1026.17 871.735C1028.65 872.786 1031.76 871.059 1031.76 871.059C1031.76 871.059 1030.84 867.63 1028.36 866.581C1025.88 865.53 1022.78 867.255 1022.78 867.255C1022.78 867.255 1023.7 870.684 1026.17 871.735Z" fill="#ffffff" fill-rule="nonzero" opacity="1" stroke="none" vectornator:layerName="path 23"/>
<g opacity="1" vectornator:layerName="Ladder">
<path d="M1085.04 881.628C1084.86 880.889 1084.12 880.427 1083.38 880.612C1082.64 880.797 1082.18 881.536 1082.36 882.275L1096.22 937.696C1096.36 938.343 1096.96 938.759 1097.56 938.759C1097.65 938.759 1097.79 938.759 1097.88 938.713C1098.62 938.528 1099.08 937.789 1098.9 937.05L1085.04 881.628ZM1112.75 937.05L1098.9 881.628C1098.71 880.889 1097.97 880.427 1097.23 880.612C1096.5 880.797 1096.03 881.536 1096.22 882.275L1096.96 885.184L1089.24 885.184C1088.46 885.184 1087.86 885.785 1087.86 886.57C1087.86 887.355 1088.46 887.955 1089.24 887.955L1097.65 887.955L1099.27 894.421L1091.55 894.421C1090.77 894.421 1090.17 895.022 1090.17 895.807C1090.17 896.592 1090.77 897.192 1091.55 897.192L1099.96 897.192L1101.58 903.658L1093.86 903.658C1093.08 903.658 1092.48 904.259 1092.48 905.044C1092.48 905.829 1093.08 906.429 1093.86 906.429L1102.27 906.429L1103.88 912.895L1096.17 912.895C1095.39 912.895 1094.79 913.496 1094.79 914.281C1094.79 915.066 1095.39 915.666 1096.17 915.666L1104.58 915.666L1106.19 922.132L1098.48 922.132C1097.7 922.132 1097.1 922.733 1097.1 923.518C1097.1 924.303 1097.7 924.903 1098.48 924.903L1106.89 924.903L1108.5 931.369L1100.79 931.369C1100.01 931.369 1099.4 931.97 1099.4 932.755C1099.4 933.54 1100.01 934.14 1100.79 934.14L1109.2 934.14L1110.07 937.696C1110.21 938.343 1110.81 938.759 1111.41 938.759C1111.51 938.759 1111.64 938.759 1111.74 938.713C1112.48 938.528 1112.94 937.789 1112.75 937.05Z" fill="#9f89cf" fill-rule="nonzero" opacity="1" stroke="none" vectornator:layerName="path"/>
</g>
<g opacity="1" vectornator:layerName="Group 14">
<g opacity="1" vectornator:layerName="Group 8">
<path d="M1086.4 884.423C1087.2 879.764 1091.55 876.62 1096.13 877.402C1100.71 878.183 1103.78 882.594 1102.98 887.253C1102.18 891.912 1101.61 895.255 1093.25 894.274C1084.9 893.294 1085.61 889.082 1086.4 884.423Z" fill="#ffffff" fill-rule="nonzero" opacity="1" stroke="#463174" stroke-linecap="butt" stroke-linejoin="round" stroke-width="0.749812" vectornator:layerName="Oval 2"/>
</g>
<path d="M1086.47 884.9C1086.47 884.9 1088.03 885.036 1088.08 885.546C1088.16 886.269 1086.76 886.46 1086.24 886.46C1086.24 886.46 1086.29 886.083 1086.35 885.691C1086.41 885.299 1086.47 884.9 1086.47 884.9Z" fill="#463174" fill-rule="nonzero" opacity="1" stroke="none" vectornator:layerName="Oval 2"/>
<g opacity="1" vectornator:layerName="Group 10">
<path d="M1089.06 881.885C1089.16 881.226 1089.77 880.772 1090.42 880.869C1091.08 880.967 1091.53 881.58 1091.43 882.238C1091.34 882.897 1090.72 883.351 1090.07 883.253C1089.41 883.156 1088.96 882.543 1089.06 881.885Z" fill="#463174" fill-rule="nonzero" opacity="1" stroke="none" vectornator:layerName="Oval 3"/>
<path d="M1089.42 881.456C1089.46 881.167 1089.73 880.968 1090.02 881.011C1090.31 881.054 1090.5 881.322 1090.46 881.611C1090.42 881.899 1090.15 882.098 1089.86 882.056C1089.58 882.013 1089.38 881.744 1089.42 881.456Z" fill="#ffffff" fill-rule="nonzero" opacity="1" stroke="none" vectornator:layerName="Oval 2"/>
</g>
<path d="M1086.24 886.46C1086.24 886.46 1086.67 885.649 1087.16 885.431C1088.08 885.025 1088.08 885.588 1088.08 885.588C1088.08 885.588 1088.15 886.036 1087.31 886.302C1086.83 886.455 1086.24 886.46 1086.24 886.46Z" fill="#593f92" fill-rule="nonzero" opacity="1" stroke="none" vectornator:layerName="Oval 3"/>
</g>
</g>
</g>
</svg>
