<?xml version="1.0" encoding="UTF-8" standalone="no"?>
<!DOCTYPE svg PUBLIC "-//W3C//DTD SVG 1.1//EN" "http://www.w3.org/Graphics/SVG/1.1/DTD/svg11.dtd">
<!-- Created with Vectornator (http://vectornator.io/) -->
<svg height="100%" stroke-miterlimit="10" style="fill-rule:nonzero;clip-rule:evenodd;stroke-linecap:round;stroke-linejoin:round;" version="1.1" viewBox="1269.35 853.312 90.2232 82.2674" width="100%" xml:space="preserve" xmlns="http://www.w3.org/2000/svg" xmlns:vectornator="http://vectornator.io" xmlns:xlink="http://www.w3.org/1999/xlink">
<defs/>
<clipPath id="ArtboardFrame">
<rect height="82.2674" width="90.2232" x="1269.35" y="853.312"/>
</clipPath>
<g clip-path="url(#ArtboardFrame)" id="Layer" vectornator:layerName="Layer">
<g opacity="1" vectornator:layerName="Group 25">
<g opacity="1" vectornator:layerName="Group 17">
<path d="M1271.02 889.117C1261.9 858.418 1292.17 853.312 1315.48 853.312C1338.8 853.312 1370.49 875.539 1355.86 893.205C1344.89 906.453 1337.3 935.848 1313.98 935.578C1290.04 935.301 1277.54 911.104 1271.02 889.117Z" fill="#c0a3ff" fill-rule="nonzero" opacity="1" stroke="none" vectornator:layerName="Oval 2"/>
<path d="M1286.73 904.829C1286.73 902.04 1299.15 899.78 1314.47 899.78C1329.78 899.78 1342.2 902.04 1342.2 904.829C1342.2 907.617 1329.78 909.877 1314.47 909.877C1299.15 909.877 1286.73 907.617 1286.73 904.829Z" fill="#463174" fill-rule="nonzero" opacity="1" stroke="none" vectornator:layerName="Oval 1"/>
<g opacity="1" vectornator:layerName="Group 10">
<g opacity="1" vectornator:layerName="Group 11">
<g opacity="1" vectornator:layerName="Bench">
<path d="M1295.59 904.829L1294.17 904.829C1293.64 904.829 1293.1 904.441 1293.1 904.054L1293.1 897.084L1296.66 897.084L1296.66 904.054C1296.66 904.441 1296.13 904.829 1295.59 904.829ZM1334.76 904.829L1333.34 904.829C1332.8 904.829 1332.27 904.441 1332.27 904.054L1332.27 897.084L1335.83 897.084L1335.83 904.054C1335.83 904.441 1335.3 904.829 1334.76 904.829ZM1329.42 902.247L1328 902.247C1327.46 902.247 1326.93 901.86 1326.93 901.473L1326.93 895.794L1330.49 895.794L1330.49 901.473C1330.49 901.86 1329.95 902.247 1329.42 902.247ZM1300.93 902.247L1299.51 902.247C1298.98 902.247 1298.44 901.86 1298.44 901.473L1298.44 895.794L1302 895.794L1302 901.473C1302 901.86 1301.47 902.247 1300.93 902.247ZM1334.58 890.631L1294.35 890.631C1293.64 890.631 1293.1 890.244 1293.1 889.727L1293.1 888.953C1293.1 888.437 1293.64 888.05 1294.35 888.05L1334.58 888.05C1335.3 888.05 1335.83 888.437 1335.83 888.953L1335.83 889.727C1335.83 890.244 1335.3 890.631 1334.58 890.631Z" fill="#7451c2" fill-rule="nonzero" opacity="1" stroke="none" vectornator:layerName="path"/>
<path d="M1336.36 897.084L1292.57 897.084C1291.86 897.084 1291.32 896.697 1291.32 896.181L1291.32 894.116C1291.32 893.6 1291.86 893.212 1292.57 893.212L1336.36 893.212C1337.08 893.212 1337.61 893.6 1337.61 894.116L1337.61 896.181C1337.61 896.697 1337.08 897.084 1336.36 897.084ZM1334.58 886.759L1294.35 886.759C1293.64 886.759 1293.1 886.372 1293.1 885.855L1293.1 885.081C1293.1 884.565 1293.64 884.177 1294.35 884.177L1334.58 884.177C1335.3 884.177 1335.83 884.565 1335.83 885.081L1335.83 885.855C1335.83 886.372 1335.3 886.759 1334.58 886.759ZM1334.58 882.887L1294.35 882.887C1293.64 882.887 1293.1 882.5 1293.1 881.983L1293.1 881.209C1293.1 880.693 1293.64 880.305 1294.35 880.305L1334.58 880.305C1335.3 880.305 1335.83 880.693 1335.83 881.209L1335.83 881.983C1335.83 882.5 1335.3 882.887 1334.58 882.887Z" fill="#7451c2" fill-rule="nonzero" opacity="1" stroke="none" vectornator:layerName="path"/>
<path d="M1328.71 893.526L1328.71 880.03C1328.71 879.45 1329.24 879.015 1329.95 879.015L1331.02 879.015C1331.74 879.015 1332.27 879.45 1332.27 880.03L1332.27 893.526L1328.71 893.526ZM1296.66 893.526L1296.66 880.03C1296.66 879.45 1297.2 879.015 1297.91 879.015L1298.98 879.015C1299.69 879.015 1300.22 879.45 1300.22 880.03L1300.22 893.526L1296.66 893.526Z" fill="#7451c2" fill-rule="nonzero" opacity="1" stroke="none" vectornator:layerName="path"/>
</g>
</g>
</g>
</g>
<g opacity="1" vectornator:layerName="Group 19">
<g opacity="1" vectornator:layerName="Group 10">
<path d="M1297.85 886.847C1297.85 882.666 1301.26 879.276 1305.47 879.276C1309.68 879.276 1313.1 882.666 1313.1 886.847C1313.1 891.029 1313.1 894.029 1305.47 894.418C1297.86 894.807 1297.85 891.029 1297.85 886.847Z" fill="#ffffff" fill-rule="nonzero" opacity="1" stroke="#463174" stroke-linecap="butt" stroke-linejoin="round" stroke-width="1.18" vectornator:layerName="Oval 2"/>
<g opacity="1" vectornator:layerName="Group 4">
<g opacity="1" vectornator:layerName="Group 2">
<path d="M1301.6 887.129C1301.6 886.592 1302.01 886.156 1302.52 886.156C1303.02 886.156 1303.43 886.592 1303.43 887.129C1303.43 887.666 1303.02 888.102 1302.52 888.102C1302.01 888.102 1301.6 887.666 1301.6 887.129Z" fill="#463174" fill-rule="nonzero" opacity="1" stroke="none" vectornator:layerName="Oval 4"/>
<path d="M1301.94 887.635C1301.94 887.441 1302.12 887.284 1302.33 887.284C1302.55 887.284 1302.73 887.441 1302.73 887.635C1302.73 887.829 1302.55 887.986 1302.33 887.986C1302.12 887.986 1301.94 887.829 1301.94 887.635Z" fill="#ffffff" fill-rule="nonzero" opacity="1" stroke="none" vectornator:layerName="Oval 7"/>
</g>
<g opacity="1" vectornator:layerName="Group 1">
<path d="M1307.86 887.129C1307.86 886.592 1308.27 886.156 1308.78 886.156C1309.28 886.156 1309.69 886.592 1309.69 887.129C1309.69 887.666 1309.28 888.102 1308.78 888.102C1308.27 888.102 1307.86 887.666 1307.86 887.129Z" fill="#463174" fill-rule="nonzero" opacity="1" stroke="none" vectornator:layerName="Oval 4"/>
<path d="M1308.2 887.644C1308.2 887.45 1308.38 887.293 1308.6 887.293C1308.82 887.293 1308.99 887.45 1308.99 887.644C1308.99 887.837 1308.82 887.994 1308.6 887.994C1308.38 887.994 1308.2 887.837 1308.2 887.644Z" fill="#ffffff" fill-rule="nonzero" opacity="1" stroke="none" vectornator:layerName="Oval 7"/>
</g>
</g>
</g>
</g>
<g opacity="1" vectornator:layerName="Group 18">
<g opacity="1" vectornator:layerName="Group 10">
<path d="M1331.22 886.847C1331.22 882.666 1327.8 879.276 1323.59 879.276C1319.38 879.276 1315.97 882.666 1315.97 886.847C1315.97 891.029 1315.97 894.029 1323.59 894.418C1331.21 894.807 1331.22 891.029 1331.22 886.847Z" fill="#ffffff" fill-rule="nonzero" opacity="1" stroke="#463174" stroke-linecap="butt" stroke-linejoin="round" stroke-width="1.18" vectornator:layerName="Oval 2"/>
<g opacity="1" vectornator:layerName="Group 4">
<g opacity="1" vectornator:layerName="Group 2">
<path d="M1327.46 887.129C1327.46 886.592 1327.05 886.156 1326.55 886.156C1326.04 886.156 1325.63 886.592 1325.63 887.129C1325.63 887.666 1326.04 888.102 1326.55 888.102C1327.05 888.102 1327.46 887.666 1327.46 887.129Z" fill="#463174" fill-rule="nonzero" opacity="1" stroke="none" vectornator:layerName="Oval 4"/>
<path d="M1327.13 887.635C1327.13 887.441 1326.95 887.284 1326.73 887.284C1326.51 887.284 1326.34 887.441 1326.34 887.635C1326.34 887.829 1326.51 887.986 1326.73 887.986C1326.95 887.986 1327.13 887.829 1327.13 887.635Z" fill="#ffffff" fill-rule="nonzero" opacity="1" stroke="none" vectornator:layerName="Oval 7"/>
</g>
<g opacity="1" vectornator:layerName="Group 1">
<path d="M1321.2 887.129C1321.2 886.592 1320.79 886.156 1320.29 886.156C1319.78 886.156 1319.37 886.592 1319.37 887.129C1319.37 887.666 1319.78 888.102 1320.29 888.102C1320.79 888.102 1321.2 887.666 1321.2 887.129Z" fill="#463174" fill-rule="nonzero" opacity="1" stroke="none" vectornator:layerName="Oval 4"/>
<path d="M1320.86 887.644C1320.86 887.45 1320.68 887.293 1320.47 887.293C1320.25 887.293 1320.07 887.45 1320.07 887.644C1320.07 887.837 1320.25 887.994 1320.47 887.994C1320.68 887.994 1320.86 887.837 1320.86 887.644Z" fill="#ffffff" fill-rule="nonzero" opacity="1" stroke="none" vectornator:layerName="Oval 7"/>
</g>
</g>
</g>
</g>
<g opacity="0.504908" vectornator:layerName="Group 23">
<path d="M1305.53 878.411L1305.45 878.364C1305.34 878.299 1304.39 877.71 1304.36 877.118C1304.35 876.742 1304.65 876.423 1305.03 876.406C1305.18 876.4 1305.33 876.443 1305.45 876.527C1305.56 876.433 1305.71 876.377 1305.86 876.371C1306.24 876.354 1306.57 876.647 1306.58 877.023C1306.61 877.625 1305.71 878.285 1305.6 878.358L1305.53 878.411Z" fill="#463174" fill-rule="nonzero" opacity="1" stroke="none" vectornator:layerName="path"/>
</g>
<g opacity="0.504908" vectornator:layerName="Group 24">
<path d="M1323.65 878.411L1323.57 878.364C1323.46 878.299 1322.51 877.71 1322.48 877.118C1322.47 876.742 1322.77 876.423 1323.15 876.406C1323.3 876.4 1323.45 876.443 1323.57 876.527C1323.68 876.433 1323.83 876.377 1323.98 876.371C1324.36 876.354 1324.69 876.647 1324.7 877.023C1324.73 877.625 1323.83 878.285 1323.72 878.358L1323.65 878.411Z" fill="#463174" fill-rule="nonzero" opacity="1" stroke="none" vectornator:layerName="path"/>
</g>
</g>
</g>
</svg>
