<?xml version="1.0" encoding="UTF-8" standalone="no"?>
<!DOCTYPE svg PUBLIC "-//W3C//DTD SVG 1.1//EN" "http://www.w3.org/Graphics/SVG/1.1/DTD/svg11.dtd">
<svg width="100%" height="100%" viewBox="0 0 540 29" version="1.1" xmlns="http://www.w3.org/2000/svg" xmlns:xlink="http://www.w3.org/1999/xlink" xml:space="preserve" xmlns:serif="http://www.serif.com/" style="fill-rule:evenodd;clip-rule:evenodd;stroke-linejoin:round;stroke-miterlimit:2;">
    <g transform="matrix(1,0,0,1.03571,0,-934.214)">
        <path d="M0,909L12.8,908.7C25.7,908.3 51.3,907.7 77,908.3C102.7,909 128.3,911 154,911.5C179.7,912 205.3,911 231.2,909.5C257,908 283,906 308.8,906.5C334.7,907 360.3,910 386,909.7C411.7,909.3 437.3,905.7 463,903.8C488.7,902 514.3,902 527.2,902L540,902L540,930L0,930L0,909Z" style="fill:white;fill-rule:nonzero;"/>
    </g>
</svg>
